<svg width="209" height="246" viewBox="0 0 209 246" fill="none" xmlns="http://www.w3.org/2000/svg">
<path d="M18.8433 204.92C19.6726 203.01 21.2261 201.508 23.1624 200.744C25.0987 199.979 27.2592 200.016 29.1688 200.845C51.9925 210.446 77.6809 210.659 100.661 201.438C123.641 192.216 142.058 174.303 151.918 151.586C161.778 128.869 162.285 103.179 153.329 80.0899C144.372 57.0011 126.675 38.3757 104.077 28.2547C102.203 27.4021 100.739 25.8477 100 23.9261C99.2616 22.0045 99.3068 19.8694 100.126 17.9808C100.946 16.0923 102.475 14.6014 104.383 13.8291C106.291 13.0568 108.426 13.0649 110.328 13.8518C123.549 19.5925 135.51 27.8817 145.528 38.2459C155.546 48.6101 163.425 60.8465 168.716 74.2564C174.006 87.6664 176.604 101.987 176.36 116.401C176.117 130.815 173.038 145.04 167.299 158.264C161.559 171.488 153.272 183.452 142.91 193.472C132.548 203.492 120.314 211.373 106.907 216.665C93.5001 221.956 79.1824 224.554 64.7715 224.311C50.3605 224.068 36.1386 220.988 22.9176 215.247C21.0083 214.418 19.5065 212.864 18.7424 210.927C17.9784 208.991 18.0147 206.83 18.8433 204.92Z" fill="#9E4A9E"/>
<path d="M35.7699 165.893C36.5991 163.983 38.1527 162.481 40.089 161.717C42.0253 160.953 44.1857 160.989 46.0953 161.818C52.3023 164.514 58.9794 165.961 65.7453 166.076C72.5113 166.191 79.2336 164.971 85.5285 162.488C91.8234 160.004 97.5676 156.305 102.433 151.601C107.299 146.896 111.19 141.28 113.885 135.072C116.581 128.863 118.027 122.185 118.142 115.417C118.257 108.65 117.038 101.926 114.555 95.6298C112.072 89.3336 108.373 83.5882 103.67 78.7216C98.9671 73.8551 93.3518 69.9628 87.1449 67.2668C86.1816 66.8683 85.3074 66.2819 84.5731 65.5419C83.8389 64.8018 83.2593 63.9229 82.8683 62.9564C82.4773 61.99 82.2826 60.9552 82.2957 59.9127C82.3087 58.8701 82.5293 57.8407 82.9444 56.8843C83.3595 55.928 83.9608 55.0638 84.7133 54.3424C85.4659 53.6209 86.3546 53.0566 87.3275 52.6824C88.3004 52.3082 89.3381 52.1315 90.38 52.1627C91.4219 52.1938 92.4472 52.4322 93.396 52.8639C101.558 56.3379 108.952 61.393 115.152 67.7379C121.351 74.0829 126.235 81.5922 129.52 89.8333C132.805 98.0744 134.427 106.884 134.293 115.755C134.159 124.626 132.271 133.383 128.739 141.521C125.206 149.659 120.098 157.017 113.709 163.172C107.32 169.326 99.7767 174.156 91.5136 177.381C83.2504 180.607 74.4308 182.165 65.563 181.966C56.6951 181.766 47.9543 179.814 39.8441 176.221C37.9348 175.392 36.4331 173.838 35.669 171.901C34.905 169.964 34.9412 167.803 35.7699 165.893Z" fill="#9E4A9E"/>
</svg>
