<svg width="302" height="500" viewBox="0 0 302 500" fill="none" xmlns="http://www.w3.org/2000/svg">
<path d="M297.521 50.7105C297.521 52.5144 296.804 54.2444 295.529 55.5199C294.253 56.7955 292.523 57.5123 290.719 57.5126C184.889 57.5141 98.6837 143.719 98.6437 249.588C98.6037 355.457 184.845 441.621 290.714 441.658C291.608 441.657 292.494 441.832 293.321 442.173C294.148 442.514 294.9 443.015 295.533 443.646C296.166 444.278 296.669 445.028 297.013 445.854C297.356 446.68 297.534 447.566 297.535 448.46C297.536 449.355 297.361 450.241 297.02 451.068C296.679 451.894 296.178 452.646 295.547 453.279C294.915 453.913 294.165 454.416 293.339 454.759C292.513 455.103 291.627 455.28 290.733 455.281C177.331 455.293 85.0572 363.019 85.0588 249.608C85.0604 136.196 177.327 43.9294 290.739 43.9277C292.536 43.9331 294.258 44.6494 295.529 45.9202C296.8 47.1911 297.516 48.9132 297.521 50.7105Z" fill="#FFE9AA"/>
<path d="M297.531 87.5682C297.53 89.3721 296.814 91.1021 295.538 92.3777C294.263 93.6533 292.533 94.37 290.729 94.3703C249.562 94.3696 210.08 110.722 180.97 139.831C151.859 168.94 135.504 208.421 135.502 249.587C135.5 290.754 151.852 330.235 180.96 359.345C210.068 388.455 249.548 404.809 290.715 404.81C291.618 404.794 292.515 404.958 293.354 405.293C294.193 405.628 294.957 406.127 295.601 406.76C296.246 407.393 296.757 408.148 297.107 408.981C297.456 409.814 297.636 410.708 297.636 411.612C297.636 412.515 297.456 413.409 297.107 414.242C296.757 415.076 296.245 415.831 295.601 416.464C294.957 417.097 294.193 417.596 293.354 417.93C292.515 418.265 291.618 418.43 290.714 418.414C246.017 418.295 203.192 400.455 171.63 368.807C140.067 337.158 122.344 294.285 122.346 249.588C122.348 204.89 140.075 162.017 171.64 130.37C203.205 98.7229 246.032 80.8843 290.729 80.7663C292.533 80.7665 294.263 81.4833 295.538 82.7588C296.814 84.0344 297.53 85.7643 297.531 87.5682Z" fill="#9E4A9E"/>
<path d="M297.53 124.417C297.529 126.221 296.813 127.951 295.537 129.226C294.261 130.502 292.532 131.218 290.728 131.219C259.842 131.973 230.475 144.771 208.897 166.882C187.319 188.993 175.24 218.664 175.239 249.558C175.239 280.453 187.317 310.123 208.894 332.233C230.472 354.344 259.839 367.142 290.724 367.894C292.508 367.925 294.208 368.656 295.458 369.928C296.708 371.2 297.409 372.912 297.409 374.696C297.409 376.48 296.708 378.193 295.458 379.465C294.208 380.737 292.508 381.467 290.724 381.498C256.274 380.68 223.51 366.42 199.435 341.766C175.359 317.112 161.882 284.018 161.882 249.558C161.883 215.098 175.361 182.005 199.437 157.35C223.513 132.695 256.277 118.434 290.728 117.615C292.532 117.615 294.262 118.332 295.537 119.607C296.813 120.883 297.529 122.613 297.53 124.417Z" fill="#9E4A9E"/>
<path d="M297.52 161.274C297.52 163.078 296.803 164.808 295.527 166.084C294.252 167.36 292.522 168.076 290.718 168.077C269.262 168.322 248.767 177.018 233.681 192.277C218.595 207.537 210.135 228.129 210.134 249.586C210.134 271.044 218.594 291.636 233.68 306.895C248.765 322.154 269.259 330.849 290.715 331.094C292.499 331.125 294.199 331.855 295.449 333.128C296.7 334.4 297.4 336.112 297.4 337.896C297.4 339.68 296.7 341.392 295.449 342.665C294.199 343.937 292.499 344.667 290.715 344.698C278.225 344.698 265.857 342.238 254.317 337.459C242.778 332.679 232.293 325.673 223.461 316.841C214.629 308.009 207.623 297.524 202.843 285.985C198.064 274.445 195.604 262.077 195.604 249.587C195.604 237.096 198.064 224.728 202.844 213.189C207.624 201.649 214.631 191.164 223.463 182.331C232.295 173.499 242.78 166.493 254.32 161.713C265.859 156.933 278.228 154.473 290.718 154.473C292.522 154.473 294.252 155.19 295.527 156.465C296.803 157.741 297.52 159.471 297.52 161.274Z" fill="#9E4A9E"/>
<path d="M297.529 198.132C297.529 199.936 296.812 201.666 295.536 202.942C294.261 204.217 292.531 204.934 290.727 204.934C284.862 204.934 279.055 206.088 273.637 208.332C268.219 210.576 263.296 213.865 259.149 218.011C255.002 222.157 251.712 227.08 249.467 232.497C247.222 237.915 246.066 243.722 246.066 249.586C246.065 255.45 247.219 261.257 249.463 266.675C251.706 272.093 254.995 277.016 259.141 281.164C263.287 285.311 268.21 288.6 273.627 290.845C279.045 293.09 284.852 294.245 290.716 294.246C291.619 294.23 292.516 294.394 293.355 294.729C294.194 295.064 294.958 295.562 295.602 296.196C296.247 296.829 296.759 297.584 297.108 298.417C297.457 299.25 297.637 300.144 297.637 301.048C297.637 301.951 297.457 302.845 297.108 303.678C296.758 304.512 296.247 305.267 295.602 305.9C294.958 306.533 294.194 307.032 293.355 307.366C292.516 307.701 291.619 307.866 290.716 307.85C283.029 307.906 275.407 306.44 268.29 303.537C261.172 300.634 254.7 296.351 249.245 290.935C243.79 285.519 239.461 279.077 236.507 271.981C233.553 264.884 232.032 257.273 232.033 249.586C232.034 241.899 233.556 234.288 236.511 227.192C239.466 220.096 243.797 213.655 249.253 208.24C254.709 202.825 261.182 198.543 268.3 195.641C275.418 192.738 283.04 191.274 290.727 191.33C292.531 191.331 294.261 192.047 295.536 193.323C296.812 194.598 297.529 196.328 297.529 198.132Z" fill="#9E4A9E"/>
</svg>
