<svg width="355" height="337" viewBox="0 0 355 337" fill="none" xmlns="http://www.w3.org/2000/svg">
<path d="M40.2731 155.301L72.9088 67.1977C52.8856 92.2265 41.387 123.268 40.2731 155.301Z" fill="#FEC830"/>
<path d="M41.6528 180.4C42.5742 186.992 43.9526 193.493 45.7773 199.852L106.139 36.8994C100.61 40.5397 95.3276 44.5782 90.3325 48.9838L41.6528 180.4Z" fill="#FEC830"/>
<path d="M57.2457 228.097L133.21 23.0237C128.594 24.7925 124.065 26.8105 119.64 29.0693L50.8894 214.67C52.7793 219.264 54.9009 223.746 57.2457 228.097Z" fill="#FEC830"/>
<path d="M63.8184 239.013C66.1682 242.531 68.6809 245.943 71.3566 249.249L157.699 16.1593C153.527 16.9187 149.398 17.8704 145.311 19.0144L63.8184 239.013Z" fill="#FEC830"/>
<path d="M78.8284 257.705C81.5015 260.47 84.2463 263.122 87.2086 265.667L180.424 14.0227C176.552 14.0524 172.702 14.2509 168.873 14.6183L78.8284 257.705Z" fill="#FEC830"/>
<path d="M95.3923 272.237C98.3184 274.359 101.336 276.396 104.444 278.346L201.753 15.651C198.134 15.0787 194.518 14.6581 190.905 14.3892L95.3923 272.237Z" fill="#FEC830"/>
<path d="M113.233 283.281C116.375 284.901 119.598 286.396 122.902 287.766L221.894 20.524C218.49 19.398 215.073 18.4281 211.643 17.6142L113.233 283.281Z" fill="#FEC830"/>
<path d="M132.232 291.236C135.643 292.343 139.058 293.307 142.476 294.127L240.88 28.474C237.753 26.8691 234.532 25.3803 231.22 24.0079L132.232 291.236Z" fill="#FEC830"/>
<path d="M152.364 296.097C155.983 296.669 159.604 297.091 163.225 297.364L258.738 39.5158C255.794 37.3872 252.773 35.3491 249.673 33.4016L152.364 296.097Z" fill="#FEC830"/>
<path d="M173.7 297.706C177.567 297.69 181.426 297.453 185.246 297.124L275.291 54.0375C272.629 51.2555 269.837 48.5966 266.916 46.061L173.7 297.706Z" fill="#FEC830"/>
<path d="M196.433 295.581C200.605 294.822 204.734 293.87 208.821 292.726L290.314 72.7269C287.962 69.1877 285.449 65.7756 282.776 62.4909L196.433 295.581Z" fill="#FEC830"/>
<path d="M220.907 288.721C225.522 286.952 230.052 284.934 234.476 282.675L303.227 97.0743C301.347 92.4761 299.225 87.9941 296.871 83.6478L220.907 288.721Z" fill="#FEC830"/>
<path d="M248.023 274.766C253.544 271.12 258.824 267.087 263.824 262.695L312.479 131.347C311.548 124.753 310.171 118.249 308.359 111.882L248.023 274.766Z" fill="#FEC830"/>
<path d="M313.791 156.425L281.155 244.529C301.178 219.5 312.677 188.458 313.791 156.425Z" fill="#FEC830"/>
</svg>
