<svg width="476" height="527" viewBox="0 0 476 527" fill="none" xmlns="http://www.w3.org/2000/svg">
<circle cx="356" cy="332.845" r="120" fill="#FFF6A7"/>
<path d="M89.2731 345.146L121.909 257.043C101.886 282.072 90.387 313.113 89.2731 345.146Z" fill="#9E4A9E"/>
<path d="M90.6527 370.245C91.5741 376.837 92.9524 383.338 94.7772 389.697L155.139 226.744C149.61 230.385 144.328 234.423 139.332 238.829L90.6527 370.245Z" fill="#9E4A9E"/>
<path d="M106.246 417.942L182.21 212.869C177.594 214.638 173.065 216.656 168.64 218.914L99.8893 404.515C101.779 409.109 103.901 413.591 106.246 417.942Z" fill="#9E4A9E"/>
<path d="M112.818 428.859C115.168 432.376 117.681 435.788 120.356 439.094L206.699 206.004C202.527 206.764 198.398 207.715 194.311 208.859L112.818 428.859Z" fill="#9E4A9E"/>
<path d="M127.828 447.55C130.501 450.315 133.246 452.967 136.208 455.512L229.424 203.868C225.552 203.897 221.702 204.096 217.873 204.463L127.828 447.55Z" fill="#9E4A9E"/>
<path d="M144.392 462.082C147.319 464.204 150.336 466.241 153.444 468.191L250.753 205.496C247.134 204.924 243.518 204.503 239.905 204.234L144.392 462.082Z" fill="#9E4A9E"/>
<path d="M162.233 473.126C165.375 474.746 168.598 476.241 171.902 477.611L270.894 210.369C267.49 209.243 264.073 208.273 260.643 207.459L162.233 473.126Z" fill="#9E4A9E"/>
<path d="M181.232 481.081C184.643 482.189 188.058 483.152 191.476 483.972L289.88 218.319C286.753 216.714 283.532 215.225 280.22 213.853L181.232 481.081Z" fill="#9E4A9E"/>
<path d="M201.364 485.942C204.983 486.514 208.603 486.936 212.225 487.209L307.738 229.361C304.794 227.232 301.773 225.194 298.673 223.247L201.364 485.942Z" fill="#9E4A9E"/>
<path d="M222.7 487.551C226.567 487.535 230.426 487.298 234.246 486.969L324.291 243.883C321.629 241.1 318.837 238.442 315.916 235.906L222.7 487.551Z" fill="#9E4A9E"/>
<path d="M245.433 485.426C249.605 484.667 253.734 483.715 257.821 482.571L339.314 262.572C336.962 259.033 334.449 255.621 331.775 252.336L245.433 485.426Z" fill="#9E4A9E"/>
<path d="M269.907 478.566C274.522 476.797 279.052 474.779 283.476 472.52L352.227 286.919C350.347 282.321 348.225 277.839 345.871 273.493L269.907 478.566Z" fill="#9E4A9E"/>
<path d="M297.023 464.611C302.543 460.965 307.823 456.932 312.824 452.54L361.478 321.192C360.547 314.598 359.171 308.094 357.359 301.727L297.023 464.611Z" fill="#9E4A9E"/>
<path d="M362.791 346.27L330.155 434.374C350.178 409.345 361.677 378.303 362.791 346.27Z" fill="#9E4A9E"/>
<path d="M26.9889 120.828L48.8596 61.7858C35.4412 78.5587 27.7355 99.3612 26.9889 120.828Z" fill="#9E4A9E"/>
<path d="M27.9135 137.648C28.531 142.065 29.4547 146.422 30.6775 150.683L71.1284 41.4816C67.4233 43.9211 63.8834 46.6275 60.536 49.5799L27.9135 137.648Z" fill="#9E4A9E"/>
<path d="M38.3631 169.612L89.27 32.1829C86.177 33.3682 83.1417 34.7206 80.1767 36.2343L34.1034 160.614C35.37 163.692 36.7918 166.696 38.3631 169.612Z" fill="#9E4A9E"/>
<path d="M42.7677 176.927C44.3424 179.285 46.0263 181.571 47.8194 183.787L105.681 27.5827C102.885 28.0916 100.118 28.7294 97.3798 29.496L42.7677 176.927Z" fill="#9E4A9E"/>
<path d="M52.8265 189.453C54.6178 191.306 56.4572 193.083 58.4424 194.789L120.91 26.1509C118.316 26.1707 115.735 26.3038 113.17 26.55L52.8265 189.453Z" fill="#9E4A9E"/>
<path d="M63.9269 199.192C65.8878 200.614 67.9099 201.979 69.993 203.286L135.204 27.242C132.779 26.8585 130.355 26.5766 127.934 26.3964L63.9269 199.192Z" fill="#9E4A9E"/>
<path d="M75.8829 206.593C77.9882 207.679 80.1479 208.681 82.3621 209.598L148.702 30.5077C146.42 29.7531 144.13 29.1032 141.831 28.5577L75.8829 206.593Z" fill="#9E4A9E"/>
<path d="M88.6149 211.924C90.9006 212.666 93.1889 213.312 95.4798 213.861L161.425 35.8353C159.329 34.7598 157.171 33.7621 154.951 32.8424L88.6149 211.924Z" fill="#9E4A9E"/>
<path d="M102.106 215.181C104.532 215.565 106.958 215.848 109.385 216.03L173.392 43.2349C171.42 41.8085 169.395 40.4426 167.317 39.1375L102.106 215.181Z" fill="#9E4A9E"/>
<path d="M116.404 216.26C118.996 216.249 121.582 216.09 124.141 215.87L184.485 52.9666C182.701 51.1022 180.83 49.3204 178.872 47.6212L116.404 216.26Z" fill="#9E4A9E"/>
<path d="M131.639 214.836C134.435 214.327 137.202 213.689 139.941 212.922L194.553 65.4912C192.977 63.1194 191.293 60.8329 189.501 58.6316L131.639 214.836Z" fill="#9E4A9E"/>
<path d="M148.04 210.239C151.133 209.053 154.168 207.701 157.133 206.187L203.206 81.8075C201.946 78.726 200.524 75.7224 198.947 72.8098L148.04 210.239Z" fill="#9E4A9E"/>
<path d="M166.212 200.886C169.911 198.443 173.449 195.74 176.801 192.797L209.406 104.775C208.782 100.356 207.86 95.9975 206.646 91.7307L166.212 200.886Z" fill="#9E4A9E"/>
<path d="M210.285 121.581L188.414 180.623C201.833 163.85 209.539 143.048 210.285 121.581Z" fill="#9E4A9E"/>
</svg>
