<svg width="259" height="226" viewBox="0 0 259 226" fill="none" xmlns="http://www.w3.org/2000/svg">
<path d="M122.261 167.336L68.9142 172.39C86.7493 176.66 105.545 174.88 122.261 167.336Z" fill="#F2C130"/>
<path d="M134.799 160.265C137.951 158.098 140.946 155.717 143.761 153.139L45.1177 162.484C48.3654 164.488 51.7528 166.264 55.2549 167.801L134.799 160.265Z" fill="#F2C130"/>
<path d="M155.391 139.876L31.2125 151.64C33.2727 153.638 35.4379 155.528 37.6994 157.303L150.1 146.655C151.983 144.488 153.75 142.225 155.391 139.876Z" fill="#F2C130"/>
<path d="M159.359 133.617C160.581 131.472 161.704 129.272 162.729 127.016L21.6031 140.386C23.031 142.412 24.5492 144.362 26.1577 146.236L159.359 133.617Z" fill="#F2C130"/>
<path d="M165.198 120.903C165.955 118.783 166.622 116.626 167.199 114.432L14.8326 128.866C15.8062 130.916 16.8664 132.909 18.0132 134.847L165.198 120.903Z" fill="#F2C130"/>
<path d="M168.535 108.427C168.912 106.329 169.204 104.207 169.41 102.062L10.3387 117.132C10.9439 119.2 11.6302 121.229 12.3977 123.219L168.535 108.427Z" fill="#F2C130"/>
<path d="M169.76 96.15C169.803 94.0918 169.783 91.9821 169.642 89.8796L7.82264 105.21C8.09579 107.3 8.45393 109.361 8.88424 111.391L169.76 96.15Z" fill="#F2C130"/>
<path d="M169.09 84.0486C168.817 81.9628 168.459 79.9015 168.028 77.8717L7.15677 93.1119C7.11374 95.1701 7.13405 97.2798 7.27436 99.3782L169.09 84.0486Z" fill="#F2C130"/>
<path d="M166.574 72.1276C165.969 70.0596 165.284 68.0319 164.52 66.0447L8.38679 80.836C8.00931 82.9341 7.71605 85.0544 7.50701 87.1968L166.574 72.1276Z" fill="#F2C130"/>
<path d="M162.089 60.3961C161.11 58.3525 160.05 56.3604 158.909 54.4199L11.7151 68.3643C10.9556 70.4849 10.2885 72.6406 9.71376 74.8313L162.089 60.3961Z" fill="#F2C130"/>
<path d="M155.326 48.872C153.899 46.8518 152.382 44.9031 150.776 43.0257L17.5628 55.6457C16.3374 57.7858 15.2123 59.9848 14.1874 62.2428L155.326 48.872Z" fill="#F2C130"/>
<path d="M145.704 37.6229C143.651 35.6237 141.491 33.7329 139.234 31.9584L26.8337 42.6066C24.9457 44.7745 23.1739 47.0377 21.5256 49.387L145.704 37.6229Z" fill="#F2C130"/>
<path d="M131.787 26.7805C128.539 24.7755 125.152 22.9987 121.649 21.4634L42.1178 28.9978C38.9623 31.1644 35.9646 33.546 33.1471 36.1252L131.787 26.7805Z" fill="#F2C130"/>
<path d="M54.6601 21.9267L108.007 16.8729C90.1717 12.6027 71.376 14.3833 54.6601 21.9267Z" fill="#F2C130"/>
<path d="M94.9509 212.724C95.0228 213.482 94.9421 214.248 94.7134 214.977C94.4847 215.706 94.1124 216.384 93.6179 216.972C93.1234 217.56 92.5163 218.047 91.8313 218.405C91.1463 218.763 90.3968 218.985 89.6256 219.058C88.8541 219.131 88.0759 219.055 87.3354 218.832C86.5949 218.61 85.9068 218.245 85.3102 217.761C84.7136 217.276 84.2202 216.68 83.8584 216.006C83.4966 215.333 83.2734 214.596 83.2014 213.837C83.0562 212.303 83.536 210.774 84.5354 209.585C85.5348 208.396 86.9719 207.646 88.5305 207.498C90.0885 207.352 91.64 207.82 92.8439 208.8C94.0479 209.779 94.8057 211.191 94.9509 212.724ZM122.059 210.156C122.204 211.688 121.724 213.216 120.726 214.404C119.727 215.592 118.291 216.342 116.733 216.49C115.176 216.637 113.625 216.17 112.421 215.191C111.217 214.212 110.459 212.801 110.313 211.268C110.241 210.509 110.321 209.743 110.55 209.014C110.778 208.284 111.15 207.606 111.645 207.017C112.139 206.429 112.746 205.941 113.432 205.583C114.117 205.225 114.867 205.003 115.638 204.93C116.41 204.857 117.188 204.934 117.928 205.157C118.669 205.38 119.357 205.745 119.953 206.23C120.549 206.716 121.042 207.312 121.403 207.985C121.765 208.659 121.987 209.396 122.059 210.156ZM149.171 207.587C149.243 208.346 149.162 209.112 148.933 209.842C148.704 210.571 148.331 211.249 147.836 211.837C147.342 212.425 146.734 212.912 146.048 213.27C145.363 213.628 144.613 213.849 143.841 213.922C142.284 214.069 140.732 213.602 139.528 212.623C138.324 211.643 137.566 210.233 137.421 208.7C137.276 207.167 137.755 205.639 138.754 204.45C139.752 203.262 141.188 202.511 142.746 202.362C144.305 202.214 145.857 202.682 147.062 203.662C148.267 204.642 149.026 206.054 149.171 207.587ZM176.279 205.019C176.424 206.551 175.944 208.08 174.946 209.267C173.947 210.455 172.511 211.206 170.953 211.353C169.396 211.501 167.844 211.033 166.64 210.054C165.436 209.075 164.678 207.664 164.533 206.132C164.461 205.373 164.541 204.607 164.77 203.877C164.998 203.148 165.37 202.469 165.865 201.881C166.359 201.292 166.966 200.805 167.652 200.447C168.337 200.089 169.087 199.867 169.858 199.794C170.63 199.72 171.408 199.798 172.148 200.021C172.889 200.244 173.577 200.608 174.173 201.094C174.769 201.579 175.262 202.175 175.623 202.849C175.985 203.522 176.207 204.26 176.279 205.019ZM203.387 202.451C203.532 203.983 203.052 205.512 202.053 206.699C201.055 207.887 199.619 208.638 198.061 208.785C196.504 208.933 194.952 208.465 193.748 207.486C192.544 206.507 191.786 205.096 191.641 203.564C191.569 202.805 191.649 202.039 191.877 201.309C192.106 200.58 192.478 199.901 192.972 199.313C193.467 198.724 194.074 198.237 194.759 197.879C195.445 197.521 196.195 197.299 196.966 197.225C197.738 197.152 198.516 197.23 199.256 197.453C199.996 197.676 200.684 198.04 201.281 198.526C201.877 199.011 202.37 199.607 202.731 200.281C203.092 200.954 203.315 201.692 203.387 202.451ZM230.499 199.883C230.644 201.415 230.164 202.943 229.165 204.131C228.167 205.319 226.731 206.069 225.173 206.217C224.402 206.29 223.623 206.214 222.883 205.991C222.143 205.769 221.454 205.404 220.858 204.919C220.261 204.435 219.768 203.839 219.406 203.165C219.044 202.492 218.821 201.755 218.749 200.996C218.604 199.462 219.084 197.933 220.083 196.744C221.082 195.555 222.519 194.805 224.078 194.657C225.636 194.511 227.188 194.979 228.392 195.958C229.595 196.938 230.353 198.35 230.499 199.883ZM257.606 197.314C257.752 198.847 257.272 200.375 256.273 201.563C255.275 202.751 253.839 203.501 252.281 203.649C250.724 203.796 249.172 203.329 247.968 202.35C246.764 201.37 246.006 199.96 245.861 198.427C245.789 197.668 245.869 196.902 246.097 196.173C246.326 195.443 246.698 194.765 247.192 194.176C247.687 193.588 248.294 193.1 248.979 192.742C249.665 192.384 250.414 192.162 251.186 192.089C251.959 192.014 252.739 192.089 253.481 192.311C254.223 192.533 254.913 192.897 255.511 193.382C256.109 193.868 256.603 194.465 256.966 195.139C257.328 195.814 257.551 196.552 257.623 197.313L257.606 197.314Z" fill="#EDB5CB"/>
<path d="M92.3225 186.617C92.4677 188.15 91.9882 189.678 90.9895 190.866C89.9908 192.054 88.5547 192.804 86.9972 192.951C86.2257 193.025 85.4475 192.948 84.707 192.726C83.9665 192.503 83.2783 192.139 82.6817 191.654C82.0851 191.169 81.5918 190.573 81.23 189.9C80.8682 189.227 80.6449 188.489 80.573 187.73C80.4277 186.197 80.9076 184.668 81.907 183.479C82.9064 182.29 84.3435 181.539 85.9021 181.392C87.4601 181.245 89.0116 181.713 90.2155 182.693C91.4194 183.673 92.1773 185.084 92.3225 186.617ZM119.43 184.049C119.576 185.582 119.096 187.11 118.097 188.298C117.099 189.486 115.663 190.236 114.105 190.383C113.334 190.456 112.556 190.379 111.816 190.156C111.076 189.934 110.388 189.569 109.792 189.084C109.196 188.6 108.703 188.004 108.342 187.331C107.98 186.658 107.757 185.921 107.685 185.162C107.613 184.403 107.693 183.637 107.921 182.907C108.15 182.178 108.522 181.5 109.016 180.911C109.511 180.322 110.118 179.835 110.803 179.477C111.489 179.119 112.238 178.897 113.01 178.824C113.782 178.751 114.56 178.828 115.3 179.051C116.04 179.274 116.728 179.639 117.324 180.124C117.921 180.609 118.414 181.206 118.775 181.879C119.136 182.553 119.359 183.29 119.43 184.049ZM146.542 181.481C146.614 182.24 146.533 183.006 146.304 183.735C146.076 184.464 145.703 185.143 145.208 185.731C144.713 186.319 144.105 186.806 143.42 187.164C142.735 187.521 141.985 187.743 141.213 187.815C139.655 187.963 138.104 187.496 136.9 186.516C135.696 185.537 134.938 184.126 134.793 182.594C134.72 181.835 134.801 181.069 135.029 180.339C135.258 179.61 135.63 178.931 136.124 178.343C136.619 177.754 137.226 177.267 137.911 176.909C138.596 176.551 139.346 176.329 140.118 176.256C141.676 176.108 143.229 176.576 144.434 177.555C145.639 178.535 146.397 179.947 146.542 181.481ZM173.65 178.913C173.795 180.445 173.316 181.973 172.317 183.161C171.319 184.349 169.882 185.099 168.325 185.247C167.553 185.321 166.775 185.244 166.035 185.021C165.294 184.799 164.606 184.435 164.009 183.95C163.413 183.465 162.92 182.869 162.558 182.195C162.196 181.522 161.973 180.785 161.901 180.026C161.755 178.492 162.235 176.963 163.235 175.774C164.234 174.586 165.671 173.835 167.23 173.687C168.001 173.614 168.78 173.691 169.52 173.914C170.26 174.137 170.948 174.502 171.544 174.987C172.141 175.473 172.633 176.069 172.995 176.743C173.356 177.416 173.579 178.154 173.65 178.913ZM200.758 176.345C200.903 177.877 200.424 179.405 199.425 180.593C198.426 181.781 196.99 182.531 195.433 182.679C193.875 182.826 192.324 182.359 191.12 181.38C189.916 180.401 189.158 178.99 189.013 177.457C188.94 176.698 189.021 175.932 189.249 175.203C189.477 174.473 189.85 173.795 190.344 173.206C190.839 172.618 191.446 172.13 192.131 171.772C192.816 171.414 193.566 171.192 194.338 171.119C195.109 171.046 195.887 171.123 196.628 171.346C197.368 171.569 198.056 171.934 198.652 172.419C199.248 172.905 199.741 173.501 200.103 174.175C200.464 174.848 200.687 175.585 200.758 176.345ZM227.87 173.776C228.015 175.308 227.536 176.837 226.537 178.025C225.538 179.213 224.102 179.963 222.545 180.11C221.773 180.184 220.995 180.107 220.255 179.885C219.514 179.662 218.826 179.298 218.229 178.813C217.633 178.328 217.139 177.732 216.778 177.059C216.416 176.386 216.192 175.648 216.121 174.889C215.975 173.356 216.455 171.827 217.455 170.638C218.454 169.449 219.891 168.698 221.45 168.551C223.008 168.404 224.559 168.872 225.763 169.852C226.967 170.832 227.725 172.243 227.87 173.776ZM254.978 171.208C255.123 172.74 254.644 174.269 253.645 175.457C252.646 176.644 251.21 177.395 249.653 177.542C248.095 177.69 246.544 177.223 245.34 176.243C244.136 175.264 243.378 173.853 243.233 172.321C243.092 170.791 243.574 169.267 244.572 168.082C245.571 166.898 247.005 166.15 248.559 166.003C250.114 165.856 251.663 166.321 252.866 167.297C254.069 168.272 254.829 169.679 254.978 171.208Z" fill="#EDB5CB"/>
<path d="M89.6948 160.512C89.7667 161.271 89.6859 162.037 89.4569 162.766C89.228 163.495 88.8554 164.173 88.3605 164.762C87.8655 165.35 87.258 165.837 86.5725 166.195C85.887 166.552 85.137 166.774 84.3654 166.846C83.5942 166.919 82.8163 166.842 82.0763 166.619C81.3363 166.396 80.6486 166.032 80.0524 165.547C79.4563 165.062 78.9634 164.466 78.6018 163.793C78.2403 163.12 78.0172 162.383 77.9453 161.625C77.8001 160.092 78.2795 158.563 79.278 157.375C80.2765 156.186 81.7125 155.435 83.2703 155.286C84.8289 155.139 86.3814 155.606 87.5862 156.586C88.791 157.566 89.5496 158.978 89.6948 160.512ZM116.803 157.944C116.875 158.702 116.794 159.468 116.565 160.197C116.336 160.926 115.964 161.604 115.47 162.192C114.975 162.78 114.368 163.267 113.683 163.625C112.998 163.983 112.249 164.205 111.477 164.278C110.706 164.351 109.928 164.274 109.188 164.051C108.448 163.828 107.761 163.464 107.164 162.979C106.568 162.494 106.075 161.898 105.714 161.225C105.352 160.552 105.129 159.815 105.057 159.056C104.985 158.297 105.065 157.531 105.294 156.802C105.522 156.072 105.894 155.394 106.389 154.805C106.883 154.217 107.49 153.729 108.176 153.371C108.861 153.013 109.611 152.791 110.382 152.718C111.154 152.645 111.932 152.722 112.672 152.945C113.413 153.168 114.101 153.533 114.697 154.018C115.293 154.503 115.786 155.1 116.147 155.773C116.509 156.447 116.731 157.184 116.803 157.944ZM143.911 155.375C143.982 156.135 143.902 156.901 143.673 157.63C143.444 158.359 143.071 159.037 142.576 159.626C142.081 160.214 141.474 160.701 140.788 161.058C140.103 161.416 139.353 161.637 138.581 161.71C137.024 161.856 135.474 161.389 134.271 160.409C133.068 159.43 132.31 158.02 132.165 156.488C132.093 155.729 132.173 154.964 132.401 154.235C132.629 153.505 133.001 152.827 133.495 152.239C133.989 151.65 134.596 151.163 135.281 150.805C135.965 150.446 136.715 150.224 137.486 150.15C138.258 150.077 139.036 150.153 139.777 150.376C140.518 150.599 141.206 150.963 141.803 151.449C142.4 151.934 142.893 152.531 143.255 153.205C143.616 153.878 143.839 154.616 143.911 155.375ZM171.023 152.807C171.094 153.566 171.014 154.331 170.785 155.06C170.556 155.789 170.184 156.467 169.69 157.056C169.195 157.644 168.588 158.131 167.903 158.488C167.218 158.846 166.468 159.068 165.697 159.141C164.926 159.215 164.147 159.138 163.407 158.916C162.667 158.693 161.978 158.329 161.382 157.844C160.785 157.359 160.292 156.763 159.93 156.09C159.568 155.416 159.345 154.679 159.273 153.92C159.128 152.387 159.608 150.857 160.607 149.669C161.606 148.48 163.043 147.729 164.602 147.582C166.16 147.435 167.712 147.903 168.916 148.883C170.119 149.863 170.877 151.274 171.023 152.807ZM198.13 150.239C198.202 150.998 198.121 151.765 197.892 152.494C197.663 153.224 197.29 153.902 196.795 154.491C196.299 155.079 195.691 155.566 195.005 155.923C194.319 156.281 193.569 156.502 192.797 156.574C191.24 156.719 189.691 156.251 188.489 155.272C187.287 154.292 186.53 152.883 186.385 151.352C186.239 149.82 186.717 148.292 187.714 147.104C188.711 145.915 190.145 145.164 191.702 145.014C192.474 144.94 193.253 145.016 193.994 145.239C194.735 145.461 195.424 145.826 196.021 146.311C196.618 146.796 197.112 147.393 197.474 148.067C197.836 148.741 198.059 149.479 198.13 150.239ZM225.242 147.67C225.314 148.43 225.233 149.196 225.005 149.925C224.776 150.654 224.403 151.332 223.908 151.921C223.413 152.509 222.806 152.996 222.12 153.353C221.435 153.711 220.685 153.932 219.913 154.005C219.142 154.078 218.364 154.001 217.624 153.778C216.884 153.555 216.196 153.191 215.6 152.706C215.004 152.221 214.511 151.625 214.149 150.952C213.788 150.279 213.565 149.542 213.493 148.784C213.42 148.025 213.501 147.258 213.729 146.529C213.958 145.8 214.33 145.121 214.824 144.533C215.319 143.944 215.926 143.457 216.611 143.099C217.296 142.74 218.046 142.518 218.818 142.445C219.59 142.372 220.368 142.449 221.108 142.672C221.849 142.895 222.537 143.26 223.134 143.745C223.73 144.23 224.224 144.827 224.585 145.5C224.947 146.174 225.17 146.911 225.242 147.67ZM252.35 145.102C252.422 145.862 252.341 146.629 252.112 147.359C251.882 148.089 251.509 148.767 251.013 149.356C250.517 149.944 249.909 150.431 249.222 150.788C248.536 151.145 247.785 151.366 247.012 151.438C245.457 151.582 243.908 151.113 242.707 150.134C241.506 149.155 240.75 147.745 240.605 146.215C240.459 144.684 240.936 143.157 241.932 141.969C242.928 140.781 244.362 140.029 245.917 139.878C246.69 139.803 247.469 139.879 248.211 140.101C248.953 140.324 249.642 140.688 250.24 141.173C250.837 141.658 251.331 142.255 251.693 142.93C252.056 143.604 252.279 144.342 252.35 145.102Z" fill="#EDB5CB"/>
<path d="M87.067 134.406C87.139 135.166 87.0581 135.932 86.8292 136.661C86.6002 137.39 86.2276 138.068 85.7327 138.656C85.2377 139.245 84.6302 139.732 83.9447 140.089C83.2592 140.447 82.5092 140.668 81.7376 140.741C80.1801 140.889 78.6286 140.421 77.4246 139.442C76.2206 138.463 75.4627 137.052 75.3175 135.52C75.1724 133.987 75.6519 132.459 76.6505 131.271C77.6492 130.083 79.0853 129.333 80.6429 129.185C81.4144 129.112 82.1926 129.188 82.9331 129.411C83.6735 129.634 84.3617 129.998 84.9583 130.482C85.5549 130.967 86.0482 131.564 86.4101 132.237C86.7719 132.91 86.9951 133.647 87.067 134.406ZM114.175 131.838C114.315 133.368 113.834 134.892 112.835 136.077C111.836 137.261 110.403 138.009 108.848 138.156C108.077 138.23 107.298 138.153 106.558 137.931C105.817 137.708 105.129 137.344 104.533 136.859C103.936 136.374 103.443 135.778 103.081 135.105C102.719 134.432 102.496 133.694 102.424 132.935C102.352 132.176 102.433 131.41 102.662 130.681C102.891 129.952 103.263 129.273 103.758 128.685C104.253 128.097 104.861 127.61 105.546 127.252C106.232 126.895 106.982 126.673 107.753 126.601C108.526 126.527 109.305 126.605 110.046 126.829C110.788 127.052 111.476 127.418 112.073 127.905C112.669 128.391 113.162 128.989 113.523 129.664C113.883 130.339 114.105 131.078 114.175 131.838ZM141.283 129.27C141.423 130.8 140.941 132.324 139.943 133.509C138.944 134.693 137.511 135.441 135.956 135.588C135.185 135.661 134.407 135.584 133.667 135.361C132.927 135.138 132.239 134.774 131.643 134.289C131.047 133.804 130.554 133.208 130.192 132.535C129.831 131.862 129.608 131.125 129.536 130.367C129.391 128.834 129.87 127.306 130.869 126.118C131.868 124.93 133.304 124.18 134.861 124.033C135.634 123.959 136.413 124.037 137.154 124.261C137.895 124.484 138.584 124.85 139.181 125.337C139.777 125.823 140.27 126.421 140.631 127.096C140.991 127.771 141.213 128.51 141.283 129.27ZM168.395 126.702C168.535 128.232 168.053 129.756 167.055 130.94C166.056 132.125 164.623 132.872 163.068 133.02C162.296 133.093 161.518 133.017 160.778 132.794C160.037 132.571 159.349 132.207 158.752 131.723C158.156 131.238 157.663 130.642 157.301 129.968C156.939 129.295 156.716 128.558 156.644 127.799C156.572 127.04 156.653 126.273 156.882 125.544C157.111 124.815 157.483 124.137 157.978 123.549C158.473 122.96 159.081 122.473 159.766 122.116C160.452 121.758 161.202 121.537 161.973 121.464C162.746 121.391 163.525 121.468 164.266 121.692C165.007 121.916 165.696 122.282 166.293 122.768C166.889 123.255 167.382 123.853 167.743 124.528C168.103 125.203 168.325 125.942 168.395 126.702ZM195.503 124.134C195.643 125.664 195.161 127.188 194.163 128.372C193.164 129.557 191.73 130.304 190.176 130.452C189.405 130.525 188.627 130.448 187.887 130.225C187.147 130.002 186.459 129.638 185.863 129.153C185.267 128.668 184.774 128.072 184.412 127.399C184.051 126.726 183.828 125.989 183.756 125.23C183.611 123.698 184.09 122.17 185.089 120.982C186.087 119.794 187.523 119.044 189.081 118.896C189.854 118.823 190.633 118.9 191.374 119.124C192.115 119.348 192.804 119.714 193.4 120.2C193.997 120.687 194.49 121.285 194.85 121.96C195.211 122.635 195.433 123.373 195.503 124.134ZM222.615 121.565C222.687 122.324 222.606 123.09 222.377 123.82C222.148 124.549 221.775 125.227 221.28 125.815C220.785 126.404 220.178 126.89 219.492 127.248C218.807 127.606 218.057 127.827 217.285 127.9C215.73 128.043 214.183 127.573 212.982 126.594C211.782 125.615 211.027 124.206 210.882 122.677C210.736 121.144 211.216 119.616 212.215 118.428C213.213 117.24 214.649 116.49 216.207 116.343C217.763 116.199 219.311 116.667 220.512 117.647C221.714 118.626 222.47 120.035 222.615 121.565ZM249.722 118.997C249.863 120.527 249.381 122.051 248.383 123.236C247.384 124.42 245.95 125.168 244.396 125.315C243.624 125.389 242.846 125.312 242.105 125.089C241.365 124.867 240.677 124.503 240.08 124.018C239.484 123.533 238.99 122.937 238.628 122.264C238.267 121.59 238.043 120.853 237.971 120.094C237.9 119.335 237.98 118.569 238.209 117.84C238.438 117.11 238.811 116.432 239.306 115.844C239.801 115.256 240.408 114.769 241.094 114.411C241.779 114.053 242.529 113.832 243.301 113.76C244.073 113.686 244.853 113.764 245.594 113.988C246.335 114.211 247.024 114.577 247.62 115.064C248.217 115.55 248.71 116.148 249.07 116.823C249.431 117.498 249.653 118.237 249.722 118.997Z" fill="#EDB5CB"/>
</svg>
