<svg width="400" height="398" viewBox="0 0 400 398" fill="none" xmlns="http://www.w3.org/2000/svg">
<circle cx="280" cy="278" r="120" fill="#FFF6A7"/>
<path d="M40.2733 177.301L72.9091 89.1977C52.8859 114.226 41.3873 145.268 40.2733 177.301Z" fill="#FEC830"/>
<path d="M41.6529 202.4C42.5743 208.992 43.9527 215.493 45.7774 221.852L106.139 58.8994C100.61 62.5398 95.3278 66.5783 90.3326 70.9838L41.6529 202.4Z" fill="#FEC830"/>
<path d="M57.2458 250.097L133.21 45.0237C128.594 46.7925 124.065 48.8105 119.641 51.0693L50.8895 236.67C52.7794 241.264 54.9011 245.746 57.2458 250.097Z" fill="#FEC830"/>
<path d="M63.8185 261.013C66.1683 264.531 68.6811 267.943 71.3567 271.249L157.699 38.1593C153.527 38.9187 149.398 39.8704 145.311 41.0144L63.8185 261.013Z" fill="#FEC830"/>
<path d="M78.8286 279.705C81.5016 282.47 84.2464 285.122 87.2087 287.667L180.424 36.0227C176.552 36.0524 172.702 36.2509 168.874 36.6183L78.8286 279.705Z" fill="#FEC830"/>
<path d="M95.3924 294.237C98.3186 296.359 101.336 298.396 104.444 300.346L201.753 37.651C198.134 37.0787 194.518 36.6581 190.905 36.3892L95.3924 294.237Z" fill="#FEC830"/>
<path d="M113.233 305.281C116.375 306.901 119.598 308.396 122.902 309.766L221.894 42.524C218.49 41.3981 215.073 40.4282 211.643 39.6142L113.233 305.281Z" fill="#FEC830"/>
<path d="M132.232 313.236C135.643 314.343 139.058 315.307 142.476 316.127L240.881 50.474C237.753 48.8691 234.533 47.3803 231.22 46.0079L132.232 313.236Z" fill="#FEC830"/>
<path d="M152.365 318.097C155.984 318.669 159.604 319.091 163.225 319.364L258.738 61.5157C255.795 59.3872 252.773 57.3491 249.673 55.4015L152.365 318.097Z" fill="#FEC830"/>
<path d="M173.7 319.706C177.567 319.69 181.426 319.453 185.246 319.124L275.291 76.0375C272.629 73.2555 269.837 70.5966 266.916 68.061L173.7 319.706Z" fill="#FEC830"/>
<path d="M196.434 317.581C200.605 316.822 204.735 315.87 208.821 314.726L290.314 94.7269C287.962 91.1877 285.45 87.7757 282.776 84.4909L196.434 317.581Z" fill="#FEC830"/>
<path d="M220.907 310.721C225.522 308.952 230.052 306.934 234.476 304.675L303.227 119.074C301.347 114.476 299.225 109.994 296.871 105.648L220.907 310.721Z" fill="#FEC830"/>
<path d="M248.023 296.766C253.544 293.12 258.824 289.087 263.824 284.695L312.479 153.347C311.548 146.753 310.171 140.249 308.359 133.882L248.023 296.766Z" fill="#FEC830"/>
<path d="M313.791 178.425L281.155 266.529C301.178 241.5 312.677 210.458 313.791 178.425Z" fill="#FEC830"/>
</svg>
