<svg width="28" height="29" viewBox="0 0 28 29" fill="none" xmlns="http://www.w3.org/2000/svg">
<path d="M14.1189 3.32736C17.7704 3.32736 18.2208 3.32736 19.6692 3.40062C20.5418 3.4146 21.4058 3.57558 22.2252 3.87684C22.8227 4.10103 23.3632 4.45554 23.8075 4.91476C24.2644 5.35883 24.6141 5.90179 24.8299 6.50216C25.1383 7.31772 25.2991 8.18197 25.3046 9.05422C25.3777 10.5073 25.3898 10.9469 25.3898 14.6346C25.3898 18.3222 25.3898 18.7496 25.3046 20.2027C25.2969 21.0787 25.1363 21.9466 24.8299 22.7669C24.6052 23.3629 24.2568 23.904 23.8077 24.3546C23.3587 24.8051 22.8192 25.1546 22.2252 25.3801C21.4075 25.6874 20.5424 25.8486 19.6692 25.8563C18.2208 25.9295 17.7826 25.9418 14.1189 25.9418C10.4553 25.9418 10.0171 25.9418 8.55648 25.8563C7.6872 25.8489 6.82604 25.6877 6.01261 25.3801C5.41417 25.1636 4.87295 24.8127 4.4303 24.3543C3.97255 23.9086 3.61918 23.3664 3.3957 22.7669C3.07744 21.9439 2.90049 21.0728 2.87233 20.1905C2.87233 18.7374 2.79931 18.2978 2.79931 14.6223C2.79931 10.9469 2.7993 10.4951 2.87233 9.04201C2.88436 8.17039 3.0449 7.30726 3.34703 6.48995C3.57893 5.89482 3.93116 5.35431 4.38155 4.90248C4.83193 4.45065 5.37069 4.09728 5.96392 3.86463C6.77899 3.56292 7.63912 3.4019 8.5078 3.38841C9.9684 3.32736 10.3944 3.31515 14.0702 3.31515L14.1189 3.32736ZM14.0702 0.872986C10.3335 0.872986 9.87101 0.872985 8.39824 0.958461C7.25837 0.986116 6.13116 1.20486 5.06323 1.60563C4.14454 1.94721 3.31303 2.48943 2.6289 3.19304C1.93156 3.88266 1.3917 4.71589 1.04659 5.6352C0.6471 6.70656 0.429061 7.83742 0.401494 8.98095C0.401494 10.4585 0.316284 10.9225 0.316284 14.6712C0.316284 18.4199 0.316293 18.8839 0.401494 20.3492C0.427935 21.4968 0.645988 22.6319 1.04659 23.7072C1.3917 24.6265 1.93156 25.4597 2.6289 26.1493C3.31943 26.8451 4.1491 27.3861 5.06323 27.7367C6.13041 28.1386 7.25851 28.3534 8.39824 28.3717C9.87101 28.445 10.3335 28.4572 14.0702 28.4572C17.8069 28.4572 18.2694 28.4572 19.73 28.3717C20.8738 28.3545 22.0062 28.1397 23.0772 27.7367C23.9903 27.3841 24.8195 26.8432 25.5114 26.1492C26.2032 25.4551 26.7423 24.6232 27.0939 23.7072C27.4956 22.6326 27.7097 21.4967 27.7268 20.3492C27.7998 18.8839 27.812 18.4199 27.812 14.6712C27.812 10.9225 27.812 10.4585 27.7268 8.98095C27.7085 7.83755 27.4944 6.70581 27.0939 5.6352C26.7443 4.71813 26.2051 3.88579 25.5116 3.19304C24.8274 2.48943 23.9959 1.94721 23.0772 1.60563C22.0054 1.20374 20.874 0.984986 19.73 0.958461C18.2694 0.897407 17.8069 0.872986 14.0702 0.872986Z" fill="#FEBB00"/>
<path d="M14.1189 7.55234C12.7226 7.55234 11.3577 7.9677 10.1968 8.74591C9.03587 9.52412 8.13102 10.6302 7.5967 11.9243C7.06238 13.2185 6.92258 14.6425 7.19498 16.0163C7.46737 17.3901 8.13972 18.652 9.12701 19.6425C10.1143 20.633 11.3722 21.3075 12.7416 21.5808C14.111 21.8541 15.5305 21.7138 16.8204 21.1778C18.1104 20.6417 19.213 19.734 19.9887 18.5693C20.7644 17.4046 21.1784 16.0353 21.1784 14.6346C21.1784 12.7563 20.4346 10.9549 19.1107 9.62669C17.7868 8.2985 15.9912 7.55234 14.1189 7.55234ZM14.1189 19.2259C13.2103 19.2283 12.3214 18.96 11.5649 18.4551C10.8085 17.9502 10.2184 17.2314 9.86963 16.3897C9.52081 15.548 9.42892 14.6214 9.60559 13.7273C9.78225 12.8332 10.2195 12.0118 10.862 11.3673C11.5045 10.7227 12.3232 10.284 13.2145 10.1068C14.1057 9.92956 15.0294 10.0218 15.8683 10.3717C16.7073 10.7216 17.4238 11.3136 17.9271 12.0725C18.4304 12.8314 18.6978 13.7231 18.6954 14.6346C18.6954 15.2375 18.577 15.8346 18.347 16.3916C18.117 16.9486 17.7799 17.4548 17.355 17.8811C16.93 18.3074 16.4255 18.6456 15.8702 18.8764C15.315 19.1071 14.7199 19.2259 14.1189 19.2259Z" fill="#FEBB00"/>
<path d="M23.1016 7.27144C23.0661 7.68572 22.877 8.07157 22.5716 8.35271C22.2662 8.63386 21.8668 8.78984 21.4523 8.78984C21.0379 8.78984 20.6385 8.63386 20.3331 8.35271C20.0277 8.07157 19.8386 7.68572 19.8031 7.27144C19.7834 7.04222 19.8115 6.81139 19.8854 6.59361C19.9594 6.37583 20.0777 6.17584 20.2327 6.00633C20.3878 5.83682 20.5763 5.70148 20.7862 5.6089C20.9962 5.51631 21.223 5.46851 21.4523 5.46851C21.6817 5.46851 21.9085 5.51631 22.1185 5.6089C22.3284 5.70148 22.5169 5.83682 22.6719 6.00633C22.827 6.17584 22.9453 6.37583 23.0192 6.59361C23.0932 6.81139 23.1212 7.04222 23.1016 7.27144Z" fill="#FEBB00"/>
</svg>
