<svg width="35" height="26" viewBox="0 0 35 26" fill="none" xmlns="http://www.w3.org/2000/svg">
<path d="M32.2945 5.01498C32.117 4.34432 31.7674 3.73206 31.2805 3.23926C30.7935 2.74647 30.1863 2.39038 29.5194 2.2065C27.085 1.54712 17.2747 1.54712 17.2747 1.54712C17.2747 1.54712 7.46438 1.54712 5.01788 2.2065C4.35094 2.39038 3.74372 2.74647 3.25678 3.23926C2.76984 3.73206 2.4202 4.34432 2.24275 5.01498C1.79764 7.52992 1.58172 10.0803 1.59765 12.6345C1.58172 15.1887 1.79764 17.7391 2.24275 20.2541C2.41834 20.927 2.76714 21.5418 3.2542 22.0368C3.74127 22.5319 4.34948 22.8898 5.01788 23.0748C7.45221 23.7341 17.2747 23.7341 17.2747 23.7341C17.2747 23.7341 27.0729 23.7341 29.5194 23.0748C30.1848 22.8919 30.7911 22.5377 31.2779 22.0472C31.7647 21.5566 32.1152 20.9469 32.2945 20.2785C32.748 17.7645 32.968 15.2137 32.9518 12.6589C32.9695 10.096 32.7495 7.537 32.2945 5.01498ZM14.0371 17.3113V7.95779L22.2407 12.6345L14.0371 17.3113Z" stroke="#FEBB00" stroke-width="3" stroke-linejoin="round"/>
</svg>
