<svg width="30" height="28" viewBox="0 0 30 28" fill="none" xmlns="http://www.w3.org/2000/svg">
<path d="M26.9864 0.946188C26.612 0.968805 26.2449 1.05985 25.9031 1.21483L22.6046 2.61907L15.7641 5.53745L1.79113 11.6428C1.46512 11.7663 1.15787 11.9349 0.878255 12.1435C0.620607 12.357 0.411326 12.6232 0.264399 12.9243C0.117473 13.2254 0.0362878 13.5545 0.0262451 13.8896C0.0313717 14.4748 0.262635 15.0351 0.67134 15.4526C0.97717 15.7498 1.34218 15.9786 1.74243 16.1242L7.31704 18.4198C7.56047 19.1647 8.89935 23.3042 9.20364 24.2688C9.33628 24.7729 9.55896 25.2487 9.8609 25.6731C9.97992 25.8452 10.1333 25.9908 10.3113 26.1004C10.3847 26.1443 10.4621 26.1811 10.5425 26.2103H10.6521C10.8246 26.2701 11.0052 26.303 11.1876 26.308C11.6267 26.3269 12.0582 26.1884 12.4048 25.9173L16.0563 22.7302L20.4989 26.9552C20.728 27.2469 21.023 27.4799 21.3595 27.6349C21.6959 27.7899 22.0643 27.8624 22.4342 27.8466C22.7648 27.8406 23.0907 27.7672 23.392 27.6307C23.6933 27.4942 23.9638 27.2976 24.1869 27.0529C24.5664 26.6747 24.8213 26.1888 24.9172 25.6608L29.1164 4.05994C29.2437 3.54677 29.2437 3.01013 29.1164 2.49696C28.9683 1.99311 28.6442 1.55963 28.2035 1.27588C27.8371 1.05258 27.415 0.938248 26.9864 0.946188ZM26.7551 3.49824C26.7551 3.49824 26.7551 3.49824 26.7551 3.5593C26.7551 3.5593 22.702 24.3177 22.5559 25.1724C22.5559 25.1114 22.5559 25.1724 22.4707 25.3067C22.3967 25.264 22.3193 25.2272 22.2395 25.1968L16.1536 19.4455L11.857 23.1088L13.0742 17.9802L21.5943 9.2129C21.9838 8.83436 22.0691 8.70004 22.0691 8.56572C22.0728 8.5247 22.0675 8.48335 22.0535 8.4446C22.0395 8.40586 22.0173 8.37068 21.9882 8.34155C21.9592 8.31241 21.9241 8.29005 21.8855 8.27603C21.8469 8.26202 21.8057 8.2567 21.7648 8.26045C21.5568 8.30021 21.361 8.38801 21.1927 8.51688C19.4522 9.64028 11.7962 14.1216 8.3638 16.1242L2.74051 13.8164L16.7135 7.78423L23.554 4.84143L26.7551 3.49824Z" fill="#FEBB00"/>
</svg>
