<svg width="21" height="37" viewBox="0 0 21 37" fill="none" xmlns="http://www.w3.org/2000/svg">
<path d="M5.36884 33.8367C5.36884 34.6652 6.04042 35.3367 6.86884 35.3367H12.9547C13.7831 35.3367 14.4547 34.6652 14.4547 33.8367V20H17.2147C17.9923 20 18.641 19.4058 18.709 18.6312L19.1593 13.5027C19.1961 13.0836 19.0553 12.6684 18.7712 12.3582C18.487 12.0481 18.0857 11.8714 17.6651 11.8714H14.479V10.4409C14.479 10.3726 14.4799 10.3112 14.4817 10.2558H17.6894C18.5178 10.2558 19.1894 9.58419 19.1894 8.75576V3.43185C19.1894 2.60343 18.5178 1.93185 17.6894 1.93185H13.4659C11.0089 1.93185 8.92673 2.46954 7.45695 3.80302C5.95794 5.16303 5.36884 7.09868 5.36884 9.28083V11.8714H3.70422C2.8758 11.8714 2.20422 12.543 2.20422 13.3714V18.561C2.20422 19.3895 2.8758 20.061 3.70422 20.061H5.36884V33.8367ZM14.5156 9.91338C14.5156 9.91339 14.5154 9.91416 14.5149 9.91563L14.5156 9.91338Z" stroke="#FEBB00" stroke-width="3" stroke-linejoin="round"/>
</svg>
