<svg width="260" height="230" viewBox="0 0 260 230" fill="none" xmlns="http://www.w3.org/2000/svg">
<g clip-path="url(#clip0_12_366)">
<path d="M145.775 89.5298L140.525 97.4643C140.44 97.623 140.312 97.7817 140.226 97.9404C138.007 101.22 135.958 103.071 133.995 104.129C131.263 105.557 128.659 105.452 126.056 105.399C121.574 105.346 109.666 97.8346 105.825 99.8446C101.983 101.855 74.8803 116.137 71.039 118.147C70.4841 118.411 70.0146 118.993 69.5024 119.681L74.7523 111.746C75.2218 111.006 75.734 110.477 76.2889 110.212C80.1302 108.202 107.233 93.9202 111.075 91.9101C114.916 89.9001 126.824 97.4114 131.306 97.4643C133.909 97.4643 136.513 97.623 139.245 96.1947C141.208 95.1368 143.257 93.2855 145.476 90.0059C145.561 89.8472 145.647 89.6885 145.775 89.5298Z" fill="#B687D6"/>
<path d="M67.4537 130.947L62.2039 138.882C62.1612 138.935 62.1185 138.988 62.0758 139.041C60.4539 141.315 58.9174 143.59 56.1431 145.071C54.1797 146.129 51.5761 146.711 47.8628 146.499C38.985 146.076 33.2656 144.277 31.9425 138.935C30.6193 133.645 26.906 114.549 24.6866 99.4739C23.3207 90.217 25.4548 83.076 28.656 78.2624L33.9058 70.3279C30.7047 75.1415 28.5706 82.2825 29.9364 91.5394C32.1559 106.615 35.8692 125.658 37.1923 131C38.5155 136.29 44.2348 138.088 53.1127 138.565C56.826 138.723 59.4296 138.141 61.3929 137.136C64.1672 135.708 65.6611 133.381 67.3257 131.106C67.3684 131.053 67.4111 131 67.4537 130.947Z" fill="#B687D6"/>
<path d="M146.586 88.366L141.336 96.3005C141.251 96.4591 141.123 96.6179 141.037 96.7765C138.818 100.056 136.769 101.908 134.806 102.965C132.074 104.394 129.47 104.288 126.867 104.235C122.385 104.182 110.477 96.6707 106.636 98.6808C102.794 100.691 75.6914 114.973 71.85 116.983C71.2952 117.248 70.8257 117.829 70.3135 118.517L75.5633 110.583C76.0328 109.842 76.545 109.313 77.0999 109.049C80.9412 107.038 108.044 92.7564 111.886 90.7463C115.727 88.7362 127.635 96.2476 132.117 96.3005C134.72 96.3005 137.324 96.4592 140.056 95.031C142.019 93.973 144.068 92.1216 146.287 88.842C146.372 88.6834 146.458 88.5247 146.586 88.366Z" fill="#9E4A9E"/>
<path d="M68.2648 129.731L63.0149 137.665C62.9722 137.718 62.9296 137.771 62.8869 137.824C61.265 140.099 59.7284 142.373 56.9541 143.854C54.9907 144.912 52.3871 145.494 48.6738 145.283C39.796 144.859 34.0766 143.061 32.7535 137.718C31.4304 132.429 27.7171 113.333 25.4976 98.2575C24.1318 89.0006 26.2659 81.8596 29.467 77.046L34.7169 69.1115C31.5157 73.925 29.3816 81.0661 30.7475 90.323C32.9669 105.399 36.6802 124.441 38.0034 129.784C39.3265 135.074 45.0459 136.872 53.9237 137.348C57.637 137.507 60.2406 136.925 62.204 135.92C64.9783 134.492 66.4721 132.164 68.1367 129.89C68.1794 129.89 68.2221 129.784 68.2648 129.731Z" fill="#9E4A9E"/>
<path d="M144.025 92.1738L146.586 88.3124C146.5 88.4711 146.372 88.6297 146.287 88.7884C144.067 92.068 142.019 93.9194 140.055 94.9773C137.324 96.4055 134.72 96.2998 132.117 96.2469C127.635 96.194 115.684 88.6827 111.885 90.6927C108.044 92.7028 80.941 106.985 77.0996 108.995C76.5448 109.259 76.0753 109.841 75.5631 110.529L70.3132 118.463C70.7827 117.723 71.2949 117.194 71.8498 116.929C72.1059 116.771 72.49 116.612 72.9595 116.348C74.0692 113.227 75.2643 110.688 76.7155 109.947C80.5569 107.937 107.66 93.6549 111.501 91.6449C115.343 89.6348 127.251 97.1461 131.732 97.199C134.336 97.199 136.94 97.3577 139.671 95.9295C141.037 95.1889 142.488 94.0252 144.025 92.1738Z" fill="white"/>
<path d="M65.7891 133.433L68.222 129.731C68.1793 129.783 68.1366 129.836 68.094 129.889C66.4721 132.164 64.9355 134.438 62.1612 135.919C60.1978 136.977 57.5942 137.559 53.8809 137.348C45.0031 136.924 39.2837 135.126 37.9606 129.783C36.6375 124.494 32.9241 105.398 30.7047 90.3225C29.723 83.4989 30.5766 77.8389 32.412 73.3956C30.3206 77.9447 29.2535 83.9221 30.3206 91.2218C32.54 106.297 36.2533 125.34 37.5765 130.683C38.8996 135.972 44.619 137.771 53.4968 138.247C57.2101 138.406 59.8137 137.824 61.7771 136.819C63.4843 135.972 64.7221 134.756 65.7891 133.433Z" fill="white"/>
<path d="M151.067 70.3809C148.208 65.8847 137.196 50.6505 128.105 39.2248C118.971 27.7991 107.959 27.9049 102.239 30.92C96.4774 33.9352 47.1372 59.9074 41.3752 62.9225C35.6131 65.9376 28.6133 75.3532 30.8328 90.4288C33.0522 105.504 36.7655 124.547 38.0887 129.89C39.4118 135.179 45.1312 136.978 54.009 137.454C57.7223 137.613 60.3259 137.031 62.2893 136.026C65.0636 134.597 66.5574 132.27 68.222 129.995C71.039 126.134 73.3012 111.111 77.1425 109.101C80.9839 107.091 108.087 92.8091 111.928 90.799C115.77 88.789 127.678 96.3003 132.159 96.3532C134.763 96.3532 137.367 96.5119 140.098 95.0836C142.062 94.0257 144.11 92.1743 146.33 88.8947C151.58 80.9073 153.927 74.8771 151.067 70.3809Z" fill="#FEBB00"/>
<path d="M66.7283 63.3977L66.1735 62.1811L66.7283 61.9166C67.0271 61.7579 67.3259 61.8637 67.4966 62.2869C67.6673 62.71 67.582 63.0274 67.2832 63.1861L66.7283 63.3977ZM66.2162 60.5413L64.1248 61.6521L66.4296 66.836L67.9234 66.0425L67.3259 64.7201L67.9661 64.4027C69.1185 63.768 69.46 62.71 68.9051 61.4405C68.3503 60.2768 67.3686 59.9594 66.2162 60.5413Z" fill="url(#paint0_linear_12_366)"/>
<path d="M69.9721 58.5845L68.4783 59.325L70.7831 64.5618L74.1123 62.7633L73.5147 61.3351L71.6367 62.3401L69.9721 58.5845Z" fill="url(#paint1_linear_12_366)"/>
<path d="M75.3928 59.6947L75.1794 57.9491L76.3318 59.2187L75.3928 59.6947ZM75.2221 55.7804L73.6855 56.5738L74.1124 62.7627L75.6062 61.9693L75.5209 61.1229L77.1855 60.2237L77.7403 60.8585L79.3195 60.0121L75.2221 55.7804Z" fill="url(#paint2_linear_12_366)"/>
<path d="M81.2402 52.6598L79.789 53.4004V55.8865L78.039 54.3525L76.5452 55.093L79.789 57.8966L80.4719 59.4305L81.9658 58.69L81.2402 57.0502V52.6598Z" fill="url(#paint3_linear_12_366)"/>
<path d="M85.2948 50.5443L81.4961 52.5015L83.8009 57.6853L87.6423 55.6753L87.0874 54.3529L84.6972 55.6224L84.4411 54.9876L86.5326 53.8768L85.935 52.5544L83.8436 53.6652L83.5875 53.0305L85.8496 51.8138L85.2948 50.5443Z" fill="url(#paint4_linear_12_366)"/>
<path d="M88.4959 51.9722L87.9411 50.7556L88.624 50.3853C88.9654 50.2266 89.2215 50.3324 89.3922 50.7027C89.563 51.1258 89.4776 51.4432 89.1788 51.6019L88.4959 51.9722ZM88.0691 49.0629L85.8923 50.1737L88.1971 55.3576L89.691 54.5641L89.0935 53.2417L89.6483 52.9772L90.7581 54.0351L92.4227 53.1359L90.8007 51.9193C91.0995 51.3374 91.0995 50.6498 90.8007 49.9092C90.2886 48.7455 89.3069 48.4281 88.0691 49.0629Z" fill="url(#paint5_linear_12_366)"/>
<path d="M75.8197 65.5665C75.0941 65.9368 74.6246 66.5715 74.1978 67.4179L75.3075 68.37C75.5636 67.7352 75.8623 67.2592 76.2038 67.0476C76.3745 66.9418 76.5453 66.9947 76.6306 67.1534C76.716 67.3121 76.6733 67.6823 76.5879 67.9997L75.8623 70.6975L76.3318 71.7554L79.8318 69.904L79.2342 68.5816L77.6123 69.4279L77.9538 68.2642C78.2098 67.4179 78.2952 66.6773 78.0391 66.0426C77.6977 65.2491 76.7587 65.0904 75.8197 65.5665Z" fill="url(#paint6_linear_12_366)"/>
<path d="M82.3499 62.2344L80.9841 62.922L82.1792 65.5669L79.2341 63.8213L77.9963 64.5089L80.3012 69.6928L81.6243 68.9523L80.4719 66.3074L83.3742 68.053L84.6547 67.4183L82.3499 62.2344Z" fill="url(#paint7_linear_12_366)"/>
<path d="M86.1484 64.9318L85.0387 62.3927L85.5082 62.1283C86.1058 61.8109 86.6606 62.1283 87.0021 62.9217C87.3435 63.6623 87.2155 64.3499 86.6606 64.6144L86.1484 64.9318ZM84.996 60.8058L82.99 61.8638L85.2948 67.0476L87.2155 66.0426C88.7094 65.2492 89.2642 63.7152 88.5386 62.1283C87.8557 60.5943 86.4472 60.0653 84.996 60.8058Z" fill="url(#paint8_linear_12_366)"/>
<path d="M119.099 48.9046C121.19 47.7937 123.794 49.0632 124.903 51.7081L125.586 53.295C126.739 55.9398 125.97 58.9549 123.879 60.0658L121.105 61.494L117.263 59.6426C115.641 58.8491 114.702 56.6804 115.172 54.7761L116.282 50.2799L119.099 48.9046Z" fill="url(#paint9_linear_12_366)"/>
<path d="M107.532 43.2976C109.623 42.1867 112.227 43.4563 113.337 46.154L114.831 49.6981L113.721 54.1414C113.465 55.0935 112.953 55.7812 112.227 56.1514C111.544 56.5217 110.69 56.5217 109.879 56.1514L106.038 54.3001L104.544 50.756C103.392 48.1112 104.16 45.0432 106.252 43.9852L107.532 43.2976Z" fill="url(#paint10_linear_12_366)"/>
<path d="M114.532 61.3887C115.215 61.0184 116.068 61.0184 116.879 61.3887L120.721 63.2401L122.215 66.7841C123.367 69.429 122.599 72.497 120.507 73.5549L119.27 74.1897C117.178 75.3005 114.575 74.031 113.465 71.3332L111.971 67.7892L113.081 63.293C113.294 62.4466 113.849 61.7589 114.532 61.3887Z" fill="#9E4A9E"/>
<path d="M105.654 55.9403L109.495 57.7917C111.117 58.5851 112.056 60.7539 111.587 62.6582L110.477 67.1544L107.703 68.5826C105.611 69.6934 103.008 68.4239 101.898 65.7791L101.215 64.1922C100.063 61.5473 100.831 58.4793 102.922 57.4214L105.654 55.9403Z" fill="url(#paint11_linear_12_366)"/>
<path d="M93.7884 77.3104C94.8981 76.7285 96.3066 77.4162 96.9041 78.8444L97.2029 79.585C97.8005 81.0132 97.4163 82.6529 96.3066 83.2348L93.6176 84.663C92.5079 85.2449 91.0994 84.5572 90.5019 83.129L90.2031 82.3885C89.6055 80.9603 89.9897 79.3205 91.0994 78.7386L93.7884 77.3104Z" fill="url(#paint12_linear_12_366)"/>
<path d="M81.7522 83.6577C82.862 83.0758 84.2705 83.7635 84.868 85.1917L85.1668 85.9322C85.7643 87.3605 85.3802 89.0002 84.2705 89.5821L81.5815 91.0103C80.4718 91.5922 79.0633 90.9045 78.4657 89.4763L78.167 88.7358C77.5694 87.3076 77.9535 85.6677 79.0633 85.0859L81.7522 83.6577Z" fill="url(#paint13_linear_12_366)"/>
<path d="M46.4116 85.6153L50.2529 87.4667C51.0639 87.837 51.8749 87.837 52.6004 87.4667C53.2834 87.0964 53.8382 86.4088 54.0943 85.4566L55.204 80.9604L53.7102 77.4163C52.5578 74.7715 49.9542 73.502 47.9054 74.6128L46.6677 75.2476C44.5763 76.3584 43.8507 79.3735 44.9604 82.0183L46.4116 85.6153Z" fill="url(#paint14_linear_12_366)"/>
<path d="M49.826 89.2126L45.9846 87.3612L43.2103 88.7894C41.1189 89.9002 40.3506 92.9154 41.503 95.5602L42.1859 97.1471C43.3383 99.7919 45.8992 101.061 47.9906 99.9506L50.765 98.4695L51.8747 94.0262C52.3869 92.1748 51.4479 90.006 49.826 89.2126Z" fill="url(#paint15_linear_12_366)"/>
<path d="M65.9172 84.716L65.2343 83.1291C64.0819 80.4843 61.4783 79.2147 59.4296 80.3256L56.6553 81.7538L55.5455 86.25C55.076 88.1543 56.015 90.3231 57.6369 91.1165L61.4783 92.9679L64.2526 91.5397C66.3014 90.4289 67.0696 87.3609 65.9172 84.716Z" fill="url(#paint16_linear_12_366)"/>
<path d="M61.0083 94.6606L57.167 92.8092C56.356 92.4389 55.5024 92.4389 54.8195 92.8092C54.1365 93.1795 53.5817 93.8671 53.3683 94.8193L52.2585 99.3155L53.7524 102.86C54.9048 105.504 57.5084 106.774 59.5571 105.716L60.7949 105.081C62.8863 103.97 63.6546 100.955 62.5022 98.3104L61.0083 94.6606Z" fill="url(#paint17_linear_12_366)"/>
<path opacity="0.9" d="M128.062 39.2249C121.745 31.2904 114.489 28.91 108.727 29.2274L84.2703 105.24C93.7456 100.268 109.026 92.2272 111.8 90.7461C113.55 89.794 117.05 90.9049 120.721 92.386L134.976 48.1644C132.671 45.0435 130.324 42.0284 128.062 39.2249Z" fill="url(#paint18_linear_12_366)"/>
<path opacity="0.9" d="M46.2408 60.3307L32.668 102.436C34.674 114.285 36.9788 125.87 37.9605 129.837C38.6861 132.693 40.6495 134.492 43.7226 135.655L72.4047 46.5247C62.4172 51.8143 52.2589 57.1569 46.2408 60.3307Z" fill="url(#paint19_linear_12_366)"/>
<path d="M123.037 187.932L129.549 193.627C129.662 193.746 129.813 193.854 129.926 193.973C132.661 196.315 134.915 197.441 136.909 197.888C139.673 198.472 141.968 197.736 144.276 197.047C148.257 195.893 157.13 186.334 161.018 187.157C164.905 187.98 192.356 193.873 196.243 194.696C196.799 194.792 197.352 195.188 197.967 195.668L191.455 189.972C190.865 189.436 190.287 189.096 189.731 189C185.844 188.177 158.393 182.284 154.505 181.461C150.618 180.638 141.744 190.198 137.764 191.351C135.444 191.994 133.161 192.777 130.397 192.192C128.403 191.745 126.149 190.619 123.413 188.278C123.301 188.159 123.188 188.04 123.037 187.932Z" fill="#B687D6"/>
<path d="M202.321 205.511L208.85 211.243C208.9 211.279 208.95 211.315 209.001 211.352C210.977 212.966 212.876 214.601 215.698 215.225C217.696 215.675 220.156 215.543 223.423 214.432C231.253 211.848 235.943 208.83 235.886 203.762C235.84 198.741 234.727 180.879 233.212 166.954C232.284 158.404 228.722 152.6 224.747 149.127L218.218 143.395C222.193 146.868 225.756 152.672 226.683 161.222C228.198 175.147 229.299 192.962 229.357 198.03C229.402 203.051 224.712 206.069 216.895 208.7C213.615 209.764 211.155 209.896 209.169 209.493C206.36 208.916 204.486 207.223 202.472 205.62C202.422 205.583 202.371 205.547 202.321 205.511Z" fill="#B687D6"/>
<path d="M122.043 187.094L128.555 192.789C128.668 192.908 128.819 193.016 128.932 193.135C131.668 195.477 133.921 196.603 135.915 197.05C138.679 197.634 140.974 196.898 143.282 196.208C147.263 195.055 156.136 185.496 160.024 186.319C163.911 187.141 191.362 193.035 195.25 193.857C195.805 193.954 196.358 194.35 196.973 194.83L190.461 189.134C189.871 188.598 189.293 188.258 188.737 188.162C184.85 187.339 157.399 181.446 153.511 180.623C149.624 179.8 140.751 189.36 136.77 190.513C134.45 191.156 132.167 191.938 129.403 191.354C127.409 190.907 125.155 189.781 122.419 187.439C122.307 187.321 122.194 187.202 122.043 187.094Z" fill="#9E4A9E"/>
<path d="M201.315 204.625L207.844 210.357C207.894 210.394 207.944 210.43 207.995 210.466C209.971 212.08 211.871 213.716 214.692 214.339C216.69 214.789 219.15 214.658 222.417 213.546C230.247 210.962 234.938 207.944 234.88 202.876C234.834 197.855 233.721 179.993 232.206 166.069C231.278 157.518 227.716 151.715 223.741 148.241L217.212 142.509C221.188 145.983 224.75 151.786 225.677 160.337C227.192 174.261 228.293 192.076 228.351 197.144C228.397 202.165 223.706 205.183 215.889 207.814C212.609 208.879 210.149 209.01 208.163 208.607C205.354 208.03 203.48 206.338 201.466 204.734C201.428 204.745 201.365 204.662 201.315 204.625Z" fill="#9E4A9E"/>
<path d="M125.204 189.916L122.031 187.164C122.144 187.282 122.294 187.39 122.407 187.508C125.141 189.833 127.394 190.948 129.388 191.389C132.152 191.963 134.448 191.223 136.756 190.53C140.738 189.37 149.657 179.811 153.506 180.63C157.393 181.439 184.842 187.234 188.729 188.043C189.285 188.137 189.837 188.531 190.453 189.007L196.961 194.663C196.372 194.13 195.794 193.793 195.238 193.699C194.973 193.623 194.594 193.58 194.115 193.464C192.406 191.002 190.755 189.072 189.291 188.783C185.404 187.974 157.955 182.179 154.068 181.37C150.181 180.561 141.3 190.11 137.318 191.27C134.998 191.917 132.714 192.703 129.95 192.129C128.562 191.818 127 191.158 125.204 189.916Z" fill="white"/>
<path d="M204.375 207.274L201.344 204.607C201.394 204.643 201.444 204.679 201.495 204.716C203.471 206.322 205.37 207.949 208.192 208.564C210.191 209.007 212.652 208.868 215.92 207.747C223.753 205.141 228.446 202.111 228.391 197.049C228.347 192.033 227.241 174.193 225.731 160.287C225.027 153.999 222.953 149.203 220.284 145.73C223.206 149.232 225.544 154.256 226.282 160.987C227.792 174.892 228.886 192.686 228.942 197.748C228.986 202.764 224.293 205.794 216.472 208.447C213.191 209.52 210.73 209.66 208.743 209.263C207.022 208.943 205.635 208.177 204.375 207.274Z" fill="white"/>
<path d="M113.774 172.263C115.283 167.576 121.573 151.365 127.033 139.001C132.531 126.626 142.376 123.987 148.175 125.235C154.012 126.472 204.03 137.205 209.867 138.442C215.704 139.68 224.127 146.273 225.641 160.161C227.155 174.049 228.255 191.817 228.313 196.872C228.359 201.881 223.675 204.891 215.869 207.515C212.594 208.577 210.137 208.709 208.154 208.307C205.349 207.732 203.477 206.043 201.466 204.444C198.059 201.727 192.561 188.998 188.67 188.173C184.778 187.348 157.299 181.439 153.408 180.614C149.517 179.789 140.638 189.389 136.653 190.548C134.332 191.195 132.047 191.981 129.28 191.395C127.284 190.947 125.028 189.817 122.289 187.467C115.756 181.703 112.266 176.951 113.774 172.263Z" fill="#FEBB00"/>
<path d="M187.286 145.167L187.5 143.952L186.943 143.857C186.64 143.792 186.397 143.961 186.343 144.378C186.288 144.795 186.438 145.054 186.742 145.119L187.286 145.167ZM187.082 142.513L189.207 142.969L188.348 148.131L186.831 147.805L187.058 146.486L186.413 146.366C185.237 146.095 184.688 145.246 184.889 143.984C185.115 142.816 185.919 142.288 187.082 142.513Z" fill="url(#paint20_linear_12_366)"/>
<path d="M183.285 141.682L184.789 141.961L183.943 147.163L180.556 146.411L180.759 145L182.668 145.416L183.285 141.682Z" fill="url(#paint21_linear_12_366)"/>
<path d="M178.712 143.967L178.498 142.371L177.763 143.782L178.712 143.967ZM177.958 140.465L179.514 140.78L180.565 146.356L179.047 146.03L178.928 145.261L177.233 144.885L176.885 145.585L175.279 145.234L177.958 140.465Z" fill="url(#paint22_linear_12_366)"/>
<path d="M171.863 139.178L173.33 139.467L173.905 141.664L175.113 139.869L176.618 140.148L174.37 143.441L174.116 144.968L172.611 144.689L172.879 143.057L171.863 139.178Z" fill="url(#paint23_linear_12_366)"/>
<path d="M167.764 138.274L171.608 139.049L170.75 144.207L166.856 143.396L167.045 142.089L169.473 142.61L169.554 141.984L167.43 141.529L167.658 140.21L169.782 140.666L169.863 140.041L167.563 139.535L167.764 138.274Z" fill="url(#paint24_linear_12_366)"/>
<path d="M165.244 140.29L165.458 139.077L164.763 138.922C164.422 138.867 164.217 139.025 164.151 139.395C164.096 139.811 164.246 140.07 164.549 140.135L165.244 140.29ZM164.952 137.615L167.152 138.049L166.294 143.203L164.777 142.878L165.005 141.561L164.448 141.466L163.703 142.679L162.009 142.303L163.175 140.822C162.774 140.383 162.615 139.776 162.71 139.048C162.898 137.892 163.701 137.366 164.952 137.615Z" fill="url(#paint25_linear_12_366)"/>
<path d="M179.711 149.319C180.445 149.464 181.011 149.907 181.587 150.547L180.817 151.667C180.442 151.17 180.065 150.825 179.711 150.724C179.534 150.673 179.394 150.763 179.355 150.924C179.315 151.086 179.439 151.402 179.588 151.661L180.86 153.862L180.686 154.914L177.133 154.158L177.361 152.84L179.004 153.18L178.43 152.238C178.006 151.555 177.758 150.922 177.84 150.297C177.961 149.511 178.763 149.135 179.711 149.319Z" fill="url(#paint26_linear_12_366)"/>
<path d="M173.116 147.966L174.495 148.23L174.04 150.866L176.265 148.585L177.529 148.881L176.671 154.038L175.318 153.717L175.735 151.091L173.548 153.362L172.258 153.123L173.116 147.966Z" fill="url(#paint27_linear_12_366)"/>
<path d="M170.356 151.251L170.759 148.73L170.279 148.615C169.672 148.484 169.251 148.904 169.129 149.691C168.996 150.43 169.269 151.005 169.826 151.1L170.356 151.251ZM170.43 147.318L172.466 147.749L171.608 152.906L169.661 152.5C168.144 152.175 167.294 150.959 167.574 149.376C167.829 147.85 168.964 147.029 170.43 147.318Z" fill="url(#paint28_linear_12_366)"/>
<path d="M137.302 145.032C135.179 144.568 133.15 146.34 132.773 148.958L132.532 150.533C132.117 153.162 133.501 155.642 135.625 156.106L138.431 156.682L141.429 154.087C142.692 152.982 143.027 150.827 142.167 149.257L140.134 145.551L137.302 145.032Z" fill="url(#paint29_linear_12_366)"/>
<path d="M146.289 137.224C144.165 136.76 142.136 138.531 141.771 141.197L141.26 144.708L143.28 148.369C143.73 149.149 144.346 149.631 145.079 149.779C145.774 149.937 146.536 149.725 147.174 149.195L150.172 146.6L150.684 143.089C151.099 140.46 149.702 137.932 147.591 137.515L146.289 137.224Z" fill="url(#paint30_linear_12_366)"/>
<path d="M144.288 155.025C143.592 154.867 142.831 155.079 142.193 155.609L139.194 158.204L138.683 161.715C138.268 164.344 139.665 166.872 141.776 167.289L143.028 167.544C145.152 168.008 147.18 166.236 147.545 163.571L148.057 160.059L146.024 156.352C145.637 155.655 144.983 155.184 144.288 155.025Z" fill="#9E4A9E"/>
<path d="M150.911 148.028L147.913 150.623C146.65 151.728 146.315 153.883 147.175 155.453L149.208 159.16L152.014 159.735C154.138 160.2 156.166 158.428 156.543 155.81L156.785 154.234C157.2 151.605 155.803 149.079 153.692 148.661L150.911 148.028Z" fill="url(#paint31_linear_12_366)"/>
<path d="M166.459 164.153C165.334 163.913 164.237 164.872 164.035 166.285L163.94 167.014C163.738 168.427 164.461 169.783 165.586 170.023L168.315 170.619C169.44 170.859 170.537 169.9 170.739 168.488L170.834 167.758C171.036 166.345 170.313 164.989 169.188 164.749L166.459 164.153Z" fill="url(#paint32_linear_12_366)"/>
<path d="M178.654 166.873C177.53 166.633 176.433 167.592 176.231 169.004L176.136 169.734C175.934 171.147 176.657 172.503 177.781 172.743L180.511 173.339C181.636 173.579 182.732 172.62 182.934 171.207L183.029 170.478C183.231 169.065 182.509 167.709 181.384 167.469L178.654 166.873Z" fill="url(#paint33_linear_12_366)"/>
<path d="M210.559 159.936L207.556 162.538C206.918 163.07 206.193 163.274 205.46 163.129C204.764 162.974 204.11 162.506 203.661 161.729L201.63 158.035L202.145 154.528C202.563 151.901 204.594 150.125 206.681 150.591L207.933 150.84C210.058 151.296 211.403 153.777 211.023 156.393L210.559 159.936Z" fill="url(#paint34_linear_12_366)"/>
<path d="M208.363 164.085L211.366 161.484L214.173 162.048C216.297 162.503 217.68 164.973 217.263 167.599L217.02 169.172C216.602 171.798 214.609 173.563 212.484 173.108L209.665 172.497L207.647 168.852C206.761 167.346 207.098 165.194 208.363 164.085Z" fill="url(#paint35_linear_12_366)"/>
<path d="M192.979 163.994L193.222 162.42C193.64 159.794 195.671 158.018 197.757 158.484L200.565 159.048L202.595 162.74C203.455 164.304 203.117 166.456 201.853 167.564L198.85 170.166L196.043 169.602C193.957 169.136 192.561 166.619 192.979 163.994Z" fill="url(#paint36_linear_12_366)"/>
<path d="M199.683 171.655L202.685 169.053C203.324 168.522 204.086 168.307 204.782 168.462C205.477 168.618 206.132 169.086 206.543 169.873L208.573 173.567L208.059 177.074C207.641 179.701 205.609 181.478 203.535 181.058L202.282 180.809C200.158 180.353 198.775 177.883 199.192 175.256L199.683 171.655Z" fill="url(#paint37_linear_12_366)"/>
<path opacity="0.9" d="M127.049 138.775C130.848 130.17 136.773 126.255 141.99 125.104L181.449 186.41C171.838 184.358 156.334 181.03 153.514 180.407C151.731 179.998 148.864 181.853 145.931 184.079L122.95 148.42C124.284 145.08 125.68 141.823 127.049 138.775Z" fill="url(#paint38_linear_12_366)"/>
<path opacity="0.9" d="M204.876 137.488L226.775 171.485C227.732 182.501 228.361 193.357 228.404 197.123C228.418 199.839 227.081 201.924 224.605 203.722L178.291 131.745C188.444 133.954 198.761 136.169 204.876 137.488Z" fill="url(#paint39_linear_12_366)"/>
<path fill-rule="evenodd" clip-rule="evenodd" d="M63.0626 3.9021L69.9634 10.0494H53.0473L47.2351 3.4165L63.0626 3.9021Z" fill="#D77BD7"/>
<path fill-rule="evenodd" clip-rule="evenodd" d="M69.9632 10.0494L67.2322 25.4658H53.0471V10.0494H69.9632Z" fill="#9E4A9E"/>
<path fill-rule="evenodd" clip-rule="evenodd" d="M47.2351 3.4165L47.5712 19.1637L53.0473 25.4658V10.0494L47.2351 3.4165Z" fill="#FFC2FF"/>
<path fill-rule="evenodd" clip-rule="evenodd" d="M224.16 102.937L230.726 96.4339L229.368 113.631L222.414 118.986L224.16 102.937Z" fill="#D77BD7"/>
<path fill-rule="evenodd" clip-rule="evenodd" d="M230.719 96.4164L245.562 100.474L244.422 114.871L229.361 113.586L230.719 96.4164Z" fill="#9E4A9E"/>
<path fill-rule="evenodd" clip-rule="evenodd" d="M222.414 118.959L237.821 119.923L244.415 114.916L229.358 113.64L222.414 118.959Z" fill="#FFC2FF"/>
<path fill-rule="evenodd" clip-rule="evenodd" d="M215.8 12.785L220.164 28.4681L233.275 19.3539L228.603 4.4231L215.8 12.785Z" fill="#FFD767"/>
<path fill-rule="evenodd" clip-rule="evenodd" d="M243.157 22.9078L233.274 19.3539L228.603 4.4231L237.581 9.04961L243.157 22.9078Z" fill="#FFE18E"/>
<path fill-rule="evenodd" clip-rule="evenodd" d="M220.164 28.4682L233.274 29.3807L243.157 22.9078L233.274 19.3539L220.164 28.4682Z" fill="#FEBB00"/>
<path fill-rule="evenodd" clip-rule="evenodd" d="M84.7917 172.5L70.7061 176.742L78.2175 191.903L91.65 187.281L84.7917 172.5Z" fill="#FFD662"/>
<path fill-rule="evenodd" clip-rule="evenodd" d="M75.6851 200.963L78.2173 191.903L91.6498 187.281L87.9532 196.935L75.6851 200.963Z" fill="#FFE18E"/>
<path fill-rule="evenodd" clip-rule="evenodd" d="M70.7058 176.742L69.3333 191.47L75.6851 200.963L78.2173 191.903L70.7058 176.742Z" fill="#FEBB00"/>
<path fill-rule="evenodd" clip-rule="evenodd" d="M212.895 48.6266L212.237 62.0526L194.133 57.8049L198.62 45.1154L212.895 48.6266Z" fill="#FEBB00"/>
<path fill-rule="evenodd" clip-rule="evenodd" d="M194.133 57.8049L196.902 67.8424L208.579 69.7314L212.237 62.0526L194.133 57.8049Z" fill="#FFDD7E"/>
</g>
<defs>
<linearGradient id="paint0_linear_12_366" x1="66.4181" y1="62.9771" x2="85.5932" y2="36.6325" gradientUnits="userSpaceOnUse">
<stop stop-color="#383EAB"/>
<stop offset="1" stop-color="#10101C"/>
</linearGradient>
<linearGradient id="paint1_linear_12_366" x1="69.3819" y1="65.1349" x2="88.5556" y2="38.7925" gradientUnits="userSpaceOnUse">
<stop stop-color="#383EAB"/>
<stop offset="1" stop-color="#10101C"/>
</linearGradient>
<linearGradient id="paint2_linear_12_366" x1="72.298" y1="67.2581" x2="91.4726" y2="40.9142" gradientUnits="userSpaceOnUse">
<stop stop-color="#383EAB"/>
<stop offset="1" stop-color="#10101C"/>
</linearGradient>
<linearGradient id="paint3_linear_12_366" x1="73.8144" y1="68.3616" x2="92.9893" y2="42.0173" gradientUnits="userSpaceOnUse">
<stop stop-color="#383EAB"/>
<stop offset="1" stop-color="#10101C"/>
</linearGradient>
<linearGradient id="paint4_linear_12_366" x1="76.7911" y1="70.5259" x2="95.9635" y2="44.185" gradientUnits="userSpaceOnUse">
<stop stop-color="#383EAB"/>
<stop offset="1" stop-color="#10101C"/>
</linearGradient>
<linearGradient id="paint5_linear_12_366" x1="79.3609" y1="72.3949" x2="98.5332" y2="46.0542" gradientUnits="userSpaceOnUse">
<stop stop-color="#383EAB"/>
<stop offset="1" stop-color="#10101C"/>
</linearGradient>
<linearGradient id="paint6_linear_12_366" x1="76.2972" y1="70.1676" x2="95.4725" y2="43.8228" gradientUnits="userSpaceOnUse">
<stop stop-color="#383EAB"/>
<stop offset="1" stop-color="#10101C"/>
</linearGradient>
<linearGradient id="paint7_linear_12_366" x1="78.544" y1="71.8026" x2="97.7168" y2="45.4612" gradientUnits="userSpaceOnUse">
<stop stop-color="#383EAB"/>
<stop offset="1" stop-color="#10101C"/>
</linearGradient>
<linearGradient id="paint8_linear_12_366" x1="80.9251" y1="73.5357" x2="100.099" y2="47.1924" gradientUnits="userSpaceOnUse">
<stop stop-color="#383EAB"/>
<stop offset="1" stop-color="#10101C"/>
</linearGradient>
<linearGradient id="paint9_linear_12_366" x1="120.598" y1="46.1431" x2="120.598" y2="59.7815" gradientUnits="userSpaceOnUse">
<stop stop-color="#E00029"/>
<stop offset="0.6758" stop-color="#F65875"/>
<stop offset="1" stop-color="#FF7D95"/>
</linearGradient>
<linearGradient id="paint10_linear_12_366" x1="110.277" y1="38.224" x2="107.525" y2="61.172" gradientUnits="userSpaceOnUse">
<stop stop-color="#1E4AFC"/>
<stop offset="0.193" stop-color="#2C6CFD"/>
<stop offset="0.7492" stop-color="#52CAFE"/>
<stop offset="1" stop-color="#61EFFF"/>
</linearGradient>
<linearGradient id="paint11_linear_12_366" x1="106.051" y1="50.5226" x2="106.359" y2="67.6302" gradientUnits="userSpaceOnUse">
<stop stop-color="#359E51"/>
<stop offset="0.3202" stop-color="#45B14E"/>
<stop offset="1" stop-color="#65D647"/>
</linearGradient>
<linearGradient id="paint12_linear_12_366" x1="95.1068" y1="74.4922" x2="91.6949" y2="84.786" gradientUnits="userSpaceOnUse">
<stop stop-color="#359E51"/>
<stop offset="0.3202" stop-color="#45B14E"/>
<stop offset="1" stop-color="#65D647"/>
</linearGradient>
<linearGradient id="paint13_linear_12_366" x1="83.1576" y1="82.0838" x2="77.4983" y2="95.0806" gradientUnits="userSpaceOnUse">
<stop stop-color="#E00029"/>
<stop offset="0.6758" stop-color="#F65875"/>
<stop offset="1" stop-color="#FF7D95"/>
</linearGradient>
<linearGradient id="paint14_linear_12_366" x1="38.2071" y1="101.915" x2="60.7901" y2="75.218" gradientUnits="userSpaceOnUse">
<stop stop-color="#383EAB"/>
<stop offset="1" stop-color="#10101C"/>
</linearGradient>
<linearGradient id="paint15_linear_12_366" x1="40.874" y1="104.17" x2="63.4561" y2="77.4736" gradientUnits="userSpaceOnUse">
<stop stop-color="#383EAB"/>
<stop offset="1" stop-color="#10101C"/>
</linearGradient>
<linearGradient id="paint16_linear_12_366" x1="47.8653" y1="110.083" x2="70.4472" y2="83.387" gradientUnits="userSpaceOnUse">
<stop stop-color="#383EAB"/>
<stop offset="1" stop-color="#10101C"/>
</linearGradient>
<linearGradient id="paint17_linear_12_366" x1="50.5307" y1="112.339" x2="73.1139" y2="85.6412" gradientUnits="userSpaceOnUse">
<stop stop-color="#383EAB"/>
<stop offset="1" stop-color="#10101C"/>
</linearGradient>
<linearGradient id="paint18_linear_12_366" x1="113.084" y1="38.0117" x2="104.229" y2="102.558" gradientUnits="userSpaceOnUse">
<stop stop-color="white" stop-opacity="0"/>
<stop offset="1" stop-color="#E1EBFF"/>
</linearGradient>
<linearGradient id="paint19_linear_12_366" x1="54.917" y1="62.1431" x2="39.0762" y2="116.405" gradientUnits="userSpaceOnUse">
<stop stop-color="white" stop-opacity="0"/>
<stop offset="1" stop-color="#EDF3FF"/>
</linearGradient>
<linearGradient id="paint20_linear_12_366" x1="187.466" y1="144.717" x2="164.41" y2="126.048" gradientUnits="userSpaceOnUse">
<stop stop-color="#383EAB"/>
<stop offset="1" stop-color="#10101C"/>
</linearGradient>
<linearGradient id="paint21_linear_12_366" x1="185.327" y1="147.317" x2="162.298" y2="128.656" gradientUnits="userSpaceOnUse">
<stop stop-color="#383EAB"/>
<stop offset="1" stop-color="#10101C"/>
</linearGradient>
<linearGradient id="paint22_linear_12_366" x1="183.225" y1="149.873" x2="160.176" y2="131.206" gradientUnits="userSpaceOnUse">
<stop stop-color="#383EAB"/>
<stop offset="1" stop-color="#10101C"/>
</linearGradient>
<linearGradient id="paint23_linear_12_366" x1="182.126" y1="151.187" x2="159.076" y2="132.52" gradientUnits="userSpaceOnUse">
<stop stop-color="#383EAB"/>
<stop offset="1" stop-color="#10101C"/>
</linearGradient>
<linearGradient id="paint24_linear_12_366" x1="179.978" y1="153.788" x2="156.94" y2="135.126" gradientUnits="userSpaceOnUse">
<stop stop-color="#383EAB"/>
<stop offset="1" stop-color="#10101C"/>
</linearGradient>
<linearGradient id="paint25_linear_12_366" x1="178.12" y1="156.022" x2="155.099" y2="137.363" gradientUnits="userSpaceOnUse">
<stop stop-color="#383EAB"/>
<stop offset="1" stop-color="#10101C"/>
</linearGradient>
<linearGradient id="paint26_linear_12_366" x1="180.35" y1="153.503" x2="157.309" y2="134.839" gradientUnits="userSpaceOnUse">
<stop stop-color="#383EAB"/>
<stop offset="1" stop-color="#10101C"/>
</linearGradient>
<linearGradient id="paint27_linear_12_366" x1="178.727" y1="155.46" x2="155.693" y2="136.799" gradientUnits="userSpaceOnUse">
<stop stop-color="#383EAB"/>
<stop offset="1" stop-color="#10101C"/>
</linearGradient>
<linearGradient id="paint28_linear_12_366" x1="177.009" y1="157.538" x2="153.973" y2="138.875" gradientUnits="userSpaceOnUse">
<stop stop-color="#383EAB"/>
<stop offset="1" stop-color="#10101C"/>
</linearGradient>
<linearGradient id="paint29_linear_12_366" x1="135.325" y1="142.959" x2="138.674" y2="154.987" gradientUnits="userSpaceOnUse">
<stop stop-color="#E00029"/>
<stop offset="0.6758" stop-color="#F65875"/>
<stop offset="1" stop-color="#FF7D95"/>
</linearGradient>
<linearGradient id="paint30_linear_12_366" x1="142.663" y1="133.411" x2="150.684" y2="152.957" gradientUnits="userSpaceOnUse">
<stop stop-color="#1E4AFC"/>
<stop offset="0.193" stop-color="#2C6CFD"/>
<stop offset="0.7492" stop-color="#52CAFE"/>
<stop offset="1" stop-color="#61EFFF"/>
</linearGradient>
<linearGradient id="paint31_linear_12_366" x1="149.301" y1="143.328" x2="153.236" y2="158.495" gradientUnits="userSpaceOnUse">
<stop stop-color="#359E51"/>
<stop offset="0.3202" stop-color="#45B14E"/>
<stop offset="1" stop-color="#65D647"/>
</linearGradient>
<linearGradient id="paint32_linear_12_366" x1="164.629" y1="161.985" x2="170.103" y2="170.221" gradientUnits="userSpaceOnUse">
<stop stop-color="#359E51"/>
<stop offset="0.3202" stop-color="#45B14E"/>
<stop offset="1" stop-color="#65D647"/>
</linearGradient>
<linearGradient id="paint33_linear_12_366" x1="177.036" y1="165.828" x2="185.116" y2="175.913" gradientUnits="userSpaceOnUse">
<stop stop-color="#E00029"/>
<stop offset="0.6758" stop-color="#F65875"/>
<stop offset="1" stop-color="#FF7D95"/>
</linearGradient>
<linearGradient id="paint34_linear_12_366" x1="221.655" y1="172.275" x2="195.541" y2="154.04" gradientUnits="userSpaceOnUse">
<stop stop-color="#383EAB"/>
<stop offset="1" stop-color="#10101C"/>
</linearGradient>
<linearGradient id="paint35_linear_12_366" x1="219.815" y1="175.045" x2="193.71" y2="156.813" gradientUnits="userSpaceOnUse">
<stop stop-color="#383EAB"/>
<stop offset="1" stop-color="#10101C"/>
</linearGradient>
<linearGradient id="paint36_linear_12_366" x1="214.963" y1="181.859" x2="188.858" y2="163.627" gradientUnits="userSpaceOnUse">
<stop stop-color="#383EAB"/>
<stop offset="1" stop-color="#10101C"/>
</linearGradient>
<linearGradient id="paint37_linear_12_366" x1="213.128" y1="184.639" x2="187.014" y2="166.405" gradientUnits="userSpaceOnUse">
<stop stop-color="#383EAB"/>
<stop offset="1" stop-color="#10101C"/>
</linearGradient>
<linearGradient id="paint38_linear_12_366" x1="140.138" y1="133.975" x2="163.681" y2="188.708" gradientUnits="userSpaceOnUse">
<stop stop-color="white" stop-opacity="0"/>
<stop offset="1" stop-color="#E1EBFF"/>
</linearGradient>
<linearGradient id="paint39_linear_12_366" x1="197.543" y1="141.256" x2="224.618" y2="185.277" gradientUnits="userSpaceOnUse">
<stop stop-color="white" stop-opacity="0"/>
<stop offset="1" stop-color="#EDF3FF"/>
</linearGradient>
<clipPath id="clip0_12_366">
<rect width="260" height="230" fill="white"/>
</clipPath>
</defs>
</svg>
