<svg width="260" height="230" viewBox="0 0 260 230" fill="none" xmlns="http://www.w3.org/2000/svg">
<g opacity="0.66">
<path opacity="0.66" d="M141.006 212.787C134.458 210.73 124.774 206.303 118.738 211.511C114.316 215.325 114.905 221.156 118.929 224.989C121.297 227.301 124.598 228.815 128.214 229.248C131.827 229.584 134.047 228.189 136.518 226.231C138.654 224.539 140.577 223.941 143.512 223.654C145.131 223.5 146.845 223.436 148.369 222.892C149.547 222.476 150.542 221.768 151.221 220.866C151.899 219.963 152.227 218.91 152.16 217.847C152.059 215.3 149.97 213.232 147.238 212.214C143.25 210.73 138.904 211.679 135.256 213.356C134.768 213.584 135.202 214.192 135.696 213.979C139.637 212.273 144.488 211.254 148.452 213.509C150.553 214.706 151.874 216.972 151.261 219.069C150.589 221.413 148.315 222.412 145.66 222.763C143.006 223.115 140.256 223.035 137.922 224.321C134.297 226.325 132.643 229.267 127.464 228.461C119.81 227.23 113.601 219.821 117.667 213.673C122.589 206.254 133.774 210.834 140.994 212.857C141.047 212.857 141.065 212.802 140.994 212.787H141.006Z" fill="#001200"/>
</g>
<g opacity="0.66">
<path opacity="0.66" d="M149.178 217.812C151.91 217.516 155.089 217.461 157.69 216.705C157.755 216.688 157.812 216.653 157.848 216.605C157.885 216.558 157.901 216.501 157.891 216.444C157.882 216.388 157.849 216.337 157.797 216.299C157.746 216.262 157.681 216.24 157.612 216.24C154.833 216.215 151.839 217.011 149.124 217.466C148.898 217.506 148.946 217.837 149.178 217.812Z" fill="#001200"/>
</g>
<g opacity="0.66">
<path opacity="0.66" d="M149.612 217.847C150.996 218.5 152.589 218.782 154.172 218.655C155.756 218.529 157.255 217.999 158.463 217.14C158.761 216.927 158.332 216.586 158.029 216.784C156.865 217.544 155.474 218.024 154.004 218.173C152.535 218.323 151.045 218.134 149.696 217.629C149.547 217.575 149.452 217.783 149.589 217.847H149.612Z" fill="#001200"/>
</g>
<g opacity="0.66">
<path opacity="0.66" d="M150.731 218.658C151.819 220.974 153.878 222.883 156.529 224.034C156.934 224.213 157.291 223.693 156.886 223.54C154.297 222.504 152.246 220.724 151.112 218.53C151.023 218.352 150.642 218.48 150.731 218.668V218.658Z" fill="#001200"/>
</g>
<g opacity="0.66">
<path opacity="0.66" d="M150.934 218.886C154.571 219.049 156.571 221.73 156.38 224.524C156.38 224.594 156.411 224.661 156.466 224.713C156.521 224.765 156.597 224.799 156.68 224.808C156.763 224.817 156.847 224.801 156.917 224.762C156.987 224.724 157.037 224.665 157.059 224.598C157.969 221.562 154.446 218.594 150.934 218.535C150.884 218.542 150.839 218.563 150.806 218.595C150.773 218.627 150.755 218.668 150.755 218.71C150.755 218.752 150.773 218.793 150.806 218.825C150.839 218.857 150.884 218.879 150.934 218.886Z" fill="#001200"/>
</g>
<g opacity="0.66">
<path opacity="0.66" d="M134.422 211.13C133.637 213.87 135.857 216.917 139.369 217.219C142.577 217.491 146.624 214.805 145.702 211.932C145.702 211.866 145.67 211.803 145.615 211.757C145.559 211.71 145.483 211.684 145.404 211.684C145.325 211.684 145.25 211.71 145.194 211.757C145.138 211.803 145.107 211.866 145.107 211.932C144.416 214.301 142.97 216.739 139.464 216.546C136.339 216.378 134.256 213.658 134.738 211.209C134.773 211.026 134.446 210.942 134.392 211.13H134.422Z" fill="#001200"/>
</g>
<path d="M102.121 31.5693C105.335 15.4235 92.188 0.170258 72.7574 -2.49976C53.3269 -5.16978 34.9705 5.75447 31.7573 21.9003C28.544 38.046 41.6908 53.2992 61.1213 55.9693C80.5519 58.6393 98.9083 47.715 102.121 31.5693Z" fill="#FEFEFE"/>
<g filter="url(#filter0_d_10_6551)">
<path d="M67.0747 42.2373L60.9915 38.9729C45.8728 30.8565 45.8728 25.0449 45.8728 22.8588C45.8722 20.7647 46.7228 18.7318 48.2866 17.0897C49.8504 15.4476 52.0359 14.2924 54.4886 13.8115C56.9414 13.3306 59.5177 13.5521 61.8 14.4402C64.0823 15.3282 65.9368 16.8307 67.0628 18.7041C68.1906 16.8334 70.045 15.3337 72.326 14.4476C74.607 13.5615 77.1811 13.3409 79.6318 13.8215C82.0824 14.3021 84.2661 15.4558 85.8296 17.0959C87.3931 18.736 88.2448 20.7665 88.2469 22.8588C88.2469 25.0449 88.2469 30.8565 73.1282 38.9729L67.0747 42.2373Z" fill="#9942B7"/>
</g>
<path d="M77.5666 107.68C81.7974 107.68 85.2271 104.83 85.2271 101.314C85.2271 97.7984 81.7974 94.9485 77.5666 94.9485C73.3357 94.9485 69.906 97.7984 69.906 101.314C69.906 104.83 73.3357 107.68 77.5666 107.68Z" fill="#FEFEFE"/>
<path d="M97.0005 97.9408C96.9946 98.5256 96.7809 99.0959 96.3862 99.5802C95.9915 100.064 95.4335 100.441 94.7821 100.662C94.1308 100.884 93.4152 100.941 92.7252 100.825C92.0352 100.71 91.4016 100.428 90.9039 100.014C90.4063 99.6009 90.0667 99.0744 89.928 98.501C89.7892 97.9277 89.8575 97.3331 90.1241 96.7918C90.3907 96.2506 90.8438 95.7869 91.4265 95.4589C92.0092 95.131 92.6956 94.9534 93.3994 94.9485C94.3545 94.9485 95.2704 95.2637 95.9457 95.8249C96.6211 96.3861 97.0005 97.1472 97.0005 97.9408Z" fill="#FEFEFE"/>
<g filter="url(#filter1_d_10_6551)">
<path d="M187.658 41.8574C201.675 41.8574 213.038 32.4152 213.038 20.7676C213.038 9.12008 201.675 -0.322144 187.658 -0.322144C173.641 -0.322144 162.277 9.12008 162.277 20.7676C162.277 32.4152 173.641 41.8574 187.658 41.8574Z" fill="#FEBB00"/>
</g>
<path d="M187.658 17.6962C186.926 17.6952 186.211 17.8745 185.602 18.2114C184.994 18.5483 184.519 19.0277 184.238 19.5888C183.958 20.15 183.884 20.7677 184.026 21.3638C184.168 21.96 184.519 22.5077 185.036 22.9377C185.553 23.3678 186.211 23.6608 186.928 23.7797C187.646 23.8986 188.389 23.8381 189.065 23.6058C189.741 23.3735 190.318 22.9798 190.725 22.4746C191.131 21.9694 191.348 21.3753 191.348 20.7676C191.346 19.9543 190.957 19.1746 190.266 18.599C189.574 18.0234 188.636 17.6988 187.658 17.6962ZM187.658 21.8459C187.399 21.8469 187.146 21.784 186.931 21.6654C186.716 21.5467 186.548 21.3776 186.449 21.1795C186.349 20.9814 186.323 20.7632 186.373 20.5526C186.423 20.342 186.547 20.1486 186.73 19.9968C186.913 19.845 187.145 19.7417 187.399 19.7001C187.652 19.6585 187.915 19.6803 188.153 19.7629C188.392 19.8455 188.595 19.9851 188.738 20.164C188.881 20.3429 188.956 20.553 188.955 20.7676C188.954 21.0532 188.816 21.3267 188.573 21.5286C188.33 21.7306 188.001 21.8446 187.658 21.8459Z" fill="#FEFEFE"/>
<path d="M199.134 19.7735H197.527C197.254 17.943 196.252 16.2409 194.681 14.9385C193.109 13.636 191.058 12.8082 188.854 12.5869V11.2268C188.854 10.9644 188.729 10.7128 188.505 10.5273C188.282 10.3418 187.979 10.2375 187.664 10.2375C187.348 10.2375 187.045 10.3418 186.822 10.5273C186.599 10.7128 186.473 10.9644 186.473 11.2268V12.5869C184.273 12.8117 182.226 13.6418 180.658 14.945C179.091 16.2482 178.094 17.9496 177.825 19.7784H176.176C175.86 19.7784 175.557 19.8826 175.334 20.0681C175.111 20.2536 174.985 20.5053 174.985 20.7676C174.985 21.03 175.111 21.2816 175.334 21.4671C175.557 21.6526 175.86 21.7568 176.176 21.7568H177.813C178.082 23.585 179.08 25.2857 180.647 26.5881C182.214 27.8905 184.261 28.7196 186.461 28.9434V30.2986C186.461 30.5609 186.587 30.8125 186.81 30.998C187.033 31.1836 187.336 31.2878 187.652 31.2878C187.967 31.2878 188.27 31.1836 188.494 30.998C188.717 30.8125 188.842 30.5609 188.842 30.2986V28.9434C191.047 28.7252 193.101 27.8993 194.675 26.5975C196.25 25.2957 197.253 23.5932 197.527 21.7618H199.157C199.473 21.7618 199.776 21.6575 199.999 21.472C200.222 21.2865 200.348 21.0349 200.348 20.7726C200.348 20.5102 200.222 20.2586 199.999 20.0731C199.776 19.8876 199.473 19.7834 199.157 19.7834L199.134 19.7735ZM188.854 26.9303V25.6246C188.854 25.3622 188.729 25.1106 188.505 24.9251C188.282 24.7396 187.979 24.6354 187.664 24.6354C187.348 24.6354 187.045 24.7396 186.822 24.9251C186.599 25.1106 186.473 25.3622 186.473 25.6246V26.9303C184.911 26.7194 183.469 26.106 182.35 25.1768C181.23 24.2475 180.491 23.0494 180.235 21.7519H181.813C182.128 21.7519 182.431 21.6476 182.654 21.4621C182.878 21.2766 183.003 21.025 183.003 20.7627C183.003 20.5003 182.878 20.2487 182.654 20.0632C182.431 19.8777 182.128 19.7735 181.813 19.7735H180.223C180.479 18.4756 181.219 17.2772 182.338 16.3472C183.457 15.4173 184.899 14.8026 186.461 14.59V15.8958C186.461 16.1581 186.587 16.4097 186.81 16.5953C187.033 16.7808 187.336 16.885 187.652 16.885C187.967 16.885 188.27 16.7808 188.494 16.5953C188.717 16.4097 188.842 16.1581 188.842 15.8958V14.59C190.404 14.8022 191.846 15.4167 192.964 16.3469C194.082 17.277 194.82 18.4757 195.074 19.7735H193.503C193.187 19.7735 192.884 19.8777 192.661 20.0632C192.438 20.2487 192.312 20.5003 192.312 20.7627C192.312 21.025 192.438 21.2766 192.661 21.4621C192.884 21.6476 193.187 21.7519 193.503 21.7519H195.074C194.823 23.0482 194.086 24.2459 192.97 25.1753C191.854 26.1047 190.414 26.7187 188.854 26.9303Z" fill="#FEFEFE"/>
<g filter="url(#filter2_d_10_6551)">
<path d="M224.248 61.3107C217.912 61.3149 211.695 62.7435 206.257 65.4449C200.819 68.1463 196.361 72.02 193.357 76.6554C190.353 81.2907 188.914 86.5151 189.192 91.7749C189.471 97.0347 191.456 102.134 194.939 106.532C189.984 108.618 184.802 110.309 179.463 111.582C186.023 112.778 192.842 112.569 199.278 110.974C203.34 114.399 208.357 116.937 213.884 118.362C219.411 119.788 225.276 120.056 230.957 119.143C236.639 118.231 241.962 116.166 246.451 113.132C250.941 110.098 254.458 106.189 256.692 101.753C258.925 97.3167 259.804 92.4908 259.251 87.7042C258.698 82.9176 256.73 78.3187 253.523 74.3165C250.315 70.3143 245.967 67.0327 240.864 64.7637C235.762 62.4947 230.065 61.3085 224.278 61.3107H224.248Z" fill="#FEBB00"/>
</g>
<path d="M246.938 97.0605L246.819 96.0367L245.765 86.9855C245.54 85.0684 244.465 83.2894 242.749 81.9948C241.032 80.7002 238.798 79.9827 236.48 79.9819H212.48C210.162 79.9827 207.927 80.7002 206.211 81.9948C204.494 83.2894 203.419 85.0684 203.195 86.9855L202.004 97.0852C201.92 97.8053 202.019 98.532 202.293 99.2186C202.567 99.9052 203.011 100.537 203.596 101.072C204.181 101.608 204.895 102.036 205.691 102.329C206.487 102.622 207.348 102.773 208.218 102.773C209.173 102.773 210.114 102.591 210.971 102.242C211.827 101.892 212.576 101.383 213.159 100.755L217.516 96.0614H231.396L235.753 100.755C236.337 101.383 237.085 101.891 237.942 102.241C238.798 102.59 239.74 102.773 240.694 102.773C241.569 102.776 242.436 102.626 243.237 102.333C244.039 102.04 244.757 101.61 245.346 101.071C245.934 100.533 246.38 99.8975 246.654 99.2065C246.929 98.5156 247.025 97.7844 246.938 97.0605ZM212.361 82.7962C212.361 82.7432 212.374 82.6907 212.398 82.6418C212.423 82.5928 212.459 82.5484 212.504 82.5112C212.55 82.4739 212.604 82.4445 212.663 82.4247C212.722 82.4048 212.785 82.3949 212.849 82.3956H215.98C216.108 82.3956 216.232 82.4376 216.323 82.5126C216.414 82.5876 216.467 82.6895 216.468 82.7962V85.378C215.665 86.0457 215.212 86.4167 214.415 87.0844L212.361 85.378V82.7962ZM208.194 89.6761C208.131 89.6768 208.067 89.6669 208.008 89.6471C207.949 89.6272 207.895 89.5978 207.85 89.5605C207.804 89.5233 207.768 89.4789 207.744 89.43C207.719 89.381 207.706 89.3285 207.706 89.2755V86.6689C207.706 86.6159 207.719 86.5634 207.744 86.5145C207.768 86.4655 207.804 86.4212 207.85 86.3839C207.895 86.3466 207.949 86.3172 208.008 86.2974C208.067 86.2775 208.131 86.2677 208.194 86.2683H211.296L213.349 87.9697L211.296 89.6712L208.194 89.6761ZM216.474 93.1383C216.472 93.245 216.42 93.3469 216.329 93.4219C216.238 93.4969 216.114 93.539 215.986 93.539H212.855C212.791 93.5396 212.728 93.5297 212.669 93.5099C212.61 93.49 212.556 93.4606 212.51 93.4234C212.465 93.3861 212.429 93.3417 212.404 93.2928C212.38 93.2439 212.367 93.1914 212.367 93.1383V90.5565L214.421 88.8501C215.218 89.5178 215.67 89.8888 216.474 90.5565V93.1383ZM221.135 89.2656C221.133 89.3723 221.081 89.4742 220.99 89.5492C220.898 89.6242 220.775 89.6662 220.647 89.6662H217.534L215.51 87.9747L217.563 86.2733H220.67C220.799 86.2733 220.922 86.3153 221.013 86.3903C221.105 86.4653 221.157 86.5672 221.158 86.6739L221.135 89.2656ZM230.236 89.9729C229.756 89.9739 229.287 89.8566 228.888 89.636C228.489 89.4154 228.178 89.1014 227.993 88.7336C227.809 88.3659 227.76 87.961 227.853 87.5702C227.946 87.1794 228.176 86.8202 228.515 86.5382C228.853 86.2562 229.285 86.064 229.755 85.9859C230.225 85.9078 230.712 85.9474 231.155 86.0996C231.598 86.2518 231.977 86.5098 232.244 86.841C232.51 87.1721 232.652 87.5615 232.652 87.9599C232.654 88.225 232.592 88.4879 232.471 88.7332C232.35 88.9786 232.172 89.2017 231.947 89.3897C231.722 89.5776 231.454 89.7268 231.16 89.8286C230.865 89.9304 230.549 89.9828 230.23 89.9828L230.236 89.9729ZM235.099 94.0187C234.619 94.0187 234.151 93.9007 233.753 93.6795C233.354 93.4583 233.044 93.1439 232.86 92.776C232.677 92.4082 232.629 92.0035 232.723 91.613C232.816 91.2225 233.047 90.8638 233.386 90.5823C233.724 90.3007 234.156 90.109 234.626 90.0313C235.096 89.9537 235.583 89.9935 236.026 90.1459C236.468 90.2983 236.847 90.5563 237.113 90.8873C237.379 91.2184 237.521 91.6075 237.521 92.0057C237.523 92.2713 237.461 92.5345 237.34 92.7802C237.218 93.0259 237.04 93.2492 236.814 93.4373C236.588 93.6253 236.32 93.7744 236.024 93.8759C235.729 93.9773 235.412 94.0293 235.093 94.0286L235.099 94.0187ZM235.099 85.932C234.619 85.932 234.151 85.8139 233.753 85.5927C233.354 85.3715 233.044 85.0571 232.86 84.6893C232.677 84.3215 232.629 83.9167 232.723 83.5262C232.816 83.1357 233.047 82.7771 233.386 82.4955C233.724 82.214 234.156 82.0223 234.626 81.9446C235.096 81.8669 235.583 81.9068 236.026 82.0592C236.468 82.2115 236.847 82.4695 237.113 82.8006C237.379 83.1316 237.521 83.5208 237.521 83.919C237.523 84.1846 237.461 84.4478 237.34 84.6935C237.218 84.9392 237.04 85.1625 236.814 85.3505C236.588 85.5386 236.32 85.6876 236.024 85.7891C235.729 85.8906 235.412 85.9425 235.093 85.9419L235.099 85.932ZM239.968 89.9729C239.488 89.9729 239.02 89.8548 238.622 89.6336C238.223 89.4124 237.913 89.098 237.729 88.7302C237.546 88.3624 237.498 87.9576 237.592 87.5671C237.685 87.1766 237.916 86.818 238.255 86.5364C238.593 86.2549 239.025 86.0632 239.495 85.9855C239.965 85.9078 240.452 85.9477 240.895 86.1001C241.337 86.2524 241.716 86.5104 241.982 86.8415C242.248 87.1725 242.39 87.5617 242.39 87.9599C242.392 88.2255 242.33 88.4887 242.209 88.7344C242.087 88.9801 241.908 89.2034 241.683 89.3914C241.457 89.5795 241.189 89.7285 240.893 89.83C240.598 89.9315 240.281 89.9834 239.962 89.9828L239.968 89.9729Z" fill="#FEFEFE"/>
<path d="M43.9421 146.708C44.3829 147.084 44.9097 147.382 45.4913 147.586C46.073 147.79 46.6978 147.894 47.329 147.894C47.9602 147.894 48.585 147.79 49.1666 147.586C49.7483 147.382 50.275 147.084 50.7158 146.708C50.311 145.131 49.4777 144.077 48.3349 143.691C48.6939 143.507 48.9707 143.23 49.1233 142.903C49.2759 142.576 49.296 142.217 49.1806 141.879C49.0651 141.542 48.8204 141.245 48.4836 141.034C48.1468 140.822 47.7362 140.708 47.3141 140.708C46.892 140.708 46.4814 140.822 46.1446 141.034C45.8077 141.245 45.563 141.542 45.4476 141.879C45.3322 142.217 45.3523 142.576 45.5049 142.903C45.6575 143.23 45.9343 143.507 46.2933 143.691C45.1743 144.077 44.3409 145.131 43.9421 146.708Z" fill="#FEFEFE"/>
<path style="mix-blend-mode:multiply" opacity="0.1" d="M208.861 116.706C215.918 119.563 223.923 120.372 231.599 119.006C228.772 116.418 224.92 114.762 220.745 114.34C216.571 113.918 212.352 114.758 208.861 116.706Z" fill="url(#paint0_linear_10_6551)"/>
<g filter="url(#filter3_d_10_6551)">
<path d="M238.396 133.129C240.644 125.315 234.845 117.467 225.442 115.598C216.039 113.729 206.593 118.548 204.345 126.362C202.096 134.175 207.895 142.024 217.298 143.892C226.701 145.761 236.147 140.942 238.396 133.129Z" fill="#FEFEFE"/>
</g>
<path d="M226.278 133.181V138.943L221.391 137.019L216.498 138.943V133.186C216.647 133.364 216.781 133.551 216.897 133.745C217.147 134.32 217.661 134.789 218.325 135.051C218.483 135.095 218.648 135.117 218.814 135.115C219.358 135.078 219.886 134.938 220.355 134.705C220.643 134.5 221.009 134.388 221.388 134.388C221.767 134.388 222.133 134.5 222.421 134.705C222.892 134.937 223.421 135.078 223.968 135.115C224.132 135.116 224.295 135.095 224.45 135.051C225.115 134.789 225.628 134.32 225.879 133.745C225.996 133.55 226.13 133.362 226.278 133.181ZM228.355 131.851C227.861 132.415 226.432 132.222 225.754 132.632C225.075 133.043 224.861 134.235 224.051 134.452C223.242 134.67 222.266 133.809 221.391 133.809C220.516 133.809 219.504 134.66 218.724 134.452C217.944 134.245 217.7 133.038 217.028 132.632C216.355 132.227 214.915 132.415 214.421 131.851C213.927 131.287 214.587 130.224 214.326 129.551C214.064 128.878 212.772 128.359 212.772 127.642C212.772 126.925 214.076 126.385 214.326 125.737C214.576 125.09 213.927 123.992 214.421 123.433C214.915 122.874 216.343 123.062 217.028 122.651C217.712 122.241 217.915 121.054 218.724 120.831C219.534 120.608 220.51 121.474 221.391 121.474C222.272 121.474 223.272 120.623 224.051 120.831C224.831 121.039 225.075 122.246 225.754 122.651C226.432 123.057 227.861 122.869 228.355 123.433C228.849 123.996 228.188 125.065 228.45 125.737C228.712 126.41 230.004 126.925 230.004 127.642C230.004 128.359 228.706 128.898 228.45 129.551C228.194 130.204 228.849 131.292 228.355 131.851ZM225.557 126.519L222.677 126.168L221.391 124.001L220.099 126.168L217.218 126.519L219.302 128.206L218.814 130.59L221.391 129.462L223.962 130.59L223.474 128.206L225.557 126.519Z" fill="url(#paint1_linear_10_6551)"/>
<path d="M174.023 93.4152C172.346 93.4152 170.738 93.9686 169.553 94.9536C168.367 95.9387 167.701 97.2747 167.701 98.6678C167.701 100.686 169.064 101.541 171.064 101.883V103.822C171.082 103.987 171.173 104.141 171.32 104.253C171.467 104.365 171.659 104.427 171.859 104.427C172.059 104.427 172.251 104.365 172.398 104.253C172.545 104.141 172.636 103.987 172.654 103.822V103.164H173.291V103.822C173.308 103.987 173.399 104.141 173.546 104.253C173.693 104.365 173.886 104.427 174.085 104.427C174.285 104.427 174.477 104.365 174.624 104.253C174.771 104.141 174.863 103.987 174.88 103.822V103.164H175.511V103.822C175.528 103.987 175.619 104.141 175.766 104.253C175.913 104.365 176.106 104.427 176.305 104.427C176.505 104.427 176.697 104.365 176.845 104.253C176.992 104.141 177.083 103.987 177.1 103.822V101.843C179.035 101.492 180.344 100.626 180.344 98.653C180.339 97.2625 179.671 95.9302 178.486 94.9484C177.301 93.9665 175.696 93.4152 174.023 93.4152ZM171.511 100.419C171.115 100.42 170.728 100.323 170.398 100.141C170.068 99.959 169.811 99.6998 169.659 99.3963C169.507 99.0927 169.466 98.7584 169.543 98.4357C169.619 98.113 169.809 97.8164 170.089 97.5835C170.368 97.3506 170.724 97.1918 171.113 97.1273C171.501 97.0628 171.903 97.0954 172.269 97.221C172.635 97.3467 172.947 97.5597 173.167 97.8331C173.387 98.1065 173.505 98.428 173.505 98.7569C173.509 98.9765 173.46 99.1946 173.362 99.3985C173.263 99.6024 173.117 99.788 172.931 99.9445C172.746 100.101 172.525 100.225 172.281 100.31C172.037 100.395 171.775 100.439 171.511 100.438V100.419ZM176.535 100.419C176.139 100.42 175.752 100.323 175.422 100.141C175.092 99.959 174.835 99.6998 174.683 99.3963C174.53 99.0927 174.49 98.7584 174.566 98.4357C174.643 98.113 174.833 97.8164 175.112 97.5835C175.392 97.3506 175.748 97.1918 176.136 97.1273C176.524 97.0628 176.927 97.0954 177.293 97.221C177.658 97.3467 177.971 97.5597 178.191 97.8331C178.411 98.1065 178.529 98.428 178.529 98.7569C178.533 98.9765 178.484 99.1946 178.385 99.3985C178.287 99.6024 178.141 99.788 177.955 99.9445C177.77 100.101 177.548 100.225 177.305 100.31C177.061 100.395 176.799 100.439 176.535 100.438V100.419Z" fill="white"/>
<g filter="url(#filter4_d_10_6551)">
<path d="M38.0489 107.732C36.3054 107.732 34.6011 108.161 33.1514 108.966C31.7018 109.771 30.5719 110.915 29.9047 112.254C29.2375 113.592 29.0629 115.065 29.403 116.486C29.7432 117.907 30.5827 119.212 31.8156 120.236C33.0484 121.261 34.6192 121.959 36.3292 122.241C38.0392 122.524 39.8116 122.379 41.4224 121.824C43.0332 121.27 44.4099 120.331 45.3786 119.126C46.3472 117.922 46.8642 116.506 46.8642 115.057C46.8642 113.114 45.9355 111.251 44.2823 109.877C42.6291 108.504 40.3869 107.732 38.0489 107.732Z" fill="#FEBB00"/>
</g>
<path d="M35.5372 115.082C35.5448 115.642 35.8037 116.18 36.2634 116.59C36.4928 116.809 36.7753 116.985 37.0922 117.107C37.4091 117.229 37.7534 117.294 38.1026 117.297C38.4383 117.319 38.7756 117.284 39.0947 117.194C39.4137 117.105 39.7079 116.964 39.9598 116.778C40.1989 116.588 40.5061 116.468 40.8347 116.437C41.0862 116.445 41.3253 116.53 41.5073 116.674C41.6077 116.747 41.6879 116.836 41.7424 116.937C41.7969 117.038 41.8243 117.147 41.8228 117.258C41.8058 117.503 41.6758 117.733 41.4597 117.901C41.0398 118.249 40.5397 118.523 39.9895 118.706C39.4393 118.89 38.8502 118.979 38.2574 118.969C37.0144 118.975 35.8188 118.573 34.9301 117.851C34.4902 117.498 34.1406 117.075 33.9023 116.606C33.664 116.138 33.5419 115.635 33.5432 115.126C33.5495 114.091 34.049 113.099 34.9324 112.369C35.8158 111.639 37.0112 111.229 38.2574 111.229C38.8453 111.216 39.4301 111.302 39.9772 111.482C40.5243 111.661 41.0223 111.93 41.4419 112.272C41.6589 112.439 41.7892 112.67 41.8049 112.915C41.8054 113.027 41.7776 113.138 41.7233 113.24C41.6689 113.342 41.5893 113.434 41.4895 113.509C41.3129 113.65 41.0799 113.733 40.8347 113.741C40.4993 113.711 40.1854 113.589 39.9419 113.395C39.4404 113.05 38.807 112.866 38.1562 112.876C37.8056 112.871 37.4576 112.927 37.134 113.039C36.8104 113.152 36.5181 113.318 36.2753 113.529C35.8078 113.943 35.5444 114.489 35.5372 115.057V115.082Z" fill="#FEFEFE"/>
<path d="M224.926 162.912C224.599 161.908 223.964 160.992 223.084 160.254C222.203 159.515 221.107 158.979 219.903 158.698C219.853 158.686 219.809 158.661 219.778 158.627C219.746 158.592 219.729 158.55 219.729 158.507C219.729 158.464 219.746 158.422 219.778 158.388C219.809 158.354 219.853 158.329 219.903 158.317C221.107 158.036 222.203 157.499 223.084 156.761C223.964 156.022 224.599 155.106 224.926 154.103C224.941 154.061 224.971 154.025 225.012 153.999C225.053 153.973 225.104 153.959 225.156 153.959C225.207 153.959 225.258 153.973 225.299 153.999C225.341 154.025 225.371 154.061 225.385 154.103C225.714 155.106 226.349 156.021 227.229 156.759C228.11 157.498 229.205 158.034 230.408 158.317C230.458 158.329 230.502 158.354 230.534 158.388C230.565 158.422 230.582 158.464 230.582 158.507C230.582 158.55 230.565 158.592 230.534 158.627C230.502 158.661 230.458 158.686 230.408 158.698C229.205 158.98 228.11 159.517 227.229 160.255C226.349 160.994 225.714 161.909 225.385 162.912C225.371 162.953 225.341 162.99 225.299 163.016C225.258 163.042 225.207 163.056 225.156 163.056C225.104 163.056 225.053 163.042 225.012 163.016C224.971 162.99 224.941 162.953 224.926 162.912Z" fill="white"/>
<path d="M233.224 168.06C233.054 167.543 232.726 167.071 232.273 166.69C231.819 166.309 231.255 166.031 230.634 165.884C230.609 165.877 230.587 165.864 230.572 165.847C230.556 165.829 230.548 165.807 230.548 165.785C230.548 165.763 230.556 165.742 230.572 165.724C230.587 165.706 230.609 165.693 230.634 165.686C231.255 165.541 231.82 165.265 232.273 164.884C232.727 164.504 233.055 164.032 233.224 163.515C233.232 163.494 233.248 163.476 233.269 163.463C233.29 163.45 233.316 163.443 233.343 163.443C233.369 163.443 233.395 163.45 233.416 163.463C233.438 163.476 233.454 163.494 233.462 163.515C233.631 164.033 233.96 164.505 234.415 164.885C234.87 165.266 235.435 165.542 236.057 165.686C236.082 165.693 236.104 165.706 236.12 165.724C236.135 165.742 236.144 165.763 236.144 165.785C236.144 165.807 236.135 165.829 236.12 165.847C236.104 165.864 236.082 165.877 236.057 165.884C235.435 166.03 234.87 166.308 234.415 166.689C233.961 167.07 233.632 167.543 233.462 168.06C233.454 168.081 233.438 168.1 233.416 168.113C233.395 168.126 233.369 168.133 233.343 168.133C233.316 168.133 233.29 168.126 233.269 168.113C233.248 168.1 233.232 168.081 233.224 168.06Z" fill="white"/>
<path d="M214.182 52.9766C213.855 51.9736 213.221 51.0583 212.34 50.3205C211.459 49.5827 210.363 49.0475 209.159 48.7676C209.11 48.7544 209.067 48.7286 209.037 48.6939C209.006 48.6593 208.99 48.6175 208.99 48.5747C208.99 48.5318 209.006 48.4901 209.037 48.4554C209.067 48.4208 209.11 48.395 209.159 48.3818C210.363 48.1022 211.46 47.5673 212.341 46.8294C213.221 46.0915 213.856 45.176 214.182 44.1727C214.191 44.1275 214.219 44.0863 214.261 44.0566C214.303 44.0269 214.356 44.0106 214.412 44.0106C214.467 44.0106 214.52 44.0269 214.562 44.0566C214.604 44.0863 214.632 44.1275 214.641 44.1727C214.965 45.181 215.6 46.1017 216.483 46.8441C217.366 47.5865 218.467 48.125 219.676 48.4065C219.729 48.4165 219.776 48.441 219.81 48.476C219.843 48.5111 219.862 48.5546 219.862 48.5994C219.862 48.6442 219.843 48.6877 219.81 48.7228C219.776 48.7578 219.729 48.7823 219.676 48.7923C218.473 49.074 217.378 49.6097 216.498 50.3473C215.617 51.0849 214.982 51.9992 214.653 53.0014C214.649 53.0532 214.62 53.1016 214.573 53.1359C214.526 53.1702 214.465 53.1876 214.403 53.1844C214.34 53.1811 214.282 53.1573 214.241 53.1184C214.199 53.0794 214.178 53.0284 214.182 52.9766Z" fill="white"/>
<path d="M188.005 68.2548C187.835 67.7373 187.507 67.2652 187.052 66.8846C186.597 66.5041 186.031 66.228 185.409 66.0835C185.384 66.0768 185.362 66.0636 185.347 66.0458C185.331 66.028 185.323 66.0066 185.323 65.9846C185.323 65.9626 185.331 65.9411 185.347 65.9233C185.362 65.9056 185.384 65.8924 185.409 65.8856C186.031 65.7394 186.596 65.4621 187.051 65.0809C187.506 64.6996 187.834 64.2272 188.005 63.7094C188.013 63.6884 188.029 63.6702 188.05 63.6572C188.071 63.6442 188.097 63.6372 188.124 63.6372C188.15 63.6372 188.176 63.6442 188.197 63.6572C188.219 63.6702 188.235 63.6884 188.243 63.7094C188.413 64.2266 188.74 64.6986 189.194 65.0798C189.647 65.4611 190.211 65.7386 190.832 65.8856C190.857 65.8924 190.879 65.9056 190.895 65.9233C190.91 65.9411 190.919 65.9626 190.919 65.9846C190.919 66.0066 190.91 66.028 190.895 66.0458C190.879 66.0636 190.857 66.0768 190.832 66.0835C190.211 66.2288 189.647 66.5051 189.193 66.8856C188.739 67.2662 188.412 67.7379 188.243 68.2548C188.235 68.2758 188.219 68.294 188.197 68.307C188.176 68.32 188.15 68.327 188.124 68.327C188.097 68.327 188.071 68.32 188.05 68.307C188.029 68.294 188.013 68.2758 188.005 68.2548Z" fill="white"/>
<path d="M9.15731 66.5139C8.83069 65.511 8.19673 64.5955 7.31729 63.857C6.43785 63.1184 5.34299 62.5819 4.13956 62.2999C4.08963 62.2882 4.04565 62.2632 4.01433 62.2289C3.98301 62.1945 3.96606 62.1526 3.96606 62.1095C3.96606 62.0663 3.98301 62.0244 4.01433 61.99C4.04565 61.9557 4.08963 61.9307 4.13956 61.919C5.34299 61.637 6.43785 61.1005 7.31729 60.3619C8.19673 59.6234 8.83069 58.7079 9.15731 57.705C9.1693 57.6613 9.1988 57.6223 9.24097 57.5943C9.28315 57.5664 9.3355 57.5511 9.38945 57.5511C9.4434 57.5511 9.49575 57.5664 9.53793 57.5943C9.5801 57.6223 9.6096 57.6613 9.62159 57.705C9.94821 58.7079 10.5822 59.6234 11.4616 60.3619C12.3411 61.1005 13.4359 61.637 14.6393 61.919C14.6893 61.9307 14.7332 61.9557 14.7646 61.99C14.7959 62.0244 14.8128 62.0663 14.8128 62.1095C14.8128 62.1526 14.7959 62.1945 14.7646 62.2289C14.7332 62.2632 14.6893 62.2882 14.6393 62.2999C13.4359 62.5819 12.3411 63.1184 11.4616 63.857C10.5822 64.5955 9.94821 65.511 9.62159 66.5139C9.6096 66.5576 9.5801 66.5966 9.53793 66.6246C9.49575 66.6525 9.4434 66.6678 9.38945 66.6678C9.3355 66.6678 9.28315 66.6525 9.24097 66.6246C9.1988 66.5966 9.1693 66.5576 9.15731 66.5139Z" fill="white"/>
<path d="M16.1989 71.5539C16.0292 71.0364 15.7009 70.5643 15.2461 70.1837C14.7912 69.8031 14.2253 69.5271 13.6037 69.3826C13.5785 69.3758 13.5565 69.3627 13.5409 69.3449C13.5253 69.3271 13.5168 69.3056 13.5168 69.2836C13.5168 69.2616 13.5253 69.2402 13.5409 69.2224C13.5565 69.2046 13.5785 69.1914 13.6037 69.1847C14.2252 69.0384 14.7907 68.7612 15.2454 68.3799C15.7001 67.9987 16.0285 67.5262 16.1989 67.0085C16.207 66.9875 16.2229 66.9692 16.2443 66.9562C16.2657 66.9433 16.2915 66.9363 16.318 66.9363C16.3444 66.9363 16.3702 66.9433 16.3916 66.9562C16.413 66.9692 16.4289 66.9875 16.437 67.0085C16.6072 67.525 16.935 67.9962 17.3886 68.3766C17.8422 68.757 18.4063 69.0336 19.0262 69.1798C19.0515 69.1865 19.0735 69.1997 19.0891 69.2175C19.1047 69.2352 19.1131 69.2567 19.1131 69.2787C19.1131 69.3007 19.1047 69.3221 19.0891 69.3399C19.0735 69.3577 19.0515 69.3709 19.0262 69.3776C18.4052 69.522 17.84 69.7981 17.386 70.1787C16.9321 70.5594 16.6051 71.0316 16.437 71.5489C16.4296 71.5701 16.4143 71.5887 16.3932 71.6021C16.3722 71.6156 16.3466 71.6231 16.3201 71.6237C16.2936 71.6242 16.2676 71.6177 16.2458 71.6052C16.224 71.5926 16.2076 71.5747 16.1989 71.5539Z" fill="white"/>
<g filter="url(#filter5_d_10_6551)">
<path d="M17.8117 40.6565C20.2213 40.6565 22.1747 39.0333 22.1747 37.0311C22.1747 35.0288 20.2213 33.4056 17.8117 33.4056C15.4021 33.4056 13.4487 35.0288 13.4487 37.0311C13.4487 39.0333 15.4021 40.6565 17.8117 40.6565Z" fill="#FEBB00"/>
</g>
<g filter="url(#filter6_d_10_6551)">
<path d="M246.979 148.657C246.979 149.382 246.721 150.091 246.236 150.694C245.751 151.297 245.062 151.766 244.255 152.044C243.449 152.321 242.562 152.393 241.706 152.251C240.85 152.11 240.065 151.76 239.448 151.247C238.831 150.734 238.412 150.08 238.242 149.369C238.073 148.658 238.161 147.921 238.496 147.251C238.83 146.582 239.397 146.01 240.123 145.607C240.849 145.205 241.702 144.991 242.575 144.992C243.154 144.992 243.727 145.087 244.262 145.271C244.797 145.456 245.282 145.726 245.691 146.066C246.101 146.406 246.425 146.81 246.646 147.255C246.867 147.7 246.98 148.176 246.979 148.657Z" fill="#FEBB00"/>
</g>
<g filter="url(#filter7_d_10_6551)">
<path d="M77.9116 120.049C77.9116 120.664 77.6923 121.264 77.2816 121.775C76.8709 122.286 76.2871 122.684 75.604 122.919C74.921 123.154 74.1694 123.216 73.4443 123.096C72.7192 122.976 72.0532 122.68 71.5304 122.246C71.0076 121.811 70.6516 121.258 70.5074 120.655C70.3631 120.053 70.4372 119.428 70.7201 118.861C71.003 118.293 71.4821 117.808 72.0968 117.467C72.7115 117.126 73.4343 116.943 74.1736 116.943C75.1649 116.943 76.1157 117.271 76.8167 117.853C77.5178 118.436 77.9116 119.226 77.9116 120.049Z" fill="#FEBB00"/>
</g>
<path d="M3.01468 219.994C3.01468 219.994 0.520688 223.456 0.883775 225.988C1.24686 228.521 3.9849 230.504 4.76464 232.111C5.54439 233.719 2.82421 236.988 5.35987 240.52C7.89553 244.051 26.5975 259.052 31.895 260.18C37.1925 261.308 50.0017 260.081 52.1327 255.531C54.2636 250.98 53.7041 234.377 53.7041 234.377L38.3651 206.605L3.01468 219.994Z" fill="url(#paint2_linear_10_6551)"/>
<path d="M52.1503 255.526C52.5819 254.44 52.8713 253.319 53.0133 252.182L50.2634 240.431L33.24 231.434L28.6865 229.455C28.6865 229.455 20.9486 236.221 19.1629 237.75C17.6451 239.036 10.8297 242.636 5.65723 240.891C9.11548 245.015 26.758 259.057 31.8828 260.15C37.2042 261.303 50.0372 260.096 52.1503 255.526Z" fill="url(#paint3_linear_10_6551)"/>
<path d="M261.789 219.994C261.789 219.994 264.289 223.456 263.919 225.988C263.55 228.52 260.824 230.504 260.045 232.111C259.265 233.719 261.979 236.988 259.449 240.519C256.92 244.051 237.907 257.492 233.585 260.146C227.861 260.425 214.807 260.081 212.683 255.531C210.558 250.98 211.129 234.377 211.129 234.377L226.462 206.61L261.789 219.994Z" fill="url(#paint4_linear_10_6551)"/>
<path d="M211.787 260.302C211.345 259.222 212.874 253.474 212.726 252.339L215.47 240.587L232.512 231.59L237.065 229.612C237.065 229.612 244.803 236.378 246.589 237.907C248.107 239.192 254.892 242.793 260.088 241.047C256.63 245.172 239.41 257.18 233.869 260.307C227.384 260.307 220.243 260.302 211.787 260.302Z" fill="url(#paint5_linear_10_6551)"/>
<path d="M160.279 109.673C141.357 103.243 112.018 105.271 100.673 109.673C89.328 114.075 122.417 140.388 130.803 139.844C139.19 139.299 170.57 113.199 160.279 109.673Z" fill="#AA7D00"/>
<path d="M93.6672 128.206C94.8279 130.57 96.0958 132.899 97.3576 135.249C100.334 140.734 103.161 146.298 107.976 150.463C118.411 159.499 133.904 164.059 147.517 161.141C163.273 157.758 173.642 147.208 181.445 134.546C164.35 127.177 140.779 116.77 140.785 115.435C140.785 113.343 142.339 98.1239 142.339 98.1239H118.232C118.232 98.1239 119.774 113.363 119.78 115.435C119.786 116.414 107.179 122.251 93.6672 128.206Z" fill="url(#paint6_linear_10_6551)"/>
<path d="M141.172 110.133C133.743 111.622 125.916 110.817 119.149 107.868C118.714 103.174 118.202 98.1041 118.202 98.1041H142.297C142.297 98.1041 141.63 104.979 141.172 110.133Z" fill="url(#paint7_linear_10_6551)"/>
<path d="M152.023 121.494L150.577 120.811C145.363 125.495 134.452 134.873 130.547 135.016C127.363 135.135 115.28 125.401 109.84 120.875L108.369 121.568C111.113 127.656 118.488 141.035 130.47 141.011C141.625 140.986 149.095 127.795 152.023 121.494Z" fill="url(#paint8_linear_10_6551)"/>
<path style="mix-blend-mode:multiply" opacity="0.3" d="M218.254 217.956L217.944 217.684L218.254 217.956Z" fill="url(#paint9_linear_10_6551)"/>
<path d="M198.821 260.615L184.761 142.187L191.862 134.059L160.849 118.208C160.849 118.208 136.109 137.069 130.579 136.977C123.978 136.87 100.727 119.147 100.727 119.147L78.2376 129.684C74.8863 131.112 69.3086 134.059 69.3086 134.059L76.4102 142.183L58.2605 260.615H198.821Z" fill="#FEBB00"/>
<path d="M191.68 133.979C194.823 136.882 194.552 148.004 194.552 148.004L221.682 184.051H186.272L183.224 142.723L191.68 133.979Z" fill="#FEBB00"/>
<path style="mix-blend-mode:multiply" opacity="0.2" d="M186.272 184.056H197.98C190.607 173.401 185.55 161.75 183.04 149.637L186.272 184.056Z" fill="url(#paint10_linear_10_6551)"/>
<path d="M194.731 148.247C193.989 154.983 195.924 161.735 200.24 167.47C204.557 173.205 211.016 177.606 218.629 180L194.731 148.247Z" fill="#F2B200"/>
<path d="M69.3476 134.135C66.2048 137.039 66.4001 148.004 66.4001 148.004L39.2698 184.056H74.6797L78.1796 144.129L69.3476 134.135Z" fill="#FEBB00"/>
<path style="mix-blend-mode:multiply" opacity="0.2" d="M74.6795 184.056H62.9714C70.3447 173.401 75.402 161.75 77.9116 149.637L74.6795 184.056Z" fill="url(#paint11_linear_10_6551)"/>
<path d="M66.2214 148.247C66.9615 154.985 65.0226 161.739 60.7019 167.474C56.3812 173.209 49.9169 177.609 42.2993 180L66.2214 148.247Z" fill="#F2B200"/>
<path style="mix-blend-mode:multiply" opacity="0.5" d="M198.821 260.615L184.761 143.977L188.558 139.7L188.118 134.503L180.933 131.664C176.379 149.317 169.609 166.693 160.694 183.611C157.456 189.712 153.461 196.124 146.699 198.759C139.937 201.395 131.99 199.511 125.186 196.801C114.888 192.689 105.483 186.712 97.5362 179.397C90.5954 173.013 81.4342 163.567 78.8389 154.575C76.7792 147.451 81.8866 150.482 85.9344 152.84C91.192 155.91 96.7282 158.768 102.513 161.397C108.102 163.934 113.936 166.23 119.978 168.27C125.008 169.962 132.913 170.577 137.3 173.197C117.626 161.448 100.56 146.017 87.2202 128.202C83.6486 129.514 80.4342 130.755 78.2257 131.679C76.4102 132.439 73.9458 133.638 72.0528 134.574L71.6123 138.615L76.4882 142.255L58.2605 260.615H198.821ZM165.236 220.131C148.693 225.148 132.705 219.814 117.019 212.843C101.334 205.871 90.5894 193.261 84.4582 178.147C106.876 198.266 135.008 212.882 165.236 220.131Z" fill="#FEBB00"/>
<path d="M100.167 68.3835C100.167 68.3835 95.2327 61.0783 88.0543 65.2329C80.8759 69.3876 88.8281 84.6213 96.6553 84.3542C100.536 84.2206 101.947 79.4082 101.947 79.4082L100.167 68.3835Z" fill="url(#paint12_linear_10_6551)"/>
<path d="M88.6257 69.6349C91.0266 70.3336 93.1532 71.5623 94.7775 73.1891C96.4018 74.8159 97.4625 76.7794 97.8458 78.8691C97.9823 79.5865 97.8139 80.321 97.3696 80.9464C97.1409 81.2515 96.8104 81.4948 96.4183 81.6467C96.0263 81.7986 95.5896 81.8526 95.1613 81.8021C93.9709 81.6092 93.334 80.5161 93.0483 79.5319C92.5673 77.8255 92.5673 76.0499 93.0483 74.3435C92.0423 72.8795 90.2269 70.6637 88.6257 69.6349Z" fill="url(#paint13_linear_10_6551)"/>
<path d="M100.167 68.3835C100.167 68.3835 95.2327 61.0783 88.0543 65.2329C87.2184 65.7256 86.5483 66.388 86.1079 67.1569C87.6487 66.6733 89.289 66.4465 90.9352 66.4892C94.1732 66.5881 97.2446 67.5526 100.215 68.6902L100.167 68.3835Z" fill="url(#paint14_linear_10_6551)"/>
<path d="M160.785 68.3835C160.785 68.3835 165.719 61.0783 172.898 65.2329C180.076 69.3876 172.124 84.6213 164.297 84.3542C160.416 84.2206 159.005 79.4082 159.005 79.4082L160.785 68.3835Z" fill="url(#paint15_linear_10_6551)"/>
<path d="M172.326 69.6349C169.93 70.3366 167.808 71.5665 166.188 73.1931C164.569 74.8197 163.511 76.7817 163.13 78.8691C162.994 79.5865 163.162 80.321 163.606 80.9464C163.835 81.2515 164.166 81.4948 164.558 81.6467C164.95 81.7986 165.386 81.8526 165.815 81.8021C167.005 81.6092 167.642 80.5161 167.928 79.5319C168.409 77.8255 168.409 76.0499 167.928 74.3435C168.91 72.8795 170.725 70.6637 172.326 69.6349Z" fill="url(#paint16_linear_10_6551)"/>
<path d="M160.785 68.3835C160.785 68.3835 165.719 61.0783 172.898 65.2329C173.734 65.7256 174.404 66.388 174.844 67.1569C173.303 66.6733 171.663 66.4465 170.017 66.4892C166.779 66.5881 163.707 67.5526 160.737 68.6902L160.785 68.3835Z" fill="url(#paint17_linear_10_6551)"/>
<path d="M130.47 28.2367C102.209 28.2367 94.9053 53.8818 94.9053 53.8818C94.9053 53.8818 98.8635 86.9558 102.75 92.9553C103.905 94.7507 113.929 108.382 130.47 108.382C147.011 108.382 157.035 94.7507 158.19 92.9553C162.076 86.9459 166.035 53.8818 166.035 53.8818C166.035 53.8818 158.731 28.2367 130.47 28.2367Z" fill="#FFC2A9"/>
<path d="M118.822 85.6253C118.287 86.0194 117.589 86.2252 116.875 86.199C116.797 86.1925 116.722 86.1707 116.656 86.1355C116.589 86.1002 116.534 86.0525 116.494 85.9962C116.357 85.7638 116.78 85.4571 116.988 85.3335C117.354 85.1352 117.756 84.9881 118.179 84.8982C118.53 84.7993 119.018 84.7399 119.179 84.9971C119.339 85.2543 119.084 85.467 118.822 85.6253Z" fill="url(#paint18_linear_10_6551)"/>
<path d="M145.904 88.583C146.131 89.1765 145.774 89.6464 144.714 88.8946C144.494 88.7614 144.308 88.5933 144.166 88.4C144.094 88.3091 144.055 88.2024 144.055 88.0933C144.055 87.9842 144.094 87.8775 144.166 87.7867C144.311 87.682 144.496 87.6243 144.687 87.6243C144.879 87.6243 145.064 87.682 145.208 87.7867C145.532 87.9874 145.775 88.2651 145.904 88.583Z" fill="url(#paint19_linear_10_6551)"/>
<path d="M117.834 85.5807C117.834 85.5807 117.482 92.1737 122 95.4727C125.107 97.7133 133.167 98.8459 137.22 96.6548C140.749 94.66 143.388 91.7531 144.726 88.3851C144.726 88.3851 140.339 90.2003 132.149 89.1764C123.958 88.1526 121.637 88.0537 117.834 85.5807Z" fill="url(#paint20_linear_10_6551)"/>
<path d="M144.422 88.4989L142.142 89.0479C138.857 89.5877 135.48 89.6262 132.178 89.1617C125.434 88.3159 121.083 87.2575 118.167 85.8132C118.167 85.8132 117.958 90.2646 121.244 92.7376C122.637 93.7961 125.268 94.9386 128.815 95.3244C131.28 95.5915 134.797 95.7893 138.083 94.4242C141.744 92.9206 144.422 88.4989 144.422 88.4989Z" fill="#7A336D"/>
<path d="M141.529 90.4823C142.12 90.0348 142.583 89.4841 142.886 88.8699L142.142 89.048C138.857 89.5877 135.48 89.6262 132.178 89.1617C126.667 88.4742 122.756 87.6383 119.923 86.5651C120.027 87.1862 120.21 87.7964 120.47 88.3852C120.976 89.4041 126.297 91.7831 131.101 92.1244C135.904 92.4657 140.607 90.9423 141.529 90.4823Z" fill="white"/>
<path d="M144.756 88.3702C136.232 91.6148 125.071 90.6504 117.833 85.5807C123.393 87.6283 126.976 86.8765 133.196 87.6283C135.863 87.9746 139.321 89.2061 144.756 88.3702Z" fill="url(#paint21_linear_10_6551)"/>
<path d="M126.589 28.4049C101.53 30.6108 94.9053 53.8818 94.9053 53.8818C94.9053 53.8818 96.0481 63.4424 97.7088 73.2158L99.3933 74.111C100.971 71.5143 100.881 68.4626 100.869 65.5544C100.858 62.6461 101.024 59.5499 102.994 57.1462C104.965 54.7424 108.709 52.9272 112.226 53.4861C112.607 49.6282 117.369 47.3185 122.006 46.9277C126.643 46.537 131.196 48.0702 135.297 49.8953C139.398 51.7204 143.333 53.9214 147.797 55.0441C153.858 56.4904 160.361 55.8896 165.892 53.3724C164.88 50.3454 158.803 34.4638 141.285 29.6315C139.698 29.3348 138.111 29.0875 136.523 28.8896C133.235 28.4929 129.911 28.3308 126.589 28.4049Z" fill="url(#paint22_linear_10_6551)"/>
<path d="M97.8337 64.6245C98.0137 61.5558 99.4166 58.624 101.822 56.2905C104.203 53.9857 107.572 52.8679 112.202 53.4861C113.161 48.8616 116.655 45.8247 120.857 44.5833C125.059 43.3418 130.065 43.5941 134.357 44.6328C132.5 41.7937 128.821 40.0429 125.053 39.2416C121.077 38.4376 116.916 38.5122 112.984 39.458C109.053 40.4037 105.488 42.1877 102.643 44.6328C97.0599 49.5491 95.3516 58.165 97.8337 64.6245Z" fill="black"/>
<path d="M151.606 59.5549C154.529 60.3908 157.344 63.5117 157.344 63.5117C157.582 64.1794 157.624 79.4082 157.624 79.4082C157.624 79.4082 142.47 81.7229 137.732 76.9352C134.863 70.0443 134.066 62.675 135.41 55.4695L151.606 59.5549Z" fill="url(#paint23_linear_10_6551)"/>
<path d="M155.327 72.83C155.327 72.83 151.565 78.3052 146.261 78.5871C144.803 78.7026 143.338 78.4409 142.066 77.838C140.794 77.2351 139.777 76.3204 139.154 75.2189L155.327 72.83Z" fill="url(#paint24_linear_10_6551)"/>
<path d="M138.66 58.5557C135.845 58.5904 134.643 55.5387 135.916 53.9362C145.351 54.1241 152.327 56.7752 156.464 61.4195C156.821 62.107 156.987 62.8093 157.345 63.5017C151.964 60.8853 146.523 58.4568 138.66 58.5557Z" fill="#001200"/>
<path d="M155.327 72.8299C155.327 72.8299 150.755 66.3358 144.565 66.1825C138.809 66.044 137.583 69.7881 137.916 71.3857C138.25 72.9832 155.327 72.8299 155.327 72.8299Z" fill="url(#paint25_linear_10_6551)"/>
<path d="M155.327 72.8299C154.286 74.1095 152.951 75.2053 151.398 76.0541C149.845 76.903 148.105 77.4882 146.279 77.7759C140.327 78.6118 139.035 75.4513 138.72 74.477C138.405 73.5026 138.72 70.1838 141.256 69.437C143.791 68.6901 148.375 66.2122 155.327 72.8299Z" fill="#FFEBED"/>
<path d="M137.916 71.3858C139.631 67.8544 143.785 66.1035 148.779 67.518C150.565 68.0126 152.91 69.5657 155.327 72.83C150.44 68.3786 145.452 68.0769 141.505 69.9712C140.569 70.4174 139.807 71.0792 139.313 71.877C138.818 72.6748 138.613 73.5743 138.72 74.4672C138.72 74.4672 137.857 71.9843 137.916 71.3858Z" fill="url(#paint26_linear_10_6551)"/>
<path d="M144.976 79.3488C147.688 79.3488 149.886 77.5219 149.886 75.2683C149.886 73.0148 147.688 71.1879 144.976 71.1879C142.264 71.1879 140.065 73.0148 140.065 75.2683C140.065 77.5219 142.264 79.3488 144.976 79.3488Z" fill="url(#paint27_linear_10_6551)"/>
<path d="M144.976 78.0876C146.85 78.0876 148.369 76.8253 148.369 75.2683C148.369 73.7113 146.85 72.4491 144.976 72.4491C143.102 72.4491 141.583 73.7113 141.583 75.2683C141.583 76.8253 143.102 78.0876 144.976 78.0876Z" fill="url(#paint28_linear_10_6551)"/>
<path d="M141.202 78.8987C140.702 78.4387 142.583 76.5048 143.434 76.9796C144.285 77.4545 141.934 79.5664 141.202 78.8987ZM147.154 73.0426C146.945 73.0416 146.739 73.0924 146.564 73.1886C146.389 73.2847 146.252 73.4219 146.171 73.5827C146.09 73.7434 146.068 73.9206 146.109 74.0917C146.149 74.2628 146.249 74.4202 146.397 74.5438C146.545 74.6674 146.734 74.7517 146.94 74.7861C147.145 74.8205 147.359 74.8033 147.552 74.7368C147.746 74.6704 147.912 74.5575 148.029 74.4126C148.146 74.2677 148.208 74.0973 148.208 73.923C148.208 73.6921 148.099 73.4704 147.904 73.3057C147.709 73.141 147.444 73.0465 147.166 73.0426H147.154Z" fill="white"/>
<path d="M113.453 61.7608C110.53 62.5917 106.054 66.0045 106.054 66.0045C105.816 66.6771 103.328 79.3983 103.328 79.3983C103.328 79.3983 118.482 81.713 123.22 76.9253C123.22 76.9253 126.071 70.6735 123.816 58.8822L113.453 61.7608Z" fill="url(#paint29_linear_10_6551)"/>
<path d="M105.625 72.83C105.625 72.83 109.387 78.3052 114.691 78.5871C116.149 78.7033 117.614 78.442 118.887 77.839C120.159 77.236 121.176 76.3208 121.798 75.2189L105.625 72.83Z" fill="url(#paint30_linear_10_6551)"/>
<path d="M121.339 62.1812C123.821 62.0625 124.482 58.9663 123.125 57.4479C114.857 58.1502 109.072 61.1673 106.03 66.0045C105.81 66.7068 105.75 67.4141 105.53 68.1164C109.947 65.223 114.417 62.5175 121.339 62.1812Z" fill="#001200"/>
<path d="M105.625 72.8299C105.625 72.8299 110.197 66.3358 116.393 66.1825C122.143 66.044 123.369 69.7881 123.036 71.3857C122.702 72.9832 105.625 72.8299 105.625 72.8299Z" fill="url(#paint31_linear_10_6551)"/>
<path d="M105.625 72.8299C106.666 74.1095 108.002 75.2053 109.554 76.0541C111.107 76.903 112.847 77.4882 114.673 77.7759C120.625 78.6118 121.917 75.4513 122.232 74.477C122.548 73.5026 122.232 70.1838 119.697 69.437C117.161 68.6901 112.578 66.2122 105.625 72.8299Z" fill="#FFEBED"/>
<path d="M123.036 71.3858C121.322 67.8544 117.167 66.1035 112.173 67.518C110.387 68.0126 108.042 69.5657 105.625 72.83C110.512 68.3786 115.506 68.0769 119.447 69.9712C120.385 70.4164 121.147 71.0781 121.641 71.8761C122.136 72.6741 122.341 73.5742 122.232 74.4672C122.232 74.4672 123.095 71.9843 123.036 71.3858Z" fill="url(#paint32_linear_10_6551)"/>
<path d="M115.976 79.3488C118.688 79.3488 120.887 77.5219 120.887 75.2683C120.887 73.0148 118.688 71.1879 115.976 71.1879C113.264 71.1879 111.066 73.0148 111.066 75.2683C111.066 77.5219 113.264 79.3488 115.976 79.3488Z" fill="url(#paint33_linear_10_6551)"/>
<path d="M119.369 75.2634C119.369 75.821 119.17 76.3661 118.797 76.8297C118.424 77.2933 117.895 77.6547 117.275 77.8681C116.655 78.0814 115.973 78.1373 115.314 78.0285C114.656 77.9197 114.052 77.6512 113.577 77.2569C113.103 76.8627 112.78 76.3603 112.649 75.8134C112.518 75.2666 112.585 74.6997 112.842 74.1846C113.099 73.6694 113.533 73.2291 114.091 72.9193C114.649 72.6096 115.305 72.4442 115.976 72.4442C116.876 72.4455 117.738 72.743 118.374 73.2714C119.01 73.7998 119.367 74.5161 119.369 75.2634Z" fill="url(#paint34_linear_10_6551)"/>
<path d="M112.203 78.8987C111.703 78.4387 113.578 76.5048 114.429 76.9796C115.28 77.4544 112.929 79.5664 112.203 78.8987ZM118.155 73.0426C117.946 73.0426 117.741 73.0942 117.566 73.191C117.392 73.2877 117.256 73.4252 117.176 73.5861C117.096 73.747 117.075 73.924 117.116 74.0947C117.157 74.2655 117.258 74.4224 117.406 74.5455C117.554 74.6686 117.743 74.7525 117.948 74.7865C118.154 74.8204 118.367 74.803 118.561 74.7364C118.754 74.6697 118.92 74.5569 119.036 74.4121C119.152 74.2673 119.215 74.0971 119.215 73.923C119.215 73.6904 119.104 73.4672 118.906 73.3022C118.709 73.1372 118.441 73.0439 118.161 73.0426H118.155Z" fill="white"/>
<path d="M129.101 74.3781C130.791 70.3718 135.797 81.4162 135.797 81.4162C135.797 81.4162 133.571 84.3591 130.476 84.3591C127.381 84.3591 125.119 81.2135 125.119 81.2135C125.119 81.2135 126.488 80.5556 129.101 74.3781Z" fill="#FFB398"/>
<path d="M125.107 81.2135C125.107 81.2135 126.643 83.3353 128.911 84.0921C129.399 84.2567 129.92 84.3423 130.446 84.3443C133.547 84.3443 135.803 81.3767 135.803 81.3767C131.905 82.9891 128.065 82.173 126.226 81.5845C125.844 81.4816 125.47 81.3576 125.107 81.2135Z" fill="url(#paint35_linear_10_6551)"/>
<path d="M125.107 81.2134C125.107 81.2134 126.643 83.3352 128.911 84.092C126.762 82.8802 126.226 81.619 126.226 81.619C126.226 81.619 128.774 78.3645 129.69 70.9504C128.202 78.0084 125.185 80.7386 125.107 81.2134Z" fill="#CB4D7A"/>
<path d="M133.404 83.0286C133.749 82.8742 134.12 82.7657 134.506 82.7072C133.883 83.2346 133.154 83.6666 132.351 83.9832C132.579 83.5848 132.946 83.2523 133.404 83.0286Z" fill="#9F4A8B"/>
<path d="M145.976 83.9733C145.976 85.6154 148.255 86.941 151.077 86.941C153.898 86.941 156.178 85.6105 156.178 83.9733C156.178 82.3362 153.892 81.0057 151.077 81.0057C148.261 81.0057 145.976 82.3263 145.976 83.9733Z" fill="url(#paint36_linear_10_6551)"/>
<path d="M114.976 83.9733C114.976 85.6154 112.697 86.941 109.875 86.941C107.054 86.941 104.774 85.6105 104.774 83.9733C104.774 82.3362 107.06 81.0057 109.875 81.0057C112.691 81.0057 114.976 82.3263 114.976 83.9733Z" fill="url(#paint37_linear_10_6551)"/>
<path d="M87.1377 128.117C83.483 125.119 86.5425 121.974 91.1376 120.905C95.7328 119.837 89.9115 111.894 100.661 109.673C100.661 109.673 97.0899 115.143 130.47 138.014V143.326C130.47 143.326 101.387 139.809 87.1377 128.117Z" fill="#F2B200"/>
<path d="M173.844 128.117C177.499 125.119 174.439 121.974 169.844 120.905C165.249 119.837 171.07 111.894 160.321 109.673C160.321 109.673 163.892 115.569 130.524 138.014V143.326C130.524 143.326 159.559 139.809 173.844 128.117Z" fill="#F2B200"/>
<path d="M166.957 47.0662C168.148 46.8486 169.82 50.7016 170.005 51.3594C170.68 53.8503 170.258 56.4599 168.814 58.7141C165.999 63.1062 163.707 69.2887 162.326 78.3003C161.136 73.5571 161.868 68.4825 162.029 63.6354C162.19 58.7883 161.255 53.506 157.065 50.1278C160.154 48.189 163.196 47.7488 166.957 47.0662Z" fill="url(#paint38_linear_10_6551)"/>
<path d="M166.957 47.0662C168.148 46.8486 169.82 50.7016 170.005 51.3594C170.68 53.8503 170.258 56.4599 168.814 58.7141C165.999 63.1062 163.707 69.2887 162.326 78.3003C161.136 73.5571 161.868 68.4825 162.029 63.6354C162.19 58.7883 161.255 53.506 157.065 50.1278C160.154 48.189 163.196 47.7488 166.957 47.0662Z" fill="black"/>
<path d="M112.226 53.4861C110.328 50.8054 110.131 45.0136 112.929 42.9511C115.726 40.8886 119.768 40.2901 123.464 40.765C127.161 41.2398 130.607 42.6593 133.803 44.2272C137 45.7951 140.131 47.5756 143.547 48.8418C147.874 50.4222 152.585 51.1432 157.305 50.9475C162.026 50.7517 166.627 49.6447 170.743 47.7141C178.892 43.7573 184.433 36.3086 184.868 28.484C185.097 23.8232 183.617 19.2146 180.624 15.2683C175.969 19.4872 169.582 24.2601 163.362 27.1931C165.85 23.8793 167.612 18.4238 167.332 14.5264C165.493 19.3883 158.958 22.7367 152.892 23.4589C146.827 24.181 140.678 23.0088 134.708 21.8514C128.738 20.694 122.583 19.5466 116.524 20.3181C110.68 21.064 105.365 23.5553 101.573 27.3248C97.7819 31.0944 95.7752 35.8836 95.9292 40.7946C93.418 40.8578 90.9272 41.1903 88.5186 41.7838C86.0127 42.4466 83.6378 43.693 82.3164 45.5824C80.2688 48.4956 81.1676 52.2892 83.1973 55.2172C85.227 58.1452 88.2329 60.4995 90.6971 63.1852C95.5899 68.517 96.7684 71.5539 99.2386 81.9405C101.06 76.6928 100.745 70.9703 99.5124 65.6187C98.6732 61.9735 97.1791 58.0315 99.191 54.7374C101.203 51.4434 108.369 51.7352 112.226 53.4861Z" fill="black"/>
<path d="M163.344 27.2129C157.731 29.8739 147.72 31.7237 140.131 32.1837C140.131 32.1837 152.214 42.1301 167.6 35.8338C182.987 29.5376 180.624 15.2683 180.624 15.2683C175.969 19.507 169.582 24.2799 163.344 27.2129Z" fill="black"/>
<path d="M96.4054 41.309C95.5011 40.4384 94.8331 39.4161 94.4471 38.3117C94.0473 37.2302 93.8466 36.1046 93.8519 34.9732C93.8596 33.8428 94.0765 32.7201 94.4948 31.6445C94.9 30.5452 95.5885 29.5325 96.5126 28.6769C96.6929 29.7604 96.7903 30.8524 96.8042 31.9462C96.8042 32.9799 96.8399 33.9889 96.8042 34.9979C96.7685 36.0069 96.7685 37.0159 96.7209 38.0496C96.6946 39.1403 96.5893 40.2288 96.4054 41.309Z" fill="black"/>
<path style="mix-blend-mode:multiply" opacity="0.5" d="M112.929 42.966C115.72 40.9035 119.768 40.305 123.464 40.7798C127.161 41.2547 130.607 42.6742 133.803 44.242C137 45.8099 140.13 47.5905 143.547 48.8567C147.874 50.4371 152.585 51.1581 157.305 50.9623C162.026 50.7666 166.627 49.6595 170.743 47.729C172.429 46.9086 174.005 45.942 175.445 44.8455C174.546 45.0977 173.66 45.3401 172.731 45.5478C165.059 47.3382 156.66 47.6103 149.243 45.1867C145.029 43.8068 141.285 41.6157 137.535 39.5038C133.785 37.3918 129.922 35.3194 125.589 34.2165C121.256 33.1135 116.345 33.0789 112.405 34.9386C105.423 38.2277 106.649 49.0595 112.232 53.4812C110.328 50.8054 110.155 45.0136 112.929 42.966Z" fill="#FEBB00"/>
<path d="M146.589 28.1576C149.966 27.7814 153.207 26.8108 156.097 25.3105C158.986 23.8102 161.457 21.8147 163.344 19.4575C160.392 21.606 156.757 23.0021 152.874 23.4786C146.803 24.2057 140.66 23.0285 134.69 21.8712C128.72 20.7138 122.566 19.5663 116.506 20.3379C110.669 21.1022 105.36 23.5907 101.554 27.3464C101.245 27.658 100.959 27.9795 100.655 28.3109C101.885 29.3001 103.445 29.9584 105.131 30.2003C107.78 30.586 110.488 30.0964 113.048 29.404C115.607 28.7115 118.083 27.8163 120.708 27.3514C129.202 25.8478 137.976 29.0033 146.589 28.1576Z" fill="black"/>
<path style="mix-blend-mode:multiply" opacity="0.5" d="M96.9885 52.1161C95.1524 55.6512 91.904 58.5513 87.7922 60.3265C88.4708 60.9793 89.1494 61.6322 89.8041 62.3049C90.672 61.8846 91.4823 61.387 92.2207 60.8211C93.6712 59.7058 94.8399 58.3617 95.6585 56.8671C96.4771 55.3725 96.9292 53.7574 96.9885 52.1161Z" fill="url(#paint39_linear_10_6551)"/>
<path d="M112.226 53.4861C109.346 51.6709 107.465 46.3836 109.072 43.5545C109.502 42.8266 110.066 42.1591 110.744 41.5761C111.487 40.9508 112.328 40.4118 113.244 39.9736C115.204 39.0573 117.359 38.466 119.589 38.2326C121.83 37.9794 124.103 37.9911 126.339 38.2672C128.481 38.534 130.581 38.9968 132.601 39.6472C134.464 40.2561 136.275 40.9683 138.023 41.7789C139.702 42.5653 141.279 43.3913 142.785 44.1926C144.291 44.9938 145.761 45.8 147.238 46.532C148.672 47.2594 150.155 47.9199 151.678 48.5104C154.498 49.679 157.598 50.3061 160.749 50.3454C162.345 50.3468 163.929 50.1295 165.44 49.7024C166.995 49.249 168.469 48.6216 169.82 47.8378C173.072 46.0091 176.126 43.9505 178.951 41.6849C177.892 44.1579 174.398 48.1147 172.636 49.3611C171.291 50.5534 169.713 51.5483 167.969 52.304C165.977 53.1494 163.814 53.681 161.588 53.8719C159.35 54.0639 157.091 53.999 154.874 53.679C152.757 53.3796 150.684 52.8938 148.69 52.2298C144.839 50.9538 141.619 49.2622 138.571 47.6498C137.065 46.8436 135.595 46.0572 134.125 45.345C132.689 44.6206 131.2 43.9715 129.667 43.4012C128.178 42.8439 126.627 42.4099 125.036 42.1053C124.253 41.9521 123.457 41.8479 122.655 41.7937C121.848 41.7213 121.037 41.6981 120.226 41.7245C117.018 41.8086 113.911 42.7137 112.101 44.5338C111.186 45.4421 110.631 46.5633 110.512 47.7438C110.399 48.9259 111.423 52.2892 112.226 53.4861Z" fill="black"/>
<path d="M201.975 216.284C202.423 215.69 203.051 215.204 203.796 214.874C205.861 213.92 223.932 213.495 229.682 213.302C229.722 213.353 229.756 213.408 229.784 213.465C230.522 214.949 228.914 216.927 227.456 217.654C225.421 218.678 222.897 218.698 220.516 218.683L207.635 218.604C206.425 218.662 205.212 218.526 204.064 218.203C203.555 218.047 203.099 217.791 202.735 217.457C202.371 217.123 202.11 216.72 201.975 216.284Z" fill="url(#paint40_linear_10_6551)"/>
<path d="M226.73 229.5C226.277 230.925 226.379 232.434 227.022 233.808C225.569 232.947 225.563 230.628 226.73 229.5Z" fill="url(#paint41_linear_10_6551)"/>
<path d="M221.7 206.402C221.825 205.63 221.944 204.864 222.063 204.097C221.65 204.364 221.379 204.756 221.312 205.188C221.244 205.619 221.383 206.056 221.7 206.402Z" fill="url(#paint42_linear_10_6551)"/>
<path d="M240.914 180.96C237.563 179.97 229.605 178.487 217.528 177.097C217.528 177.127 217.569 177.151 217.587 177.176C217.469 177.142 217.347 177.116 217.224 177.097C198.385 174.911 169.445 172.853 132.018 172.853C94.8995 172.853 66.1382 174.876 47.2815 177.042C47.1505 177.061 47.0212 177.088 46.8946 177.122C34.9127 178.531 27.0439 179.97 23.7166 180.96C15.1513 183.512 10.6216 189.195 15.6215 194.863C20.6214 200.531 35.8115 244.649 41.0078 246C42.7935 246.465 52.5374 246.801 65.1145 247.048H65.1859C89.3461 247.513 123.649 247.642 132.018 247.642C140.387 247.642 174.683 247.513 198.844 247.048C198.945 247.048 199.052 247.024 199.153 247.014V247.048C211.909 246.801 221.843 246.46 223.635 245.99C228.825 244.64 244.045 200.531 249.021 194.863C253.997 189.195 249.473 183.522 240.914 180.96Z" fill="#9E4A9E"/>
<path style="mix-blend-mode:multiply" opacity="0.3" d="M229.301 237.799C229.688 236.859 230.075 235.865 230.462 234.832C155.494 234.784 81.5381 220.449 14.2822 192.929C14.6364 193.618 15.0859 194.27 15.6215 194.873C20.5916 200.541 35.8115 244.649 41.0078 246C42.7935 246.465 52.5373 246.801 65.1145 247.048H65.1859L69.8286 247.127L72.2095 247.167L74.6381 247.206C77.9058 247.256 81.2629 247.296 84.6319 247.335L87.1616 247.365H88.4294L94.7329 247.424H95.9828H98.459H100.905C115.096 247.533 127.429 247.572 132.006 247.572H135.631C138.821 247.572 143.22 247.572 148.363 247.523H150.452C154.363 247.523 158.642 247.474 163.1 247.439H165.547H166.785L169.273 247.414C179.285 247.325 189.772 247.197 198.832 247.023C198.933 247.023 199.04 246.999 199.141 246.989V247.023C205.522 246.9 211.195 246.751 215.492 246.578L216.284 246.544L217.766 246.474L218.45 246.44C220.045 246.38 221.634 246.251 223.212 246.054L223.45 246.01L223.641 245.965C224.962 245.653 226.974 242.448 229.301 237.799Z" fill="url(#paint43_linear_10_6551)"/>
<g style="mix-blend-mode:overlay" opacity="0.7">
<path d="M240.914 184.298C232.349 181.746 193.784 176.192 132.315 176.192C70.8463 176.192 32.2757 181.746 23.7163 184.298C18.4843 185.856 14.788 188.586 13.8058 191.767C12.4487 187.221 16.7046 183.052 23.7163 180.96C32.2757 178.408 70.8403 172.853 132.315 172.853C169.743 172.853 198.683 174.911 217.528 177.097C229.629 178.502 237.563 179.961 240.914 180.96C247.902 183.042 252.182 187.211 250.819 191.757C249.854 188.586 246.146 185.856 240.914 184.298Z" fill="white"/>
</g>
<path d="M7.39543 212.664C7.39543 212.664 5.01453 208.885 5.56809 207.114C6.12165 205.344 12.5263 191.287 14.8655 190.179C17.2047 189.071 27.3652 187.305 29.3592 187.464C31.3532 187.622 45.4303 188.725 47.4422 190.179C49.454 191.633 43.8708 195.125 38.3055 196.263C32.7401 197.4 24.5677 196.535 24.5677 196.535L21.5499 204.419L7.39543 212.664Z" fill="url(#paint44_linear_10_6551)"/>
<path d="M7.93108 201.733C6.70491 204.32 5.77041 206.491 5.55018 207.119C4.95495 208.89 7.37752 212.669 7.37752 212.669L21.532 204.424L24.5498 196.54C22.4637 196.29 20.3968 195.94 18.3594 195.491C18.3594 195.491 13.4607 199.656 7.93108 201.733Z" fill="url(#paint45_linear_10_6551)"/>
<path d="M3.01454 219.994C3.01454 219.994 0.341979 216.141 1.58005 214.058C2.81812 211.976 21.288 200.838 24.4784 200.674C27.6688 200.511 53.2873 209.473 57.1741 212.011C61.0609 214.548 61.3407 216.378 58.5848 217.639C55.8289 218.901 48.2457 218.351 42.6149 214.271L31.9008 212.678C31.9008 212.678 45.1565 219.187 46.5136 220.013C47.8707 220.839 49.9778 229.079 49.6981 231.167C49.4183 233.254 42.3411 230.375 42.3411 230.375C42.3411 230.375 43.0553 232.72 38.609 232.759C35.3293 232.794 28.7045 229.495 28.7045 229.495L20.532 234.743L3.01454 219.994Z" fill="url(#paint46_linear_10_6551)"/>
<path d="M38.9007 226.285C39.6388 226.953 42.347 230.36 42.347 230.36C42.347 230.36 49.4302 233.239 49.704 231.152C49.9778 229.065 47.8767 220.82 46.5196 219.999C46.1029 219.741 44.5553 218.95 42.6149 217.976C40.8947 220.528 26.401 216.462 26.401 216.462C24.6153 217.343 13.5977 227.343 13.5977 227.343C13.5977 227.343 24.77 221.25 25.2581 221.265C25.7462 221.28 38.1626 225.612 38.9007 226.285Z" fill="url(#paint47_linear_10_6551)"/>
<path d="M41.323 209.424C37.9243 208.573 24.9901 206.031 24.9901 206.031C21.9009 208.954 6.91309 217.13 6.91309 217.13C6.91309 217.13 23.5794 210.611 24.502 210.23C25.4246 209.849 31.9066 212.664 31.9066 212.664L42.6206 214.256C48.2515 218.337 55.8168 218.886 58.5905 217.624C60.9 216.571 61.0667 215.122 58.7989 213.173C57.4422 213.384 56.0701 213.519 54.6918 213.579C49.1265 213.762 44.7277 210.28 41.323 209.424Z" fill="url(#paint48_linear_10_6551)"/>
<path d="M46.5196 219.999C46.5196 219.999 48.4362 224.104 45.6089 223.955C43.3946 223.851 32.8651 222.724 28.4307 222.239C32.1687 223.53 37.9543 225.642 38.8173 226.196C38.8488 226.212 38.8769 226.232 38.9007 226.255C39.6388 226.923 42.347 230.331 42.347 230.331C42.347 230.331 49.4302 233.209 49.704 231.122C49.9778 229.035 47.8767 220.82 46.5196 219.999Z" fill="url(#paint49_linear_10_6551)"/>
<path d="M20.5318 220.34C16.8831 223.426 12.4249 227.803 8.77612 230.914C11.7761 227.071 16.0022 222.64 20.5318 220.34Z" fill="url(#paint50_linear_10_6551)"/>
<path d="M26.2938 214.637C25.897 213.546 25.52 212.453 25.1628 211.358C26.9545 212.075 26.9783 213.109 26.2938 214.637Z" fill="url(#paint51_linear_10_6551)"/>
<path d="M25.0378 204.552L24.5557 201.659C25.633 202.42 25.5021 203.454 25.0378 204.552Z" fill="url(#paint52_linear_10_6551)"/>
<path d="M27.7817 227.16C27.5313 225.464 26.6703 223.869 25.3115 222.585C27.615 223.253 28.5079 225.222 27.7817 227.16Z" fill="url(#paint53_linear_10_6551)"/>
<path d="M9.71069 208.212C10.0559 212.169 17.0379 207.535 19.0736 205.789C20.7414 204.366 22.1456 202.746 23.2402 200.981C20.3771 201.99 14.5915 205.195 9.71069 208.212Z" fill="#FFCDBA"/>
<path d="M11.0381 215.517L10.9429 215.582C13.2708 216.128 15.7629 215.903 17.8951 214.954C19.1689 214.375 21.6986 212.669 22.0617 211.2L11.0381 215.517Z" fill="#FFCDBA"/>
<path d="M29.3593 187.464C28.0022 187.355 22.8952 188.126 19.0202 188.982C18.9344 189.384 18.9815 189.798 19.1566 190.18C19.3317 190.561 19.6281 190.896 20.0143 191.148C22.669 192.969 27.9546 193.438 31.2462 193.557C36.8958 193.737 42.4846 192.533 47.3172 190.095C44.9959 188.69 31.3235 187.622 29.3593 187.464Z" fill="#FFCDBA"/>
<path d="M257.438 212.664C257.438 212.664 259.848 208.885 259.265 207.114C258.682 205.344 252.307 191.287 249.962 190.179C247.616 189.071 237.462 187.305 235.474 187.464C233.486 187.622 219.403 188.725 217.391 190.179C215.379 191.633 220.962 195.125 226.522 196.263C232.081 197.4 240.259 196.535 240.259 196.535L243.283 204.419L257.438 212.664Z" fill="url(#paint54_linear_10_6551)"/>
<path d="M256.902 201.733C258.092 204.32 259.057 206.491 259.283 207.119C259.878 208.89 257.456 212.669 257.456 212.669L243.301 204.424L240.277 196.54C242.364 196.29 244.43 195.94 246.468 195.491C246.468 195.491 251.372 199.656 256.902 201.733Z" fill="url(#paint55_linear_10_6551)"/>
<path d="M261.789 219.994C261.789 219.994 264.467 216.141 263.223 214.058C261.979 211.976 243.515 200.838 240.325 200.674C237.134 200.511 211.516 209.473 207.635 212.011C203.754 214.548 203.468 216.378 206.224 217.639C208.98 218.901 216.563 218.351 222.194 214.271L232.908 212.678C232.908 212.678 219.676 219.173 218.307 219.999C216.938 220.824 214.849 229.065 215.123 231.152C215.397 233.239 222.486 230.36 222.486 230.36C222.486 230.36 221.772 232.705 226.218 232.744C229.498 232.779 236.123 229.48 236.123 229.48L244.295 234.743L261.789 219.994Z" fill="url(#paint56_linear_10_6551)"/>
<path d="M225.932 226.285C225.188 226.953 222.486 230.36 222.486 230.36C222.486 230.36 215.397 233.239 215.123 231.152C214.849 229.065 216.95 220.82 218.307 219.999C218.73 219.741 220.278 218.95 222.218 217.976C223.932 220.528 238.426 216.462 238.426 216.462C240.212 217.343 251.235 227.343 251.235 227.343C251.235 227.343 240.057 221.25 239.575 221.265C239.093 221.28 226.67 225.612 225.932 226.285Z" fill="url(#paint57_linear_10_6551)"/>
<path d="M223.504 209.424C226.902 208.573 239.843 206.031 239.843 206.031C242.926 208.954 257.92 217.13 257.92 217.13C257.92 217.13 241.253 210.611 240.325 210.23C239.396 209.849 232.926 212.664 232.926 212.664L222.212 214.256C216.581 218.337 209.01 218.886 206.242 217.624C203.933 216.571 203.766 215.122 206.028 213.173C207.39 213.392 208.768 213.536 210.153 213.603C215.706 213.762 220.105 210.28 223.504 209.424Z" fill="url(#paint58_linear_10_6551)"/>
<path d="M218.307 219.999C218.307 219.999 216.391 224.104 219.218 223.955C221.438 223.851 231.968 222.724 236.396 222.239C232.658 223.53 226.873 225.642 226.01 226.196C225.98 226.212 225.954 226.232 225.932 226.255C225.188 226.923 222.486 230.331 222.486 230.331C222.486 230.331 215.397 233.209 215.123 231.122C214.849 229.035 216.95 220.82 218.307 219.999Z" fill="url(#paint59_linear_10_6551)"/>
<path d="M244.295 220.34C247.95 223.426 252.402 227.803 256.057 230.89C253.057 227.071 248.842 222.64 244.295 220.34Z" fill="url(#paint60_linear_10_6551)"/>
<path d="M238.539 214.637C238.912 213.546 239.289 212.453 239.67 211.358C237.873 212.075 237.849 213.109 238.539 214.637Z" fill="url(#paint61_linear_10_6551)"/>
<path d="M239.783 204.552C239.944 203.588 240.098 202.623 240.259 201.659C239.2 202.42 239.319 203.454 239.783 204.552Z" fill="url(#paint62_linear_10_6551)"/>
<path d="M237.045 227.16C237.296 225.464 238.156 223.869 239.515 222.585C237.212 223.253 236.343 225.222 237.045 227.16Z" fill="url(#paint63_linear_10_6551)"/>
<path d="M255.122 208.212C254.771 212.169 247.789 207.535 245.759 205.789C244.092 204.366 242.687 202.746 241.593 200.981C244.45 201.99 250.241 205.195 255.122 208.212Z" fill="#FFCDBA"/>
<path d="M253.795 215.517L253.89 215.582C251.557 216.132 249.057 215.907 246.92 214.954C245.646 214.375 243.111 212.669 242.753 211.2L253.795 215.517Z" fill="#FFCDBA"/>
<path d="M235.474 187.464C236.825 187.355 241.932 188.126 245.807 188.982C245.894 189.384 245.848 189.797 245.674 190.179C245.5 190.561 245.205 190.896 244.819 191.148C242.164 192.969 236.879 193.438 233.581 193.557C227.931 193.738 222.342 192.534 217.51 190.095C219.837 188.69 233.504 187.622 235.474 187.464Z" fill="#FFCDBA"/>
<defs>
<filter id="filter0_d_10_6551" x="41.8728" y="13.5631" width="50.374" height="36.6742" filterUnits="userSpaceOnUse" color-interpolation-filters="sRGB">
<feFlood flood-opacity="0" result="BackgroundImageFix"/>
<feColorMatrix in="SourceAlpha" type="matrix" values="0 0 0 0 0 0 0 0 0 0 0 0 0 0 0 0 0 0 127 0" result="hardAlpha"/>
<feOffset dy="4"/>
<feGaussianBlur stdDeviation="2"/>
<feComposite in2="hardAlpha" operator="out"/>
<feColorMatrix type="matrix" values="0 0 0 0 0 0 0 0 0 0 0 0 0 0 0 0 0 0 0.25 0"/>
<feBlend mode="normal" in2="BackgroundImageFix" result="effect1_dropShadow_10_6551"/>
<feBlend mode="normal" in="SourceGraphic" in2="effect1_dropShadow_10_6551" result="shape"/>
</filter>
<filter id="filter1_d_10_6551" x="158.277" y="-0.322144" width="58.7607" height="50.1796" filterUnits="userSpaceOnUse" color-interpolation-filters="sRGB">
<feFlood flood-opacity="0" result="BackgroundImageFix"/>
<feColorMatrix in="SourceAlpha" type="matrix" values="0 0 0 0 0 0 0 0 0 0 0 0 0 0 0 0 0 0 127 0" result="hardAlpha"/>
<feOffset dy="4"/>
<feGaussianBlur stdDeviation="2"/>
<feComposite in2="hardAlpha" operator="out"/>
<feColorMatrix type="matrix" values="0 0 0 0 0 0 0 0 0 0 0 0 0 0 0 0 0 0 0.25 0"/>
<feBlend mode="normal" in2="BackgroundImageFix" result="effect1_dropShadow_10_6551"/>
<feBlend mode="normal" in="SourceGraphic" in2="effect1_dropShadow_10_6551" result="shape"/>
</filter>
<filter id="filter2_d_10_6551" x="175.463" y="61.3107" width="87.9485" height="66.3629" filterUnits="userSpaceOnUse" color-interpolation-filters="sRGB">
<feFlood flood-opacity="0" result="BackgroundImageFix"/>
<feColorMatrix in="SourceAlpha" type="matrix" values="0 0 0 0 0 0 0 0 0 0 0 0 0 0 0 0 0 0 127 0" result="hardAlpha"/>
<feOffset dy="4"/>
<feGaussianBlur stdDeviation="2"/>
<feComposite in2="hardAlpha" operator="out"/>
<feColorMatrix type="matrix" values="0 0 0 0 0 0 0 0 0 0 0 0 0 0 0 0 0 0 0.25 0"/>
<feBlend mode="normal" in2="BackgroundImageFix" result="effect1_dropShadow_10_6551"/>
<feBlend mode="normal" in="SourceGraphic" in2="effect1_dropShadow_10_6551" result="shape"/>
</filter>
<filter id="filter3_d_10_6551" x="199.861" y="115.196" width="43.019" height="37.099" filterUnits="userSpaceOnUse" color-interpolation-filters="sRGB">
<feFlood flood-opacity="0" result="BackgroundImageFix"/>
<feColorMatrix in="SourceAlpha" type="matrix" values="0 0 0 0 0 0 0 0 0 0 0 0 0 0 0 0 0 0 127 0" result="hardAlpha"/>
<feOffset dy="4"/>
<feGaussianBlur stdDeviation="2"/>
<feComposite in2="hardAlpha" operator="out"/>
<feColorMatrix type="matrix" values="0 0 0 0 0 0 0 0 0 0 0 0 0 0 0 0 0 0 0.25 0"/>
<feBlend mode="normal" in2="BackgroundImageFix" result="effect1_dropShadow_10_6551"/>
<feBlend mode="normal" in="SourceGraphic" in2="effect1_dropShadow_10_6551" result="shape"/>
</filter>
<filter id="filter4_d_10_6551" x="25.2336" y="107.732" width="25.6306" height="22.6501" filterUnits="userSpaceOnUse" color-interpolation-filters="sRGB">
<feFlood flood-opacity="0" result="BackgroundImageFix"/>
<feColorMatrix in="SourceAlpha" type="matrix" values="0 0 0 0 0 0 0 0 0 0 0 0 0 0 0 0 0 0 127 0" result="hardAlpha"/>
<feOffset dy="4"/>
<feGaussianBlur stdDeviation="2"/>
<feComposite in2="hardAlpha" operator="out"/>
<feColorMatrix type="matrix" values="0 0 0 0 0 0 0 0 0 0 0 0 0 0 0 0 0 0 0.25 0"/>
<feBlend mode="normal" in2="BackgroundImageFix" result="effect1_dropShadow_10_6551"/>
<feBlend mode="normal" in="SourceGraphic" in2="effect1_dropShadow_10_6551" result="shape"/>
</filter>
<filter id="filter5_d_10_6551" x="9.44873" y="33.4056" width="16.7261" height="15.2509" filterUnits="userSpaceOnUse" color-interpolation-filters="sRGB">
<feFlood flood-opacity="0" result="BackgroundImageFix"/>
<feColorMatrix in="SourceAlpha" type="matrix" values="0 0 0 0 0 0 0 0 0 0 0 0 0 0 0 0 0 0 127 0" result="hardAlpha"/>
<feOffset dy="4"/>
<feGaussianBlur stdDeviation="2"/>
<feComposite in2="hardAlpha" operator="out"/>
<feColorMatrix type="matrix" values="0 0 0 0 0 0 0 0 0 0 0 0 0 0 0 0 0 0 0.25 0"/>
<feBlend mode="normal" in2="BackgroundImageFix" result="effect1_dropShadow_10_6551"/>
<feBlend mode="normal" in="SourceGraphic" in2="effect1_dropShadow_10_6551" result="shape"/>
</filter>
<filter id="filter6_d_10_6551" x="234.158" y="144.992" width="16.8213" height="15.33" filterUnits="userSpaceOnUse" color-interpolation-filters="sRGB">
<feFlood flood-opacity="0" result="BackgroundImageFix"/>
<feColorMatrix in="SourceAlpha" type="matrix" values="0 0 0 0 0 0 0 0 0 0 0 0 0 0 0 0 0 0 127 0" result="hardAlpha"/>
<feOffset dy="4"/>
<feGaussianBlur stdDeviation="2"/>
<feComposite in2="hardAlpha" operator="out"/>
<feColorMatrix type="matrix" values="0 0 0 0 0 0 0 0 0 0 0 0 0 0 0 0 0 0 0.25 0"/>
<feBlend mode="normal" in2="BackgroundImageFix" result="effect1_dropShadow_10_6551"/>
<feBlend mode="normal" in="SourceGraphic" in2="effect1_dropShadow_10_6551" result="shape"/>
</filter>
<filter id="filter7_d_10_6551" x="66.4355" y="116.943" width="15.4761" height="14.2122" filterUnits="userSpaceOnUse" color-interpolation-filters="sRGB">
<feFlood flood-opacity="0" result="BackgroundImageFix"/>
<feColorMatrix in="SourceAlpha" type="matrix" values="0 0 0 0 0 0 0 0 0 0 0 0 0 0 0 0 0 0 127 0" result="hardAlpha"/>
<feOffset dy="4"/>
<feGaussianBlur stdDeviation="2"/>
<feComposite in2="hardAlpha" operator="out"/>
<feColorMatrix type="matrix" values="0 0 0 0 0 0 0 0 0 0 0 0 0 0 0 0 0 0 0.25 0"/>
<feBlend mode="normal" in2="BackgroundImageFix" result="effect1_dropShadow_10_6551"/>
<feBlend mode="normal" in="SourceGraphic" in2="effect1_dropShadow_10_6551" result="shape"/>
</filter>
<linearGradient id="paint0_linear_10_6551" x1="8913.05" y1="1552.19" x2="8931.62" y2="1237.85" gradientUnits="userSpaceOnUse">
<stop stop-color="#CCEDFF"/>
<stop offset="1" stop-color="#9D68C2"/>
</linearGradient>
<linearGradient id="paint1_linear_10_6551" x1="5195.86" y1="597.565" x2="7778.02" y2="5595.83" gradientUnits="userSpaceOnUse">
<stop stop-color="#9942B7"/>
<stop offset="1" stop-color="#6456D8"/>
</linearGradient>
<linearGradient id="paint2_linear_10_6551" x1="0.871871" y1="233.585" x2="53.7755" y2="233.585" gradientUnits="userSpaceOnUse">
<stop offset="0.02" stop-color="#FFC2A9"/>
<stop offset="1" stop-color="#FF9595"/>
</linearGradient>
<linearGradient id="paint3_linear_10_6551" x1="46.6028" y1="255.471" x2="21.2532" y2="227.552" gradientUnits="userSpaceOnUse">
<stop stop-color="#FF817F"/>
<stop offset="1" stop-color="#CF6074"/>
</linearGradient>
<linearGradient id="paint4_linear_10_6551" x1="-80736.6" y1="24727.4" x2="-85438.1" y2="24727.4" gradientUnits="userSpaceOnUse">
<stop offset="0.02" stop-color="#FFC2A9"/>
<stop offset="1" stop-color="#FF9595"/>
</linearGradient>
<linearGradient id="paint5_linear_10_6551" x1="-75827.6" y1="15736.6" x2="-74310.3" y2="13622.1" gradientUnits="userSpaceOnUse">
<stop stop-color="#FF817F"/>
<stop offset="1" stop-color="#CF6074"/>
</linearGradient>
<linearGradient id="paint6_linear_10_6551" x1="22409.4" y1="11695.7" x2="22447.1" y2="15992.9" gradientUnits="userSpaceOnUse">
<stop offset="0.02" stop-color="#FFC2A9"/>
<stop offset="1" stop-color="#FF9595"/>
</linearGradient>
<linearGradient id="paint7_linear_10_6551" x1="-42656.4" y1="2933.72" x2="-42686.4" y2="2411.84" gradientUnits="userSpaceOnUse">
<stop stop-color="#FF817F"/>
<stop offset="1" stop-color="#CF6074"/>
</linearGradient>
<linearGradient id="paint8_linear_10_6551" x1="9101.05" y1="5106.26" x2="12302.6" y2="5106.26" gradientUnits="userSpaceOnUse">
<stop stop-color="#FF817F"/>
<stop offset="1" stop-color="#CF6074"/>
</linearGradient>
<linearGradient id="paint9_linear_10_6551" x1="218.135" y1="217.951" x2="218.097" y2="217.721" gradientUnits="userSpaceOnUse">
<stop stop-color="#9D68C2"/>
<stop offset="1" stop-color="#CCEDFF"/>
</linearGradient>
<linearGradient id="paint10_linear_10_6551" x1="228.087" y1="152.006" x2="181.578" y2="178.605" gradientUnits="userSpaceOnUse">
<stop stop-color="#610057"/>
<stop offset="1" stop-color="#03002D"/>
</linearGradient>
<linearGradient id="paint11_linear_10_6551" x1="-28180.9" y1="10112.6" x2="-26695" y2="10419.2" gradientUnits="userSpaceOnUse">
<stop stop-color="#610057"/>
<stop offset="1" stop-color="#03002D"/>
</linearGradient>
<linearGradient id="paint12_linear_10_6551" x1="87.9174" y1="78.874" x2="96.4936" y2="68.9538" gradientUnits="userSpaceOnUse">
<stop offset="0.02" stop-color="#FFAC8B"/>
<stop offset="1" stop-color="#FF9595"/>
</linearGradient>
<linearGradient id="paint13_linear_10_6551" x1="4541.04" y1="1717.74" x2="4685.13" y2="1717.74" gradientUnits="userSpaceOnUse">
<stop stop-color="#FF817F"/>
<stop offset="1" stop-color="#CF6074"/>
</linearGradient>
<linearGradient id="paint14_linear_10_6551" x1="97.2148" y1="70.5152" x2="92.6802" y2="65.5645" gradientUnits="userSpaceOnUse">
<stop stop-color="#FFA795"/>
<stop offset="0.98" stop-color="#FFC2A9"/>
</linearGradient>
<linearGradient id="paint15_linear_10_6551" x1="-28144.4" y1="2952.98" x2="-28491.9" y2="2679.61" gradientUnits="userSpaceOnUse">
<stop offset="0.02" stop-color="#FFAC8B"/>
<stop offset="1" stop-color="#FF9595"/>
</linearGradient>
<linearGradient id="paint16_linear_10_6551" x1="-15127.6" y1="1717.74" x2="-15271.4" y2="1717.74" gradientUnits="userSpaceOnUse">
<stop stop-color="#FF817F"/>
<stop offset="1" stop-color="#CF6074"/>
</linearGradient>
<linearGradient id="paint17_linear_10_6551" x1="-23835.8" y1="654.435" x2="-23807.5" y2="577.842" gradientUnits="userSpaceOnUse">
<stop stop-color="#FFA795"/>
<stop offset="0.98" stop-color="#FFC2A9"/>
</linearGradient>
<linearGradient id="paint18_linear_10_6551" x1="2252.1" y1="-2.99661" x2="2251.83" y2="-6.01455" gradientUnits="userSpaceOnUse">
<stop offset="0.02" stop-color="#FFA58B"/>
<stop offset="1" stop-color="#FF9595"/>
</linearGradient>
<linearGradient id="paint19_linear_10_6551" x1="1260.47" y1="669.415" x2="1261.06" y2="665.075" gradientUnits="userSpaceOnUse">
<stop offset="0.02" stop-color="#FFA58B"/>
<stop offset="1" stop-color="#FF9595"/>
</linearGradient>
<linearGradient id="paint20_linear_10_6551" x1="130.685" y1="90.7787" x2="129.91" y2="97.8165" gradientUnits="userSpaceOnUse">
<stop stop-color="#E1616A"/>
<stop offset="1" stop-color="#FF8883"/>
</linearGradient>
<linearGradient id="paint21_linear_10_6551" x1="21042.7" y1="1488.39" x2="21042.7" y2="1459.25" gradientUnits="userSpaceOnUse">
<stop stop-color="#E1616A"/>
<stop offset="1" stop-color="#FF8883"/>
</linearGradient>
<linearGradient id="paint22_linear_10_6551" x1="94.9053" y1="51.2456" x2="165.886" y2="51.2456" gradientUnits="userSpaceOnUse">
<stop stop-color="#CF6074"/>
<stop offset="1" stop-color="#FF817F"/>
</linearGradient>
<linearGradient id="paint23_linear_10_6551" x1="148.561" y1="81.1252" x2="145.032" y2="56.2363" gradientUnits="userSpaceOnUse">
<stop stop-color="#FFA58B" stop-opacity="0.6"/>
<stop offset="1" stop-color="#FF9595"/>
</linearGradient>
<linearGradient id="paint24_linear_10_6551" x1="-27626.3" y1="923.222" x2="-27628.1" y2="867.597" gradientUnits="userSpaceOnUse">
<stop offset="0.02" stop-color="#FFA58B"/>
<stop offset="1" stop-color="#FF9595"/>
</linearGradient>
<linearGradient id="paint25_linear_10_6551" x1="-5822.4" y1="1978.69" x2="-6281.36" y2="2113.04" gradientUnits="userSpaceOnUse">
<stop stop-color="#CF6074"/>
<stop offset="1" stop-color="#FF817F"/>
</linearGradient>
<linearGradient id="paint26_linear_10_6551" x1="151.922" y1="84.5392" x2="145.988" y2="67.0921" gradientUnits="userSpaceOnUse">
<stop stop-color="#0E1B6D"/>
<stop offset="1" stop-color="#002538"/>
</linearGradient>
<linearGradient id="paint27_linear_10_6551" x1="145.392" y1="79.5714" x2="144.746" y2="69.8926" gradientUnits="userSpaceOnUse">
<stop stop-color="#8642A0"/>
<stop offset="1" stop-color="#6456C0"/>
</linearGradient>
<linearGradient id="paint28_linear_10_6551" x1="-10973.6" y1="823.986" x2="-11050.9" y2="823.986" gradientUnits="userSpaceOnUse">
<stop stop-color="#0E1B6D"/>
<stop offset="1" stop-color="#002538"/>
</linearGradient>
<linearGradient id="paint29_linear_10_6551" x1="-22536.1" y1="3736.75" x2="-22396.7" y2="2825.41" gradientUnits="userSpaceOnUse">
<stop stop-color="#FFA58B" stop-opacity="0.6"/>
<stop offset="1" stop-color="#FF9595"/>
</linearGradient>
<linearGradient id="paint30_linear_10_6551" x1="3304.1" y1="923.267" x2="3305.87" y2="867.648" gradientUnits="userSpaceOnUse">
<stop offset="0.02" stop-color="#FFA58B"/>
<stop offset="1" stop-color="#FF9595"/>
</linearGradient>
<linearGradient id="paint31_linear_10_6551" x1="-19657.5" y1="-953.439" x2="-19198.5" y2="-819.09" gradientUnits="userSpaceOnUse">
<stop stop-color="#CF6074"/>
<stop offset="1" stop-color="#FF817F"/>
</linearGradient>
<linearGradient id="paint32_linear_10_6551" x1="-19572.8" y1="-339.741" x2="-19499.6" y2="-607.332" gradientUnits="userSpaceOnUse">
<stop stop-color="#0E1B6D"/>
<stop offset="1" stop-color="#002538"/>
</linearGradient>
<linearGradient id="paint33_linear_10_6551" x1="-22695" y1="1232.57" x2="-22705.7" y2="1072.87" gradientUnits="userSpaceOnUse">
<stop stop-color="#8642A0"/>
<stop offset="1" stop-color="#6456C0"/>
</linearGradient>
<linearGradient id="paint34_linear_10_6551" x1="-11058.6" y1="829.688" x2="-11136.1" y2="829.688" gradientUnits="userSpaceOnUse">
<stop stop-color="#0E1B6D"/>
<stop offset="1" stop-color="#002538"/>
</linearGradient>
<linearGradient id="paint35_linear_10_6551" x1="-18288.4" y1="549.303" x2="-18480.5" y2="549.303" gradientUnits="userSpaceOnUse">
<stop stop-color="#E1616A"/>
<stop offset="1" stop-color="#FF8883"/>
</linearGradient>
<linearGradient id="paint36_linear_10_6551" x1="-17154.1" y1="935.736" x2="-17153.5" y2="1021.63" gradientUnits="userSpaceOnUse">
<stop offset="0.02" stop-color="#FFA58B"/>
<stop offset="1" stop-color="#FF9595"/>
</linearGradient>
<linearGradient id="paint37_linear_10_6551" x1="-17819" y1="940.781" x2="-17818.4" y2="1026.67" gradientUnits="userSpaceOnUse">
<stop offset="0.02" stop-color="#FFA58B"/>
<stop offset="1" stop-color="#FF9595"/>
</linearGradient>
<linearGradient id="paint38_linear_10_6551" x1="4246.44" y1="2270.93" x2="3602.84" y2="2953.6" gradientUnits="userSpaceOnUse">
<stop stop-color="#9942B7"/>
<stop offset="1" stop-color="#6456D8"/>
</linearGradient>
<linearGradient id="paint39_linear_10_6551" x1="1678.01" y1="855.909" x2="1833.17" y2="1235.8" gradientUnits="userSpaceOnUse">
<stop stop-color="#CCEDFF"/>
<stop offset="1" stop-color="#9D68C2"/>
</linearGradient>
<linearGradient id="paint40_linear_10_6551" x1="-44533.6" y1="2425.58" x2="-44531.9" y2="2596.52" gradientUnits="userSpaceOnUse">
<stop offset="0.02" stop-color="#FFC2A9"/>
<stop offset="1" stop-color="#FF9595"/>
</linearGradient>
<linearGradient id="paint41_linear_10_6551" x1="-861.72" y1="2070.43" x2="-930.906" y2="2107.99" gradientUnits="userSpaceOnUse">
<stop stop-color="#CF6074"/>
<stop offset="1" stop-color="#FF817F"/>
</linearGradient>
<linearGradient id="paint42_linear_10_6551" x1="-289.04" y1="1088.03" x2="-313.151" y2="1104.66" gradientUnits="userSpaceOnUse">
<stop stop-color="#CF6074"/>
<stop offset="1" stop-color="#FF817F"/>
</linearGradient>
<linearGradient id="paint43_linear_10_6551" x1="41604.3" y1="22782.6" x2="42423.5" y2="30343.7" gradientUnits="userSpaceOnUse">
<stop stop-color="#9D68C2"/>
<stop offset="1" stop-color="#CCEDFF"/>
</linearGradient>
<linearGradient id="paint44_linear_10_6551" x1="1409.43" y1="9934.1" x2="4426.67" y2="9934.1" gradientUnits="userSpaceOnUse">
<stop offset="0.02" stop-color="#FFC2A9"/>
<stop offset="1" stop-color="#FF9595"/>
</linearGradient>
<linearGradient id="paint45_linear_10_6551" x1="1092.46" y1="7095.17" x2="882.552" y2="6872.15" gradientUnits="userSpaceOnUse">
<stop offset="0.02" stop-color="#FFA58B"/>
<stop offset="1" stop-color="#FF9595"/>
</linearGradient>
<linearGradient id="paint46_linear_10_6551" x1="1544.1" y1="14587.9" x2="7423.84" y2="14587.9" gradientUnits="userSpaceOnUse">
<stop offset="0.02" stop-color="#FFC2A9"/>
<stop offset="1" stop-color="#FF9595"/>
</linearGradient>
<linearGradient id="paint47_linear_10_6551" x1="2791.32" y1="7168.12" x2="2802.45" y2="6680.2" gradientUnits="userSpaceOnUse">
<stop offset="0.02" stop-color="#FFA58B"/>
<stop offset="1" stop-color="#FF9595"/>
</linearGradient>
<linearGradient id="paint48_linear_10_6551" x1="3517.65" y1="5620.41" x2="3630.36" y2="4825.44" gradientUnits="userSpaceOnUse">
<stop offset="0.02" stop-color="#FFA58B"/>
<stop offset="1" stop-color="#FF9595"/>
</linearGradient>
<linearGradient id="paint49_linear_10_6551" x1="1955.02" y1="5263.63" x2="1941" y2="5721" gradientUnits="userSpaceOnUse">
<stop stop-color="#FF817F"/>
<stop offset="1" stop-color="#CF6074"/>
</linearGradient>
<linearGradient id="paint50_linear_10_6551" x1="493.699" y1="4838.68" x2="663.743" y2="4878.53" gradientUnits="userSpaceOnUse">
<stop offset="0.02" stop-color="#FFA58B"/>
<stop offset="1" stop-color="#FF9595"/>
</linearGradient>
<linearGradient id="paint51_linear_10_6551" x1="126.57" y1="1563.83" x2="131.865" y2="1564.36" gradientUnits="userSpaceOnUse">
<stop offset="0.02" stop-color="#FFA58B"/>
<stop offset="1" stop-color="#FF9595"/>
</linearGradient>
<linearGradient id="paint52_linear_10_6551" x1="78.0031" y1="1337.53" x2="79.7664" y2="1337.63" gradientUnits="userSpaceOnUse">
<stop offset="0.02" stop-color="#FFA58B"/>
<stop offset="1" stop-color="#FF9595"/>
</linearGradient>
<linearGradient id="paint53_linear_10_6551" x1="203.593" y1="2218.09" x2="220.021" y2="2220.15" gradientUnits="userSpaceOnUse">
<stop offset="0.02" stop-color="#FFA58B"/>
<stop offset="1" stop-color="#FF9595"/>
</linearGradient>
<linearGradient id="paint54_linear_10_6551" x1="-64834.3" y1="9934.1" x2="-67852.1" y2="9934.1" gradientUnits="userSpaceOnUse">
<stop offset="0.02" stop-color="#FFC2A9"/>
<stop offset="1" stop-color="#FF9595"/>
</linearGradient>
<linearGradient id="paint55_linear_10_6551" x1="-29170.9" y1="7095.17" x2="-28961.1" y2="6872.1" gradientUnits="userSpaceOnUse">
<stop offset="0.02" stop-color="#FFA58B"/>
<stop offset="1" stop-color="#FF9595"/>
</linearGradient>
<linearGradient id="paint56_linear_10_6551" x1="-90430.3" y1="14587.9" x2="-96309.5" y2="14587.9" gradientUnits="userSpaceOnUse">
<stop offset="0.02" stop-color="#FFC2A9"/>
<stop offset="1" stop-color="#FF9595"/>
</linearGradient>
<linearGradient id="paint57_linear_10_6551" x1="-56715.8" y1="7168.12" x2="-56726.9" y2="6680.21" gradientUnits="userSpaceOnUse">
<stop offset="0.02" stop-color="#FFA58B"/>
<stop offset="1" stop-color="#FF9595"/>
</linearGradient>
<linearGradient id="paint58_linear_10_6551" x1="-83814.9" y1="5620.41" x2="-83927.7" y2="4825.3" gradientUnits="userSpaceOnUse">
<stop offset="0.02" stop-color="#FFA58B"/>
<stop offset="1" stop-color="#FF9595"/>
</linearGradient>
<linearGradient id="paint59_linear_10_6551" x1="8800.82" y1="5461.24" x2="8786.87" y2="5918.48" gradientUnits="userSpaceOnUse">
<stop stop-color="#FF817F"/>
<stop offset="1" stop-color="#CF6074"/>
</linearGradient>
<linearGradient id="paint60_linear_10_6551" x1="-17426.4" y1="4827.88" x2="-17596.4" y2="4867.85" gradientUnits="userSpaceOnUse">
<stop offset="0.02" stop-color="#FFA58B"/>
<stop offset="1" stop-color="#FF9595"/>
</linearGradient>
<linearGradient id="paint61_linear_10_6551" x1="-1526.04" y1="1563.83" x2="-1531.36" y2="1564.37" gradientUnits="userSpaceOnUse">
<stop offset="0.02" stop-color="#FFA58B"/>
<stop offset="1" stop-color="#FF9595"/>
</linearGradient>
<linearGradient id="paint62_linear_10_6551" x1="-365.138" y1="1337.53" x2="-366.881" y2="1337.63" gradientUnits="userSpaceOnUse">
<stop offset="0.02" stop-color="#FFA58B"/>
<stop offset="1" stop-color="#FF9595"/>
</linearGradient>
<linearGradient id="paint63_linear_10_6551" x1="-3357.67" y1="2218.09" x2="-3374.04" y2="2220.13" gradientUnits="userSpaceOnUse">
<stop offset="0.02" stop-color="#FFA58B"/>
<stop offset="1" stop-color="#FF9595"/>
</linearGradient>
</defs>
</svg>
