<svg width="259" height="228" viewBox="0 0 259 228" fill="none" xmlns="http://www.w3.org/2000/svg">
<path d="M178.936 66.3097C161.165 46.6151 140.349 41.5374 134.842 40.4998C138.55 28.6778 144.276 11.1038 145.703 8.50332C146.627 8.36618 147.558 8.30336 148.489 8.31527C152.531 8.31527 161.181 9.30746 173.72 15.9674C191.694 25.5262 196.608 36.4014 197.579 39.0537L178.936 66.3097Z" fill="white"/>
<path d="M148.489 9.61229C152.444 9.61229 160.918 10.5915 173.248 17.1477C189.604 25.8829 194.886 35.6102 196.279 38.8527L178.821 64.4097C170.191 55.2227 160.113 48.1399 149.164 43.5672C144.988 41.8097 140.699 40.45 136.34 39.5012C140.432 26.4925 144.891 13.0947 146.388 9.74846C146.871 9.69658 147.573 9.64471 148.489 9.64471V9.61229ZM148.489 7.05075C147.375 7.02312 146.26 7.11428 145.16 7.32312C143.871 7.82894 133.345 41.5893 133.345 41.5893C133.345 41.5893 158.334 44.6048 179.046 68.2552L198.792 39.3196C198.792 39.3196 195.501 26.1812 174.109 14.8197C161.593 8.15318 152.866 7.03778 148.451 7.03778L148.489 7.05075Z" fill="#E4E4E6"/>
<path d="M137.014 44.1833C137.014 44.1833 161.587 47.1145 176.731 63.5473" stroke="#2B231E" stroke-linecap="round" stroke-linejoin="round"/>
<path d="M158.236 42.7631L167.401 21.6872L176.824 43.6645L158.236 42.7631Z" fill="#E4E4E6"/>
<path d="M160.018 42.4647L169.183 21.3888L178.607 43.3661L160.018 42.4647Z" stroke="#2B231E" stroke-linecap="round" stroke-linejoin="round"/>
<path d="M151.412 5.73431C151.412 5.73431 178.963 8.67198 196.087 32.7374" stroke="#2B231E" stroke-linecap="round" stroke-linejoin="round"/>
<path d="M165.487 99.1623C163.973 97.8653 162.98 96.9639 162.98 96.9639C163.403 96.3154 170.034 87.9499 173.868 81.225C173.868 81.1926 166.107 99.6681 165.487 99.1623Z" fill="#2B231E"/>
<path d="M71.5405 38.2561C72.2755 39.7087 72.6046 39.1316 74.7383 38.9046C76.8719 38.6776 79.9051 40.5518 80.9747 43.658C82.0442 46.7643 81.7097 47.2442 81.1392 47.6333C80.5688 48.0224 76.4605 48.606 76.296 49.5787" stroke="#2B231E" stroke-linecap="round" stroke-linejoin="round"/>
<path d="M126.813 196.137L124.898 192.318L118.119 205.683L119.896 207.298L126.813 196.137Z" fill="#FDD2C2"/>
<path d="M81.7859 163C81.7859 163 78.2755 156.249 79.7784 152.935L90.9897 154.355L81.7859 163Z" fill="#FDD2C2"/>
<path d="M81.7863 163L82.4609 164.822L80.3821 174.387C80.2554 174.977 80.2698 175.597 80.4238 176.177C80.5778 176.758 80.8653 177.276 81.2542 177.675L91.5057 159.757C91.9778 158.933 92.1848 157.937 92.0892 156.949C91.9936 155.96 91.6018 155.045 90.9846 154.368L88.6974 151.852L81.7863 163Z" fill="black"/>
<path d="M76.3013 49.6047C79.51 49.5139 83.5799 49.274 82.7681 46.3623C81.9563 43.4505 78.9012 36.2653 71.9847 38.4247C71.9847 38.4247 69.5438 40.8306 72.599 45.1625C75.6541 49.4945 76.3013 49.6047 76.3013 49.6047Z" fill="#2B2336"/>
<path d="M92.5478 154.511C92.5478 154.511 87.0628 135.387 91.7031 126.983C95.5426 120.057 108.032 131.327 109.749 132.819L118.695 113.721C118.695 113.721 116.627 110.297 111.564 106.944C106.502 103.592 85.5435 93.5529 75.7035 111.918C72.0614 118.701 72.0066 147.825 78.9944 158.986L92.5478 154.511Z" fill="#FEBB00"/>
<path d="M92.5478 154.511C92.5478 154.511 87.0629 135.387 91.7031 126.982C95.5426 120.057 108.032 131.327 109.749 132.819" stroke="#2B231E" stroke-linecap="round" stroke-linejoin="round"/>
<path d="M118.695 113.747C114.625 118.812 102.558 143.48 99.8482 155.25C96.2171 171.021 97.5829 184.095 117.526 209.723L127.169 193.122C127.169 193.122 120.389 180.95 121.656 169.478C123.483 152.89 133.471 136.794 138.528 126.593L118.695 113.747Z" fill="#FEBB00"/>
<path d="M120.225 115.887L136.257 130.77L141.051 122.151L120.225 115.887Z" fill="#2B231E"/>
<path d="M212.329 100.245C214.83 100.872 216.735 101.998 218.044 103.624C219.355 105.239 218.757 106.088 218.28 106.581C217.803 107.074 215.96 106.51 214.353 104.817C212.745 103.125 212.329 100.245 212.329 100.245Z" fill="#FDD2C2"/>
<path d="M162.964 96.9315C163.386 96.283 170.018 87.9175 173.852 81.1926C173.852 81.1926 185.458 96.5618 186.714 97.0547C187.185 97.2428 190.005 97.1974 193.559 97.152C199.532 97.0806 207.463 97.0093 209.224 98.0469C212.016 99.7005 213.694 100.531 214.396 102.839C215.098 105.148 215.367 106.665 213.694 106.808C211.736 106.977 210.48 104 210.48 104C208.64 105.172 206.723 106.168 204.748 106.977C204.748 106.977 189.895 113.799 179.967 110.498C177.225 109.596 162.964 96.9315 162.964 96.9315Z" fill="#FDD2C2"/>
<path d="M72.8512 35.539C71.5732 36.1162 70.7998 36.836 71.5403 38.2562C72.2808 39.6764 72.6044 39.1317 74.738 38.9047C76.8717 38.6777 79.9049 40.5519 80.9744 43.6581C82.044 46.7644 81.7094 47.2443 81.139 47.6334C80.5685 48.0225 76.4603 48.6061 76.2957 49.5788C76.1312 50.5516 77.9412 53.4114 81.7313 53.2169L82.6364 53.0223C82.6364 53.0223 90.5621 62.1984 91.7195 63.5732C92.8768 64.948 101.313 71.6923 105.98 73.0671C109.513 74.1112 116.671 72.7623 120.976 71.7702C123.066 71.2903 124.481 70.8947 124.481 70.8947C124.481 70.8947 121.251 64.0142 120.598 53.4438C120.598 53.4438 112.87 54.9094 107.736 56.2388C107.736 56.2388 95.7564 48.3467 89.9314 44.8513C89.9314 44.8513 84.8468 37.478 82.4663 36.5118C80.0859 35.5455 74.5735 34.7608 72.8512 35.539Z" fill="#FDD2C2"/>
<path d="M120.96 71.77C123.05 71.2901 124.465 70.8946 124.465 70.8946C124.465 70.8946 120.56 65.0581 119.901 54.5007C119.901 54.5007 118.135 56.7445 118.684 62.7366C119.375 70.259 120.96 71.77 120.96 71.77Z" fill="#2B231E"/>
<path d="M119.715 53.314C119.715 53.314 119.825 66.2319 122.748 71.6274L123.801 71.128C123.801 71.128 110.001 90.2131 105.542 102.684C104.812 104.72 134.184 126.911 138.528 126.6C138.528 126.6 152.839 100.771 157.726 93.1118L162.986 97.9366C162.986 97.9366 173.303 85.5764 173.857 81.1926C173.857 81.1926 163.891 66.848 155.757 62.6523C147.622 58.4565 140.311 51.2583 131.551 51.4528C123.966 51.6279 119.715 53.314 119.715 53.314Z" fill="#9E4A9E"/>
<path d="M162.997 97.9365L157.737 93.1118L158.576 90.4141L162.997 97.9365Z" fill="#2B231E"/>
<path d="M170.999 46.8421C170.078 50.2272 167.418 60.0259 164.45 61.2386C161.483 62.4513 158.417 60.9273 158.417 60.9273L155.258 62.8728C154.901 64.1244 152.405 65.2008 149.186 65.35C146.8 65.4602 145.346 61.8352 146.054 59.2153C146.377 58.0091 147.59 52.0819 147.59 52.0819C147.59 52.0819 150.146 40.9538 152.526 38.6582C154.907 36.3625 157.09 34.0798 163.37 37.0823C172.947 41.6412 170.999 46.8421 170.999 46.8421Z" fill="#FDD2C2"/>
<path d="M151.934 47.322C151.511 49.4037 149.679 53.567 148.484 52.8147C147.288 52.0625 146.838 50.1559 147.71 46.492C148.582 42.828 149.251 34.5144 151.648 33.0163C154.045 31.5183 155.098 33.2628 155.098 33.2628C155.098 33.2628 154.045 27.1929 157.139 26.3564C157.139 26.3564 158.197 25.7727 157.775 29.936C158.184 28.7935 158.905 27.8455 159.822 27.2428C160.74 26.64 161.801 26.417 162.838 26.6093C166.71 27.1086 168.048 33.5157 168.048 33.5157C168.158 32.9852 168.423 32.5178 168.797 32.1971C169.17 31.8763 169.628 31.7231 170.089 31.7648C171.85 31.7648 174.521 34.8451 173.89 38.2497C173.89 38.2497 178.393 36.583 180.785 40.8436C183.176 45.1042 182.896 49.7409 177.126 51.5761C171.093 53.4892 171.142 45.1691 170.226 44.0861C169.31 43.0031 168.328 41.758 164.949 43.256C161.571 44.754 158.055 40.3443 158.055 40.3443C158.055 40.3443 157.506 45.6684 156.93 46.1807C156.354 46.693 155.241 47.3415 155.521 44.8513C155.801 42.3611 156.152 42.601 155.943 41.9331C155.735 41.2651 154.78 39.1705 152.778 41.0187C150.524 43.0809 151.934 47.322 151.934 47.322Z" fill="#2B2336"/>
<path d="M152.888 48.2559C151.55 46.9265 150.617 44.5725 151.791 42.2249C152.965 39.8774 154.906 39.5596 155.499 40.4481C156.091 41.3365 156.316 42.8345 155.762 44.6114" stroke="#2B2336" stroke-linecap="round" stroke-linejoin="round"/>
<path d="M119.896 207.298L120.571 209.127L118.497 218.672C118.367 219.262 118.379 219.883 118.533 220.465C118.688 221.046 118.977 221.565 119.369 221.96L129.621 204.043C130.094 203.219 130.302 202.223 130.206 201.234C130.111 200.245 129.718 199.329 129.1 198.654L126.813 196.137L119.896 207.298Z" fill="black"/>
<path d="M155.098 33.2628C155.098 33.2628 154.314 30.2473 151.961 29.4497" stroke="#2B2336" stroke-linecap="round" stroke-linejoin="round"/>
<path d="M105.218 101.769L133.619 54.8639" stroke="#2B231E" stroke-linecap="round" stroke-linejoin="round"/>
<path d="M145.33 58.1453C144.304 59.7146 143.838 66.4848 148.544 66.9258C151.231 67.2434 153.934 66.5416 156.261 64.922" stroke="#2B231E" stroke-linecap="round" stroke-linejoin="round"/>
<path d="M82.45 36.5116C82.45 36.5116 85.697 41.5893 86.2071 43.3986" stroke="#2B231E" stroke-linecap="round" stroke-linejoin="round"/>
<path d="M204.008 104.623C204.008 104.623 206.202 106.73 210.497 103.974C212.065 102.982 210.946 100.641 208.966 101.224C207.521 101.531 206.034 101.431 204.628 100.933" stroke="#2B231E" stroke-linecap="round" stroke-linejoin="round"/>
<path d="M213.069 100.537C213.069 100.537 215.153 103.41 215.093 105.115" stroke="#2B231E" stroke-linecap="round" stroke-linejoin="round"/>
<path d="M182.446 100.226C182.446 100.226 184.328 97.2622 186.73 97.0547" stroke="#2B231E" stroke-linecap="round" stroke-linejoin="round"/>
<path d="M103.101 61.0311C103.101 61.0311 104.198 56.9845 107.719 56.2388" stroke="#2B231E" stroke-linecap="round" stroke-linejoin="round"/>
<path d="M112.639 122.424L108.443 131.924C108.443 131.924 94.5991 159.621 99.2943 177.519" stroke="#2B231E" stroke-linecap="round" stroke-linejoin="round"/>
<path d="M124.904 154.206L138.528 126.6C138.528 126.6 156.382 95.9846 158.208 91.6657L164.511 77.8788" stroke="#2B231E" stroke-linecap="round" stroke-linejoin="round"/>
<path d="M107.121 104.713C107.121 104.713 131.343 125.595 138.528 126.6" stroke="#2B231E" stroke-linecap="round" stroke-linejoin="round"/>
<path d="M119.715 53.314C119.715 53.314 119.715 66.4199 122.682 71.7894" stroke="#2B231E" stroke-linecap="round" stroke-linejoin="round"/>
<path d="M173.094 79.111C172.332 84.5129 162.218 95.855 162.218 95.855" stroke="#2B231E" stroke-linecap="round" stroke-linejoin="round"/>
<path d="M97.6434 146.379C98.437 146.379 99.0804 145.618 99.0804 144.68C99.0804 143.741 98.437 142.981 97.6434 142.981C96.8497 142.981 96.2063 143.741 96.2063 144.68C96.2063 145.618 96.8497 146.379 97.6434 146.379Z" fill="#2B231E"/>
<path d="M232.596 181.222L231.8 174.718L236.49 178.408L234.038 179.037L232.596 181.222Z" stroke="#2B231E" stroke-linecap="round" stroke-linejoin="round"/>
<path d="M76.9649 70.1748C68.0682 60.9014 53.3795 84.033 107.132 157.663C138.15 200.132 162.53 203.945 165.821 189.166C171.745 162.656 150.354 155.957 158.312 166.339C169.886 181.436 202.806 184.627 227.335 170.535C251.54 156.638 236.66 135.043 235.162 133.785" stroke="#2B231E" stroke-linecap="round" stroke-linejoin="round"/>
<path d="M227.741 172.104C228.535 172.104 229.178 171.344 229.178 170.405C229.178 169.467 228.535 168.706 227.741 168.706C226.947 168.706 226.304 169.467 226.304 170.405C226.304 171.344 226.947 172.104 227.741 172.104Z" fill="#2B231E"/>
<path d="M206.811 184.283L249.445 155.873" stroke="#2B231E" stroke-linecap="round" stroke-linejoin="round"/>
<path d="M77.848 73.2485C78.6416 73.2485 79.285 72.4879 79.285 71.5495C79.285 70.6111 78.6416 69.8505 77.848 69.8505C77.0543 69.8505 76.4109 70.6111 76.4109 71.5495C76.4109 72.4879 77.0543 73.2485 77.848 73.2485Z" fill="#2B231E"/>
<path d="M114.526 40.0913C116.232 40.0913 117.614 38.4567 117.614 36.4403C117.614 34.4239 116.232 32.7893 114.526 32.7893C112.821 32.7893 111.438 34.4239 111.438 36.4403C111.438 38.4567 112.821 40.0913 114.526 40.0913Z" fill="#E06D66"/>
<path d="M58.5298 8.6136C58.2603 8.61232 57.9966 8.70571 57.772 8.88194C57.5475 9.05816 57.3723 9.30927 57.2687 9.6034C57.165 9.89754 57.1376 10.2214 57.1899 10.534C57.2422 10.8466 57.3719 11.1337 57.5625 11.3591C57.753 11.5844 57.9959 11.7377 58.2603 11.7995C58.5247 11.8614 58.7986 11.829 59.0474 11.7064C59.2962 11.5839 59.5086 11.3768 59.6576 11.1113C59.8067 10.8458 59.8857 10.534 59.8846 10.2154C59.8846 9.79055 59.7419 9.38314 59.4878 9.08275C59.2337 8.78236 58.8891 8.6136 58.5298 8.6136Z" fill="#E4E4E6"/>
<path d="M240.302 207.817C241.05 207.817 241.657 207.1 241.657 206.215C241.657 205.33 241.05 204.613 240.302 204.613C239.554 204.613 238.947 205.33 238.947 206.215C238.947 207.1 239.554 207.817 240.302 207.817Z" fill="#9E4A9E"/>
<path d="M216.064 133.779L201.479 125.686C201.218 125.54 200.998 125.308 200.845 125.018C200.691 124.729 200.612 124.393 200.615 124.052C200.619 123.71 200.705 123.377 200.864 123.092C201.023 122.807 201.248 122.582 201.512 122.443L228.646 108.325C228.837 108.229 229.042 108.179 229.249 108.179C229.457 108.179 229.662 108.229 229.853 108.325L248.502 117.787L216.064 133.779Z" fill="#2B2336"/>
<path d="M215.159 107.184C215.197 114.317 216.064 133.772 216.064 133.772L248.485 117.761L247.761 90.6799C247.75 90.2972 247.658 89.9237 247.496 89.5925C247.333 89.2612 247.104 88.9824 246.829 88.7805C246.553 88.5787 246.24 88.46 245.917 88.435C245.594 88.41 245.27 88.4794 244.975 88.6372L217.056 103.702C216.49 104.004 216.009 104.494 215.673 105.112C215.336 105.729 215.158 106.449 215.159 107.184Z" fill="#E4E4E5"/>
<path d="M216.064 133.779L248.485 117.767L247.761 90.6865C247.761 90.6865 247.542 87.7358 244.975 88.6437" stroke="#2B231E" stroke-linecap="round" stroke-linejoin="round"/>
<path d="M231.756 114.318L233.945 108.202" stroke="#2B231E" stroke-linecap="round" stroke-linejoin="round"/>
<path d="M233.945 114.318L236.133 108.202" stroke="#2B231E" stroke-linecap="round" stroke-linejoin="round"/>
<path d="M64.377 181.047C65.1252 181.047 65.7318 180.33 65.7318 179.445C65.7318 178.561 65.1252 177.844 64.377 177.844C63.6288 177.844 63.0222 178.561 63.0222 179.445C63.0222 180.33 63.6288 181.047 64.377 181.047Z" fill="#E06D66"/>
<path d="M178.755 189.62C179.797 189.62 180.642 188.621 180.642 187.389C180.642 186.157 179.797 185.158 178.755 185.158C177.713 185.158 176.868 186.157 176.868 187.389C176.868 188.621 177.713 189.62 178.755 189.62Z" fill="#E06D66"/>
<path d="M78.4348 203.225C83.806 206.142 89.6541 207.625 95.5644 207.57C95.6741 207.569 95.7827 207.596 95.883 207.649C95.9832 207.701 96.0727 207.779 96.1455 207.876C96.2183 207.973 96.2726 208.088 96.3048 208.212C96.337 208.336 96.3464 208.466 96.3323 208.595L95.1475 219.704C95.1287 219.897 95.0577 220.077 94.945 220.219C94.8324 220.36 94.6841 220.455 94.5222 220.488C92.1253 221.02 82.4553 222.589 75.2042 215.333C75.0949 215.22 75.0147 215.073 74.973 214.909C74.9312 214.745 74.9296 214.57 74.9683 214.405L77.3598 203.816C77.3883 203.686 77.4407 203.565 77.5133 203.462C77.5859 203.36 77.6768 203.277 77.7796 203.221C77.8823 203.164 77.9944 203.135 78.1076 203.136C78.2209 203.137 78.3327 203.168 78.4348 203.225Z" fill="#9E4A9E"/>
<path d="M79.2849 206.494C79.2849 206.494 83.4699 213.439 84.9618 214.431C86.4538 215.424 94.5002 209.756 94.5002 209.756" stroke="#2B231E" stroke-linecap="round" stroke-linejoin="round"/>
<path d="M88.9055 213.465L93.2935 218.802" stroke="#2B231E" stroke-linecap="round" stroke-linejoin="round"/>
<path d="M82.8008 212.434L77.6614 214.088" stroke="#2B231E" stroke-linecap="round" stroke-linejoin="round"/>
<path d="M212.954 71.8479H208.045V77.6519H212.954V71.8479Z" fill="#FEBB00"/>
<path d="M208.709 150.114L210.168 153.104L211.627 156.093H208.709H205.791L207.25 153.104L208.709 150.114Z" fill="#E4E4E6"/>
<path d="M90.7541 17.7768L91.1326 4.21038C91.0942 2.9134 91.5275 2.54376 92.1912 2.36866C95.3066 1.55805 104.779 -0.938632 115.08 2.66049C116.413 3.1274 116.369 3.95747 116.347 4.70972L115.979 17.6341C115.953 17.8766 115.883 18.1098 115.776 18.3186C115.668 18.5274 115.525 18.7073 115.355 18.8465C115.185 18.9858 114.992 19.0815 114.789 19.1273C114.585 19.1732 114.376 19.1682 114.175 19.1127C110.441 18.584 106.68 18.3673 102.92 18.4642C99.3034 18.4462 95.6923 18.7912 92.1254 19.4953C91.1106 19.7352 90.7212 18.8338 90.7541 17.7768Z" stroke="#2B231E" stroke-linecap="round" stroke-linejoin="round"/>
<path d="M94.2207 15.7924L100.216 7.49176L106.853 15.2347C104.565 14.3593 94.2207 15.7924 94.2207 15.7924Z" stroke="#2B231E" stroke-linecap="round" stroke-linejoin="round"/>
<path d="M103.89 11.3307L108.739 6.74591L112.825 10.1959L112.979 15.5848L106.852 15.2346" stroke="#2B231E" stroke-linecap="round" stroke-linejoin="round"/>
<path d="M96.8232 6.8763C96.879 6.22421 96.3988 5.63282 95.7508 5.5554C95.1029 5.47799 94.5324 5.94386 94.4766 6.59596C94.4209 7.24805 94.901 7.83943 95.549 7.91684C96.197 7.99426 96.7675 7.5284 96.8232 6.8763Z" stroke="#2B231E" stroke-linecap="round" stroke-linejoin="round"/>
<path d="M206.701 193.971L210.727 202.752C211.149 203.537 210.995 203.984 210.633 204.386C208.911 206.273 203.678 212.019 196 214.263C195.012 214.548 194.776 214.003 194.551 213.517L190.712 205.145C190.654 204.979 190.626 204.801 190.629 204.622C190.632 204.442 190.667 204.265 190.731 204.103C190.795 203.94 190.886 203.795 191 203.676C191.114 203.557 191.248 203.468 191.392 203.413C193.93 202.108 196.386 200.591 198.742 198.874C201.045 197.299 203.231 195.494 205.275 193.479C205.861 192.882 206.388 193.284 206.701 193.971Z" stroke="#2B231E" stroke-linecap="round" stroke-linejoin="round"/>
<path d="M205.121 196.754L203.925 204.659L197.272 202.655C199.005 202.214 205.121 196.754 205.121 196.754Z" stroke="#2B231E" stroke-linecap="round" stroke-linejoin="round"/>
<path d="M200.382 203.835L198.742 208.88L195.067 208.485L193.274 205.126L197.272 202.655" stroke="#2B231E" stroke-linecap="round" stroke-linejoin="round"/>
<path d="M208.509 202.944C208.944 202.706 209.159 202.16 208.989 201.723C208.818 201.286 208.327 201.125 207.891 201.362C207.456 201.6 207.241 202.147 207.411 202.583C207.582 203.02 208.073 203.182 208.509 202.944Z" stroke="#2B231E" stroke-width="1.00225" stroke-linecap="round" stroke-linejoin="round"/>
<path d="M187.098 44.0406L203.443 58.8262C203.528 58.9028 203.625 58.9588 203.729 58.9908C203.832 59.0229 203.94 59.0303 204.046 59.0129C204.152 58.9954 204.254 58.9533 204.347 58.889C204.439 58.8247 204.519 58.7394 204.584 58.6381L207.046 54.6824C207.168 54.486 207.222 54.2416 207.195 54.0001C207.168 53.7585 207.064 53.5384 206.904 53.3854L190.816 38.1394C190.73 38.0595 190.631 38.0009 190.526 37.9671C190.42 37.9332 190.31 37.9248 190.201 37.9424C190.093 37.9599 189.989 38.0031 189.894 38.0692C189.8 38.1353 189.718 38.2232 189.654 38.3274L186.955 42.7437C186.837 42.9416 186.786 43.1848 186.812 43.425C186.839 43.6652 186.941 43.8849 187.098 44.0406Z" fill="white" stroke="#2B231E" stroke-linecap="round" stroke-linejoin="round"/>
<path d="M188.332 43.3922L192.292 46.6801L194.634 43.3793L190.668 39.4689L188.332 43.3922Z" fill="#E06D66"/>
<path d="M193.784 47.9639L197.755 51.6863L199.883 48.5865L195.884 44.7539L193.784 47.9639Z" fill="#9E4A9E"/>
<path d="M199.088 53.1129L203.053 56.4008L204.94 53.5344L201.188 49.8186L199.088 53.1129Z" fill="#E4E4E6"/>
<path d="M219.728 23.3733L223.452 60.3761C223.469 60.5709 223.52 60.7596 223.6 60.931C223.681 61.1024 223.789 61.253 223.919 61.3739C224.05 61.4948 224.199 61.5836 224.359 61.635C224.519 61.6864 224.686 61.6993 224.851 61.6731L231.153 60.6485C231.47 60.5982 231.758 60.4045 231.956 60.1081C232.155 59.8118 232.248 59.4359 232.217 59.0597L229.162 21.8753C229.144 21.6792 229.093 21.4893 229.012 21.3169C228.931 21.1446 228.822 20.9933 228.69 20.8723C228.559 20.7512 228.408 20.6627 228.247 20.6122C228.085 20.5617 227.917 20.5502 227.752 20.5783L220.775 21.7845C220.461 21.8393 220.177 22.035 219.982 22.3308C219.787 22.6267 219.696 23 219.728 23.3733Z" fill="white" stroke="#2B231E" stroke-linecap="round" stroke-linejoin="round"/>
<path d="M221.631 24.2422L222.816 32.8931L228.372 32.4067L227.769 23.0879L221.631 24.2422Z" fill="#E06D66"/>
<path d="M223.216 36.2004L224.001 45.3246L229.146 44.7799L228.433 35.5065L223.216 36.2004Z" fill="#FEBB00"/>
<path d="M224.099 48.5866L225.278 57.2374L229.957 56.6279L229.392 47.7889L224.099 48.5866Z" fill="#9E4A9E"/>
<path d="M211.599 31.2524L221.911 67.0944C221.953 67.2407 222.02 67.3755 222.107 67.4911C222.194 67.6066 222.299 67.7006 222.417 67.7676C222.535 67.8346 222.663 67.8732 222.793 67.8812C222.924 67.8892 223.055 67.8665 223.178 67.8143L229.634 65.0647C229.873 64.9629 230.07 64.7557 230.184 64.4862C230.297 64.2168 230.318 63.9059 230.242 63.6185L220.556 27.4263C220.516 27.2763 220.451 27.1374 220.364 27.0182C220.277 26.8989 220.171 26.8018 220.051 26.7326C219.932 26.6635 219.801 26.6238 219.669 26.6159C219.536 26.6081 219.403 26.6323 219.278 26.687L212.191 29.7738C211.948 29.8779 211.748 30.0918 211.637 30.3688C211.526 30.6458 211.513 30.9634 211.599 31.2524Z" fill="white" stroke="#2B231E" stroke-linecap="round" stroke-linejoin="round"/>
<path d="M213.694 31.9073L216.371 40.0848L221.724 38.2366L219.492 29.2679L213.694 31.9073Z" fill="#E4E4E6"/>
<path d="M217.347 43.217L219.717 51.9457L224.653 50.1494L222.328 41.2521L217.347 43.217Z" fill="#FDD2C2"/>
<path d="M220.386 55.1103L223.062 63.2878L227.527 61.5369L225.426 53.0287L220.386 55.1103Z" fill="#9E4A9E"/>
<path d="M133.882 76.5234H81.8026C80.1426 76.5234 78.7969 78.1145 78.7969 80.0772V88.4103C78.7969 90.3729 80.1426 91.964 81.8026 91.964H133.882C135.542 91.964 136.888 90.3729 136.888 88.4103V80.0772C136.888 78.1145 135.542 76.5234 133.882 76.5234Z" fill="#FEBB00"/>
<path d="M114.367 81.0695H85.9769C85.4286 81.0695 84.9841 81.595 84.9841 82.2432C84.9841 82.8915 85.4286 83.417 85.9769 83.417H114.367C114.915 83.417 115.36 82.8915 115.36 82.2432C115.36 81.595 114.915 81.0695 114.367 81.0695Z" fill="white"/>
<path d="M85.269 86.4648H133.531" stroke="#2B231E" stroke-linecap="round" stroke-linejoin="round"/>
<path d="M60.5798 47.4789L61.4011 48.5418C61.5678 48.7577 61.6553 49.0431 61.6441 49.3352C61.6329 49.6272 61.5241 49.9021 61.3415 50.0993L59.997 51.5514C59.8144 51.7485 59.573 51.8519 59.3259 51.8387C59.0789 51.8255 58.8464 51.6968 58.6796 51.4809L57.8584 50.418L60.5798 47.4789Z" fill="#FEBB00"/>
<path d="M53.1853 45.4016L57.0584 50.4147C57.2586 50.6738 57.5986 50.692 57.8178 50.4553L60.4947 47.5643C60.7139 47.3276 60.7292 46.9256 60.529 46.6665L56.6559 41.6534C56.4557 41.3943 56.1157 41.3761 55.8965 41.6128L53.2196 44.5038C53.0004 44.7405 52.9851 45.1425 53.1853 45.4016Z" stroke="#2B231E" stroke-linecap="round" stroke-linejoin="round"/>
<path d="M49.1342 68.1838H44.269V73.4366H49.1342V68.1838Z" fill="#E06D66"/>
<path d="M44.2688 64.8053V68.1839H41.3618" stroke="#2B231E" stroke-linecap="round" stroke-linejoin="round"/>
<path d="M209.432 8.86652H204.567V14.1193H209.432V8.86652Z" fill="#9E4A9E"/>
<path d="M204.567 5.48785V8.86648H201.66" stroke="#2B231E" stroke-linecap="round" stroke-linejoin="round"/>
<path d="M72.8841 41.3364C22.4389 16.616 -16.3947 64.2281 78.6927 137.131C86.1797 142.87 97.6597 144.913 97.6597 144.913" stroke="#2B231E" stroke-linecap="round" stroke-linejoin="round"/>
<path d="M26.4869 44.6956C27.2805 44.6956 27.9239 43.9349 27.9239 42.9965C27.9239 42.0582 27.2805 41.2975 26.4869 41.2975C25.6932 41.2975 25.0498 42.0582 25.0498 42.9965C25.0498 43.9349 25.6932 44.6956 26.4869 44.6956Z" fill="#2B231E"/>
<path d="M17.3376 33.6647L18.9118 31.8749L22.5264 34.3262L24.3474 40.9602L18.7912 38.2106L17.3376 33.6647Z" stroke="#2B231E" stroke-linecap="round" stroke-linejoin="round"/>
<path d="M18.9121 31.875L17.3379 33.6648L16.4548 32.4002L17.9632 30.6882L18.9121 31.875Z" stroke="#2B231E" stroke-linecap="round" stroke-linejoin="round"/>
<path d="M24.3475 40.9602L20.7329 36.2651" stroke="#2B231E" stroke-linecap="round" stroke-linejoin="round"/>
<path d="M33.0907 160.01L37.0124 183.894C37.0327 184.018 37.0737 184.137 37.1332 184.242C37.1926 184.348 37.2693 184.438 37.3587 184.508C37.4481 184.578 37.5484 184.627 37.6537 184.65C37.7591 184.674 37.8674 184.673 37.9723 184.646L42.0366 183.628C42.2408 183.576 42.4203 183.434 42.5378 183.229C42.6552 183.025 42.7017 182.776 42.6674 182.532L39.1735 158.486C39.1553 158.359 39.1153 158.237 39.0559 158.128C38.9965 158.02 38.9189 157.927 38.828 157.855C38.737 157.784 38.6346 157.735 38.5271 157.712C38.4195 157.688 38.3091 157.692 38.2026 157.721L33.7105 158.895C33.5049 158.949 33.3254 159.096 33.2097 159.304C33.0941 159.512 33.0514 159.765 33.0907 160.01Z" fill="white" stroke="#2B231E" stroke-linecap="round" stroke-linejoin="round"/>
<path d="M34.3687 160.464L35.4821 166.035L39.0857 165.406L38.3178 159.368L34.3687 160.464Z" fill="#E06D66"/>
<path d="M35.8826 168.168L36.7602 174.063L40.0841 173.421L39.2503 167.416L35.8826 168.168Z" fill="#9E4A9E"/>
<path d="M36.9519 176.183L38.0708 181.754L41.0931 181.086L40.3745 175.36L36.9519 176.183Z" fill="#E4E4E6"/>
<path d="M145.357 219.872L161.927 214.632L162.563 216.753L145.807 221.895L145.357 219.872Z" stroke="#2B231E" stroke-linecap="round" stroke-linejoin="round"/>
<path d="M143.059 217.136L143.541 218.912" stroke="#2B231E" stroke-linecap="round" stroke-linejoin="round"/>
<path d="M142.593 218.296L143.991 217.726" stroke="#2B231E" stroke-linecap="round" stroke-linejoin="round"/>
<path d="M142.258 223.925L143.157 227.284" stroke="#2B231E" stroke-linecap="round" stroke-linejoin="round"/>
<path d="M141.49 226.052L143.98 225.118" stroke="#2B231E" stroke-linecap="round" stroke-linejoin="round"/>
<path d="M138.468 218.387L139.647 222.836" stroke="#2B231E" stroke-linecap="round" stroke-linejoin="round"/>
<path d="M137.3 221.156L140.788 219.84" stroke="#2B231E" stroke-linecap="round" stroke-linejoin="round"/>
<path d="M61.5809 86.1213C54.1927 79.8309 46.9306 70.0582 50.1174 60.0131C50.1174 60.0131 55.2129 55.9989 63.2813 61.0182L71.3497 66.0375L61.5809 86.1213Z" fill="#9E4A9E"/>
<path d="M58.2462 128.033C54.9223 126.178 40.7217 117.437 38.1986 102.502C36.0046 89.5971 44.3582 72.2046 48.5432 64.52C48.2745 74.7208 56.9352 83.3262 61.1148 86.9124C64.6732 90.0042 68.5991 92.4561 72.7649 94.1884L58.2462 128.033Z" fill="white"/>
<path d="M47.8904 67.5551C48.7954 74.3318 53.1724 81.3614 60.621 87.7036C63.9814 90.6373 67.6742 92.9972 71.5909 94.7138L57.8785 126.743C53.6935 124.285 41.3084 115.939 39.0048 102.314C37.085 90.985 43.5847 75.9595 47.9069 67.5551H47.8904ZM50.1338 60.0131C50.1338 60.0131 34.4029 85.1227 37.4031 102.71C40.4034 120.297 58.6355 129.298 58.6355 129.298L73.9275 93.6308C69.1446 91.5557 66.0456 89.8761 61.6083 86.0954C54.2201 79.805 46.958 70.0323 50.1447 59.9872L50.1338 60.0131Z" fill="#9E4A9E"/>
<path d="M45.9817 74.6041C46.4439 77.8698 47.5365 80.9656 49.1745 83.6513C50.8125 86.3369 52.952 88.5402 55.4268 90.0901" stroke="#2B231E" stroke-linecap="round" stroke-linejoin="round"/>
<path d="M59.9956 93.6957L68.5247 99.0976" stroke="#2B231E" stroke-linecap="round" stroke-linejoin="round"/>
<path d="M47.1995 89.0137C47.1995 89.0137 49.9419 96.2184 58.7782 100.9" stroke="#2B231E" stroke-linecap="round" stroke-linejoin="round"/>
<path d="M40.1948 90.0901C40.1948 90.0901 40.4965 97.658 44.7638 100.174" stroke="#2B231E" stroke-linecap="round" stroke-linejoin="round"/>
<path d="M49.9419 63.8003C49.9419 63.8003 49.1521 73.5277 61.581 86.1213" stroke="#2B231E" stroke-linecap="round" stroke-linejoin="round"/>
<path d="M54.5107 65.5965C54.5107 65.5965 58.4709 65.2399 64.263 70.2786" stroke="#2B231E" stroke-linecap="round" stroke-linejoin="round"/>
<path d="M35.8894 96.6138C35.6316 101.432 36.1417 118.896 57.5331 130.03" stroke="#2B231E" stroke-linecap="round" stroke-linejoin="round"/>
<path d="M174.63 112.534L165.558 134.032C165.558 134.032 171.712 136.71 166.896 145.056C166.896 145.056 178.272 150.633 185.715 136.146C193.158 121.658 174.63 112.534 174.63 112.534Z" fill="#FEBB00"/>
<path d="M153.864 178.239C149.273 178.239 144.425 176.021 139.45 171.644L156.426 138.402L166.518 145.918H166.584C168.34 146.68 170.198 147.062 172.069 147.047C175.258 147.068 178.372 145.904 180.971 143.72L168.564 168.817C168.536 168.862 163.194 178.2 153.837 178.207L153.864 178.239Z" fill="white"/>
<path d="M156.695 139.751L166.019 146.697L166.134 146.787L166.266 146.846C168.13 147.662 170.103 148.071 172.091 148.052C174.378 148.063 176.642 147.502 178.733 146.405L167.9 168.304C167.544 168.907 162.52 177.266 153.853 177.266C149.624 177.266 145.149 175.289 140.536 171.385L156.684 139.751H156.695ZM185.715 136.126C181.509 144.31 176.051 146.094 172.096 146.094C170.324 146.111 168.563 145.753 166.897 145.036L156.152 137.034L138.364 171.877C144.32 177.305 149.515 179.199 153.864 179.199C163.803 179.199 169.304 169.322 169.304 169.322L185.715 136.126Z" fill="#FEBB00"/>
<path d="M165.558 134.031C165.558 134.031 172.321 136.859 166.896 145.056" stroke="#2B231E" stroke-linecap="round" stroke-linejoin="round"/>
<path d="M155.943 136.301C155.943 136.301 165.164 146.288 170.265 146.217C175.366 146.145 181.35 144.712 184.882 137.52" stroke="#2B231E" stroke-linecap="round" stroke-linejoin="round"/>
<path d="M157.073 149.219C157.073 149.219 163.403 155.86 170.478 153.726" stroke="#2B231E" stroke-linecap="round" stroke-linejoin="round"/>
<path d="M163.721 159.141C163.721 159.141 167.039 162.085 171.679 159.303" stroke="#2B231E" stroke-linecap="round" stroke-linejoin="round"/>
<path d="M148.451 163.24C148.451 163.24 156.13 172.241 168.164 166.3" stroke="#2B231E" stroke-linecap="round" stroke-linejoin="round"/>
<path d="M152.613 154.453C152.613 154.453 155.74 157.098 157.698 157.941" stroke="#2B231E" stroke-linecap="round" stroke-linejoin="round"/>
<path d="M176.188 118.773C176.188 118.773 183.182 121.477 184.021 132.391" stroke="#2B231E" stroke-linecap="round" stroke-linejoin="round"/>
<path d="M179.704 132.235C179.704 132.235 182.923 138.124 177.51 144.018" stroke="#2B231E" stroke-linecap="round" stroke-linejoin="round"/>
<path d="M139.011 173.538C139.011 173.538 156.563 191.319 169.315 170.522" stroke="#2B231E" stroke-linecap="round" stroke-linejoin="round"/>
<path d="M12.2642 105.822H16.3559" stroke="#E06D66" stroke-linecap="round" stroke-linejoin="round"/>
<path d="M240.302 47.6073H244.394" stroke="#E06D66" stroke-linecap="round" stroke-linejoin="round"/>
<path d="M130.52 14.4047H134.617" stroke="#9E4A9E" stroke-miterlimit="10"/>
<path d="M248.118 72.7103L252.144 73.5663" stroke="#9E4A9E" stroke-miterlimit="10"/>
<path d="M87.3096 193.479H91.4068" stroke="#E4E4E6" stroke-linecap="round" stroke-linejoin="round"/>
<path d="M256.938 134.745C257.686 134.745 258.292 134.028 258.292 133.143C258.292 132.259 257.686 131.541 256.938 131.541C256.189 131.541 255.583 132.259 255.583 133.143C255.583 134.028 256.189 134.745 256.938 134.745Z" fill="#FEBB00"/>
<path d="M2.22149 57.821C2.96972 57.821 3.57627 57.1038 3.57627 56.2192C3.57627 55.3346 2.96972 54.6174 2.22149 54.6174C1.47326 54.6174 0.866699 55.3346 0.866699 56.2192C0.866699 57.1038 1.47326 57.821 2.22149 57.821Z" fill="#FEBB00"/>
</svg>
