<svg width="247" height="228" viewBox="0 0 247 228" fill="none" xmlns="http://www.w3.org/2000/svg">
<path d="M149.388 97.2827C149.388 97.2827 136.972 122.119 124.359 139.263C119.34 146.087 114.292 151.69 109.981 154.028C105.762 156.315 102.191 159.863 99.2351 163.806C91.5836 174.002 88.0497 186.767 88.0497 186.767L55.7969 137.979C55.7969 137.979 56.8979 90.2897 60.7703 82.3125C66.4142 70.6864 69.1402 47.1983 71.3086 42.5225C72.918 39.0539 77.5114 21.135 77.9511 19.8176C78.143 19.2509 79.6707 18.3808 81.6562 18.3821C83.2487 18.3821 85.954 19.9213 86.6348 23.0852C90.0844 39.0733 85.9332 49.6205 85.9864 50.0886C87.2028 62.3773 83.5457 71.4995 86.1161 73.9152C86.2107 74.0033 86.3884 73.9619 86.6348 73.8011C91.0817 70.9484 118.678 30.7201 122.077 29.8513C125.659 28.9358 149.388 97.2827 149.388 97.2827Z" fill="#FFB27D"/>
<path d="M97.7527 177.112C97.7527 177.112 97.313 198.791 96.0551 227.991H14.7085C33.2976 188.341 49.4642 154.969 49.4642 154.969C49.4642 154.969 95.7866 156.384 97.7527 177.112Z" fill="#F99746"/>
<path d="M177.594 13.2266L167.608 27.8661L157.808 42.2334C157.21 42.9543 156.519 43.2046 155.77 43.1332C153.418 42.9102 150.509 39.5181 148.241 37.6405L148.011 37.4512C146.574 36.2559 145.668 34.5404 145.492 32.6795C145.316 30.8186 145.883 28.9636 147.071 27.5199L162.051 9.41431L166.494 4.04474C167.69 2.6081 169.406 1.70299 171.267 1.52709C173.128 1.35119 174.983 1.9188 176.427 3.10594L176.657 3.29526C178.094 4.49147 178.998 6.2072 179.174 8.06788C179.349 9.92856 178.781 11.7831 177.594 13.2266Z" fill="#FFB27D"/>
<path d="M167.599 27.866L157.799 42.2333C157.201 42.9542 156.51 43.2045 155.761 43.1332L162.042 9.41943C162.056 9.60356 163.123 24.732 167.599 27.866Z" fill="#EFA26F"/>
<path d="M124.359 139.263C119.34 146.087 114.291 151.69 109.981 154.028C105.762 156.316 102.191 159.863 99.235 163.806C95.8359 162.222 91.9609 160.364 88.1741 158.522C83.5625 156.282 83.3848 149.734 87.903 147.307C87.9471 147.284 87.9899 147.259 88.0327 147.235C92.2657 144.814 96.6023 136.262 96.6023 136.262L124.359 139.263Z" fill="#EFA26F"/>
<path d="M77.7269 20.5593L75.1138 31.1091C75.1138 31.1091 77.3988 32.0427 78.8656 31.3178C80.3323 30.593 81.5293 21.1272 77.7269 20.5593Z" fill="#FFC197"/>
<path d="M152.88 0.652588H96.6856C91.1355 0.652588 86.6362 5.15123 86.6362 10.7006V134.201C86.6362 139.75 91.1355 144.249 96.6856 144.249H152.88C158.43 144.249 162.929 139.75 162.929 134.201V10.7006C162.929 5.15123 158.43 0.652588 152.88 0.652588Z" fill="#FEBB00"/>
<path d="M159.148 11.651V132.288C159.148 136.38 155.822 139.728 151.756 139.728H97.8037C93.7419 139.728 90.4116 136.38 90.4116 132.288V11.651C90.4116 7.55866 93.7355 4.21063 97.8037 4.21063H151.761C155.822 4.21063 159.148 7.56385 159.148 11.651Z" fill="#FFFCE2"/>
<path d="M151.761 4.21063L98.4716 139.728H97.8037C93.7419 139.728 90.4116 136.38 90.4116 132.288V11.651C90.4116 7.55866 93.7355 4.21063 97.8037 4.21063H151.761Z" fill="#FFF6A7"/>
<path d="M136.06 1.49414H113.507C111.663 1.49414 110.168 2.98904 110.168 4.8331V5.35955C110.168 7.20361 111.663 8.69851 113.507 8.69851H136.06C137.904 8.69851 139.399 7.20361 139.399 5.35955V4.8331C139.399 2.98904 137.904 1.49414 136.06 1.49414Z" fill="#FEBB00"/>
<path d="M172.615 68.5081L171.127 69.0735L161.111 72.8792C160.879 72.9683 160.641 73.0436 160.4 73.1048C158.774 73.5218 157.052 73.3265 155.56 72.5561C154.069 71.7858 152.913 70.4941 152.312 68.9269L152.165 68.5379C151.528 66.8466 151.586 64.9719 152.327 63.3232C153.067 61.6745 154.43 60.3858 156.118 59.7386L165.455 56.1922L166.134 55.9329L167.624 55.3662C169.317 54.7281 171.194 54.7869 172.844 55.5296C174.494 56.2723 175.782 57.6384 176.427 59.3289L176.575 59.7179C177.209 61.4089 177.148 63.2821 176.407 64.9288C175.665 66.5754 174.302 67.8621 172.615 68.5081Z" fill="#FFB27D"/>
<path d="M164.481 68.7414C162.811 69.3754 159.784 70.4984 158.165 70.7318C157.708 70.7966 156.869 70.5476 156.076 69.6866C155.604 69.168 155.153 68.434 154.817 67.4149C154.654 66.9445 154.539 66.4588 154.475 65.9652C154.411 65.3906 154.43 64.8099 154.53 64.2406C154.581 63.9748 154.694 63.7249 154.86 63.5111C155.026 63.2972 155.24 63.1256 155.485 63.01C155.485 63.01 155.485 63.01 155.493 63.01C157.214 62.1892 159.534 61.1869 161.567 60.6293C162.973 60.2403 164.396 60.8614 164.84 62.092L165.051 62.6664L166.126 65.6099C166.57 66.8288 165.847 68.2266 164.481 68.7414Z" fill="#FFD3B6"/>
<path d="M164.481 68.7413C162.811 69.3754 159.784 70.4984 158.166 70.7318C157.708 70.7966 156.869 70.5476 156.076 69.6866C155.993 69.4895 155.915 69.2834 155.843 69.0616C155.678 68.5917 155.564 68.1058 155.5 67.6119C155.437 67.0374 155.456 66.4568 155.555 65.8873C155.607 65.6218 155.72 65.3722 155.886 65.1586C156.052 64.9451 156.266 64.7736 156.511 64.6581C156.511 64.6581 156.511 64.6581 156.519 64.6581C158.239 63.836 160.558 62.835 162.593 62.2761C163.007 62.1517 163.443 62.1221 163.869 62.1895C164.296 62.2568 164.702 62.4194 165.057 62.6651L166.132 65.6086C166.57 66.8287 165.847 68.2266 164.481 68.7413Z" fill="#FFC197"/>
<path d="M168.071 82.5913L160.345 84.6932C159.214 84.9977 158.008 84.8422 156.991 84.2605C155.974 83.6789 155.228 82.7184 154.917 81.589L154.678 80.715C154.374 79.5825 154.531 78.3757 155.114 77.3584C155.697 76.3411 156.659 75.5959 157.79 75.2858L165.515 73.1839C166.647 72.8796 167.854 73.0363 168.871 73.6195C169.889 74.2027 170.634 75.165 170.943 76.2959L171.18 77.1699C171.483 78.301 171.326 79.5058 170.743 80.5214C170.16 81.5371 169.2 82.2811 168.071 82.5913Z" fill="#FFB27D"/>
<path d="M163.894 82.2128C162.475 82.5914 159.911 83.2592 158.566 83.3331C158.077 83.3603 157.098 82.9441 156.46 81.6617C156.126 80.9648 155.933 80.2085 155.892 79.4366C155.883 78.9899 155.941 78.5445 156.065 78.1152C156.13 77.9099 156.244 77.7231 156.395 77.5699C156.547 77.4166 156.733 77.3014 156.937 77.2335H156.945C158.417 76.7148 160.394 76.0937 162.104 75.7942C163.284 75.588 164.405 76.1559 164.681 77.1298L164.881 77.8248L165.476 79.9137C165.751 80.8759 165.053 81.9041 163.894 82.2128Z" fill="#FFD3B6"/>
<path d="M163.894 82.2126C162.475 82.5912 159.911 83.259 158.566 83.3329C158.077 83.3602 157.098 82.9439 156.46 81.6615C156.369 81.3131 156.316 80.9556 156.303 80.5956C156.294 80.149 156.352 79.7036 156.476 79.2743C156.542 79.0688 156.655 78.8817 156.807 78.7283C156.959 78.5749 157.145 78.4594 157.35 78.3913C158.822 77.8726 160.799 77.2502 162.509 76.9533C163.487 76.7821 164.424 77.1426 164.874 77.8233L165.469 79.9123C165.751 80.8757 165.053 81.904 163.894 82.2126Z" fill="#FFC197"/>
<path d="M41.5454 171.418C41.5454 171.418 57.4423 186.642 68.1595 192.52L76.2739 186.765V195.255C76.2739 195.255 92.2252 198.076 97.2648 195.255V172.105L52.4468 149.639L41.5454 171.418Z" fill="#ED7D2B"/>
<path d="M100.651 193.412C94.4768 194.679 81.1698 189.829 81.1698 189.829L83.3122 169.101L68.2686 186.319C60.6172 183.467 48.6472 176.042 41.5365 171.418C37.9961 169.115 35.6592 167.508 35.6592 167.508C45.6943 151.362 55.7877 136.258 55.7877 136.258C58.751 142.185 65.7631 147.331 73.3653 151.448C85.9979 158.289 100.257 162.285 100.257 162.285C100.261 174.608 100.651 193.412 100.651 193.412Z" fill="#FFE596"/>
<path d="M172.371 53.7116L172.205 53.7686L162.079 56.362C157.627 57.507 153.022 55.0977 151.847 51.0106L151.245 48.9281C150.116 45.003 152.542 40.899 156.68 39.5686L160.024 38.7102L166.806 36.9688C171.258 35.8251 175.862 38.2344 177.037 42.3215L177.64 44.4156C178.753 48.2798 176.406 52.3241 172.371 53.7116Z" fill="#FFB27D"/>
<path d="M167.738 50.8847L162.81 53.1021H162.779C162.583 53.1566 162.384 53.1999 162.183 53.2317C162.102 53.2447 162.017 53.2538 161.934 53.2628C161.9 53.2661 161.865 53.2661 161.831 53.2628C161.702 53.2585 161.577 53.2224 161.466 53.1579C161.355 53.0933 161.261 53.0023 161.194 52.8929C161.127 52.7835 161.088 52.6591 161.08 52.5309C161.073 52.4027 161.097 52.2746 161.151 52.1581C161.633 51.1137 161.732 49.9329 161.43 48.823L161.312 48.3938C161.313 48.3895 161.313 48.3851 161.312 48.3808L160.931 46.983C160.64 45.9092 160.015 44.9556 159.147 44.26C159.046 44.1783 158.942 44.1005 158.836 44.0279C157.863 43.3536 158.111 41.8235 159.25 41.5123L159.281 41.5032L164.68 40.6863C166.014 40.3245 167.299 41.3515 167.662 42.6858L168.096 44.2768L169.019 47.6689C169.382 49.0123 169.066 50.523 167.738 50.8847Z" fill="#FFD3B6"/>
<path d="M167.737 50.8848L162.809 53.1021H162.778C162.663 53.1241 162.302 53.1851 161.83 53.2577C161.702 53.2533 161.576 53.2173 161.465 53.1527C161.354 53.0882 161.261 52.9971 161.194 52.8877C161.126 52.7783 161.087 52.654 161.08 52.5257C161.072 52.3975 161.097 52.2694 161.151 52.1529C161.633 51.1086 161.732 49.9277 161.429 48.8179L161.311 48.3887C161.312 48.3844 161.312 48.3799 161.311 48.3757L160.93 46.983C160.64 45.9093 160.015 44.9557 159.147 44.26C159.332 43.9893 159.608 43.7938 159.925 43.7089L159.956 43.6998L165.355 42.8842C166.479 42.5782 167.566 43.259 168.1 44.2769L169.024 47.669C169.382 49.0123 169.065 50.523 167.737 50.8848Z" fill="#FFC197"/>
<path d="M86.6352 106.371C86.6352 106.371 84.4306 87.0907 82.3893 83.3317C80.3481 79.5726 78.6284 72.0414 81.7616 66.4476C84.8948 60.8537 85.9803 50.0951 85.9803 50.0951C87.1968 62.3838 83.5396 71.5059 86.11 73.9216C86.2047 74.0098 86.3823 73.9683 86.6287 73.8075L86.6352 106.371Z" fill="#EFA26F"/>
<path d="M135.976 34.6062H59.2577C56.5948 34.6062 54.436 36.7647 54.436 39.4273V70.1496C54.436 72.8122 56.5948 74.9706 59.2577 74.9706H135.976C138.639 74.9706 140.798 72.8122 140.798 70.1496V39.4273C140.798 36.7647 138.639 34.6062 135.976 34.6062Z" fill="#9E4A9E"/>
<path d="M136.514 15.7343H106.485C104.257 15.7343 102.452 17.5398 102.452 19.767V25.462C102.452 27.6892 104.257 29.4947 106.485 29.4947H136.514C138.741 29.4947 140.547 27.6892 140.547 25.462V19.767C140.547 17.5398 138.741 15.7343 136.514 15.7343Z" fill="#FEBB00"/>
<path d="M135.196 113.41H100.577C97.9094 113.41 95.7466 115.572 95.7466 118.24V125.556C95.7466 128.223 97.9094 130.386 100.577 130.386H135.196C137.864 130.386 140.026 128.223 140.026 125.556V118.24C140.026 115.572 137.864 113.41 135.196 113.41Z" fill="#FEBB00"/>
<path d="M115.946 82.0051H148.652C150.187 82.0051 151.659 82.6148 152.744 83.7001C153.83 84.7854 154.44 86.2574 154.44 87.7922V100.588C154.44 102.122 153.83 103.594 152.745 104.68C151.66 105.765 150.188 106.375 148.653 106.375H115.946C115.186 106.375 114.433 106.226 113.731 105.935C113.028 105.644 112.39 105.218 111.853 104.681C111.315 104.143 110.888 103.505 110.598 102.803C110.307 102.101 110.157 101.348 110.157 100.588V87.7922C110.157 87.0321 110.307 86.2794 110.598 85.5771C110.888 84.8748 111.315 84.2367 111.853 83.6993C112.39 83.1619 113.028 82.7356 113.731 82.4449C114.433 82.1542 115.186 82.0048 115.946 82.0051Z" fill="#F99746"/>
<path d="M241.115 228H181.452C178.591 226.082 163.733 215.949 157.59 208.394C156.293 206.793 151.522 192.996 147.863 181.794C145.577 174.792 143.713 168.809 143.406 167.436C143.297 166.957 143.224 166.009 143.18 164.726V164.713C143.025 160.132 143.237 151.297 143.457 144.28V144.247V144.155C143.467 143.847 143.476 143.543 143.486 143.248V143.237C143.486 143.207 143.486 143.176 143.486 143.146C143.527 141.927 143.566 140.779 143.602 139.733C143.694 137.122 143.772 135.157 143.804 134.389L143.817 134.031C143.912 133.978 146.782 132.446 150.618 135.209C151.544 135.877 152.4 137.49 153.18 139.595C153.68 140.938 154.148 142.481 154.584 144.107C156.259 150.361 157.461 157.838 158.103 159.84C159.141 163.082 171.331 177.302 172.099 178.187C172.111 178.202 172.124 178.216 172.135 178.231V155.757L162.928 131.12L159.147 121.005L157.247 115.923C155.236 112.529 153.446 109.009 151.889 105.384C150.819 102.866 149.838 100.163 149.231 97.5926C149.086 96.9806 148.963 96.375 148.864 95.7772C148.505 93.6053 148.475 91.5902 148.98 89.9499C149.871 87.0285 151.878 86.4787 153.42 86.5384C153.58 86.5384 153.734 86.5578 153.883 86.5747C154.033 86.5926 154.181 86.6212 154.327 86.6603C154.596 86.7316 154.853 86.8389 155.093 86.9792C155.492 87.213 155.834 87.5329 156.094 87.9154C156.094 87.9154 157.391 89.6154 159.143 91.9002C160.292 93.4043 161.635 95.1613 162.924 96.8548C165.219 99.8722 167.351 102.69 167.937 103.512C171.106 107.971 179.636 122.503 179.636 122.503L189.622 122.922C191.204 122.988 192.71 123.618 193.867 124.698C197.417 128.014 205.073 135.189 206.012 136.256C206.012 136.606 211.96 139.466 216.556 142.013C219.844 143.402 226.088 148.324 226.088 148.324C227.385 149.466 228.368 150.604 228.868 151.695C231.009 156.354 236.816 196.874 239.592 216.906C240.491 223.345 241.07 227.667 241.115 228Z" fill="#FFB27D"/>
<path d="M179.64 122.508C179.64 122.508 188.891 137.607 190.115 138.286C191.339 138.966 196.101 139.919 196.646 138.286C197.19 136.654 179.64 122.508 179.64 122.508Z" fill="#EFA26F"/>
<path d="M226.139 148.371L226.092 148.329C226.092 148.329 219.848 143.402 216.56 142.018C212.34 139.684 206.982 137.078 206.132 136.396C207.111 137.516 214 145.312 216.652 145.895C218.98 146.409 224.268 147.855 226.139 148.371Z" fill="#EFA26F"/>
<path d="M172.136 178.224V155.757C172.136 155.757 177.474 164.684 177.883 169.582C178.291 174.48 175.665 182.405 172.136 178.224Z" fill="#EFA26F"/>
<path d="M152.768 95.7758C151.99 94.4377 150.589 92.0155 150.108 90.6539C149.979 90.2649 149.99 89.5025 150.462 88.6843C150.811 88.0984 151.29 87.601 151.863 87.2307C152.168 87.0147 152.498 86.8366 152.846 86.7004C153.249 86.5533 153.675 86.4748 154.104 86.4683C154.32 86.4777 154.531 86.5395 154.719 86.6483C154.906 86.7572 155.064 86.9099 155.179 87.0933C156.105 88.4431 157.277 90.2805 158.075 91.9442C158.626 93.093 158.452 94.4195 157.648 95.0017L157.272 95.2766L155.35 96.6796C154.555 97.267 153.404 96.8702 152.768 95.7758Z" fill="#FFD3B6"/>
<path d="M152.768 95.776C151.99 94.4378 150.589 92.0156 150.108 90.6541C149.979 90.2651 149.99 89.5026 150.462 88.6844C150.882 88.3397 151.35 88.0588 151.851 87.8506C152.255 87.7037 152.68 87.6252 153.109 87.6185C153.326 87.6278 153.537 87.6896 153.724 87.7984C153.911 87.9073 154.069 88.0601 154.184 88.2435C155.112 89.5934 156.284 91.4308 157.08 93.0931C157.434 93.8296 157.49 94.6375 157.272 95.2754L155.35 96.6785C154.555 97.2671 153.404 96.8704 152.768 95.776Z" fill="#FFC197"/>
<path d="M204.87 15.9249H192.363C189.059 15.9249 186.381 18.603 186.381 21.9065V32.2074C186.381 35.5109 189.059 38.189 192.363 38.189H204.87C208.174 38.189 210.853 35.5109 210.853 32.2074V21.9065C210.853 18.603 208.174 15.9249 204.87 15.9249Z" fill="#9E4A9E"/>
<path d="M192.119 26.8742C192.798 28.6649 198.625 33.3693 198.625 33.3693C198.625 33.3693 200.525 31.8262 202.283 30.1639C203.6 28.9346 204.83 27.6392 205.122 26.8742C205.812 25.0939 205.078 22.5472 202.528 22.1154C199.979 21.6836 198.621 24.3379 198.621 24.3379C198.621 24.3379 197.251 21.6836 194.704 22.1154C194.294 22.1813 193.899 22.32 193.537 22.5251C191.951 23.4108 191.552 25.4064 192.119 26.8742Z" fill="#FFF6A7"/>
<path d="M3.74377 96.1714H41.2112C42.6502 96.1755 44.0291 96.7488 45.0467 97.766C46.0643 98.7833 46.638 100.162 46.6425 101.601V118.041C46.6387 119.363 46.112 120.629 45.1774 121.563C44.2429 122.498 42.9764 123.025 41.6548 123.028H40.6912L42.4964 130.653L31.1632 123.028H3.42604C1.98887 123.023 0.612106 122.45 -0.404256 121.434C-1.42062 120.418 -1.99419 119.041 -2 117.604V101.92C-1.99556 100.397 -1.38915 98.9386 -0.313094 97.8617C0.762964 96.7848 2.22132 96.1772 3.74377 96.1714Z" fill="#9E4A9E"/>
<path d="M2.73845 108.101H41.8127C42.069 108.1 42.3145 107.998 42.4957 107.816C42.6769 107.635 42.7792 107.39 42.7802 107.134C42.7792 106.877 42.6769 106.632 42.4957 106.451C42.3145 106.27 42.069 106.167 41.8127 106.166H2.73845C2.48208 106.167 2.2364 106.269 2.05511 106.45C1.87383 106.632 1.77168 106.877 1.771 107.134C1.77168 107.39 1.87383 107.636 2.05511 107.817C2.2364 107.998 2.48208 108.1 2.73845 108.101Z" fill="#FAF9F1"/>
<path d="M2.73845 112.43H41.8127C42.0691 112.43 42.3148 112.328 42.4961 112.146C42.6773 111.965 42.7795 111.72 42.7802 111.463C42.7792 111.207 42.6769 110.961 42.4957 110.78C42.3145 110.599 42.069 110.497 41.8127 110.496H2.73845C2.48208 110.497 2.2364 110.599 2.05511 110.78C1.87383 110.961 1.77168 111.207 1.771 111.463C1.77134 111.72 1.87338 111.965 2.05473 112.147C2.23609 112.328 2.48197 112.43 2.73845 112.43Z" fill="#FAF9F1"/>
<path d="M2.73845 116.761H41.8127C42.069 116.76 42.3145 116.658 42.4957 116.477C42.6769 116.296 42.7792 116.05 42.7802 115.794C42.7795 115.538 42.6773 115.292 42.4961 115.111C42.3148 114.93 42.0691 114.827 41.8127 114.827H2.73845C2.48197 114.827 2.23609 114.929 2.05473 115.11C1.87338 115.292 1.77134 115.538 1.771 115.794C1.77168 116.05 1.87383 116.296 2.05511 116.477C2.2364 116.659 2.48208 116.761 2.73845 116.761Z" fill="#FAF9F1"/>
<path d="M24.0227 101.375H40.6082C40.9134 101.374 41.2059 101.253 41.4217 101.037C41.6376 100.821 41.7591 100.529 41.7598 100.224C41.7588 99.9185 41.6371 99.6262 41.4214 99.4105C41.2056 99.1948 40.9133 99.0732 40.6082 99.0721H24.0227C23.7176 99.0732 23.4253 99.1948 23.2095 99.4105C22.9938 99.6262 22.8721 99.9185 22.8711 100.224C22.8718 100.529 22.9933 100.821 23.2091 101.037C23.425 101.253 23.7175 101.374 24.0227 101.375Z" fill="#FAF9F1"/>
<path d="M9.77046 101.376H19.7498C20.2526 101.376 20.6602 100.969 20.6602 100.466V99.9837C20.6602 99.481 20.2526 99.0734 19.7498 99.0734H9.77046C9.26766 99.0734 8.86007 99.481 8.86007 99.9837V100.466C8.86007 100.969 9.26766 101.376 9.77046 101.376Z" fill="#FAF9F1"/>
<path d="M192.007 104.507L215.573 112.21L201.457 98.4536L200.024 101.815L193.957 101.844L192.007 104.507Z" fill="#9E4A9E"/>
<path d="M215.574 112.21L197.284 98.2994L177.743 93.8362L215.574 112.21Z" fill="white"/>
<path d="M201.457 98.4536L215.573 112.21L206.165 92.9375L201.457 98.4536Z" fill="white"/>
<path d="M53.0442 16.725L31.0171 19.8668L45.634 9.9057L46.3783 13.0994L51.7344 14.0694L53.0442 16.725Z" fill="#9E4A9E"/>
<path d="M31.0171 19.8669L49.3469 10.4179L67.3135 9.51416L31.0171 19.8669Z" fill="white"/>
<path d="M45.634 9.90576L31.0171 19.8669L42.3322 4.29761L45.634 9.90576Z" fill="white"/>
<path d="M87.6273 53.2655C87.6333 56.0268 86.7209 58.7118 85.0336 60.8978C84.4931 61.5987 83.8802 62.2406 83.2051 62.813C81.0297 64.6551 78.2906 65.6993 75.4409 65.7729C72.5912 65.8465 69.8018 64.945 67.5343 63.2176C65.2668 61.4902 63.6571 59.0405 62.9716 56.2739C62.2862 53.5073 62.566 50.5895 63.7649 48.0036C64.9637 45.4176 67.0097 43.3184 69.5642 42.0534C72.1187 40.7884 75.0286 40.4334 77.8124 41.0472C80.5962 41.6609 83.0869 43.2067 84.8724 45.4285C86.658 47.6504 87.6313 50.4153 87.6312 53.2655H87.6273Z" fill="white"/>
<path d="M80.1416 59.1797L80.0443 59.0747C79.9004 58.9644 79.7564 58.8957 79.178 58.7959C78.8837 58.7466 78.4751 58.6882 77.8954 58.613C77.8954 58.613 77.7658 58.5988 77.7048 58.5936L77.5596 58.5806C77.3936 58.4937 77.3508 57.8026 77.3521 57.0791C77.3521 57.0246 77.3521 56.9701 77.3521 56.9157C77.3521 56.6408 77.3637 56.3698 77.3741 56.126C77.3741 56.1104 77.3741 56.0962 77.3741 56.0806C77.7321 56.1104 77.9694 56.1078 77.9694 56.1078C78.636 56.0547 79.0522 54.2679 79.2014 52.8233C79.406 52.2968 79.5175 51.7387 79.5308 51.174C79.5529 50.6787 79.4015 50.1913 79.1028 49.7956C78.9721 49.6297 78.8137 49.4876 78.6347 49.3755C78.5932 49.334 78.5504 49.2964 78.505 49.2601C77.8851 48.5715 75.364 45.9911 73.7066 47.4836C73.6638 47.3345 73.1256 45.6592 70.5163 46.2077C70.6785 46.1908 71.8352 46.078 72.1698 46.55C72.1244 46.5305 71.1142 46.0819 70.4839 46.4735C70.1895 46.6524 70.0067 47.0246 69.9029 47.4162V47.424C69.9029 47.424 69.9029 47.424 69.9029 47.4304C69.9023 47.4343 69.9023 47.4382 69.9029 47.4421C69.8913 47.4953 69.8783 47.5484 69.8666 47.6016C69.8666 47.6094 69.8666 47.6172 69.8666 47.6262C69.8666 47.6353 69.8666 47.6262 69.8666 47.6262C69.7959 47.9509 69.7853 48.2858 69.8355 48.6143C69.9328 49.0228 70.6525 50.2391 71.1324 50.2391C71.3207 50.2322 71.5058 50.1882 71.677 50.1094C71.5979 50.3412 71.5329 50.5777 71.4825 50.8174C70.9625 53.2072 72.5485 55.0225 73.3681 54.5713C73.8947 54.2847 74.2928 55.2054 74.2928 55.2054C74.215 56.9494 73.7364 58.0879 73.385 58.3719C73.2553 58.3861 72.983 58.4198 72.6393 58.4743C72.6393 58.4743 71.4293 58.604 70.5086 59.0072L70.4865 59.0163C70.3013 59.0893 70.1268 59.187 69.9678 59.3068C69.9026 59.3557 69.8457 59.4148 69.7992 59.4818C69.7781 59.5061 69.7599 59.5326 69.7447 59.5609C69.4374 60.147 69.1274 61.0275 68.8369 62.0596C70.7584 63.4866 73.1059 64.2222 75.4983 64.1472C77.8906 64.0721 80.1873 63.1906 82.0156 61.646C81.3399 60.23 80.5644 59.5 80.1416 59.1797Z" fill="#FEBB00"/>
<path d="M110.412 44.7437H96.1969C95.702 44.7437 95.3008 45.1448 95.3008 45.6397V46.0676C95.3008 46.5624 95.702 46.9636 96.1969 46.9636H110.412C110.907 46.9636 111.308 46.5624 111.308 46.0676V45.6397C111.308 45.1448 110.907 44.7437 110.412 44.7437Z" fill="white"/>
<path d="M110.583 54.9407H96.0215C95.8299 54.9397 95.6464 54.8632 95.5109 54.7277C95.3754 54.5922 95.2989 54.4088 95.2979 54.2172C95.2985 54.0255 95.375 53.8419 95.5106 53.7063C95.6461 53.5708 95.8298 53.4943 96.0215 53.4937H110.581C110.773 53.4943 110.957 53.5708 111.092 53.7063C111.228 53.8419 111.304 54.0255 111.305 54.2172C111.304 54.4087 111.228 54.5921 111.093 54.7276C110.957 54.8631 110.774 54.9397 110.583 54.9407Z" fill="white"/>
<path d="M104.137 56.917H95.8531C95.5472 56.917 95.2993 57.1649 95.2993 57.4707V57.8104C95.2993 58.1162 95.5472 58.3641 95.8531 58.3641H104.137C104.443 58.3641 104.691 58.1162 104.691 57.8104V57.4707C104.691 57.1649 104.443 56.917 104.137 56.917Z" fill="white"/>
<path d="M121.021 56.917H107.635C107.251 56.917 106.939 57.2282 106.939 57.612V57.6691C106.939 58.0529 107.251 58.3641 107.635 58.3641H121.021C121.405 58.3641 121.716 58.0529 121.716 57.6691V57.612C121.716 57.2282 121.405 56.917 121.021 56.917Z" fill="white"/>
<path d="M133.526 54.9407H114.437C114.245 54.9401 114.061 54.8636 113.926 54.7281C113.79 54.5925 113.714 54.4089 113.713 54.2172C113.714 54.0255 113.79 53.8419 113.926 53.7063C114.061 53.5708 114.245 53.4943 114.437 53.4937H133.526C133.718 53.4943 133.902 53.5708 134.037 53.7063C134.173 53.8419 134.249 54.0255 134.25 54.2172C134.249 54.4088 134.172 54.5922 134.037 54.7277C133.901 54.8632 133.718 54.9397 133.526 54.9407Z" fill="white"/>
<path d="M110.583 61.7886H96.0215C95.8298 61.7879 95.6461 61.7114 95.5106 61.5759C95.375 61.4403 95.2985 61.2567 95.2979 61.065C95.2979 60.8729 95.374 60.6886 95.5096 60.5525C95.6453 60.4164 95.8293 60.3396 96.0215 60.3389H110.581C110.773 60.3396 110.957 60.416 111.092 60.5515C111.228 60.6871 111.304 60.8707 111.305 61.0624C111.305 61.2543 111.229 61.4384 111.094 61.5745C110.958 61.7106 110.775 61.7875 110.583 61.7886Z" fill="white"/>
<path d="M133.526 61.7886H114.437C114.245 61.7879 114.061 61.7114 113.926 61.5759C113.79 61.4403 113.714 61.2567 113.713 61.065C113.713 60.8729 113.789 60.6886 113.925 60.5525C114.06 60.4164 114.244 60.3396 114.437 60.3389H133.526C133.718 60.3396 133.902 60.416 134.037 60.5515C134.173 60.6871 134.249 60.8707 134.25 61.0624C134.25 61.2546 134.174 61.4389 134.038 61.575C133.902 61.7111 133.718 61.7879 133.526 61.7886Z" fill="white"/>
<path d="M124.266 44.7437H114.057C113.633 44.7437 113.289 45.0873 113.289 45.5113V46.1959C113.289 46.6199 113.633 46.9636 114.057 46.9636H124.266C124.69 46.9636 125.033 46.6199 125.033 46.1959V45.5113C125.033 45.0873 124.69 44.7437 124.266 44.7437Z" fill="white"/>
<path d="M111.395 116.654H101.288C100.936 116.654 100.651 116.939 100.651 117.291V117.595C100.651 117.947 100.936 118.232 101.288 118.232H111.395C111.746 118.232 112.031 117.947 112.031 117.595V117.291C112.031 116.939 111.746 116.654 111.395 116.654Z" fill="#9E4A9E"/>
<path d="M111.516 122.271H101.165C101.027 122.271 100.895 122.216 100.798 122.119C100.701 122.022 100.646 121.89 100.646 121.752C100.646 121.615 100.701 121.483 100.798 121.386C100.895 121.288 101.027 121.234 101.165 121.234H111.516C111.654 121.234 111.786 121.288 111.883 121.386C111.98 121.483 112.035 121.615 112.035 121.752C112.035 121.89 111.98 122.022 111.883 122.119C111.786 122.216 111.654 122.271 111.516 122.271Z" fill="#9E4A9E"/>
<path d="M106.935 123.678H101.046C100.828 123.678 100.651 123.854 100.651 124.072V124.312C100.651 124.53 100.828 124.706 101.046 124.706H106.935C107.152 124.706 107.329 124.53 107.329 124.312V124.072C107.329 123.854 107.152 123.678 106.935 123.678Z" fill="#9E4A9E"/>
<path d="M118.937 123.678H109.421C109.148 123.678 108.927 123.899 108.927 124.172V124.212C108.927 124.485 109.148 124.706 109.421 124.706H118.937C119.21 124.706 119.431 124.485 119.431 124.212V124.172C119.431 123.899 119.21 123.678 118.937 123.678Z" fill="#9E4A9E"/>
<path d="M127.828 122.271H114.256C114.118 122.271 113.986 122.216 113.889 122.119C113.791 122.022 113.737 121.89 113.737 121.752C113.737 121.615 113.791 121.483 113.889 121.386C113.986 121.288 114.118 121.234 114.256 121.234H127.828C127.966 121.234 128.098 121.288 128.195 121.386C128.293 121.483 128.347 121.615 128.347 121.752C128.347 121.89 128.293 122.022 128.195 122.119C128.098 122.216 127.966 122.271 127.828 122.271Z" fill="#9E4A9E"/>
<path d="M111.516 127.14H101.165C101.027 127.14 100.895 127.085 100.798 126.988C100.701 126.891 100.646 126.759 100.646 126.621C100.646 126.484 100.701 126.352 100.798 126.255C100.895 126.157 101.027 126.103 101.165 126.103H111.516C111.654 126.103 111.786 126.157 111.883 126.255C111.98 126.352 112.035 126.484 112.035 126.621C112.035 126.759 111.98 126.891 111.883 126.988C111.786 127.085 111.654 127.14 111.516 127.14Z" fill="#9E4A9E"/>
<path d="M127.828 127.14H114.256C114.118 127.14 113.986 127.085 113.889 126.988C113.791 126.891 113.737 126.759 113.737 126.621C113.737 126.484 113.791 126.352 113.889 126.255C113.986 126.157 114.118 126.103 114.256 126.103H127.828C127.966 126.103 128.098 126.157 128.195 126.255C128.293 126.352 128.347 126.484 128.347 126.621C128.347 126.759 128.293 126.891 128.195 126.988C128.098 127.085 127.966 127.14 127.828 127.14Z" fill="#9E4A9E"/>
<path d="M121.244 116.654H113.987C113.685 116.654 113.441 116.898 113.441 117.2V117.686C113.441 117.988 113.685 118.232 113.987 118.232H121.244C121.546 118.232 121.79 117.988 121.79 117.686V117.2C121.79 116.898 121.546 116.654 121.244 116.654Z" fill="#9E4A9E"/>
<path d="M118.098 18.3885H107.991C107.64 18.3885 107.354 18.6736 107.354 19.0252V19.3299C107.354 19.6816 107.64 19.9666 107.991 19.9666H118.098C118.449 19.9666 118.734 19.6816 118.734 19.3299V19.0252C118.734 18.6736 118.449 18.3885 118.098 18.3885Z" fill="#9E4A9E"/>
<path d="M118.221 24.0059H107.869C107.732 24.0059 107.6 23.9512 107.503 23.8539C107.405 23.7567 107.351 23.6247 107.351 23.4872C107.351 23.3496 107.405 23.2177 107.503 23.1204C107.6 23.0232 107.732 22.9685 107.869 22.9685H118.221C118.358 22.9685 118.49 23.0232 118.588 23.1204C118.685 23.2177 118.74 23.3496 118.74 23.4872C118.74 23.6247 118.685 23.7567 118.588 23.8539C118.49 23.9512 118.358 24.0059 118.221 24.0059Z" fill="#9E4A9E"/>
<path d="M113.638 25.4115H107.749C107.531 25.4115 107.354 25.588 107.354 25.8057V26.0456C107.354 26.2633 107.531 26.4398 107.749 26.4398H113.638C113.855 26.4398 114.032 26.2633 114.032 26.0456V25.8057C114.032 25.588 113.855 25.4115 113.638 25.4115Z" fill="#9E4A9E"/>
<path d="M125.641 25.4115H116.124C115.852 25.4115 115.63 25.6327 115.63 25.9055V25.9457C115.63 26.2186 115.852 26.4398 116.124 26.4398H125.641C125.914 26.4398 126.135 26.2186 126.135 25.9457V25.9055C126.135 25.6327 125.914 25.4115 125.641 25.4115Z" fill="#9E4A9E"/>
<path d="M134.539 24.0059H120.961C120.823 24.0059 120.691 23.9512 120.594 23.8539C120.497 23.7567 120.442 23.6247 120.442 23.4872C120.442 23.3496 120.497 23.2177 120.594 23.1204C120.691 23.0232 120.823 22.9685 120.961 22.9685H134.539C134.676 22.9685 134.808 23.0232 134.906 23.1204C135.003 23.2177 135.057 23.3496 135.057 23.4872C135.057 23.6247 135.003 23.7567 134.906 23.8539C134.808 23.9512 134.676 24.0059 134.539 24.0059Z" fill="#9E4A9E"/>
<path d="M127.949 18.3885H120.692C120.39 18.3885 120.146 18.633 120.146 18.9345V19.4207C120.146 19.7222 120.39 19.9666 120.692 19.9666H127.949C128.251 19.9666 128.495 19.7222 128.495 19.4207V18.9345C128.495 18.633 128.251 18.3885 127.949 18.3885Z" fill="#9E4A9E"/>
<path d="M127.031 86.4723H115.967C115.582 86.4723 115.27 86.7846 115.27 87.1699V87.5019C115.27 87.8871 115.582 88.1995 115.967 88.1995H127.031C127.416 88.1995 127.728 87.8871 127.728 87.5019V87.1699C127.728 86.7846 127.416 86.4723 127.031 86.4723Z" fill="#ED7D2B"/>
<path d="M127.166 92.6263H115.832C115.683 92.6256 115.54 92.566 115.435 92.4603C115.329 92.3546 115.27 92.2115 115.27 92.0623C115.27 91.9132 115.33 91.7705 115.435 91.6651C115.541 91.5597 115.683 91.5002 115.832 91.4995H127.166C127.315 91.5002 127.457 91.5597 127.563 91.6651C127.668 91.7705 127.728 91.9132 127.728 92.0623C127.728 92.2115 127.669 92.3546 127.563 92.4603C127.458 92.566 127.315 92.6256 127.166 92.6263Z" fill="#ED7D2B"/>
<path d="M122.148 94.1616H115.701C115.463 94.1616 115.27 94.3549 115.27 94.5934V94.8566C115.27 95.0951 115.463 95.2884 115.701 95.2884H122.148C122.387 95.2884 122.58 95.0951 122.58 94.8566V94.5934C122.58 94.3549 122.387 94.1616 122.148 94.1616Z" fill="#ED7D2B"/>
<path d="M135.289 94.1616H124.87C124.572 94.1616 124.33 94.4037 124.33 94.7023V94.7464C124.33 95.045 124.572 95.2871 124.87 95.2871H135.289C135.588 95.2871 135.83 95.045 135.83 94.7464V94.7023C135.83 94.4037 135.588 94.1616 135.289 94.1616Z" fill="#ED7D2B"/>
<path d="M145.023 92.6263H130.164C130.015 92.6256 129.872 92.566 129.766 92.4603C129.661 92.3546 129.601 92.2115 129.601 92.0623C129.602 91.9132 129.661 91.7705 129.767 91.6651C129.872 91.5597 130.015 91.5002 130.164 91.4995H145.023C145.172 91.5002 145.315 91.5597 145.421 91.6651C145.526 91.7705 145.585 91.9132 145.586 92.0623C145.586 92.2115 145.526 92.3546 145.421 92.4603C145.316 92.566 145.173 92.6256 145.023 92.6263Z" fill="#ED7D2B"/>
<path d="M127.166 97.9518H115.832C115.683 97.9515 115.54 97.8921 115.435 97.7866C115.329 97.6811 115.27 97.5382 115.27 97.389C115.27 97.2399 115.329 97.097 115.435 96.9915C115.54 96.886 115.683 96.8266 115.832 96.8263H127.166C127.315 96.8266 127.458 96.886 127.563 96.9915C127.669 97.097 127.728 97.2399 127.728 97.389C127.728 97.5382 127.669 97.6811 127.563 97.7866C127.458 97.8921 127.315 97.9515 127.166 97.9518Z" fill="#ED7D2B"/>
<path d="M145.023 97.9518H130.164C130.015 97.9515 129.872 97.8921 129.766 97.7866C129.661 97.6811 129.601 97.5382 129.601 97.389C129.601 97.2399 129.661 97.097 129.766 96.9915C129.872 96.886 130.015 96.8266 130.164 96.8263H145.023C145.172 96.8266 145.315 96.886 145.421 96.9915C145.526 97.097 145.586 97.2399 145.586 97.389C145.586 97.5382 145.526 97.6811 145.421 97.7866C145.315 97.8921 145.172 97.9515 145.023 97.9518Z" fill="#ED7D2B"/>
<path d="M127.166 100.727H115.832C115.683 100.726 115.54 100.667 115.435 100.562C115.329 100.456 115.27 100.313 115.27 100.164C115.27 100.015 115.329 99.8719 115.435 99.7664C115.54 99.6609 115.683 99.6015 115.832 99.6012H127.166C127.315 99.6015 127.458 99.6609 127.563 99.7664C127.669 99.8719 127.728 100.015 127.728 100.164C127.728 100.313 127.669 100.456 127.563 100.562C127.458 100.667 127.315 100.726 127.166 100.727Z" fill="#ED7D2B"/>
<path d="M145.023 100.727H130.164C130.015 100.726 129.872 100.667 129.766 100.562C129.661 100.456 129.601 100.313 129.601 100.164C129.601 100.015 129.661 99.8719 129.766 99.7664C129.872 99.6609 130.015 99.6015 130.164 99.6012H145.023C145.172 99.6015 145.315 99.6609 145.421 99.7664C145.526 99.8719 145.586 100.015 145.586 100.164C145.586 100.313 145.526 100.456 145.421 100.562C145.315 100.667 145.172 100.726 145.023 100.727Z" fill="#ED7D2B"/>
<path d="M137.815 86.4723H129.869C129.539 86.4723 129.271 86.7399 129.271 87.0701V87.6017C129.271 87.9318 129.539 88.1995 129.869 88.1995H137.815C138.145 88.1995 138.413 87.9318 138.413 87.6017V87.0701C138.413 86.7399 138.145 86.4723 137.815 86.4723Z" fill="#ED7D2B"/>
<path d="M100.82 11.7574L100.051 12.3098L99.2725 11.7639C99.3595 11.6407 99.4747 11.5401 99.6085 11.4704C99.7424 11.4007 99.8909 11.364 100.042 11.3634C100.193 11.3628 100.341 11.3982 100.476 11.4667C100.61 11.5353 100.726 11.6349 100.814 11.7574H100.82Z" fill="white"/>
<path d="M100.054 10.0186C99.6867 10.0185 99.3252 10.1069 98.9997 10.2762C98.6742 10.4455 98.3942 10.6907 98.1836 10.9911L98.6712 11.3334C98.826 11.1118 99.0318 10.9307 99.2712 10.8053C99.5107 10.6799 99.7768 10.6139 100.047 10.6129C100.317 10.6119 100.584 10.6759 100.824 10.7994C101.065 10.923 101.272 11.1026 101.428 11.323L101.915 10.9742C101.703 10.6784 101.423 10.4374 101.1 10.2712C100.776 10.105 100.418 10.0184 100.054 10.0186Z" fill="white"/>
<path d="M100.054 7.46271C99.2773 7.46254 98.5123 7.64934 97.8233 8.00731C97.1344 8.36528 96.5418 8.88387 96.0957 9.51925L96.5846 9.86157C96.9745 9.30723 97.4916 8.85438 98.0925 8.54094C98.6935 8.22751 99.3608 8.06261 100.039 8.06007C100.716 8.05753 101.385 8.21742 101.988 8.52635C102.591 8.83527 103.112 9.28423 103.506 9.83564L103.99 9.48683C103.542 8.86033 102.952 8.34977 102.267 7.99769C101.582 7.6456 100.824 7.46219 100.054 7.46271Z" fill="white"/>
<path d="M100.053 8.86054C99.5008 8.8604 98.9562 8.99265 98.4652 9.24623C97.9742 9.49981 97.5512 9.86733 97.2314 10.318L97.7191 10.6603C97.9833 10.2901 98.3319 9.98796 98.7359 9.77895C99.14 9.56993 99.588 9.45999 100.043 9.45822C100.498 9.45645 100.947 9.56288 101.352 9.76874C101.758 9.97461 102.109 10.274 102.376 10.6422L102.86 10.296C102.539 9.85134 102.118 9.48929 101.63 9.23971C101.142 8.99012 100.602 8.86015 100.053 8.86054Z" fill="white"/>
<path d="M95.7363 93.1944C95.7358 94.0934 95.9821 94.9753 96.4482 95.744C96.9143 96.5128 97.5824 97.139 98.3798 97.5543C99.1772 97.9697 100.073 98.1583 100.971 98.0997C101.868 98.0411 102.732 97.7375 103.468 97.2219C103.508 97.1947 103.547 97.1648 103.587 97.1363C104.26 96.6355 104.793 95.971 105.136 95.2061C105.479 94.4411 105.621 93.6011 105.548 92.766C105.475 91.9308 105.189 91.1283 104.718 90.4347C104.247 89.7411 103.606 89.1795 102.857 88.8032C102.108 88.427 101.275 88.2487 100.437 88.2853C99.5993 88.3219 98.7849 88.5721 98.0713 89.0122C97.3576 89.4523 96.7684 90.0676 96.3598 90.7996C95.9511 91.5316 95.7364 92.356 95.7363 93.1944Z" fill="white"/>
<path d="M101.987 96.3464L101.535 95.9458L101.422 95.9665C101.338 95.9073 101.252 95.8524 101.163 95.8018C101.193 95.619 101.217 95.4491 101.238 95.2987C101.28 95.0026 101.305 94.7043 101.314 94.4053C101.554 94.3936 101.716 94.3677 101.716 94.3677C102.17 94.2627 102.192 92.7131 102.087 91.904C102.174 91.9071 102.261 91.8907 102.34 91.856C102.684 91.7043 102.703 91.1844 102.703 91.1844C102.647 91.2883 102.561 91.3734 102.457 91.4294C102.457 91.4294 103.031 90.6423 102.365 90.1042C101.698 89.5661 101.023 89.9175 100.636 89.9408C99.788 89.9927 99.2394 90.0433 98.9632 90.6008C98.687 91.1584 98.7972 92.6626 99.3211 93.2188C99.3302 93.2707 99.3393 93.3213 99.3458 93.3732C99.3705 93.5532 99.442 93.7235 99.5533 93.8672C99.46 94.3959 99.2451 94.8957 98.9256 95.3273C98.7522 95.4664 98.6001 95.6302 98.4743 95.8135H98.4652C98.1826 96.2414 97.9686 96.7109 97.8311 97.2049C97.8311 97.2049 97.8311 97.2048 97.8311 97.2126C98.1108 97.4093 98.4113 97.5745 98.7272 97.7054L98.7894 97.7313H98.8037L98.9061 97.7715C98.9891 97.8039 99.0721 97.8337 99.1564 97.861C99.2407 97.8882 99.3341 97.9154 99.4236 97.9388L99.5533 97.9686C99.5896 97.9777 99.6259 97.9855 99.6635 97.9919H99.6791L99.753 98.0062L99.9268 98.036H99.967L100.063 98.049L100.199 98.0646C100.25 98.0646 100.302 98.0736 100.353 98.0762C100.405 98.0788 100.451 98.0762 100.5 98.084H100.654H100.82H100.875H100.956H100.95C101.002 98.084 101.052 98.0775 101.104 98.0723C101.753 98.011 102.382 97.8205 102.956 97.5122C102.692 97.078 102.366 96.6852 101.987 96.3464Z" fill="#9E4A9E"/>
<path d="M143.989 121.758C143.989 122.736 144.28 123.693 144.824 124.507C145.368 125.321 146.141 125.955 147.046 126.329C147.95 126.704 148.945 126.802 149.906 126.61C150.866 126.419 151.747 125.947 152.439 125.255C153.131 124.562 153.602 123.68 153.792 122.72C153.983 121.759 153.884 120.764 153.509 119.86C153.133 118.956 152.498 118.184 151.684 117.641C150.869 117.098 149.912 116.808 148.933 116.809C148.282 116.806 147.638 116.932 147.036 117.18C146.435 117.428 145.889 117.792 145.429 118.252C144.969 118.713 144.605 119.259 144.358 119.861C144.111 120.463 143.986 121.107 143.989 121.758Z" fill="white"/>
<path d="M151.467 124.561C151.46 124.548 151.452 124.535 151.442 124.523C151.42 124.493 151.393 124.465 151.363 124.442C151.288 124.387 151.206 124.344 151.119 124.312H151.109C150.79 124.187 150.456 124.103 150.115 124.063C149.955 124.039 149.827 124.023 149.768 124.016C149.602 123.887 149.379 123.353 149.342 122.54C149.342 122.54 149.528 122.109 149.773 122.244C150.162 122.453 150.895 121.607 150.659 120.496C150.635 120.385 150.604 120.275 150.568 120.167C150.649 120.204 150.738 120.225 150.827 120.229C151.049 120.229 151.385 119.661 151.43 119.47C151.476 119.28 151.43 118.653 151.122 118.468C150.813 118.283 150.354 118.495 150.333 118.503C150.485 118.29 151.004 118.333 151.098 118.343C149.887 118.092 149.637 118.862 149.616 118.939C148.846 118.242 147.671 119.446 147.38 119.767C147.36 119.784 147.341 119.802 147.322 119.822C147.238 119.873 147.165 119.939 147.104 120.016C146.963 120.202 146.893 120.432 146.904 120.665C146.911 120.928 146.962 121.188 147.057 121.433C147.127 122.106 147.317 122.94 147.633 122.965C147.633 122.965 147.743 122.965 147.909 122.952C147.909 122.96 147.909 122.966 147.909 122.974C147.909 123.087 147.918 123.214 147.92 123.341V123.417C147.92 123.756 147.9 124.077 147.824 124.118H147.756C147.725 124.118 147.667 124.127 147.667 124.127C147.397 124.162 147.205 124.189 147.069 124.212C146.799 124.258 146.732 124.29 146.666 124.342C146.649 124.357 146.634 124.374 146.619 124.391C146.24 124.699 145.94 125.093 145.744 125.54C146.597 126.263 147.669 126.675 148.787 126.71C149.904 126.745 151 126.401 151.897 125.733C151.791 125.33 151.647 124.937 151.467 124.561Z" fill="#F99746"/>
<path d="M143.989 22.3189C143.988 23.4111 144.349 24.473 145.016 25.3376C145.23 25.6146 145.473 25.8685 145.74 26.0948C146.6 26.8229 147.683 27.2356 148.81 27.2645C149.937 27.2934 151.039 26.9368 151.936 26.2538C152.832 25.5708 153.468 24.6022 153.739 23.5084C154.01 22.4145 153.899 21.261 153.425 20.2387C152.951 19.2163 152.142 18.3864 151.132 17.8863C150.123 17.3862 148.972 17.2458 147.872 17.4885C146.771 17.7311 145.786 18.3422 145.08 19.2206C144.374 20.099 143.989 21.192 143.989 22.3189Z" fill="white"/>
<path d="M151.467 25.1222C151.46 25.1088 151.452 25.0962 151.442 25.0846C151.42 25.0537 151.393 25.0261 151.363 25.0029C151.288 24.9473 151.206 24.9015 151.119 24.8668H151.109C150.789 24.7421 150.456 24.6585 150.115 24.6178C149.955 24.5919 149.827 24.5763 149.768 24.5698C149.715 24.5244 149.671 24.4694 149.638 24.4078C149.501 24.1666 149.366 23.7127 149.339 23.0942C149.339 23.0942 149.524 22.665 149.769 22.7986C150.158 23.0073 150.891 22.1632 150.655 21.0519C150.631 20.9401 150.601 20.8297 150.564 20.7213C150.646 20.7588 150.734 20.78 150.823 20.7835C151.045 20.7835 151.381 20.2156 151.426 20.0263C151.472 19.837 151.426 19.2081 151.118 19.0226C150.809 18.8372 150.35 19.0499 150.329 19.0589C150.481 18.8463 151.001 18.8891 151.094 18.8982C149.883 18.6466 149.633 19.4246 149.612 19.4933C148.842 18.7983 147.667 20.0016 147.376 20.3219C147.356 20.3383 147.337 20.3565 147.318 20.3764C147.235 20.4285 147.161 20.4947 147.1 20.5722C146.961 20.7562 146.89 20.9833 146.9 21.214C146.906 21.4773 146.958 21.7375 147.053 21.983C147.123 22.6572 147.313 23.4897 147.629 23.5144C147.629 23.5144 147.739 23.5144 147.905 23.5027C147.905 23.5092 147.905 23.5156 147.905 23.5234C147.905 23.6362 147.915 23.7633 147.916 23.8917V23.9682C147.916 24.3066 147.896 24.6269 147.82 24.6684H147.752L147.663 24.6775C147.393 24.7125 147.201 24.7397 147.065 24.7631C146.795 24.8097 146.728 24.8409 146.662 24.8927L146.615 24.942C146.237 25.2508 145.937 25.645 145.74 26.0922C145.786 26.1319 145.834 26.1708 145.884 26.2089L145.908 26.2283C145.945 26.2568 145.981 26.2841 146.019 26.31C146.056 26.3359 146.07 26.3502 146.098 26.3683C146.125 26.3865 146.152 26.406 146.179 26.4228C146.207 26.4397 146.258 26.4773 146.3 26.5019L146.383 26.5538L146.487 26.6147L146.603 26.6796H146.614H146.62L146.637 26.6886L146.731 26.7366L146.759 26.7509L146.812 26.7768L146.864 26.8014L146.985 26.8546L147.107 26.9039L147.162 26.9259L147.218 26.9467L147.332 26.9869L147.452 27.0258L147.553 27.0569H147.563L147.628 27.075C147.746 27.1075 147.867 27.136 147.988 27.1593C148.042 27.1697 148.095 27.1801 148.148 27.1879H148.19H148.204L148.308 27.2008H148.33H148.345C148.378 27.2008 148.41 27.2086 148.441 27.2112H148.458H148.488C148.546 27.2112 148.603 27.2203 148.662 27.2229H148.671H148.725H148.759H148.93C149.995 27.2246 151.032 26.8806 151.886 26.2426C151.78 25.8573 151.64 25.4823 151.467 25.1222Z" fill="#F99746"/>
<path d="M211.139 218.774L193.317 228H181.452C178.591 226.082 163.733 215.949 157.59 208.394C156.293 206.793 151.522 192.996 147.863 181.794C148.35 183.281 158.57 205.046 161.48 207.52C164.39 209.994 179.67 224.398 183.89 224.247C187.978 224.107 209.739 219.099 211.088 218.79L211.139 218.774Z" fill="#EFA26F"/>
<path d="M247 228H182.746C185.969 226.736 198.298 222.026 211.078 218.793L211.139 218.779C222.116 216.003 233.416 214.32 239.552 216.845L239.596 216.911L247 228Z" fill="#FFF6A7"/>
<path d="M143.487 143.141C144.568 142.744 146.089 142.482 146.829 143.718C147.98 145.64 143.703 162.595 143.169 164.724L143.487 143.141Z" fill="#EFA26F"/>
<path d="M143.816 134.024L143.449 144.28C143.449 144.28 145.605 144.631 146.831 143.716C148.056 142.8 147.408 133.904 143.816 134.024Z" fill="#FFC197"/>
<path d="M100.652 193.412C94.4774 194.679 81.1703 189.83 81.1703 189.83L83.3127 169.101L68.2692 186.319C60.6178 183.467 48.6478 176.042 41.5371 171.418C59.7605 169.431 73.3658 151.449 73.3658 151.449C85.9985 158.29 100.257 162.287 100.257 162.287C100.261 174.608 100.652 193.412 100.652 193.412Z" fill="#FFF6A7"/>
<path d="M58.2833 174.584C58.288 174.089 58.4393 173.607 58.7181 173.198C58.997 172.789 59.3909 172.472 59.85 172.287C60.3091 172.102 60.8127 172.057 61.2973 172.158C61.7819 172.259 62.2256 172.502 62.5724 172.855C62.9192 173.208 63.1534 173.656 63.2454 174.142C63.3375 174.629 63.2832 175.132 63.0895 175.587C62.8958 176.043 62.5714 176.43 62.1573 176.701C61.7432 176.973 61.2579 177.115 60.7629 177.11C60.4342 177.107 60.1093 177.04 59.8068 176.911C59.5043 176.782 59.2301 176.595 58.9999 176.361C58.7696 176.126 58.5878 175.849 58.4649 175.544C58.3419 175.239 58.2802 174.913 58.2833 174.584Z" fill="#F99746"/>
</svg>
