<svg width="480" height="385" viewBox="0 0 480 385" fill="none" xmlns="http://www.w3.org/2000/svg">
<path d="M299.564 89.6175C299.326 90.7868 299.062 91.8684 298.771 92.8721C295.353 104.838 288.656 105.959 285.114 125.886H264.462C260.858 105.53 253.942 104.799 250.593 92.0925C250.391 91.313 250.197 90.4847 250.021 89.6077C246.955 74.4259 263.114 61.0273 274.788 61.0273C286.462 61.0273 302.621 74.4356 299.564 89.6175Z" fill="url(#paint0_radial_8_1345)"/>
<g style="mix-blend-mode:multiply" opacity="0.8">
<path style="mix-blend-mode:multiply" opacity="0.8" d="M274.788 61.3002C281.837 61.3002 290.26 66.1724 295.273 73.0519C297.916 76.6963 300.771 82.5332 299.344 89.6174C297.978 96.3898 295.696 100.044 293.282 103.913C290.366 108.59 287.062 113.891 284.938 125.701H264.673C262.55 113.891 259.246 108.59 256.321 103.913C253.906 100.015 251.624 96.3898 250.259 89.6174C248.84 82.5722 251.695 76.7353 254.338 73.0519C259.351 66.1334 267.766 61.3002 274.814 61.3002H274.788ZM274.788 61.0565C263.114 61.0565 246.955 74.4551 250.021 89.6369C253.087 104.819 260.594 104.312 264.462 125.906H285.158C288.991 104.312 296.542 104.809 299.608 89.6369C302.674 74.4649 286.515 61.0565 274.832 61.0565H274.788Z" fill="url(#paint1_radial_8_1345)"/>
</g>
<path style="mix-blend-mode:multiply" opacity="0.8" fill-rule="evenodd" clip-rule="evenodd" d="M279.211 94.1486C279.211 94.1486 279.943 103.347 274.938 105.053C269.934 103.347 270.674 94.1486 270.674 94.1486L269.563 94.8892C271.326 104.448 271.775 124.006 271.775 124.006H278.11C278.11 124.006 278.559 104.448 280.322 94.8892L279.211 94.1486Z" fill="url(#paint2_linear_8_1345)"/>
<path style="mix-blend-mode:multiply" opacity="0.8" fill-rule="evenodd" clip-rule="evenodd" d="M263.457 121.043C264.338 123.821 281.511 125.078 285.916 121.93L285.396 124.396L264.25 124.679L263.457 121.043Z" fill="url(#paint3_linear_8_1345)"/>
<path style="mix-blend-mode:screen" d="M283.581 90.6698C290.053 90.6698 295.3 84.8674 295.3 77.7098C295.3 70.5521 290.053 64.7497 283.581 64.7497C277.11 64.7497 271.863 70.5521 271.863 77.7098C271.863 84.8674 277.11 90.6698 283.581 90.6698Z" fill="url(#paint4_radial_8_1345)"/>
<path style="mix-blend-mode:screen" d="M261.027 103.993C263.96 102.668 264.486 96.5857 262.203 90.4084C259.921 84.2311 255.693 80.2979 252.761 81.6234C249.828 82.9488 249.302 89.031 251.584 95.2083C253.867 101.386 258.095 105.319 261.027 103.993Z" fill="url(#paint5_radial_8_1345)"/>
<path style="mix-blend-mode:multiply" opacity="0.3" d="M298.771 92.8818C295.353 104.848 288.656 105.969 285.115 125.896H264.462C260.858 105.54 253.942 104.809 250.594 92.1023C254.523 101.35 263.704 104.906 278.674 104.293C293.643 103.679 298.771 92.8818 298.771 92.8818Z" fill="url(#paint6_linear_8_1345)"/>
<path fill-rule="evenodd" clip-rule="evenodd" d="M262.321 125.058L263.88 141.204C263.88 141.204 271.132 139.139 285.344 141.204L287.317 125.896C287.317 125.896 276.947 121.871 262.321 125.058Z" fill="#DBDBDB"/>
<path fill-rule="evenodd" clip-rule="evenodd" d="M263.88 141.205C263.88 141.205 274.664 144.528 285.343 141.205C285.343 141.205 272.823 138.183 263.88 141.205Z" fill="url(#paint7_linear_8_1345)"/>
<path fill-rule="evenodd" clip-rule="evenodd" d="M267.766 141.205L268.806 143.495C272.601 144.364 276.517 144.364 280.312 143.495L281.352 141.283C276.894 140.053 272.235 140.027 267.766 141.205Z" fill="url(#paint8_radial_8_1345)"/>
<g style="mix-blend-mode:multiply" opacity="0.5">
<path fill-rule="evenodd" clip-rule="evenodd" d="M268.805 143.456C268.805 143.456 275.316 141.701 280.312 143.456C276.514 144.292 272.603 144.292 268.805 143.456Z" fill="#FEBB00"/>
</g>
<path fill-rule="evenodd" clip-rule="evenodd" d="M263.695 139.256L261.739 137.307C261.739 137.307 273.625 129.969 288.172 131.46L286.198 134.754C286.198 134.754 274.013 131.294 263.695 139.256Z" fill="url(#paint9_radial_8_1345)"/>
<path fill-rule="evenodd" clip-rule="evenodd" d="M263.131 133.224L261.757 131.996C261.757 131.996 271.722 123.109 289.132 124.551L287.07 127.894C282.961 126.955 278.723 126.943 274.609 127.859C270.496 128.775 266.592 130.6 263.131 133.224Z" fill="url(#paint10_radial_8_1345)"/>
<path fill-rule="evenodd" clip-rule="evenodd" d="M261.739 131.996L262.84 130.398C262.84 130.398 276.532 121.803 289.114 124.551C279.488 123.497 269.826 126.125 261.739 131.996Z" fill="url(#paint11_linear_8_1345)"/>
<path fill-rule="evenodd" clip-rule="evenodd" d="M261.739 137.307L263.307 135.29C270.707 131.963 278.681 130.489 286.656 130.973L288.145 131.499C288.145 131.499 274.585 129.989 261.739 137.307Z" fill="url(#paint12_linear_8_1345)"/>
<g style="mix-blend-mode:soft-light" opacity="0.6">
<g style="mix-blend-mode:soft-light" opacity="0.6">
<path fill-rule="evenodd" clip-rule="evenodd" d="M24.6087 330.753C24.6087 330.753 47.4111 356.614 0 372.079H11.9651C11.9651 372.079 46.9001 368.62 53.2791 331.308L24.6087 330.753Z" fill="#FEBB00"/>
</g>
<g style="mix-blend-mode:soft-light" opacity="0.6">
<path fill-rule="evenodd" clip-rule="evenodd" d="M36.1852 372.079C36.1852 372.079 69.8866 361.721 75.0057 331.308H78.9882C78.9882 331.308 70.7413 361.516 38.8549 372.079H36.1852Z" fill="#FEBB00"/>
</g>
</g>
<path fill-rule="evenodd" clip-rule="evenodd" d="M207.36 124.766L224.436 140.464L198.726 165.78L186.875 144.557L207.36 124.766Z" fill="#9E4A9E"/>
<path fill-rule="evenodd" clip-rule="evenodd" d="M198.726 165.78L215.114 172.114L230.568 154.856L224.436 140.464L198.726 165.78Z" fill="#FFC7FF"/>
<path fill-rule="evenodd" clip-rule="evenodd" d="M429.838 158.014L291.511 206.541C290.97 206.734 290.47 207.045 290.04 207.455C289.61 207.866 289.258 208.367 289.006 208.931C288.754 209.494 288.606 210.107 288.572 210.734C288.538 211.361 288.617 211.99 288.806 212.582L300.462 249.367C300.828 250.497 301.57 251.428 302.536 251.972C303.503 252.515 304.62 252.63 305.661 252.291L441.803 208.441C442.859 208.1 443.754 207.319 444.301 206.264C444.848 205.208 445.005 203.959 444.737 202.779L435.275 161.258C435.124 160.641 434.861 160.064 434.502 159.563C434.143 159.062 433.696 158.647 433.187 158.343C432.679 158.04 432.119 157.854 431.544 157.797C430.968 157.74 430.388 157.814 429.838 158.014ZM296.612 215.671C296.123 215.826 295.604 215.817 295.12 215.646C294.635 215.475 294.208 215.149 293.891 214.709C293.574 214.269 293.382 213.735 293.34 213.175C293.297 212.614 293.405 212.052 293.651 211.56C293.897 211.068 294.27 210.667 294.721 210.409C295.173 210.15 295.684 210.046 296.189 210.108C296.694 210.171 297.172 210.397 297.561 210.76C297.949 211.122 298.233 211.604 298.374 212.144C298.47 212.503 298.5 212.88 298.463 213.253C298.426 213.625 298.322 213.986 298.158 214.314C297.994 214.642 297.773 214.931 297.508 215.164C297.243 215.397 296.938 215.569 296.612 215.671Z" fill="url(#paint13_linear_8_1345)"/>
<path fill-rule="evenodd" clip-rule="evenodd" d="M429.653 157.585L291.325 206.112C290.784 206.304 290.283 206.614 289.852 207.025C289.422 207.435 289.07 207.936 288.817 208.5C288.565 209.063 288.418 209.677 288.384 210.305C288.35 210.932 288.431 211.561 288.621 212.153L300.295 248.948C300.66 250.078 301.402 251.009 302.368 251.553C303.335 252.096 304.453 252.211 305.493 251.872L441.636 208.022C442.692 207.681 443.587 206.9 444.134 205.845C444.681 204.789 444.837 203.54 444.57 202.36L435.116 160.917C434.974 160.289 434.717 159.699 434.36 159.186C434.003 158.673 433.554 158.246 433.042 157.933C432.529 157.62 431.963 157.428 431.38 157.368C430.797 157.308 430.209 157.382 429.653 157.585ZM296.418 215.262C295.929 215.417 295.41 215.408 294.925 215.237C294.441 215.066 294.014 214.739 293.697 214.299C293.38 213.86 293.188 213.326 293.145 212.765C293.103 212.205 293.211 211.643 293.457 211.151C293.703 210.658 294.075 210.258 294.527 209.999C294.979 209.741 295.49 209.637 295.995 209.699C296.5 209.761 296.978 209.988 297.366 210.35C297.755 210.713 298.039 211.194 298.18 211.734C298.276 212.094 298.306 212.471 298.269 212.843C298.232 213.216 298.128 213.577 297.964 213.905C297.8 214.233 297.579 214.522 297.314 214.755C297.049 214.987 296.744 215.16 296.418 215.262Z" fill="#DBDBDB"/>
<path fill-rule="evenodd" clip-rule="evenodd" d="M330.957 238.785L313.873 244.281L302.877 207.632L320.111 201.61L330.957 238.785Z" fill="#698620"/>
<path fill-rule="evenodd" clip-rule="evenodd" d="M350.913 232.363L333.37 238.005L322.542 200.762L340.243 194.584L350.913 232.363Z" fill="#709142"/>
<path fill-rule="evenodd" clip-rule="evenodd" d="M371.398 225.776L353.38 231.574L342.736 193.717L360.922 187.373L371.398 225.776Z" fill="#9DB06C"/>
<path fill-rule="evenodd" clip-rule="evenodd" d="M392.438 219.004L373.926 224.958L363.476 186.477L382.173 179.948L392.438 219.004Z" fill="#B7CA30"/>
<path fill-rule="evenodd" clip-rule="evenodd" d="M414.059 212.046L395.045 218.166L384.807 179.032L404.023 172.318L414.059 212.046Z" fill="#DCCA30"/>
<path fill-rule="evenodd" clip-rule="evenodd" d="M436.297 204.894L416.737 211.189L406.728 171.383L426.499 164.474L436.297 204.894Z" fill="#E3D445"/>
<path fill-rule="evenodd" clip-rule="evenodd" d="M417.538 128.537L291.264 207.671C290.77 207.983 290.338 208.401 289.994 208.901C289.649 209.401 289.399 209.972 289.257 210.581C289.116 211.19 289.087 211.824 289.171 212.445C289.255 213.067 289.452 213.664 289.748 214.2L308.066 247.526C308.632 248.553 309.533 249.303 310.583 249.62C311.633 249.937 312.753 249.798 313.713 249.231L438.71 175.173C439.671 174.587 440.39 173.613 440.718 172.456C441.046 171.298 440.958 170.045 440.472 168.957L423.485 130.544C423.229 129.965 422.868 129.45 422.424 129.032C421.98 128.614 421.463 128.301 420.906 128.113C420.348 127.924 419.762 127.865 419.182 127.938C418.603 128.011 418.043 128.215 417.538 128.537ZM297.951 215.437C297.503 215.699 296.995 215.808 296.491 215.752C295.987 215.695 295.51 215.476 295.118 215.12C294.726 214.765 294.439 214.29 294.29 213.754C294.142 213.219 294.14 212.646 294.284 212.11C294.429 211.573 294.713 211.095 295.102 210.736C295.491 210.377 295.967 210.153 296.471 210.092C296.974 210.032 297.483 210.136 297.932 210.394C298.382 210.651 298.753 211.05 298.999 211.54C299.166 211.871 299.27 212.235 299.308 212.612C299.345 212.988 299.314 213.369 299.216 213.732C299.118 214.095 298.956 214.433 298.739 214.726C298.522 215.019 298.254 215.261 297.951 215.437Z" fill="url(#paint14_linear_8_1345)"/>
<path fill-rule="evenodd" clip-rule="evenodd" d="M417.318 128.157L291.026 207.291C290.534 207.605 290.104 208.024 289.761 208.524C289.418 209.024 289.168 209.595 289.027 210.203C288.886 210.811 288.856 211.444 288.939 212.065C289.022 212.686 289.216 213.283 289.511 213.82L307.819 247.146C308.384 248.173 309.283 248.922 310.332 249.239C311.38 249.556 312.499 249.417 313.458 248.851L438.455 174.793C439.419 174.21 440.141 173.237 440.469 172.078C440.798 170.919 440.708 169.664 440.217 168.576L423.195 130.115C422.934 129.551 422.573 129.05 422.133 128.644C421.693 128.238 421.183 127.934 420.634 127.751C420.085 127.569 419.508 127.51 418.939 127.58C418.369 127.649 417.818 127.846 417.318 128.157ZM297.713 215.057C297.265 215.317 296.757 215.425 296.253 215.367C295.75 215.309 295.273 215.088 294.882 214.732C294.491 214.375 294.205 213.899 294.058 213.364C293.911 212.828 293.91 212.256 294.055 211.719C294.201 211.183 294.486 210.706 294.876 210.348C295.265 209.99 295.741 209.768 296.245 209.708C296.748 209.648 297.256 209.754 297.706 210.012C298.155 210.27 298.525 210.67 298.771 211.16C298.937 211.491 299.041 211.856 299.077 212.233C299.114 212.61 299.082 212.991 298.984 213.355C298.885 213.718 298.722 214.055 298.504 214.348C298.286 214.64 298.017 214.881 297.713 215.057Z" fill="#DBDBDB"/>
<path fill-rule="evenodd" clip-rule="evenodd" d="M335.908 230.19L320.225 239.477L302.612 206.131L318.339 196.299L335.908 230.19Z" fill="#355D84"/>
<path fill-rule="evenodd" clip-rule="evenodd" d="M354.225 219.345L338.128 228.875L320.568 194.916L336.727 184.82L354.225 219.345Z" fill="#FEBB00"/>
<path fill-rule="evenodd" clip-rule="evenodd" d="M373.037 208.207L356.499 218L339.001 183.398L355.6 173.03L373.037 208.207Z" fill="#5B5BFA"/>
<path fill-rule="evenodd" clip-rule="evenodd" d="M392.358 196.767L375.362 206.823L357.943 171.568L375.001 160.908L392.358 196.767Z" fill="#8C8FFB"/>
<path fill-rule="evenodd" clip-rule="evenodd" d="M412.209 185.015L394.746 195.354L377.406 159.407L394.957 148.444L412.209 185.015Z" fill="#BDB8FC"/>
<path fill-rule="evenodd" clip-rule="evenodd" d="M432.623 172.923L414.675 183.554L397.424 146.895L415.477 135.621L432.623 172.923Z" fill="#E48BEF"/>
<g style="mix-blend-mode:multiply" opacity="0.5">
<path fill-rule="evenodd" clip-rule="evenodd" d="M399.908 103.006L290.145 208.041C289.718 208.456 289.371 208.961 289.123 209.526C288.875 210.091 288.732 210.705 288.701 211.332C288.671 211.959 288.754 212.587 288.946 213.178C289.138 213.769 289.435 214.312 289.819 214.775L313.687 243.521C314.425 244.407 315.442 244.946 316.529 245.028C317.615 245.109 318.689 244.727 319.528 243.959L428.94 144.186C429.789 143.411 430.333 142.301 430.458 141.091C430.583 139.88 430.279 138.664 429.609 137.696L406.085 103.688C405.73 103.179 405.285 102.755 404.777 102.443C404.269 102.131 403.708 101.937 403.13 101.873C402.551 101.809 401.967 101.877 401.413 102.071C400.859 102.266 400.347 102.585 399.908 103.006ZM298.083 214.21C297.69 214.567 297.21 214.788 296.704 214.844C296.198 214.899 295.688 214.788 295.239 214.523C294.79 214.258 294.422 213.852 294.181 213.356C293.941 212.86 293.839 212.297 293.888 211.737C293.937 211.176 294.136 210.645 294.458 210.21C294.781 209.774 295.212 209.454 295.699 209.29C296.186 209.126 296.706 209.126 297.193 209.288C297.68 209.451 298.112 209.77 298.436 210.205C298.869 210.787 299.075 211.537 299.009 212.288C298.943 213.039 298.61 213.73 298.083 214.21Z" fill="#9E4A9E"/>
</g>
<path fill-rule="evenodd" clip-rule="evenodd" d="M399.494 102.129L289.74 207.164C289.313 207.579 288.965 208.084 288.718 208.649C288.47 209.214 288.326 209.828 288.296 210.455C288.266 211.082 288.349 211.71 288.541 212.301C288.733 212.892 289.029 213.435 289.413 213.898L313.282 242.595C314.019 243.478 315.035 244.016 316.119 244.097C317.204 244.179 318.275 243.798 319.114 243.034L428.525 143.309C429.377 142.535 429.922 141.425 430.047 140.214C430.172 139.003 429.867 137.786 429.195 136.819L405.671 102.811C405.317 102.301 404.872 101.876 404.364 101.563C403.855 101.25 403.295 101.055 402.716 100.991C402.137 100.928 401.553 100.996 400.998 101.191C400.444 101.387 399.932 101.706 399.494 102.129ZM297.678 213.313C297.286 213.672 296.806 213.894 296.3 213.951C295.794 214.008 295.284 213.898 294.834 213.635C294.384 213.371 294.015 212.966 293.774 212.471C293.532 211.976 293.429 211.412 293.477 210.852C293.525 210.291 293.722 209.759 294.044 209.323C294.365 208.887 294.796 208.566 295.283 208.401C295.769 208.235 296.289 208.233 296.777 208.395C297.264 208.556 297.697 208.874 298.022 209.308C298.454 209.891 298.66 210.639 298.596 211.389C298.531 212.139 298.202 212.831 297.678 213.313Z" fill="url(#paint15_linear_8_1345)"/>
<path fill-rule="evenodd" clip-rule="evenodd" d="M399.195 101.808L289.44 206.833C289.014 207.248 288.666 207.752 288.418 208.317C288.171 208.883 288.027 209.497 287.997 210.124C287.966 210.751 288.05 211.379 288.242 211.97C288.434 212.561 288.73 213.104 289.114 213.566L312.983 242.264C313.718 243.15 314.733 243.691 315.818 243.775C316.903 243.858 317.976 243.478 318.815 242.712L428.226 142.988C429.077 142.213 429.623 141.104 429.749 139.894C429.876 138.684 429.573 137.466 428.905 136.498L405.371 102.49C405.018 101.978 404.574 101.552 404.066 101.238C403.558 100.924 402.996 100.729 402.417 100.665C401.838 100.601 401.253 100.67 400.699 100.866C400.145 101.063 399.633 101.383 399.195 101.808ZM297.379 213.001C296.987 213.36 296.507 213.582 296.001 213.639C295.495 213.697 294.984 213.587 294.535 213.323C294.085 213.06 293.716 212.654 293.475 212.159C293.233 211.664 293.13 211.1 293.178 210.54C293.226 209.98 293.423 209.448 293.745 209.011C294.066 208.575 294.497 208.254 294.984 208.089C295.47 207.923 295.99 207.922 296.478 208.083C296.965 208.245 297.398 208.562 297.723 208.996C298.157 209.578 298.365 210.326 298.3 211.077C298.236 211.829 297.904 212.52 297.379 213.001Z" fill="#DBDBDB"/>
<path fill-rule="evenodd" clip-rule="evenodd" d="M337.512 219.54L323.784 232.052L300.585 203.189L314.269 190.131L337.512 219.54Z" fill="#74005A"/>
<path fill-rule="evenodd" clip-rule="evenodd" d="M353.556 204.923L339.459 217.766L316.207 188.28L330.251 174.871L353.556 204.923Z" fill="#B8005A"/>
<path fill-rule="evenodd" clip-rule="evenodd" d="M370.014 189.917L355.538 203.111L332.233 172.991L346.665 159.212L370.014 189.917Z" fill="#DF665C"/>
<path fill-rule="evenodd" clip-rule="evenodd" d="M386.922 174.501L372.049 188.056L348.701 157.273L363.538 143.114L386.922 174.501Z" fill="#E5908B"/>
<path fill-rule="evenodd" clip-rule="evenodd" d="M404.306 158.657L389.019 172.591L365.635 141.117L380.887 126.559L404.306 158.657Z" fill="#EFC2B8"/>
<path fill-rule="evenodd" clip-rule="evenodd" d="M422.174 142.374L406.455 156.698L383.036 124.502L398.728 109.525L422.174 142.374Z" fill="#F3D68F"/>
<g style="mix-blend-mode:multiply" opacity="0.5">
<path fill-rule="evenodd" clip-rule="evenodd" d="M388.604 92.0633L290.004 209.883C289.619 210.345 289.322 210.887 289.129 211.478C288.936 212.069 288.852 212.696 288.882 213.323C288.912 213.951 289.054 214.565 289.301 215.131C289.548 215.696 289.895 216.201 290.321 216.616L316.269 241.806C317.086 242.598 318.147 243.014 319.233 242.969C320.319 242.923 321.349 242.42 322.11 241.562L421.406 129.628C422.176 128.757 422.61 127.591 422.618 126.373C422.627 125.156 422.208 123.983 421.451 123.099L394.816 92.0243C394.415 91.5568 393.932 91.1852 393.397 90.9325C392.861 90.6797 392.285 90.5512 391.702 90.5548C391.12 90.5585 390.545 90.6942 390.012 90.9537C389.479 91.2132 389 91.5908 388.604 92.0633ZM298.48 215.087C298.121 215.482 297.664 215.752 297.167 215.861C296.67 215.97 296.155 215.913 295.686 215.698C295.218 215.484 294.818 215.12 294.537 214.654C294.255 214.188 294.105 213.64 294.105 213.079C294.105 212.519 294.255 211.971 294.537 211.504C294.818 211.038 295.218 210.675 295.686 210.46C296.155 210.245 296.67 210.189 297.167 210.298C297.664 210.406 298.121 210.676 298.48 211.072C298.72 211.335 298.91 211.647 299.04 211.992C299.17 212.336 299.236 212.706 299.236 213.079C299.236 213.452 299.17 213.822 299.04 214.167C298.91 214.511 298.72 214.824 298.48 215.087Z" fill="#9E4A9E"/>
</g>
<path fill-rule="evenodd" clip-rule="evenodd" d="M388.102 91.5079L289.493 209.337C289.108 209.799 288.81 210.342 288.618 210.933C288.425 211.525 288.341 212.153 288.372 212.78C288.402 213.408 288.546 214.022 288.795 214.587C289.043 215.153 289.392 215.657 289.819 216.071L315.758 241.25C316.577 242.042 317.638 242.459 318.725 242.415C319.812 242.372 320.843 241.872 321.608 241.016L420.896 129.082C421.667 128.211 422.103 127.044 422.113 125.825C422.123 124.606 421.706 123.43 420.949 122.544L394.305 91.5079C393.908 91.0382 393.428 90.6637 392.894 90.4077C392.361 90.1517 391.785 90.0196 391.204 90.0196C390.622 90.0196 390.047 90.1517 389.513 90.4077C388.98 90.6637 388.5 91.0382 388.102 91.5079ZM297.978 214.541C297.618 214.939 297.16 215.21 296.661 215.319C296.162 215.429 295.644 215.373 295.174 215.157C294.704 214.942 294.302 214.577 294.02 214.109C293.737 213.642 293.586 213.091 293.586 212.529C293.586 211.966 293.737 211.416 294.02 210.948C294.302 210.48 294.704 210.115 295.174 209.9C295.644 209.685 296.162 209.628 296.661 209.738C297.16 209.848 297.618 210.119 297.978 210.516C298.217 210.781 298.406 211.094 298.536 211.44C298.665 211.785 298.732 212.155 298.732 212.529C298.732 212.902 298.665 213.272 298.536 213.618C298.406 213.963 298.217 214.277 297.978 214.541Z" fill="url(#paint16_linear_8_1345)"/>
<path fill-rule="evenodd" clip-rule="evenodd" d="M387.811 91.196L289.202 209.026C288.817 209.488 288.519 210.03 288.327 210.621C288.134 211.213 288.05 211.841 288.081 212.468C288.111 213.096 288.255 213.71 288.504 214.276C288.752 214.841 289.101 215.345 289.528 215.759L315.467 240.939C316.286 241.731 317.348 242.148 318.436 242.102C319.523 242.057 320.554 241.554 321.317 240.695L420.605 128.761C421.375 127.891 421.811 126.726 421.821 125.508C421.831 124.291 421.414 123.117 420.658 122.232L394.014 91.1571C393.614 90.6911 393.131 90.3208 392.597 90.069C392.062 89.8172 391.486 89.6891 390.905 89.6928C390.324 89.6964 389.75 89.8317 389.218 90.0902C388.686 90.3488 388.207 90.7251 387.811 91.196ZM297.687 214.229C297.327 214.627 296.869 214.898 296.37 215.008C295.871 215.117 295.353 215.061 294.883 214.846C294.413 214.63 294.011 214.265 293.729 213.798C293.446 213.33 293.295 212.78 293.295 212.217C293.295 211.654 293.446 211.104 293.729 210.636C294.011 210.168 294.413 209.804 294.883 209.588C295.353 209.373 295.871 209.316 296.37 209.426C296.869 209.536 297.327 209.807 297.687 210.205C298.167 210.74 298.437 211.463 298.437 212.217C298.437 212.971 298.167 213.694 297.687 214.229Z" fill="#FEBB00"/>
<path fill-rule="evenodd" clip-rule="evenodd" d="M292.682 208.801C292.081 209.494 291.677 210.367 291.523 211.312C291.368 212.257 291.47 213.231 291.814 214.112C292.159 214.993 292.731 215.742 293.459 216.265C294.188 216.788 295.039 217.061 295.907 217.05C296.775 217.039 297.621 216.745 298.339 216.204C299.056 215.664 299.613 214.901 299.94 214.011C300.266 213.122 300.348 212.145 300.174 211.204C300.001 210.264 299.58 209.4 298.964 208.723C298.55 208.267 298.057 207.907 297.515 207.664C296.973 207.421 296.393 207.299 295.808 207.306C295.224 207.314 294.646 207.45 294.109 207.706C293.573 207.963 293.088 208.335 292.682 208.801ZM297.493 213.995C297.175 214.343 296.772 214.58 296.333 214.675C295.895 214.77 295.44 214.719 295.028 214.528C294.615 214.338 294.262 214.017 294.014 213.606C293.767 213.195 293.634 212.711 293.634 212.217C293.634 211.722 293.767 211.239 294.014 210.828C294.262 210.416 294.615 210.095 295.028 209.905C295.44 209.715 295.895 209.664 296.333 209.759C296.772 209.854 297.175 210.09 297.493 210.438C297.705 210.671 297.874 210.948 297.989 211.254C298.104 211.559 298.163 211.886 298.163 212.217C298.163 212.548 298.104 212.875 297.989 213.18C297.874 213.485 297.705 213.762 297.493 213.995Z" fill="url(#paint17_linear_8_1345)"/>
<path fill-rule="evenodd" clip-rule="evenodd" d="M294.013 210.244C293.655 210.642 293.411 211.149 293.313 211.701C293.214 212.252 293.266 212.824 293.461 213.343C293.656 213.862 293.986 214.305 294.409 214.617C294.832 214.929 295.329 215.096 295.837 215.096C296.345 215.096 296.842 214.929 297.265 214.617C297.688 214.305 298.017 213.862 298.213 213.343C298.408 212.824 298.459 212.252 298.361 211.701C298.263 211.149 298.019 210.642 297.661 210.244C297.177 209.709 296.521 209.409 295.837 209.409C295.153 209.409 294.497 209.709 294.013 210.244ZM297.493 213.995C297.176 214.343 296.772 214.58 296.334 214.675C295.895 214.77 295.441 214.719 295.028 214.528C294.615 214.338 294.263 214.017 294.015 213.606C293.767 213.195 293.635 212.711 293.635 212.217C293.635 211.722 293.767 211.239 294.015 210.828C294.263 210.416 294.615 210.095 295.028 209.905C295.441 209.715 295.895 209.664 296.334 209.759C296.772 209.854 297.176 210.09 297.493 210.439C297.706 210.671 297.874 210.948 297.989 211.254C298.104 211.559 298.163 211.886 298.163 212.217C298.163 212.548 298.104 212.875 297.989 213.18C297.874 213.485 297.706 213.762 297.493 213.995Z" fill="url(#paint18_linear_8_1345)"/>
<path d="M363.728 145.365C363.02 144.596 362.541 143.731 362.291 142.768C362.035 141.797 362.015 140.836 362.233 139.884C362.457 138.924 362.899 138.072 363.559 137.329C364.334 136.455 365.202 135.899 366.161 135.662C367.121 135.425 368.085 135.537 369.051 135.999L367.939 137.253C367.305 137 366.682 136.957 366.072 137.122C365.469 137.28 364.909 137.65 364.392 138.233C363.896 138.792 363.569 139.423 363.41 140.123C363.252 140.824 363.28 141.538 363.493 142.266C363.699 142.986 364.094 143.663 364.677 144.295C365.253 144.921 365.872 145.344 366.534 145.566C367.189 145.78 367.832 145.793 368.462 145.605C369.093 145.416 369.656 145.042 370.153 144.483C370.669 143.9 370.997 143.277 371.135 142.615C371.273 141.937 371.221 141.25 370.981 140.553L372.093 139.299C372.522 140.352 372.639 141.411 372.443 142.477C372.24 143.535 371.751 144.501 370.976 145.375C370.316 146.119 369.558 146.628 368.702 146.902C367.845 147.161 366.979 147.162 366.104 146.904C365.229 146.646 364.437 146.133 363.728 145.365ZM378.885 136.481C378.225 137.225 377.467 137.734 376.611 138.008C375.747 138.275 374.875 138.283 373.993 138.033C373.11 137.768 372.315 137.251 371.607 136.483C370.898 135.714 370.419 134.848 370.17 133.885C369.92 132.907 369.911 131.942 370.142 130.99C370.366 130.03 370.808 129.178 371.468 128.435C372.134 127.683 372.899 127.175 373.763 126.908C374.619 126.634 375.485 126.625 376.36 126.883C377.236 127.141 378.031 127.658 378.746 128.434C379.461 129.21 379.944 130.079 380.194 131.042C380.443 132.005 380.456 132.966 380.231 133.926C380 134.878 379.551 135.73 378.885 136.481ZM378.062 135.589C378.558 135.029 378.886 134.399 379.044 133.698C379.209 132.99 379.185 132.272 378.972 131.544C378.765 130.809 378.374 130.128 377.798 129.503C377.214 128.87 376.592 128.45 375.93 128.244C375.268 128.022 374.622 128.006 373.991 128.194C373.361 128.382 372.794 128.76 372.291 129.328C371.788 129.895 371.457 130.529 371.299 131.23C371.141 131.93 371.165 132.648 371.371 133.384C371.577 134.104 371.972 134.78 372.555 135.413C373.132 136.039 373.751 136.462 374.413 136.684C375.081 136.898 375.731 136.911 376.361 136.722C376.999 136.526 377.566 136.148 378.062 135.589ZM383.764 129.114L386.253 126.308L387.023 127.145L383.607 130.997L376.346 123.119L377.274 122.073L383.764 129.114ZM391.305 122.479C390.645 123.222 389.887 123.731 389.031 124.006C388.168 124.272 387.295 124.281 386.413 124.031C385.53 123.765 384.735 123.248 384.027 122.48C383.319 121.711 382.839 120.846 382.59 119.883C382.34 118.905 382.331 117.94 382.562 116.987C382.787 116.027 383.229 115.176 383.888 114.432C384.554 113.681 385.319 113.172 386.183 112.905C387.039 112.631 387.905 112.623 388.78 112.88C389.656 113.138 390.451 113.655 391.166 114.431C391.881 115.207 392.364 116.077 392.614 117.039C392.863 118.002 392.876 118.964 392.652 119.924C392.42 120.876 391.971 121.728 391.305 122.479ZM390.482 121.586C390.978 121.026 391.306 120.396 391.464 119.695C391.629 118.987 391.605 118.269 391.392 117.541C391.185 116.806 390.794 116.126 390.218 115.5C389.634 114.867 389.012 114.448 388.35 114.241C387.688 114.02 387.042 114.003 386.412 114.191C385.781 114.38 385.214 114.758 384.711 115.325C384.208 115.892 383.877 116.526 383.719 117.227C383.561 117.928 383.585 118.646 383.791 119.381C383.997 120.101 384.392 120.778 384.975 121.411C385.552 122.036 386.171 122.459 386.833 122.681C387.501 122.895 388.151 122.908 388.782 122.72C389.419 122.523 389.986 122.146 390.482 121.586ZM399.77 112.774L395.108 111.462L393.986 112.727L396.955 115.948L396.027 116.994L388.766 109.117L391.061 106.529C391.598 105.924 392.144 105.516 392.699 105.305C393.26 105.087 393.793 105.048 394.296 105.187C394.799 105.327 395.255 105.619 395.665 106.064C396.165 106.606 396.463 107.246 396.559 107.982C396.663 108.711 396.494 109.461 396.055 110.233L400.882 111.521L399.77 112.774ZM393.226 111.902L394.592 110.361C395.096 109.793 395.348 109.232 395.35 108.678C395.344 108.115 395.13 107.604 394.706 107.145C394.275 106.677 393.816 106.458 393.329 106.485C392.848 106.505 392.352 106.802 391.842 107.377L390.476 108.918L393.226 111.902Z" fill="#59334D"/>
<path fill-rule="evenodd" clip-rule="evenodd" d="M400.622 232.773L403.627 264.452L432.174 252.807L428.306 222.434L400.622 232.773Z" fill="#9E4A9E"/>
<path fill-rule="evenodd" clip-rule="evenodd" d="M447.072 261.012L432.173 252.807L428.305 222.434L443.874 233.318L447.072 261.012Z" fill="#F3BAF3"/>
<path fill-rule="evenodd" clip-rule="evenodd" d="M403.626 264.452L428.693 271.858L447.072 261.012L432.173 252.807L403.626 264.452Z" fill="#822C82"/>
<path fill-rule="evenodd" clip-rule="evenodd" d="M254.603 366.983H179.342L185.598 335.976L185.827 334.865H195.201C195.402 335.9 195.667 336.919 195.994 337.915C197.8 343.46 203.201 354.549 217.519 354.549C226.796 354.549 231.968 349.901 234.832 345.116C236.683 342.032 237.887 338.53 238.356 334.865H248.153L250.797 348.098L254.603 366.983Z" fill="#DBDBDB"/>
<path fill-rule="evenodd" clip-rule="evenodd" d="M156.61 366.992C156.61 366.992 154.848 370.296 158.372 373.258H273.22C273.22 373.258 277.378 370.656 276.506 366.992H156.61Z" fill="#DBDBDB"/>
<path fill-rule="evenodd" clip-rule="evenodd" d="M82.6883 319.527L99.6665 171.412C100.051 168.133 101.499 165.119 103.742 162.932C105.986 160.746 108.87 159.534 111.861 159.524H324.198C327.218 159.535 330.129 160.772 332.38 162.999C334.631 165.226 336.064 168.289 336.41 171.607L351.388 319.79C351.573 321.69 351.395 323.612 350.866 325.431C350.337 327.25 349.468 328.925 348.316 330.349C347.164 331.773 345.754 332.914 344.178 333.697C342.602 334.479 340.895 334.887 339.167 334.894H94.8471C93.0994 334.892 91.3724 334.476 89.7815 333.677C88.1905 332.877 86.7722 331.711 85.6213 330.256C84.4704 328.801 83.6134 327.092 83.1076 325.242C82.6019 323.392 82.4589 321.443 82.6883 319.527Z" fill="url(#paint19_linear_8_1345)"/>
<path fill-rule="evenodd" clip-rule="evenodd" d="M82.2303 318.641L100.019 163.412C100.306 160.985 101.381 158.757 103.045 157.143C104.708 155.529 106.846 154.64 109.059 154.642H327.009C329.248 154.641 331.409 155.553 333.078 157.203C334.747 158.853 335.808 161.126 336.057 163.587L351.767 318.816C351.908 320.225 351.779 321.651 351.388 323.001C350.998 324.351 350.354 325.595 349.499 326.652C348.645 327.708 347.598 328.553 346.428 329.132C345.258 329.711 343.991 330.011 342.709 330.012H91.2701C89.9743 330.013 88.6933 329.708 87.5126 329.118C86.3318 328.528 85.2785 327.666 84.4229 326.589C83.5674 325.513 82.9292 324.247 82.5511 322.877C82.173 321.506 82.0637 320.062 82.2303 318.641Z" fill="#DBDBDB"/>
<g style="mix-blend-mode:soft-light" opacity="0.6">
<path fill-rule="evenodd" clip-rule="evenodd" d="M200.25 154.613L344.666 248.607L336.058 163.558C336.058 163.558 335.379 154.613 327.009 154.613H200.25Z" fill="white"/>
</g>
<g style="mix-blend-mode:soft-light" opacity="0.6">
<path fill-rule="evenodd" clip-rule="evenodd" d="M87.1996 275.307L166.751 329.983L89.7811 329.827C89.7811 329.827 82.3625 327.323 82.6885 319.527C83.0145 311.732 82.2303 318.553 82.2303 318.553L87.1996 275.307Z" fill="white"/>
</g>
<path fill-rule="evenodd" clip-rule="evenodd" d="M104.293 170.496L327.943 165.604L345.362 311.43H88.495L104.293 170.496Z" fill="#DBDBDB"/>
<path fill-rule="evenodd" clip-rule="evenodd" d="M107.491 311.43L119.94 182.053H315.308L327.458 311.43H107.491Z" fill="white"/>
<path fill-rule="evenodd" clip-rule="evenodd" d="M330.894 320.843V323.172H339.467V320.278L330.894 320.843Z" fill="url(#paint20_linear_8_1345)"/>
<path fill-rule="evenodd" clip-rule="evenodd" d="M330.894 320.843L336.568 320.531V323.172H330.894V320.843Z" fill="#FEBB00"/>
<path fill-rule="evenodd" clip-rule="evenodd" d="M306.224 240.023C279.951 240.023 270.568 190.852 241.404 193.084C212.241 195.315 209.465 240.023 196.329 240.023C183.192 240.023 182.954 215.359 164.998 216.519C147.042 217.679 139.984 240.023 139.984 240.023H306.224Z" fill="url(#paint21_linear_8_1345)"/>
<path fill-rule="evenodd" clip-rule="evenodd" d="M199.888 240.023H306.224C306.224 240.023 309.96 206.092 286.77 199.788C263.581 193.483 254.682 222.142 245.36 224.1C236.038 226.059 234.25 218.721 223.131 219.452C212.012 220.183 211.254 234.994 204.434 237.508C197.615 240.023 195.289 232.802 187.227 234.459C179.165 236.115 176.364 240.023 176.364 240.023H199.888Z" fill="url(#paint22_linear_8_1345)"/>
<path fill-rule="evenodd" clip-rule="evenodd" d="M123.112 185.386L122.663 188.563H147.756L148.259 185.386H123.112Z" fill="#9E4A9E"/>
<path fill-rule="evenodd" clip-rule="evenodd" d="M192.717 185.386L192.267 188.563H202.505L203.008 185.386H192.717Z" fill="#FEBB00"/>
<path fill-rule="evenodd" clip-rule="evenodd" d="M211.985 185.386L211.536 188.563H221.774L222.276 185.386H211.985Z" fill="#FEBB00"/>
<path fill-rule="evenodd" clip-rule="evenodd" d="M231.254 185.386L230.805 188.563H241.043L241.545 185.386H231.254Z" fill="#FEBB00"/>
<path fill-rule="evenodd" clip-rule="evenodd" d="M250.523 185.386L250.074 188.563H260.312L260.814 185.386H250.523Z" fill="#FEBB00"/>
<path fill-rule="evenodd" clip-rule="evenodd" d="M296.154 185.386L295.705 188.563H305.943L306.445 185.386H296.154Z" fill="#FEBB00"/>
<path fill-rule="evenodd" clip-rule="evenodd" d="M119.923 247.185L314.507 244.193L315.951 261.158L118.856 261.1L119.923 247.185Z" fill="#DBDBDB"/>
<path fill-rule="evenodd" clip-rule="evenodd" d="M174.047 307.892H141.976L146.443 264.276H176.593L174.047 307.892Z" fill="#FEBB00"/>
<path fill-rule="evenodd" clip-rule="evenodd" d="M152.557 276.067L151.165 291.268H167.544L168.584 276.116L152.557 276.067ZM164.892 288.56H154.222L155.103 278.64H165.676L164.892 288.56Z" fill="white"/>
<path fill-rule="evenodd" clip-rule="evenodd" d="M155.298 287.663H164.223L161.809 282.294L159.553 284.36L158.848 283.794L155.298 287.663Z" fill="white"/>
<path fill-rule="evenodd" clip-rule="evenodd" d="M159.932 281.807C159.887 282.259 159.695 282.677 159.392 282.984C159.089 283.29 158.695 283.465 158.284 283.474C158.092 283.48 157.901 283.441 157.723 283.36C157.545 283.279 157.385 283.157 157.252 283.002C157.12 282.847 157.019 282.664 156.955 282.463C156.892 282.262 156.867 282.048 156.883 281.836C156.935 281.385 157.133 280.97 157.441 280.668C157.749 280.367 158.146 280.2 158.557 280.199C158.746 280.196 158.932 280.236 159.106 280.316C159.279 280.397 159.435 280.517 159.565 280.668C159.694 280.82 159.793 280.999 159.856 281.195C159.92 281.391 159.945 281.599 159.932 281.807Z" fill="white"/>
<path fill-rule="evenodd" clip-rule="evenodd" d="M212.972 307.892H180.901L183.033 264.276H213.184L212.972 307.892Z" fill="#FEBB00"/>
<path fill-rule="evenodd" clip-rule="evenodd" d="M189.774 276.067L189.192 291.268H205.572L205.801 276.116L189.774 276.067ZM202.796 288.56H192.117L192.452 278.64H203.025L202.796 288.56Z" fill="white"/>
<path fill-rule="evenodd" clip-rule="evenodd" d="M193.13 287.663H202.065L199.36 282.294L197.219 284.36L196.479 283.794L193.13 287.663Z" fill="white"/>
<path fill-rule="evenodd" clip-rule="evenodd" d="M197.457 281.807C197.434 282.253 197.256 282.673 196.961 282.978C196.665 283.283 196.275 283.45 195.871 283.445C195.675 283.45 195.48 283.411 195.299 283.331C195.117 283.25 194.952 283.13 194.813 282.977C194.675 282.824 194.566 282.641 194.493 282.44C194.421 282.239 194.386 282.024 194.39 281.807C194.411 281.361 194.587 280.942 194.881 280.637C195.175 280.331 195.564 280.164 195.968 280.17C196.164 280.164 196.359 280.203 196.541 280.283C196.723 280.363 196.889 280.484 197.028 280.637C197.167 280.79 197.277 280.972 197.35 281.173C197.424 281.375 197.46 281.59 197.457 281.807Z" fill="white"/>
<path fill-rule="evenodd" clip-rule="evenodd" d="M251.899 307.892H219.827L219.616 264.276H249.766L251.899 307.892Z" fill="#FEBB00"/>
<path fill-rule="evenodd" clip-rule="evenodd" d="M227.007 276.067L227.236 291.22H243.616L243.034 276.067H227.007ZM240.69 288.56H230.003L229.809 278.601H240.382L240.69 288.56Z" fill="white"/>
<path fill-rule="evenodd" clip-rule="evenodd" d="M230.973 287.663H239.907L236.92 282.294L234.885 284.36L234.118 283.794L230.973 287.663Z" fill="white"/>
<path fill-rule="evenodd" clip-rule="evenodd" d="M234.981 281.807C234.985 282.024 234.949 282.24 234.875 282.441C234.801 282.642 234.692 282.824 234.552 282.977C234.413 283.13 234.248 283.251 234.065 283.331C233.883 283.411 233.688 283.45 233.492 283.445C233.089 283.45 232.699 283.283 232.405 282.977C232.111 282.672 231.935 282.253 231.915 281.807C231.912 281.59 231.95 281.374 232.024 281.173C232.099 280.972 232.21 280.789 232.349 280.636C232.489 280.483 232.655 280.363 232.838 280.283C233.021 280.203 233.216 280.164 233.413 280.17C233.815 280.164 234.204 280.332 234.496 280.637C234.789 280.943 234.963 281.362 234.981 281.807Z" fill="white"/>
<path fill-rule="evenodd" clip-rule="evenodd" d="M290.824 307.892H258.752L256.206 264.276H286.356L290.824 307.892Z" fill="#FEBB00"/>
<path fill-rule="evenodd" clip-rule="evenodd" d="M264.215 276.067L265.254 291.268H281.634L280.242 276.116L264.215 276.067ZM278.576 288.56H267.889L267.166 278.601H277.739L278.576 288.56Z" fill="white"/>
<path fill-rule="evenodd" clip-rule="evenodd" d="M268.814 287.663H277.74L274.471 282.294L272.55 284.36L271.748 283.794L268.814 287.663Z" fill="white"/>
<path fill-rule="evenodd" clip-rule="evenodd" d="M272.515 281.807C272.531 282.02 272.507 282.234 272.442 282.436C272.378 282.638 272.276 282.822 272.143 282.977C272.01 283.131 271.848 283.253 271.67 283.334C271.491 283.414 271.298 283.452 271.105 283.445C270.695 283.443 270.299 283.276 269.993 282.974C269.686 282.673 269.489 282.258 269.44 281.807C269.424 281.594 269.448 281.38 269.512 281.178C269.577 280.976 269.679 280.792 269.812 280.637C269.945 280.483 270.106 280.361 270.285 280.28C270.464 280.2 270.657 280.162 270.85 280.17C271.26 280.171 271.656 280.338 271.962 280.64C272.269 280.941 272.466 281.356 272.515 281.807Z" fill="white"/>
<path d="M203.356 223.04C206.615 219.436 206.615 213.593 203.356 209.99C200.098 206.386 194.815 206.386 191.557 209.99C188.298 213.593 188.298 219.436 191.557 223.04C194.815 226.644 200.098 226.644 203.356 223.04Z" fill="url(#paint23_linear_8_1345)"/>
<path d="M179.518 219.452C181.975 219.452 183.968 217.249 183.968 214.531C183.968 211.813 181.975 209.61 179.518 209.61C177.061 209.61 175.069 211.813 175.069 214.531C175.069 217.249 177.061 219.452 179.518 219.452Z" fill="#9E4A9E"/>
<path fill-rule="evenodd" clip-rule="evenodd" d="M139.914 232.549C139.916 233.15 139.756 233.739 139.455 234.24C139.154 234.742 138.725 235.133 138.223 235.364C137.721 235.596 137.168 235.658 136.634 235.541C136.1 235.425 135.61 235.136 135.224 234.712C134.839 234.287 134.576 233.745 134.47 233.155C134.363 232.565 134.417 231.953 134.625 231.397C134.832 230.841 135.185 230.366 135.637 230.031C136.089 229.697 136.621 229.518 137.165 229.518C137.893 229.518 138.591 229.837 139.106 230.405C139.621 230.973 139.912 231.744 139.914 232.549Z" fill="#FEBB00"/>
<path d="M107.711 311.449L107.271 311.4L119.746 181.809H315.511L315.529 182.024L327.679 311.4L327.238 311.449L315.115 182.297H120.143L107.711 311.449Z" fill="#160029"/>
<g style="mix-blend-mode:soft-light" opacity="0.6">
<path fill-rule="evenodd" clip-rule="evenodd" d="M230.805 169.561L334.471 232.607L327.458 166.637L230.805 169.561Z" fill="white"/>
</g>
<g style="mix-blend-mode:multiply" opacity="0.5">
<path fill-rule="evenodd" clip-rule="evenodd" d="M214.038 241.114L215.589 291.405H323.59L317.423 240.071L214.038 241.114Z" fill="#7449AB"/>
</g>
<path fill-rule="evenodd" clip-rule="evenodd" d="M222.276 225.747L223.571 278.64H332.63L327.194 225.747H222.276Z" fill="white"/>
<path fill-rule="evenodd" clip-rule="evenodd" d="M222.488 234.517H328.092L327.194 225.747H222.276L222.488 234.517Z" fill="#FEBB00"/>
<path d="M332.886 278.883H223.36V278.601L222.056 225.464H327.388V225.679L332.886 278.883ZM223.783 278.396H332.383L326.991 225.981H222.505L223.783 278.396Z" fill="#160029"/>
<path fill-rule="evenodd" clip-rule="evenodd" d="M253.22 251.716H242.77L242.056 240.071H252.506L253.22 251.716Z" fill="#8F00F9"/>
<path fill-rule="evenodd" clip-rule="evenodd" d="M265.448 251.716H254.999L254.285 240.071H264.743L265.448 251.716Z" fill="#DA00F9"/>
<path fill-rule="evenodd" clip-rule="evenodd" d="M277.52 251.716H267.061L266.347 240.071H276.806L277.52 251.716Z" fill="#DF60FA"/>
<path fill-rule="evenodd" clip-rule="evenodd" d="M289.581 251.716H279.131L278.418 240.071H288.867L289.581 251.716Z" fill="#E384FA"/>
<path fill-rule="evenodd" clip-rule="evenodd" d="M301.643 251.716H291.193L290.48 240.071H300.938L301.643 251.716Z" fill="#EAADFB"/>
<path fill-rule="evenodd" clip-rule="evenodd" d="M313.714 251.716H303.255L302.55 240.071H313L313.714 251.716Z" fill="#F4D9FD"/>
<path fill-rule="evenodd" clip-rule="evenodd" d="M254.092 265.865H243.633L242.92 254.22H253.378L254.092 265.865Z" fill="#3F57FA"/>
<path fill-rule="evenodd" clip-rule="evenodd" d="M266.32 265.865H255.862L255.148 254.22H265.607L266.32 265.865Z" fill="#588CFA"/>
<path fill-rule="evenodd" clip-rule="evenodd" d="M278.383 265.865H267.933L267.219 254.22H277.669L278.383 265.865Z" fill="#8495FB"/>
<path fill-rule="evenodd" clip-rule="evenodd" d="M290.445 265.865H279.995L279.281 254.22H289.731L290.445 265.865Z" fill="#C8C0FC"/>
<path fill-rule="evenodd" clip-rule="evenodd" d="M302.515 265.865H292.056L291.343 254.22H301.801L302.515 265.865Z" fill="#FEBB00"/>
<path fill-rule="evenodd" clip-rule="evenodd" d="M314.577 265.865H304.127L303.414 254.22H313.863L314.577 265.865Z" fill="#FFE18C"/>
<g style="mix-blend-mode:soft-light">
<path fill-rule="evenodd" clip-rule="evenodd" d="M317.802 226.848L318.41 233.406H326.921L326.242 226.848H317.802Z" fill="#D4C0FC"/>
</g>
<g style="mix-blend-mode:soft-light" opacity="0.6">
<path fill-rule="evenodd" clip-rule="evenodd" d="M195.95 341.481C195.95 341.481 202.118 355.445 216.4 355.445C220.417 355.544 224.393 354.524 227.961 352.481C231.53 350.438 234.577 347.437 236.823 343.752C236.823 343.752 230.392 356.683 216.391 356.683C201.756 356.663 195.95 341.481 195.95 341.481Z" fill="white"/>
</g>
<path fill-rule="evenodd" clip-rule="evenodd" d="M221.924 354.813C224.81 354.182 227.558 352.934 230.012 351.138C230.012 351.138 227.008 355.7 221.924 354.813Z" fill="white"/>
<path d="M320.775 227.736L320.197 228.471L324.325 232.444L324.903 231.709L320.775 227.736Z" fill="white"/>
<path d="M323.979 227.758L320.384 231.734L321.007 232.423L324.602 228.447L323.979 227.758Z" fill="white"/>
<path fill-rule="evenodd" clip-rule="evenodd" d="M226.629 363.572L235.351 382.876L332.586 385C332.586 385 335.943 379.855 335.934 379.455C335.723 370.997 329.273 347.893 299.546 341.452C264.647 333.91 226.629 363.572 226.629 363.572Z" fill="#9E4A9E"/>
<path style="mix-blend-mode:multiply" opacity="0.8" fill-rule="evenodd" clip-rule="evenodd" d="M229.598 369.311C229.598 369.311 242.55 362.637 262.197 368.279C281.845 373.921 292.559 378.744 293.713 380.06C294.867 381.375 292.303 382.427 292.303 382.427L315.643 380.479C315.643 380.479 309.528 381.667 294.162 375.84C278.797 370.013 268.611 345.535 226.611 363.611L229.598 369.311Z" fill="url(#paint24_linear_8_1345)"/>
<g style="mix-blend-mode:multiply" opacity="0.5">
<g style="mix-blend-mode:multiply" opacity="0.5">
<path d="M319.185 380.917C313.041 380.876 306.917 380.132 300.912 378.695C294.841 377.282 290.075 373.258 285.053 369C273.599 359.255 260.533 348.312 226.823 364.069L226.479 363.173C260.656 347.192 273.907 358.369 285.59 368.23C290.551 372.42 295.282 376.376 301.115 377.74C323.362 382.905 335.476 377.39 335.573 377.331L335.917 378.228C335.811 378.218 330.031 380.917 319.185 380.917Z" fill="#FEBB00"/>
</g>
</g>
<path d="M231.853 363.377C239.381 357.529 248.543 354.831 257.704 355.767C262.252 356.198 266.712 357.415 270.92 359.372C275.09 361.416 279.01 364.035 282.585 367.168C286.206 370.189 289.836 373.239 293.924 375.402C295.957 376.498 298.07 377.401 300.242 378.101C302.423 378.777 304.642 379.294 306.885 379.65C311.386 380.295 315.928 380.507 320.462 380.284C324.991 380.118 329.52 379.641 334.022 379.007C325.053 380.41 315.898 381.287 306.85 379.982C304.59 379.632 302.353 379.121 300.154 378.452C297.96 377.757 295.824 376.861 293.766 375.772C289.634 373.609 285.96 370.559 282.312 367.558C278.762 364.446 274.879 361.828 270.752 359.762C266.583 357.797 262.163 356.56 257.651 356.098C253.133 355.642 248.578 356.038 244.179 357.267C239.766 358.448 235.587 360.519 231.853 363.377Z" fill="#FEBB00"/>
<path fill-rule="evenodd" clip-rule="evenodd" d="M271.555 343.178L277.035 342.408C277.035 342.408 264.533 335.965 255.008 342.944C254.982 342.915 263.431 339.688 271.555 343.178Z" fill="url(#paint25_radial_8_1345)"/>
<g style="mix-blend-mode:multiply" opacity="0.5">
<g style="mix-blend-mode:multiply" opacity="0.5">
<path d="M239.439 355.757L239.228 355.328C261.044 342.349 275.67 341.54 287.106 342.485V342.963C275.705 342.037 261.149 342.836 239.439 355.757Z" fill="#FEBB00"/>
</g>
</g>
<path fill-rule="evenodd" clip-rule="evenodd" d="M246.998 351.148C246.998 351.148 255.615 334.855 271.554 343.177C263.128 344.825 254.893 347.499 246.998 351.148Z" fill="#662C66"/>
<g style="mix-blend-mode:multiply" opacity="0.5">
<g style="mix-blend-mode:multiply" opacity="0.5">
<path d="M260.056 355.971L259.809 355.572C260.047 355.387 284.295 336.755 304.577 342.514L304.471 342.992C284.392 337.282 260.303 355.786 260.056 355.971Z" fill="#FEBB00"/>
</g>
</g>
<path fill-rule="evenodd" clip-rule="evenodd" d="M290.559 343.43C290.559 343.43 310.709 345.058 324.348 368.006H326.895C326.895 368.006 316.154 346.295 291.898 343.177L290.559 343.43Z" fill="#FEBB00"/>
<path fill-rule="evenodd" clip-rule="evenodd" d="M257.404 341.443C257.404 341.443 264.611 337.593 274.25 342.807L275.827 342.564C275.827 342.564 266.144 337.349 257.404 341.443Z" fill="url(#paint26_linear_8_1345)"/>
<path fill-rule="evenodd" clip-rule="evenodd" d="M74.3363 122.904C72.6575 122.149 70.8252 121.911 69.0338 122.215C67.2425 122.519 65.5591 123.354 64.1623 124.631C62.7654 125.908 61.7074 127.58 61.1004 129.469C60.4934 131.357 60.3601 133.392 60.7148 135.358L86.5394 165.916L90.9448 160.469L96.6718 156.669L74.3363 122.904Z" fill="url(#paint27_linear_8_1345)"/>
<path fill-rule="evenodd" clip-rule="evenodd" d="M87.3403 174.774C87.3403 174.774 91.64 161.229 104.742 158.871C104.742 158.871 100.134 166.54 87.3403 174.774Z" fill="url(#paint28_linear_8_1345)"/>
<path fill-rule="evenodd" clip-rule="evenodd" d="M87.3407 174.774L83.7283 170.681C83.7283 170.681 88.1337 156.191 102.363 154.369L104.742 158.871C104.742 158.871 92.5039 161.921 87.3407 174.774Z" fill="url(#paint29_linear_8_1345)"/>
<path style="mix-blend-mode:screen" fill-rule="evenodd" clip-rule="evenodd" d="M60.715 135.358C62.001 132.289 63.8919 129.578 66.249 127.423C68.6061 125.268 71.3695 123.724 74.3366 122.904C74.3366 122.904 68.213 121.092 64.16 124.629C60.107 128.166 60.715 135.358 60.715 135.358Z" fill="url(#paint30_linear_8_1345)"/>
<path fill-rule="evenodd" clip-rule="evenodd" d="M124.461 202.302C124.854 202.389 125.242 202.5 125.624 202.633C131.606 204.68 128.223 209.62 128.223 209.62C128.223 209.62 123.818 212.037 122.69 206.638C122.524 205.816 122.441 204.976 122.443 204.134C120.346 204.038 118.27 203.621 116.276 202.896C113.985 201.844 91.3057 170.184 91.3057 170.184C91.3057 170.184 92.1251 168.128 95.1472 165.312C96.612 163.889 98.307 162.784 100.143 162.057C100.143 162.057 123.994 192.655 124.505 195.335C124.781 197.648 124.767 199.993 124.461 202.302Z" fill="url(#paint31_linear_8_1345)"/>
<path fill-rule="evenodd" clip-rule="evenodd" d="M105.473 187.627C107.287 184.633 109.483 181.945 111.993 179.646C111.993 179.646 122.698 193.288 123.244 195.422C123.79 197.556 123.773 201.269 122.786 202.331C121.799 203.393 118.292 203.403 116.16 201.483C114.028 199.564 105.473 187.627 105.473 187.627Z" fill="url(#paint32_linear_8_1345)"/>
<path fill-rule="evenodd" clip-rule="evenodd" d="M123.728 204.105C122.733 205.459 124.962 210.75 127.544 208.694C130.125 206.638 125.561 201.62 123.728 204.105Z" fill="url(#paint33_linear_8_1345)"/>
<g style="mix-blend-mode:multiply" opacity="0.5">
<path fill-rule="evenodd" clip-rule="evenodd" d="M94.4947 174.569C94.4947 174.569 97.7724 167.524 103.473 166.364L101.314 163.207L104.742 158.871C104.742 158.871 92.8823 161.941 87.3403 174.774L92.0189 171.529L94.4947 174.569Z" fill="white"/>
</g>
<g style="mix-blend-mode:multiply" opacity="0.5">
<path fill-rule="evenodd" clip-rule="evenodd" d="M124.46 202.302C124.853 202.389 125.241 202.5 125.623 202.633C125.394 202.633 122.39 202.214 122.698 206.638C122.532 205.816 122.449 204.976 122.451 204.134C120.354 204.038 118.278 203.621 116.284 202.896C116.284 202.896 122.09 199.837 124.513 195.383C124.783 197.681 124.765 200.009 124.46 202.302Z" fill="white"/>
</g>
<g style="mix-blend-mode:multiply" opacity="0.5">
<path fill-rule="evenodd" clip-rule="evenodd" d="M83.094 161.843C83.094 161.843 84.7945 164.464 90.2396 159.534C95.6847 154.603 93.4555 151.826 93.4555 151.826L96.2838 156.104C96.2838 156.104 90.5215 158.052 86.1778 165.487L83.094 161.843Z" fill="#E8A0BB"/>
</g>
<path style="mix-blend-mode:screen" opacity="0.5" fill-rule="evenodd" clip-rule="evenodd" d="M79.8693 142.179C85.3144 149.458 88.2396 156.708 86.4158 158.384C84.5919 160.06 78.6975 155.46 73.2612 148.22C67.8249 140.98 64.8909 133.682 66.7148 132.015C68.5386 130.349 74.4507 134.851 79.8693 142.179Z" fill="url(#paint34_radial_8_1345)"/>
<path style="mix-blend-mode:screen" opacity="0.5" fill-rule="evenodd" clip-rule="evenodd" d="M85.2087 139.801C90.4952 147.246 94.0636 153.853 93.2618 154.545C92.46 155.236 87.5435 149.77 82.2923 142.315C77.041 134.861 73.4374 128.264 74.2392 127.562C75.041 126.861 79.9574 132.347 85.2087 139.801Z" fill="url(#paint35_radial_8_1345)"/>
<path fill-rule="evenodd" clip-rule="evenodd" d="M105.473 187.627C105.473 187.627 110.186 187.286 111.993 179.646C111.993 179.646 107.446 182.891 105.473 187.627Z" fill="#340734"/>
<path fill-rule="evenodd" clip-rule="evenodd" d="M356.145 70.5963C342.7 91.4981 313.396 131.012 313.396 131.012L314.48 131.898L284.893 175.748L283.81 174.852L282.162 177.259L280.752 190.053L282.189 191.242L283.634 192.431L294.339 187.315L295.995 184.869L294.911 183.973L324.489 140.123L325.572 141.019C325.572 141.019 351.476 98.7285 365.776 78.538C365.776 78.538 364.084 74.1823 362.128 72.8083C360.392 71.1518 356.145 70.5963 356.145 70.5963Z" fill="#FEBB00"/>
<path fill-rule="evenodd" clip-rule="evenodd" d="M283.81 174.793L283.537 173.595C283.537 173.595 301.511 150.705 312.551 130.622C312.551 130.622 319.229 133.272 326.366 141.458C326.366 141.458 309.044 164.25 296.876 185.123L295.995 184.869C295.995 184.869 286.85 178.233 283.81 174.793Z" fill="#9E4A9E"/>
<path fill-rule="evenodd" clip-rule="evenodd" d="M281.167 190.375L279.59 192.713C279.425 193.006 279.372 193.358 279.441 193.694C279.51 194.03 279.697 194.322 279.96 194.506C280.195 194.731 280.501 194.843 280.811 194.819C281.122 194.796 281.411 194.638 281.616 194.38L283.193 192.051L281.167 190.375Z" fill="url(#paint36_radial_8_1345)"/>
<g style="mix-blend-mode:multiply" opacity="0.5">
<path fill-rule="evenodd" clip-rule="evenodd" d="M313.907 130.281C313.907 130.281 321.74 133.497 326.718 139.217L325.687 140.717C325.687 140.717 319.819 133.438 313.352 130.973L313.907 130.281Z" fill="#FEBB00"/>
</g>
<path style="mix-blend-mode:screen" opacity="0.5" fill-rule="evenodd" clip-rule="evenodd" d="M358.534 71.0933C360.032 71.5903 318.886 128.897 318.005 130.359C317.123 131.821 314.833 130.69 314.833 130.69C316.868 131.689 318.851 132.815 320.771 134.062C320.771 134.062 318.833 131.957 319.194 130.885C319.555 129.813 358.79 73.2371 359.521 72.6719C360.235 72.352 361.022 72.2939 361.768 72.5062C360.749 71.8855 359.662 71.4107 358.534 71.0933Z" fill="url(#paint37_linear_8_1345)"/>
<path fill-rule="evenodd" clip-rule="evenodd" d="M349.415 80.711C353.135 82.4133 356.41 85.1204 358.939 88.5845L359.353 87.9706C357.022 84.2981 353.71 81.5245 349.882 80.0387L349.415 80.711Z" fill="url(#paint38_linear_8_1345)"/>
<path style="mix-blend-mode:screen" opacity="0.5" fill-rule="evenodd" clip-rule="evenodd" d="M282.162 177.259C285.203 181.913 289.458 185.429 294.356 187.334L283.651 192.45L280.752 190.053L282.162 177.259Z" fill="#9E4A9E"/>
<path fill-rule="evenodd" clip-rule="evenodd" d="M286.859 171.013C287.49 172.048 288.291 172.944 289.22 173.653L309.274 143.943L307.088 142.179C307.088 142.179 295.282 158.842 286.859 171.013Z" fill="url(#paint39_linear_8_1345)"/>
<path fill-rule="evenodd" clip-rule="evenodd" d="M287.22 171.558L296.612 157.692L297.493 157.77L297.167 156.795L307.361 142.374L309.256 143.933L289.22 173.653C289.22 173.653 287.572 172.503 287.22 171.558Z" fill="url(#paint40_radial_8_1345)"/>
<g style="mix-blend-mode:multiply">
<path fill-rule="evenodd" clip-rule="evenodd" d="M309.273 143.943L298.991 158.189L297.185 156.805L297.511 157.77L296.586 157.692L298.41 159.193L289.22 173.653L309.273 143.943Z" fill="#FEBB00"/>
</g>
<path fill-rule="evenodd" clip-rule="evenodd" d="M25.5512 373.677H101.702C105.969 373.677 110.069 371.842 113.136 368.56C116.202 365.278 117.994 360.805 118.134 356.088L121.79 251.677C121.864 249.24 121.493 246.812 120.7 244.537C119.907 242.261 118.708 240.186 117.175 238.434C115.642 236.682 113.805 235.289 111.775 234.338C109.745 233.387 107.563 232.898 105.358 232.899H21.8683L25.5512 373.677Z" fill="#9E4A9E"/>
<path fill-rule="evenodd" clip-rule="evenodd" d="M24.3617 373.268H100.512C104.781 373.268 108.883 371.431 111.949 368.147C115.016 364.863 116.807 360.388 116.944 355.669L120.601 251.258C120.673 248.822 120.301 246.394 119.508 244.121C118.714 241.847 117.515 239.772 115.982 238.021C114.449 236.27 112.613 234.878 110.584 233.928C108.554 232.978 106.373 232.489 104.169 232.49H20.6877L24.3617 373.268Z" fill="url(#paint41_linear_8_1345)"/>
<path fill-rule="evenodd" clip-rule="evenodd" d="M24.2472 370.89H97.8341C101.956 370.892 105.917 369.119 108.877 365.947C111.838 362.775 113.565 358.452 113.693 353.896L117.218 253.002C117.291 250.648 116.935 248.302 116.171 246.104C115.407 243.906 114.25 241.9 112.77 240.207C111.29 238.514 109.517 237.168 107.556 236.249C105.596 235.33 103.488 234.857 101.358 234.858H20.6877L24.2472 370.89Z" fill="url(#paint42_linear_8_1345)"/>
<g style="mix-blend-mode:multiply" opacity="0.5">
<path fill-rule="evenodd" clip-rule="evenodd" d="M113.605 355.387L107.817 355.328L110.76 249.455C110.76 249.455 109.72 243.034 105.588 239.038L97.8341 370.89C97.8341 370.89 111.024 371.173 113.605 355.387Z" fill="#FEBB00"/>
</g>
<path fill-rule="evenodd" clip-rule="evenodd" d="M13.463 373.677H89.6226C93.8899 373.677 97.99 371.842 101.056 368.56C104.123 365.278 105.915 360.805 106.055 356.088L109.711 251.677C109.782 249.241 109.409 246.814 108.615 244.54C107.822 242.266 106.623 240.191 105.09 238.44C103.557 236.688 101.722 235.295 99.6931 234.344C97.6641 233.392 95.4829 232.901 93.279 232.899H9.78015L13.463 373.677Z" fill="#9E4A9E"/>
<path fill-rule="evenodd" clip-rule="evenodd" d="M12.2913 373.268H88.4421C92.7109 373.268 96.8122 371.431 99.8788 368.147C102.945 364.863 104.737 360.388 104.874 355.669L108.53 251.258C108.601 248.822 108.229 246.395 107.435 244.122C106.641 241.849 105.442 239.775 103.909 238.024C102.376 236.274 100.541 234.882 98.5119 233.931C96.483 232.98 94.302 232.49 92.0985 232.49H8.60846L12.2913 373.268Z" fill="url(#paint43_linear_8_1345)"/>
<path fill-rule="evenodd" clip-rule="evenodd" d="M84.0192 232.49L82.2571 373.268C82.2571 373.268 90.8388 373.677 94.8654 373.677L94.4601 374.583H71.8339V230.561C71.8339 230.561 85.288 232.091 91.3322 231.418L92.0988 232.49H84.0192Z" fill="#FEBB00"/>
<g style="mix-blend-mode:multiply" opacity="0.5">
<path fill-rule="evenodd" clip-rule="evenodd" d="M83.3936 231.486L81.1469 374.583H94.4953L94.9006 373.677L83.3936 373.268L84.7064 232.49H92.1252L91.3586 231.418C91.3586 231.418 86.3188 231.652 83.3936 231.486Z" fill="#FEBB00"/>
</g>
<g style="mix-blend-mode:soft-light">
<path d="M24.3955 355.802C25.4588 355.802 26.3774 356.003 27.1516 356.404C27.935 356.796 28.5319 357.36 28.9423 358.097C29.362 358.834 29.5718 359.701 29.5718 360.699C29.5718 361.697 29.362 362.564 28.9423 363.301C28.5319 364.029 27.935 364.588 27.1516 364.98C26.3774 365.362 25.4588 365.553 24.3955 365.553H21.3597V355.802H24.3955ZM24.3955 364.504C25.6546 364.504 26.6153 364.173 27.2775 363.511C27.9397 362.839 28.2708 361.902 28.2708 360.699C28.2708 359.486 27.935 358.54 27.2635 357.859C26.6013 357.178 25.6453 356.838 24.3955 356.838H22.6328V364.504H24.3955ZM32.5242 356.838V360.097H36.0776V361.147H32.5242V364.504H36.4973V365.553H31.2511V355.788H36.4973V356.838H32.5242ZM41.5155 365.651C40.8719 365.651 40.2937 365.539 39.7807 365.316C39.2771 365.082 38.8807 364.765 38.5916 364.364C38.3024 363.954 38.1532 363.483 38.1439 362.951H39.5009C39.5475 363.408 39.7341 363.795 40.0605 364.112C40.3963 364.42 40.8813 364.574 41.5155 364.574C42.1217 364.574 42.5974 364.425 42.9424 364.126C43.2969 363.819 43.4741 363.427 43.4741 362.951C43.4741 362.578 43.3715 362.275 43.1663 362.042C42.9611 361.809 42.7046 361.632 42.3968 361.51C42.0891 361.389 41.674 361.259 41.1517 361.119C40.5082 360.951 39.9906 360.783 39.5988 360.615C39.2164 360.447 38.8853 360.186 38.6055 359.832C38.3351 359.468 38.1998 358.983 38.1998 358.377C38.1998 357.845 38.3351 357.374 38.6055 356.964C38.876 356.553 39.2537 356.236 39.7387 356.012C40.233 355.788 40.7973 355.676 41.4315 355.676C42.3455 355.676 43.0917 355.905 43.6699 356.362C44.2575 356.819 44.5886 357.425 44.6632 358.181H43.2642C43.2176 357.808 43.0217 357.481 42.6766 357.201C42.3315 356.912 41.8745 356.768 41.3056 356.768C40.774 356.768 40.3403 356.908 40.0045 357.187C39.6688 357.458 39.5009 357.84 39.5009 358.335C39.5009 358.689 39.5988 358.978 39.7947 359.202C39.9999 359.426 40.247 359.598 40.5362 359.72C40.8346 359.832 41.2497 359.962 41.7813 360.111C42.4248 360.289 42.9424 360.466 43.3342 360.643C43.7259 360.811 44.0616 361.077 44.3414 361.44C44.6212 361.795 44.7611 362.28 44.7611 362.895C44.7611 363.371 44.6352 363.819 44.3834 364.238C44.1316 364.658 43.7585 364.998 43.2642 365.26C42.7699 365.521 42.187 365.651 41.5155 365.651ZM47.9077 355.802V365.553H46.6346V355.802H47.9077ZM57.4642 358.628C57.1937 358.059 56.802 357.621 56.289 357.313C55.776 356.996 55.1791 356.838 54.4983 356.838C53.8174 356.838 53.2019 356.996 52.6516 357.313C52.1107 357.621 51.6816 358.069 51.3645 358.656C51.0568 359.235 50.9029 359.906 50.9029 360.671C50.9029 361.436 51.0568 362.107 51.3645 362.685C51.6816 363.264 52.1107 363.711 52.6516 364.029C53.2019 364.336 53.8174 364.49 54.4983 364.49C55.4496 364.49 56.2331 364.206 56.8486 363.637C57.4642 363.068 57.8233 362.298 57.9258 361.328H54.0366V360.293H59.2829V361.272C59.2083 362.075 58.9564 362.811 58.5274 363.483C58.0984 364.145 57.5341 364.672 56.8346 365.064C56.1351 365.446 55.3563 365.637 54.4983 365.637C53.5936 365.637 52.7682 365.428 52.0221 365.008C51.2759 364.579 50.6837 363.987 50.2453 363.231C49.8163 362.476 49.6018 361.622 49.6018 360.671C49.6018 359.72 49.8163 358.866 50.2453 358.111C50.6837 357.346 51.2759 356.754 52.0221 356.334C52.7682 355.905 53.5936 355.69 54.4983 355.69C55.5336 355.69 56.4476 355.947 57.2403 356.46C58.0424 356.973 58.6253 357.696 58.9891 358.628H57.4642ZM68.6327 365.553H67.3596L62.2392 357.789V365.553H60.9662V355.788H62.2392L67.3596 363.539V355.788H68.6327V365.553Z" fill="#F5DBEB"/>
</g>
<path fill-rule="evenodd" clip-rule="evenodd" d="M117.007 7.89483L129.853 19.1204H98.3628L87.5431 7.00809L117.007 7.89483Z" fill="#D77BD7"/>
<path fill-rule="evenodd" clip-rule="evenodd" d="M129.852 19.1204L124.769 47.272H98.3625V19.1204H129.852Z" fill="#9E4A9E"/>
<path fill-rule="evenodd" clip-rule="evenodd" d="M87.5431 7.00809L88.1687 35.7639L98.3628 47.272V19.1204L87.5431 7.00809Z" fill="#FFC2FF"/>
<path fill-rule="evenodd" clip-rule="evenodd" d="M373.216 15.2695L381.34 43.9083L405.746 27.2649L397.049 0L373.216 15.2695Z" fill="#FFD767"/>
<path fill-rule="evenodd" clip-rule="evenodd" d="M424.142 33.7547L405.745 27.2649L397.049 0L413.763 8.44841L424.142 33.7547Z" fill="#FFE18E"/>
<path fill-rule="evenodd" clip-rule="evenodd" d="M381.34 43.9084L405.746 45.5747L424.143 33.7547L405.746 27.2649L381.34 43.9084Z" fill="#FEBB00"/>
<path fill-rule="evenodd" clip-rule="evenodd" d="M202.919 6.42407L176.698 14.1709L190.681 41.8548L215.686 33.4161L202.919 6.42407Z" fill="#FFD662"/>
<path fill-rule="evenodd" clip-rule="evenodd" d="M185.967 58.4008L190.681 41.8548L215.686 33.4161L208.804 51.0438L185.967 58.4008Z" fill="#FFE18E"/>
<path fill-rule="evenodd" clip-rule="evenodd" d="M176.698 14.1709L174.143 41.0655L185.967 58.4008L190.681 41.8548L176.698 14.1709Z" fill="#FEBB00"/>
<path fill-rule="evenodd" clip-rule="evenodd" d="M348.473 37.3642L347.248 61.8812L313.547 54.1246L321.9 30.9524L348.473 37.3642Z" fill="#FEBB00"/>
<path fill-rule="evenodd" clip-rule="evenodd" d="M313.547 54.1246L318.701 72.4539L340.438 75.9034L347.248 61.8812L313.547 54.1246Z" fill="#FFDD7E"/>
<defs>
<radialGradient id="paint0_radial_8_1345" cx="0" cy="0" r="1" gradientUnits="userSpaceOnUse" gradientTransform="translate(277.669 78.269) scale(31.7543 49.5176)">
<stop offset="0.25" stop-color="#FFFDB0"/>
<stop offset="0.28" stop-color="#FEF9AB"/>
<stop offset="0.48" stop-color="#F8E698"/>
<stop offset="0.68" stop-color="#F5DB8C"/>
<stop offset="0.87" stop-color="#F4D788"/>
<stop offset="0.89" stop-color="#F2D187"/>
<stop offset="0.94" stop-color="#F0C686"/>
<stop offset="1" stop-color="#EFC385"/>
</radialGradient>
<radialGradient id="paint1_radial_8_1345" cx="0" cy="0" r="1" gradientUnits="userSpaceOnUse" gradientTransform="translate(274.788 93.4665) scale(27.3136 30.2077)">
<stop offset="0.06" stop-color="white"/>
<stop offset="0.15" stop-color="#FCFAFC"/>
<stop offset="0.99" stop-color="#EDBCDB"/>
</radialGradient>
<linearGradient id="paint2_linear_8_1345" x1="274.938" y1="124.006" x2="274.938" y2="94.1486" gradientUnits="userSpaceOnUse">
<stop offset="0.01" stop-color="#BF84BE"/>
<stop offset="0.94" stop-color="#F5DBCF"/>
</linearGradient>
<linearGradient id="paint3_linear_8_1345" x1="10844" y1="724.701" x2="10844" y2="711.14" gradientUnits="userSpaceOnUse">
<stop offset="0.01" stop-color="#BF84BE"/>
<stop offset="0.94" stop-color="#F5DBCF"/>
</linearGradient>
<radialGradient id="paint4_radial_8_1345" cx="0" cy="0" r="1" gradientUnits="userSpaceOnUse" gradientTransform="translate(283.581 77.7098) scale(11.7184 12.9601)">
<stop offset="0.01" stop-color="#FFFFAB"/>
<stop offset="0.09" stop-color="#E0E096"/>
<stop offset="0.28" stop-color="#9D9D69"/>
<stop offset="0.46" stop-color="#656544"/>
<stop offset="0.62" stop-color="#393926"/>
<stop offset="0.77" stop-color="#1A1A11"/>
<stop offset="0.9" stop-color="#070705"/>
<stop offset="0.99"/>
</radialGradient>
<radialGradient id="paint5_radial_8_1345" cx="0" cy="0" r="1" gradientUnits="userSpaceOnUse" gradientTransform="translate(7938.06 5197.8) rotate(-24.3238) scale(76.5865 294.987)">
<stop offset="0.01" stop-color="#FFFFAB"/>
<stop offset="0.09" stop-color="#E0E096"/>
<stop offset="0.28" stop-color="#9D9D69"/>
<stop offset="0.46" stop-color="#656544"/>
<stop offset="0.62" stop-color="#393926"/>
<stop offset="0.77" stop-color="#1A1A11"/>
<stop offset="0.9" stop-color="#070705"/>
<stop offset="0.99"/>
</radialGradient>
<linearGradient id="paint6_linear_8_1345" x1="274.682" y1="125.896" x2="274.682" y2="92.1023" gradientUnits="userSpaceOnUse">
<stop offset="0.01" stop-color="#BF84BE"/>
<stop offset="0.94" stop-color="white"/>
</linearGradient>
<linearGradient id="paint7_linear_8_1345" x1="274.611" y1="142.647" x2="274.611" y2="139.84" gradientUnits="userSpaceOnUse">
<stop stop-color="#7D7AB1"/>
<stop offset="0.98" stop-color="#63558D"/>
</linearGradient>
<radialGradient id="paint8_radial_8_1345" cx="0" cy="0" r="1" gradientUnits="userSpaceOnUse" gradientTransform="translate(274.559 142.34) scale(4.95168 10.1887)">
<stop stop-color="#4A4C70"/>
<stop offset="0.43" stop-color="#49496D"/>
<stop offset="0.71" stop-color="#464165"/>
<stop offset="0.95" stop-color="#403257"/>
<stop offset="0.98" stop-color="#3F2F54"/>
</radialGradient>
<radialGradient id="paint9_radial_8_1345" cx="0" cy="0" r="1" gradientUnits="userSpaceOnUse" gradientTransform="translate(274.938 135.373) scale(9.68311 19.919)">
<stop stop-color="#918EBD"/>
<stop offset="0.46" stop-color="#8F8CBB"/>
<stop offset="0.69" stop-color="#8A84B4"/>
<stop offset="0.86" stop-color="#8077A9"/>
<stop offset="0.98" stop-color="#75699C"/>
</radialGradient>
<radialGradient id="paint10_radial_8_1345" cx="0" cy="0" r="1" gradientUnits="userSpaceOnUse" gradientTransform="translate(13181.5 2917.62) scale(313.173 187.906)">
<stop stop-color="#918EBD"/>
<stop offset="0.46" stop-color="#8F8CBB"/>
<stop offset="0.69" stop-color="#8A84B4"/>
<stop offset="0.86" stop-color="#8077A9"/>
<stop offset="0.98" stop-color="#75699C"/>
</radialGradient>
<linearGradient id="paint11_linear_8_1345" x1="275.422" y1="131.996" x2="275.422" y2="124.006" gradientUnits="userSpaceOnUse">
<stop offset="0.02" stop-color="#ADA9C4"/>
<stop offset="1" stop-color="#C9C8DF"/>
</linearGradient>
<linearGradient id="paint12_linear_8_1345" x1="12709.6" y1="1280.45" x2="12709.6" y2="1238.12" gradientUnits="userSpaceOnUse">
<stop offset="0.02" stop-color="#ADA9C4"/>
<stop offset="1" stop-color="#C9C8DF"/>
</linearGradient>
<linearGradient id="paint13_linear_8_1345" x1="407.442" y1="248.098" x2="321.524" y2="171.89" gradientUnits="userSpaceOnUse">
<stop offset="0.02" stop-color="#B287AC"/>
<stop offset="1" stop-color="#E591A9"/>
</linearGradient>
<linearGradient id="paint14_linear_8_1345" x1="74087.5" y1="39403.2" x2="74087.5" y2="27638.3" gradientUnits="userSpaceOnUse">
<stop offset="0.02" stop-color="#B287AC"/>
<stop offset="1" stop-color="#E591A9"/>
</linearGradient>
<linearGradient id="paint15_linear_8_1345" x1="70205.2" y1="41737.5" x2="70205.2" y2="32204.4" gradientUnits="userSpaceOnUse">
<stop offset="0.02" stop-color="#B287AC"/>
<stop offset="1" stop-color="#E591A9"/>
</linearGradient>
<linearGradient id="paint16_linear_8_1345" x1="66241.9" y1="41915.9" x2="66241.9" y2="33750.4" gradientUnits="userSpaceOnUse">
<stop offset="0.02" stop-color="#B287AC"/>
<stop offset="1" stop-color="#E591A9"/>
</linearGradient>
<linearGradient id="paint17_linear_8_1345" x1="4402.68" y1="-1081.95" x2="4333.05" y2="-1143.71" gradientUnits="userSpaceOnUse">
<stop offset="0.02" stop-color="#ADA9C4"/>
<stop offset="1" stop-color="#C9C8DF"/>
</linearGradient>
<linearGradient id="paint18_linear_8_1345" x1="297.699" y1="214.197" x2="293.665" y2="210.619" gradientUnits="userSpaceOnUse">
<stop stop-color="#A3A1C8"/>
<stop offset="0.98" stop-color="#867CA8"/>
</linearGradient>
<linearGradient id="paint19_linear_8_1345" x1="82.5826" y1="247.185" x2="351.449" y2="247.185" gradientUnits="userSpaceOnUse">
<stop stop-color="#D1D0E3"/>
<stop offset="0.12" stop-color="#8B85AA"/>
<stop offset="0.91" stop-color="#8B85AA"/>
<stop offset="1" stop-color="#E5E4EF"/>
</linearGradient>
<linearGradient id="paint20_linear_8_1345" x1="333.194" y1="325.024" x2="337.977" y2="319.081" gradientUnits="userSpaceOnUse">
<stop offset="0.03" stop-color="#FEBB00"/>
<stop offset="1" stop-color="#BD8B00"/>
</linearGradient>
<linearGradient id="paint21_linear_8_1345" x1="193.835" y1="283.298" x2="260.782" y2="199.986" gradientUnits="userSpaceOnUse">
<stop offset="0.03" stop-color="#E79BDB"/>
<stop offset="1" stop-color="#D7C5FC"/>
</linearGradient>
<linearGradient id="paint22_linear_8_1345" x1="218.866" y1="274.167" x2="283.052" y2="194.283" gradientUnits="userSpaceOnUse">
<stop offset="0.03" stop-color="#9E4A9E"/>
<stop offset="1" stop-color="#A67BFA"/>
</linearGradient>
<linearGradient id="paint23_linear_8_1345" x1="6495.18" y1="5152.6" x2="6706.29" y2="4889.93" gradientUnits="userSpaceOnUse">
<stop offset="0.03" stop-color="#FEBB00"/>
<stop offset="1" stop-color="#A67BFA"/>
</linearGradient>
<linearGradient id="paint24_linear_8_1345" x1="226.629" y1="369.73" x2="315.661" y2="369.73" gradientUnits="userSpaceOnUse">
<stop offset="0.01" stop-color="#4D3380"/>
<stop offset="0.94" stop-color="white"/>
</linearGradient>
<radialGradient id="paint25_radial_8_1345" cx="0" cy="0" r="1" gradientUnits="userSpaceOnUse" gradientTransform="translate(258.092 341.492) scale(8.16765 9.03541)">
<stop stop-color="#5F5370"/>
<stop offset="0.33" stop-color="#5D506E"/>
<stop offset="0.54" stop-color="#554767"/>
<stop offset="0.73" stop-color="#47385B"/>
<stop offset="0.89" stop-color="#34234A"/>
<stop offset="0.98" stop-color="#26143E"/>
</radialGradient>
<linearGradient id="paint26_linear_8_1345" x1="257.404" y1="341.336" x2="275.827" y2="341.336" gradientUnits="userSpaceOnUse">
<stop stop-color="#599DFB"/>
<stop offset="0.93" stop-color="#D630F9"/>
</linearGradient>
<linearGradient id="paint27_linear_8_1345" x1="71.3363" y1="148.356" x2="86.0345" y2="137.31" gradientUnits="userSpaceOnUse">
<stop offset="0.33" stop-color="#ECB652"/>
<stop offset="0.98" stop-color="#E27E36"/>
</linearGradient>
<linearGradient id="paint28_linear_8_1345" x1="87.0954" y1="173.096" x2="105.877" y2="158.981" gradientUnits="userSpaceOnUse">
<stop stop-color="#E06E38"/>
<stop offset="0.02" stop-color="#E17235"/>
<stop offset="0.1" stop-color="#E3822B"/>
<stop offset="0.2" stop-color="#E58B25"/>
<stop offset="0.33" stop-color="#E58E23"/>
<stop offset="0.98" stop-color="#E17445"/>
</linearGradient>
<linearGradient id="paint29_linear_8_1345" x1="84.7333" y1="170.701" x2="104.504" y2="155.842" gradientUnits="userSpaceOnUse">
<stop offset="0.33" stop-color="#F2CF60"/>
<stop offset="0.98" stop-color="#E59148"/>
</linearGradient>
<linearGradient id="paint30_linear_8_1345" x1="59.2523" y1="132.277" x2="73.9505" y2="121.23" gradientUnits="userSpaceOnUse">
<stop stop-color="#D3BB95"/>
<stop offset="0.18" stop-color="#9C8A6E"/>
<stop offset="0.38" stop-color="#655947"/>
<stop offset="0.57" stop-color="#393328"/>
<stop offset="0.74" stop-color="#1A1712"/>
<stop offset="0.89" stop-color="#070605"/>
<stop offset="0.99"/>
</linearGradient>
<linearGradient id="paint31_linear_8_1345" x1="107.526" y1="190.803" x2="117.474" y2="183.327" gradientUnits="userSpaceOnUse">
<stop stop-color="#EFC4AE"/>
<stop offset="1" stop-color="#F9ECCB"/>
</linearGradient>
<linearGradient id="paint32_linear_8_1345" x1="123.228" y1="201.424" x2="106.952" y2="183.718" gradientUnits="userSpaceOnUse">
<stop offset="0.03" stop-color="#9E4A9E"/>
<stop offset="1" stop-color="#4A024A"/>
</linearGradient>
<linearGradient id="paint33_linear_8_1345" x1="128.113" y1="207.68" x2="124.049" y2="203.258" gradientUnits="userSpaceOnUse">
<stop stop-color="#9E4A9E"/>
<stop offset="0.97" stop-color="#760A76"/>
</linearGradient>
<radialGradient id="paint34_radial_8_1345" cx="0" cy="0" r="1" gradientUnits="userSpaceOnUse" gradientTransform="translate(76.3883 145.298) rotate(-42.3269) scale(4.42881 16.3783)">
<stop offset="0.01" stop-color="#E9A646"/>
<stop offset="0.03" stop-color="#E0A043"/>
<stop offset="0.23" stop-color="#9D702F"/>
<stop offset="0.43" stop-color="#65481E"/>
<stop offset="0.6" stop-color="#392911"/>
<stop offset="0.76" stop-color="#1A1308"/>
<stop offset="0.89" stop-color="#070502"/>
<stop offset="0.99"/>
</radialGradient>
<radialGradient id="paint35_radial_8_1345" cx="0" cy="0" r="1" gradientUnits="userSpaceOnUse" gradientTransform="translate(1101.61 4449.35) rotate(-39.6746) scale(43.7505 455.063)">
<stop offset="0.01" stop-color="#E9A646"/>
<stop offset="0.03" stop-color="#E0A043"/>
<stop offset="0.23" stop-color="#9D702F"/>
<stop offset="0.43" stop-color="#65481E"/>
<stop offset="0.6" stop-color="#392911"/>
<stop offset="0.76" stop-color="#1A1308"/>
<stop offset="0.89" stop-color="#070502"/>
<stop offset="0.99"/>
</radialGradient>
<radialGradient id="paint36_radial_8_1345" cx="0" cy="0" r="1" gradientUnits="userSpaceOnUse" gradientTransform="translate(1525.04 -747.725) rotate(-55.857) scale(9.66298 4.55433)">
<stop stop-color="#34375F"/>
<stop offset="0.64" stop-color="#36215B"/>
<stop offset="0.98" stop-color="#2A1C4A"/>
</radialGradient>
<linearGradient id="paint37_linear_8_1345" x1="317.731" y1="133.906" x2="365.441" y2="76.3881" gradientUnits="userSpaceOnUse">
<stop offset="0.01" stop-color="#5D53A4"/>
<stop offset="0.04" stop-color="#584F9C"/>
<stop offset="0.28" stop-color="#393365"/>
<stop offset="0.5" stop-color="#201D39"/>
<stop offset="0.7" stop-color="#0F0D1A"/>
<stop offset="0.87" stop-color="#040307"/>
<stop offset="0.99"/>
</linearGradient>
<linearGradient id="paint38_linear_8_1345" x1="359.796" y1="88.9782" x2="349.618" y2="82.0767" gradientUnits="userSpaceOnUse">
<stop offset="0.43" stop-color="#D6D7FD"/>
<stop offset="0.84" stop-color="#77618A"/>
<stop offset="0.96" stop-color="#DFDAE4"/>
</linearGradient>
<linearGradient id="paint39_linear_8_1345" x1="299.478" y1="159.801" x2="296.634" y2="157.872" gradientUnits="userSpaceOnUse">
<stop offset="0.03" stop-color="#7D0045"/>
<stop offset="1" stop-color="#5C004D"/>
</linearGradient>
<radialGradient id="paint40_radial_8_1345" cx="0" cy="0" r="1" gradientUnits="userSpaceOnUse" gradientTransform="translate(12210.1 -1822.19) rotate(-55.857) scale(318.018 395.009)">
<stop stop-color="#36215B"/>
<stop offset="0.98" stop-color="#2A1C4A"/>
</radialGradient>
<linearGradient id="paint41_linear_8_1345" x1="70.6531" y1="373.268" x2="70.6531" y2="232.49" gradientUnits="userSpaceOnUse">
<stop stop-color="#533E97"/>
<stop offset="0.98" stop-color="#501474"/>
</linearGradient>
<linearGradient id="paint42_linear_8_1345" x1="68.9702" y1="370.89" x2="68.9702" y2="234.858" gradientUnits="userSpaceOnUse">
<stop stop-color="#E79EA7"/>
<stop offset="1" stop-color="#F0CAA8"/>
</linearGradient>
<linearGradient id="paint43_linear_8_1345" x1="58.5739" y1="373.268" x2="58.5739" y2="232.49" gradientUnits="userSpaceOnUse">
<stop offset="0.02" stop-color="#9E4A9E"/>
<stop offset="1" stop-color="#780078"/>
</linearGradient>
</defs>
</svg>
