<svg width="299" height="275" viewBox="0 0 299 275" fill="none" xmlns="http://www.w3.org/2000/svg">
<g clip-path="url(#clip0_10_6458)">
<path d="M188.5 28.7V30.9L188.4 41L181.4 37V27.1V26.8V24.6L184 26.1L188.5 28.7Z" fill="white"/>
<path d="M223.1 13.4L218.2 14.7L216.9 15.1L213.9 15.9L207.2 17.7L206.7 17.8L198.6 20L198.1 20.1L197.6 20.2L181.4 24.6L184 26.1L184.5 26L186.6 27.2L188.5 28.3L189.8 28H189.9H190L196.5 26.3L197.4 26.1L197.7 26C197.7 26 197.8 26 197.8 26.1C197.8 26.1 197.8 26.2 197.9 26.2V26L198.4 25.9L206.5 23.7L206.8 23.6L206.9 23.7V23.9L207.5 23.7L207.7 23.6H207.8L214.3 21.8L215.4 21.5L217.9 20.8L224.5 19L225.7 18.7L227.1 18.3L230.1 17.5L223.1 13.4Z" fill="white"/>
<path d="M184 26.1L183.5 26.2L181.9 26.6L181.5 26.7L181 26.9L181.4 27.1L181.8 27.3L188 31L188.4 30.9V28.7L184 26.1ZM226.7 18L222.6 15.7L218 16.9L217.7 17L216.7 17.3L206.9 20H206.6L198.5 22.2L198 22.3L197.5 22.4L184.5 26L186.6 27.2L188.5 28.3L189.8 28H189.9H190L196.5 26.3L197.4 26.1L197.7 26C197.7 26 197.8 26 197.8 26.1C197.8 26.1 197.8 26.2 197.9 26.2V26L198.4 25.9L206.5 23.7L206.8 23.6L206.9 23.7V23.9L207.5 23.7L207.7 23.6H207.8L214.3 21.8L215.4 21.5L217.9 20.8L224.5 19L225.7 18.7L227.1 18.3L226.7 18Z" fill="#FEBB00"/>
<path d="M230.5 17.2V30L217.5 33.5L206.5 36.5L206 36.7L197.9 38.9L197.4 39L196.9 39.1L188.4 41.4L181 37.2V27L181.4 27.2V37L188.4 41.1V30.9V28.7L184 26.1L184.5 26L186.6 27.2L188.5 28.3L189.8 28H189.9H190L196.5 26.3L197.4 26.1L197.7 26C197.7 26 197.8 26 197.8 26.1C197.8 26.1 197.8 26.2 197.9 26.2V26L198.4 25.9L206.5 23.7L206.8 23.6L206.9 23.7V23.9L207.5 23.7C207.6 23.7 207.6 23.7 207.7 23.6H207.8L214.3 21.8L215.4 21.5L217.9 20.8L224.5 19L225.7 18.7L227.1 18.3L230.1 17.5L223.1 13.4L218.2 14.7V14.3L223.1 13L230.5 17.2Z" fill="#9E4A9E"/>
<path d="M213.9 15.9L207.2 17.7L206.7 17.8V18.2L207.2 18.1L216.6 15.6L213.9 15.9ZM197.7 25.8C197.8 25.8 197.8 25.9 197.8 25.9C197.8 25.9 197.8 26 197.9 26V25.8H197.7ZM213.9 15.9L207.2 17.7L206.7 17.8V18.2L207.2 18.1L216.6 15.6L213.9 15.9ZM197.7 25.8C197.8 25.8 197.8 25.9 197.8 25.9L197.9 26V25.8H197.7ZM197.7 25.8C197.8 25.8 197.8 25.9 197.8 25.9C197.8 25.9 197.8 26 197.9 26V25.8H197.7ZM223.1 13.4L218.2 14.7V14.3L216.6 14.7L211.2 16.2H211.1L207.1 17.3L206.6 17.4L198.5 19.6L198 19.7L197.5 19.8L181 24.3V26.8L181.4 27V36.8L188.4 40.9V30.7V28.5L184 26.1L184.5 26L182.4 24.8L197.5 20.7L198 20.6L198.5 20.5L206.6 18.3L207.1 18.2L216.5 15.7L217 15.6L218.1 15.3L223 14L229.1 17.5L226.7 18L225.1 18.4L224.6 18.5L220.4 19.6L218.1 20.2L218 20.3L217.2 20.5L208 23L207 23.3H206.8L206.9 23.4V23.6L207.5 23.4L207.7 23.3H207.8L214.3 21.5L215.4 21.2L217.9 20.5L224.5 18.7L225.7 18.4L227.1 18L230.1 17.2L223.1 13.4ZM186.2 27.8L188.1 28.9V29.4V31V40.4L181.8 36.8V27.4V26.7V25.3L183.4 26.2L186.2 27.8ZM197.7 25.8C197.8 25.8 197.8 25.9 197.8 25.9L197.9 26V25.8H197.7ZM213.9 15.9L207.2 17.7L206.7 17.8V18.2L207.2 18.1L216.6 15.6L213.9 15.9ZM197.7 25.8C197.8 25.8 197.8 25.9 197.8 25.9L197.9 26V25.8H197.7ZM213.9 15.9L207.2 17.7L206.7 17.8V18.2L207.2 18.1L216.6 15.6L213.9 15.9Z" fill="#9E4A9E"/>
<path d="M225.8 18.6L224.6 19C224.5 18.9 224.5 18.7 224.7 18.6C224.8 18.5 225 18.5 225.1 18.5C225.3 18.5 225.5 18.5 225.6 18.6C225.8 18.5 225.8 18.6 225.8 18.6Z" fill="#9E4A9E"/>
<path d="M215.5 21.4L214.4 21.7C214.4 21.6 214.5 21.5 214.6 21.4C214.8 21.3 215.2 21.3 215.5 21.4Z" fill="#9E4A9E"/>
<path d="M217.6 20.6C217.986 20.6 218.3 20.4209 218.3 20.2C218.3 19.9791 217.986 19.8 217.6 19.8C217.213 19.8 216.9 19.9791 216.9 20.2C216.9 20.4209 217.213 20.6 217.6 20.6Z" fill="#9E4A9E"/>
<path d="M220.6 18.5C220.9 18.7 220.9 18.9 220.6 19.1C220.3 19.3 219.9 19.3 219.6 19.1C219.3 18.9 219.3 18.7 219.6 18.5C219.9 18.3 220.3 18.3 220.6 18.5Z" fill="#9E4A9E"/>
<path d="M223.2 17C223.5 17.2 223.5 17.4 223.2 17.6C222.9 17.8 222.5 17.8 222.2 17.6C221.9 17.4 221.9 17.2 222.2 17C222.5 16.9 222.9 16.9 223.2 17Z" fill="#9E4A9E"/>
<path d="M207.9 23.5H207.8L207.6 23.6C207.4 23.6 207.2 23.6 207 23.5L206.9 23.4C206.8 23.3 206.8 23.1 207 22.9C207 22.9 207 22.9 207.1 22.9C207.4 22.8 207.8 22.8 208 22.9C208.1 22.9 208.1 23 208.2 23C208.1 23.2 208.1 23.3 207.9 23.5Z" fill="#9E4A9E"/>
<path d="M210.4 21.4C210.7 21.6 210.7 21.8 210.4 22C210.1 22.2 209.7 22.2 209.4 22C209.1 21.8 209.1 21.6 209.4 21.4C209.7 21.3 210.1 21.3 210.4 21.4Z" fill="#9E4A9E"/>
<path d="M212.5 20.6C212.886 20.6 213.2 20.4209 213.2 20.2C213.2 19.9791 212.886 19.8 212.5 19.8C212.113 19.8 211.8 19.9791 211.8 20.2C211.8 20.4209 212.113 20.6 212.5 20.6Z" fill="#9E4A9E"/>
<path d="M215.5 18.5C215.8 18.7 215.8 18.9 215.5 19.1C215.2 19.3 214.8 19.3 214.5 19.1C214.2 18.9 214.2 18.7 214.5 18.5C214.8 18.3 215.2 18.3 215.5 18.5Z" fill="#9E4A9E"/>
<path d="M218 17C218.3 17.2 218.3 17.4 218 17.6C217.7 17.8 217.3 17.8 217 17.6C216.7 17.4 216.7 17.2 217 17C217.3 16.9 217.8 16.9 218 17Z" fill="#9E4A9E"/>
<path d="M197.7 25.8L197.4 25.9L196.5 26.1C196.5 26 196.6 25.9 196.7 25.8C196.9 25.7 197.1 25.7 197.4 25.7C197.5 25.7 197.6 25.8 197.7 25.8Z" fill="#9E4A9E"/>
<path d="M200.2 24.4C200.5 24.6 200.5 24.8 200.2 25C199.9 25.2 199.5 25.2 199.2 25C198.9 24.8 198.9 24.6 199.2 24.4C199.5 24.2 200 24.2 200.2 24.4Z" fill="#9E4A9E"/>
<path d="M202.8 22.9C203.1 23.1 203.1 23.3 202.8 23.5C202.5 23.7 202.1 23.7 201.8 23.5C201.5 23.3 201.5 23.1 201.8 22.9C202.1 22.7 202.5 22.7 202.8 22.9Z" fill="#9E4A9E"/>
<path d="M205.3 21.4C205.6 21.6 205.6 21.8 205.3 22C205 22.2 204.6 22.2 204.3 22C204 21.8 204 21.6 204.3 21.4C204.6 21.3 205.1 21.3 205.3 21.4Z" fill="#9E4A9E"/>
<path d="M207.9 20C208.2 20.2 208.2 20.4 207.9 20.6C207.6 20.8 207.2 20.8 206.9 20.6C206.6 20.4 206.6 20.2 206.9 20C207.2 19.8 207.6 19.8 207.9 20Z" fill="#9E4A9E"/>
<path d="M187.5 28.8C187.8 29 187.8 29.2 187.5 29.4C187.2 29.6 186.8 29.6 186.5 29.4C186.2 29.2 186.2 29 186.5 28.8C186.8 28.6 187.2 28.6 187.5 28.8Z" fill="#9E4A9E"/>
<path d="M190.1 27.9H190H189.9C189.7 27.9 189.4 27.9 189.2 27.8C188.9 27.6 188.9 27.4 189.2 27.2C189.5 27 189.9 27 190.2 27.2C190.3 27.5 190.3 27.7 190.1 27.9Z" fill="#9E4A9E"/>
<path d="M192.6 25.8C192.9 26 192.9 26.2 192.6 26.4C192.3 26.6 191.9 26.6 191.6 26.4C191.3 26.2 191.3 26 191.6 25.8C191.9 25.7 192.3 25.7 192.6 25.8Z" fill="#9E4A9E"/>
<path d="M195.1 24.4C195.4 24.6 195.4 24.8 195.1 25C194.8 25.2 194.4 25.2 194.1 25C193.8 24.8 193.8 24.6 194.1 24.4C194.4 24.2 194.9 24.2 195.1 24.4Z" fill="#9E4A9E"/>
<path d="M197.2 23.6C197.587 23.6 197.9 23.4209 197.9 23.2C197.9 22.9791 197.587 22.8 197.2 22.8C196.813 22.8 196.5 22.9791 196.5 23.2C196.5 23.4209 196.813 23.6 197.2 23.6Z" fill="#9E4A9E"/>
<path d="M184.5 28C184.886 28 185.2 27.8209 185.2 27.6C185.2 27.3791 184.886 27.2 184.5 27.2C184.113 27.2 183.8 27.3791 183.8 27.6C183.8 27.8209 184.113 28 184.5 28Z" fill="#9E4A9E"/>
<path d="M187 26.5C187.386 26.5 187.7 26.3209 187.7 26.1C187.7 25.8791 187.386 25.7 187 25.7C186.613 25.7 186.3 25.8791 186.3 26.1C186.3 26.3209 186.613 26.5 187 26.5Z" fill="#9E4A9E"/>
<path d="M206.5 36.5L205.9 53.1L197.3 42.1L197.4 39L197.9 38.9L206 36.7L206.5 36.5Z" fill="white"/>
<path d="M207.3 12.8L207.2 16.6V17.2V17.6V18L207.1 19.8V20.5L207 22.9V23.3V23.5L206.9 23.4L206.6 23.5L198.5 25.7L198 25.8L198.1 22.3L198.2 20.5V20.1V19.7L198.7 6.3V5.6L198.8 1.7L201.5 5.2L207.3 12.8Z" fill="white"/>
<path d="M198.7 1.8L207.3 12.8L217.8 11.6L209.2 0.5L198.7 1.8Z" fill="white"/>
<path d="M198.1 5.69999L206.7 16.7L217.2 15.5L208.6 4.39999L198.1 5.69999Z" fill="#FEBB00"/>
<path d="M218 11L209.5 0L199 1.3L198.3 1.4V2L198.2 5.8L197.7 19.9V20.3V20.7L197.6 22.5V22.9V23.6L197.5 25.8V26L197.8 25.9C197.8 25.9 197.9 25.9 197.9 26C197.9 26 197.9 26.1 198 26.1V25.9L198.5 25.8L198.6 22.3L198.7 20.5V20.1V19.7L199 6.9V5.6L199.1 3.2L199.8 4L200.9 5.4L206.8 13L206.7 16.8V17.5V17.9V18.3V19.5V20.1L206.6 23.6L206.9 23.5L207 23.6V23.8L207.6 23.6L207.8 23.5H207.9L214.4 21.7L215.5 21.4L218 20.7V20.5V20.3V19.9L218.1 17.5V17V16.8L218.2 15V14.6V14.2L218.3 11.9V11.3L218 11ZM199.7 2.2L209 1L216.9 11.1L214.1 11.4L212.5 11.6L207.5 12.2L202 5.2L199.8 2.4L199.7 2.2ZM206.5 36.5L206 36.7L205.5 51.8L197.8 42L197.9 39H197.4L196.9 39.1L196.8 42.2L205.4 53.2L205.7 53.5L206.4 53.4L216.9 52.1L217.6 33.4L206.5 36.5Z" fill="#9E4A9E"/>
<path d="M206.181 13.5644C206.289 13.3103 206.006 12.9465 205.549 12.7518C205.092 12.557 204.633 12.6051 204.525 12.8591C204.417 13.1132 204.7 13.477 205.157 13.6718C205.614 13.8665 206.073 13.8184 206.181 13.5644Z" fill="#9E4A9E"/>
<path d="M203.8 10.1C204 10.4 203.9 10.7 203.5 10.8C203.1 10.8 202.6 10.6 202.3 10.3C202.1 9.99999 202.2 9.69999 202.6 9.59999C203 9.49999 203.6 9.69999 203.8 10.1Z" fill="#9E4A9E"/>
<path d="M207.6 9.59999C207.8 9.89999 207.7 10.2 207.3 10.3C206.9 10.3 206.4 10.1 206.1 9.79999C205.9 9.49999 206 9.19999 206.4 9.09999C206.9 9.09999 207.4 9.29999 207.6 9.59999Z" fill="#9E4A9E"/>
<path d="M211.4 9.09999C211.6 9.39999 211.5 9.69999 211.1 9.79999C210.7 9.79999 210.2 9.59999 209.9 9.29999C209.7 8.99999 209.8 8.69999 210.2 8.59999C210.7 8.59999 211.2 8.79999 211.4 9.09999Z" fill="#9E4A9E"/>
<path d="M201.5 6.99999C201.7 7.29999 201.6 7.59999 201.2 7.69999C200.8 7.69999 200.3 7.49999 200 7.19999C199.8 6.89999 199.9 6.59999 200.3 6.49999C200.7 6.39999 201.2 6.69999 201.5 6.99999Z" fill="#9E4A9E"/>
<path d="M205.397 6.9466C205.506 6.69254 205.223 6.32872 204.765 6.13397C204.308 5.93923 203.85 5.9873 203.741 6.24135C203.633 6.49541 203.916 6.85923 204.373 7.05398C204.831 7.24872 205.289 7.20065 205.397 6.9466Z" fill="#9E4A9E"/>
<path d="M209.271 6.52918C209.379 6.27512 209.096 5.9113 208.639 5.71656C208.181 5.52181 207.723 5.56988 207.615 5.82394C207.507 6.07799 207.79 6.44181 208.247 6.63656C208.704 6.8313 209.163 6.78323 209.271 6.52918Z" fill="#9E4A9E"/>
</g>
<path d="M105.544 205.076L110.419 203.963V101.854H106.101C94.6469 102.981 83.3736 105.505 72.5333 109.371L26.0118 104.569L2.61182 99.9054V167.769C2.61182 177.305 9.08847 185.796 22.0421 193.244C33.0205 199.384 45.0795 203.354 57.5601 204.937C73.4841 207.018 89.6085 207.065 105.544 205.076Z" fill="white"/>
<path d="M79.3593 209.252C72.0212 209.293 64.6896 208.805 57.4218 207.791C44.6284 206.113 32.2691 202.027 20.9984 195.749C8.11442 188.302 1.15012 179.601 0.105469 169.787V168.117V97.1212L26.57 102.341L72.2558 107.075C83.1281 103.237 94.4209 100.713 105.893 99.5574H109.097H113.136V206.538L106.172 208.139C97.2639 209.033 88.311 209.405 79.3593 209.252ZM5.39841 166.586V168.047C5.39841 176.539 11.527 184.334 23.4359 191.225C34.208 197.216 46.0278 201.091 58.2575 202.64C73.8874 204.628 89.7064 204.628 105.336 202.64L108.052 202.014V104.569H106.52C95.2709 105.662 84.2039 108.164 73.5791 112.016H73.0218L25.943 107.075L5.46812 103.038L5.39841 166.586Z" fill="#9E4A9E"/>
<path d="M242.321 160.321C239.954 159.973 233.755 171.04 231.318 170.831C216.345 169.439 196.148 174.103 172.121 177.792L118.287 168.604V168.952L113.691 169.648L112.785 169.161L98.8566 161.365V225.957C98.6277 229.081 98.9821 232.22 99.9014 235.215C104.273 245.214 112.114 253.297 121.978 257.975C140.828 268.748 162.555 273.417 184.169 271.339C209.321 268.868 233.585 260.729 255.136 247.534C279.093 233.614 292.743 219.693 295.947 206.468C296.345 204.802 296.578 203.1 296.643 201.387V133.802L242.321 160.321Z" fill="white"/>
<path d="M174.281 274.332C155.393 274.575 136.783 269.769 120.377 260.411C109.924 255.459 101.631 246.874 97.0464 236.259C96.0431 232.946 95.6421 229.481 95.8624 226.027V157.12L114.039 167.142H116.407V166.655H118.566L171.982 175.912L187.234 173.337C201.567 170.158 216.22 168.64 230.9 168.813C232.272 167.461 233.551 166.019 234.731 164.497C237.377 161.087 239.327 158.72 241.695 158.372L298.942 129.974V202.014C298.897 203.939 298.64 205.853 298.176 207.721C294.763 222.129 281.044 236.119 256.39 250.458C234.263 263.621 209.466 271.66 183.822 273.984C180.757 274.193 177.484 274.332 174.281 274.332ZM101.086 165.75V225.957C100.882 228.801 101.212 231.658 102.061 234.379C106.164 243.807 113.604 251.391 122.954 255.678C141.34 266.185 162.527 270.756 183.613 268.764C208.367 266.207 232.235 258.145 253.465 245.168C276.656 231.734 289.958 218.51 292.952 205.703C293.361 204.229 293.572 202.708 293.579 201.178V137.631L242.67 162.897C241.348 164.16 240.137 165.534 239.049 167.003C236.054 170.762 233.965 173.964 231.179 173.267C216.778 173.098 202.406 174.593 188.348 177.722L172.679 180.367H172.191L119.123 171.179H118.636L114.388 171.736H113.552L111.462 170.901L101.086 165.75Z" fill="#9E4A9E"/>
<path d="M41.7503 56.1247C61.3364 44.2097 83.3059 36.7481 106.1 34.2692C125.376 31.9777 144.881 35.8522 161.815 45.3361C171.062 49.7587 178.317 57.4812 182.151 66.9828C183.242 71.7494 183.316 76.6924 182.368 81.4895C181.42 86.2866 179.472 90.8303 176.649 94.8243C195.939 91.3204 215.572 90.0823 235.149 91.1353C248.292 91.9962 261.094 95.6758 272.687 101.924C291.142 112.573 298.803 124.684 295.53 138.257C292.257 151.83 278.746 165.472 254.788 179.323C233.238 192.566 208.985 200.796 183.822 203.406C162.2 205.468 140.471 200.774 121.631 189.972C111.729 185.381 103.869 177.302 99.5539 167.282C96.8611 159.022 98.8576 148.976 105.543 137.143C89.6571 139.131 73.5848 139.131 57.6986 137.143C45.218 135.56 33.159 131.59 22.1806 125.45C6.20908 116.169 0.0107529 105.427 3.58577 93.2234C7.16078 81.0196 19.8823 68.6533 41.7503 56.1247ZM82.004 79.6507C80.0151 80.4943 78.2498 81.7887 76.8477 83.4316C75.4456 85.0745 74.4451 87.0209 73.9253 89.1168C73.4378 92.597 75.3879 95.6595 79.845 98.2349C87.9933 102.968 100.738 103.873 118.079 101.089C120.54 96.8845 121.636 92.0205 121.213 87.1679C120.689 85.3546 119.801 83.6667 118.604 82.2069C117.407 80.7471 115.925 79.5459 114.249 78.6763C109.38 76.0063 103.836 74.8206 98.3004 75.2657C92.5907 75.3697 86.9942 76.8756 82.004 79.6507ZM170.799 159.068C177.005 162.561 184.099 164.158 191.204 163.662C199.195 163.173 206.955 160.787 213.838 156.702C230.553 147.097 232.874 138.767 220.803 131.714C214.875 128.659 208.32 127.015 201.651 126.911C189.987 126.635 178.325 127.498 166.829 129.487C163.315 134.864 161.675 141.25 162.163 147.653C162.638 150.088 163.663 152.381 165.159 154.36C166.656 156.338 168.585 157.948 170.799 159.068Z" fill="white"/>
<path d="M272.687 120.299C261.103 114.04 248.293 110.382 235.149 109.58C215.572 108.454 195.93 109.692 176.649 113.269C180.287 107.432 182.527 100.834 183.196 93.989L178.181 94.6154L181.594 83.6181C177.536 74.7881 170.549 67.6323 161.815 63.3635C144.882 53.8796 125.376 50.0049 106.101 52.2965C83.3129 54.8065 61.35 62.2659 41.7505 74.152C22.4361 85.2886 10.2716 96.3091 5.25732 107.214V128.095C9.31668 134.798 15.1813 140.225 22.1808 143.756C33.1592 149.896 45.2181 153.866 57.6988 155.449C73.5806 157.507 89.6618 157.507 105.544 155.449C102.88 160.029 100.843 164.945 99.4846 170.066H101.086V189.207C105.976 197.408 113.103 204.047 121.631 208.348C140.501 219.057 162.229 223.653 183.822 221.503C208.97 219.011 233.229 210.873 254.789 197.698C278.746 183.778 292.326 169.857 295.53 156.632C298.733 143.408 291.142 130.949 272.687 120.299ZM118.079 119.185C100.715 121.97 87.9703 120.995 79.8452 116.262C75.3881 113.687 73.438 110.694 73.9255 107.144C74.4452 105.048 75.4458 103.102 76.8479 101.459C78.25 99.8159 80.0152 98.5215 82.0041 97.678C86.899 94.8979 92.3952 93.3456 98.022 93.1538C103.567 92.6962 109.121 93.9083 113.97 96.634C115.639 97.4958 117.117 98.6863 118.314 100.134C119.51 101.581 120.402 103.255 120.935 105.056C121.471 109.948 120.474 114.885 118.079 119.185ZM213.838 174.868C206.968 178.984 199.201 181.372 191.204 181.829C184.1 182.324 177.005 180.727 170.799 177.235C168.567 176.138 166.616 174.546 165.095 172.579C163.574 170.613 162.523 168.324 162.024 165.889C161.53 159.463 163.171 153.054 166.69 147.653C178.187 145.68 189.85 144.841 201.512 145.148C208.175 145.232 214.729 146.852 220.664 149.881C232.828 156.841 230.553 165.124 213.838 174.729V174.868Z" fill="#FEBB00"/>
<path d="M174.282 206.468C155.373 206.704 136.742 201.898 120.308 192.548C109.854 187.586 101.579 178.969 97.0476 168.326C94.6559 158.885 96.082 148.882 101.017 140.484C86.476 142.099 71.7947 141.982 57.2812 140.136C44.4878 138.459 32.1287 134.373 20.858 128.095C3.86508 118.281 -2.82063 106.448 1.07939 92.945C4.9794 79.4419 17.7937 67.122 40.4277 54.0366C60.3709 42.0132 82.6782 34.4392 105.822 31.8331C125.592 29.5801 145.571 33.5978 162.93 43.3177C172.753 48.0446 180.436 56.2946 184.45 66.4261C186.685 75.0677 185.514 84.2375 181.176 92.0401C199.023 89.0346 217.152 88.0539 235.219 89.1168C248.724 90.0064 261.881 93.7802 273.802 100.184C293.302 111.46 301.659 124.615 297.898 139.371C294.137 154.127 280.766 167.769 256.112 182.107C234.112 195.406 209.411 203.611 183.823 206.12C180.689 206.329 177.485 206.468 174.282 206.468ZM110.349 133.802L107.842 138.257C105.014 142.251 103.035 146.783 102.029 151.571C101.023 156.36 101.01 161.304 101.992 166.098C106.197 175.458 113.606 183.01 122.885 187.397C141.278 197.887 162.459 202.457 183.544 200.482C208.221 197.919 232.014 189.882 253.187 176.956C276.378 163.593 289.68 150.298 292.745 137.561C295.809 124.823 288.636 114.174 271.086 104.082C259.836 98.0367 247.41 94.4987 234.662 93.7107C215.296 92.6324 195.87 93.8472 176.789 97.33L171.287 98.2348L174.073 93.5019C176.753 89.7734 178.611 85.5186 179.523 81.0191C180.436 76.5196 180.382 71.8778 179.366 67.4005C175.763 58.5186 168.952 51.314 160.283 47.2154C143.79 37.9926 124.801 34.2165 106.031 36.4269C83.6443 38.9402 62.0694 46.2782 42.7955 57.9344C21.9026 70.1847 9.15793 82.226 5.81506 93.7802C2.4722 105.334 8.32215 114.661 23.1561 122.944C33.9418 128.904 45.7555 132.777 57.9777 134.359C73.6521 136.379 89.5212 136.379 105.196 134.359L110.349 133.802ZM189.046 166.098C182.2 166.209 175.448 164.504 169.476 161.156C166.922 159.841 164.695 157.971 162.96 155.682C161.224 153.393 160.024 150.745 159.448 147.932C158.83 140.931 160.57 133.924 164.392 128.025L165.019 126.911H166.273C177.91 124.928 189.71 124.066 201.512 124.336C208.588 124.469 215.542 126.206 221.848 129.417C227.837 132.897 230.902 136.934 230.902 141.319C230.902 147.097 225.748 152.874 215.162 158.999C207.902 163.208 199.729 165.596 191.344 165.959L189.046 166.098ZM100.251 105.265C92.6278 105.633 85.0407 104.002 78.2438 100.532C75.9831 99.5451 74.0922 97.8695 72.8414 95.7444C71.5907 93.6193 71.044 91.1534 71.2795 88.6992C71.8674 86.2225 73.0138 83.9128 74.6312 81.9465C76.2486 79.9802 78.2941 78.4093 80.6117 77.3538C85.8858 74.4084 91.7774 72.7397 97.8135 72.4816C103.866 72.034 109.918 73.3647 115.224 76.3098C117.256 77.311 119.055 78.7263 120.507 80.4645C121.958 82.2027 123.029 84.2253 123.651 86.4023C124.302 91.8843 123.153 97.4292 120.378 102.202L119.821 103.455H118.428C112.43 104.565 106.35 105.17 100.251 105.265Z" fill="#9E4A9E"/>
<path d="M39.9395 132.689L40.0092 201.248L77.0593 209.252L98.5093 205.703L98.579 158.442L105.543 137.213L71.2788 138.605L39.9395 132.689Z" fill="#9E4A9E"/>
<path d="M176.301 203.754V271.757L217.112 264.587L259.594 245.794L282.785 227.489L295.6 206.468L298.107 139.162L279.303 163.662L258.41 177.653L228.255 194.427L195.035 203.823L176.301 203.754Z" fill="#9E4A9E"/>
<path d="M192.075 209.905C191.638 209.815 191.251 209.619 190.976 209.345C190.701 209.072 190.551 208.737 190.551 208.393C190.551 208.049 190.701 207.714 190.976 207.441C191.251 207.168 191.638 206.971 192.075 206.882C193.171 206.446 194.39 206.219 195.627 206.219C196.864 206.219 198.083 206.446 199.179 206.882C199.616 206.971 200.003 207.168 200.278 207.441C200.554 207.714 200.703 208.049 200.703 208.393C200.703 208.737 200.554 209.072 200.278 209.345C200.003 209.619 199.616 209.815 199.179 209.905C198.083 210.34 196.864 210.567 195.627 210.567C194.39 210.567 193.171 210.34 192.075 209.905Z" fill="#9E4A9E"/>
<path d="M216.581 195.52C217.019 195.639 217.405 195.9 217.68 196.262C217.956 196.624 218.105 197.067 218.105 197.523C218.105 197.979 217.956 198.422 217.68 198.784C217.405 199.146 217.019 199.407 216.581 199.525C215.489 200.114 214.268 200.422 213.029 200.422C211.79 200.422 210.57 200.114 209.477 199.525C209.04 199.407 208.654 199.146 208.378 198.784C208.103 198.422 207.954 197.979 207.954 197.523C207.954 197.067 208.103 196.624 208.378 196.262C208.654 195.9 209.04 195.639 209.477 195.52C210.57 194.932 211.79 194.624 213.029 194.624C214.268 194.624 215.489 194.932 216.581 195.52Z" fill="#9E4A9E"/>
<path d="M234.237 185.318C234.607 185.459 234.929 185.731 235.157 186.096C235.385 186.461 235.508 186.9 235.508 187.35C235.508 187.801 235.385 188.24 235.157 188.604C234.929 188.969 234.607 189.242 234.237 189.382C233.29 189.969 232.232 190.276 231.157 190.276C230.083 190.276 229.025 189.969 228.078 189.382C227.708 189.242 227.386 188.969 227.158 188.604C226.93 188.24 226.807 187.801 226.807 187.35C226.807 186.9 226.93 186.461 227.158 186.096C227.386 185.731 227.708 185.459 228.078 185.318C229.034 184.766 230.088 184.478 231.157 184.478C232.226 184.478 233.281 184.766 234.237 185.318Z" fill="#9E4A9E"/>
<path d="M162.924 205.666C163.361 205.785 163.747 206.045 164.023 206.407C164.298 206.769 164.447 207.213 164.447 207.669C164.447 208.125 164.298 208.568 164.023 208.93C163.747 209.292 163.361 209.552 162.924 209.671C161.831 210.259 160.611 210.567 159.372 210.567C158.132 210.567 156.912 210.259 155.82 209.671C155.382 209.552 154.996 209.292 154.721 208.93C154.445 208.568 154.296 208.125 154.296 207.669C154.296 207.213 154.445 206.769 154.721 206.407C154.996 206.045 155.382 205.785 155.82 205.666C156.912 205.078 158.132 204.77 159.372 204.77C160.611 204.77 161.831 205.078 162.924 205.666Z" fill="#9E4A9E"/>
<path d="M181.771 195.52C182.21 195.639 182.598 195.9 182.874 196.262C183.15 196.624 183.3 197.067 183.3 197.523C183.3 197.979 183.15 198.422 182.874 198.784C182.598 199.146 182.21 199.407 181.771 199.525C180.675 200.114 179.451 200.422 178.208 200.422C176.965 200.422 175.741 200.114 174.645 199.525C172.65 198.452 172.65 196.593 174.645 195.52C175.741 194.932 176.965 194.624 178.208 194.624C179.451 194.624 180.675 194.932 181.771 195.52Z" fill="#9E4A9E"/>
<path d="M199.22 185.3C199.651 185.442 200.027 185.716 200.293 186.083C200.559 186.451 200.703 186.893 200.703 187.347C200.703 187.801 200.559 188.243 200.293 188.611C200.027 188.978 199.651 189.253 199.22 189.394C198.111 189.973 196.878 190.276 195.627 190.276C194.376 190.276 193.143 189.973 192.034 189.394C191.603 189.253 191.227 188.978 190.961 188.611C190.695 188.243 190.551 187.801 190.551 187.347C190.551 186.893 190.695 186.451 190.961 186.083C191.227 185.716 191.603 185.442 192.034 185.3C193.155 184.759 194.383 184.478 195.627 184.478C196.871 184.478 198.1 184.759 199.22 185.3Z" fill="#9E4A9E"/>
<path d="M216.622 175.226C217.054 175.367 217.429 175.639 217.696 176.004C217.962 176.369 218.105 176.808 218.105 177.258C218.105 177.709 217.962 178.148 217.696 178.512C217.429 178.877 217.054 179.149 216.622 179.29C215.506 179.842 214.276 180.13 213.029 180.13C211.782 180.13 210.552 179.842 209.436 179.29C209.005 179.149 208.63 178.877 208.363 178.512C208.097 178.148 207.954 177.709 207.954 177.258C207.954 176.808 208.097 176.369 208.363 176.004C208.63 175.639 209.005 175.367 209.436 175.226C210.542 174.639 211.776 174.333 213.029 174.333C214.283 174.333 215.517 174.639 216.622 175.226Z" fill="#9E4A9E"/>
<path d="M234.237 165.08C234.607 165.221 234.929 165.493 235.157 165.858C235.385 166.223 235.508 166.662 235.508 167.112C235.508 167.563 235.385 168.002 235.157 168.367C234.929 168.732 234.607 169.004 234.237 169.144C233.281 169.697 232.226 169.984 231.157 169.984C230.088 169.984 229.034 169.697 228.078 169.144C227.708 169.004 227.386 168.732 227.158 168.367C226.93 168.002 226.807 167.563 226.807 167.112C226.807 166.662 226.93 166.223 227.158 165.858C227.386 165.493 227.708 165.221 228.078 165.08C229.025 164.494 230.083 164.187 231.157 164.187C232.232 164.187 233.29 164.494 234.237 165.08Z" fill="#9E4A9E"/>
<path d="M145.521 195.52C145.958 195.639 146.344 195.9 146.62 196.262C146.895 196.624 147.045 197.067 147.045 197.523C147.045 197.979 146.895 198.422 146.62 198.784C146.344 199.146 145.958 199.407 145.521 199.525C144.428 200.114 143.208 200.422 141.969 200.422C140.73 200.422 139.51 200.114 138.417 199.525C137.98 199.407 137.593 199.146 137.318 198.784C137.042 198.422 136.893 197.979 136.893 197.523C136.893 197.067 137.042 196.624 137.318 196.262C137.593 195.9 137.98 195.639 138.417 195.52C139.51 194.932 140.73 194.624 141.969 194.624C143.208 194.624 144.428 194.932 145.521 195.52Z" fill="#9E4A9E"/>
<path d="M162.965 185.318C163.396 185.459 163.772 185.731 164.038 186.096C164.304 186.461 164.447 186.9 164.447 187.35C164.447 187.801 164.304 188.24 164.038 188.604C163.772 188.969 163.396 189.242 162.965 189.382C161.859 189.969 160.625 190.276 159.372 190.276C158.118 190.276 156.884 189.969 155.779 189.382C155.347 189.242 154.972 188.969 154.706 188.604C154.439 188.24 154.296 187.801 154.296 187.35C154.296 186.9 154.439 186.461 154.706 186.096C154.972 185.731 155.347 185.459 155.779 185.318C156.895 184.766 158.125 184.478 159.372 184.478C160.619 184.478 161.849 184.766 162.965 185.318Z" fill="#9E4A9E"/>
<path d="M234.254 144.735C235.926 145.876 235.926 147.73 234.254 148.799C233.301 149.386 232.238 149.693 231.157 149.693C230.077 149.693 229.013 149.386 228.061 148.799C226.389 147.73 226.389 145.876 228.061 144.735C229.022 144.183 230.083 143.895 231.157 143.895C232.232 143.895 233.292 144.183 234.254 144.735Z" fill="#9E4A9E"/>
<path d="M123.841 190.276C126.244 190.276 128.192 188.978 128.192 187.377C128.192 185.776 126.244 184.478 123.841 184.478C121.439 184.478 119.491 185.776 119.491 187.377C119.491 188.978 121.439 190.276 123.841 190.276Z" fill="#9E4A9E"/>
<path d="M145.562 175.226C145.993 175.367 146.369 175.639 146.635 176.004C146.901 176.369 147.045 176.808 147.045 177.258C147.045 177.709 146.901 178.148 146.635 178.512C146.369 178.877 145.993 179.149 145.562 179.29C144.446 179.842 143.216 180.13 141.969 180.13C140.722 180.13 139.492 179.842 138.376 179.29C137.944 179.149 137.569 178.877 137.303 178.512C137.036 178.148 136.893 177.709 136.893 177.258C136.893 176.808 137.036 176.369 137.303 176.004C137.569 175.639 137.944 175.367 138.376 175.226C139.481 174.639 140.715 174.333 141.969 174.333C143.222 174.333 144.457 174.639 145.562 175.226Z" fill="#9E4A9E"/>
<path d="M181.771 154.937C182.21 155.056 182.598 155.317 182.874 155.679C183.15 156.041 183.3 156.484 183.3 156.94C183.3 157.396 183.15 157.839 182.874 158.201C182.598 158.563 182.21 158.824 181.771 158.942C180.675 159.531 179.451 159.839 178.208 159.839C176.965 159.839 175.741 159.531 174.645 158.942C172.65 157.869 172.65 156.01 174.645 154.937C175.741 154.349 176.965 154.041 178.208 154.041C179.451 154.041 180.675 154.349 181.771 154.937Z" fill="#9E4A9E"/>
<path d="M199.24 144.717C201.19 145.866 201.19 147.734 199.24 148.811C198.125 149.39 196.885 149.693 195.627 149.693C194.369 149.693 193.13 149.39 192.014 148.811C190.064 147.734 190.064 145.866 192.014 144.717C193.141 144.176 194.376 143.895 195.627 143.895C196.878 143.895 198.113 144.176 199.24 144.717Z" fill="#9E4A9E"/>
<path d="M216.622 133.14C217.054 133.281 217.429 133.553 217.696 133.918C217.962 134.283 218.105 134.722 218.105 135.172C218.105 135.623 217.962 136.062 217.696 136.426C217.429 136.791 217.054 137.064 216.622 137.204C215.517 137.791 214.283 138.098 213.029 138.098C211.776 138.098 210.542 137.791 209.436 137.204C209.005 137.064 208.63 136.791 208.363 136.426C208.097 136.062 207.954 135.623 207.954 135.172C207.954 134.722 208.097 134.283 208.363 133.918C208.63 133.553 209.005 133.281 209.436 133.14C210.552 132.588 211.782 132.3 213.029 132.3C214.276 132.3 215.506 132.588 216.622 133.14Z" fill="#9E4A9E"/>
<path d="M234.237 123.048C234.607 123.189 234.929 123.461 235.157 123.826C235.385 124.191 235.508 124.63 235.508 125.08C235.508 125.53 235.385 125.969 235.157 126.334C234.929 126.699 234.607 126.971 234.237 127.112C233.281 127.664 232.226 127.952 231.157 127.952C230.088 127.952 229.034 127.664 228.078 127.112C227.708 126.971 227.386 126.699 227.158 126.334C226.93 125.969 226.807 125.53 226.807 125.08C226.807 124.63 226.93 124.191 227.158 123.826C227.386 123.461 227.708 123.189 228.078 123.048C229.025 122.461 230.083 122.154 231.157 122.154C232.232 122.154 233.29 122.461 234.237 123.048Z" fill="#9E4A9E"/>
<path d="M109.307 175.214C109.738 175.356 110.113 175.63 110.38 175.997C110.646 176.365 110.789 176.807 110.789 177.261C110.789 177.715 110.646 178.157 110.38 178.525C110.113 178.892 109.738 179.167 109.307 179.308C108.186 179.849 106.958 180.13 105.713 180.13C104.469 180.13 103.241 179.849 102.12 179.308C101.689 179.167 101.314 178.892 101.047 178.525C100.781 178.157 100.638 177.715 100.638 177.261C100.638 176.807 100.781 176.365 101.047 175.997C101.314 175.63 101.689 175.356 102.12 175.214C103.229 174.635 104.462 174.333 105.713 174.333C106.965 174.333 108.197 174.635 109.307 175.214Z" fill="#9E4A9E"/>
<path d="M126.902 165.08C128.622 166.221 128.622 168.004 126.902 169.144C125.948 169.697 124.896 169.984 123.83 169.984C122.764 169.984 121.712 169.697 120.758 169.144C120.39 169.004 120.069 168.732 119.841 168.367C119.613 168.002 119.491 167.563 119.491 167.112C119.491 166.662 119.613 166.223 119.841 165.858C120.069 165.493 120.39 165.221 120.758 165.08C121.703 164.494 122.758 164.187 123.83 164.187C124.902 164.187 125.957 164.494 126.902 165.08Z" fill="#9E4A9E"/>
<path d="M145.521 154.937C145.958 155.056 146.344 155.317 146.62 155.679C146.895 156.041 147.045 156.484 147.045 156.94C147.045 157.396 146.895 157.839 146.62 158.201C146.344 158.563 145.958 158.824 145.521 158.942C144.428 159.531 143.208 159.839 141.969 159.839C140.73 159.839 139.51 159.531 138.417 158.942C137.98 158.824 137.593 158.563 137.318 158.201C137.042 157.839 136.893 157.396 136.893 156.94C136.893 156.484 137.042 156.041 137.318 155.679C137.593 155.317 137.98 155.056 138.417 154.937C139.51 154.349 140.73 154.041 141.969 154.041C143.208 154.041 144.428 154.349 145.521 154.937Z" fill="#9E4A9E"/>
<path d="M162.984 144.735C164.935 145.876 164.935 147.73 162.984 148.799C161.873 149.386 160.632 149.693 159.372 149.693C158.111 149.693 156.87 149.386 155.759 148.799C153.808 147.73 153.808 145.876 155.759 144.735C156.881 144.183 158.118 143.895 159.372 143.895C160.626 143.895 161.862 144.183 162.984 144.735Z" fill="#9E4A9E"/>
<path d="M180.582 133.14C180.951 133.281 181.272 133.553 181.5 133.918C181.727 134.283 181.85 134.722 181.85 135.172C181.85 135.623 181.727 136.062 181.5 136.426C181.272 136.791 180.951 137.064 180.582 137.204C179.637 137.791 178.582 138.098 177.51 138.098C176.439 138.098 175.384 137.791 174.439 137.204C172.718 136.063 172.718 134.281 174.439 133.14C175.393 132.588 176.444 132.3 177.51 132.3C178.577 132.3 179.628 132.588 180.582 133.14Z" fill="#9E4A9E"/>
<path d="M199.22 123.036C199.651 123.178 200.027 123.452 200.293 123.819C200.559 124.187 200.703 124.629 200.703 125.083C200.703 125.537 200.559 125.979 200.293 126.347C200.027 126.714 199.651 126.989 199.22 127.13C198.1 127.671 196.871 127.952 195.627 127.952C194.383 127.952 193.155 127.671 192.034 127.13C191.603 126.989 191.227 126.714 190.961 126.347C190.695 125.979 190.551 125.537 190.551 125.083C190.551 124.629 190.695 124.187 190.961 123.819C191.227 123.452 191.603 123.178 192.034 123.036C193.143 122.457 194.376 122.154 195.627 122.154C196.878 122.154 198.111 122.457 199.22 123.036Z" fill="#9E4A9E"/>
<path d="M216.642 112.902C218.593 113.972 218.593 115.825 216.642 116.966C215.52 117.519 214.283 117.806 213.029 117.806C211.775 117.806 210.539 117.519 209.417 116.966C207.466 115.825 207.466 113.972 209.417 112.902C210.528 112.316 211.769 112.009 213.029 112.009C214.29 112.009 215.531 112.316 216.642 112.902Z" fill="#9E4A9E"/>
<path d="M91.9499 164.414C92.3679 164.574 92.732 164.883 92.9901 165.297C93.2481 165.712 93.3868 166.21 93.3868 166.722C93.3868 167.234 93.2481 167.732 92.9901 168.147C92.732 168.561 92.3679 168.87 91.9499 169.03C90.8685 169.658 89.6764 169.984 88.4678 169.984C87.2592 169.984 86.0672 169.658 84.9857 169.03C83.175 167.734 90.0696 163.118 91.9499 164.414Z" fill="#9E4A9E"/>
<path d="M109.265 154.924C109.703 155.044 110.089 155.306 110.365 155.67C110.64 156.035 110.789 156.481 110.789 156.94C110.789 157.399 110.64 157.845 110.365 158.209C110.089 158.574 109.703 158.836 109.265 158.955C108.169 159.536 106.95 159.839 105.713 159.839C104.477 159.839 103.258 159.536 102.162 158.955C101.724 158.836 101.338 158.574 101.062 158.209C100.787 157.845 100.638 157.399 100.638 156.94C100.638 156.481 100.787 156.035 101.062 155.67C101.338 155.306 101.724 155.044 102.162 154.924C103.258 154.344 104.477 154.041 105.713 154.041C106.95 154.041 108.169 154.344 109.265 154.924Z" fill="#9E4A9E"/>
<path d="M123.841 149.693C126.244 149.693 128.192 148.395 128.192 146.794C128.192 145.193 126.244 143.895 123.841 143.895C121.439 143.895 119.491 145.193 119.491 146.794C119.491 148.395 121.439 149.693 123.841 149.693Z" fill="#9E4A9E"/>
<path d="M141.969 138.098C144.772 138.098 147.045 137.124 147.045 135.924C147.045 134.723 144.772 133.75 141.969 133.75C139.166 133.75 136.893 134.723 136.893 135.924C136.893 137.124 139.166 138.098 141.969 138.098Z" fill="#9E4A9E"/>
<path d="M162.965 123.048C163.396 123.189 163.772 123.461 164.038 123.826C164.304 124.191 164.447 124.63 164.447 125.08C164.447 125.53 164.304 125.969 164.038 126.334C163.772 126.699 163.396 126.971 162.965 127.112C161.849 127.664 160.619 127.952 159.372 127.952C158.125 127.952 156.895 127.664 155.779 127.112C155.347 126.971 154.972 126.699 154.706 126.334C154.439 125.969 154.296 125.53 154.296 125.08C154.296 124.63 154.439 124.191 154.706 123.826C154.972 123.461 155.347 123.189 155.779 123.048C156.884 122.461 158.118 122.154 159.372 122.154C160.625 122.154 161.859 122.461 162.965 123.048Z" fill="#9E4A9E"/>
<path d="M180.602 112.902C182.266 113.972 182.266 115.825 180.602 116.966C179.646 117.519 178.591 117.806 177.522 117.806C176.453 117.806 175.399 117.519 174.442 116.966C172.717 115.825 172.717 113.972 174.442 112.902C175.39 112.316 176.448 112.009 177.522 112.009C178.597 112.009 179.655 112.316 180.602 112.902Z" fill="#9E4A9E"/>
<path d="M91.9315 144.735C93.872 145.876 93.872 147.73 91.9315 148.799C90.8261 149.386 89.5917 149.693 88.3381 149.693C87.0844 149.693 85.8501 149.386 84.7446 148.799C82.7323 147.73 82.7323 145.876 84.7446 144.735C85.8607 144.183 87.0908 143.895 88.3381 143.895C89.5853 143.895 90.8155 144.183 91.9315 144.735Z" fill="#9E4A9E"/>
<path d="M109.307 133.122C109.738 133.263 110.113 133.538 110.38 133.905C110.646 134.273 110.789 134.715 110.789 135.169C110.789 135.623 110.646 136.065 110.38 136.433C110.113 136.8 109.738 137.075 109.307 137.216C108.197 137.795 106.965 138.098 105.713 138.098C104.462 138.098 103.229 137.795 102.12 137.216C101.689 137.075 101.314 136.8 101.047 136.433C100.781 136.065 100.638 135.623 100.638 135.169C100.638 134.715 100.781 134.273 101.047 133.905C101.314 133.538 101.689 133.263 102.12 133.122C103.241 132.581 104.469 132.3 105.713 132.3C106.958 132.3 108.186 132.581 109.307 133.122Z" fill="#9E4A9E"/>
<path d="M123.841 127.952C126.244 127.952 128.192 126.654 128.192 125.053C128.192 123.452 126.244 122.154 123.841 122.154C121.439 122.154 119.491 123.452 119.491 125.053C119.491 126.654 121.439 127.952 123.841 127.952Z" fill="#9E4A9E"/>
<path d="M145.581 112.902C147.532 113.972 147.532 115.825 145.581 116.966C144.459 117.519 143.223 117.806 141.969 117.806C140.715 117.806 139.478 117.519 138.356 116.966C136.405 115.825 136.405 113.972 138.356 112.902C139.468 112.316 140.708 112.009 141.969 112.009C143.229 112.009 144.47 112.316 145.581 112.902Z" fill="#9E4A9E"/>
<path d="M159.372 107.66C162.175 107.66 164.447 106.363 164.447 104.762C164.447 103.161 162.175 101.863 159.372 101.863C156.568 101.863 154.296 103.161 154.296 104.762C154.296 106.363 156.568 107.66 159.372 107.66Z" fill="#9E4A9E"/>
<path d="M48.7535 144.652C49.8217 144.155 51.0145 143.895 52.226 143.895C53.4375 143.895 54.6303 144.155 55.6985 144.652C56.1154 144.771 56.4783 145.001 56.7356 145.31C56.9929 145.619 57.1315 145.99 57.1315 146.371C57.1315 146.752 56.9929 147.124 56.7356 147.433C56.4783 147.742 56.1154 147.972 55.6985 148.091C53.6845 148.996 46.8784 145.617 48.7535 144.652Z" fill="#9E4A9E"/>
<path d="M73.2235 133.196C73.5996 133.315 73.9318 133.576 74.1686 133.938C74.4055 134.3 74.5338 134.743 74.5338 135.199C74.5338 135.655 74.4055 136.098 74.1686 136.46C73.9318 136.822 73.5996 137.083 73.2235 137.201C72.284 137.79 71.2349 138.098 70.1694 138.098C69.1039 138.098 68.0548 137.79 67.1153 137.201C65.4049 136.129 65.4049 134.269 67.1153 133.196C68.0548 132.608 69.1039 132.3 70.1694 132.3C71.2349 132.3 72.284 132.608 73.2235 133.196Z" fill="#9E4A9E"/>
<path d="M91.9237 122.976C93.8746 124.125 93.8746 125.993 91.9237 127.07C90.8086 127.65 89.5692 127.952 88.3111 127.952C87.053 127.952 85.8136 127.65 84.6985 127.07C82.7476 125.993 82.7476 124.125 84.6985 122.976C85.8251 122.435 87.06 122.154 88.3111 122.154C89.5622 122.154 90.7971 122.435 91.9237 122.976Z" fill="#9E4A9E"/>
<path d="M141.969 97.5147C144.772 97.5147 147.045 96.2169 147.045 94.616C147.045 93.015 144.772 91.7171 141.969 91.7171C139.166 91.7171 136.893 93.015 136.893 94.616C136.893 96.2169 139.166 97.5147 141.969 97.5147Z" fill="#9E4A9E"/>
<path d="M162.919 82.4677C163.357 82.5864 163.745 82.8469 164.021 83.2089C164.298 83.5709 164.447 84.0142 164.447 84.4702C164.447 84.9262 164.298 85.3694 164.021 85.7314C163.745 86.0934 163.357 86.3539 162.919 86.4726C161.823 87.0611 160.599 87.369 159.356 87.369C158.112 87.369 156.889 87.0611 155.792 86.4726C153.797 85.3999 153.797 83.5405 155.792 82.4677C156.889 81.8793 158.112 81.5714 159.356 81.5714C160.599 81.5714 161.823 81.8793 162.919 82.4677Z" fill="#9E4A9E"/>
<path d="M38.2048 133.196C38.6422 133.315 39.0285 133.576 39.304 133.938C39.5794 134.3 39.7287 134.743 39.7287 135.199C39.7287 135.655 39.5794 136.098 39.304 136.46C39.0285 136.822 38.6422 137.083 38.2048 137.201C37.1122 137.79 35.8921 138.098 34.6529 138.098C33.4137 138.098 32.1937 137.79 31.101 137.201C30.6637 137.083 30.2773 136.822 30.0018 136.46C29.7264 136.098 29.5771 135.655 29.5771 135.199C29.5771 134.743 29.7264 134.3 30.0018 133.938C30.2773 133.576 30.6637 133.315 31.101 133.196C32.1937 132.608 33.4137 132.3 34.6529 132.3C35.8921 132.3 37.1122 132.608 38.2048 133.196Z" fill="#9E4A9E"/>
<path d="M55.6684 122.994C57.6192 124.135 57.6192 125.989 55.6684 127.058C54.557 127.645 53.3161 127.952 52.0557 127.952C50.7954 127.952 49.5545 127.645 48.4431 127.058C46.4923 125.989 46.4923 124.135 48.4431 122.994C49.5651 122.442 50.8018 122.154 52.0557 122.154C53.3096 122.154 54.5464 122.442 55.6684 122.994Z" fill="#9E4A9E"/>
<path d="M73.2662 112.849C73.635 112.989 73.956 113.261 74.1836 113.626C74.4112 113.991 74.5338 114.43 74.5338 114.881C74.5338 115.331 74.4112 115.77 74.1836 116.135C73.956 116.5 73.635 116.772 73.2662 116.913C72.3213 117.499 71.2661 117.806 70.1944 117.806C69.1228 117.806 68.0676 117.499 67.1227 116.913C65.4025 115.772 65.4025 113.989 67.1227 112.849C68.0767 112.296 69.1283 112.009 70.1944 112.009C71.2606 112.009 72.3122 112.296 73.2662 112.849Z" fill="#9E4A9E"/>
<path d="M109.307 92.6108C109.738 92.7514 110.113 93.0236 110.38 93.3884C110.646 93.7533 110.789 94.1923 110.789 94.6427C110.789 95.0932 110.646 95.5323 110.38 95.8971C110.113 96.262 109.738 96.5341 109.307 96.6748C108.191 97.2272 106.961 97.5147 105.713 97.5147C104.466 97.5147 103.236 97.2272 102.12 96.6748C101.689 96.5341 101.314 96.262 101.047 95.8971C100.781 95.5323 100.638 95.0932 100.638 94.6427C100.638 94.1923 100.781 93.7533 101.047 93.3884C101.314 93.0236 101.689 92.7514 102.12 92.6108C103.226 92.0241 104.46 91.7171 105.713 91.7171C106.967 91.7171 108.201 92.0241 109.307 92.6108Z" fill="#9E4A9E"/>
<path d="M126.886 82.4677C127.261 82.5864 127.592 82.8469 127.828 83.2089C128.064 83.5709 128.192 84.0142 128.192 84.4702C128.192 84.9262 128.064 85.3694 127.828 85.7314C127.592 86.0934 127.261 86.3539 126.886 86.4726C125.949 87.0611 124.904 87.369 123.841 87.369C122.779 87.369 121.733 87.0611 120.797 86.4726C120.422 86.3539 120.091 86.0934 119.855 85.7314C119.619 85.3694 119.491 84.9262 119.491 84.4702C119.491 84.0142 119.619 83.5709 119.855 83.2089C120.091 82.8469 120.422 82.5864 120.797 82.4677C121.733 81.8793 122.779 81.5714 123.841 81.5714C124.904 81.5714 125.949 81.8793 126.886 82.4677Z" fill="#9E4A9E"/>
<path d="M145.562 72.2656C145.993 72.4063 146.369 72.6784 146.635 73.0433C146.901 73.4081 147.045 73.8471 147.045 74.2975C147.045 74.748 146.901 75.187 146.635 75.5519C146.369 75.9168 145.993 76.1889 145.562 76.3296C144.457 76.9162 143.223 77.2232 141.969 77.2232C140.715 77.2232 139.481 76.9162 138.376 76.3296C137.944 76.1889 137.569 75.9168 137.303 75.5519C137.036 75.187 136.893 74.748 136.893 74.2975C136.893 73.8471 137.036 73.4081 137.303 73.0433C137.569 72.6784 137.944 72.4063 138.376 72.2656C139.492 71.7132 140.722 71.4256 141.969 71.4256C143.216 71.4256 144.446 71.7132 145.562 72.2656Z" fill="#9E4A9E"/>
<path d="M19.622 122.994C21.2941 124.135 21.2941 125.989 19.622 127.058C18.6694 127.645 17.6058 127.952 16.5255 127.952C15.4451 127.952 14.3815 127.645 13.4289 127.058C11.7568 125.989 11.7568 124.135 13.4289 122.994C14.3906 122.442 15.4507 122.154 16.5255 122.154C17.6002 122.154 18.6603 122.442 19.622 122.994Z" fill="#9E4A9E"/>
<path d="M38.246 112.849C38.6773 112.989 39.0528 113.261 39.319 113.626C39.5852 113.991 39.7287 114.43 39.7287 114.881C39.7287 115.331 39.5852 115.77 39.319 116.135C39.0528 116.5 38.6773 116.772 38.246 116.913C37.1406 117.499 35.9065 117.806 34.6529 117.806C33.3994 117.806 32.1652 117.499 31.0599 116.913C30.6285 116.772 30.253 116.5 29.9868 116.135C29.7206 115.77 29.5771 115.331 29.5771 114.881C29.5771 114.43 29.7206 113.991 29.9868 113.626C30.253 113.261 30.6285 112.989 31.0599 112.849C32.1758 112.296 33.4058 112.009 34.6529 112.009C35.9 112.009 37.13 112.296 38.246 112.849Z" fill="#9E4A9E"/>
<path d="M55.6488 102.757C56.0801 102.897 56.4558 103.169 56.722 103.534C56.9883 103.899 57.1315 104.338 57.1315 104.789C57.1315 105.239 56.9883 105.678 56.722 106.043C56.4558 106.408 56.0801 106.68 55.6488 106.82C54.5328 107.373 53.3028 107.66 52.0556 107.66C50.8085 107.66 49.5784 107.373 48.4625 106.82C48.0312 106.68 47.6557 106.408 47.3894 106.043C47.1232 105.678 46.98 105.239 46.98 104.789C46.98 104.338 47.1232 103.899 47.3894 103.534C47.6557 103.169 48.0312 102.897 48.4625 102.757C49.5679 102.17 50.8021 101.863 52.0556 101.863C53.3092 101.863 54.5434 102.17 55.6488 102.757Z" fill="#9E4A9E"/>
<path d="M73.2662 92.6108C73.635 92.7514 73.956 93.0236 74.1836 93.3884C74.4112 93.7533 74.5338 94.1923 74.5338 94.6427C74.5338 95.0932 74.4112 95.5323 74.1836 95.8971C73.956 96.262 73.635 96.5341 73.2662 96.6748C72.3122 97.2272 71.2606 97.5147 70.1944 97.5147C69.1283 97.5147 68.0767 97.2272 67.1227 96.6748C65.4025 95.534 65.4025 93.7516 67.1227 92.6108C68.0676 92.0241 69.1228 91.7171 70.1944 91.7171C71.2661 91.7171 72.3213 92.0241 73.2662 92.6108Z" fill="#9E4A9E"/>
<path d="M91.863 82.4547C92.3004 82.5742 92.6867 82.8363 92.9622 83.2007C93.2376 83.565 93.3869 84.0112 93.3869 84.4702C93.3869 84.9291 93.2376 85.3753 92.9622 85.7396C92.6867 86.104 92.3004 86.3662 91.863 86.4857C90.7666 87.0659 89.548 87.369 88.3111 87.369C87.0742 87.369 85.8556 87.0659 84.7592 86.4857C84.3219 86.3662 83.9355 86.104 83.66 85.7396C83.3846 85.3753 83.2354 84.9291 83.2354 84.4702C83.2354 84.0112 83.3846 83.565 83.66 83.2007C83.9355 82.8363 84.3219 82.5742 84.7592 82.4547C85.8556 81.8744 87.0742 81.5714 88.3111 81.5714C89.548 81.5714 90.7666 81.8744 91.863 82.4547Z" fill="#9E4A9E"/>
<path d="M109.307 72.2656C109.738 72.4063 110.113 72.6784 110.38 73.0433C110.646 73.4081 110.789 73.8471 110.789 74.2975C110.789 74.748 110.646 75.187 110.38 75.5519C110.113 75.9168 109.738 76.1889 109.307 76.3296C108.201 76.9162 106.967 77.2232 105.713 77.2232C104.46 77.2232 103.226 76.9162 102.12 76.3296C101.689 76.1889 101.314 75.9168 101.047 75.5519C100.781 75.187 100.638 74.748 100.638 74.2975C100.638 73.8471 100.781 73.4081 101.047 73.0433C101.314 72.6784 101.689 72.4063 102.12 72.2656C103.236 71.7132 104.466 71.4256 105.713 71.4256C106.961 71.4256 108.191 71.7132 109.307 72.2656Z" fill="#9E4A9E"/>
<path d="M126.921 62.1198C127.291 62.2604 127.613 62.5326 127.841 62.8975C128.069 63.2624 128.192 63.7013 128.192 64.1518C128.192 64.6023 128.069 65.0412 127.841 65.4061C127.613 65.7709 127.291 66.0432 126.921 66.1838C125.974 66.7705 124.916 67.0774 123.841 67.0774C122.767 67.0774 121.709 66.7705 120.762 66.1838C120.392 66.0432 120.07 65.7709 119.842 65.4061C119.614 65.0412 119.491 64.6023 119.491 64.1518C119.491 63.7013 119.614 63.2624 119.842 62.8975C120.07 62.5326 120.392 62.2604 120.762 62.1198C121.718 61.5674 122.772 61.2799 123.841 61.2799C124.91 61.2799 125.965 61.5674 126.921 62.1198Z" fill="#9E4A9E"/>
<path d="M19.6052 102.757C19.9749 102.897 20.2968 103.169 20.525 103.534C20.7532 103.899 20.8761 104.338 20.8761 104.789C20.8761 105.239 20.7532 105.678 20.525 106.043C20.2968 106.408 19.9749 106.68 19.6052 106.82C18.6487 107.373 17.5944 107.66 16.5255 107.66C15.4565 107.66 14.4022 107.373 13.4457 106.82C13.076 106.68 12.7541 106.408 12.5259 106.043C12.2977 105.678 12.1748 105.239 12.1748 104.789C12.1748 104.338 12.2977 103.899 12.5259 103.534C12.7541 103.169 13.076 102.897 13.4457 102.757C14.3931 102.17 15.451 101.863 16.5255 101.863C17.5999 101.863 18.6578 102.17 19.6052 102.757Z" fill="#9E4A9E"/>
<path d="M38.246 92.6108C38.6773 92.7514 39.0528 93.0236 39.319 93.3884C39.5852 93.7533 39.7287 94.1923 39.7287 94.6427C39.7287 95.0932 39.5852 95.5323 39.319 95.8971C39.0528 96.262 38.6773 96.5341 38.246 96.6748C37.13 97.2272 35.9 97.5147 34.6529 97.5147C33.4058 97.5147 32.1758 97.2272 31.0599 96.6748C30.6285 96.5341 30.253 96.262 29.9868 95.8971C29.7206 95.5323 29.5771 95.0932 29.5771 94.6427C29.5771 94.1923 29.7206 93.7533 29.9868 93.3884C30.253 93.0236 30.6285 92.7514 31.0599 92.6108C32.1652 92.0241 33.3994 91.7171 34.6529 91.7171C35.9065 91.7171 37.1406 92.0241 38.246 92.6108Z" fill="#9E4A9E"/>
<path d="M55.6076 82.4677C56.045 82.5864 56.4313 82.8469 56.7068 83.2089C56.9823 83.5709 57.1315 84.0142 57.1315 84.4702C57.1315 84.9262 56.9823 85.3694 56.7068 85.7314C56.4313 86.0934 56.045 86.3539 55.6076 86.4726C54.5149 87.0611 53.2949 87.369 52.0556 87.369C50.8164 87.369 49.5963 87.0611 48.5036 86.4726C48.0663 86.3539 47.6801 86.0934 47.4047 85.7314C47.1292 85.3694 46.98 84.9262 46.98 84.4702C46.98 84.0142 47.1292 83.5709 47.4047 83.2089C47.6801 82.8469 48.0663 82.5864 48.5036 82.4677C49.5963 81.8793 50.8164 81.5714 52.0556 81.5714C53.2949 81.5714 54.5149 81.8793 55.6076 82.4677Z" fill="#9E4A9E"/>
<path d="M73.2662 72.2656C73.635 72.4063 73.956 72.6784 74.1836 73.0433C74.4112 73.4081 74.5338 73.8471 74.5338 74.2975C74.5338 74.748 74.4112 75.187 74.1836 75.5519C73.956 75.9168 73.635 76.1889 73.2662 76.3296C72.3213 76.9162 71.2661 77.2232 70.1944 77.2232C69.1228 77.2232 68.0676 76.9162 67.1227 76.3296C65.4025 75.1888 65.4025 73.4064 67.1227 72.2656C68.0767 71.7132 69.1283 71.4256 70.1944 71.4256C71.2606 71.4256 72.3122 71.7132 73.2662 72.2656Z" fill="#9E4A9E"/>
<path d="M91.9042 62.1015C92.3355 62.2432 92.711 62.5175 92.9772 62.8851C93.2434 63.2527 93.3869 63.6949 93.3869 64.1487C93.3869 64.6026 93.2434 65.0448 92.9772 65.4124C92.711 65.78 92.3355 66.0543 91.9042 66.196C90.7951 66.775 89.5624 67.0774 88.3111 67.0774C87.0599 67.0774 85.8271 66.775 84.7181 66.196C84.2867 66.0543 83.9112 65.78 83.645 65.4124C83.3788 65.0448 83.2354 64.6026 83.2354 64.1487C83.2354 63.6949 83.3788 63.2527 83.645 62.8851C83.9112 62.5175 84.2867 62.2432 84.7181 62.1015C85.8386 61.5607 87.0668 61.2799 88.3111 61.2799C89.5554 61.2799 90.7836 61.5607 91.9042 62.1015Z" fill="#9E4A9E"/>
<defs>
<clipPath id="clip0_10_6458">
<rect width="49.5" height="53.6" fill="white" transform="translate(181)"/>
</clipPath>
</defs>
</svg>
