<svg width="284" height="335" viewBox="0 0 284 335" fill="none" xmlns="http://www.w3.org/2000/svg">
<path d="M2.6416 84.1298L63.8484 118.129V168.184L2.6416 134.186V84.1298Z" fill="white"/>
<path d="M142.487 3.39052L203.694 37.4544L63.8485 118.129L2.6416 84.1298L142.487 3.39052Z" fill="white"/>
<path d="M143.853 20.1624L205.06 54.1614L65.2142 134.901L4.00732 100.837L143.853 20.1624Z" fill="#FEBB00"/>
<path d="M20.0081 297.484L81.2149 331.548L147.755 119.754L63.8481 168.184L61.0511 166.624L20.0081 297.484Z" fill="white"/>
<path d="M67.6197 187.102L35.3577 290.984L89.2796 319.652L120.696 218.695L67.6197 187.102Z" fill="#FEBB00"/>
<path d="M77.8917 299.632C80.1723 299.632 82.0212 298.561 82.0212 297.238C82.0212 295.916 80.1723 294.845 77.8917 294.845C75.611 294.845 73.7622 295.916 73.7622 297.238C73.7622 298.561 75.611 299.632 77.8917 299.632Z" fill="#9E4A9E"/>
<path d="M96.2054 286.645C96.5646 286.763 96.8773 286.992 97.099 287.298C97.3208 287.604 97.4402 287.973 97.4402 288.351C97.4402 288.729 97.3208 289.098 97.099 289.404C96.8773 289.71 96.5646 289.939 96.2054 290.057C95.276 290.52 94.2516 290.762 93.213 290.762C92.1744 290.762 91.15 290.52 90.2207 290.057C88.5449 289.099 88.5449 287.603 90.2207 286.645C91.1412 286.153 92.169 285.895 93.213 285.895C94.257 285.895 95.2848 286.153 96.2054 286.645Z" fill="#9E4A9E"/>
<path d="M65.4444 286.645C65.8036 286.763 66.1163 286.992 66.3381 287.298C66.5598 287.604 66.6792 287.973 66.6792 288.351C66.6792 288.729 66.5598 289.098 66.3381 289.404C66.1163 289.71 65.8036 289.939 65.4444 290.057C64.515 290.52 63.4906 290.762 62.452 290.762C61.4134 290.762 60.389 290.52 59.4597 290.057C59.1005 289.939 58.7878 289.71 58.566 289.404C58.3443 289.098 58.2249 288.729 58.2249 288.351C58.2249 287.973 58.3443 287.604 58.566 287.298C58.7878 286.992 59.1005 286.763 59.4597 286.645C60.3802 286.153 61.4081 285.895 62.452 285.895C63.496 285.895 64.5239 286.153 65.4444 286.645Z" fill="#9E4A9E"/>
<path d="M80.8246 277.788C82.4404 278.686 82.4404 280.242 80.8246 281.199C79.8952 281.663 78.8708 281.904 77.8322 281.904C76.7936 281.904 75.7692 281.663 74.8398 281.199C73.224 280.242 73.224 278.686 74.8398 277.788C75.7604 277.296 76.7882 277.038 77.8322 277.038C78.8762 277.038 79.904 277.296 80.8246 277.788Z" fill="#9E4A9E"/>
<path d="M96.2054 268.931C96.5738 269.03 96.8991 269.248 97.1312 269.551C97.3632 269.854 97.4892 270.225 97.4892 270.607C97.4892 270.988 97.3632 271.359 97.1312 271.662C96.8991 271.965 96.5738 272.183 96.2054 272.282C95.2848 272.775 94.257 273.032 93.213 273.032C92.169 273.032 91.1412 272.775 90.2207 272.282C88.5449 271.385 88.5449 269.828 90.2207 268.931C91.1412 268.438 92.169 268.181 93.213 268.181C94.257 268.181 95.2848 268.438 96.2054 268.931Z" fill="#9E4A9E"/>
<path d="M47.1295 281.858C49.4101 281.858 51.259 280.786 51.259 279.464C51.259 278.142 49.4101 277.07 47.1295 277.07C44.8488 277.07 43 278.142 43 279.464C43 280.786 44.8488 281.858 47.1295 281.858Z" fill="#9E4A9E"/>
<path d="M62.512 273.001C64.7927 273.001 66.6415 271.929 66.6415 270.607C66.6415 269.285 64.7927 268.213 62.512 268.213C60.2314 268.213 58.3826 269.285 58.3826 270.607C58.3826 271.929 60.2314 273.001 62.512 273.001Z" fill="#9E4A9E"/>
<path d="M77.8917 264.143C80.1723 264.143 82.0212 263.072 82.0212 261.749C82.0212 260.427 80.1723 259.356 77.8917 259.356C75.611 259.356 73.7622 260.427 73.7622 261.749C73.7622 263.072 75.611 264.143 77.8917 264.143Z" fill="#9E4A9E"/>
<path d="M96.2054 251.157C96.5646 251.275 96.8773 251.503 97.099 251.809C97.3208 252.116 97.4402 252.484 97.4402 252.862C97.4402 253.24 97.3208 253.609 97.099 253.915C96.8773 254.221 96.5646 254.45 96.2054 254.568C95.2848 255.06 94.257 255.318 93.213 255.318C92.169 255.318 91.1412 255.06 90.2207 254.568C88.5449 253.61 88.5449 252.114 90.2207 251.157C91.15 250.693 92.1744 250.452 93.213 250.452C94.2516 250.452 95.276 250.693 96.2054 251.157Z" fill="#9E4A9E"/>
<path d="M111.586 242.298C111.945 242.416 112.258 242.644 112.48 242.951C112.702 243.257 112.821 243.625 112.821 244.004C112.821 244.382 112.702 244.75 112.48 245.056C112.258 245.363 111.945 245.591 111.586 245.709C110.653 246.16 109.63 246.394 108.594 246.394C107.558 246.394 106.535 246.16 105.602 245.709C105.242 245.591 104.929 245.363 104.708 245.056C104.486 244.75 104.367 244.382 104.367 244.004C104.367 243.625 104.486 243.257 104.708 242.951C104.929 242.644 105.242 242.416 105.602 242.298C106.525 241.816 107.552 241.564 108.594 241.564C109.636 241.564 110.663 241.816 111.586 242.298Z" fill="#9E4A9E"/>
<path d="M65.4444 251.157C65.8036 251.275 66.1163 251.503 66.3381 251.809C66.5598 252.116 66.6792 252.484 66.6792 252.862C66.6792 253.24 66.5598 253.609 66.3381 253.915C66.1163 254.221 65.8036 254.45 65.4444 254.568C64.5239 255.06 63.496 255.318 62.452 255.318C61.4081 255.318 60.3802 255.06 59.4597 254.568C59.1005 254.45 58.7878 254.221 58.566 253.915C58.3443 253.609 58.2249 253.24 58.2249 252.862C58.2249 252.484 58.3443 252.116 58.566 251.809C58.7878 251.503 59.1005 251.275 59.4597 251.157C60.389 250.693 61.4134 250.452 62.452 250.452C63.4906 250.452 64.515 250.693 65.4444 251.157Z" fill="#9E4A9E"/>
<path d="M77.8917 246.369C80.1723 246.369 82.0212 245.297 82.0212 243.975C82.0212 242.653 80.1723 241.581 77.8917 241.581C75.611 241.581 73.7622 242.653 73.7622 243.975C73.7622 245.297 75.611 246.369 77.8917 246.369Z" fill="#9E4A9E"/>
<path d="M93.2714 237.512C95.552 237.512 97.4009 236.44 97.4009 235.118C97.4009 233.796 95.552 232.724 93.2714 232.724C90.9907 232.724 89.1421 233.796 89.1421 235.118C89.1421 236.44 90.9907 237.512 93.2714 237.512Z" fill="#9E4A9E"/>
<path d="M108.593 228.653C110.873 228.653 112.722 227.581 112.722 226.259C112.722 224.937 110.873 223.865 108.593 223.865C106.312 223.865 104.463 224.937 104.463 226.259C104.463 227.581 106.312 228.653 108.593 228.653Z" fill="#9E4A9E"/>
<path d="M65.3216 233.322C65.6808 233.44 65.9935 233.669 66.2153 233.975C66.437 234.281 66.5564 234.65 66.5564 235.028C66.5564 235.406 66.437 235.774 66.2153 236.081C65.9935 236.387 65.6808 236.615 65.3216 236.733C64.4011 237.226 63.3732 237.483 62.3292 237.483C61.2853 237.483 60.2574 237.226 59.3369 236.733C58.9777 236.615 58.6649 236.387 58.4432 236.081C58.2215 235.774 58.1021 235.406 58.1021 235.028C58.1021 234.65 58.2215 234.281 58.4432 233.975C58.6649 233.669 58.9777 233.44 59.3369 233.322C60.2662 232.858 61.2906 232.617 62.3292 232.617C63.3678 232.617 64.3922 232.858 65.3216 233.322Z" fill="#9E4A9E"/>
<path d="M80.7029 224.465C81.0622 224.583 81.3749 224.811 81.5966 225.117C81.8183 225.424 81.9376 225.792 81.9376 226.17C81.9376 226.548 81.8183 226.917 81.5966 227.223C81.3749 227.529 81.0622 227.758 80.7029 227.876C79.7736 228.34 78.7492 228.581 77.7106 228.581C76.672 228.581 75.6476 228.34 74.7182 227.876C73.0425 226.918 73.0425 225.422 74.7182 224.465C75.6388 223.972 76.6666 223.715 77.7106 223.715C78.7546 223.715 79.7824 223.972 80.7029 224.465Z" fill="#9E4A9E"/>
<path d="M93.0933 219.676C95.374 219.676 97.2228 218.604 97.2228 217.282C97.2228 215.96 95.374 214.888 93.0933 214.888C90.8127 214.888 88.9639 215.96 88.9639 217.282C88.9639 218.604 90.8127 219.676 93.0933 219.676Z" fill="#9E4A9E"/>
<path d="M80.7029 206.75C81.0714 206.849 81.3967 207.067 81.6287 207.37C81.8608 207.673 81.9865 208.044 81.9865 208.426C81.9865 208.807 81.8608 209.178 81.6287 209.481C81.3967 209.784 81.0714 210.002 80.7029 210.102C79.7824 210.594 78.7546 210.852 77.7106 210.852C76.6666 210.852 75.6388 210.594 74.7182 210.102C73.0425 209.204 73.0425 207.648 74.7182 206.75C75.6388 206.258 76.6666 206 77.7106 206C78.7546 206 79.7824 206.258 80.7029 206.75Z" fill="#9E4A9E"/>
<path d="M203.628 34.594L143.657 1.24525L142.421 0.595139L2.51062 81.3344L0.104004 82.6996V135.616L58.0586 167.794L17.0807 298.525L78.2876 332.588L81.2144 334.214L83.2308 333.044L137.478 301.71L206.035 73.6636V38.6895V35.8292L203.628 34.594ZM142.486 6.18579L198.685 37.4544L125.575 79.6443L63.6526 115.333L7.58408 83.9998L142.486 6.18579ZM5.04745 132.755V88.2903L21.6337 97.4564L61.376 119.559V164.024L59.6196 163.049L5.04745 132.755ZM22.9347 296.314L61.9613 172.085L63.9126 170.98L66.3194 169.615L143.592 125.019L80.0437 327.908L22.9347 296.314Z" fill="#9E4A9E"/>
<path d="M222.712 182.784V185.972L222.567 200.611L212.416 194.814V180.465V180.03V176.841L216.186 179.015L222.712 182.784Z" fill="white"/>
<path d="M272.89 160.608L265.783 162.492L263.898 163.072L259.548 164.232L249.831 166.84L249.106 166.985L237.359 170.174L236.634 170.319L235.909 170.464L212.416 176.841L216.186 179.015L216.911 178.87L219.957 180.61L222.712 182.204L224.597 181.769H224.742H224.887L234.314 179.305L235.619 179.015L236.054 178.87C236.054 178.87 236.199 178.87 236.199 179.015C236.199 179.015 236.199 179.16 236.344 179.16V178.87L237.069 178.726L248.816 175.537L249.251 175.392L249.396 175.537V175.827L250.266 175.537L250.556 175.392H250.701L260.128 172.783L261.723 172.348L265.348 171.334L274.92 168.725L276.66 168.29L278.69 167.71L283.041 166.551L272.89 160.608Z" fill="white"/>
<path d="M216.186 179.015L215.461 179.16L213.141 179.74L212.561 179.885L211.835 180.175L212.416 180.465L212.996 180.755L221.987 186.117L222.567 185.972V182.784L216.186 179.015ZM278.11 167.275L272.164 163.942L265.493 165.681L265.058 165.826L263.608 166.261L249.396 170.174H248.961L237.214 173.363L236.489 173.508L235.764 173.653L216.911 178.87L219.957 180.61L222.712 182.204L224.597 181.769H224.742H224.887L234.314 179.305L235.619 179.015L236.054 178.87C236.054 178.87 236.199 178.87 236.199 179.015C236.199 179.015 236.199 179.16 236.344 179.16V178.87L237.069 178.726L248.816 175.537L249.251 175.392L249.396 175.537V175.827L250.266 175.537L250.556 175.392H250.701L260.128 172.783L261.723 172.348L265.348 171.334L274.92 168.725L276.66 168.29L278.69 167.71L278.11 167.275Z" fill="#FEBB00"/>
<path d="M283.621 166.116V184.668L264.768 189.741L248.816 194.089L248.091 194.379L236.344 197.568L235.619 197.713L234.894 197.857L222.567 201.191L211.835 195.104V180.32L212.416 180.61V194.814L222.567 200.756V185.972V182.784L216.186 179.015L216.911 178.87L219.957 180.61L222.712 182.204L224.597 181.769H224.742H224.887L234.314 179.305L235.619 179.015L236.054 178.87C236.054 178.87 236.199 178.87 236.199 179.015C236.199 179.015 236.199 179.16 236.344 179.16V178.87L237.069 178.726L248.816 175.537L249.251 175.392L249.396 175.537V175.827L250.266 175.537C250.411 175.537 250.411 175.537 250.556 175.392H250.701L260.128 172.783L261.723 172.348L265.348 171.334L274.92 168.725L276.66 168.29L278.69 167.71L283.041 166.551L272.89 160.608L265.784 162.492V161.913L272.89 160.028L283.621 166.116Z" fill="#9E4A9E"/>
<path d="M259.548 164.232L249.831 166.84L249.106 166.985V167.565L249.831 167.42L263.463 163.797L259.548 164.232ZM236.054 178.581C236.199 178.581 236.199 178.726 236.199 178.726C236.199 178.726 236.199 178.87 236.344 178.87V178.581H236.054ZM259.548 164.232L249.831 166.84L249.106 166.985V167.565L249.831 167.42L263.463 163.797L259.548 164.232ZM236.054 178.581C236.199 178.581 236.199 178.726 236.199 178.726L236.344 178.87V178.581H236.054ZM236.054 178.581C236.199 178.581 236.199 178.726 236.199 178.726C236.199 178.726 236.199 178.87 236.344 178.87V178.581H236.054ZM272.89 160.608L265.784 162.492V161.913L263.463 162.492L255.632 164.666H255.487L249.686 166.261L248.961 166.406L237.214 169.594L236.489 169.739L235.764 169.884L211.835 176.406V180.03L212.416 180.32V194.524L222.567 200.466V185.683V182.494L216.186 179.015L216.911 178.87L213.866 177.131L235.764 171.189L236.489 171.044L237.214 170.899L248.961 167.71L249.686 167.565L263.318 163.942L264.043 163.797L265.638 163.362L272.745 161.478L281.591 166.551L278.11 167.275L275.79 167.855L275.065 168L268.974 169.594L265.638 170.464L265.493 170.609L264.333 170.899L250.991 174.522L249.541 174.957H249.251L249.396 175.102V175.392L250.266 175.102L250.556 174.957H250.701L260.128 172.348L261.723 171.913L265.348 170.899L274.92 168.29L276.66 167.855L278.69 167.275L283.041 166.116L272.89 160.608ZM219.377 181.479L222.132 183.074V183.798V186.117V199.742L212.996 194.524V180.9V179.885V177.856L215.316 179.16L219.377 181.479ZM236.054 178.581C236.199 178.581 236.199 178.726 236.199 178.726L236.344 178.87V178.581H236.054ZM259.548 164.232L249.831 166.84L249.106 166.985V167.565L249.831 167.42L263.463 163.797L259.548 164.232ZM236.054 178.581C236.199 178.581 236.199 178.726 236.199 178.726L236.344 178.87V178.581H236.054ZM259.548 164.232L249.831 166.84L249.106 166.985V167.565L249.831 167.42L263.463 163.797L259.548 164.232Z" fill="#9E4A9E"/>
<path d="M276.805 168.145L275.065 168.725C274.92 168.58 274.92 168.29 275.21 168.145C275.355 168 275.645 168 275.79 168C276.08 168 276.37 168 276.515 168.145C276.805 168 276.805 168.145 276.805 168.145Z" fill="#9E4A9E"/>
<path d="M261.868 172.203L260.272 172.638C260.272 172.493 260.417 172.348 260.562 172.203C260.853 172.058 261.433 172.058 261.868 172.203Z" fill="#9E4A9E"/>
<path d="M264.913 171.044C265.474 171.044 265.928 170.784 265.928 170.464C265.928 170.144 265.474 169.884 264.913 169.884C264.352 169.884 263.898 170.144 263.898 170.464C263.898 170.784 264.352 171.044 264.913 171.044Z" fill="#9E4A9E"/>
<path d="M269.264 168C269.699 168.29 269.699 168.58 269.264 168.87C268.829 169.16 268.249 169.16 267.814 168.87C267.379 168.58 267.379 168.29 267.814 168C268.249 167.71 268.829 167.71 269.264 168Z" fill="#9E4A9E"/>
<path d="M273.034 165.826C273.469 166.116 273.469 166.406 273.034 166.696C272.599 166.985 272.019 166.985 271.584 166.696C271.149 166.406 271.149 166.116 271.584 165.826C272.019 165.681 272.599 165.681 273.034 165.826Z" fill="#9E4A9E"/>
<path d="M250.846 175.247H250.701L250.411 175.392C250.121 175.392 249.831 175.392 249.541 175.247L249.396 175.102C249.251 174.957 249.251 174.667 249.541 174.377C249.541 174.377 249.541 174.377 249.686 174.377C250.121 174.232 250.701 174.232 250.991 174.377C251.136 174.377 251.136 174.522 251.281 174.522C251.136 174.812 251.136 174.957 250.846 175.247Z" fill="#9E4A9E"/>
<path d="M254.472 172.203C254.907 172.493 254.907 172.783 254.472 173.073C254.037 173.363 253.457 173.363 253.022 173.073C252.587 172.783 252.587 172.493 253.022 172.203C253.457 172.058 254.037 172.058 254.472 172.203Z" fill="#9E4A9E"/>
<path d="M257.517 171.044C258.078 171.044 258.532 170.784 258.532 170.464C258.532 170.144 258.078 169.884 257.517 169.884C256.956 169.884 256.502 170.144 256.502 170.464C256.502 170.784 256.956 171.044 257.517 171.044Z" fill="#9E4A9E"/>
<path d="M261.868 168C262.303 168.29 262.303 168.58 261.868 168.87C261.433 169.16 260.853 169.16 260.418 168.87C259.983 168.58 259.983 168.29 260.418 168C260.853 167.71 261.433 167.71 261.868 168Z" fill="#9E4A9E"/>
<path d="M265.493 165.826C265.928 166.116 265.928 166.406 265.493 166.696C265.058 166.985 264.478 166.985 264.043 166.696C263.608 166.406 263.608 166.116 264.043 165.826C264.478 165.681 265.203 165.681 265.493 165.826Z" fill="#9E4A9E"/>
<path d="M236.054 178.581L235.619 178.726L234.314 179.015C234.314 178.87 234.459 178.726 234.604 178.581C234.894 178.436 235.184 178.436 235.619 178.436C235.764 178.436 235.909 178.581 236.054 178.581Z" fill="#9E4A9E"/>
<path d="M239.679 176.551C240.114 176.841 240.114 177.131 239.679 177.421C239.244 177.711 238.664 177.711 238.229 177.421C237.794 177.131 237.794 176.841 238.229 176.551C238.664 176.262 239.389 176.262 239.679 176.551Z" fill="#9E4A9E"/>
<path d="M243.45 174.377C243.885 174.667 243.885 174.957 243.45 175.247C243.015 175.537 242.435 175.537 242 175.247C241.565 174.957 241.565 174.667 242 174.377C242.435 174.087 243.015 174.087 243.45 174.377Z" fill="#9E4A9E"/>
<path d="M247.076 172.203C247.511 172.493 247.511 172.783 247.076 173.073C246.641 173.363 246.061 173.363 245.626 173.073C245.191 172.783 245.191 172.493 245.626 172.203C246.061 172.058 246.786 172.058 247.076 172.203Z" fill="#9E4A9E"/>
<path d="M250.846 170.174C251.281 170.464 251.281 170.754 250.846 171.044C250.411 171.334 249.831 171.334 249.396 171.044C248.961 170.754 248.961 170.464 249.396 170.174C249.831 169.884 250.411 169.884 250.846 170.174Z" fill="#9E4A9E"/>
<path d="M221.262 182.929C221.697 183.219 221.697 183.509 221.262 183.798C220.827 184.088 220.247 184.088 219.812 183.798C219.377 183.509 219.377 183.219 219.812 182.929C220.247 182.639 220.827 182.639 221.262 182.929Z" fill="#9E4A9E"/>
<path d="M225.032 181.624H224.887H224.742C224.452 181.624 224.017 181.624 223.727 181.479C223.292 181.189 223.292 180.9 223.727 180.61C224.162 180.32 224.742 180.32 225.177 180.61C225.322 181.045 225.322 181.334 225.032 181.624Z" fill="#9E4A9E"/>
<path d="M228.658 178.581C229.093 178.87 229.093 179.16 228.658 179.45C228.223 179.74 227.643 179.74 227.208 179.45C226.773 179.16 226.773 178.87 227.208 178.581C227.643 178.436 228.223 178.436 228.658 178.581Z" fill="#9E4A9E"/>
<path d="M232.283 176.551C232.718 176.841 232.718 177.131 232.283 177.421C231.848 177.711 231.268 177.711 230.833 177.421C230.398 177.131 230.398 176.841 230.833 176.551C231.268 176.262 231.993 176.262 232.283 176.551Z" fill="#9E4A9E"/>
<path d="M235.329 175.392C235.89 175.392 236.344 175.132 236.344 174.812C236.344 174.492 235.89 174.232 235.329 174.232C234.768 174.232 234.314 174.492 234.314 174.812C234.314 175.132 234.768 175.392 235.329 175.392Z" fill="#9E4A9E"/>
<path d="M216.911 181.769C217.472 181.769 217.926 181.51 217.926 181.189C217.926 180.869 217.472 180.61 216.911 180.61C216.35 180.61 215.896 180.869 215.896 181.189C215.896 181.51 216.35 181.769 216.911 181.769Z" fill="#9E4A9E"/>
<path d="M220.537 179.595C221.097 179.595 221.552 179.336 221.552 179.015C221.552 178.695 221.097 178.436 220.537 178.436C219.976 178.436 219.521 178.695 219.521 179.015C219.521 179.336 219.976 179.595 220.537 179.595Z" fill="#9E4A9E"/>
<path d="M248.816 194.089L247.945 218.149L235.474 202.206L235.619 197.713L236.344 197.568L248.091 194.379L248.816 194.089Z" fill="white"/>
<path d="M249.976 159.738L249.831 165.246V166.116V166.696V167.275L249.686 169.884V170.899L249.541 174.377V174.957V175.247L249.396 175.102L248.961 175.247L237.214 178.436L236.489 178.581L236.634 173.508L236.779 170.899V170.319V169.739L237.504 150.317V149.303L237.649 143.65L241.565 148.723L249.976 159.738Z" fill="white"/>
<path d="M237.504 143.795L249.976 159.738L265.203 157.999L252.731 141.911L237.504 143.795Z" fill="white"/>
<path d="M236.634 149.448L249.106 165.391L264.333 163.652L251.861 147.564L236.634 149.448Z" fill="#FEBB00"/>
<path d="M265.493 157.13L253.166 141.186L237.939 143.07L236.924 143.215V144.085L236.779 149.593L236.054 170.029V170.609V171.189L235.909 173.798V174.377V175.392L235.764 178.581V178.87L236.199 178.726C236.199 178.726 236.344 178.726 236.344 178.87C236.344 178.87 236.344 179.015 236.489 179.015V178.726L237.214 178.581L237.359 173.508L237.504 170.899V170.319V169.739L237.939 151.187V149.303L238.084 145.824L239.099 146.984L240.694 149.013L249.251 160.028L249.106 165.536V166.551V167.13V167.71V169.449V170.319L248.961 175.392L249.396 175.247L249.541 175.392V175.682L250.411 175.392L250.701 175.247H250.846L260.272 172.638L261.868 172.203L265.493 171.189V170.899V170.609V170.029L265.638 166.551V165.826V165.536L265.783 162.927V162.347V161.768L265.928 158.434V157.564L265.493 157.13ZM238.954 144.375L252.441 142.636L263.898 157.274L259.837 157.709L257.517 157.999L250.266 158.869L242.29 148.723L239.099 144.665L238.954 144.375ZM248.816 194.089L248.091 194.379L247.365 216.265L236.199 202.061L236.344 197.713H235.619L234.894 197.857L234.749 202.351L247.22 218.294L247.655 218.729L248.671 218.584L263.898 216.7L264.913 189.596L248.816 194.089Z" fill="#9E4A9E"/>
<path d="M248.354 160.846C248.511 160.478 248.1 159.951 247.437 159.669C246.774 159.386 246.109 159.456 245.952 159.824C245.795 160.192 246.206 160.72 246.869 161.002C247.532 161.284 248.197 161.215 248.354 160.846Z" fill="#9E4A9E"/>
<path d="M244.9 155.825C245.19 156.26 245.045 156.695 244.465 156.84C243.885 156.84 243.16 156.55 242.725 156.115C242.435 155.68 242.58 155.245 243.16 155.1C243.74 154.955 244.61 155.245 244.9 155.825Z" fill="#9E4A9E"/>
<path d="M250.411 155.1C250.701 155.535 250.556 155.97 249.976 156.115C249.396 156.115 248.67 155.825 248.235 155.39C247.945 154.955 248.09 154.521 248.67 154.376C249.396 154.376 250.121 154.666 250.411 155.1Z" fill="#9E4A9E"/>
<path d="M255.921 154.376C256.211 154.811 256.066 155.245 255.486 155.39C254.906 155.39 254.181 155.1 253.746 154.666C253.456 154.231 253.601 153.796 254.181 153.651C254.906 153.651 255.631 153.941 255.921 154.376Z" fill="#9E4A9E"/>
<path d="M241.564 151.332C241.855 151.767 241.71 152.202 241.129 152.347C240.549 152.347 239.824 152.057 239.389 151.622C239.099 151.187 239.244 150.752 239.824 150.607C240.404 150.462 241.129 150.897 241.564 151.332Z" fill="#9E4A9E"/>
<path d="M247.217 151.255C247.374 150.886 246.963 150.359 246.3 150.077C245.637 149.795 244.972 149.864 244.815 150.232C244.658 150.601 245.069 151.128 245.732 151.41C246.395 151.692 247.06 151.623 247.217 151.255Z" fill="#9E4A9E"/>
<path d="M252.834 150.65C252.991 150.281 252.58 149.754 251.917 149.472C251.254 149.19 250.589 149.259 250.432 149.627C250.275 149.996 250.686 150.523 251.349 150.805C252.012 151.087 252.677 151.018 252.834 150.65Z" fill="#9E4A9E"/>
</svg>
