<svg width="269" height="211" viewBox="0 0 269 211" fill="none" xmlns="http://www.w3.org/2000/svg">
<path d="M91.9083 183.326C91.9083 186.377 90.7276 189.303 88.626 191.46C86.5244 193.618 83.674 194.83 80.7018 194.83C77.731 194.819 74.8846 193.605 72.7821 191.45C70.6796 189.295 69.4913 186.375 69.4758 183.326C69.4127 181.773 69.6561 180.224 70.1913 178.77C70.7265 177.317 71.5425 175.989 72.5903 174.868C73.638 173.747 74.8959 172.854 76.2882 172.245C77.6805 171.635 79.1784 171.321 80.6921 171.321C82.2057 171.321 83.7037 171.635 85.096 172.245C86.4883 172.854 87.7461 173.747 88.7938 174.868C89.8416 175.989 90.6576 177.317 91.1928 178.77C91.728 180.224 91.9714 181.773 91.9083 183.326Z" fill="#FFDE42"/>
<g style="mix-blend-mode:screen" opacity="0.27">
<path d="M89.9169 181.281C89.9169 182.798 89.6252 184.3 89.0586 185.701C88.492 187.102 87.6617 188.374 86.6151 189.444C85.5685 190.515 84.3264 191.363 82.9598 191.94C81.5933 192.517 80.1293 192.811 78.6518 192.806C76.1978 192.831 73.8061 192.013 71.8577 190.481C70.5642 188.783 69.7623 186.746 69.5436 184.602C69.3248 182.459 69.6981 180.295 70.6207 178.359C71.5433 176.423 72.978 174.793 74.7607 173.654C76.5435 172.516 78.6023 171.915 80.7018 171.922C83.1881 171.924 85.604 172.77 87.5741 174.327C89.0706 176.322 89.893 178.763 89.9169 181.281Z" fill="#FFDE42"/>
</g>
<g style="mix-blend-mode:screen" opacity="0.19">
<path d="M81.0728 180.46C81.0728 181.193 80.861 181.91 80.4641 182.52C80.0672 183.129 79.5031 183.604 78.8432 183.885C78.1832 184.166 77.457 184.239 76.7563 184.096C76.0557 183.953 75.4121 183.6 74.907 183.081C74.4019 182.563 74.0579 181.902 73.9185 181.183C73.7792 180.464 73.8507 179.718 74.1241 179.041C74.3974 178.363 74.8604 177.784 75.4543 177.377C76.0483 176.969 76.7466 176.752 77.461 176.752C78.4189 176.752 79.3376 177.142 80.0149 177.838C80.6923 178.533 81.0728 179.476 81.0728 180.46Z" fill="#FFDE42"/>
</g>
<path d="M77.8125 172.443H77.3049C77.7453 172.26 78.2158 172.164 78.6911 172.162H78.3592L77.8125 172.443Z" fill="#FFB300"/>
<path d="M72.7949 175.87C72.463 176.191 72.2482 176.331 72.2678 176.211C72.2873 176.09 71.5259 175.489 71.9359 175.088C72.3459 174.687 73.3416 175.088 73.3806 175.088C73.2385 175.341 73.0609 175.57 72.8535 175.77L72.7949 175.87Z" fill="#FFC317"/>
<path d="M69.9055 172.984L69.2808 173.745C69.4904 173.927 69.7493 174.039 70.0227 174.066C70.5459 174.264 70.9824 174.648 71.2526 175.148C71.5803 175.545 71.9324 175.92 72.3069 176.271L73.4197 175.128C73.4197 175.128 72.6778 174.327 72.3655 174.066C71.8968 173.758 71.4757 173.38 71.116 172.944C71.0502 172.674 70.9305 172.422 70.7645 172.202L69.9055 172.984Z" fill="#FFC317"/>
<path d="M70.0616 180.66C69.9444 181.041 69.8273 181.321 69.7882 181.241L68.2264 180.64C67.7451 180.496 67.2414 180.448 66.7426 180.5C66.461 180.575 66.1652 180.575 65.8835 180.5L66.4888 178.375C66.6978 178.391 66.8963 178.475 67.055 178.616C67.3887 178.954 67.808 179.19 68.2654 179.297H68.6559C69.4954 179.417 70.2373 179.578 70.2373 179.578C70.2291 179.945 70.1699 180.31 70.0616 180.66Z" fill="#FFC317"/>
<path d="M66.2162 179.317V179.499C66.2162 179.499 66.1758 179.337 66.2162 179.317Z" fill="#FFB300"/>
<path d="M79.6865 180.56C79.296 181.201 78.8079 181.502 78.515 180.981C78.2222 180.46 77.6755 180.239 77.6755 180.119C77.6755 179.678 78.5541 178.696 78.925 178.696C79.296 178.696 79.706 180.039 79.6865 180.48V180.56Z" fill="#FFC62B"/>
<path d="M69.9833 173.224C69.5538 173.665 69.2609 173.846 69.2805 173.685C69.3 173.525 69.4171 173.284 69.9833 172.723C70.5495 172.162 70.7252 172.102 70.7642 172.202C70.8033 172.302 70.2762 172.924 70.0614 173.144L69.9833 173.224Z" fill="#FFDA0B"/>
<path d="M66.2154 179.798C66.0788 180.199 65.9421 180.58 65.8835 180.48C65.8955 180.014 65.9813 179.554 66.1374 179.117C66.3521 178.395 66.4497 178.295 66.4888 178.355C66.4639 178.813 66.3785 179.264 66.235 179.698L66.2154 179.798Z" fill="#FFDA0B"/>
<path d="M79.2572 179.578C79.2572 179.767 79.1991 179.952 79.0913 180.105C78.9835 180.259 78.8314 180.374 78.6564 180.433C78.4815 180.493 78.2927 180.495 78.1167 180.439C77.9406 180.382 77.7864 180.27 77.6758 180.119C77.5317 179.894 77.4694 179.625 77.5001 179.357C77.5232 179.098 77.6366 178.856 77.8195 178.676C78.0024 178.495 78.2425 178.389 78.4957 178.375C78.6168 178.392 78.7333 178.434 78.8385 178.498C78.9436 178.562 79.0353 178.647 79.108 178.748C79.1807 178.849 79.2331 178.963 79.2621 179.085C79.2911 179.207 79.296 179.334 79.2767 179.458C79.2795 179.499 79.2728 179.54 79.2572 179.578Z" fill="#FFC84A"/>
<path d="M78.8276 172.443C78.8276 172.583 78.0857 172.783 78.0857 172.783C77.6367 172.904 77.4219 172.924 77.3438 172.783C77.2277 171.716 77.012 170.662 76.6996 169.637C76.5213 169.516 76.3847 169.341 76.3091 169.136C76.7043 168.993 77.1088 168.879 77.5195 168.795L78.3786 168.635C78.3866 168.844 78.3394 169.052 78.2419 169.236C78.324 170.323 78.5204 171.399 78.8276 172.443Z" fill="#FFC317"/>
<path d="M77.383 169.176C76.6216 169.376 76.2311 169.316 76.3287 169.176C76.4263 169.036 78.1639 168.474 78.2811 168.735C78.3982 168.996 77.383 169.176 77.383 169.176Z" fill="#FFDA0B"/>
<path d="M77.324 175.229C76.9531 175.69 76.6017 175.79 76.5041 175.529C74.1808 169.256 77.1678 174.527 77.4997 174.567C77.8316 174.607 77.4412 175.088 77.324 175.229Z" fill="#FFC317"/>
<path d="M76.1136 171.821L76.3869 171.521C76.5155 171.663 76.6092 171.835 76.6603 172.022C76.6603 172.302 76.6603 172.343 76.8164 172.703C76.9726 173.064 77.5388 174.607 77.5388 174.607L76.5822 175.669C76.5822 175.669 75.7817 173.866 75.7426 173.665C75.7036 173.465 75.4693 173.305 75.4107 173.184C75.3091 173.049 75.191 172.928 75.0593 172.824L76.1136 171.821Z" fill="#FFC317"/>
<path d="M76.0555 172.443C75.5674 173.084 74.9817 173.224 74.9622 172.844C75.0475 172.522 75.2189 172.231 75.4571 172.005C75.6952 171.778 75.9904 171.624 76.3093 171.561C76.6997 171.561 76.2117 172.142 76.0555 172.443Z" fill="#FFDA0B"/>
<path d="M77.871 177.674C77.6367 178.355 77.0315 178.475 76.8558 178.095C76.5532 177.763 76.285 177.401 76.0553 177.012C75.9186 176.832 75.6453 176.451 75.4501 176.231C75.2548 176.01 76.1139 174.587 76.5239 174.728C76.9339 174.868 77.5586 176.551 77.7343 176.972C77.91 177.072 77.9491 177.333 77.871 177.674Z" fill="#FFC62B"/>
<path d="M76.6993 175.75C76.4065 176.551 75.606 176.752 75.3717 176.231C75.2781 175.986 75.2781 175.714 75.3717 175.469C75.4424 175.248 75.5741 175.052 75.7508 174.907C75.9276 174.761 76.1418 174.671 76.3674 174.647C76.7188 174.647 76.8555 175.108 76.7188 175.649C76.7969 175.67 76.7969 175.71 76.6993 175.75Z" fill="#FFC84A"/>
<path d="M77.8125 194.269L77.3049 194.169C77.7335 194.352 78.1888 194.46 78.652 194.49H78.3202L77.8125 194.269Z" fill="#FFB300"/>
<path d="M71.838 187.875C71.6233 187.474 71.428 187.294 71.2914 187.314C71.1547 187.334 70.6666 187.715 70.2371 187.955L69.6904 188.276L69.2804 188.476C68.8509 188.59 68.4136 188.67 67.9724 188.717H67.8748L68.2457 189.318C68.2328 189.35 68.2262 189.384 68.2262 189.418C68.2262 189.453 68.2328 189.487 68.2457 189.519C68.3162 189.536 68.3899 189.536 68.4605 189.519L68.7924 190.04V190.581C68.9448 190.546 69.0882 190.478 69.2128 190.381C69.3374 190.284 69.4404 190.161 69.5147 190.02C70.0303 189.531 70.6249 189.137 71.2718 188.857L71.9552 188.637C72.1114 188.617 72.0528 188.296 71.838 187.875Z" fill="#FFC317"/>
<path d="M70.0616 185.991C69.9444 185.611 69.8273 185.33 69.7882 185.41L68.2264 186.011C67.7451 186.155 67.2414 186.203 66.7426 186.152C66.461 186.076 66.1652 186.076 65.8835 186.152L66.4888 188.276C66.6978 188.26 66.8963 188.176 67.055 188.036C67.3917 187.697 67.8091 187.455 68.2654 187.334H68.6559C69.4954 187.214 70.2373 187.034 70.2373 187.034C70.2267 186.679 70.1676 186.329 70.0616 185.991Z" fill="#FFC317"/>
<path d="M66.2162 187.336V187.154V187.255C66.2162 187.255 66.1758 187.315 66.2162 187.336Z" fill="#FFB300"/>
<path d="M79.6865 186.071C79.296 185.45 78.8079 185.149 78.515 185.671C78.3784 185.891 77.6755 186.412 77.6755 186.512C77.6755 186.973 78.5541 187.955 78.925 187.955C79.296 187.955 79.706 186.613 79.6865 186.152V186.071Z" fill="#FFC317"/>
<path d="M74.9813 186.613C74.747 186.011 74.1418 185.831 73.9661 186.312C73.7904 186.793 71.8185 187.775 71.838 187.875C72.0137 188.296 74.4737 187.615 74.7666 187.575C75.0594 187.535 75.1375 187.154 75.0204 186.693L74.9813 186.613Z" fill="#FFC317"/>
<path d="M72.5215 188.477L72.7167 189.138C72.8625 189.07 72.9849 188.958 73.0681 188.817C73.1853 188.617 73.3415 188.236 73.4976 188.176L74.7667 187.655L74.1224 186.192C73.5562 186.525 72.9692 186.82 72.3653 187.074H71.8772L72.5215 188.477Z" fill="#FFC317"/>
<path d="M74.4738 189.639C74.1029 189.138 73.6733 189.038 73.6343 189.338C73.5953 189.639 72.951 190.641 72.1505 190.882C71.8292 190.974 71.5208 191.109 71.2329 191.282L72.541 192.946C72.7099 192.697 72.8477 192.428 72.951 192.144C73.2243 191.222 74.5714 190.481 74.669 190.461C74.7667 190.441 74.669 190 74.5129 189.699L74.4738 189.639Z" fill="#FFC317"/>
<path d="M68.6169 189.398C68.2655 188.797 67.8555 188.557 67.7774 188.897C67.736 189.29 67.8407 189.683 68.0703 190C68.3826 190.541 68.695 190.801 68.8902 190.681C69.0855 190.561 68.8902 190.06 68.656 189.499L68.6169 189.398Z" fill="#FFDA0B"/>
<path d="M66.2154 186.853C66.0788 186.452 65.9421 186.071 65.8835 186.172C65.8955 186.637 65.9813 187.097 66.1374 187.535C66.3521 188.256 66.4497 188.356 66.4888 188.296C66.4656 187.839 66.3802 187.387 66.235 186.953L66.2154 186.853Z" fill="#FFDA0B"/>
<path d="M79.2571 187.074C79.2613 186.882 79.2062 186.695 79.1 186.538C78.9937 186.381 78.8417 186.263 78.6658 186.201C78.4898 186.138 78.2992 186.135 78.1212 186.191C77.9433 186.247 77.7873 186.359 77.6757 186.512C77.5317 186.745 77.4696 187.02 77.4999 187.294C77.5231 187.553 77.6365 187.795 77.8194 187.976C78.0023 188.156 78.2424 188.263 78.4956 188.276C78.7379 188.236 78.9554 188.101 79.1014 187.899C79.2474 187.696 79.3103 187.443 79.2766 187.194C79.2794 187.153 79.2727 187.111 79.2571 187.074Z" fill="#FFDA0B"/>
<path d="M72.9119 187.815C72.58 186.993 71.7795 186.753 71.5257 187.394C71.4289 187.673 71.4289 187.977 71.5257 188.256C71.76 188.837 72.17 189.158 72.58 189.098C72.99 189.038 73.0681 188.517 72.9119 187.915C72.9044 187.882 72.9044 187.848 72.9119 187.815Z" fill="#FFDA0B"/>
<path d="M72.209 191.884C71.7014 191.202 71.1352 191.082 71.0767 191.483C71.0788 191.803 71.1972 192.11 71.4086 192.345C71.7795 192.806 72.209 193.066 72.4628 193.006C72.7166 192.946 72.4628 192.385 72.2676 191.984L72.209 191.884Z" fill="#FFDA0B"/>
<path d="M78.8276 194.189C78.8276 194.048 78.0857 193.828 78.0857 193.828C77.6367 193.728 77.4219 193.708 77.3438 193.828C77.2277 194.895 77.012 195.949 76.6996 196.974C76.5213 197.095 76.3847 197.27 76.3091 197.475C76.7043 197.618 77.1088 197.732 77.5195 197.816L78.3786 197.977C78.3876 197.767 78.3404 197.559 78.2419 197.375C78.3254 196.295 78.5217 195.226 78.8276 194.189Z" fill="#F2B50D"/>
<path d="M77.3832 197.476C76.6218 197.275 76.2314 197.315 76.329 197.476C76.9022 197.871 77.5996 198.029 78.2813 197.917C78.4375 197.757 77.3832 197.476 77.3832 197.476Z" fill="#FFDA0B"/>
<path d="M77.324 191.423C76.9531 190.962 76.6017 190.862 76.5041 191.122C74.1808 197.395 77.1678 192.124 77.4997 192.084C77.8316 192.044 77.4412 191.563 77.324 191.423Z" fill="#FFC317"/>
<path d="M76.1136 194.83L76.3869 195.131C76.5155 194.988 76.6092 194.816 76.6603 194.629C76.6603 194.349 76.6603 194.309 76.8164 193.948C76.9726 193.587 77.5388 191.944 77.5388 191.944L76.5822 190.882C76.5822 190.882 75.7817 192.685 75.7426 192.886C75.7036 193.086 75.4693 193.247 75.4107 193.367C75.3091 193.502 75.191 193.623 75.0593 193.728L76.1136 194.83Z" fill="#F2B50D"/>
<path d="M76.0553 194.309C75.5672 193.667 74.9815 193.527 74.962 193.908C74.9425 194.289 75.8601 195.251 76.3091 195.191C76.7581 195.131 76.2115 194.489 76.0553 194.309Z" fill="#FFDA0B"/>
<path d="M77.871 188.978C77.6367 188.296 77.0315 188.156 76.8558 188.537C76.5625 188.876 76.2949 189.238 76.0553 189.619C75.8673 189.897 75.6653 190.164 75.4501 190.421C75.2548 190.641 76.1139 192.064 76.5239 191.924C76.9339 191.784 77.5586 190.1 77.7343 189.679C77.91 189.579 77.9491 189.318 77.871 188.978Z" fill="#FFC317"/>
<path d="M76.6993 190.902C76.4065 190.1 75.606 189.9 75.3717 190.421C75.2781 190.665 75.2781 190.937 75.3717 191.182C75.4424 191.403 75.5741 191.599 75.7508 191.745C75.9276 191.891 76.1418 191.981 76.3674 192.004C76.7188 192.004 76.8555 191.543 76.7188 191.002L76.6993 190.902Z" fill="#FFDA0B"/>
<path d="M83.5719 172.443H84.0991C83.6575 172.264 83.1877 172.168 82.7129 172.162H83.0253L83.5719 172.443Z" fill="#FFB300"/>
<path d="M91.3424 180.66C91.4596 181.041 91.5572 181.321 91.5963 181.241L93.1777 180.64C93.6589 180.496 94.1627 180.448 94.6614 180.5C94.9364 180.575 95.226 180.575 95.501 180.5L94.9152 178.375C94.7007 178.392 94.4963 178.476 94.3295 178.616C93.9958 178.954 93.5765 179.19 93.1191 179.297H92.7481C91.8891 179.417 91.1472 179.578 91.1472 179.578C91.154 179.947 91.22 180.313 91.3424 180.66Z" fill="#F2B50D"/>
<path d="M81.717 180.56C82.088 181.201 82.5761 181.502 82.8884 180.981C83.2008 180.46 83.7279 180.239 83.7084 180.119C83.7084 179.678 82.8299 178.696 82.4589 178.696C82.088 178.696 81.6975 180.039 81.6975 180.48C81.6975 180.46 81.6975 180.46 81.717 180.56Z" fill="#FFC317"/>
<path d="M86.4612 180.019C86.6955 180.62 87.3007 180.82 87.496 180.339C87.6912 179.858 89.6435 178.876 89.624 178.776C89.4288 178.355 86.9688 179.037 86.676 179.077C86.3831 179.117 86.305 179.498 86.4417 179.959L86.4612 180.019Z" fill="#FFC317"/>
<path d="M88.8626 178.255L88.6869 177.594C88.537 177.664 88.4086 177.775 88.316 177.914C88.1988 178.115 88.0622 178.495 87.906 178.556L86.6174 179.077L87.2812 180.52C87.8462 180.19 88.4334 179.902 89.0383 179.658H89.5069L88.8626 178.255Z" fill="#FFC317"/>
<path d="M86.9299 177.012C87.3008 177.513 87.7108 177.614 87.7694 177.313C87.8279 177.012 88.4527 176.01 89.2532 175.77C89.5694 175.68 89.8718 175.545 90.1512 175.369L88.8432 173.685C88.68 173.927 88.5364 174.181 88.4136 174.447C88.1403 175.369 86.7932 176.11 86.7151 176.13C86.637 176.151 86.7151 176.591 86.8518 176.892L86.9299 177.012Z" fill="#FFC317"/>
<path d="M95.1884 179.798C95.3055 180.199 95.4617 180.58 95.5007 180.48C95.5002 180.015 95.4209 179.554 95.2665 179.117C95.0322 178.395 94.9346 178.295 94.915 178.355C94.9178 178.813 94.9971 179.267 95.1493 179.698L95.1884 179.798Z" fill="#FFDA0B"/>
<path d="M82.1271 179.578C82.2638 180.48 83.24 180.82 83.7086 180.119C83.8613 179.898 83.9243 179.625 83.8843 179.357C83.8656 179.1 83.7563 178.858 83.5766 178.677C83.3969 178.497 83.1593 178.389 82.9081 178.375C82.6623 178.41 82.4399 178.544 82.2899 178.747C82.1398 178.949 82.0743 179.205 82.1076 179.458C82.1233 179.495 82.13 179.537 82.1271 179.578Z" fill="#FFC84A"/>
<path d="M88.4136 178.836C88.726 179.658 89.5459 179.898 89.7802 179.257C89.8739 178.978 89.8739 178.675 89.7802 178.395C89.5264 177.814 89.1164 177.493 88.726 177.554C88.3355 177.614 88.2183 178.135 88.3941 178.736L88.4136 178.836Z" fill="#FFDA0B"/>
<path d="M89.1749 174.768C89.6825 175.449 90.2487 175.569 90.3073 175.168C90.3659 174.768 90.3073 174.748 89.9754 174.307C89.6435 173.866 89.1749 173.565 88.9211 173.645C88.6673 173.725 88.9211 174.267 89.1163 174.667L89.1749 174.768Z" fill="#FFDA0B"/>
<path d="M85.407 173.926C85.407 174.046 85.9732 174.527 85.9732 174.527C86.3636 174.788 86.5589 174.888 86.6565 174.848C87.1285 173.883 87.7048 172.975 88.3746 172.142C88.5707 172.089 88.7473 171.977 88.8822 171.821C88.5681 171.544 88.2354 171.289 87.8865 171.06L87.1446 170.579C87.083 170.781 87.083 170.998 87.1446 171.2C86.6672 172.173 86.0843 173.087 85.407 173.926Z" fill="#FFC317"/>
<path d="M87.906 171.401C88.5503 171.861 88.9408 171.962 88.9017 171.741C88.8627 171.521 87.4179 170.439 87.1446 170.579C86.8713 170.719 87.906 171.401 87.906 171.401Z" fill="#FFDA0B"/>
<path d="M85.407 173.926C85.407 174.046 85.9732 174.527 85.9732 174.527C86.3636 174.788 86.5589 174.888 86.6565 174.848C87.1285 173.883 87.7048 172.975 88.3746 172.142C88.5707 172.089 88.7473 171.977 88.8822 171.821C88.5681 171.544 88.2354 171.289 87.8865 171.06L87.1446 170.579C87.083 170.781 87.083 170.998 87.1446 171.2C86.6672 172.173 86.0843 173.087 85.407 173.926Z" fill="#FFC317"/>
<path d="M87.906 171.401C88.5503 171.861 88.9408 171.962 88.9017 171.741C88.8627 171.521 87.4179 170.439 87.1446 170.579C86.8713 170.719 87.906 171.401 87.906 171.401Z" fill="#FFDA0B"/>
<path d="M82.5564 172.443C82.5564 172.583 83.3178 172.783 83.3178 172.783C83.7473 172.904 83.9621 172.924 84.0402 172.783C84.1522 171.713 84.3748 170.659 84.704 169.637C84.8732 169.511 85.0024 169.337 85.0749 169.136C84.6797 168.993 84.2752 168.879 83.8645 168.795L83.0054 168.635C82.999 168.846 83.0533 169.056 83.1616 169.236C83.0736 170.324 82.8707 171.399 82.5564 172.443Z" fill="#FFC317"/>
<path d="M84.0209 169.176C84.7628 169.376 85.1727 169.316 85.0556 169.176C84.9385 169.036 83.2204 168.474 83.0056 168.735C82.7909 168.996 84.0209 169.176 84.0209 169.176Z" fill="#FFDA0B"/>
<path d="M84.0796 175.229C84.4505 175.69 84.7824 175.79 84.88 175.529C87.2229 169.256 84.2163 174.527 83.8844 174.567C83.5525 174.607 83.9624 175.088 84.0796 175.229Z" fill="#FFC317"/>
<path d="M85.2704 171.821L84.9971 171.521C84.8708 171.662 84.7832 171.835 84.7433 172.022C84.7433 172.302 84.7433 172.343 84.5676 172.703C84.3919 173.064 83.8452 174.607 83.8452 174.607L84.8019 175.669C84.8019 175.669 85.6219 173.866 85.6609 173.665C85.7536 173.497 85.858 173.337 85.9733 173.184C86.075 173.049 86.1931 172.928 86.3247 172.824L85.2704 171.821Z" fill="#FFC317"/>
<path d="M85.3288 172.443C85.8365 173.084 86.4026 173.224 86.4222 172.844C86.4417 172.463 85.5241 171.501 85.075 171.561C84.626 171.621 85.1727 172.142 85.3288 172.443Z" fill="#FFDA0B"/>
<path d="M83.5326 177.674C83.7474 178.355 84.3526 178.475 84.5283 178.095C84.8308 177.763 85.0991 177.401 85.3288 177.012C85.4654 176.832 85.7583 176.451 85.9535 176.231C86.1488 176.01 85.2897 174.587 84.8797 174.728C84.4697 174.868 83.8255 176.551 83.6693 176.972C83.4936 177.072 83.435 177.333 83.5326 177.674Z" fill="#FFC317"/>
<path d="M84.6066 175.75C84.919 176.551 85.6999 176.752 85.9537 176.231C86.0493 175.986 86.0493 175.713 85.9537 175.469C85.8831 175.248 85.7514 175.052 85.5746 174.907C85.3979 174.761 85.1837 174.671 84.958 174.647C84.6066 174.647 84.4895 175.108 84.6261 175.649C84.6216 175.683 84.615 175.717 84.6066 175.75Z" fill="#FFDA0B"/>
<path d="M83.5719 194.269L84.0991 194.169C83.6554 194.341 83.1869 194.436 82.7129 194.45H83.0253L83.5719 194.269Z" fill="#FFB300"/>
<path d="M89.5461 187.875C89.7609 187.474 89.9757 187.294 90.0928 187.314L91.1471 187.955L91.7132 188.276L92.1037 188.476C92.5337 188.588 92.9708 188.669 93.4118 188.717L93.0408 189.318C93.0408 189.318 93.0408 189.459 93.0408 189.519C93.0408 189.579 93.0408 189.519 92.8261 189.519L92.4942 190.04V190.581C92.3426 190.543 92.2002 190.474 92.0759 190.378C91.9516 190.281 91.8481 190.159 91.7718 190.02C91.2646 189.529 90.6762 189.136 90.0342 188.857L89.3509 188.637C89.2728 188.617 89.3314 188.296 89.5461 187.875Z" fill="#F2B50D"/>
<path d="M91.3424 185.991C91.4596 185.611 91.5572 185.33 91.5963 185.41L93.1777 186.011C93.6589 186.155 94.1627 186.203 94.6614 186.152C94.9364 186.076 95.226 186.076 95.501 186.152L94.9152 188.276C94.7007 188.259 94.4963 188.175 94.3295 188.036C93.9928 187.697 93.5754 187.455 93.1191 187.334H92.7481C91.8891 187.214 91.1472 187.034 91.1472 187.034C91.1565 186.678 91.2225 186.325 91.3424 185.991Z" fill="#F2B50D"/>
<path d="M81.717 186.071C82.088 185.45 82.5761 185.149 82.8885 185.671C83.0251 185.891 83.728 186.412 83.7084 186.512C83.7084 186.973 82.8299 187.955 82.4589 187.955C82.088 187.955 81.6975 186.613 81.6975 186.152C81.6971 186.124 81.7038 186.096 81.717 186.071Z" fill="#FFC317"/>
<path d="M86.4612 186.613C86.6955 186.011 87.3007 185.831 87.496 186.312C87.6912 186.793 89.6435 187.775 89.6045 187.875C89.4288 188.296 86.9688 187.615 86.676 187.575C86.3831 187.535 86.305 187.154 86.4417 186.693L86.4612 186.613Z" fill="#FFC317"/>
<path d="M88.8626 188.477L88.6869 189.138C88.537 189.068 88.4086 188.957 88.316 188.817C88.1988 188.617 88.0622 188.236 87.906 188.176L86.6174 187.655L87.2812 186.192C87.8453 186.529 88.4326 186.824 89.0383 187.074H89.5069L88.8626 188.477Z" fill="#FFC317"/>
<path d="M86.9299 189.639C87.3008 189.138 87.7108 189.038 87.7694 189.338C87.8279 189.639 88.4527 190.641 89.2532 190.882C89.5695 190.971 89.8718 191.106 90.1512 191.282L88.8432 192.946C88.6823 192.693 88.545 192.424 88.4332 192.144C88.1598 191.222 86.8127 190.481 86.7346 190.461C86.6565 190.441 86.7346 190 86.8713 189.699L86.9299 189.639Z" fill="#F2B50D"/>
<path d="M92.7868 189.398C93.1187 188.797 93.5287 188.557 93.6263 188.897C93.6552 189.288 93.5518 189.678 93.3335 190C93.0211 190.541 92.6892 190.801 92.5135 190.681C92.3378 190.561 92.5135 190.06 92.7282 189.499L92.7868 189.398Z" fill="#FFDA0B"/>
<path d="M95.1884 186.853C95.3055 186.452 95.4617 186.071 95.5007 186.172C95.5002 186.636 95.4209 187.098 95.2665 187.535C95.0322 188.256 94.9346 188.356 94.915 188.296C94.9178 187.838 94.9971 187.384 95.1493 186.953L95.1884 186.853Z" fill="#FFDA0B"/>
<path d="M82.1269 187.073C82.2635 186.172 83.2397 185.831 83.7083 186.512C83.8604 186.741 83.9231 187.02 83.884 187.294C83.8654 187.552 83.756 187.793 83.5763 187.974C83.3967 188.155 83.159 188.262 82.9078 188.276C82.6642 188.236 82.445 188.102 82.2958 187.9C82.1467 187.698 82.0791 187.445 82.1074 187.194C82.123 187.156 82.1297 187.115 82.1269 187.073Z" fill="#FFDA0B"/>
<path d="M88.4136 187.815C88.726 186.993 89.5459 186.753 89.7802 187.394C89.8739 187.673 89.8739 187.977 89.7802 188.256C89.5264 188.837 89.1164 189.158 88.726 189.098C88.3355 189.038 88.2183 188.517 88.3941 187.915C88.3928 187.881 88.3995 187.847 88.4136 187.815Z" fill="#FFDA0B"/>
<path d="M82.5564 194.189C82.5564 194.048 83.3178 193.828 83.3178 193.828C83.7473 193.728 83.9621 193.708 84.0402 193.828C84.1522 194.898 84.3748 195.953 84.704 196.974C84.8732 197.1 85.0024 197.274 85.0749 197.475C84.6797 197.618 84.2752 197.732 83.8645 197.816L83.0054 197.977C82.9966 197.764 83.0511 197.555 83.1616 197.375C83.0722 196.294 82.8693 195.225 82.5564 194.189Z" fill="#F2B50D"/>
<path d="M84.0209 197.476C84.7628 197.275 85.1728 197.315 85.0557 197.476C84.759 197.684 84.4252 197.831 84.0735 197.907C83.7217 197.982 83.3589 197.986 83.0057 197.917C82.9667 197.757 84.0209 197.476 84.0209 197.476Z" fill="#FFDA0B"/>
<path d="M84.0796 191.423C84.4505 190.962 84.7824 190.862 84.88 191.122C87.2229 197.395 84.2163 192.124 83.8844 192.084C83.5525 192.044 83.9624 191.563 84.0796 191.423Z" fill="#FFC317"/>
<path d="M85.2704 194.83L84.9971 195.131C84.8708 194.99 84.7832 194.817 84.7433 194.629C84.7433 194.349 84.7433 194.309 84.5676 193.948C84.3919 193.587 83.8452 191.944 83.8452 191.944L84.8019 190.882C84.8019 190.882 85.6219 192.685 85.6609 192.886C85.7536 193.054 85.858 193.214 85.9733 193.367C86.075 193.502 86.1931 193.623 86.3247 193.728L85.2704 194.83Z" fill="#F2B50D"/>
<path d="M85.3288 194.309C85.8365 193.667 86.4026 193.527 86.4222 193.908C86.4417 194.289 85.5241 195.251 85.075 195.191C84.626 195.131 85.1727 194.489 85.3288 194.309Z" fill="#FFDA0B"/>
<path d="M83.5326 188.978C83.7474 188.296 84.3526 188.156 84.5283 188.537C84.8216 188.876 85.0892 189.238 85.3288 189.619C85.5238 189.897 85.7323 190.164 85.9535 190.421C86.1488 190.641 85.2897 192.064 84.8797 191.924C84.4697 191.784 83.8255 190.1 83.6693 189.679C83.4936 189.579 83.435 189.318 83.5326 188.978Z" fill="#FFC317"/>
<path d="M84.6067 190.902C84.9191 190.1 85.7001 189.9 85.9539 190.421C86.0494 190.665 86.0494 190.938 85.9539 191.182C85.8832 191.403 85.7515 191.599 85.5747 191.745C85.398 191.891 85.1838 191.981 84.9582 192.004C84.6067 192.004 84.4896 191.543 84.6263 191.002C84.5091 190.962 84.6067 190.942 84.6067 190.902Z" fill="#FFDA0B"/>
<path d="M75.0205 179.938C74.7862 180.56 74.2981 180.76 74.0638 180.48C73.5177 180.164 72.95 179.889 72.3653 179.658H71.8772L72.5215 178.315L72.7167 177.654C72.8625 177.722 72.9849 177.834 73.0681 177.974C73.1853 178.175 73.3415 178.556 73.4976 178.616L74.7667 179.137C75.04 179.177 75.1376 179.498 75.0205 179.938Z" fill="#FFC62B"/>
<path d="M72.9119 178.836C72.58 179.658 71.7795 179.898 71.5257 179.257C71.4289 178.978 71.4289 178.674 71.5257 178.395C71.76 177.814 72.17 177.493 72.58 177.554C72.99 177.614 73.0681 178.135 72.9119 178.736C72.9015 178.769 72.9015 178.804 72.9119 178.836Z" fill="#FFC84A"/>
<path d="M76.6994 182.885C76.8166 183.526 76.5042 183.967 76.1528 183.867C75.4986 183.86 74.8452 183.913 74.2004 184.027C74.056 184.106 73.9059 184.173 73.7514 184.228V182.744L73.5757 182.063C73.7287 182.017 73.8912 182.017 74.0442 182.063C74.259 182.183 74.5519 182.424 74.7276 182.424L76.0942 182.203C76.2504 182.203 76.5042 182.464 76.6994 182.885Z" fill="#FFC62B"/>
<path d="M74.2397 183.025C74.3763 183.907 73.7906 184.548 73.2635 184.107C73.0448 183.913 72.9054 183.641 72.873 183.346C72.8088 183.109 72.8217 182.858 72.9099 182.63C72.998 182.402 73.1565 182.21 73.3611 182.083C73.7321 182.083 74.0835 182.324 74.2201 182.925C74.2342 182.956 74.2409 182.991 74.2397 183.025Z" fill="#FFC84A"/>
<path d="M84.6648 182.885C84.6648 183.526 84.8795 183.967 85.231 183.867C85.8852 183.857 86.5389 183.911 87.1833 184.027L87.6324 184.228L87.7495 182.744L87.9057 182.063C87.7592 182.018 87.6031 182.018 87.4566 182.063C87.2436 182.223 87.0061 182.345 86.7538 182.424L85.4067 182.203C85.0162 182.203 84.7624 182.464 84.6648 182.885Z" fill="#FFC317"/>
<path d="M87.0277 183.025C86.9106 183.907 87.4768 184.548 88.0234 184.107C88.2351 183.907 88.3731 183.638 88.4139 183.346C88.4782 183.109 88.4652 182.858 88.3771 182.63C88.2889 182.402 88.1304 182.21 87.9258 182.083C87.5354 182.083 87.2035 182.324 87.0473 182.925C87.0427 182.959 87.0362 182.992 87.0277 183.025Z" fill="#FFDA0B"/>
<path d="M81.7757 183.125C81.7757 183.351 81.7105 183.572 81.5882 183.76C81.4659 183.948 81.2921 184.094 81.0888 184.181C80.8854 184.267 80.6617 184.29 80.4458 184.246C80.2299 184.202 80.0316 184.093 79.876 183.933C79.7204 183.773 79.6144 183.57 79.5714 183.348C79.5285 183.126 79.5505 182.897 79.6348 182.688C79.719 182.479 79.8616 182.301 80.0446 182.175C80.2276 182.05 80.4428 181.983 80.6629 181.983C80.958 181.983 81.2411 182.103 81.4498 182.317C81.6585 182.532 81.7757 182.822 81.7757 183.125Z" fill="#FFC84A"/>
<path d="M67.6797 182.825L68.1092 182.123C68.1092 182.123 68.4997 182.123 68.6168 182.263C69.1806 182.57 69.8146 182.716 70.452 182.684C70.9792 182.684 71.3306 182.484 71.4282 182.564C71.5258 182.644 71.721 182.825 71.643 183.446C71.5649 184.067 71.3501 184.208 71.1353 184.167C70.7805 184.016 70.4052 183.922 70.0225 183.887C69.5483 183.899 69.0796 183.994 68.6363 184.167C68.408 184.25 68.1727 184.31 67.9335 184.348L67.6797 182.825Z" fill="#FFC62B"/>
<path d="M68.5584 183.506C68.4412 184.288 67.9141 184.608 67.5627 184.107C67.3719 183.783 67.3026 183.398 67.3674 183.025C67.4651 182.404 67.7579 182.043 68.1093 182.123C68.4608 182.203 68.6365 182.744 68.5779 183.386C68.5808 183.427 68.5741 183.468 68.5584 183.506Z" fill="#FFDA0B"/>
<path d="M93.7825 182.825L93.353 182.123C93.353 182.123 92.9626 182.123 92.8454 182.263C92.2898 182.574 91.6612 182.719 91.0297 182.684C90.5026 182.684 90.1317 182.484 90.034 182.564C89.9364 182.644 89.7412 182.825 89.8193 183.446C89.8974 184.067 90.1121 184.208 90.3269 184.167C90.6817 184.016 91.057 183.922 91.4397 183.887C91.9139 183.899 92.3826 183.994 92.8259 184.167C93.0542 184.25 93.2895 184.31 93.5287 184.348L93.7825 182.825Z" fill="#F2B50D"/>
<path d="M92.9041 183.506C93.0408 184.288 93.5484 184.608 93.8998 184.107C94.0894 183.782 94.1652 183.4 94.1146 183.025C93.9974 182.404 93.7241 182.043 93.3532 182.123C92.9822 182.203 92.8456 182.744 92.8846 183.386C92.8846 183.426 92.9041 183.466 92.9041 183.506Z" fill="#FFDA0B"/>
<path d="M80.8972 189.599C80.292 189.499 79.9406 189.739 80.0968 189.98C80.3378 190.687 80.3378 191.457 80.0968 192.164C79.933 192.453 79.8082 192.763 79.7258 193.086L81.7953 193.347C81.743 193.044 81.6578 192.748 81.5415 192.465C81.2883 191.677 81.2883 190.827 81.5415 190.04C81.5415 189.819 81.2682 189.679 80.9168 189.599H80.8972Z" fill="#FFC317"/>
<path d="M80.8581 192.826C80.0381 192.705 79.55 193.026 79.7647 193.347C79.8725 193.465 80.0024 193.56 80.1467 193.625C80.2909 193.691 80.4465 193.725 80.6042 193.728C81.19 193.728 81.678 193.728 81.7952 193.427C81.9123 193.126 81.4242 192.926 80.9557 192.846L80.8581 192.826Z" fill="#FFDA0B"/>
<path d="M80.702 177.133C81.3268 177.133 81.6782 176.972 81.5025 176.732C81.2689 176.03 81.2689 175.269 81.5025 174.567C81.6656 174.273 81.7841 173.956 81.8539 173.625L79.7844 173.405C79.8472 173.707 79.9388 174.003 80.0578 174.287C80.3181 175.073 80.3181 175.925 80.0578 176.712C80.0578 176.912 80.3506 177.072 80.6825 177.133H80.702Z" fill="#FFC317"/>
<path d="M80.7215 173.906C81.5415 173.906 82.0296 173.685 81.7953 173.365C81.5731 173.135 81.2711 173.005 80.9558 173.004C80.3701 173.004 79.882 173.004 79.7649 173.325C79.6477 173.645 80.1554 173.806 80.6044 173.886L80.7215 173.906Z" fill="#FFDA0B"/>
<path d="M15.1594 155.747L21.7193 159.635V167.071L15.1594 163.182V155.747Z" fill="#FFF6A7"/>
<path d="M21.7192 159.635L42.0236 147.61C44.5646 146.286 47.374 145.596 50.2235 145.596C53.0731 145.596 55.8824 146.286 58.4234 147.61V155.065C55.8824 153.741 53.0731 153.051 50.2235 153.051C47.374 153.051 44.5646 153.741 42.0236 155.065L21.7192 167.091V159.635Z" fill="#FCD561"/>
<path d="M58.4233 147.59L64.9833 143.701V151.157L58.4233 155.045V147.59Z" fill="#E7F0F4"/>
<path d="M15.1594 155.787L35.4638 143.762C40.0379 141.379 45.0946 140.138 50.2236 140.138C55.3526 140.138 60.4093 141.379 64.9833 143.762L58.4234 147.65C55.8824 146.326 53.0731 145.636 50.2236 145.636C47.3741 145.636 44.5647 146.326 42.0237 147.65L21.7193 159.675L15.1594 155.787Z" fill="#9E4A9E"/>
<path d="M58.4236 147.59C59.3551 148.026 60.1589 148.705 60.755 149.56C61.351 150.414 61.7185 151.414 61.8207 152.46V159.896C61.7269 158.85 61.3626 157.848 60.7653 156.996C60.168 156.143 59.3595 155.47 58.4236 155.045V147.59Z" fill="#FFDA0B"/>
<path d="M38.1191 169.355L44.6791 173.244V180.679L38.1191 176.791V169.355Z" fill="#FC5552"/>
<path d="M44.6792 173.244L64.9836 161.218C69.064 158.813 71.0945 155.647 71.0945 152.48V159.916C71.0945 163.082 69.1421 166.249 64.9836 168.674L44.6792 180.699V173.244Z" fill="#FFDA0B"/>
<path d="M38.1191 169.355L58.4235 157.33C59.4136 156.986 60.2738 156.332 60.883 155.461C61.4923 154.589 61.82 153.543 61.82 152.47C61.82 151.397 61.4923 150.351 60.883 149.479C60.2738 148.607 59.4136 147.954 58.4235 147.61L64.9835 143.721C69.0639 146.127 71.0943 149.313 71.0943 152.48C71.0943 155.647 69.142 158.813 64.9835 161.218L44.6791 173.244L38.1191 169.355Z" fill="#FEBB00"/>
<path d="M46.319 95.6602C46.2214 95.9809 46.1237 96.2815 46.0066 96.5821C46.9437 93.8965 47.7637 91.1106 48.4666 88.2646C47.998 90.1486 47.4904 92.0125 46.9242 93.8163C51.3756 90.6897 57.2326 85.7994 59.5754 80.7889C62.6601 74.2751 57.8964 71.329 50.8875 71.1286C50.8875 70.9682 50.8875 70.6475 50.8875 69.7857C62.6016 70.0663 65.2372 77.4619 56.4907 87.0821C53.4436 90.3456 50.029 93.2252 46.319 95.6602Z" fill="#FFDA0B"/>
<path d="M54.7924 113.939C54.3958 114.299 53.9319 114.573 53.4289 114.744C52.9258 114.915 52.3943 114.979 51.8664 114.932C51.3386 114.885 50.8255 114.728 50.3585 114.472C49.8916 114.215 49.4804 113.863 49.1501 113.438C49.0744 113.36 49.0088 113.272 48.9549 113.177C48.3595 112.338 48.1042 111.296 48.2426 110.268C48.3809 109.24 48.9022 108.307 49.6968 107.665C49.8517 107.541 50.0147 107.427 50.1849 107.325C50.4531 107.853 50.6942 108.394 50.9072 108.948C51.0048 109.209 51.122 109.469 51.2001 109.71C51.3029 109.8 51.4266 109.86 51.5591 109.886C51.6916 109.912 51.8284 109.903 51.9563 109.858C52.0841 109.814 52.1985 109.736 52.2884 109.633C52.3782 109.53 52.4405 109.404 52.4691 109.269C52.1877 108.43 51.8485 107.613 51.4539 106.824C52.394 106.641 53.3666 106.82 54.1871 107.325C54.704 107.614 55.1458 108.027 55.4757 108.527C56.0484 109.351 56.2962 110.367 56.1695 111.371C56.0427 112.375 55.5507 113.292 54.7924 113.939Z" fill="#9E4A9E"/>
<path d="M53.7965 113.017C53.1675 113.557 52.3929 113.886 51.5764 113.961C50.7599 114.037 49.9405 113.854 49.228 113.438C49.1523 113.36 49.0867 113.272 49.0327 113.177C48.4374 112.338 48.1821 111.296 48.3205 110.268C48.4588 109.24 48.9801 108.307 49.7747 107.665C49.9308 108.026 50.087 108.427 50.2042 108.788C50.316 108.869 50.4434 108.926 50.578 108.954C50.7125 108.981 50.8513 108.979 50.9851 108.948C51.0827 109.209 51.1999 109.469 51.278 109.71C51.3808 109.8 51.5044 109.86 51.637 109.886C51.7695 109.912 51.9063 109.903 52.0341 109.858C52.1619 109.814 52.2764 109.736 52.3662 109.633C52.4561 109.53 52.5184 109.404 52.547 109.269C52.2657 108.43 51.9263 107.613 51.5318 106.824C52.4719 106.641 53.4446 106.82 54.2651 107.325C54.3471 107.409 54.4192 107.504 54.4798 107.605C55.0525 108.429 55.3003 109.445 55.1736 110.449C55.0468 111.453 54.5549 112.37 53.7965 113.017Z" fill="#FFF6A7"/>
<path d="M51.2783 109.69C49.8336 105.381 45.6555 99.6687 42.8832 96.1613C37.1926 89.0177 30.8513 82.4474 23.9454 76.54C21.0021 74.0024 17.9046 71.6594 14.6718 69.5252C12.7194 68.3227 8.09235 65.5168 6.00334 66.2383C5.28097 66.4788 5.22237 67.2805 5.30046 68.0822C5.71046 71.8701 10.279 78.1033 10.3766 78.3839C10.4186 78.4845 10.4299 78.5958 10.409 78.7032C10.3881 78.8105 10.3359 78.9088 10.2594 78.9851C10.1575 79.1285 10.0089 79.2297 9.84047 79.2702C9.67209 79.3106 9.49517 79.2877 9.34184 79.2056C7.26243 76.3669 5.58012 73.2434 4.34383 69.9261C3.88772 68.765 3.82583 67.48 4.16813 66.2784C5.78858 62.2699 13.3637 66.9398 16.8974 69.3649C27.145 76.7954 36.343 85.6443 44.2303 95.6603C47.6504 99.7402 50.46 104.32 52.5668 109.249C52.5401 109.388 52.478 109.517 52.3868 109.624C52.2956 109.73 52.1786 109.81 52.0476 109.854C51.9166 109.899 51.7764 109.908 51.6413 109.879C51.5061 109.85 51.3809 109.785 51.2783 109.69Z" fill="#9E4A9E"/>
<path d="M49.6379 71.1486V69.8258C49.6379 64.9355 48.9351 58.8627 46.4361 54.694L46.0261 54.0326C45.9633 53.9696 45.9155 53.8924 45.8867 53.8071C45.8579 53.7219 45.8489 53.631 45.8603 53.5416C45.8716 53.4521 45.9031 53.3666 45.9522 53.2918C46.0013 53.217 46.0668 53.155 46.1433 53.1106C46.7485 52.7499 46.9828 53.1106 46.9828 53.1106C47.137 53.3164 47.2804 53.5305 47.4123 53.752C51.5122 60.406 51.317 71.2087 50.2432 78.9851C49.3768 85.3441 47.8383 91.5873 45.6552 97.6044L44.7766 96.4419C47.6705 88.3223 49.3108 79.7882 49.6379 71.1486Z" fill="#9E4A9E"/>
<path d="M51.1999 114.76C48.1933 115.542 42.7072 112.015 40.1106 110.251C40.3644 109.79 40.7158 109.109 40.7548 109.028C43.3122 110.931 46.1543 112.393 49.1695 113.357C49.6764 114.043 50.3905 114.536 51.1999 114.76Z" fill="#9E4A9E"/>
<path d="M25.3312 75.9587C33.0156 72.4319 41.2558 70.3544 49.6575 69.8258C49.6575 70.2667 49.6575 70.7076 49.6575 71.1486C41.6278 71.6239 33.743 73.5508 26.366 76.8405L23.9255 74.7361L25.3312 75.9587Z" fill="#FFDA0B"/>
<path d="M47.4317 53.7319C47.2999 53.5104 47.1565 53.2963 47.0022 53.0906C47.0022 53.0906 46.7679 52.7499 46.1627 53.0906C46.0862 53.135 46.0208 53.197 45.9717 53.2718C45.9225 53.3466 45.891 53.4321 45.8797 53.5215C45.8683 53.6109 45.8774 53.7019 45.9062 53.7871C45.935 53.8723 45.9827 53.9495 46.0455 54.0125L46.4556 54.6739C45.8128 55.177 45.0634 55.5173 44.2684 55.667C43.4734 55.8166 42.6551 55.7715 41.8803 55.5353C41.1055 55.299 40.3959 54.8784 39.8094 54.3075C39.2228 53.7366 38.7758 53.0316 38.5048 52.2498C38.2338 51.4681 38.1463 50.6317 38.2496 49.8088C38.3529 48.9858 38.6439 48.1995 39.0991 47.5139C39.5543 46.8282 40.1608 46.2625 40.8691 45.8629C41.5775 45.4632 42.3677 45.2409 43.1756 45.214C43.9811 45.1744 44.7842 45.3324 45.5184 45.675C46.2216 46.0112 46.8421 46.5054 47.334 47.121C47.826 47.7366 48.1768 48.458 48.3605 49.2316C48.5442 50.0052 48.5561 50.8114 48.3954 51.5904C48.2346 52.3694 47.9053 53.1012 47.4317 53.7319Z" fill="#FFDA0B"/>
<path d="M45.9675 52.6497C45.6969 53.3572 45.2358 53.9711 44.6382 54.4198C44.0405 54.8686 43.3309 55.1336 42.5921 55.184C41.8533 55.2344 41.1157 55.0682 40.4655 54.7046C39.8152 54.3411 39.279 53.7952 38.9195 53.1307C38.4784 52.3439 38.2427 51.4536 38.2353 50.5458C38.2278 49.6381 38.4489 48.7438 38.877 47.9495C39.3051 47.1552 39.9258 46.4878 40.6789 46.0121C41.432 45.5364 42.292 45.2684 43.1756 45.234C44.097 45.0028 45.0689 45.1238 45.9098 45.5745C46.7506 46.0251 47.4029 46.7745 47.7449 47.6828C48.0868 48.5911 48.095 49.5961 47.7679 50.5101C47.4409 51.4241 46.8009 52.1847 45.9675 52.6497Z" fill="#FC5552"/>
<path d="M44.2495 97.9451C44.2495 97.9451 46.768 101.292 48.3689 103.958C47.3342 102.274 46.1823 100.631 45.128 99.1877C43.6392 103.178 41.8778 107.056 39.8567 110.792C36.1277 117.667 30.095 126.185 23.2032 129.572C16.3114 132.959 9.9858 130.273 7.35013 120.553C6.48138 117.063 6.06776 113.471 6.12014 109.87H7.36961C7.36961 115.302 8.22869 122.437 11.6843 126.585C14.4176 129.892 18.6347 130.955 24.2965 127.507C30.6221 123.659 36.323 115.101 39.7396 108.387C40.6962 106.523 41.5748 104.639 42.2776 102.996C43.3709 100.43 44.1909 98.1054 44.2495 97.9451Z" fill="#9E4A9E"/>
<path d="M45.2647 94.9788C45.2647 94.9788 44.8548 96.2415 44.7962 96.4218L44.2104 95.6803L45.2647 94.9788Z" fill="#FFDA0B"/>
<path d="M43.0783 96.4018L43.8202 97.3438C31.4813 105 18.342 109.048 9.45884 109.71C7.33808 109.899 5.20332 109.846 3.09417 109.549C3.02597 109.441 2.98085 109.319 2.96166 109.191C2.94247 109.063 2.94967 108.932 2.98281 108.808C3.01595 108.683 3.07425 108.567 3.15399 108.467C3.23372 108.367 3.33312 108.285 3.44564 108.227C4.73792 108.424 6.04398 108.512 7.35033 108.487C10.7975 108.386 14.2254 107.923 17.5806 107.104C22.0324 105.994 26.3981 104.547 30.6418 102.775C34.9383 100.977 39.0957 98.846 43.0783 96.4018Z" fill="#FFDA0B"/>
<path d="M40.1105 90.7098C39.3686 89.848 38.6072 89.0062 37.8263 88.1444C34.195 84.1728 30.3631 80.3997 26.3464 76.8406L27.5374 77.9029C29.2126 77.7724 30.8955 78.0134 32.472 78.6094C34.0485 79.2055 35.4816 80.1427 36.6742 81.3575C37.8668 82.5722 38.7908 84.0361 39.3838 85.6498C39.9767 87.2635 40.2245 88.9891 40.1105 90.7098Z" fill="#FCD561"/>
<path d="M33.0627 103.076C33.3165 103.316 36.7721 106.202 39.7397 108.327C39.7397 108.327 38.5488 110.592 39.1149 109.549C37.7288 108.567 36.3622 107.545 35.0541 106.483L31.6961 103.677L29.2556 104.699C33.5133 102.994 37.6494 100.985 41.6335 98.6866C38.8505 100.297 35.9899 101.762 33.0627 103.076Z" fill="#9E4A9E"/>
<path d="M39.8566 92.4936C39.4452 94.2654 38.6471 95.9181 37.5226 97.327C36.3981 98.7358 34.9765 99.8641 33.3651 100.627C31.7537 101.389 29.9947 101.766 28.2208 101.728C26.4469 101.691 24.7044 101.24 23.125 100.41C21.6352 99.6253 20.3346 98.5093 19.3179 97.1434C18.1412 95.5577 17.3669 93.6967 17.0646 91.7276C16.7624 89.7586 16.9417 87.7433 17.5865 85.8631C18.2312 83.9828 19.3212 82.2966 20.7582 80.9561C22.1953 79.6155 23.9345 78.6627 25.8192 78.1834C29.9294 81.8551 33.84 85.7558 37.5333 89.868C38.3338 90.7298 39.1733 91.6518 39.8566 92.4936Z" fill="#FCD561"/>
<path d="M38.5293 48.7414C38.379 49.181 38.287 49.6394 38.2559 50.1042C34.0974 50.5451 29.978 53.8521 27.0494 56.9587C23.4444 60.8944 20.3712 65.3098 17.9124 70.0863L16.8972 69.3849C20.431 62.791 25.6438 55.2551 31.8132 51.3469C33.8165 49.9392 36.1197 49.0457 38.5293 48.7414Z" fill="#9E4A9E"/>
<path d="M32.0475 102.174L30.6614 102.775L30.2123 102.394L29.4119 101.673C29.996 101.615 30.5762 101.521 31.1495 101.392L32.0475 102.174Z" fill="#9E4A9E"/>
<path d="M14.886 81.2699C17.8255 79.5425 20.8491 77.9705 23.9449 76.56L24.9797 77.4419C21.6341 78.9094 18.3747 80.5757 15.2179 82.4324C15.745 82.2119 15.2374 81.0495 14.886 81.2699Z" fill="#FFDA0B"/>
<path d="M17.2486 71.2889C17.4048 71.3891 15.8234 73.6138 13.1682 80.5885C13.1682 80.5885 13.1683 80.5885 13.0121 80.5885C12.6946 80.5452 12.3891 80.4361 12.114 80.2678C12.114 80.2678 11.9968 80.2678 12.0164 80.1476C13.2553 76.8764 14.6697 73.6781 16.253 70.5674L17.2486 71.2889Z" fill="#9E4A9E"/>
<path d="M16.8971 88.906C15.3938 87.1824 14.0076 85.4989 12.7971 83.9556C13.3633 83.5949 13.9295 83.2341 13.9685 83.2341C14.0076 83.2341 14.2809 83.7552 17.1704 87.1223C17.0323 87.7082 16.9408 88.3048 16.8971 88.906Z" fill="#9E4A9E"/>
<path d="M-3.52458 102.715C-3.92258 102.94 -4.29571 103.209 -4.63743 103.517C-5.10599 99.7489 -2.27511 95.6202 0.223897 92.8143C3.81897 88.9336 7.90297 85.5634 12.3675 82.7932C12.8361 82.4725 14.8275 81.2499 14.9251 81.2299C15.0227 81.2098 15.5889 82.1117 15.3156 82.3522L12.6799 83.9957C12.3825 84.2197 12.0693 84.4207 11.7428 84.597C11.7428 84.597 10.1613 85.6592 10.1028 85.7194C5.39893 88.8557 1.34505 92.9151 -1.82605 97.6645C-2.84069 99.1521 -3.42909 100.902 -3.52458 102.715Z" fill="#FFDA0B"/>
<path d="M13.2267 82.2721L13.8515 81.8913L12.3677 82.8332C12.4848 82.4591 12.6215 82.0783 12.7777 81.6908C12.9165 81.8932 13.0664 82.0872 13.2267 82.2721Z" fill="#9E4A9E"/>
<path d="M12.0166 80.1877C12.0166 80.1877 12.0166 80.1876 12.1142 80.3079C12.3876 80.48 12.6939 80.5894 13.0123 80.6286C13.0123 80.6286 13.1489 80.6286 13.1685 80.6286C12.8951 81.3701 12.6218 82.1317 12.368 82.8733L10.728 83.9556C10.728 83.9556 10.7281 84.0759 11.0014 83.0136C11.2747 81.9514 11.6652 81.1296 12.0166 80.1877Z" fill="#9E4A9E"/>
<path d="M10.3762 78.4039C10.3762 78.2436 10.1419 78.1233 11.8991 80.5083L11.3329 82.0516C10.6105 81.0495 9.90769 80.0474 9.2439 79.1254L9.34149 79.2256C9.88815 79.6265 10.63 78.905 10.3762 78.4039Z" fill="#9E4A9E"/>
<path d="M6.12012 108.467C6.39087 100.749 7.705 93.1065 10.0248 85.7594L11.6258 84.6771C9.11424 92.3695 7.65556 100.383 7.29154 108.487L6.12012 108.467Z" fill="#9E4A9E"/>
<path d="M3.83619 108.287H3.42621C3.31369 108.345 3.21436 108.427 3.13462 108.527C3.05489 108.627 2.99653 108.743 2.96339 108.868C2.93025 108.993 2.92304 109.123 2.94223 109.251C2.96143 109.379 3.0066 109.501 3.0748 109.61H3.46524C3.17086 110.281 2.74277 110.882 2.2085 111.373C1.67423 111.864 1.04565 112.235 0.363274 112.461C-0.319106 112.688 -1.0402 112.765 -1.75346 112.688C-2.46672 112.611 -3.15635 112.382 -3.77796 112.015C-4.67505 111.483 -5.39598 110.687 -5.84744 109.73L-5.96458 109.429C-6.40638 108.3 -6.45392 107.048 -6.09911 105.887C-5.74431 104.726 -5.00903 103.727 -4.01807 103.059C-3.02711 102.391 -1.84151 102.095 -0.662531 102.223C0.516451 102.35 1.61619 102.892 2.45004 103.757C3.01404 104.346 3.43385 105.063 3.67484 105.851C3.91584 106.638 3.97112 107.473 3.83619 108.287Z" fill="#FEB30F"/>
<path d="M2.80109 107.265C2.52625 108.407 1.87859 109.419 0.96588 110.131C-0.0227866 110.93 -1.26287 111.328 -2.51895 111.251C-3.77502 111.173 -4.9596 110.625 -5.8478 109.71L-5.96493 109.409C-6.5348 108.732 -6.92524 107.916 -7.09858 107.039C-7.27192 106.162 -7.22233 105.254 -6.95463 104.402C-6.68693 103.55 -6.21015 102.784 -5.57015 102.177C-4.93015 101.569 -4.14853 101.141 -3.30059 100.933C-2.45265 100.726 -1.56696 100.746 -0.728839 100.992C0.109281 101.238 0.871587 101.701 1.48465 102.337C2.09772 102.974 2.54091 103.761 2.77148 104.624C3.00205 105.487 3.01223 106.396 2.80109 107.265Z" fill="#FBC22C"/>
<path d="M37.5336 89.868C38.334 90.7298 39.0954 91.6117 39.8569 92.4936C39.4455 94.2654 38.6474 95.9181 37.5228 97.3269C36.3983 98.7358 34.9767 99.8641 33.3653 100.626C31.754 101.389 29.995 101.766 28.2211 101.728C26.4471 101.691 24.7047 101.24 23.1252 100.41C21.6354 99.6253 20.3348 98.5092 19.3181 97.1433C22.6957 98.426 28.0647 99.7889 32.0475 97.5843C33.4552 96.7872 34.6758 95.6834 35.6236 94.3503C36.5713 93.0173 37.2233 91.4873 37.5336 89.868Z" fill="#9E4A9E"/>
<path d="M40.1105 90.7098C39.3686 89.848 38.6071 89.0062 37.8262 88.1444C38.0502 86.1279 37.8911 84.086 37.3577 82.1317C39.3447 84.5046 40.3346 87.5892 40.1105 90.7098Z" fill="#9E4A9E"/>
<path d="M26.7762 85.6392C26.7762 86.1148 26.6388 86.5798 26.3813 86.9753C26.1239 87.3709 25.758 87.6791 25.3299 87.8611C24.9018 88.0432 24.4308 88.0908 23.9763 87.998C23.5218 87.9052 23.1044 87.6762 22.7768 87.3398C22.4491 87.0035 22.226 86.5749 22.1356 86.1083C22.0452 85.6418 22.0916 85.1582 22.2689 84.7188C22.4462 84.2793 22.7465 83.9037 23.1318 83.6394C23.5171 83.3751 23.97 83.2341 24.4334 83.2341C25.0548 83.2341 25.6506 83.4875 26.09 83.9385C26.5294 84.3895 26.7762 85.0013 26.7762 85.6392Z" fill="#9E4A9E"/>
<path d="M41.6724 49.3427C41.6724 49.5872 41.5778 49.8217 41.4093 49.9946C41.2409 50.1675 41.0125 50.2646 40.7743 50.2646C40.6557 50.2674 40.5377 50.2454 40.4275 50.2C40.3173 50.1547 40.2173 50.0869 40.1333 50.0007C40.0494 49.9146 39.9834 49.8118 39.9392 49.6987C39.895 49.5856 39.8735 49.4645 39.8762 49.3427C39.8762 49.0982 39.9708 48.8637 40.1392 48.6908C40.3077 48.5179 40.5361 48.4207 40.7743 48.4207C41.0109 48.4258 41.2365 48.5247 41.4039 48.6965C41.5712 48.8683 41.6674 49.0998 41.6724 49.3427Z" fill="#FFDA0B"/>
<path d="M84.6044 29.5209C84.3931 29.5209 84.1876 29.4505 84.0187 29.3204C83.8497 29.1903 83.7264 29.0075 83.6673 28.7994L76.2678 3.84678C76.2294 3.71518 76.2165 3.57709 76.2301 3.4404C76.2436 3.30371 76.2832 3.17109 76.3467 3.05011C76.4101 2.92914 76.4962 2.8222 76.5999 2.73536C76.7036 2.64853 76.823 2.58352 76.9512 2.54404C77.0794 2.50456 77.2139 2.49138 77.347 2.50527C77.4802 2.51915 77.6094 2.55983 77.7272 2.62496C77.8451 2.6901 77.9492 2.77844 78.0338 2.88491C78.1184 2.99138 78.1817 3.11393 78.2202 3.24553L85.7172 28.2782C85.7897 28.5334 85.7605 28.8076 85.636 29.0407C85.5115 29.2737 85.302 29.4464 85.0534 29.5209C84.9089 29.578 84.7489 29.578 84.6044 29.5209Z" fill="#C6DFFD"/>
<path d="M152.175 71.7097C151.965 71.7066 151.761 71.6351 151.592 71.5055C151.424 71.3758 151.3 71.1948 151.238 70.9883L143.292 44.0716C143.219 43.8164 143.249 43.5421 143.373 43.3091C143.498 43.0761 143.707 42.9034 143.956 42.829C144.077 42.786 144.206 42.7691 144.335 42.7795C144.463 42.7899 144.588 42.8273 144.701 42.8893C144.815 42.9514 144.915 43.0368 144.995 43.1402C145.075 43.2436 145.133 43.3627 145.166 43.4903L153.112 70.407C153.186 70.6622 153.16 70.9369 153.04 71.1727C152.92 71.4085 152.714 71.5868 152.468 71.6697L152.175 71.7097Z" fill="#C6DFFD"/>
<path d="M90.2271 106.663C90.2271 113.778 99.9888 119.551 111.976 119.551C123.964 119.551 133.725 113.778 133.725 106.663V108.808C133.725 115.943 123.964 121.715 111.976 121.715C99.9888 121.715 90.2271 115.943 90.2271 108.808V106.663Z" fill="#FFF6A7"/>
<path d="M90.2271 106.663C90.2271 99.5484 99.9888 93.7762 111.976 93.7762C123.964 93.7762 133.725 99.5484 133.725 106.663C133.725 113.778 123.964 119.551 111.976 119.551C99.9888 119.551 90.2271 113.698 90.2271 106.663Z" fill="#71AAF9"/>
<path d="M100.184 43.5504C100.184 54.9545 90.4226 60.8068 78.5133 60.8068C66.604 60.8068 56.7446 54.714 56.7446 43.5504C56.7446 36.4555 66.5063 30.7034 78.4352 30.7034C90.364 30.7034 100.184 36.4555 100.184 43.5504Z" fill="#9E4A9E"/>
<path d="M78.5131 56.3975C90.4817 56.3975 100.184 50.6457 100.184 43.5504C100.184 36.4552 90.4817 30.7034 78.5131 30.7034C66.5445 30.7034 56.842 36.4552 56.842 43.5504C56.842 50.6457 66.5445 56.3975 78.5131 56.3975Z" fill="#71AAF9"/>
<path d="M98.2516 43.5505C98.2516 50.0642 89.4074 55.3153 78.5133 55.3153C69.5911 55.3153 62.055 51.8079 59.5951 46.9978C59.0193 45.944 58.7105 44.7586 58.697 43.5505C58.697 37.0769 67.5411 31.8458 78.4548 31.8458C89.3684 31.8458 98.2321 37.0568 98.2516 43.5505Z" fill="#FFF6A7"/>
<path d="M165.627 82.3322C165.627 93.7362 155.865 99.5885 143.936 99.5885C132.008 99.5885 122.265 93.5759 122.265 82.3322C122.265 75.2372 132.027 69.4851 143.936 69.4851C155.846 69.4851 165.627 75.2372 165.627 82.3322Z" fill="#9E4A9E"/>
<path d="M143.936 95.1792C155.905 95.1792 165.608 89.4274 165.608 82.3322C165.608 75.2369 155.905 69.4851 143.936 69.4851C131.968 69.4851 122.265 75.2369 122.265 82.3322C122.265 89.4274 131.968 95.1792 143.936 95.1792Z" fill="#71AAF9"/>
<path d="M163.694 82.292C163.694 88.7857 154.85 94.0368 143.956 94.0368C135.034 94.0368 127.498 90.5294 125.038 85.7193C124.492 84.6779 124.203 83.5148 124.198 82.3322C124.198 75.8585 133.042 70.6275 143.956 70.6275C154.87 70.6275 163.675 75.8384 163.694 82.292Z" fill="#FFF6A7"/>
<path d="M130.543 78.2836L140.734 84.3364V92.4134L130.543 86.3606V78.2836Z" fill="#FCDC79"/>
<path d="M140.735 84.3364L150.945 78.2836V86.3606L140.735 92.4134V84.3364Z" fill="#FCD96E"/>
<path d="M130.543 78.2836L140.734 72.2309L150.945 78.2836L140.734 84.3364L130.543 78.2836Z" fill="#FFE856"/>
<path d="M107.643 27.2962C107.643 28.6391 109.478 29.7213 111.723 29.7213C113.968 29.7213 115.823 28.6391 115.823 27.2962L114.398 34.7519L115.823 104.439C115.823 105.782 113.988 106.864 111.723 106.864C109.458 106.864 107.643 105.782 107.643 104.439L109.146 34.7118L107.643 27.2962Z" fill="#ABD0FC"/>
<path d="M144.893 44.2118C144.893 44.2118 140.403 45.5347 138.157 44.0114C135.912 42.4882 126.775 33.2688 120.996 29.9819C119.322 29.0328 117.529 28.3247 115.666 27.8774C115.22 28.4943 114.626 28.9826 113.942 29.295C113.258 29.6075 112.507 29.7336 111.762 29.6612C109.516 29.6612 107.681 28.5789 107.681 27.2361C106.126 23.5074 103.65 20.2604 100.497 17.8163C94.7371 14.1886 85.5806 12.5852 83.3354 11.4428C81.0902 10.3004 76.5999 3.64639 76.5999 3.64639C76.5999 2.90482 76.5998 2.52405 76.6974 2.42384C77.4784 1.96287 80.9536 7.93545 82.5545 8.87744C84.5068 10.0198 87.2206 8.21604 92.6676 8.87744C98.1147 9.53883 106.783 16.6738 106.783 16.6738L110.688 6.41222L114.71 21.4238C119.923 23.4516 124.713 26.4783 128.825 30.3426C134.272 36.0547 136.986 41.1053 138.919 42.2477C140.852 43.3901 145.537 40.5842 144.893 44.2118Z" fill="#C6DFFD"/>
<path d="M108.091 16.0125L106.725 16.8342C106.725 16.8342 98.0562 9.79938 92.6091 9.03778C87.1621 8.27617 84.4288 10.08 82.496 9.03778C80.9146 8.09579 77.4394 2.12321 76.6389 2.58418L78.0251 1.7825C78.806 1.32153 82.2617 7.27406 83.8821 8.21604C85.8345 9.35845 88.5287 7.55468 93.9758 8.31629C99.4228 9.07789 108.091 16.0125 108.091 16.0125Z" fill="#E5EFFA"/>
<path d="M112.113 5.77085L110.727 6.57253L106.725 16.8342L108.091 16.0125L112.113 5.77085Z" fill="#DDECFD"/>
<path d="M116.116 20.7625L114.729 21.5842L110.727 6.57253L112.113 5.77085L116.116 20.7625Z" fill="#DDECFD"/>
<path d="M146.26 43.3901L144.893 44.2118C145.537 40.5842 140.988 43.5304 139.036 42.408C137.084 41.2857 134.389 36.215 128.942 30.503C124.83 26.6386 120.04 23.612 114.827 21.5842L116.194 20.7625C121.412 22.7878 126.204 25.8223 130.309 29.7013C135.756 35.3933 138.489 40.4439 140.422 41.5863C142.355 42.7287 146.904 39.7825 146.26 43.3901Z" fill="#E5EFFA"/>
<path d="M88.2556 55.3554C88.0366 55.3519 87.8251 55.2728 87.6551 55.1311C87.4851 54.9893 87.3666 54.793 87.3184 54.5737L76.7562 6.47236L58.697 43.2097C58.651 43.3434 58.578 43.4655 58.4827 43.568C58.3874 43.6705 58.272 43.7512 58.1441 43.8045C58.0162 43.8579 57.8788 43.8829 57.7408 43.8777C57.6029 43.8725 57.4676 43.8374 57.3438 43.7746C57.2201 43.7118 57.1107 43.6227 57.0229 43.5133C56.9352 43.404 56.871 43.2767 56.8347 43.14C56.7984 43.0033 56.7907 42.8602 56.8122 42.7202C56.8337 42.5802 56.8838 42.4465 56.9594 42.3279L77.42 0.6L89.1341 54.1328C89.1629 54.2618 89.1665 54.3954 89.1447 54.5258C89.123 54.6562 89.0762 54.7809 89.0072 54.8927C88.9383 55.0045 88.8484 55.1012 88.7429 55.1772C88.6373 55.2532 88.5181 55.3069 88.3922 55.3353L88.2556 55.3554Z" fill="#C6DFFD"/>
<path d="M153.288 94.4377C153.063 94.4377 152.845 94.3579 152.67 94.2118C152.496 94.0658 152.376 93.8623 152.331 93.6359L143.194 46.8774L124.081 83.6349C123.953 83.8653 123.744 84.0359 123.496 84.1107C123.248 84.1855 122.982 84.1587 122.753 84.0357C122.527 83.9121 122.357 83.7019 122.28 83.4506C122.203 83.1993 122.226 82.9271 122.343 82.6929L144.034 41.0051L154.362 93.2351C154.408 93.4979 154.352 93.7687 154.206 93.9896C154.06 94.2106 153.836 94.3642 153.581 94.4176L153.288 94.4377Z" fill="#C6DFFD"/>
<path d="M184.779 170.257L184.994 183.165C185.853 183.207 186.706 182.998 187.454 182.563L213.284 167.251C213.534 167.103 213.741 166.89 213.885 166.633C214.029 166.376 214.104 166.084 214.104 165.788V152.881L184.779 170.257Z" fill="#FC5552"/>
<path d="M128.532 136.506V149.273C128.531 149.567 128.606 149.856 128.751 150.11C128.895 150.363 129.103 150.573 129.353 150.716L182.964 182.563C183.557 182.925 184.227 183.131 184.916 183.165V169.135L139.251 141.958L128.532 136.506Z" fill="#FFDA0B"/>
<path d="M187.552 169.656L213.381 154.324C213.629 154.178 213.834 153.968 213.977 153.715C214.12 153.461 214.196 153.174 214.196 152.881C214.196 152.588 214.12 152.3 213.977 152.047C213.834 151.794 213.629 151.583 213.381 151.438L159.77 119.591C159.09 119.188 158.319 118.976 157.534 118.976C156.75 118.976 155.979 119.188 155.299 119.591L129.45 134.903C129.203 135.051 128.998 135.263 128.855 135.518C128.713 135.773 128.638 136.062 128.638 136.356C128.638 136.65 128.713 136.939 128.855 137.193C128.998 137.448 129.203 137.661 129.45 137.809L183.061 169.656C183.744 170.061 184.518 170.274 185.307 170.274C186.095 170.274 186.869 170.061 187.552 169.656Z" fill="#FC7464"/>
<path d="M158.56 121.755L169.688 128.349L143.917 143.621L132.789 137.027L158.56 121.755Z" fill="#FFDA0B"/>
<path d="M143.956 143.14L167.501 129.191L158.52 123.88L134.975 137.829L143.956 143.14Z" fill="#FCD561"/>
<path d="M162.172 150.416C165.106 151.942 168.35 152.738 171.64 152.738C174.931 152.738 178.174 151.942 181.109 150.416C186.361 147.309 186.4 142.278 181.109 139.192C178.172 137.66 174.925 136.862 171.631 136.862C168.337 136.862 165.089 137.66 162.152 139.192C156.959 142.298 156.92 147.309 162.172 150.416Z" fill="#FC5552"/>
<path d="M163.87 150.957C166.27 152.202 168.922 152.851 171.611 152.851C174.3 152.851 176.952 152.202 179.352 150.957C183.647 148.411 183.667 144.303 179.352 141.757C176.95 140.507 174.295 139.856 171.601 139.856C168.908 139.856 166.253 140.507 163.851 141.757C159.633 144.323 159.614 148.431 163.87 150.957Z" fill="#FFDA0B"/>
<path d="M181.695 165.107C182.366 165.457 183.109 165.639 183.862 165.639C184.615 165.639 185.358 165.457 186.029 165.107C186.287 165.012 186.509 164.838 186.666 164.608C186.824 164.378 186.908 164.105 186.908 163.824C186.908 163.543 186.824 163.269 186.666 163.04C186.509 162.81 186.287 162.636 186.029 162.541C185.361 162.191 184.622 162.008 183.872 162.008C183.122 162.008 182.383 162.191 181.715 162.541C181.456 162.634 181.233 162.806 181.073 163.035C180.914 163.263 180.828 163.536 180.826 163.817C180.824 164.097 180.906 164.372 181.062 164.603C181.217 164.834 181.438 165.01 181.695 165.107Z" fill="#202A5F"/>
<path d="M182.163 165.227C182.711 165.512 183.316 165.661 183.93 165.661C184.544 165.661 185.149 165.512 185.697 165.227C186.673 164.666 186.673 163.724 185.697 163.223C185.149 162.937 184.544 162.789 183.93 162.789C183.316 162.789 182.711 162.937 182.163 163.223C181.976 163.311 181.818 163.452 181.707 163.629C181.596 163.807 181.537 164.014 181.537 164.225C181.537 164.436 181.596 164.642 181.707 164.82C181.818 164.998 181.976 165.139 182.163 165.227Z" fill="#0E173D"/>
<path d="M180.426 150.736C180.426 150.736 182.378 149.654 181.519 149.113L165.491 141.216C165.026 140.946 164.506 140.794 163.972 140.773C163.439 140.752 162.908 140.863 162.425 141.096L161.683 139.513C160.883 139.974 161.527 142.499 162.425 143.04L177.419 151.919C178.447 151.595 179.451 151.2 180.426 150.736Z" fill="#FC5552"/>
<path d="M180.836 150.375L181.07 150.235C181.851 149.774 181.753 148.952 180.836 148.411C178.529 146.03 175.899 144.005 173.026 142.399C170.664 141.069 168.144 140.058 165.529 139.392C165.062 139.133 164.542 138.987 164.01 138.966C163.479 138.945 162.95 139.05 162.464 139.272L162.25 139.412C161.449 139.873 161.566 140.675 162.464 141.216C165.224 142.159 167.923 143.276 170.547 144.563C173.291 146.007 175.753 147.957 177.81 150.315C178.276 150.563 178.791 150.698 179.316 150.708C179.841 150.719 180.361 150.605 180.836 150.375Z" fill="#FC7464"/>
<path d="M181.597 159.835V156.809L176.99 162.982L177.419 165.527L181.597 159.835Z" fill="#9E4A9E"/>
<path d="M181.597 156.809L179.372 155.687L175.115 161.8L176.99 162.982L181.597 156.809Z" fill="#FCD561"/>
<path d="M177.419 165.527L175.818 166.67V165.948L176.99 162.982L177.419 165.527Z" fill="#FCD561"/>
<path d="M175.116 161.8L176.99 162.982L175.819 165.948L174.413 165.107L175.116 161.8Z" fill="#9E4A9E"/>
<path d="M174.413 165.948V165.107L175.819 165.948V166.67L174.413 165.948Z" fill="#9E4A9E"/>
<path d="M177.419 156.989V153.943L172.812 160.116L173.241 162.681L177.419 156.989Z" fill="#C02106"/>
<path d="M177.419 153.943L175.193 152.841L170.937 158.934L172.812 160.116L177.419 153.943Z" fill="#FC5552"/>
<path d="M173.241 162.681L171.64 163.804V163.082L172.812 160.116L173.241 162.681Z" fill="#FC5552"/>
<path d="M170.937 158.934L172.812 160.116L171.64 163.082L170.235 162.261L170.937 158.934Z" fill="#C02106"/>
<path d="M170.235 163.082V162.261L171.64 163.082V163.804L170.235 163.082Z" fill="#FC5552"/>
<path d="M67.8338 120.412L76.4046 125.503V123.98L68.1852 119.11C67.8923 118.929 67.2871 118.909 67.2871 119.33C67.287 119.542 67.3366 119.751 67.4318 119.94C67.5269 120.128 67.6648 120.29 67.8338 120.412Z" fill="#FEC830"/>
<path d="M77.2053 123.719C77.2053 122.898 76.6782 122.557 76.0144 122.958C75.6535 123.186 75.3515 123.5 75.134 123.873C74.9165 124.246 74.7899 124.668 74.7649 125.102C74.7649 125.924 75.292 126.245 75.9753 125.864C76.3315 125.632 76.6288 125.317 76.8427 124.944C77.0565 124.571 77.1809 124.151 77.2053 123.719Z" fill="#FFC317"/>
<path d="M81.0899 131.496C81.3684 131.72 81.7121 131.842 82.0661 131.842C82.42 131.842 82.7638 131.72 83.0422 131.496C83.7553 131.027 84.3512 130.393 84.7818 129.644C85.2125 128.896 85.4659 128.054 85.5217 127.187L77.2047 123.719C77.1803 124.151 77.056 124.571 76.8421 124.944C76.6282 125.317 76.3309 125.632 75.9748 125.864C75.8366 125.97 75.6688 126.027 75.4964 126.027C75.3241 126.027 75.1563 125.97 75.0181 125.864L81.0899 131.496Z" fill="#FFC317"/>
<path d="M76.7363 122.797C76.9022 122.871 77.0388 123.001 77.1238 123.165C77.2089 123.328 77.2375 123.517 77.2049 123.699L85.4633 127.187C85.4633 126.245 85.1119 125.623 84.5262 125.423L76.7363 122.797Z" fill="#FFC317"/>
<path d="M84.5263 125.423L76.717 122.797C76.5936 122.77 76.4659 122.768 76.3418 122.792C76.2176 122.816 76.0995 122.866 75.9945 122.938C75.6337 123.166 75.3317 123.48 75.1142 123.853C74.8967 124.226 74.7701 124.648 74.7451 125.082C74.7326 125.22 74.7487 125.36 74.7925 125.491C74.8362 125.622 74.9066 125.742 74.9989 125.844L81.0707 131.496C80.8881 131.292 80.7487 131.051 80.6613 130.789C80.574 130.527 80.5405 130.249 80.5631 129.973C80.6126 129.106 80.8635 128.265 81.2949 127.519C81.7263 126.772 82.3256 126.143 83.0425 125.684C83.2573 125.534 83.501 125.433 83.7569 125.388C84.0129 125.343 84.2753 125.355 84.5263 125.423Z" fill="#FC5552"/>
<path d="M82.9841 131.736C81.5394 132.558 80.3875 131.736 80.407 130.113C80.4649 129.187 80.7357 128.288 81.1972 127.49C81.6587 126.693 82.2979 126.018 83.0622 125.523C84.4874 124.701 85.6393 125.423 85.6198 127.127C85.5655 128.054 85.2984 128.955 84.8404 129.756C84.3824 130.557 83.7463 131.236 82.9841 131.736ZM85.4636 127.227C85.4636 125.623 84.4093 124.942 83.0622 125.724C82.3452 126.183 81.7459 126.812 81.3145 127.559C80.8831 128.305 80.6322 129.146 80.5827 130.013C80.5827 131.636 81.637 132.297 82.9841 131.536C83.7023 131.063 84.3013 130.423 84.7322 129.667C85.1631 128.911 85.4137 128.061 85.4636 127.187V127.227Z" fill="#FFC317"/>
<path d="M85.6587 124.561C85.5262 124.477 85.3811 124.416 85.2292 124.381H84.7606C84.4073 124.388 84.0577 124.456 83.7259 124.581C83.3563 124.742 83.0085 124.95 82.6911 125.202C82.3176 125.467 81.9823 125.784 81.6954 126.144C81.5429 126.324 81.3995 126.511 81.2659 126.706L81.0512 127.006L80.8754 127.307L80.6997 127.628C80.6997 127.628 80.5435 127.928 80.3873 128.289C80.2311 128.65 80.2311 128.73 80.153 128.95C79.8857 129.798 79.8254 130.699 79.9773 131.576C80.0792 132.092 80.3475 132.558 80.7388 132.899L81.0121 133.059H81.1878C81.2781 133.077 81.3709 133.077 81.4611 133.059C81.6164 133.084 81.7744 133.084 81.9297 133.059H82.3983C82.6677 133.004 82.9299 132.917 83.1792 132.798C83.4685 132.653 83.7431 132.478 83.9992 132.277L84.4873 131.856L84.7215 131.616C84.889 131.452 85.0395 131.271 85.1706 131.075C85.3226 130.893 85.4597 130.699 85.5806 130.494C85.7449 130.249 85.8949 129.995 86.0296 129.732L86.2834 129.091L86.4006 128.75C86.4092 128.637 86.4092 128.523 86.4006 128.409C86.4006 128.209 86.4982 127.948 86.5177 127.748C86.5271 127.634 86.5271 127.52 86.5177 127.407C86.5268 127.3 86.5268 127.193 86.5177 127.086C86.5133 127.049 86.5004 127.013 86.4801 126.982C86.4597 126.951 86.4325 126.925 86.4006 126.906C86.1663 126.786 85.6587 127.026 85.3854 127.167C85.3311 128.094 85.064 128.995 84.6059 129.796C84.1479 130.597 83.5119 131.276 82.7497 131.776C81.305 132.598 80.1531 131.776 80.1726 130.153C80.2305 129.227 80.5013 128.328 80.9628 127.53C81.4243 126.733 82.0634 126.059 82.8278 125.563C84.253 124.742 85.4049 125.463 85.3854 127.167C85.6587 127.026 86.1663 126.786 86.4006 126.906C86.4325 126.925 86.4597 126.951 86.4801 126.982C86.5004 127.013 86.5133 127.049 86.5177 127.086C86.533 126.86 86.533 126.632 86.5177 126.405L86.4006 125.884C86.3699 125.787 86.3307 125.693 86.2834 125.603C86.1861 125.198 85.9677 124.833 85.6587 124.561Z" fill="#FFC317"/>
<path d="M83.5893 132.057C82.1446 132.879 80.9927 132.057 81.0122 130.434C81.0701 129.508 81.3409 128.609 81.8024 127.811C82.264 127.013 82.9031 126.339 83.6674 125.844C85.1122 125.022 86.2641 125.744 86.225 127.447C86.1723 128.375 85.9058 129.276 85.4477 130.078C84.9895 130.879 84.3526 131.557 83.5893 132.057ZM86.0688 127.547C86.0688 125.944 85.0146 125.263 83.6674 126.044C82.9512 126.51 82.3528 127.143 81.9217 127.892C81.4906 128.641 81.2391 129.485 81.1879 130.353C81.1879 131.957 82.2422 132.618 83.5893 131.856C84.2951 131.383 84.8834 130.747 85.3071 129.999C85.7308 129.251 85.9783 128.411 86.0298 127.547H86.0688Z" fill="#FFC317"/>
<path d="M86.752 127.006C86.752 126.826 86.752 126.585 86.752 126.405C86.7628 126.305 86.7628 126.204 86.752 126.104C86.752 125.884 86.752 125.884 86.5959 125.583L86.4592 125.323C86.3858 125.195 86.3008 125.074 86.2054 124.962L86.0101 124.762L85.7368 124.561C85.6019 124.482 85.4575 124.421 85.3073 124.381H84.8778H84.6044H84.3311H84.0969H83.804L83.2964 124.641C83.1119 124.747 82.9356 124.868 82.7692 125.002L82.4959 125.202C82.32 125.348 82.1567 125.509 82.0078 125.684C81.6846 126.031 81.3906 126.407 81.1293 126.806L80.7778 127.427C80.6412 127.688 80.6216 127.748 80.4655 128.089C80.4655 128.089 80.3483 128.389 80.2312 128.75C80.114 129.111 80.2312 129.011 80.0555 129.431C80.0313 129.765 80.0313 130.1 80.0555 130.434C80.0361 130.64 80.0361 130.848 80.0555 131.055C80.0699 131.24 80.1093 131.422 80.1726 131.596C80.2425 131.848 80.3549 132.085 80.5045 132.297C80.5925 132.426 80.6976 132.54 80.8169 132.638L80.9731 132.758L81.2269 132.899L81.5197 132.999H81.715H82.0078H82.4764H82.7692C83.0494 132.922 83.3185 132.807 83.5697 132.658L84.0969 132.297L84.3702 132.077L84.8582 131.616C85.0263 131.453 85.1769 131.271 85.3073 131.075C85.4645 130.897 85.602 130.702 85.7173 130.494C85.8523 130.298 85.9699 130.09 86.0687 129.872C86.1951 129.671 86.2999 129.456 86.3811 129.231L86.4982 128.91C86.6215 128.585 86.7195 128.25 86.7911 127.908C86.8502 127.577 86.8828 127.242 86.8887 126.906C86.8887 127.046 86.6154 127.207 86.3616 127.347C86.3089 128.275 86.0424 129.176 85.5842 129.978C85.126 130.779 84.4892 131.457 83.7259 131.957C82.2812 132.778 81.1293 131.957 81.1488 130.333C81.2067 129.407 81.4775 128.509 81.939 127.711C82.4005 126.913 83.0396 126.239 83.804 125.744C85.2487 124.922 86.4006 125.643 86.3616 127.347C86.4787 127.307 86.752 127.147 86.752 127.006Z" fill="#FC7464"/>
<path d="M92.3942 138.751C92.7029 138.906 93.046 138.975 93.3888 138.95C93.7316 138.926 94.062 138.808 94.3466 138.611C95.1447 138.089 95.8117 137.382 96.2934 136.546C96.7751 135.71 97.0579 134.77 97.1189 133.801L86.0296 127.547C85.9738 128.415 85.7203 129.257 85.2896 130.005C84.859 130.754 84.2632 131.388 83.5501 131.856C83.301 132.034 83.0097 132.139 82.7072 132.16C82.4047 132.181 82.1023 132.118 81.832 131.977L92.3942 138.751Z" fill="#FFC317"/>
<path d="M85.3269 125.864C85.5885 126.048 85.7959 126.303 85.9267 126.599C86.0575 126.896 86.1066 127.224 86.0687 127.547L97.0996 133.801C97.1401 133.438 97.0832 133.071 96.9353 132.739C96.7873 132.407 96.5538 132.122 96.26 131.917L85.3269 125.864Z" fill="#FFC317"/>
<path d="M96.26 131.917L85.3269 125.904C85.0577 125.789 84.7646 125.745 84.4746 125.776C84.1846 125.808 83.907 125.914 83.6674 126.084C82.9511 126.55 82.3527 127.183 81.9216 127.932C81.4905 128.681 81.239 129.525 81.1878 130.393C81.1504 130.702 81.194 131.015 81.3142 131.301C81.4343 131.586 81.6266 131.833 81.8712 132.017L92.3944 138.791C92.1242 138.581 91.9119 138.302 91.7783 137.983C91.6448 137.663 91.5947 137.313 91.6329 136.967C91.6924 135.995 91.9745 135.051 92.4562 134.212C92.9379 133.372 93.6057 132.662 94.4053 132.137C94.6719 131.944 94.9813 131.823 95.3053 131.785C95.6293 131.746 95.9575 131.791 96.26 131.917Z" fill="#FC5552"/>
<path d="M122.968 154.324C123.086 154.385 123.216 154.418 123.349 154.418C123.481 154.418 123.612 154.385 123.73 154.324C124.062 154.107 124.339 153.812 124.54 153.464C124.74 153.115 124.857 152.723 124.881 152.32L97.0995 133.74C97.0385 134.71 96.7557 135.65 96.274 136.486C95.7922 137.322 95.1252 138.029 94.3271 138.551C94.0633 138.733 93.76 138.847 93.4436 138.882C93.1271 138.917 92.8071 138.872 92.5115 138.751L122.968 154.324Z" fill="#FFC317"/>
<path d="M96.377 131.977C96.6331 132.197 96.8329 132.479 96.9588 132.797C97.0847 133.114 97.1329 133.459 97.0994 133.801L124.881 152.239C124.891 152.098 124.87 151.956 124.82 151.824C124.769 151.692 124.69 151.574 124.588 151.478C115.178 144.998 105.774 138.497 96.377 131.977Z" fill="#FFC317"/>
<path d="M124.881 152.239C124.881 151.478 124.393 151.177 123.769 151.538C123.434 151.753 123.155 152.047 122.954 152.396C122.754 152.745 122.638 153.138 122.617 153.542C122.617 154.284 123.105 154.604 123.73 154.244C124.062 154.026 124.339 153.732 124.54 153.383C124.74 153.035 124.857 152.643 124.881 152.239Z" fill="#FFC317"/>
<path d="M124.589 151.478C115.178 144.984 105.774 138.484 96.3771 131.977C96.0701 131.819 95.7279 131.747 95.3852 131.768C95.0424 131.789 94.7111 131.902 94.4247 132.097C93.6251 132.622 92.9573 133.332 92.4756 134.172C91.9939 135.011 91.7119 135.955 91.6524 136.927C91.616 137.294 91.6787 137.664 91.8337 137.996C91.9887 138.328 92.2299 138.61 92.5309 138.811L122.988 154.324C122.863 154.241 122.763 154.124 122.701 153.985C122.639 153.847 122.616 153.693 122.636 153.542C122.658 153.138 122.773 152.745 122.974 152.396C123.174 152.047 123.454 151.753 123.788 151.538C123.902 151.45 124.038 151.398 124.18 151.387C124.322 151.377 124.464 151.408 124.589 151.478Z" fill="#FFDA0B"/>
<path d="M58.2869 129.251L66.8772 134.342V132.819L58.6969 127.948C58.3845 127.768 57.7793 127.748 57.7793 128.169C57.7792 128.377 57.8248 128.582 57.9126 128.769C58.0005 128.957 58.1285 129.121 58.2869 129.251Z" fill="#FEC830"/>
<path d="M66.8772 131.997C66.8772 131.195 66.3306 130.854 65.6668 131.235C65.3098 131.472 65.0112 131.791 64.7944 132.167C64.5776 132.542 64.4485 132.964 64.4172 133.4C64.4172 134.201 64.9444 134.542 65.6277 134.161C65.9847 133.924 66.2833 133.605 66.5001 133.23C66.7169 132.854 66.8459 132.432 66.8772 131.997Z" fill="#009FBD"/>
<path d="M70.743 139.753C71.02 139.981 71.3643 140.105 71.7192 140.105C72.074 140.105 72.4183 139.981 72.6954 139.753C73.4101 139.291 74.0077 138.661 74.4388 137.916C74.8699 137.17 75.1222 136.33 75.1748 135.464L66.9359 131.957C66.9046 132.392 66.7755 132.814 66.5588 133.19C66.342 133.565 66.0433 133.884 65.6864 134.121C65.547 134.224 65.3797 134.279 65.2081 134.279C65.0364 134.279 64.8691 134.224 64.7297 134.121L70.743 139.753Z" fill="#009FBD"/>
<path d="M66.3892 131.115C66.5528 131.188 66.689 131.313 66.7771 131.472C66.8652 131.631 66.9003 131.815 66.8772 131.997L75.1162 135.504C75.1162 134.542 74.7647 133.921 74.179 133.741L66.3892 131.115Z" fill="#009FBD"/>
<path d="M74.179 133.74L66.3696 131.115C66.2476 131.083 66.1206 131.077 65.9963 131.098C65.872 131.119 65.7532 131.165 65.6473 131.235C65.2903 131.472 64.9917 131.791 64.7749 132.167C64.5581 132.542 64.4291 132.964 64.3978 133.4C64.3818 133.678 64.4729 133.952 64.6516 134.161L70.7234 139.793C70.5371 139.596 70.3951 139.359 70.3075 139.099C70.2198 138.84 70.1884 138.563 70.2158 138.29C70.2716 137.423 70.525 136.581 70.9557 135.832C71.3864 135.084 71.9822 134.45 72.6953 133.981C72.911 133.833 73.1554 133.735 73.4115 133.694C73.6676 133.652 73.9294 133.668 74.179 133.74Z" fill="#9E4A9E"/>
<path d="M72.6367 139.994C71.1919 140.815 70.04 140.094 70.0596 138.39C70.1251 137.464 70.3989 136.565 70.8596 135.765C71.3203 134.965 71.9553 134.286 72.7147 133.781C74.1595 132.959 75.3114 133.781 75.2918 135.404C75.234 136.33 74.9632 137.229 74.5016 138.026C74.0401 138.824 73.401 139.498 72.6367 139.994ZM75.1161 135.504C75.1161 133.881 74.0619 133.219 72.7147 133.981C72.0017 134.45 71.4059 135.084 70.9752 135.832C70.5445 136.581 70.2911 137.423 70.2353 138.29C70.2353 139.893 71.2896 140.575 72.6367 139.793C73.3515 139.331 73.949 138.701 74.3801 137.956C74.8112 137.21 75.0635 136.37 75.1161 135.504Z" fill="#009FBD"/>
<path d="M75.3114 132.859L74.8819 132.678C74.7264 132.656 74.5688 132.656 74.4133 132.678C74.0592 132.678 73.7082 132.746 73.3786 132.879C73.0104 133.034 72.6628 133.236 72.3438 133.48C71.9777 133.761 71.6437 134.084 71.3482 134.442C71.1956 134.621 71.0522 134.809 70.9186 135.003C70.8425 135.095 70.7769 135.196 70.7234 135.304L70.5281 135.604L70.3524 135.925C70.2411 136.132 70.1433 136.346 70.0596 136.566C69.9592 136.787 69.8744 137.015 69.8058 137.248C69.5393 138.088 69.4789 138.983 69.6301 139.853C69.6839 140.129 69.7829 140.393 69.9229 140.635C70.0458 140.843 70.2046 141.026 70.3915 141.176L70.6648 141.356H70.8601H71.1138C71.2697 141.371 71.4266 141.371 71.5824 141.356H72.051C72.3232 141.313 72.5868 141.225 72.8319 141.096C73.1183 140.953 73.3927 140.785 73.6519 140.595C73.8236 140.459 73.9866 140.311 74.14 140.154L74.3938 139.913L74.8428 139.392L75.2333 138.811C75.4268 138.508 75.6027 138.193 75.7604 137.869L76.0338 137.208C76.0338 137.208 76.0338 136.987 76.1314 136.887C76.1748 136.77 76.2075 136.649 76.229 136.526L76.3656 135.865C76.3656 135.765 76.3656 135.624 76.3656 135.524V135.204C76.3638 135.168 76.3516 135.134 76.3308 135.105C76.3099 135.077 76.2813 135.055 76.2485 135.043C76.0338 134.903 75.5067 135.143 75.2529 135.304C75.195 136.23 74.9241 137.128 74.4626 137.926C74.001 138.724 73.3619 139.398 72.5976 139.893C71.1529 140.715 70.001 139.994 70.0205 138.29C70.086 137.363 70.3599 136.465 70.8206 135.665C71.2813 134.865 71.9163 134.186 72.6757 133.68C74.1205 132.859 75.2724 133.68 75.2529 135.304C75.5067 135.143 76.0338 134.903 76.2485 135.043C76.2813 135.055 76.3099 135.077 76.3308 135.105C76.3516 135.134 76.3638 135.168 76.3656 135.204C76.3932 134.977 76.3932 134.748 76.3656 134.522C76.3359 134.353 76.2967 134.186 76.2485 134.021C76.2485 133.921 76.2485 133.821 76.1509 133.74C75.9512 133.376 75.6617 133.072 75.3114 132.859Z" fill="#009FBD"/>
<path d="M73.2419 140.354C71.7971 141.176 70.6453 140.455 70.6843 138.751C70.7369 137.826 71.0034 136.927 71.4618 136.129C71.9201 135.331 72.5571 134.656 73.3199 134.161C74.7647 133.32 75.9166 134.041 75.897 135.765C75.8392 136.691 75.5684 137.589 75.1068 138.387C74.6453 139.185 74.0062 139.859 73.2419 140.354ZM75.7213 135.865C75.7213 134.262 74.6671 133.58 73.3199 134.342C72.6069 134.811 72.0111 135.445 71.5804 136.193C71.1497 136.942 70.8963 137.783 70.8405 138.651C70.8405 140.254 71.8948 140.936 73.2419 140.154C73.9567 139.692 74.5542 139.062 74.9853 138.316C75.4164 137.571 75.6687 136.73 75.7213 135.865Z" fill="#9E4A9E"/>
<path d="M76.4048 135.304C76.4048 135.123 76.4048 134.883 76.4048 134.702V134.402C76.3728 134.222 76.3204 134.048 76.2486 133.881L76.1119 133.62L75.8776 133.279L75.6824 133.079L75.3895 132.859C75.2524 132.784 75.1085 132.724 74.96 132.678H74.5305H74.2767H74.0034H73.7496L73.4567 132.778L72.9491 133.019L72.422 133.38L72.1487 133.6L71.6606 134.081C71.3333 134.42 71.0451 134.797 70.8016 135.204C70.6063 135.504 70.4697 135.745 70.4306 135.825C70.3916 135.905 70.2744 136.145 70.1377 136.466C70.0402 136.688 69.9555 136.916 69.884 137.148C69.8137 137.363 69.7614 137.584 69.7277 137.809C69.6529 138.144 69.6136 138.487 69.6106 138.831C69.6106 139.012 69.6106 139.252 69.6106 139.432C69.6252 139.624 69.6646 139.813 69.7277 139.994C69.8021 140.238 69.9142 140.468 70.0597 140.675C70.1526 140.805 70.2572 140.926 70.372 141.036L70.5477 141.156L70.782 141.296H71.0749H71.2896H71.5825H72.0315H72.3439C72.6222 141.214 72.8907 141.099 73.1443 140.956L73.652 140.615L73.9253 140.394C74.1063 140.248 74.276 140.087 74.4329 139.913L74.882 139.392C74.882 139.392 75.0772 139.132 75.2724 138.811C75.4091 138.613 75.533 138.405 75.6433 138.19C75.6433 138.029 75.6433 138.009 75.9362 137.548L76.0729 137.208C76.188 136.881 76.2794 136.546 76.3462 136.206C76.4066 135.875 76.4392 135.54 76.4438 135.204C76.4438 135.364 76.19 135.524 75.9362 135.664C75.8783 136.59 75.6075 137.489 75.146 138.287C74.6844 139.085 74.0453 139.759 73.281 140.254C71.8363 141.076 70.6844 140.354 70.7234 138.651C70.7761 137.726 71.0426 136.827 71.5009 136.029C71.9593 135.231 72.5963 134.556 73.3591 134.061C74.8039 133.219 75.9557 133.941 75.9362 135.664C76.1509 135.624 76.4048 135.464 76.4048 135.304Z" fill="#FCD561"/>
<path d="M82.1252 147.069C82.4356 147.221 82.7796 147.286 83.1224 147.258C83.4653 147.23 83.7947 147.109 84.0776 146.908C84.8845 146.397 85.5583 145.692 86.0412 144.854C86.5241 144.016 86.8017 143.07 86.8499 142.098L75.8191 135.865C75.7665 136.73 75.5142 137.571 75.0831 138.316C74.652 139.062 74.0545 139.692 73.3397 140.154C73.0942 140.339 72.8035 140.45 72.5 140.474C72.1966 140.499 71.8924 140.437 71.6216 140.294L82.1252 147.069Z" fill="#009FBD"/>
<path d="M74.9795 134.181C75.2444 134.362 75.4544 134.616 75.5855 134.914C75.7167 135.212 75.7638 135.541 75.7214 135.865L86.7521 142.098C86.7927 141.735 86.7359 141.368 86.5879 141.036C86.44 140.704 86.2065 140.42 85.9127 140.214L74.9795 134.181Z" fill="#009FBD"/>
<path d="M85.9127 140.214L74.9795 134.201C74.712 134.083 74.4198 134.036 74.1298 134.064C73.8398 134.092 73.5613 134.194 73.32 134.362C72.6069 134.831 72.0111 135.465 71.5805 136.213C71.1498 136.962 70.8963 137.803 70.8405 138.671C70.8075 138.982 70.853 139.297 70.9727 139.584C71.0924 139.872 71.2822 140.124 71.5239 140.314L82.047 147.089C81.7822 146.869 81.5742 146.586 81.4414 146.265C81.3085 145.943 81.2551 145.593 81.2856 145.245C81.345 144.275 81.6272 143.334 82.1091 142.498C82.5909 141.662 83.2587 140.955 84.0579 140.435C84.3245 140.242 84.6339 140.12 84.9579 140.082C85.2819 140.043 85.6102 140.089 85.9127 140.214Z" fill="#9E4A9E"/>
<path d="M112.64 162.641C112.762 162.692 112.894 162.709 113.024 162.691C113.154 162.674 113.277 162.622 113.382 162.541C113.714 162.324 113.992 162.029 114.192 161.681C114.392 161.332 114.51 160.941 114.534 160.537L86.7521 142.098C86.7038 143.07 86.4264 144.016 85.9435 144.854C85.4606 145.692 84.7867 146.397 83.9798 146.908C83.7177 147.094 83.4151 147.212 83.0986 147.25C82.7821 147.289 82.4612 147.247 82.1641 147.129L112.64 162.641Z" fill="#009FBD"/>
<path d="M86.03 140.294C86.2901 140.507 86.4929 140.784 86.6193 141.1C86.7458 141.416 86.7916 141.759 86.7524 142.098L114.534 160.537C114.557 160.398 114.542 160.254 114.49 160.123C114.439 159.993 114.353 159.879 114.241 159.795L86.03 140.294Z" fill="#009FBD"/>
<path d="M114.534 160.537C114.534 159.795 114.046 159.475 113.421 159.835C113.089 160.053 112.812 160.347 112.611 160.696C112.411 161.044 112.294 161.436 112.27 161.84C112.27 162.581 112.758 162.902 113.382 162.541C113.715 162.324 113.992 162.029 114.192 161.681C114.393 161.332 114.51 160.94 114.534 160.537Z" fill="#FCD561"/>
<path d="M114.241 159.795L86.0297 140.294C85.7227 140.136 85.3806 140.064 85.0378 140.085C84.695 140.106 84.3637 140.22 84.0774 140.414C83.2782 140.935 82.6103 141.642 82.1285 142.478C81.6466 143.314 81.3644 144.255 81.305 145.225C81.2648 145.594 81.3258 145.968 81.4809 146.305C81.6361 146.641 81.8794 146.926 82.1836 147.129L112.66 162.641C112.53 162.558 112.426 162.438 112.36 162.296C112.294 162.154 112.269 161.996 112.289 161.84C112.313 161.436 112.43 161.044 112.631 160.696C112.831 160.347 113.108 160.053 113.441 159.835C113.558 159.755 113.695 159.709 113.836 159.702C113.976 159.695 114.117 159.727 114.241 159.795Z" fill="#9E4A9E"/>
<path d="M185.092 207.897C183.903 207.888 182.718 207.747 181.558 207.476H181.422C175.81 206.959 170.411 205.024 165.705 201.844C163.539 200.693 161.669 199.033 160.247 196.999C158.826 194.965 157.893 192.614 157.525 190.139C157.162 186.123 157.835 182.079 159.477 178.415C152.136 174.526 123.476 153.542 123.398 153.482L123.984 152.4C123.984 152.4 152.683 173.404 159.965 177.272C162.717 171.513 166.312 166.22 170.625 161.579L171.504 162.461C167.297 167.027 163.783 172.215 161.078 177.853C166.252 180.599 172.519 183.866 179.079 187.073C186.595 190.781 191.554 195.791 192.335 200.461C192.529 201.413 192.487 202.399 192.214 203.33C191.941 204.261 191.446 205.108 190.773 205.792C190.01 206.513 189.114 207.07 188.139 207.431C187.164 207.792 186.128 207.951 185.092 207.897ZM166.311 185.149C173.281 185.609 179.907 188.428 185.151 193.166C188.919 196.332 190.559 200.18 189.465 203.187C189.18 203.929 188.753 204.605 188.21 205.177C187.667 205.748 187.018 206.202 186.303 206.514C187.666 206.384 188.946 205.783 189.934 204.81C190.472 204.27 190.867 203.599 191.082 202.859C191.297 202.119 191.325 201.335 191.164 200.581C190.461 196.352 185.639 191.582 178.591 188.095C172.05 184.868 165.803 181.641 160.629 178.896C159.052 182.318 158.379 186.105 158.677 189.879C159.016 192.164 159.879 194.334 161.197 196.209C162.514 198.084 164.247 199.61 166.252 200.661C168.803 202.269 171.504 203.612 174.315 204.67C170.566 202.708 167.125 200.181 164.104 197.174C162.458 195.599 161.131 193.705 160.2 191.602C159.788 190.833 159.622 189.951 159.728 189.08C159.833 188.209 160.203 187.394 160.785 186.752C162.353 185.495 164.33 184.9 166.311 185.089V185.149ZM181.578 206.213C185.014 206.213 187.435 205.051 188.314 202.846C189.231 200.321 187.728 197.014 184.409 194.188C174.1 185.509 164.026 185.349 161.742 187.694C161.343 188.174 161.098 188.768 161.042 189.397C160.986 190.025 161.122 190.656 161.43 191.202C162.302 193.139 163.536 194.882 165.061 196.332C169.683 200.968 175.361 204.344 181.578 206.153V206.213Z" fill="#FFDA0B"/>
<path d="M186.009 210.562H185.599C179.862 209.969 174.35 207.961 169.532 204.71C167.371 203.578 165.506 201.929 164.096 199.903C162.686 197.876 161.772 195.531 161.429 193.065C161.141 190.164 161.46 187.232 162.366 184.467C149.364 181.361 113.558 161.84 113.323 161.82L113.441 160.577C113.636 160.577 149.618 180.118 162.757 183.265C165.587 176.327 169.69 170.013 174.842 164.666L175.701 165.547C170.747 170.768 166.776 176.883 163.987 183.585C170.618 185.107 177.081 187.316 183.276 190.179C190.715 193.827 195.595 198.798 196.376 203.467C196.573 204.435 196.529 205.438 196.25 206.383C195.97 207.329 195.463 208.187 194.775 208.879C193.862 209.618 192.798 210.139 191.663 210.402C190.528 210.666 189.35 210.666 188.216 210.402C187.485 210.516 186.748 210.569 186.009 210.562ZM170.664 188.356C177.605 188.794 184.2 191.618 189.387 196.372C193.135 199.539 194.775 203.387 193.682 206.394C193.272 207.539 192.502 208.511 191.495 209.159C192.42 209.048 193.287 208.641 193.975 207.997C194.518 207.439 194.917 206.751 195.135 205.995C195.354 205.239 195.384 204.439 195.224 203.668C194.522 199.479 189.777 194.729 182.808 191.302C176.648 188.465 170.225 186.275 163.635 184.768C162.754 187.386 162.434 190.169 162.698 192.925C163.028 195.198 163.882 197.357 165.189 199.223C166.497 201.088 168.22 202.605 170.215 203.648C174.12 206.14 178.402 207.948 182.886 208.999C174.666 205.993 164.748 198.858 163.772 193.647C163.624 192.947 163.674 192.219 163.916 191.548C164.158 190.876 164.582 190.29 165.139 189.859C166.776 188.763 168.713 188.236 170.664 188.356ZM170.664 189.618C168.992 189.492 167.324 189.913 165.9 190.821C165.512 191.107 165.217 191.507 165.053 191.968C164.89 192.429 164.865 192.93 164.983 193.406C165.822 197.956 175.72 205.432 184.604 208.237C185.79 208.624 187.004 208.912 188.235 209.099C189.16 209.011 190.046 208.67 190.801 208.114C191.556 207.557 192.153 206.804 192.53 205.933C193.448 203.407 191.944 200.08 188.626 197.274C183.65 192.717 177.321 190.019 170.664 189.618Z" fill="#FCD561"/>
<path d="M200.468 106.187C200.271 106.183 200.079 106.121 199.916 106.007C199.753 105.893 199.626 105.733 199.55 105.546L189.788 79.491C189.738 79.3704 189.713 79.2405 189.713 79.1094C189.714 78.9783 189.741 78.8487 189.792 78.7286C189.843 78.6084 189.918 78.5003 190.011 78.4109C190.104 78.3214 190.215 78.2525 190.335 78.2083C190.454 78.1595 190.582 78.1353 190.71 78.1371C190.838 78.1389 190.965 78.1666 191.083 78.2188C191.201 78.2709 191.307 78.3464 191.397 78.4409C191.486 78.5354 191.557 78.647 191.604 78.7695L201.366 104.824C201.456 105.069 201.449 105.34 201.347 105.58C201.245 105.82 201.055 106.009 200.819 106.107C200.71 106.162 200.589 106.19 200.468 106.187Z" fill="#DD6C2D"/>
<path d="M196.387 107.25C196.38 108.188 196.643 109.108 197.144 109.893C197.645 110.678 198.362 111.293 199.203 111.66C200.045 112.028 200.973 112.131 201.872 111.957C202.77 111.783 203.598 111.34 204.251 110.683C204.905 110.027 205.354 109.186 205.542 108.267C205.73 107.349 205.649 106.394 205.309 105.523C204.969 104.651 204.385 103.903 203.632 103.372C202.878 102.841 201.987 102.552 201.073 102.54C200.194 102.533 199.332 102.791 198.594 103.281C197.928 103.696 197.376 104.278 196.99 104.972C196.604 105.667 196.397 106.45 196.387 107.25Z" fill="#FEB30F"/>
<path d="M197.715 106.027C197.715 107.287 198.203 108.495 199.071 109.386C199.938 110.277 201.115 110.777 202.342 110.777C203.222 110.783 204.084 110.525 204.822 110.035C205.318 109.328 205.615 108.494 205.679 107.625C205.742 106.755 205.571 105.885 205.183 105.109C204.795 104.334 204.206 103.683 203.481 103.23C202.756 102.777 201.923 102.538 201.073 102.54C200.194 102.533 199.332 102.791 198.594 103.281C198.03 104.081 197.723 105.04 197.715 106.027Z" fill="#9E4A9E"/>
<path d="M201.503 105.746C201.503 105.925 201.554 106.099 201.651 106.248C201.747 106.396 201.885 106.511 202.045 106.58C202.206 106.648 202.382 106.666 202.553 106.631C202.723 106.596 202.88 106.51 203.002 106.384C203.125 106.258 203.209 106.097 203.243 105.922C203.277 105.747 203.259 105.566 203.193 105.401C203.126 105.236 203.014 105.096 202.869 104.997C202.725 104.897 202.555 104.845 202.381 104.845C202.148 104.845 201.925 104.94 201.76 105.109C201.595 105.278 201.503 105.507 201.503 105.746Z" fill="#FFEFCA"/>
<path d="M223.232 121.7C223.06 121.703 222.89 121.655 222.744 121.56L202.694 109.675C202.469 109.544 202.303 109.327 202.234 109.072C202.164 108.816 202.196 108.543 202.323 108.312C202.457 108.083 202.672 107.916 202.922 107.846C203.173 107.775 203.44 107.805 203.67 107.931L223.72 119.816C223.943 119.954 224.105 120.175 224.171 120.434C224.236 120.692 224.201 120.967 224.072 121.199C223.987 121.35 223.864 121.476 223.717 121.564C223.57 121.652 223.403 121.699 223.232 121.7Z" fill="#DD6C2D"/>
<path d="M220.831 121.56C220.827 122.5 221.095 123.42 221.601 124.204C222.107 124.988 222.829 125.6 223.674 125.962C224.519 126.325 225.45 126.422 226.349 126.241C227.247 126.06 228.074 125.609 228.723 124.946C229.372 124.282 229.815 123.436 229.995 122.514C230.175 121.592 230.084 120.636 229.735 119.767C229.385 118.897 228.792 118.154 228.031 117.632C227.269 117.109 226.374 116.83 225.458 116.83C224.578 116.82 223.715 117.078 222.978 117.571C222.324 117.998 221.784 118.587 221.408 119.284C221.033 119.981 220.834 120.763 220.831 121.56Z" fill="#FEB30F"/>
<path d="M222.1 120.357C222.094 121.21 222.313 122.049 222.733 122.785C223.154 123.521 223.76 124.126 224.489 124.537C225.217 124.948 226.04 125.149 226.871 125.119C227.701 125.089 228.508 124.828 229.206 124.366C229.709 123.658 230.01 122.822 230.076 121.95C230.143 121.077 229.973 120.203 229.584 119.424C229.196 118.645 228.604 117.992 227.876 117.538C227.147 117.083 226.31 116.845 225.458 116.85C224.578 116.84 223.715 117.098 222.978 117.591C222.404 118.392 222.096 119.362 222.1 120.357Z" fill="#9E4A9E"/>
<path d="M226.493 122.582C226.296 122.583 226.105 122.52 225.946 122.401C225.734 122.248 225.589 122.015 225.541 121.753C225.494 121.491 225.548 121.22 225.692 120.999L235.727 106.348C235.877 106.13 236.106 105.982 236.362 105.937C236.618 105.892 236.882 105.953 237.094 106.107C237.306 106.261 237.45 106.496 237.494 106.759C237.538 107.022 237.478 107.292 237.328 107.51L227.293 122.161C227.2 122.29 227.08 122.394 226.941 122.467C226.802 122.54 226.649 122.58 226.493 122.582Z" fill="#DD6C2D"/>
<path d="M200.684 62.491L190.659 77.134L192.256 78.2865L202.281 63.6435L200.684 62.491Z" fill="#DD6C2D"/>
<path d="M185.455 77.7674C185.46 79.0237 185.95 80.2268 186.817 81.1133C187.684 81.9997 188.858 82.4974 190.082 82.4974C190.713 82.5396 191.347 82.4483 191.942 82.2292C192.538 82.0101 193.084 81.6678 193.546 81.2235C194.008 80.7792 194.376 80.2424 194.628 79.6462C194.879 79.05 195.009 78.4072 195.009 77.7574C195.009 77.1077 194.879 76.4648 194.628 75.8686C194.376 75.2725 194.008 74.7356 193.546 74.2913C193.084 73.8471 192.538 73.5048 191.942 73.2857C191.347 73.0665 190.713 72.9753 190.082 73.0174C188.855 73.0174 187.678 73.5179 186.81 74.4087C185.942 75.2995 185.455 76.5077 185.455 77.7674Z" fill="#FEB30F"/>
<path d="M186.723 76.4847C186.723 77.7445 187.211 78.9526 188.079 79.8434C188.946 80.7342 190.123 81.2347 191.35 81.2347C192.232 81.235 193.094 80.9702 193.83 80.4731C194.448 79.5774 194.745 78.4895 194.671 77.3944C194.596 76.2993 194.154 75.2646 193.42 74.4662C192.686 73.6678 191.705 73.1551 190.644 73.0152C189.584 72.8753 188.509 73.1168 187.602 73.6988C187.032 74.5099 186.724 75.4845 186.723 76.4847Z" fill="#9E4A9E"/>
<path d="M190.765 76.2442C190.765 76.4143 190.831 76.5774 190.948 76.6977C191.065 76.818 191.224 76.8855 191.39 76.8855C191.48 76.9021 191.572 76.8981 191.66 76.874C191.749 76.8499 191.831 76.8062 191.901 76.746C191.971 76.6858 192.027 76.6106 192.066 76.5256C192.104 76.4406 192.124 76.348 192.124 76.2542C192.124 76.1604 192.104 76.0678 192.066 75.9828C192.027 75.8978 191.971 75.8226 191.901 75.7624C191.831 75.7022 191.749 75.6585 191.66 75.6344C191.572 75.6103 191.48 75.6064 191.39 75.6229C191.227 75.6228 191.071 75.6876 190.955 75.8036C190.838 75.9196 190.77 76.0776 190.765 76.2442Z" fill="#FFEFCA"/>
<path d="M197.11 62.1345C197.11 63.0748 197.382 63.9939 197.891 64.7755C198.4 65.5571 199.124 66.1659 199.971 66.5248C200.817 66.8837 201.749 66.9766 202.647 66.7917C203.545 66.6068 204.369 66.1524 205.015 65.4861C205.662 64.8198 206.101 63.9715 206.277 63.0488C206.454 62.1261 206.359 61.1704 206.006 60.3028C205.653 59.4352 205.057 58.6947 204.293 58.1752C203.53 57.6557 202.633 57.3805 201.717 57.3845C200.84 57.3905 199.981 57.6473 199.238 58.126C198.582 58.5556 198.044 59.1484 197.671 59.8493C197.299 60.5501 197.106 61.3363 197.11 62.1345Z" fill="#FEB30F"/>
<path d="M198.34 60.9119C198.34 62.1717 198.827 63.3799 199.695 64.2707C200.563 65.1615 201.74 65.6619 202.967 65.6619C203.848 65.6646 204.711 65.3996 205.446 64.9003C205.949 64.1931 206.25 63.3568 206.316 62.4844C206.383 61.612 206.213 60.7377 205.824 59.9588C205.436 59.1798 204.844 58.5268 204.116 58.0723C203.387 57.6179 202.55 57.3797 201.698 57.3845C200.82 57.3905 199.962 57.6473 199.218 58.1261C198.648 58.9372 198.341 59.9117 198.34 60.9119Z" fill="#9E4A9E"/>
<path d="M236.43 104.824C236.234 104.827 236.042 104.767 235.881 104.652C235.719 104.537 235.598 104.373 235.532 104.183L225.673 78.1281C225.626 78.0045 225.603 77.8725 225.606 77.7399C225.609 77.6072 225.638 77.4765 225.691 77.3553C225.743 77.2341 225.819 77.1248 225.913 77.0339C226.007 76.9429 226.118 76.872 226.239 76.8254C226.48 76.7341 226.746 76.7439 226.98 76.8527C227.214 76.9615 227.397 77.1605 227.489 77.4066L237.348 103.462C237.395 103.585 237.418 103.717 237.415 103.85C237.411 103.982 237.383 104.113 237.33 104.234C237.277 104.356 237.202 104.465 237.108 104.556C237.014 104.647 236.903 104.718 236.782 104.764C236.668 104.804 236.55 104.824 236.43 104.824Z" fill="#DD6C2D"/>
<path d="M232.799 106.388C232.795 107.33 233.064 108.252 233.572 109.036C234.08 109.821 234.803 110.433 235.651 110.794C236.498 111.156 237.431 111.25 238.331 111.066C239.231 110.882 240.057 110.427 240.704 109.759C241.352 109.092 241.791 108.242 241.967 107.317C242.143 106.392 242.047 105.435 241.691 104.567C241.335 103.698 240.736 102.958 239.97 102.44C239.203 101.922 238.304 101.65 237.387 101.658C236.507 101.652 235.646 101.909 234.907 102.399C234.257 102.828 233.723 103.418 233.354 104.116C232.986 104.813 232.794 105.594 232.799 106.388Z" fill="#FEB30F"/>
<path d="M234.068 105.185C234.073 106.442 234.563 107.645 235.43 108.531C236.297 109.417 237.471 109.915 238.695 109.915C239.574 109.921 240.436 109.664 241.174 109.174C241.679 108.464 241.98 107.624 242.045 106.748C242.111 105.872 241.937 104.994 241.544 104.214C241.15 103.434 240.553 102.781 239.819 102.33C239.085 101.878 238.243 101.646 237.387 101.658C236.508 101.652 235.646 101.909 234.907 102.399C234.351 103.215 234.058 104.189 234.068 105.185Z" fill="#9E4A9E"/>
<path d="M224.13 75.9636C223.961 75.9622 223.794 75.921 223.642 75.8433L203.592 63.9583C203.369 63.8206 203.207 63.5988 203.141 63.3403C203.076 63.0819 203.111 62.8073 203.24 62.5754C203.303 62.4607 203.387 62.3601 203.489 62.2796C203.59 62.1991 203.706 62.1403 203.83 62.1066C203.954 62.073 204.083 62.0652 204.209 62.0837C204.336 62.1023 204.458 62.1468 204.568 62.2146L224.618 74.0996C224.843 74.2302 225.009 74.4469 225.078 74.7024C225.148 74.9578 225.116 75.2312 224.989 75.4625C224.901 75.6155 224.775 75.7422 224.625 75.8301C224.474 75.918 224.304 75.964 224.13 75.9636Z" fill="#DD6C2D"/>
<path d="M220.48 75.4024C220.476 76.3427 220.744 77.263 221.25 78.0468C221.756 78.8306 222.477 79.4425 223.322 79.8051C224.167 80.1677 225.098 80.2646 225.997 80.0836C226.896 79.9026 227.722 79.4518 228.371 78.7883C229.021 78.1248 229.463 77.2785 229.643 76.3565C229.823 75.4346 229.733 74.4785 229.383 73.6094C229.034 72.7402 228.441 71.9972 227.679 71.4744C226.918 70.9516 226.023 70.6725 225.107 70.6724C224.221 70.6658 223.353 70.9234 222.608 71.414C221.956 71.8431 221.42 72.433 221.048 73.1298C220.677 73.8266 220.481 74.608 220.48 75.4024Z" fill="#FEB30F"/>
<path d="M221.768 74.1999C221.773 75.4562 222.263 76.6592 223.13 77.5457C223.997 78.4322 225.171 78.9299 226.395 78.9298C227.281 78.9365 228.149 78.6788 228.894 78.1883C229.389 77.4793 229.684 76.6441 229.747 75.7744C229.81 74.9047 229.638 74.034 229.251 73.2577C228.864 72.4814 228.276 71.8295 227.552 71.3735C226.828 70.9175 225.995 70.6749 225.146 70.6724C224.26 70.6658 223.392 70.9234 222.647 71.414C222.077 72.2251 221.769 73.1997 221.768 74.1999Z" fill="#9E4A9E"/>
<path d="M225.536 73.8993C225.536 74.0785 225.588 74.2537 225.686 74.4024C225.783 74.5511 225.921 74.6667 226.083 74.7343C226.245 74.8019 226.422 74.8186 226.593 74.7821C226.764 74.7457 226.921 74.6578 227.043 74.5296C227.165 74.4015 227.247 74.2389 227.279 74.0627C227.31 73.8864 227.29 73.7045 227.221 73.5401C227.151 73.3756 227.036 73.2362 226.889 73.1396C226.741 73.0429 226.57 72.9934 226.395 72.9974C226.166 73.0026 225.947 73.1 225.787 73.2686C225.626 73.4371 225.536 73.6635 225.536 73.8993Z" fill="#FFEFCA"/>
<path d="M161.518 63.1566C161.549 63.9761 161.824 64.7662 162.306 65.4203C162.788 66.0743 163.454 66.5609 164.214 66.8143C164.973 67.0678 165.791 67.0759 166.555 66.8375C167.319 66.5992 167.994 66.1259 168.488 65.4815C168.973 64.8087 169.233 63.9933 169.23 63.1566C169.23 62.0935 168.819 61.0739 168.087 60.3222C167.354 59.5705 166.361 59.1482 165.325 59.1482C164.592 59.1451 163.873 59.3609 163.256 59.7695C162.714 60.1405 162.271 60.6448 161.968 61.2364C161.664 61.8279 161.51 62.4881 161.518 63.1566Z" fill="#FEB30F"/>
<path d="M162.573 62.1545C162.573 63.2176 162.984 64.2371 163.716 64.9889C164.449 65.7406 165.442 66.1629 166.477 66.1629C167.212 66.1695 167.932 65.9534 168.547 65.5416C169.032 64.8688 169.292 64.0534 169.289 63.2167C169.289 62.1536 168.877 61.134 168.145 60.3823C167.413 59.6306 166.42 59.2083 165.384 59.2083C164.65 59.2052 163.931 59.421 163.315 59.8296C162.837 60.5062 162.578 61.3191 162.573 62.1545Z" fill="#9E4A9E"/>
<path d="M165.736 61.914C165.736 62.1107 165.812 62.2993 165.947 62.4384C166.083 62.5775 166.266 62.6556 166.458 62.6556C166.564 62.6735 166.673 62.6674 166.776 62.6379C166.88 62.6083 166.976 62.556 167.058 62.4845C167.14 62.413 167.206 62.324 167.251 62.2238C167.296 62.1236 167.32 62.0145 167.32 61.904C167.32 61.7936 167.296 61.6845 167.251 61.5843C167.206 61.484 167.14 61.3951 167.058 61.3236C166.976 61.2521 166.88 61.1998 166.776 61.1702C166.673 61.1406 166.564 61.1346 166.458 61.1524C166.361 61.1524 166.266 61.1722 166.177 61.2107C166.088 61.2493 166.007 61.3057 165.94 61.3767C165.873 61.4477 165.82 61.5318 165.785 61.6241C165.75 61.7164 165.733 61.815 165.736 61.914Z" fill="#FFEFCA"/>
<path d="M187.524 77.607C187.352 77.6082 187.182 77.5596 187.036 77.4667L166.985 65.5817C166.764 65.4475 166.602 65.2308 166.533 64.9768C166.464 64.7228 166.493 64.4512 166.614 64.2188C166.749 63.9904 166.963 63.8235 167.214 63.7527C167.464 63.6818 167.732 63.7124 167.961 63.838L188.012 75.7231C188.235 75.8607 188.397 76.0825 188.462 76.341C188.528 76.5994 188.492 76.874 188.363 77.106C188.278 77.2574 188.156 77.3834 188.009 77.4713C187.861 77.5592 187.694 77.606 187.524 77.607Z" fill="#DD6C2D"/>
<path d="M200.741 60.7315C200.543 60.7302 200.35 60.6685 200.187 60.5543C200.024 60.4401 199.897 60.2785 199.823 60.0901L190.062 34.0352C189.968 33.7854 189.976 33.5078 190.082 33.2635C190.188 33.0192 190.384 32.8282 190.628 32.7325C190.871 32.6368 191.142 32.6443 191.38 32.7533C191.618 32.8623 191.804 33.0639 191.897 33.3137L201.659 59.3686C201.749 59.6162 201.743 59.8902 201.641 60.1332C201.539 60.3761 201.35 60.569 201.112 60.6714C200.992 60.7128 200.867 60.7332 200.741 60.7315Z" fill="#DD6C2D"/>
<path d="M197.871 62.2949C197.902 63.1144 198.177 63.9044 198.659 64.5585C199.141 65.2126 199.807 65.6991 200.566 65.9526C201.326 66.206 202.143 66.2141 202.908 65.9758C203.672 65.7374 204.347 65.2642 204.841 64.6198C205.326 63.9469 205.586 63.1316 205.583 62.2949C205.583 61.2318 205.172 60.2122 204.439 59.4605C203.707 58.7087 202.714 58.2864 201.678 58.2864C200.944 58.2833 200.225 58.4992 199.609 58.9077C199.067 59.2788 198.624 59.783 198.321 60.3746C198.017 60.9662 197.863 61.6263 197.871 62.2949Z" fill="#FEB30F"/>
<path d="M198.926 61.2927C198.926 62.3558 199.337 63.3754 200.069 64.1271C200.801 64.8788 201.795 65.3012 202.83 65.3012C203.565 65.3078 204.285 65.0916 204.9 64.6799C205.384 64.007 205.644 63.1917 205.642 62.355C205.642 61.2918 205.23 60.2723 204.498 59.5206C203.766 58.7688 202.773 58.3465 201.737 58.3465C201.003 58.3434 200.284 58.5593 199.667 58.9678C199.19 59.6445 198.931 60.4573 198.926 61.2927Z" fill="#9E4A9E"/>
<path d="M202.479 61.0521C202.479 61.1425 202.514 61.2292 202.576 61.2931C202.638 61.357 202.723 61.3929 202.811 61.3929C202.901 61.393 202.987 61.3577 203.053 61.2944C203.118 61.231 203.157 61.1443 203.162 61.0521C203.162 60.9565 203.125 60.8647 203.059 60.797C202.993 60.7294 202.904 60.6914 202.811 60.6914C202.765 60.6913 202.721 60.7007 202.679 60.7191C202.637 60.7374 202.6 60.7644 202.569 60.7981C202.538 60.8319 202.514 60.8719 202.498 60.9156C202.483 60.9593 202.476 61.0057 202.479 61.0521Z" fill="#FFEFCA"/>
<path d="M185.552 31.3095C185.592 32.1194 185.87 32.8978 186.35 33.542C186.829 34.1862 187.488 34.6658 188.239 34.9177C188.99 35.1696 189.797 35.1817 190.555 34.9526C191.313 34.7235 191.985 34.2639 192.483 33.6344C192.953 32.9554 193.206 32.1427 193.205 31.3095C193.205 30.2464 192.794 29.2269 192.062 28.4751C191.329 27.7234 190.336 27.3011 189.301 27.3011C188.568 27.3047 187.85 27.52 187.231 27.9224C186.7 28.3003 186.269 28.8076 185.976 29.3987C185.683 29.9899 185.537 30.6464 185.552 31.3095Z" fill="#FEB30F"/>
<path d="M186.626 30.3879C186.626 31.451 187.037 32.4706 187.769 33.2223C188.502 33.974 189.495 34.3964 190.53 34.3964C191.264 34.3995 191.983 34.1836 192.6 33.7751C193.07 33.096 193.323 32.2834 193.322 31.4502C193.322 30.3871 192.911 29.3675 192.179 28.6158C191.446 27.864 190.453 27.4417 189.418 27.4417C188.685 27.4453 187.967 27.6606 187.348 28.063C186.878 28.7421 186.625 29.5547 186.626 30.3879Z" fill="#9E4A9E"/>
<path d="M189.75 30.0669C189.75 30.2176 189.793 30.3648 189.875 30.4901C189.956 30.6153 190.072 30.7129 190.207 30.7706C190.343 30.8282 190.492 30.8433 190.636 30.8139C190.78 30.7845 190.912 30.712 191.016 30.6055C191.12 30.4989 191.19 30.3632 191.219 30.2155C191.248 30.0678 191.233 29.9146 191.177 29.7755C191.121 29.6363 191.026 29.5174 190.904 29.4337C190.782 29.35 190.638 29.3053 190.491 29.3053C190.295 29.3053 190.106 29.3856 189.967 29.5284C189.828 29.6712 189.75 29.8649 189.75 30.0669Z" fill="#FFEFCA"/>
<path d="M239.505 105.096L238.605 106.875L264.229 120.539L265.129 118.76L239.505 105.096Z" fill="#DD6C2D"/>
<path d="M261.03 118.694C261.06 119.513 261.335 120.303 261.817 120.957C262.299 121.611 262.965 122.098 263.725 122.351C264.485 122.605 265.302 122.613 266.066 122.375C266.831 122.136 267.505 121.663 268 121.018C268.484 120.346 268.744 119.53 268.741 118.694C268.741 117.63 268.33 116.611 267.598 115.859C266.866 115.107 265.872 114.685 264.837 114.685C264.103 114.682 263.384 114.898 262.767 115.306C262.225 115.677 261.783 116.182 261.479 116.773C261.176 117.365 261.021 118.025 261.03 118.694Z" fill="#FEB30F"/>
<path d="M262.084 117.691C262.084 118.755 262.495 119.774 263.228 120.526C263.96 121.278 264.953 121.7 265.989 121.7C266.723 121.707 267.443 121.49 268.058 121.079C268.543 120.406 268.803 119.59 268.8 118.754C268.8 117.691 268.389 116.671 267.656 115.919C266.924 115.168 265.931 114.745 264.895 114.745C264.161 114.742 263.443 114.958 262.826 115.367C262.349 116.043 262.089 116.856 262.084 117.691Z" fill="#9E4A9E"/>
<path d="M265.461 117.451C265.461 117.589 265.515 117.722 265.61 117.82C265.705 117.917 265.834 117.972 265.969 117.972C266.045 117.987 266.124 117.985 266.199 117.966C266.275 117.946 266.345 117.909 266.405 117.859C266.465 117.808 266.513 117.744 266.547 117.672C266.58 117.6 266.597 117.521 266.597 117.441C266.597 117.361 266.58 117.282 266.547 117.21C266.513 117.138 266.465 117.074 266.405 117.023C266.345 116.973 266.275 116.936 266.199 116.916C266.124 116.897 266.045 116.895 265.969 116.91C265.901 116.91 265.833 116.924 265.77 116.951C265.707 116.979 265.65 117.019 265.603 117.07C265.555 117.12 265.519 117.18 265.494 117.245C265.47 117.311 265.459 117.381 265.461 117.451Z" fill="#FFEFCA"/>
</svg>
