<svg width="210" height="220" viewBox="0 0 210 220" fill="none" xmlns="http://www.w3.org/2000/svg">
<path d="M197.487 60.0786L197.185 59.918L193.489 57.7895L193.791 57.9501L197.487 60.0786Z" fill="#9E4A9E"/>
<path d="M193.476 57.7732L191.376 61.4076L195.082 63.5461L197.181 59.9117L193.476 57.7732Z" fill="#9E4A9E"/>
<path d="M195.076 63.5926C195.9 64.1147 201.103 66.5444 201.364 76.2229C201.645 84.536 198.11 95.4194 190.858 108.572C183.124 122.628 174.104 132.065 164.02 136.684C157.03 139.937 153.112 137.808 152.55 137.487L148.854 135.338C149.416 135.68 153.333 137.788 160.324 134.535C170.368 129.857 179.428 120.379 187.162 106.423C194.413 93.2708 197.949 82.3272 197.668 74.0744C197.326 64.3958 192.204 62.0264 191.38 61.424L195.076 63.5926Z" fill="#FEB30F"/>
<path d="M150.521 141.081L150.843 141.282L146.825 138.953L150.521 141.081Z" fill="#9E4A9E"/>
<path d="M152.53 137.507L148.814 135.359L152.53 137.507Z" fill="#9E4A9E"/>
<path d="M150.381 141.001L146.725 138.993L150.381 141.001Z" fill="#9E4A9E"/>
<path d="M194.936 63.4721L195.076 63.5725L191.24 61.3437L194.936 63.4721Z" fill="#9E4A9E"/>
<path d="M196.884 59.7372C195.558 58.9541 189.874 56.3237 181.175 60.922C172.98 65.2392 164.583 74.476 156.186 88.3713C151.621 95.7025 148.143 103.657 145.861 111.985C145.379 113.873 144.997 115.74 144.716 117.568L141.02 115.439C141.301 113.612 141.682 111.744 142.165 109.857C144.459 101.526 147.951 93.5717 152.53 86.2428C160.927 72.3475 169.324 63.1107 177.519 58.7935C186.218 54.1951 191.882 56.7855 193.228 57.6087L196.884 59.7372Z" fill="#FEB30F"/>
<path d="M144.716 117.568L147.006 121.905L143.31 119.776L141.02 115.439L144.716 117.568Z" fill="#9E4A9E"/>
<path d="M147.006 121.825C146.845 122.568 146.082 126.764 144.776 132.648L141.08 130.519C142.386 124.636 143.089 120.479 143.31 119.696L147.006 121.825Z" fill="#9E4A9E"/>
<path d="M144.776 132.728C144.981 134.36 145.544 135.927 146.427 137.316C147.309 138.704 148.488 139.881 149.878 140.76L146.182 138.611C144.786 137.739 143.602 136.564 142.72 135.174C141.837 133.784 141.276 132.214 141.08 130.579L144.776 132.728Z" fill="#9E4A9E"/>
<path d="M170.027 133.33C169.484 133.812 165.025 137.607 160.706 141.563C151.887 149.595 138.167 162.948 131.578 173.691L127.882 171.563C134.471 160.84 148.191 147.467 157.01 139.435C161.329 135.419 164.462 132.808 165.045 132.306L170.027 133.33Z" fill="#FEB30F"/>
<path d="M131.578 173.671L133.587 175.057L129.891 172.908L127.882 171.543L131.578 173.671Z" fill="#9E4A9E"/>
<path d="M174.627 133.33C167.094 139.616 142.948 159.957 133.667 175.057L131.659 173.671C138.248 162.948 151.968 149.575 160.786 141.543C165.105 137.527 168.259 134.917 168.821 134.435L172.839 133.31L174.627 133.33Z" fill="#9E4A9E"/>
<path d="M144.716 117.568C143.048 127.226 137.826 157.065 129.389 172.627L125.692 170.478C134.129 154.916 139.332 125.098 141.02 115.439L144.716 117.568Z" fill="#FEB30F"/>
<path d="M144.716 117.568L147.006 121.905C146.845 122.648 146.082 126.845 144.776 132.728C142.185 144.415 137.524 162.708 131.578 173.671L129.389 172.627C137.826 157.065 143.049 127.226 144.716 117.568Z" fill="#9E4A9E"/>
<path d="M144.716 117.568L147.006 121.905C146.845 122.648 146.082 126.845 144.776 132.728C144.555 131.604 144.374 130.379 144.254 129.094C143.943 125.247 144.098 121.377 144.716 117.568Z" fill="#9E4A9E"/>
<path d="M160.706 141.563C165.025 137.547 169.143 134.013 169.685 133.531L173.341 134.294C170.391 136.676 167.168 138.699 163.739 140.318C162.751 140.788 161.739 141.203 160.706 141.563Z" fill="#9E4A9E"/>
<path d="M191.059 105.861H190.938L157.592 86.6043C157.551 86.5569 157.529 86.4963 157.529 86.4336C157.529 86.3709 157.551 86.3104 157.592 86.2629C157.615 86.2405 157.641 86.2227 157.671 86.2105C157.7 86.1983 157.731 86.192 157.763 86.192C157.795 86.192 157.826 86.1983 157.856 86.2105C157.885 86.2227 157.911 86.2405 157.934 86.2629L191.28 105.5C191.321 105.547 191.343 105.608 191.343 105.67C191.343 105.733 191.321 105.794 191.28 105.841C191.246 105.859 191.209 105.87 191.172 105.874C191.134 105.877 191.095 105.873 191.059 105.861Z" fill="#FCD561"/>
<path d="M189.01 109.616H188.889L155.443 90.3392C155.4 90.2886 155.377 90.2246 155.377 90.1585C155.377 90.0924 155.4 90.0284 155.443 89.9778C155.49 89.9368 155.551 89.9142 155.614 89.9142C155.676 89.9142 155.737 89.9368 155.784 89.9778L189.211 109.275C189.268 109.308 189.309 109.362 189.328 109.426C189.347 109.489 189.341 109.557 189.311 109.616C189.266 109.645 189.214 109.66 189.16 109.66C189.107 109.66 189.055 109.645 189.01 109.616Z" fill="#FCD561"/>
<path d="M186.78 113.27H186.66L153.314 94.0339C153.273 93.9864 153.25 93.9259 153.25 93.8632C153.25 93.8005 153.273 93.7399 153.314 93.6925C153.351 93.6342 153.408 93.5917 153.475 93.5732C153.542 93.5546 153.613 93.5614 153.675 93.5921L187.001 112.829C187.042 112.876 187.065 112.937 187.065 112.999C187.065 113.062 187.042 113.123 187.001 113.17C186.974 113.202 186.94 113.228 186.902 113.245C186.864 113.263 186.822 113.271 186.78 113.27Z" fill="#FCD561"/>
<path d="M193.088 101.845H192.967L160.364 83.0501C160.319 83.01 160.288 82.9551 160.279 82.895C160.269 82.8349 160.281 82.7733 160.312 82.7209C160.343 82.6685 160.391 82.6286 160.448 82.6081C160.506 82.5875 160.568 82.5876 160.626 82.6084L193.208 101.423C193.265 101.457 193.307 101.511 193.326 101.574C193.344 101.638 193.338 101.706 193.309 101.765C193.281 101.794 193.246 101.817 193.208 101.831C193.17 101.845 193.128 101.85 193.088 101.845Z" fill="#FCD561"/>
<path d="M184.349 117.046H184.229L151.606 98.2105C151.549 98.1769 151.507 98.1229 151.489 98.0596C151.47 97.9963 151.476 97.9283 151.506 97.8692C151.528 97.8467 151.555 97.8289 151.584 97.8168C151.613 97.8046 151.645 97.7983 151.676 97.7983C151.708 97.7983 151.74 97.8046 151.769 97.8168C151.798 97.8289 151.825 97.8467 151.847 97.8692L184.47 116.684C184.511 116.732 184.534 116.792 184.534 116.855C184.534 116.917 184.511 116.978 184.47 117.025C184.432 117.041 184.391 117.048 184.349 117.046Z" fill="#FCD561"/>
<path d="M194.936 97.7286H194.815L163.257 79.6566C163.215 79.606 163.191 79.542 163.191 79.4759C163.191 79.4098 163.215 79.3458 163.257 79.2952C163.308 79.2527 163.372 79.2294 163.438 79.2294C163.504 79.2294 163.568 79.2527 163.619 79.2952L195.177 97.5078C195.2 97.5301 195.217 97.5567 195.23 97.586C195.242 97.6153 195.248 97.6467 195.248 97.6784C195.248 97.7101 195.242 97.7415 195.23 97.7708C195.217 97.8001 195.2 97.8267 195.177 97.8491C195.129 97.8584 195.08 97.8516 195.036 97.8298C194.992 97.8081 194.957 97.7725 194.936 97.7286Z" fill="#FCD561"/>
<path d="M181.718 120.64H181.597L150.059 102.447C150.037 102.425 150.019 102.398 150.007 102.369C149.995 102.34 149.988 102.308 149.988 102.277C149.988 102.245 149.995 102.214 150.007 102.184C150.019 102.155 150.037 102.128 150.059 102.106C150.093 102.049 150.147 102.007 150.21 101.989C150.274 101.97 150.342 101.976 150.401 102.006L181.919 120.218C181.96 120.266 181.982 120.326 181.982 120.389C181.982 120.452 181.96 120.512 181.919 120.56C181.893 120.587 181.862 120.608 181.827 120.622C181.792 120.635 181.755 120.642 181.718 120.64Z" fill="#FCD561"/>
<path d="M196.724 93.572H196.603L166.592 76.2631C166.569 76.2407 166.552 76.2141 166.539 76.1848C166.527 76.1555 166.521 76.1241 166.521 76.0924C166.521 76.0607 166.527 76.0293 166.539 76C166.552 75.9707 166.569 75.9441 166.592 75.9217C166.626 75.8649 166.68 75.823 166.743 75.8043C166.806 75.7857 166.874 75.7918 166.933 75.8213L196.724 93.1102C196.781 93.1439 196.823 93.1977 196.841 93.2611C196.86 93.3244 196.854 93.3925 196.824 93.4515C196.804 93.501 196.769 93.5431 196.724 93.572Z" fill="#FCD561"/>
<path d="M178.785 124.174H178.645L148.854 106.965C148.797 106.932 148.755 106.878 148.737 106.814C148.718 106.751 148.724 106.683 148.754 106.624C148.776 106.602 148.803 106.584 148.832 106.572C148.861 106.559 148.893 106.553 148.924 106.553C148.956 106.553 148.988 106.559 149.017 106.572C149.046 106.584 149.073 106.602 149.095 106.624L178.886 123.812C178.942 123.846 178.984 123.9 179.003 123.963C179.022 124.027 179.016 124.095 178.986 124.154C178.956 124.17 178.922 124.181 178.888 124.184C178.853 124.188 178.818 124.184 178.785 124.174Z" fill="#FCD561"/>
<path d="M198.391 88.4114C198.372 88.4203 198.352 88.425 198.331 88.425C198.31 88.425 198.289 88.4203 198.27 88.4114L169.886 72.0462C169.844 71.9956 169.82 71.9316 169.82 71.8655C169.82 71.7994 169.844 71.7354 169.886 71.6848C169.934 71.6438 169.994 71.6212 170.057 71.6212C170.12 71.6212 170.18 71.6438 170.228 71.6848L198.612 88.0701C198.669 88.1037 198.711 88.1577 198.729 88.221C198.748 88.2844 198.742 88.3524 198.712 88.4114C198.667 88.4472 198.61 88.4667 198.552 88.4667C198.493 88.4667 198.437 88.4472 198.391 88.4114Z" fill="#FCD561"/>
<path d="M174.968 128.13H174.848L146.725 111.945C146.684 111.898 146.661 111.837 146.661 111.775C146.661 111.712 146.684 111.651 146.725 111.604C146.772 111.563 146.833 111.54 146.895 111.54C146.958 111.54 147.019 111.563 147.066 111.604L175.189 127.788C175.23 127.836 175.253 127.896 175.253 127.959C175.253 128.022 175.23 128.082 175.189 128.13C175.155 128.146 175.117 128.154 175.079 128.154C175.041 128.154 175.003 128.146 174.968 128.13Z" fill="#FCD561"/>
<path d="M147.086 112.548H146.966C146.919 112.499 146.893 112.434 146.893 112.367C146.893 112.3 146.919 112.235 146.966 112.186L171.071 70.48C171.105 70.4232 171.159 70.3813 171.222 70.3627C171.285 70.344 171.354 70.3501 171.413 70.3796C171.469 70.4133 171.511 70.4672 171.53 70.5306C171.549 70.5939 171.543 70.6619 171.513 70.721L147.407 112.447C147.395 112.477 147.376 112.503 147.352 112.525C147.329 112.546 147.301 112.562 147.27 112.572C147.239 112.581 147.207 112.584 147.175 112.58C147.144 112.576 147.113 112.565 147.086 112.548Z" fill="#FCD561"/>
<path d="M199.516 83.773H199.396L173.562 68.8737C173.52 68.823 173.497 68.7591 173.497 68.693C173.497 68.6269 173.52 68.5629 173.562 68.5122C173.61 68.4713 173.67 68.4487 173.733 68.4487C173.796 68.4487 173.856 68.4713 173.904 68.5122L199.757 83.4317C199.78 83.4541 199.797 83.4806 199.81 83.5099C199.822 83.5392 199.828 83.5706 199.828 83.6023C199.828 83.634 199.822 83.6655 199.81 83.6947C199.797 83.724 199.78 83.7506 199.757 83.773C199.721 83.7963 199.679 83.8088 199.637 83.8088C199.594 83.8088 199.552 83.7963 199.516 83.773Z" fill="#FCD561"/>
<path d="M171.292 131.302H171.172L146.263 116.925C146.222 116.878 146.199 116.817 146.199 116.754C146.199 116.692 146.222 116.631 146.263 116.584C146.296 116.527 146.35 116.485 146.414 116.466C146.477 116.448 146.545 116.454 146.604 116.483L171.533 130.861C171.574 130.908 171.597 130.969 171.597 131.031C171.597 131.094 171.574 131.155 171.533 131.202C171.509 131.242 171.473 131.274 171.429 131.292C171.386 131.31 171.338 131.313 171.292 131.302Z" fill="#FCD561"/>
<path d="M145.54 120.539H145.419C145.378 120.492 145.355 120.431 145.355 120.369C145.355 120.306 145.378 120.246 145.419 120.198L176.857 65.6006C176.89 65.5438 176.944 65.5019 177.008 65.4833C177.071 65.4646 177.139 65.4707 177.198 65.5002C177.239 65.5477 177.262 65.6082 177.262 65.6709C177.262 65.7336 177.239 65.7941 177.198 65.8416L145.66 120.459C145.628 120.496 145.586 120.524 145.54 120.539Z" fill="#FCD561"/>
<path d="M145.6 126.563H145.479C145.457 126.541 145.439 126.514 145.427 126.485C145.415 126.456 145.408 126.424 145.408 126.393C145.408 126.361 145.415 126.33 145.427 126.3C145.439 126.271 145.457 126.245 145.479 126.222L182.1 62.7894C182.122 62.7669 182.149 62.7491 182.178 62.737C182.207 62.7248 182.239 62.7185 182.271 62.7185C182.302 62.7185 182.334 62.7248 182.363 62.737C182.392 62.7491 182.419 62.7669 182.441 62.7894C182.498 62.8231 182.54 62.877 182.559 62.9403C182.577 63.0037 182.571 63.0717 182.542 63.1307L145.821 126.443C145.801 126.483 145.769 126.516 145.729 126.538C145.69 126.559 145.645 126.568 145.6 126.563Z" fill="#FCD561"/>
<path d="M146.966 129.475H146.825C146.803 129.453 146.785 129.426 146.773 129.397C146.761 129.368 146.754 129.336 146.754 129.304C146.754 129.273 146.761 129.241 146.773 129.212C146.785 129.183 146.803 129.156 146.825 129.134L185.696 61.8256C185.729 61.7688 185.783 61.7268 185.847 61.7082C185.91 61.6896 185.978 61.6956 186.037 61.7252C186.078 61.7726 186.101 61.8332 186.101 61.8958C186.101 61.9585 186.078 62.0191 186.037 62.0665L147.147 129.395C147.125 129.421 147.097 129.442 147.066 129.456C147.034 129.47 147 129.477 146.966 129.475Z" fill="#FCD561"/>
<path d="M147.629 133.411C147.61 133.42 147.589 133.424 147.568 133.424C147.548 133.424 147.527 133.42 147.508 133.411C147.467 133.363 147.445 133.303 147.445 133.24C147.445 133.177 147.467 133.117 147.508 133.069L188.689 61.5846C188.722 61.5278 188.776 61.4859 188.84 61.4672C188.903 61.4486 188.971 61.4547 189.03 61.4842C189.087 61.5179 189.129 61.5717 189.147 61.6351C189.166 61.6984 189.16 61.7665 189.13 61.8255L147.87 133.27C147.845 133.313 147.81 133.348 147.768 133.372C147.726 133.397 147.678 133.41 147.629 133.411Z" fill="#FCD561"/>
<path d="M149.256 135.881H149.135C149.094 135.833 149.072 135.773 149.072 135.71C149.072 135.647 149.094 135.587 149.135 135.539L191.682 61.8858C191.704 61.8633 191.731 61.8455 191.76 61.8333C191.789 61.8212 191.821 61.8149 191.852 61.8149C191.884 61.8149 191.916 61.8212 191.945 61.8333C191.974 61.8455 192.001 61.8633 192.023 61.8858C192.064 61.9332 192.087 61.9938 192.087 62.0564C192.087 62.1191 192.064 62.1797 192.023 62.2272L149.477 135.881C149.443 135.9 149.405 135.91 149.366 135.91C149.328 135.91 149.289 135.9 149.256 135.881Z" fill="#FCD561"/>
<path d="M151.405 137.005H151.265C151.242 136.983 151.224 136.956 151.212 136.927C151.2 136.897 151.194 136.866 151.194 136.834C151.194 136.803 151.2 136.771 151.212 136.742C151.224 136.713 151.242 136.686 151.265 136.664L193.71 62.9902C193.748 62.9319 193.805 62.8894 193.872 62.8709C193.939 62.8523 194.01 62.859 194.072 62.8897C194.113 62.9372 194.136 62.9977 194.136 63.0604C194.136 63.1231 194.113 63.1837 194.072 63.2311L151.606 136.885C151.587 136.921 151.558 136.952 151.523 136.974C151.487 136.995 151.447 137.006 151.405 137.005Z" fill="#FCD561"/>
<path d="M153.535 138.25H153.414C153.373 138.203 153.351 138.142 153.351 138.079C153.351 138.017 153.373 137.956 153.414 137.909L195.961 64.2552C195.983 64.2328 196.01 64.215 196.039 64.2028C196.068 64.1907 196.1 64.1844 196.131 64.1844C196.163 64.1844 196.194 64.1907 196.224 64.2028C196.253 64.215 196.28 64.2328 196.302 64.2552C196.343 64.3026 196.366 64.3633 196.366 64.426C196.366 64.4886 196.343 64.5492 196.302 64.5966L153.756 138.25C153.721 138.266 153.683 138.275 153.645 138.275C153.607 138.275 153.569 138.266 153.535 138.25Z" fill="#FCD561"/>
<path d="M156.407 138.471H156.266C156.225 138.424 156.203 138.363 156.203 138.3C156.203 138.238 156.225 138.177 156.266 138.13L197.527 66.6849C197.575 66.6439 197.635 66.6214 197.698 66.6214C197.761 66.6214 197.821 66.6439 197.869 66.6849C197.927 66.7222 197.969 66.7798 197.988 66.8464C198.007 66.9131 198 66.9843 197.969 67.0463L156.548 138.35C156.516 138.405 156.466 138.448 156.407 138.471Z" fill="#FCD561"/>
<path d="M160.143 137.085H160.023C159.982 137.038 159.959 136.977 159.959 136.915C159.959 136.852 159.982 136.791 160.023 136.744L198.732 69.3957C198.755 69.3733 198.781 69.3554 198.811 69.3433C198.84 69.3311 198.871 69.3248 198.903 69.3248C198.935 69.3248 198.966 69.3311 198.996 69.3433C199.025 69.3554 199.051 69.3733 199.074 69.3957C199.115 69.4432 199.137 69.5037 199.137 69.5664C199.137 69.6291 199.115 69.6896 199.074 69.7371L160.364 136.965C160.344 137.005 160.312 137.038 160.273 137.06C160.233 137.081 160.188 137.09 160.143 137.085Z" fill="#FCD561"/>
<path d="M163.337 136.804C163.319 136.813 163.298 136.818 163.277 136.818C163.256 136.818 163.236 136.813 163.217 136.804C163.176 136.757 163.153 136.696 163.153 136.634C163.153 136.571 163.176 136.51 163.217 136.463L199.857 73.0503C199.891 72.9935 199.945 72.9516 200.008 72.9329C200.072 72.9143 200.14 72.9204 200.199 72.9499C200.221 72.9723 200.239 72.9989 200.251 73.0282C200.264 73.0575 200.27 73.0889 200.27 73.1206C200.27 73.1523 200.264 73.1837 200.251 73.213C200.239 73.2423 200.221 73.2689 200.199 73.2912L163.558 136.684C163.535 136.721 163.502 136.751 163.463 136.772C163.425 136.793 163.381 136.804 163.337 136.804Z" fill="#FCD561"/>
<path d="M169.143 132.909H169.022C168.981 132.861 168.959 132.801 168.959 132.738C168.959 132.675 168.981 132.615 169.022 132.567L200.018 78.8936C200.04 78.8711 200.067 78.8533 200.096 78.8411C200.126 78.8289 200.157 78.8227 200.189 78.8227C200.221 78.8227 200.252 78.8289 200.281 78.8411C200.311 78.8533 200.337 78.8711 200.36 78.8936C200.416 78.9272 200.458 78.9812 200.477 79.0445C200.496 79.1078 200.49 79.1759 200.46 79.2349L169.464 132.909C169.418 132.945 169.362 132.964 169.304 132.964C169.245 132.964 169.189 132.945 169.143 132.909Z" fill="#FCD561"/>
<path d="M174.747 128.511H174.627C174.586 128.464 174.563 128.403 174.563 128.341C174.563 128.278 174.586 128.217 174.627 128.17L198.732 86.4638C198.766 86.407 198.82 86.365 198.883 86.3464C198.947 86.3277 199.015 86.3338 199.074 86.3633C199.115 86.4108 199.137 86.4713 199.137 86.534C199.137 86.5967 199.115 86.6573 199.074 86.7047L174.968 128.431C174.939 128.459 174.905 128.481 174.867 128.495C174.828 128.509 174.788 128.515 174.747 128.511Z" fill="#FCD561"/>
<path d="M196.884 59.7372L197.185 59.9179L195.177 63.5724L195.036 63.4721C194.092 62.9299 188.849 60.3396 181.095 64.456C173.743 68.3515 166.089 76.8454 158.315 89.7166C150.039 103.411 146.262 115.961 147.327 127.045C147.99 134.716 151.907 137.085 152.51 137.467H152.65C153.213 137.788 157.13 139.917 164.121 136.664C174.165 131.965 183.224 122.487 190.958 108.552C198.21 95.3993 201.745 84.4557 201.464 76.2028C201.123 66.5242 196 64.1548 195.177 63.5724L197.185 59.9179L197.487 60.0785C198.833 60.8617 203.955 64.456 204.337 74.2751C204.678 83.532 200.882 95.4193 193.027 109.636C188.968 117.256 183.818 124.244 177.74 130.379C176.294 131.784 174.828 133.089 173.341 134.274L168.721 134.455C168.178 134.937 165.025 137.607 160.686 141.563C159.126 142.26 157.429 142.597 155.722 142.548C154.014 142.499 152.34 142.067 150.822 141.282L150.501 141.081L149.858 140.74C148.467 139.861 147.289 138.684 146.406 137.296C145.524 135.907 144.961 134.34 144.756 132.708C144.414 129.766 144.414 126.794 144.756 123.853V117.547C145.037 115.72 145.419 113.853 145.901 111.965C148.183 103.636 151.661 95.6823 156.226 88.3512C164.623 74.4558 173.02 65.219 181.216 60.9018C189.873 56.3236 195.558 58.954 196.884 59.7372Z" fill="#9E4A9E"/>
<path d="M134.473 174.133L125.758 169.472L102.435 213.043L111.149 217.704L134.473 174.133Z" fill="#FCD561"/>
<path d="M9.16203 200.859L18.1012 195.297L15.1683 114.596L6.24927 120.158L9.16203 200.859Z" fill="#FFF6A7"/>
<path d="M29.1094 81.4437L20.1702 86.9858C11.1708 92.6082 5.80729 104.094 6.24923 120.158L15.1683 114.616C14.7465 98.5318 20.0899 87.0461 29.1094 81.4437Z" fill="#FFF6A7"/>
<path d="M56.4291 83.1305L65.3683 77.6486C50.0009 69.3957 35.7385 68.3716 25.1923 74.7972L16.2732 80.3594C26.7993 73.8535 41.0618 74.8575 56.4291 83.1305Z" fill="#FFF6A7"/>
<path d="M56.61 89.4355L65.5491 83.8734L65.3684 77.5683L56.4292 83.1305L56.61 89.4355Z" fill="#FFF6A7"/>
<path d="M56.4292 83.1305C41.0618 74.8575 26.7994 73.8535 16.2532 80.2791C5.70696 86.7047 0.182762 99.7969 0.624698 117.146L3.55754 197.847L9.14201 200.859L6.22924 120.158C5.34537 87.8091 27.9444 73.9739 56.5899 89.4355L56.4292 83.1305Z" fill="#FFC317"/>
<path d="M22.7416 135.238L111.008 80.7208L108.658 2.30844L20.3914 56.8256L22.7416 135.238Z" fill="#FCD561"/>
<path d="M22.7414 135.238L19.0854 133.13L16.7351 54.7172L20.3911 56.8256L22.7414 135.238Z" fill="#FFF6A7"/>
<path d="M20.3911 56.7453L16.7351 54.6369L105.002 0.200012L108.658 2.30845L20.3911 56.7453Z" fill="#FFFDEA"/>
<path d="M47.048 115.218L45.9431 78.4318L85.3156 54.0948L86.4204 90.9014L47.048 115.218ZM52.4717 81.9458L53.1346 103.893L79.8718 87.3673L79.2289 65.4199L52.4717 81.9458Z" fill="#FEBB00"/>
<path d="M75.7136 108.953L84.6528 103.391L84.7532 100.339L75.8141 105.901L75.7136 108.953Z" fill="#FFC317"/>
<path d="M75.8141 105.901L84.7533 100.339L75.2517 95.2387L66.3125 100.781L75.8141 105.901Z" fill="#FFDA0B"/>
<path d="M66.3125 100.781L66.4933 107.106L75.7137 108.953L75.8141 105.901L66.3125 100.781Z" fill="#FFDA0B"/>
<path d="M113.077 151.543C113.077 151.443 113.077 151.322 113.077 151.222C113.085 151.329 113.085 151.436 113.077 151.543Z" fill="#9E4A9E"/>
<path d="M113.057 151.302V151.603C113.057 151.764 112.816 151.603 112.696 151.603C112.439 151.39 112.216 151.14 112.033 150.86C112.616 151.402 112.897 151.543 113.057 151.302Z" fill="#9E4A9E"/>
<path d="M111.973 150.741L111.832 150.559C111.89 150.61 111.938 150.672 111.973 150.741Z" fill="#9E4A9E"/>
<path d="M115.609 135.238L115.488 135.8V135.419L115.609 135.238Z" fill="#9E4A9E"/>
<path d="M108.939 146.041L109.12 146.342C107.797 146.907 106.34 147.081 104.922 146.844H104.681C106.147 146.981 107.623 146.703 108.939 146.041Z" fill="#9E4A9E"/>
<path d="M112.475 142.587C112.595 143.049 112.595 143.049 112.475 143.109C112.354 143.17 112.214 143.511 112.153 143.611C111.459 144.699 110.498 145.59 109.361 146.202L109.18 145.88C110.558 145.103 111.697 143.964 112.475 142.587Z" fill="#9E4A9E"/>
<path d="M112.676 142.266C112.977 141.543 113.459 140.881 113.781 140.158C114.384 138.852 114.907 137.511 115.347 136.142V135.921C115.347 136.101 115.347 136.282 115.347 136.463C115.354 136.597 115.354 136.731 115.347 136.865C114.753 138.965 113.91 140.987 112.836 142.889C112.716 142.547 112.676 142.266 112.676 142.266Z" fill="#9E4A9E"/>
<path d="M112.133 127.989C111.953 128.23 111.953 128.23 110.948 129.877L110.828 129.214C110.828 129.214 110.828 129.214 110.828 129.114C110.828 129.013 110.828 128.993 110.828 128.933C110.828 128.873 111.671 127.588 111.671 127.588L112.033 127.829L112.133 127.989Z" fill="#9E4A9E"/>
<path d="M104.861 138.933L104.701 139.154C103.315 141.062 101.711 142.8 99.9198 144.334L99.6587 144.154C101.444 142.512 103.054 140.688 104.46 138.712L104.62 138.491L104.861 138.933Z" fill="#9E4A9E"/>
<path d="M110.466 130.66C108.457 133.792 106.75 136.383 105.263 138.391L105.022 137.929C106.669 135.64 108.216 133.25 110.305 129.897L110.466 129.636C110.466 129.837 110.466 130.037 110.607 130.238C110.611 130.391 110.562 130.54 110.466 130.66Z" fill="#9E4A9E"/>
<path d="M99.297 144.475L99.5582 144.656H99.4376C98.1706 145.737 96.6932 146.543 95.0986 147.025C96.6268 146.407 98.0447 145.546 99.297 144.475Z" fill="#9E4A9E"/>
<path d="M94.2752 139.495L94.1547 139.756C92.6079 143.129 91.5231 145.137 90.7598 146.523L90.5388 146.423C91.6437 144.294 92.5476 142.206 93.8935 139.435L94.014 139.174C94.1346 139.274 94.2752 139.374 94.2752 139.495Z" fill="#9E4A9E"/>
<path d="M98.8149 127.849L98.9957 127.447L99.3171 128.069C99.3171 128.19 95.4803 136.905 94.5763 138.852L94.3152 138.511L98.8149 127.849Z" fill="#9E4A9E"/>
<path d="M99.2771 126.845C99.6387 126.021 100.302 124.616 100.302 124.616H100.924L100.703 125.057L99.5985 127.467L99.2771 126.845Z" fill="#9E4A9E"/>
<path d="M90.2574 146.945V146.764H90.4583V146.925C89.8154 148.049 88.0879 150.941 87.8066 151.362C87.8669 151.443 89.3936 148.672 90.2574 146.945Z" fill="#9E4A9E"/>
<path d="M87.7667 131.282V130.841C88.1082 131.302 88.1082 131.302 88.0479 131.744C87.4654 135.76 87.0636 139.515 86.8226 143.431C86.3806 142.547 87.7667 131.403 87.7667 131.282Z" fill="#9E4A9E"/>
<path d="M86.8223 144.274C86.6675 146.889 86.6675 149.511 86.8223 152.125C86.5696 149.455 86.5293 146.77 86.7018 144.093V143.792L86.8223 143.933C86.8504 144.045 86.8504 144.162 86.8223 144.274Z" fill="#9E4A9E"/>
<path d="M88.3492 127.507V127.266L88.6304 127.106L88.8514 127.005C88.53 128.632 88.3492 129.816 88.2487 130.519L87.9072 130.057C87.9675 129.857 88.0679 129.073 88.3492 127.507Z" fill="#9E4A9E"/>
<path d="M82.845 134.354V134.174C82.8511 134.1 82.8511 134.026 82.845 133.953C82.845 133.953 82.845 133.852 82.845 133.792C82.845 133.732 82.845 134.114 82.845 134.234C83.086 135.559 83.2869 136.523 83.4275 137.186V136.945C83.1804 136.094 82.9858 135.229 82.845 134.354Z" fill="#9E4A9E"/>
<path d="M83.7489 138.35V138.551C83.7489 138.551 83.5481 137.808 83.4878 137.607C83.6068 137.843 83.6946 138.093 83.7489 138.35Z" fill="#9E4A9E"/>
<path d="M115.829 132.889C115.829 133.09 115.829 133.17 115.829 133.25C115.829 133.953 115.528 135.379 115.448 135.8C115.448 135.8 115.247 136.824 115.227 136.945C115.227 136.744 115.367 136.021 115.388 135.84C115.608 134.555 115.749 133.511 115.829 132.889Z" fill="#9E4A9E"/>
<path d="M110.607 130.258C110.607 130.057 110.607 129.857 110.466 129.656C110.245 128.592 110.004 127.648 109.763 126.523L110.265 126.764C111.413 131.872 112.218 137.051 112.676 142.266C112.686 142.406 112.686 142.547 112.676 142.688C112.985 145.662 113.106 148.654 113.037 151.643V152.005C113.037 152.005 113.037 151.382 113.037 151.282C112.887 144.213 112.074 137.175 110.607 130.258Z" fill="#9E4A9E"/>
<path d="M97.9109 124.676H98.0917C98.5136 125.439 112.153 150.941 112.153 151.001L111.973 150.74C106.268 142.567 102.35 133.371 97.469 124.636L97.9109 124.676Z" fill="#9E4A9E"/>
<path d="M86.24 128.612L86.6618 128.31C87.0837 128.913 88.1484 130.318 88.2689 130.519C90.6995 133.853 92.628 136.543 94.2953 138.551L94.5564 138.893C98.4736 143.792 100.844 145.619 104.6 146.744L104.882 146.844L104.4 146.744C102.682 146.276 101.054 145.53 99.5784 144.535L99.3173 144.354C95.7416 141.784 92.4472 137.206 86.24 128.612Z" fill="#9E4A9E"/>
<path d="M83.4075 136.945V137.186C84.2431 139.401 85.3713 141.494 86.7622 143.411C87.6681 144.728 88.9267 145.763 90.3938 146.399C91.861 147.035 93.4776 147.245 95.0586 147.005H95.38L94.9179 147.105C93.4532 147.447 91.922 147.37 90.4986 146.884H90.2977C88.8826 146.232 87.6736 145.204 86.8024 143.913L86.6819 143.772C85.3529 141.882 84.2979 139.813 83.5481 137.628C83.5481 137.628 83.287 136.704 83.2468 136.563L83.4075 136.945Z" fill="#9E4A9E"/>
<path d="M87.8669 151.443V151.322L87.6861 151.603C87.0634 152.487 86.8023 152.708 86.6817 152.406V152.005C86.6741 152.045 86.6741 152.086 86.6817 152.125C86.9228 152.366 87.204 152.286 87.8669 151.443Z" fill="#9E4A9E"/>
<path d="M83.8092 138.551C83.8092 138.25 83.6284 137.929 83.5481 137.607C83.5481 137.607 83.5481 137.868 83.5481 137.989C83.9298 139.636 84.0503 140.138 84.5927 142.246C84.673 142.246 84.0905 139.696 83.8092 138.551Z" fill="#DBDBDB"/>
<path d="M83.5482 137.607C83.3674 137.126 83.1866 136.603 82.9456 135.881C82.9456 135.76 82.9456 135.64 82.9456 135.519C83.0661 135.82 83.2268 136.242 83.3272 136.543L83.5482 137.607Z" fill="#DBDBDB"/>
<path d="M86.7822 152.406C86.7822 152.406 86.7822 152.406 86.7822 152.286V151.824C86.7708 151.884 86.7708 151.945 86.7822 152.005V152.406Z" fill="#DBDBDB"/>
<path d="M86.9229 153.591C86.9131 153.464 86.9131 153.337 86.9229 153.21C86.969 153.669 87.0428 154.125 87.1439 154.575V154.796C87.0635 154.515 87.0033 154.153 86.9229 153.591Z" fill="#DBDBDB"/>
<path d="M84.7133 142.366L84.4521 141.403L84.8539 142.989C84.8539 142.989 84.7334 142.487 84.7133 142.366Z" fill="#DBDBDB"/>
<path d="M86.7422 152.125V151.945C86.7518 151.777 86.7518 151.61 86.7422 151.443V151.844V152.306V152.125Z" fill="#DBDBDB"/>
<path d="M113.118 151.402V150.941V151.141C113.118 151.282 113.118 151.423 113.118 151.543C113.118 151.663 113.097 151.463 113.118 151.402Z" fill="#DBDBDB"/>
<path d="M115.809 134.836V134.696C115.8 134.576 115.8 134.455 115.809 134.334L115.528 135.238C115.528 135.419 115.408 135.881 115.408 135.881V136.162C115.528 135.881 115.649 135.439 115.809 134.836Z" fill="#DBDBDB"/>
<path d="M114.604 140.8C114.926 139.053 115.046 138.35 115.267 136.945C115.267 136.563 115.408 136.182 115.488 135.8C115.167 137.808 114.906 139.234 114.765 139.917L114.604 140.8Z" fill="#DBDBDB"/>
<path d="M113.037 152.507C113.037 152.346 113.037 151.784 113.037 151.643C113.078 151.945 113.037 152.507 113.037 152.507Z" fill="#DBDBDB"/>
<path d="M113.098 151.021V150.519C113.098 150.78 113.098 150.78 113.098 151.402C113.118 151.262 113.098 151.141 113.098 151.021Z" fill="#DBDBDB"/>
<path d="M114.484 141.483L114.765 139.917L114.484 141.483Z" fill="#DBDBDB"/>
<path d="M112.897 153.953C112.897 153.431 112.897 153.149 113.037 152.567V152.306C113.037 152.607 113.037 153.029 112.917 153.732C112.901 153.804 112.894 153.878 112.897 153.953Z" fill="#DBDBDB"/>
<path d="M88.5298 143.712C88.5184 143.558 88.5184 143.404 88.5298 143.25C88.5184 143.404 88.5184 143.558 88.5298 143.712Z" fill="#FCD561"/>
<path d="M87.1238 154.796C87.2578 155.496 87.4947 156.173 87.8269 156.804C87.5518 156.373 87.3356 155.907 87.184 155.418C87.1961 155.184 87.1961 154.95 87.184 154.716L87.1238 154.796Z" fill="#FCD561"/>
<path d="M87.1238 154.796V154.575C87.2789 155.467 87.5918 156.323 88.0478 157.105L87.8469 156.824C87.506 156.188 87.2622 155.504 87.1238 154.796Z" fill="#FCD561"/>
<path d="M84.6328 142.065C84.8337 142.828 85.3158 144.656 85.9787 146.744C86.3071 147.644 86.5821 148.562 86.8023 149.495C85.9185 146.925 85.2556 144.535 84.7935 142.989L84.5525 142.025L84.6328 142.065Z" fill="#FCD561"/>
<path d="M87.0635 150.278C87.0635 150.037 87.0635 149.997 87.0635 149.876C87.0635 149.756 87.0635 149.876 87.184 150.077C88.0813 152.673 89.3318 155.132 90.9003 157.386H90.7195C89.1636 155.206 87.9321 152.812 87.0635 150.278Z" fill="#FCD561"/>
<path d="M88.4897 144.073V143.872L88.6304 144.435L88.4897 144.073Z" fill="#FCD561"/>
<path d="M86.6416 140.64L87.0635 140.921L88.2687 143.069L88.1482 143.451C87.7464 142.728 86.6617 140.7 86.6416 140.64Z" fill="#FCD561"/>
<path d="M88.4897 144.073C87.8641 145.938 87.3674 147.843 87.0032 149.776C86.8704 150.487 86.7765 151.204 86.7219 151.924C86.7219 151.924 86.7219 151.443 86.7219 151.422C86.8875 148.693 87.3936 145.995 88.2285 143.39C88.2285 143.39 88.3892 142.909 88.4093 142.808C88.4294 142.708 88.6303 143.752 88.6303 143.812L88.4897 144.073Z" fill="#FCD561"/>
<path d="M88.0278 157.105C88.3801 157.482 88.8574 157.719 89.3711 157.771C89.8847 157.822 90.3996 157.686 90.8201 157.386L90.9406 157.708C90.521 157.964 90.0273 158.072 89.539 158.013C89.0507 157.955 88.5962 157.734 88.2488 157.386L88.0881 157.185L88.0278 157.105Z" fill="#FCD561"/>
<path d="M90.9807 157.687C91.0221 157.687 91.0629 157.698 91.0984 157.719C91.1339 157.74 91.1627 157.771 91.1815 157.808C92.1894 159.228 93.5838 160.329 95.1991 160.981H95.0786C93.4146 160.347 91.9702 159.245 90.9204 157.808L90.9807 157.687Z" fill="#FCD561"/>
<path d="M100.302 159.635L100.141 159.535L100.382 159.334L100.543 159.455C101.848 160.421 103.465 160.872 105.083 160.72H104.962C104.152 160.866 103.321 160.846 102.52 160.66C101.718 160.473 100.963 160.124 100.302 159.635Z" fill="#FCD561"/>
<path d="M94.9781 154.414L94.8174 154.194C94.8847 154.095 94.9585 154.001 95.0384 153.912L95.1991 154.133C96.5511 156.04 98.1754 157.738 100.02 159.173L99.7992 159.354C97.9403 157.974 96.3129 156.306 94.9781 154.414Z" fill="#FCD561"/>
<path d="M88.8515 144.093C90.614 147.331 92.5659 150.462 94.6971 153.471L94.4962 153.772C92.3626 150.755 90.4171 147.61 88.6707 144.354V143.913V143.692L88.8515 144.093Z" fill="#FCD561"/>
<path d="M105.022 154.053L104.882 153.892L105.143 153.491L105.283 153.671C106.302 155.053 107.62 156.186 109.14 156.985L108.939 157.266C107.387 156.537 106.04 155.433 105.022 154.053Z" fill="#FCD561"/>
<path d="M97.8105 143.913C98.0037 143.884 98.1999 143.884 98.3931 143.913V144.053C99.277 145.318 99.277 145.338 99.5582 145.76L99.277 146.242L97.8105 143.913Z" fill="#FCD561"/>
<path d="M99.8795 146.905L99.6987 146.643L99.98 146.162L100.161 146.423C101.617 148.758 103.192 151.017 104.881 153.19L104.64 153.611C102.92 151.473 101.33 149.234 99.8795 146.905Z" fill="#FCD561"/>
<path d="M109.421 157.085C109.866 157.291 110.368 157.341 110.845 157.228C111.322 157.116 111.747 156.846 112.053 156.463L111.852 156.724C111.535 157.085 111.114 157.34 110.647 157.455C110.18 157.57 109.689 157.539 109.241 157.366H109.12L109.321 157.085H109.421Z" fill="#FCD561"/>
<path d="M112.897 148.571C113.034 149.233 113.121 149.904 113.158 150.579V151.081C113.103 150.403 112.989 149.731 112.816 149.073C112.806 149.013 112.806 148.952 112.816 148.892L112.937 148.451L112.897 148.571Z" fill="#FCD561"/>
<path d="M111.209 142.467C111.755 143.987 112.218 145.535 112.595 147.105C112.836 148.17 112.836 148.17 112.595 148.732C112.14 146.825 111.549 144.953 110.828 143.129L110.707 142.828C110.707 142.828 110.928 142.366 111.028 142.186L111.209 142.467Z" fill="#FCD561"/>
<path d="M110.165 141.443V141.282L110.667 141.001L111.029 141.784L110.727 142.447L110.165 141.443Z" fill="#FCD561"/>
<path d="M88.8112 141.905L89.3536 142.146L88.6304 143.752V143.973C88.6304 143.973 88.4295 143.109 88.4094 142.989L88.8112 141.905Z" fill="#FCD561"/>
<path d="M99.3774 146.141C99.3774 145.981 100.442 144.415 100.884 143.732H101.507C93.6925 156.222 93.4715 156.683 91.061 157.788H90.9404V157.426C92.4618 156.611 93.7116 155.368 94.5362 153.852L94.7371 153.551C95.7415 151.945 97.1677 149.655 99.3774 146.141Z" fill="#FCD561"/>
<path d="M104.641 153.611L104.882 153.19C106.982 149.707 108.906 146.122 110.647 142.447C110.647 142.226 111.43 140.84 111.651 140.439L112.013 140.198C111.772 140.84 110.928 142.628 110.848 142.808C105.926 153.17 100.985 161.804 95.3398 161.121H94.918H95.2193C98.6343 161.222 101.688 158.21 104.641 153.611Z" fill="#FCD561"/>
<path d="M114.664 140.499C114.664 140.499 114.504 141.342 114.484 141.483C114.062 143.672 113.539 146.081 112.876 148.451L112.756 148.892C111.189 154.334 108.738 159.414 105.123 160.72L104.701 160.82H104.861H104.982C110.345 158.611 112.997 148.832 114.664 140.499Z" fill="#FCD561"/>
<path d="M112.917 153.671V153.953C112.829 154.646 112.64 155.323 112.354 155.961L112.234 156.202C112.599 155.401 112.829 154.546 112.917 153.671Z" fill="#FCD561"/>
<path d="M116.372 132.768V132.648L115.89 134.656C115.881 134.603 115.881 134.548 115.89 134.495V134.395C116.111 133.531 116.211 133.09 116.372 132.768Z" fill="#9E4A9E"/>
<path d="M120.269 117.688C118.953 118.699 117.777 119.881 116.774 121.202C116.743 120.976 116.743 120.746 116.774 120.519C116.774 120.379 116.995 120.278 117.075 120.178C118.052 119.036 119.165 118.018 120.389 117.146C120.418 117.312 120.418 117.482 120.389 117.648L120.269 117.688Z" fill="#9E4A9E"/>
<path d="M116.372 121.664C114.883 123.624 113.54 125.691 112.354 127.849V127.989L111.912 127.688C113.265 125.36 114.81 123.151 116.533 121.082C116.554 121.295 116.554 121.511 116.533 121.724L116.372 121.664Z" fill="#9E4A9E"/>
<path d="M120.389 117.568C120.389 117.387 120.389 117.226 120.389 117.046C120.522 116.96 120.674 116.912 120.831 116.905L120.651 117.387C120.554 117.433 120.466 117.494 120.389 117.568Z" fill="#9E4A9E"/>
<path d="M120.189 107.769C118.176 107.401 116.099 107.734 114.303 108.712C114.235 108.533 114.154 108.358 114.062 108.19C115.918 107.236 118.044 106.946 120.088 107.367H120.229L120.349 107.769H120.189Z" fill="#9E4A9E"/>
<path d="M105.645 115.198L105.846 114.937L106.147 115.54L105.946 115.821C103.94 118.471 102.28 121.366 101.005 124.435V124.616H100.302C101.647 121.249 103.444 118.08 105.645 115.198Z" fill="#9E4A9E"/>
<path d="M113.7 108.973C110.923 110.47 108.482 112.52 106.529 114.997L106.228 114.395C108.177 111.891 110.644 109.836 113.459 108.371H113.66C113.66 108.532 113.801 108.712 113.881 108.893L113.7 108.973Z" fill="#9E4A9E"/>
<path d="M122.78 110.6C122.789 110.707 122.789 110.814 122.78 110.921C122.753 110.249 122.527 109.6 122.13 109.056C121.732 108.513 121.183 108.099 120.55 107.869L120.43 107.467C121.082 107.707 121.652 108.13 122.069 108.686C122.486 109.242 122.733 109.907 122.78 110.6Z" fill="#9E4A9E"/>
<path d="M92.0653 115.519L91.6636 115.078C93.1351 111.456 95.298 108.155 98.0315 105.359L98.2725 105.118L98.6944 105.479L98.4533 105.72C95.7267 108.556 93.5595 111.881 92.0653 115.519Z" fill="#9E4A9E"/>
<path d="M115.287 101.303C113.861 100.648 112.316 100.293 110.747 100.259C109.879 100.219 109.01 100.28 108.156 100.439H107.694L107.332 100.218C109.799 99.699 112.366 99.9514 114.684 100.941L115.167 101.182L115.408 101.303H115.287Z" fill="#9E4A9E"/>
<path d="M106.529 100.419H106.79L107.192 100.68H106.93C104.002 101.504 101.315 103.019 99.0962 105.098L98.6743 104.757C100.886 102.674 103.588 101.182 106.529 100.419Z" fill="#9E4A9E"/>
<path d="M91.6637 116.503C90.4165 119.712 89.5142 123.044 88.9719 126.443V127.005L88.7108 127.126L88.4697 127.266C88.9917 123.427 89.9556 119.66 91.3423 116.042L91.4829 115.7L91.8847 116.142L91.6637 116.503Z" fill="#9E4A9E"/>
<path d="M81.238 122.427V122.025C81.3405 122.109 81.42 122.218 81.4692 122.341C81.5184 122.463 81.5356 122.597 81.5193 122.728C81.6938 126.423 82.1369 130.101 82.8451 133.732C82.8555 133.805 82.8555 133.88 82.8451 133.953C82.8533 133.999 82.8533 134.047 82.8451 134.093C81.9859 130.256 81.4484 126.354 81.238 122.427Z" fill="#9E4A9E"/>
<path d="M92.9292 99.1141C92.0769 99.4951 91.2573 99.945 90.4784 100.459C90.0164 100.781 90.0164 100.781 89.5745 100.721C91.8306 99.1108 94.4695 98.1208 97.228 97.8491H97.69H97.9712C96.233 97.9944 94.53 98.4217 92.9292 99.1141Z" fill="#9E4A9E"/>
<path d="M83.5682 109.194L83.1865 109.054C84.4021 105.98 86.3873 103.269 88.9518 101.182L89.1727 101.002H89.6348L89.3937 101.182C86.808 103.32 84.8042 106.076 83.5682 109.194Z" fill="#9E4A9E"/>
<path d="M81.4388 115.801C81.662 113.743 82.1342 111.72 82.845 109.777V109.516L83.2266 109.676C83.2349 109.763 83.2349 109.85 83.2266 109.937C81.9385 113.66 81.3461 117.587 81.479 121.523C81.2178 121.303 80.9165 120.379 81.4388 115.801Z" fill="#9E4A9E"/>
<path d="M76.7984 109.295C76.5275 110.615 76.4262 111.965 76.4971 113.311C76.6297 114.914 76.8442 116.509 77.1399 118.09C76.2892 115.28 76.0968 112.312 76.5775 109.415V109.255H76.8185L76.7984 109.295Z" fill="#9E4A9E"/>
<path d="M77.3609 118.933C77.8029 120.68 78.3252 122.166 78.5261 122.809L78.6466 123.11L78.3653 122.427C77.9342 121.263 77.5653 120.076 77.2605 118.873V118.531H77.3609C77.3744 118.665 77.3744 118.8 77.3609 118.933Z" fill="#9E4A9E"/>
<path d="M81.0774 102.528C79.0299 103.985 77.5641 106.118 76.9392 108.552L76.7183 108.652C77.2498 106.321 78.5961 104.256 80.5149 102.829L80.9769 102.508L81.218 102.367L81.0774 102.528Z" fill="#9E4A9E"/>
<path d="M74.9103 114.917V114.817C74.7559 114.38 74.6416 113.929 74.5688 113.471V113.09C74.5824 113.003 74.5824 112.915 74.5688 112.829C74.6045 113.535 74.719 114.236 74.9103 114.917Z" fill="#9E4A9E"/>
<path d="M122.8 111.122C122.81 111.222 122.81 111.323 122.8 111.423C122.781 112.056 122.68 112.684 122.499 113.291V113.411C122.687 112.662 122.788 111.894 122.8 111.122Z" fill="#9E4A9E"/>
<path d="M120.389 117.648C120.399 117.474 120.399 117.3 120.389 117.126C121.093 114.046 121.093 110.848 120.389 107.769L120.269 107.367C119.459 104.924 117.835 102.834 115.669 101.443L116.312 101.805C118.328 103.15 119.818 105.151 120.53 107.467L120.651 107.869C121.543 112.107 121.23 116.51 119.747 120.58C119.747 120.58 119.566 121.142 119.526 121.242C119.787 119.997 120.088 118.793 120.389 117.648Z" fill="#9E4A9E"/>
<path d="M115.87 133.25C115.879 133.163 115.879 133.076 115.87 132.989C116.332 129.219 116.5 125.42 116.372 121.624C116.372 121.403 116.372 121.162 116.372 120.941C116.276 116.806 115.425 112.723 113.861 108.893C113.861 108.712 113.72 108.532 113.64 108.371C112.382 105.306 110.263 102.67 107.54 100.782C104.817 98.8937 101.605 97.8332 98.2927 97.7286H99.1565C102.059 97.8678 104.881 98.7232 107.372 100.219L107.734 100.439C113.459 104.255 118.662 113.05 115.87 133.25Z" fill="#9E4A9E"/>
<path d="M81.3584 102.347L81.9209 102.026H82.0414C90.5185 98.0098 105.343 102.99 110.165 126.845L109.662 126.604C104.902 103.512 89.936 97.7286 81.3584 102.347Z" fill="#9E4A9E"/>
<path d="M76.8388 109.134H76.5978C76.1105 109.326 75.6751 109.63 75.3263 110.02C74.9774 110.411 74.7249 110.877 74.589 111.383C74.5057 111.732 74.4653 112.089 74.4684 112.447V112.307C74.4684 112.307 74.4684 112.186 74.4684 112.146V111.945C75.0912 106.403 84.7535 106.504 92.9092 116.383C94.9782 118.898 96.7322 121.656 98.1321 124.596H97.5094C96.0057 121.501 94.101 118.619 91.8446 116.021L91.4428 115.58C89.225 113.052 86.483 111.038 83.4076 109.676L83.0259 109.516C81.0734 108.662 78.8815 108.527 76.8388 109.134Z" fill="#9E4A9E"/>
<path d="M77.0597 118.029C78.712 118.938 80.1883 120.135 81.4188 121.564C83.3807 123.643 85.1428 125.902 86.6819 128.31L86.26 128.612C83.9636 124.702 80.9111 121.289 77.2807 118.572H77.1803C77.0118 118.483 76.8275 118.428 76.6379 118.411L76.437 117.969C76.646 117.928 76.8626 117.949 77.0597 118.029Z" fill="#9E4A9E"/>
<path d="M82.8651 135.519V135.881L82.3228 134.073C82.5236 134.435 82.6642 134.917 82.8651 135.519Z" fill="#9E4A9E"/>
<path d="M116.573 130.72C116.673 130.399 116.753 130.077 116.834 129.776V129.857C116.688 131.14 116.44 132.409 116.091 133.652V133.491C116.372 132.608 116.372 131.664 116.573 130.72Z" fill="#DBDBDB"/>
<path d="M120.731 117.688C120.731 117.568 120.731 117.467 120.872 117.347L121.012 117.106L120.851 117.507L120.731 117.688Z" fill="#DBDBDB"/>
<path d="M121.233 116.544L121.595 115.72L121.334 116.303C121.292 116.379 121.258 116.46 121.233 116.544Z" fill="#DBDBDB"/>
<path d="M117.738 126.503C118.461 124.495 118.742 123.572 118.963 122.889L119.144 122.307C118.702 123.672 118.581 123.973 117.959 125.7C117.878 125.961 117.798 126.222 117.738 126.503Z" fill="#DBDBDB"/>
<path d="M116.071 133.712L116.372 132.447C116.372 132.447 116.151 133.431 116.051 133.812L116.071 133.712Z" fill="#DBDBDB"/>
<path d="M120.852 117.487L121.012 117.106C121.012 117.106 121.012 116.945 121.012 116.905L120.832 117.387C120.832 117.387 120.872 117.407 120.852 117.487Z" fill="#DBDBDB"/>
<path d="M121.555 115.801C121.913 115.013 122.215 114.201 122.459 113.371V113.25C122.249 114.125 121.96 114.979 121.595 115.801H121.555Z" fill="#DBDBDB"/>
<path d="M118.963 122.889C119.104 122.407 119.305 121.744 119.445 121.242C119.586 120.74 119.606 120.801 119.666 120.58C119.526 121.102 118.963 122.889 118.963 122.889Z" fill="#DBDBDB"/>
<path d="M78.6467 123.11C78.6467 122.889 78.4659 122.648 78.3654 122.427C78.265 122.206 78.7069 123.371 79.2091 124.676L78.6467 123.11Z" fill="#DBDBDB"/>
<path d="M74.9102 114.917V114.817V114.937C75.2022 115.751 75.5652 116.537 75.9949 117.287L75.8744 117.086C75.5387 116.435 75.2435 115.765 74.9905 115.078L74.9102 114.917Z" fill="#DBDBDB"/>
<path d="M76.6378 118.371C76.6233 118.402 76.6158 118.437 76.6158 118.471C76.6158 118.506 76.6233 118.54 76.6378 118.572L76.4771 118.25C76.4771 118.07 76.4771 118.029 76.4771 117.929L76.6378 118.371Z" fill="#DBDBDB"/>
<path d="M82.7445 135.238L82.3628 133.933C82.3628 133.933 82.644 134.836 82.7445 135.238Z" fill="#DBDBDB"/>
<path d="M79.3496 125.017C79.2291 124.736 79.0885 124.355 78.988 124.074C79.2492 124.716 79.671 125.841 80.4344 127.547L80.7357 128.351L80.5951 128.049C80.354 127.467 79.8719 126.363 79.3496 125.017Z" fill="#DBDBDB"/>
<path d="M75.9749 117.287V117.186L76.3766 117.909C76.3766 117.909 76.0351 117.427 75.9749 117.287Z" fill="#DBDBDB"/>
<path d="M76.6981 118.692V118.813L76.5374 118.511L76.3767 118.25L76.5374 118.572L76.6981 118.692Z" fill="#DBDBDB"/>
<path d="M82.6443 134.877C82.3782 133.994 82.1702 133.095 82.0215 132.186L81.7202 131.262C81.8632 132.168 82.0782 133.061 82.363 133.933L82.7246 135.158L82.6443 134.877Z" fill="#DBDBDB"/>
<path d="M107.895 125.58L107.473 125.8L107.895 125.58Z" fill="#FCD561"/>
<path d="M82.2222 131.142C82.7244 132.186 82.7244 132.186 87.1438 140.881L86.963 140.78L86.742 140.64C86.742 140.64 82.845 132.728 82.2222 131.403C82.1532 131.29 82.0992 131.168 82.0615 131.041V130.82L82.2222 131.142Z" fill="#FCD561"/>
<path d="M81.6599 130.419C80.997 128.973 80.7359 128.411 80.7359 128.411L80.4346 127.608L80.5752 127.909C80.9368 128.692 81.3184 129.455 81.6599 130.238V130.479V130.419Z" fill="#FCD561"/>
<path d="M83.9499 127.005C83.9499 127.106 83.9499 127.146 83.7892 127.166C81.3866 124.756 79.1894 122.15 77.2204 119.375L77.0798 119.134C77.1803 119.237 77.268 119.351 77.341 119.475C79.325 122.169 81.5361 124.688 83.9499 127.005Z" fill="#FCD561"/>
<path d="M76.3163 117.909L76.1958 117.688V117.849C76.4168 118.23 76.5574 118.451 76.7984 118.833V118.712C76.6188 118.456 76.4576 118.188 76.3163 117.909Z" fill="#FCD561"/>
<path d="M82.0615 122.387C81.9621 122.352 81.8676 122.305 81.7803 122.246H81.6396L82.0615 122.387Z" fill="#FCD561"/>
<path d="M76.7784 118.813L76.6177 118.511L76.8186 118.712V118.833C78.0207 119.991 79.3718 120.983 80.8362 121.784L81.5593 122.206C79.7976 121.332 78.1843 120.187 76.7784 118.813Z" fill="#FCD561"/>
<path d="M84.2312 127.567C83.5747 127.815 83.0123 128.262 82.6231 128.845C82.2339 129.429 82.0376 130.12 82.0617 130.82V131.041C82.0617 131.389 82.0617 131.771 82.0617 132.186C82.0617 132.045 81.7804 131.302 81.7603 131.262C81.741 130.955 81.741 130.646 81.7603 130.339V130.178C81.7232 129.476 81.9343 128.784 82.3567 128.222C82.7791 127.66 83.3858 127.265 84.0705 127.106C84.0705 127.106 84.2312 127.567 84.2312 127.567Z" fill="#FCD561"/>
<path d="M84.2312 127.407C90.2576 133.571 90.2576 133.571 92.2664 135.7L92.0052 136.001C90.1772 133.893 88.6103 132.246 85.8382 129.375C85.2338 128.855 84.682 128.276 84.191 127.648L84.0303 127.166L84.2312 127.407Z" fill="#FCD561"/>
<path d="M92.8889 136.403C94.939 138.741 96.7808 141.254 98.393 143.913H97.7703L97.6096 143.652C96.132 141.255 94.459 138.985 92.6077 136.865L92.3867 136.583L92.6479 136.262L92.8889 136.403Z" fill="#FCD561"/>
<path d="M107.212 135.499C108.716 137.072 109.866 138.948 110.586 141.001L110.084 141.282C109.366 139.319 108.267 137.518 106.85 135.981C106.928 135.784 107.036 135.602 107.171 135.439L107.212 135.499Z" fill="#FCD561"/>
<path d="M90.2576 126.302H90.6392L90.8602 126.403C94.5966 127.929 96.8866 128.853 99.3775 130.098L98.9758 130.359C96.3442 128.973 93.8734 127.909 90.4785 126.343L90.2576 126.302Z" fill="#FCD561"/>
<path d="M100.121 130.399C102.563 131.593 104.806 133.157 106.77 135.037L106.388 135.499C104.426 133.554 102.177 131.922 99.7189 130.66L99.4578 130.519L99.8595 130.278L100.121 130.399Z" fill="#FCD561"/>
<path d="M82.0615 122.387L82.5637 122.648C84.7935 123.792 86.963 124.656 90.2173 126.061C87.3981 125.073 84.6695 123.844 82.0615 122.387Z" fill="#FCD561"/>
<path d="M108.517 125.58C110.492 125.504 112.468 125.665 114.403 126.061L114.022 126.483C112.052 125.993 110.025 125.77 107.995 125.821H107.754L108.196 125.6L108.517 125.58Z" fill="#FCD561"/>
<path d="M116.854 128.993C116.854 129.154 116.854 129.395 116.854 129.776C116.854 130.158 116.613 130.66 116.593 130.72V130.6C116.624 130.272 116.624 129.943 116.593 129.616C116.572 129.523 116.572 129.427 116.593 129.335L116.774 128.853L116.854 128.993Z" fill="#FCD561"/>
<path d="M99.2168 125.841H98.9355C98.9355 125.841 106.75 125.6 107.895 125.6L107.473 125.821C106.047 125.841 106.047 125.841 99.2168 125.841Z" fill="#FCD561"/>
<path d="M116.372 127.347C116.592 127.736 116.729 128.167 116.774 128.612L116.512 129.234C116.469 128.653 116.255 128.098 115.898 127.637C115.54 127.177 115.056 126.831 114.504 126.644L114.865 126.182C115.485 126.389 116.016 126.8 116.372 127.347Z" fill="#FCD561"/>
<path d="M116.251 121.021L116.553 120.841C118.008 119.97 119.356 118.932 120.57 117.748C120.574 117.815 120.574 117.882 120.57 117.949C120.389 118.25 120.209 118.411 119.365 119.054C118.521 119.696 117.497 120.359 116.352 121.062L116.151 121.182L116.251 121.021Z" fill="#FCD561"/>
<path d="M120.691 117.568C120.761 117.502 120.822 117.428 120.872 117.347L120.731 117.688L120.49 117.969C120.528 117.865 120.575 117.764 120.631 117.668L120.691 117.568Z" fill="#FCD561"/>
<path d="M90.7195 126.262H90.3379C88.1981 126.245 86.067 126.536 84.0101 127.126L83.8293 126.644C86.0189 126.162 86.0189 126.162 98.132 125.8H99.056L90.7195 126.262Z" fill="#FCD561"/>
<path d="M92.2662 135.7C94.2644 133.587 96.5581 131.774 99.076 130.318L99.4778 130.057C101.989 128.592 103.495 127.768 107.513 125.8L107.935 125.58C112.113 123.471 113.379 122.768 115.548 121.564L116.251 121.142L116.05 121.262C113.76 122.708 112.394 123.491 108.337 125.66L107.895 125.881C103.033 128.471 102.049 129.053 99.8594 130.359L99.4577 130.6C96.9281 132.135 94.6344 134.029 92.6479 136.222L92.3867 136.543C91.0689 138.235 90.0436 140.135 89.3534 142.166L88.811 141.925C89.4864 139.792 90.5637 137.809 91.9849 136.081L92.2662 135.7Z" fill="#FCD561"/>
<path d="M121.334 116.303V116.544L120.731 117.668L120.55 117.989C118.922 120.877 117.047 123.618 114.946 126.182L114.584 126.644C112.193 129.616 109.662 132.467 107.272 135.439L106.89 135.921C104.929 138.362 103.163 140.954 101.607 143.672H100.984C106.167 134.094 115.046 127.286 120.53 117.889V117.688C120.811 117.287 121.072 116.805 121.334 116.303Z" fill="#FCD561"/>
<path d="M117.959 125.7C117.959 125.8 117.738 126.443 117.738 126.503L116.653 129.335C115.95 131.061 114.946 133.35 112.093 140.057L111.651 140.358C114.584 133.772 116.733 128.812 116.814 128.612C117.215 127.648 117.517 126.885 117.959 125.7Z" fill="#FCD561"/>
<path d="M99.0359 128.551C92.7377 128.842 86.4668 127.551 80.796 124.796C75.1513 121.845 71.9171 117.588 71.7163 112.748C71.5154 107.909 74.2875 103.592 79.5104 100.259C89.5544 93.8331 105.765 93.1906 116.432 98.7527C122.077 101.704 125.311 105.961 125.512 110.801C125.713 115.64 122.941 119.957 117.718 123.29C112.066 126.665 105.619 128.48 99.0359 128.551ZM81.6397 120.881C91.4025 125.981 107.393 125.339 116.553 119.495C120.57 116.985 122.579 113.953 122.438 110.961C122.298 107.969 119.807 104.937 115.588 102.729C105.826 97.6282 89.8356 98.2708 80.6755 104.114C76.6579 106.624 74.6491 109.656 74.7897 112.648C74.9303 115.64 77.4213 118.672 81.6397 120.881Z" fill="#FEBB00"/>
<path d="M172.377 194.755C172.473 195.663 172.327 196.579 171.953 197.412C171.578 198.244 170.99 198.963 170.248 199.494L167.335 201.161L166.471 199.655C165.952 199.482 165.454 199.253 164.985 198.972C162.838 197.576 161.049 195.694 159.765 193.479C158.481 191.264 157.737 188.777 157.592 186.221C157.585 185.689 157.632 185.157 157.733 184.635L156.849 183.129L159.722 181.482C160.566 181.093 161.499 180.936 162.424 181.028C163.349 181.12 164.233 181.457 164.985 182.004C167.135 183.397 168.926 185.278 170.211 187.494C171.495 189.709 172.238 192.198 172.377 194.755Z" fill="#9E4A9E"/>
<path d="M169.484 196.442C169.484 201.121 166.17 203.008 162.072 200.659C159.924 199.258 158.136 197.373 156.852 195.155C155.568 192.936 154.824 190.447 154.679 187.888C154.679 183.209 157.994 181.322 162.072 183.671C164.225 185.067 166.019 186.951 167.307 189.17C168.595 191.389 169.341 193.88 169.484 196.442Z" fill="#9E4A9E"/>
<path d="M165.547 194.615C165.596 195.084 165.52 195.558 165.325 195.988C165.131 196.419 164.827 196.79 164.442 197.064L162.936 197.928L162.474 197.145C162.21 197.052 161.955 196.938 161.71 196.803C160.594 196.078 159.665 195.101 158.999 193.949C158.332 192.798 157.946 191.505 157.874 190.177C157.851 189.903 157.851 189.628 157.874 189.354L157.432 188.57L158.918 187.707C159.357 187.507 159.842 187.427 160.322 187.476C160.803 187.526 161.261 187.702 161.65 187.988C162.78 188.704 163.722 189.678 164.4 190.83C165.078 191.983 165.471 193.28 165.547 194.615Z" fill="#FCD561"/>
<path d="M164.04 195.478C164.04 197.908 162.313 198.892 160.204 197.667C159.085 196.943 158.153 195.966 157.483 194.814C156.812 193.663 156.423 192.37 156.347 191.04C156.347 188.611 158.074 187.627 160.204 188.852C161.317 189.579 162.245 190.557 162.911 191.708C163.578 192.859 163.964 194.15 164.04 195.478Z" fill="#FCD561"/>
<path d="M163.378 195.096C163.378 197.104 161.951 197.908 160.204 196.904C159.283 196.301 158.517 195.491 157.966 194.539C157.415 193.587 157.094 192.52 157.03 191.422C157.03 189.414 158.456 188.611 160.204 189.615C161.124 190.218 161.89 191.027 162.441 191.979C162.992 192.931 163.313 193.999 163.378 195.096Z" fill="#B1D0FE"/>
<path d="M138.067 202.586L140.316 206.442L160.666 195.88C160.824 195.768 160.95 195.616 161.031 195.44C161.112 195.263 161.146 195.069 161.128 194.876C161.092 194.326 160.93 193.792 160.655 193.315C160.379 192.839 159.998 192.431 159.541 192.125C159.377 192.014 159.188 191.947 158.991 191.929C158.794 191.912 158.596 191.944 158.416 192.024L138.067 202.586Z" fill="#FCD561"/>
<path d="M145.318 209.353C145.414 210.261 145.268 211.178 144.894 212.01C144.52 212.843 143.931 213.561 143.189 214.092L140.276 215.759L139.392 214.253C138.881 214.076 138.39 213.847 137.926 213.57C135.758 212.188 133.948 210.312 132.646 208.095C131.344 205.879 130.585 203.385 130.433 200.819C130.436 200.288 130.483 199.757 130.574 199.233L129.71 197.727L132.583 196.08C133.427 195.691 134.36 195.535 135.285 195.626C136.21 195.718 137.094 196.055 137.846 196.602C140.008 197.989 141.811 199.867 143.11 202.083C144.409 204.299 145.165 206.79 145.318 209.353Z" fill="#9E4A9E"/>
<path d="M142.486 211.04C142.486 215.719 139.171 217.606 135.074 215.257C132.926 213.857 131.138 211.971 129.854 209.753C128.57 207.534 127.825 205.045 127.681 202.486C127.681 197.807 130.996 195.92 135.074 198.269C137.227 199.665 139.021 201.549 140.309 203.768C141.597 205.987 142.343 208.479 142.486 211.04Z" fill="#9E4A9E"/>
<path d="M138.468 209.213C138.517 209.682 138.441 210.156 138.247 210.587C138.053 211.017 137.748 211.388 137.364 211.662L135.857 212.526L135.395 211.743C135.131 211.651 134.876 211.536 134.632 211.401C133.513 210.678 132.581 209.7 131.911 208.549C131.24 207.398 130.851 206.105 130.775 204.775C130.752 204.501 130.752 204.226 130.775 203.952L130.333 203.169L131.819 202.305C132.258 202.105 132.743 202.025 133.223 202.074C133.704 202.124 134.162 202.301 134.551 202.586C135.681 203.303 136.625 204.278 137.306 205.429C137.987 206.581 138.385 207.877 138.468 209.213Z" fill="#FCD561"/>
<path d="M136.982 210.177C136.982 212.606 135.254 213.59 133.145 212.365C132.027 211.642 131.094 210.664 130.424 209.513C129.754 208.362 129.365 207.069 129.288 205.739C129.288 203.309 131.016 202.325 133.145 203.55C134.259 204.277 135.186 205.256 135.853 206.407C136.519 207.558 136.906 208.849 136.982 210.177Z" fill="#FCD561"/>
<path d="M136.299 209.695C136.299 211.703 134.893 212.506 133.145 211.502C132.222 210.903 131.453 210.094 130.901 209.141C130.35 208.188 130.031 207.119 129.971 206.02C129.971 204.012 131.377 203.209 133.145 204.233C134.065 204.83 134.83 205.636 135.378 206.585C135.926 207.535 136.241 208.6 136.299 209.695Z" fill="#B1D0FE"/>
<path d="M68.1603 168.792C68.0664 169.699 68.2139 170.615 68.5878 171.447C68.9617 172.279 69.5488 172.998 70.2896 173.531L73.2024 175.217L74.0863 173.711C74.5957 173.523 75.0866 173.287 75.5527 173.008C77.7058 171.617 79.4996 169.737 80.7877 167.521C82.0759 165.305 82.822 162.817 82.9652 160.258C82.9618 159.726 82.9148 159.195 82.8246 158.671L83.6883 157.185L80.8358 155.519C79.9879 155.13 79.0519 154.974 78.1236 155.065C77.1953 155.157 76.308 155.494 75.5527 156.041C73.4055 157.437 71.6174 159.319 70.3331 161.534C69.0488 163.749 68.3045 166.235 68.1603 168.792Z" fill="#9E4A9E"/>
<path d="M71.1335 170.478C71.1335 175.157 74.4481 177.065 78.5259 174.695C80.6738 173.308 82.4642 171.434 83.7521 169.226C85.04 167.017 85.789 164.536 85.9384 161.985C85.9384 157.286 82.6239 155.398 78.5259 157.748C76.3836 159.144 74.5988 161.023 73.3149 163.234C72.031 165.445 71.2839 167.926 71.1335 170.478Z" fill="#9E4A9E"/>
<path d="M75.0506 168.651C74.9996 169.121 75.0752 169.596 75.2694 170.026C75.4637 170.457 75.7696 170.828 76.1555 171.101L77.6821 171.984L78.1241 171.201C78.3945 171.102 78.6565 170.981 78.9075 170.84C80.0213 170.113 80.9488 169.134 81.6152 167.983C82.2816 166.832 82.6684 165.541 82.7443 164.213C82.7761 163.94 82.7761 163.664 82.7443 163.39L83.2063 162.607L81.7198 161.764C81.2829 161.558 80.7987 161.474 80.3181 161.52C79.8374 161.566 79.378 161.74 78.9879 162.025C77.8543 162.74 76.9064 163.713 76.222 164.865C75.5376 166.017 75.1361 167.314 75.0506 168.651Z" fill="#FCD561"/>
<path d="M76.5571 169.515C76.5571 171.964 78.2847 172.928 80.414 171.703C81.5289 170.977 82.4572 169.999 83.1238 168.848C83.7904 167.697 84.1764 166.405 84.2508 165.077C84.2508 162.647 82.5233 161.663 80.414 162.888C79.2954 163.612 78.3632 164.589 77.693 165.74C77.0229 166.892 76.6338 168.185 76.5571 169.515Z" fill="#FCD561"/>
<path d="M77.2402 169.133C77.2402 171.141 78.6665 171.944 80.4141 170.94C81.3335 170.343 82.0986 169.537 82.6467 168.588C83.1948 167.638 83.5105 166.573 83.568 165.478C83.568 163.47 82.1618 162.667 80.4141 163.671C79.4932 164.269 78.726 165.074 78.1746 166.023C77.6232 166.972 77.3031 168.037 77.2402 169.133Z" fill="#B1D0FE"/>
<path d="M102.531 176.643L100.301 180.498L79.9519 170.017C79.7934 169.9 79.6675 169.744 79.5866 169.565C79.5057 169.386 79.4724 169.189 79.4899 168.993C79.5181 168.444 79.6768 167.91 79.9528 167.435C80.2288 166.96 80.6142 166.558 81.0769 166.262C81.2239 166.115 81.4093 166.013 81.6118 165.966C81.8143 165.92 82.0258 165.932 82.2219 166.001L102.531 176.643Z" fill="#FCD561"/>
<path d="M95.2793 183.41C95.1944 184.31 95.3484 185.216 95.7258 186.038C96.1032 186.859 96.6906 187.566 97.4287 188.089L100.321 189.775L101.205 188.269C101.716 188.076 102.212 187.848 102.692 187.587C104.839 186.186 106.627 184.301 107.912 182.082C109.196 179.864 109.94 177.375 110.084 174.816C110.091 174.284 110.044 173.752 109.944 173.229L110.807 171.743L107.955 170.077C107.11 169.688 106.178 169.531 105.252 169.623C104.327 169.714 103.443 170.052 102.692 170.599C100.531 171.996 98.732 173.886 97.4434 176.113C96.1549 178.34 95.4132 180.841 95.2793 183.41Z" fill="#9E4A9E"/>
<path d="M98.2925 185.077C98.2925 189.775 101.607 191.663 105.685 189.293C107.838 187.902 109.632 186.022 110.92 183.806C112.208 181.59 112.954 179.101 113.097 176.543C113.097 171.844 109.783 169.956 105.685 172.326C103.538 173.722 101.75 175.603 100.465 177.819C99.181 180.034 98.4366 182.52 98.2925 185.077Z" fill="#9E4A9E"/>
<path d="M102.109 183.249C102.056 183.721 102.133 184.199 102.331 184.631C102.529 185.062 102.841 185.432 103.234 185.699L104.741 186.583L105.183 185.799C105.458 185.713 105.721 185.591 105.966 185.438C107.08 184.711 108.007 183.732 108.674 182.581C109.34 181.431 109.727 180.139 109.803 178.812C109.835 178.538 109.835 178.262 109.803 177.988L110.265 177.205L108.778 176.362C108.34 176.163 107.857 176.082 107.378 176.128C106.898 176.173 106.439 176.344 106.046 176.623C104.913 177.338 103.965 178.311 103.281 179.463C102.596 180.615 102.195 181.912 102.109 183.249Z" fill="#FCD561"/>
<path d="M103.636 184.073C103.636 186.522 105.343 187.506 107.473 186.261C108.588 185.541 109.518 184.567 110.184 183.419C110.851 182.27 111.237 180.981 111.31 179.655C111.31 177.205 109.602 176.221 107.473 177.446C106.357 178.171 105.428 179.149 104.761 180.3C104.094 181.452 103.709 182.744 103.636 184.073Z" fill="#FCD561"/>
<path d="M104.319 183.731C104.319 185.739 105.745 186.542 107.493 185.538C108.413 184.937 109.178 184.127 109.725 183.175C110.273 182.222 110.589 181.154 110.647 180.057C110.647 178.049 109.22 177.245 107.473 178.249C106.553 178.851 105.788 179.661 105.24 180.613C104.692 181.566 104.376 182.634 104.319 183.731Z" fill="#B1D0FE"/>
<path d="M187.443 188.972C182.562 186.04 182.742 181.382 187.804 178.551C190.617 177.147 193.723 176.432 196.866 176.464C200.009 176.495 203.1 177.272 205.884 178.731C210.745 181.663 210.584 186.322 205.502 189.153C202.693 190.556 199.591 191.271 196.451 191.24C193.311 191.208 190.223 190.431 187.443 188.972Z" fill="#FFC317"/>
<path d="M203.714 145.499C199.072 143.792 193.974 143.792 189.331 145.499C194.554 143.491 198.491 143.491 201.384 144.575L203.714 145.499Z" fill="#FFC317"/>
<path d="M209.319 183.812C209.232 182.733 208.863 181.696 208.25 180.805C207.636 179.914 206.8 179.199 205.824 178.731C203.04 177.272 199.949 176.495 196.806 176.464C193.663 176.432 190.557 177.147 187.744 178.551C186.654 178.994 185.705 179.726 184.997 180.666C184.29 181.607 183.851 182.722 183.727 183.892V151.663C183.827 150.505 184.241 149.396 184.924 148.455C185.607 147.514 186.534 146.777 187.604 146.322C190.415 144.916 193.521 144.199 196.665 144.23C199.809 144.262 202.9 145.041 205.683 146.503C206.667 146.967 207.512 147.68 208.136 148.571C208.76 149.462 209.14 150.5 209.239 151.583C209.299 161.242 209.279 174.153 209.319 183.812Z" fill="#FFC317"/>
<path d="M189.331 145.539C191.199 144.796 190.818 144.977 190.476 145.178C186.981 147.186 186.86 150.338 190.215 152.346L187.343 156.744C182.481 153.812 182.642 149.133 187.724 146.322C188.242 146.025 188.779 145.764 189.331 145.539Z" fill="#B1D0FE"/>
<path d="M201.444 144.615L203.714 145.499C204.411 145.777 205.083 146.113 205.723 146.503C210.604 149.415 210.444 154.093 205.361 156.924C202.549 158.328 199.443 159.043 196.3 159.011C193.157 158.98 190.066 158.203 187.282 156.744L190.155 152.346C192.062 153.34 194.177 153.869 196.327 153.89C198.478 153.911 200.603 153.423 202.529 152.467C206.004 150.459 206.125 147.306 202.79 145.298C202.359 145.037 201.909 144.809 201.444 144.615Z" fill="#B1D0FE"/>
<path d="M205.281 148.792C205.209 148.05 204.947 147.34 204.522 146.728C204.096 146.117 203.521 145.624 202.85 145.298C200.943 144.304 198.828 143.775 196.678 143.754C194.527 143.733 192.402 144.221 190.476 145.178C189.734 145.487 189.089 145.992 188.611 146.639C188.134 147.287 187.841 148.052 187.764 148.852V144.294C187.841 143.496 188.132 142.734 188.605 142.087C189.079 141.441 189.718 140.933 190.456 140.619C192.382 139.663 194.507 139.175 196.658 139.196C198.808 139.217 200.923 139.746 202.83 140.74C203.506 141.062 204.086 141.553 204.515 142.165C204.945 142.777 205.209 143.49 205.281 144.234C205.281 145.599 205.261 147.427 205.281 148.792Z" fill="#FFC317"/>
<path d="M209.319 183.812C209.218 184.97 208.804 186.079 208.121 187.02C207.438 187.961 206.512 188.698 205.442 189.153C202.632 190.564 199.525 191.284 196.38 191.252C193.236 191.221 190.144 190.439 187.363 188.972C186.372 188.512 185.52 187.801 184.889 186.91C184.258 186.019 183.872 184.978 183.767 183.892V151.663C183.85 152.743 184.217 153.781 184.831 154.674C185.445 155.566 186.283 156.28 187.262 156.744C190.048 158.198 193.138 158.973 196.28 159.004C199.422 159.036 202.527 158.323 205.341 156.924C206.425 156.482 207.37 155.756 208.076 154.824C208.783 153.891 209.226 152.786 209.359 151.623L209.319 183.812Z" fill="#FCD561"/>
<path d="M209.238 141.423C209.142 140.342 208.765 139.305 208.145 138.414C207.525 137.523 206.683 136.809 205.703 136.342C202.919 134.883 199.828 134.106 196.685 134.075C193.542 134.043 190.436 134.759 187.624 136.162C186.532 136.604 185.582 137.334 184.874 138.275C184.166 139.216 183.728 140.332 183.606 141.503V129.997C183.716 128.839 184.138 127.732 184.828 126.795C185.518 125.858 186.45 125.125 187.523 124.676C190.334 123.27 193.439 122.551 196.582 122.579C199.726 122.607 202.817 123.381 205.603 124.837C206.581 125.305 207.422 126.019 208.042 126.91C208.661 127.8 209.039 128.837 209.138 129.917C209.218 133.371 209.238 137.889 209.238 141.423Z" fill="#FFC317"/>
<path d="M189.351 147.567C188.658 147.298 187.987 146.975 187.343 146.603L190.215 147.788C190.666 148.045 191.136 148.266 191.621 148.451C189.492 147.647 189.412 147.607 189.351 147.567Z" fill="#FFC317"/>
<path d="M201.464 148.431L202.569 147.909C206.065 145.901 206.185 142.748 202.83 140.74C200.923 139.746 198.808 139.217 196.658 139.196C194.507 139.175 192.382 139.663 190.456 140.619C186.961 142.627 186.861 145.76 190.195 147.788L187.323 146.603C182.441 143.672 182.622 138.993 187.684 136.162C190.497 134.759 193.602 134.043 196.746 134.075C199.889 134.106 202.979 134.883 205.763 136.342C210.625 139.274 210.464 143.933 205.382 146.764C204.864 147.054 204.327 147.309 203.775 147.527L201.464 148.431Z" fill="#FFC317"/>
<path d="M202.569 147.929C198.708 149.119 194.585 149.168 190.697 148.069L190.195 147.808C189.519 147.49 188.938 147 188.512 146.387C188.085 145.773 187.827 145.059 187.764 144.314V148.872C187.833 149.618 188.095 150.332 188.525 150.945C188.955 151.558 189.538 152.048 190.215 152.366C192.124 153.355 194.238 153.882 196.388 153.903C198.538 153.924 200.662 153.439 202.589 152.487C203.328 152.175 203.969 151.668 204.443 151.021C204.917 150.374 205.206 149.611 205.281 148.812V144.254C205.2 145.053 204.906 145.816 204.429 146.463C203.952 147.109 203.31 147.616 202.569 147.929Z" fill="#9E4A9E"/>
<path d="M205.321 135.258C202.513 136.671 199.408 137.395 196.265 137.37C193.121 137.346 190.028 136.574 187.242 135.118C182.3 132.186 182.521 127.447 187.584 124.676C189.551 123.679 191.693 123.072 193.891 122.889C194.661 122.703 195.45 122.609 196.242 122.608C196.884 122.608 197.246 122.608 197.668 122.608C200.49 122.596 203.264 123.338 205.703 124.756C210.524 127.849 210.404 132.467 205.321 135.258Z" fill="#B1D0FE"/>
<path d="M202.991 126.403C202.946 125.847 202.755 125.314 202.437 124.855C202.12 124.397 201.687 124.03 201.183 123.792C199.76 123.049 198.181 122.652 196.575 122.634C194.969 122.617 193.382 122.979 191.943 123.692C191.391 123.928 190.914 124.308 190.56 124.792C190.207 125.276 189.99 125.846 189.934 126.443V121.825C189.99 121.228 190.207 120.657 190.56 120.173C190.914 119.689 191.391 119.309 191.943 119.074C193.382 118.361 194.969 117.998 196.575 118.016C198.181 118.033 199.76 118.43 201.183 119.174C201.691 119.409 202.128 119.775 202.449 120.233C202.77 120.692 202.964 121.227 203.011 121.784C203.011 123.09 202.991 124.977 202.991 126.403Z" fill="#FFC317"/>
<path d="M189.914 126.443V121.825C189.965 122.381 190.161 122.914 190.481 123.372C190.802 123.83 191.236 124.196 191.742 124.435V129.154C191.222 128.907 190.779 128.525 190.457 128.048C190.136 127.571 189.948 127.017 189.914 126.443Z" fill="#FEBB00"/>
<path d="M209.218 141.403C209.131 142.57 208.72 143.689 208.031 144.636C207.343 145.583 206.405 146.32 205.321 146.764C202.511 148.173 199.406 148.894 196.262 148.866C193.119 148.838 190.027 148.062 187.242 146.603C186.261 146.139 185.416 145.429 184.79 144.542C184.163 143.656 183.776 142.623 183.667 141.543V129.957C183.75 131.057 184.125 132.116 184.753 133.023C185.382 133.93 186.241 134.653 187.242 135.118C190.028 136.574 193.121 137.346 196.265 137.37C199.409 137.395 202.513 136.671 205.321 135.258C206.397 134.803 207.328 134.063 208.015 133.118C208.701 132.174 209.117 131.06 209.218 129.897V141.403Z" fill="#FCD561"/>
<path d="M202.991 121.684V126.403C202.935 127 202.718 127.57 202.365 128.054C202.011 128.538 201.534 128.918 200.982 129.154C199.548 129.882 197.961 130.262 196.352 130.262C194.743 130.262 193.156 129.882 191.722 129.154V124.435C193.145 125.179 194.724 125.576 196.33 125.593C197.936 125.611 199.523 125.248 200.962 124.535C201.532 124.295 202.023 123.901 202.381 123.397C202.739 122.894 202.95 122.301 202.991 121.684Z" fill="#FEBB00"/>
<path d="M191.742 124.335C189.231 122.829 189.311 120.439 191.923 118.973C193.362 118.26 194.949 117.898 196.555 117.916C198.161 117.933 199.74 118.33 201.163 119.074C203.674 120.58 203.594 122.969 200.982 124.435C199.543 125.148 197.956 125.51 196.35 125.493C194.744 125.475 193.165 125.078 191.742 124.335Z" fill="#FFC317"/>
<path d="M191.842 209.815H191.702L185.675 206.321H185.816L191.842 209.815Z" fill="#FCD561"/>
<path d="M184.51 216.462L183.024 215.357L176.977 211.883L178.464 212.968L184.51 216.462Z" fill="#FFDA0B"/>
<path d="M183.024 215.377L191.883 202.305C192.649 200.954 193.74 199.815 195.057 198.992C195.517 198.659 196.057 198.455 196.623 198.402C197.188 198.349 197.757 198.449 198.271 198.691L192.245 195.197C191.729 194.958 191.159 194.862 190.594 194.918C190.028 194.975 189.488 195.182 189.031 195.518C187.715 196.337 186.629 197.477 185.877 198.831L176.998 211.883L183.024 215.377Z" fill="#9E4A9E"/>
<path d="M185.213 201.161L189.874 203.851L191.22 201.843C191.293 201.712 191.373 201.584 191.461 201.462C191.849 200.837 192.308 200.257 192.827 199.735L188.207 197.064C187.551 197.69 186.99 198.407 186.539 199.193L185.213 201.161Z" fill="#FFDA0B"/>
<path d="M184.51 216.462L191.702 209.735H191.842C192.358 209.974 192.928 210.07 193.493 210.013C194.059 209.957 194.598 209.75 195.056 209.414C196.379 208.551 197.479 207.388 198.268 206.021C199.057 204.653 199.512 203.119 199.596 201.542C199.709 200.975 199.642 200.387 199.404 199.86C199.165 199.333 198.768 198.894 198.268 198.604C197.767 198.314 197.188 198.187 196.613 198.243C196.037 198.298 195.493 198.532 195.056 198.912C193.739 199.735 192.648 200.874 191.882 202.225L183.024 215.297L184.51 216.462Z" fill="#FEBB00"/>
<path d="M188.066 199.494L191.561 201.502C191.95 200.877 192.408 200.297 192.927 199.775L188.307 197.105L188.066 199.494Z" fill="#FFC317"/>
<path d="M192.344 206.161C192.318 206.479 192.36 206.8 192.467 207.101C192.575 207.402 192.745 207.677 192.967 207.907L193.208 208.088C193.533 208.225 193.887 208.279 194.238 208.244C194.589 208.209 194.926 208.086 195.217 207.887C196.083 207.325 196.803 206.567 197.32 205.673C197.837 204.78 198.135 203.777 198.19 202.747C198.215 202.427 198.171 202.105 198.06 201.803C197.949 201.502 197.774 201.228 197.547 201L197.326 200.839C196.991 200.673 196.616 200.604 196.243 200.639C195.87 200.675 195.515 200.814 195.217 201.04C194.372 201.611 193.673 202.371 193.174 203.26C192.676 204.149 192.391 205.142 192.344 206.161Z" fill="#FBC2C2"/>
<path d="M192.344 206.161C192.318 206.479 192.36 206.8 192.467 207.101C192.575 207.402 192.745 207.677 192.967 207.907C193.3 208.026 193.656 208.062 194.006 208.014C194.356 207.965 194.689 207.832 194.976 207.626C195.854 207.055 196.585 206.284 197.109 205.377C197.632 204.47 197.934 203.452 197.989 202.406C198.011 201.914 197.893 201.427 197.648 201L197.427 200.839C197.091 200.673 196.716 200.604 196.343 200.639C195.971 200.675 195.615 200.814 195.317 201.04C194.454 201.6 193.735 202.356 193.219 203.245C192.702 204.135 192.403 205.134 192.344 206.161Z" fill="#9E4A9E"/>
<path d="M141.261 74.1948C143.912 72.6688 145.56 69.3756 145.56 64.697C145.284 59.6039 143.811 54.6475 141.26 50.2304C138.708 45.8133 135.15 42.0602 130.875 39.2757C126.858 36.9264 123.141 36.7055 120.49 38.2516L126.878 34.5569C129.529 33.0108 133.205 33.2316 137.263 35.581C141.538 38.3654 145.096 42.1186 147.648 46.5357C150.199 50.9528 151.672 55.9092 151.948 61.0023C151.948 65.701 150.3 69.0343 147.649 70.5202L141.261 74.1948Z" fill="#FCD561"/>
<path d="M141.261 74.1948C138.589 75.741 134.933 75.5201 130.875 73.1707C126.6 70.3863 123.042 66.6331 120.491 62.216C117.939 57.7989 116.466 52.8425 116.191 47.7494C116.191 43.0708 117.818 39.7175 120.49 38.2516C123.161 36.7858 126.817 36.9264 130.875 39.2757C135.15 42.0602 138.708 45.8133 141.26 50.2304C143.811 54.6475 145.284 59.6039 145.56 64.697C145.56 69.3756 143.912 72.6687 141.261 74.1948Z" fill="#9E4A9E"/>
<path d="M143.511 63.8134C143.511 67.6688 142.225 70.5402 139.915 71.8454C138.949 72.3941 137.852 72.6717 136.741 72.6487C134.747 72.5745 132.808 71.979 131.116 70.9218L130.534 70.5604C126.945 68.0756 123.971 64.8056 121.837 60.9989C119.703 57.1923 118.466 52.9494 118.22 48.5928C118.22 44.7375 119.505 41.866 121.815 40.5608C122.784 40.0167 123.879 39.7395 124.989 39.7576C126.983 39.8318 128.922 40.4272 130.614 41.4845C131.224 41.8328 131.814 42.215 132.382 42.6291C135.64 45.1635 138.318 48.3648 140.238 52.0185C142.157 55.6721 143.273 59.6936 143.511 63.8134Z" fill="#FCD561"/>
<path d="M143.511 63.8134C143.511 67.6688 142.245 70.5402 139.915 71.8454C138.945 72.3851 137.851 72.662 136.741 72.6487C135.077 72.6056 133.446 72.1723 131.98 71.3836L131.116 70.9218C130.915 70.8132 130.72 70.6925 130.534 70.5603C127.29 68.0488 124.619 64.8744 122.7 61.249C120.781 57.6235 119.657 53.6305 119.405 49.5366C119.405 45.6611 120.671 42.8098 123.001 41.5046C123.967 40.9559 125.064 40.6784 126.175 40.7014C128.159 40.7748 130.091 41.363 131.779 42.4082L132.382 42.7696L132.964 43.2314C136.044 45.753 138.569 48.8822 140.384 52.4236C142.198 55.9649 143.263 59.8423 143.511 63.8134Z" fill="#FCDC79"/>
<path d="M143.511 63.8134C143.511 67.6688 142.245 70.5402 139.915 71.8454C138.945 72.3851 137.851 72.662 136.741 72.6487C135.077 72.6056 133.446 72.1723 131.98 71.3836C128.881 68.8482 126.341 65.6973 124.522 62.1303C122.704 58.5634 121.645 54.6579 121.414 50.6611C121.414 46.7856 122.699 43.9142 125.01 42.6291C125.978 42.085 127.073 41.8078 128.183 41.8259C129.854 41.8688 131.491 42.3021 132.964 43.0909C136.06 45.6283 138.596 48.7799 140.411 52.3468C142.227 55.9137 143.282 59.8181 143.511 63.8134Z" fill="#FCEAB2"/>
<path d="M130.092 32.5087C130.115 32.7812 130.212 33.0424 130.371 33.265C130.53 33.4875 130.746 33.6632 130.996 33.7738C131.681 34.1197 132.438 34.2999 133.205 34.2999C133.973 34.2999 134.73 34.1197 135.415 33.7738C135.665 33.6632 135.881 33.4875 136.04 33.265C136.199 33.0424 136.296 32.7812 136.319 32.5087V36.6854C136.294 36.9573 136.196 37.2175 136.038 37.4398C135.879 37.662 135.664 37.8382 135.415 37.9505C134.73 38.2964 133.973 38.4765 133.205 38.4765C132.438 38.4765 131.681 38.2964 130.996 37.9505C130.747 37.8382 130.532 37.662 130.373 37.4398C130.214 37.2175 130.117 36.9573 130.092 36.6854V32.5087Z" fill="#FCD561"/>
<path d="M130.092 32.5088C130.115 32.2363 130.212 31.9751 130.371 31.7526C130.53 31.53 130.746 31.3543 130.996 31.2438C131.681 30.8978 132.438 30.7176 133.205 30.7176C133.973 30.7176 134.73 30.8978 135.415 31.2438C135.675 31.3379 135.9 31.5098 136.059 31.7361C136.218 31.9625 136.303 32.2323 136.303 32.5088C136.303 32.7853 136.218 33.0551 136.059 33.2814C135.9 33.5078 135.675 33.6797 135.415 33.7738C134.73 34.1197 133.973 34.2999 133.205 34.2999C132.438 34.2999 131.681 34.1197 130.996 33.7738C130.746 33.6633 130.53 33.4875 130.371 33.265C130.212 33.0425 130.115 32.7812 130.092 32.5088Z" fill="#FCD561"/>
<path d="M137.444 28.2719V33.9545C137.437 34.2698 137.339 34.5765 137.163 34.838C137.009 35.0494 136.826 35.2386 136.62 35.4003C136.491 35.5098 136.349 35.6042 136.198 35.6814L135.937 35.822L135.395 36.0629L134.712 36.2436L134.15 36.344H133.487H132.924H132.241L131.699 36.2436L131.016 36.0629L130.473 35.822L130.212 35.6814C130.061 35.6042 129.92 35.5098 129.79 35.4003C129.58 35.2438 129.397 35.0539 129.248 34.838C129.072 34.5765 128.974 34.2698 128.967 33.9545V28.2719C128.974 28.5872 129.072 28.8939 129.248 29.1554C129.401 29.3734 129.584 29.5694 129.79 29.7377L130.212 29.9987L130.473 30.1393L131.016 30.3803L131.699 30.561L132.241 30.6614H132.924H133.487H134.15L134.712 30.561L135.395 30.3803L135.937 30.1393L136.198 29.9987C136.349 29.9215 136.491 29.8272 136.62 29.7176C136.831 29.5612 137.014 29.3713 137.163 29.1554C137.339 28.8939 137.437 28.5872 137.444 28.2719Z" fill="#FCD561"/>
<path d="M129.79 29.7377V35.4806C129.58 35.3242 129.397 35.1342 129.248 34.9184V29.2357C129.407 29.4254 129.589 29.5941 129.79 29.7377Z" fill="#9E4A9E"/>
<path d="M131.016 30.3803V36.0629L130.473 35.822V30.1393L131.016 30.3803Z" fill="#9E4A9E"/>
<path d="M132.241 30.6614V36.344L131.699 36.2436V30.561L132.241 30.6614Z" fill="#9E4A9E"/>
<path d="M133.487 30.7216V36.4043H132.924V30.7216H133.487Z" fill="#9E4A9E"/>
<path d="M134.712 30.561V36.2436L134.149 36.344V30.6614L134.712 30.561Z" fill="#9E4A9E"/>
<path d="M135.937 30.1393V35.822L135.395 36.0629V30.3803L135.937 30.1393Z" fill="#9E4A9E"/>
<path d="M137.163 29.1554V34.838C137.009 35.0494 136.826 35.2386 136.62 35.4002V29.7176C136.831 29.5612 137.014 29.3713 137.163 29.1554Z" fill="#9E4A9E"/>
<path d="M128.967 28.2719C129.004 27.9001 129.139 27.5447 129.358 27.2416C129.577 26.9385 129.871 26.6982 130.212 26.545C131.143 26.0626 132.177 25.8109 133.225 25.8109C134.274 25.8109 135.308 26.0626 136.239 26.545C136.58 26.6982 136.874 26.9385 137.093 27.2416C137.312 27.5447 137.446 27.9001 137.484 28.2719C137.459 28.6475 137.329 29.0085 137.109 29.3139C136.889 29.6192 136.587 29.8565 136.239 29.9987C135.308 30.4811 134.274 30.7329 133.225 30.7329C132.177 30.7329 131.143 30.4811 130.212 29.9987C129.864 29.8565 129.562 29.6192 129.342 29.3139C129.122 29.0085 128.992 28.6475 128.967 28.2719Z" fill="#FCD561"/>
<path d="M129.389 54.657C129.526 54.5756 129.682 54.5327 129.841 54.5327C130 54.5327 130.156 54.5756 130.293 54.657C130.67 54.8981 130.984 55.2266 131.208 55.6145C131.432 56.0024 131.559 56.4385 131.578 56.8859C131.595 57.0427 131.571 57.2012 131.507 57.3456C131.444 57.4901 131.344 57.6154 131.217 57.7092C131.076 57.7902 130.917 57.8329 130.755 57.8329C130.593 57.8329 130.433 57.7902 130.293 57.7092C129.919 57.4643 129.607 57.135 129.384 56.7479C129.161 56.3607 129.032 55.9265 129.007 55.4802C128.988 55.3211 129.014 55.1599 129.081 55.0145C129.148 54.8691 129.255 54.7453 129.389 54.657Z" fill="#FCD561"/>
<path d="M129.75 55.902L130.293 42.9302L130.875 56.2232L129.75 55.902Z" fill="#FCD561"/>
<path d="M142.687 44.858L142.426 45.0989L142.687 44.858Z" fill="#FCD561"/>
<path d="M143.611 42.5889L141.462 44.5969C141.176 44.7284 140.856 44.7608 140.55 44.6889C140.244 44.617 139.972 44.4449 139.775 44.2C139.579 43.9552 139.47 43.6517 139.466 43.3379C139.462 43.0241 139.564 42.718 139.754 42.4684L141.903 40.4604L143.611 42.5889Z" fill="#9E4A9E"/>
<path d="M143.631 40.8219C143.766 40.9292 143.875 41.0655 143.95 41.2207C144.025 41.376 144.063 41.5461 144.063 41.7185C144.063 41.8908 144.024 42.0608 143.949 42.216C143.874 42.3711 143.765 42.5073 143.63 42.6144C143.495 42.7215 143.337 42.7967 143.169 42.8344C143.001 42.8721 142.826 42.8715 142.658 42.8323C142.49 42.7932 142.334 42.7167 142.199 42.6085C142.065 42.5003 141.957 42.3632 141.883 42.2074C141.654 41.9745 141.525 41.6608 141.525 41.3339C141.525 41.0071 141.654 40.6934 141.883 40.4605C142.163 40.2777 142.504 40.2131 142.832 40.2808C143.159 40.3485 143.447 40.5431 143.631 40.8219Z" fill="#FFFDEA"/>
<path d="M147.166 40.4404L143.812 43.6732C143.365 43.9064 142.851 43.9768 142.358 43.8723C141.865 43.7678 141.423 43.4949 141.11 43.1005C140.796 42.7062 140.629 42.2149 140.639 41.7112C140.648 41.2074 140.832 40.7227 141.16 40.34L144.515 37.1272L147.166 40.4404Z" fill="#FCD561"/>
<path d="M147.187 37.7095C147.339 38.0075 147.403 38.3427 147.372 38.6758C147.341 39.009 147.216 39.3267 147.012 39.5917C146.808 39.8567 146.532 40.0582 146.218 40.1728C145.903 40.2875 145.562 40.3105 145.235 40.2392C144.908 40.1679 144.608 40.0052 144.37 39.7701C144.132 39.535 143.965 39.2372 143.89 38.9112C143.814 38.5852 143.833 38.2444 143.944 37.9286C144.054 37.6128 144.252 37.3349 144.515 37.1272C144.951 36.8692 145.47 36.7858 145.965 36.8938C146.461 37.0018 146.897 37.2932 147.187 37.7095Z" fill="#B1D0FE"/>
<path d="M126.757 41.9665C125.682 41.9248 124.617 42.1993 123.696 42.7561C122.775 43.3128 122.037 44.1274 121.575 45.0989C120.108 47.5286 120.932 54.6771 120.912 53.894C120.892 53.1109 120.309 48.6531 122.238 45.862C123.472 44.2778 125.008 42.9538 126.757 41.9665Z" fill="white"/>
<path d="M78.8272 185.458C78.8211 191.746 77.0897 197.912 73.8213 203.285C70.5529 208.658 65.8728 213.032 60.2903 215.931C54.7079 218.83 48.4369 220.143 42.16 219.726C35.883 219.31 29.8405 217.181 24.6901 213.57C22.8011 212.259 21.0511 210.759 19.4672 209.092C14.8913 204.292 11.813 198.263 10.6084 191.743C9.39848 185.284 10.0647 178.614 12.5282 172.522C14.9917 166.43 19.1493 161.171 24.5093 157.366C30.3285 153.243 37.2838 151.026 44.4165 151.021C45.22 151.021 46.0436 151.021 46.8069 151.021C51.7949 151.364 56.6481 152.79 61.0292 155.198C61.3507 155.378 61.6721 155.559 61.9734 155.76C67.9626 159.305 72.7332 164.584 75.6533 170.9C77.7752 175.458 78.8592 180.431 78.8272 185.458Z" fill="#F0F7FF"/>
<path d="M71.4148 179.534C71.4153 185.605 69.8085 191.568 66.7576 196.817C63.7067 202.066 59.3204 206.415 54.0441 209.421C48.7679 212.427 42.7897 213.984 36.7168 213.933C30.6438 213.883 24.6925 212.226 19.4672 209.132C14.8913 204.332 11.813 198.304 10.6084 191.783C9.39848 185.324 10.0647 178.654 12.5282 172.562C14.9917 166.47 19.1493 161.211 24.5093 157.406C30.3285 153.283 37.2838 151.066 44.4165 151.061C45.22 151.061 46.0436 151.061 46.8069 151.061C51.7948 151.405 56.6481 152.83 61.0292 155.238C61.3507 155.418 61.6721 155.599 61.9734 155.8C68.0428 162.18 71.4235 170.65 71.4148 179.454V179.534Z" fill="#F0F7FF"/>
<path d="M25.7949 175.92C27.1896 173.518 28.7608 171.222 30.4955 169.053C32.5043 166.764 35.4573 163.711 35.4573 163.711C35.4573 163.711 40.9212 165.358 42.9501 165.88C45.2816 166.606 47.5746 167.451 49.8202 168.41L49.318 183.269L34.0109 188.37L25.7949 175.92Z" fill="#121E51"/>
<path d="M75.6533 171.021L72.8409 173.37L61.2703 163.711L58.478 155.318H61.0292C67.4444 158.872 72.565 164.371 75.6533 171.021Z" fill="#121E51"/>
<path d="M46.807 151.141C45.6419 151.483 44.316 151.864 43.0907 152.266C40.0839 153.421 37.152 154.762 34.3122 156.282L29.7322 156.523C27.9608 156.637 26.2084 156.953 24.5093 157.467C30.3188 153.324 37.2805 151.105 44.4165 151.121C45.22 151.061 46.0637 151.101 46.807 151.141Z" fill="#121E51"/>
<path d="M16.1326 177.567C16.1326 177.567 14.7264 182.526 14.1238 185.458C13.7719 188.067 13.5974 190.697 13.6015 193.329L10.508 191.783C10.1195 189.697 9.92446 187.58 9.9254 185.458C9.91018 179.447 11.4832 173.538 14.4854 168.33C14.6212 170.585 14.9233 172.826 15.3893 175.037C15.7473 175.844 15.9972 176.694 16.1326 177.567Z" fill="#121E51"/>
<path d="M19.5476 204.153C21.5947 204.622 23.6992 204.791 25.795 204.655C27.4855 204.326 29.1452 203.856 30.7567 203.249C32.9634 205.419 35.3195 207.432 37.8076 209.273L42.5885 212.185L37.8076 219.273L24.6901 213.67C24.6901 213.67 20.1904 207.586 19.5476 204.153Z" fill="#121E51"/>
<path d="M60.1253 193.329C59.804 196.128 59.2531 198.895 58.478 201.602C57.5942 203.771 56.4692 207.626 56.4692 207.626C56.4692 207.626 64.1027 209.393 64.9865 209.775L65.8704 210.157C65.8704 210.157 75.1712 201.02 75.2917 198.109C75.4122 195.197 72.1781 187.225 72.1781 187.225L60.1253 193.329Z" fill="#121E51"/>
<path d="M34.4689 186.261L30.646 203.287L30.842 203.331L34.6648 186.305L34.4689 186.261Z" fill="#121E51"/>
<path d="M49.3374 183.257L49.2141 183.39L60.027 193.469L60.1503 193.337L49.3374 183.257Z" fill="#121E51"/>
<path d="M72.7572 173.333L71.9968 187.187L72.1774 187.197L72.9377 173.342L72.7572 173.333Z" fill="#121E51"/>
<path d="M61.201 163.659L49.7588 168.368L49.8353 168.554L61.2775 163.845L61.201 163.659Z" fill="#121E51"/>
<path d="M34.3753 156.206L34.1965 156.233L35.3412 163.736L35.5199 163.709L34.3753 156.206Z" fill="#121E51"/>
<path d="M26.3875 175.468L16.135 177.468L16.1735 177.665L26.4259 175.665L26.3875 175.468Z" fill="#121E51"/>
<path d="M13.7701 193.307L13.6111 193.393L19.4621 204.201L19.6211 204.115L13.7701 193.307Z" fill="#121E51"/>
<path d="M56.5436 207.615L42.5596 212.028L42.614 212.2L56.598 207.788L56.5436 207.615Z" fill="#121E51"/>
</svg>
