<svg width="235" height="234" viewBox="0 0 235 234" fill="none" xmlns="http://www.w3.org/2000/svg">
<path d="M27.9957 157.724C34.1117 160.838 38.4182 166.265 35.3029 172.379C32.1876 178.492 26.1402 176.958 20.0013 173.936C13.8623 170.913 7.42554 158.228 7.42554 158.228C7.42554 158.228 21.8796 154.633 27.9957 157.724Z" fill="#FCD561"/>
<path d="M55.5523 162.418C56.1937 168.394 54.4986 174.119 49.0468 174.714C43.5951 175.31 41.8542 170.135 41.1899 164.158C40.5256 158.182 50.5357 146.596 50.5357 146.596C52.808 151.661 54.4912 156.97 55.5523 162.418Z" fill="#FCD561"/>
<path d="M33.0121 185.11C36.5168 181.95 40.9607 180.393 43.8469 183.598C46.7332 186.804 44.2364 190.284 40.7317 193.444C37.2269 196.604 27.8582 198.024 27.8582 198.024C27.8582 198.024 29.5991 188.224 33.0121 185.11Z" fill="#FCD561"/>
<path d="M13.5645 161.64C13.5645 161.64 38.0974 174.417 42.61 178.08L47.1913 181.744C43.7949 183.818 40.57 186.161 37.5476 188.75C32.9663 192.689 31.2712 193.971 31.2712 193.971C31.2712 193.971 45.3359 184.262 48.6344 183.713C51.933 183.163 54.7276 182.866 54.7276 182.866C52.1697 178.871 50.2601 174.497 49.0697 169.906C48.469 165.384 48.469 160.803 49.0697 156.282C49.0697 156.282 46.779 167.273 48.3596 173.775L49.8943 180.255C49.8943 180.255 29.4845 168.555 23.5517 165.693C20.3159 164.122 16.9795 162.768 13.5645 161.64Z" fill="#9E4A9E"/>
<path d="M0.462083 8.91363C1.35544 4.44863 7.99836 2.98319 17.7107 12.9207C27.4231 22.8582 33.333 38.1079 39.2887 38.6345C45.2445 39.1612 51.9332 39.642 55.4379 51.2281C58.9426 62.8142 59.08 68.8592 67.1661 74.1256C79.1004 81.8191 78.4132 89.5585 77.2679 98.0763C76.1225 106.594 81.2994 108.861 83.5443 115.318C85.7891 121.775 76.1912 140.872 76.1912 140.872C76.1912 140.872 60.8667 127.889 52.5058 114.15C44.1449 100.412 57.9347 99.8852 45.84 93.7945C33.7453 87.7038 43.2058 77.2167 36.288 65.997C29.3702 54.7772 10.0141 42.3439 14.1144 35.6808C18.2147 29.0176 -0.820685 15.4165 0.462083 8.91363Z" fill="#FCD561"/>
<path d="M84.8499 169.081C84.7354 168.486 77.1533 124.363 58.7364 85.8491C46.332 60.9324 30.5877 37.8222 11.9382 17.1567C11.9382 17.1567 41.7168 51.938 55.9876 85.1393C71.1517 120.127 82.6967 171.898 82.6967 171.898C82.6967 171.898 86.4992 176.912 84.8499 169.081Z" fill="#FCD561"/>
<path d="M170.864 151.725C168.276 135.102 166.122 133.819 173.155 124.111C180.187 114.402 181.103 113.006 181.103 113.006C181.103 113.006 185.41 120.379 183.394 134.003C182.986 137.778 181.621 141.387 179.428 144.488C177.236 147.589 174.288 150.08 170.864 151.725Z" fill="#FCD561"/>
<path d="M179.225 149.916C191.182 139.36 190.105 140.482 199.703 140.986C209.301 141.49 212.05 138.147 212.05 138.147C212.05 138.147 208.408 152.549 196.015 152C189.739 151.702 179.225 149.916 179.225 149.916Z" fill="#FCD561"/>
<path d="M193.312 131.415C195.305 117.883 194.068 116.486 201.215 110.098C208.362 103.709 209.416 102.816 209.416 102.816C209.416 102.816 210.767 109.365 206.186 119.714C201.605 130.064 193.312 131.415 193.312 131.415Z" fill="#FCD561"/>
<path d="M158.93 160.884C158.93 160.884 174.965 157.885 184.929 161.983C194.893 166.082 209.76 161.09 209.76 161.09C203.785 164.796 197.386 167.771 190.701 169.952C185.093 171.646 179.116 171.692 173.483 170.085C167.849 168.477 162.797 165.283 158.93 160.884Z" fill="#FCD561"/>
<path d="M140.284 167.456C140.284 167.456 159.731 172.997 168.344 183.896C176.957 194.795 196.29 197.154 196.29 197.154C187.539 198.303 178.676 198.303 169.925 197.154C144.247 192.506 140.284 167.456 140.284 167.456Z" fill="#FCD561"/>
<path d="M208.27 105.793C208.27 105.793 192.236 146.871 164.129 159.854C153.483 164.864 142.443 168.991 131.121 172.195L130.159 167.616C130.159 167.616 161.197 156.167 172.811 150.191C189.143 141.879 208.27 105.793 208.27 105.793Z" fill="#9E4A9E"/>
<path d="M215.143 88.5969C215.335 89.2113 215.42 89.8541 215.395 90.4974C215.395 91.5736 216.265 96.6568 213.86 98.5802C213.469 98.9012 213.005 99.1214 212.508 99.2213C208.454 100.114 198.283 96.382 198.054 93.2451C197.871 90.9553 201.605 87.8642 203.575 86.3758L204.743 85.5515C204.468 85.6889 202.911 86.5361 200.964 87.3604C198.771 88.4875 196.326 89.0316 193.862 88.9404C190.449 88.1618 186.097 82.7122 183.898 82.323C182.575 81.9778 181.36 81.3064 180.363 80.3704C179.367 79.4344 178.621 78.2635 178.194 76.965C178.011 75.4996 179.775 75.3622 183.005 75.5682C184.837 75.6827 187.174 75.9346 189.877 76.0949C196.543 76.5299 206.965 80.6744 209.141 81.6132L209.531 81.7734L215.143 88.5969Z" fill="#A1EC3C"/>
<path d="M209.897 80.6057C209.028 80.2572 208.204 79.8035 207.446 79.2547C205.499 77.9954 202.658 75.4308 201.628 75.5453C200.597 75.6598 200.665 75.5453 201.055 75.7972C201.397 75.9075 201.766 75.9075 202.109 75.7972C204.541 77.6506 207.15 79.2611 209.897 80.6057Z" fill="#121E51"/>
<path d="M227.443 66.3863C226.664 67.8746 230.65 73.4616 229.619 75.8658C229.07 77.1252 226.275 78.1556 223.732 79.0486C221.671 79.6897 219.77 80.1248 219.449 80.1935L221.098 79.9874C223.961 79.6897 229.688 79.3004 232.322 80.6972C235.896 82.6206 234.613 90.5431 231.2 92.3978C230.719 92.6307 230.198 92.7705 229.665 92.8099C226.023 93.0847 220.503 89.6959 219.243 89.1235L218.326 88.6655C217.91 88.4366 217.512 88.1764 217.135 87.887L212.279 80.8117C212.279 80.8117 212.279 80.6972 212.279 80.4911C212.439 78.728 213.424 70.3704 216.7 66.2947C218.006 64.6461 218.991 63.1806 219.93 62.0586C221.51 60.0666 222.679 59.1278 224.305 60.0895C226.871 61.5549 228.199 64.8979 227.443 66.3863Z" fill="#A1EC3C"/>
<path d="M215.143 88.5969C215.335 89.2113 215.42 89.8541 215.395 90.4974C215.395 91.5736 216.265 96.6568 213.86 98.5802C213.469 98.9012 213.005 99.1214 212.508 99.2213C208.454 100.114 198.283 96.382 198.054 93.2451C197.871 90.9553 201.605 87.8642 203.575 86.3758L204.743 85.5515C204.468 85.6889 202.911 86.5361 200.964 87.3604C198.771 88.4875 196.326 89.0316 193.862 88.9404C190.449 88.1618 186.097 82.7122 183.898 82.323C182.575 81.9778 181.36 81.3064 180.363 80.3704C179.367 79.4344 178.621 78.2635 178.194 76.965C178.011 75.4996 179.775 75.3622 183.005 75.5682C184.837 75.6827 187.174 75.9346 189.877 76.0949C196.543 76.5299 206.965 80.6744 209.141 81.6132L209.531 81.7734L215.143 88.5969Z" fill="#FEB30F"/>
<path d="M227.443 66.3863C226.664 67.8746 230.65 73.4616 229.619 75.8658C229.07 77.1252 226.275 78.1556 223.732 79.0486C221.671 79.6897 219.77 80.1248 219.449 80.1935L221.098 79.9874C223.961 79.6897 229.688 79.3004 232.322 80.6972C235.896 82.6206 234.613 90.5431 231.2 92.3978C230.719 92.6307 230.198 92.7705 229.665 92.8099C226.023 93.0847 220.503 89.6959 219.243 89.1235L218.326 88.6655C217.91 88.4366 217.512 88.1764 217.135 87.887L212.279 80.8117C212.279 80.8117 212.279 80.6972 212.279 80.4911C212.439 78.728 213.424 70.3704 216.7 66.2947C218.006 64.6461 218.991 63.1806 219.93 62.0586C221.51 60.0666 222.679 59.1278 224.305 60.0895C226.871 61.5549 228.199 64.8979 227.443 66.3863Z" fill="#FEB30F"/>
<path d="M215.394 88.5282C215.603 89.0415 215.742 89.5806 215.807 90.131L215.417 89.7188C215.441 89.9778 215.441 90.2384 215.417 90.4973C215.417 91.5735 216.288 96.6568 213.882 98.5801C210.24 98.7175 202.109 94.825 201.559 91.9628C201.009 89.1006 205.911 85.2996 206.278 85.0935C206.117 85.0935 205.018 85.8262 203.597 86.4674C202.754 86.8641 201.881 87.1933 200.986 87.452C199.877 87.8489 198.679 87.9282 197.527 87.6809C194.572 86.765 190.266 81.2925 188.365 80.8117C185.978 79.8735 184.059 78.0297 183.027 75.6827C184.86 75.7972 187.196 76.049 189.899 76.2093C196.565 76.6444 206.988 80.7888 209.164 81.7276C209.164 81.7276 209.164 81.5444 209.164 81.4528L209.805 81.7734L215.394 88.5282Z" fill="#A1EC3C"/>
<path d="M215.394 88.5282C215.603 89.0415 215.742 89.5806 215.807 90.131L215.417 89.7188C215.441 89.9778 215.441 90.2384 215.417 90.4973C215.417 91.5735 216.288 96.6568 213.882 98.5801C210.24 98.7175 202.109 94.825 201.559 91.9628C201.009 89.1006 205.911 85.2996 206.278 85.0935C206.117 85.0935 205.018 85.8262 203.597 86.4674C202.754 86.8641 201.881 87.1933 200.986 87.452C199.877 87.8489 198.679 87.9282 197.527 87.6809C194.572 86.765 190.266 81.2925 188.365 80.8117C185.978 79.8735 184.059 78.0297 183.027 75.6827C184.86 75.7972 187.196 76.049 189.899 76.2093C196.565 76.6444 206.988 80.7888 209.164 81.7276C209.164 81.7276 209.164 81.5444 209.164 81.4528L209.805 81.7734L215.394 88.5282Z" fill="#9E4A9E"/>
<path d="M222.999 68.012C222.541 69.4088 226.55 74.8813 225.977 77.171C225.738 77.617 225.412 78.0108 225.019 78.3293C224.626 78.6477 224.173 78.8845 223.687 79.0257C222.832 79.3999 221.951 79.7136 221.052 79.9645C219.586 80.3995 218.281 80.6514 217.96 80.7201C218.83 80.7201 225.748 80.0561 228.772 81.9566C231.796 83.857 231.841 90.7721 229.619 92.7871C225.977 93.0619 220.457 89.673 219.197 89.1006L218.281 88.6426C218.393 88.7863 218.493 88.9396 218.578 89.1006C217.977 88.7673 217.409 88.3762 216.883 87.9328L211.958 80.8804C211.958 80.8804 211.958 80.6743 211.958 80.3079C212.058 80.3749 212.166 80.4288 212.279 80.4682C212.44 78.7051 213.424 70.3476 216.7 66.2718C218.006 64.6232 218.991 63.1577 219.93 62.0358C220.888 62.7082 221.668 63.6037 222.203 64.6449C222.738 65.686 223.011 66.8417 222.999 68.012Z" fill="#9E4A9E"/>
<path d="M215.669 84.6814C215.669 84.6814 217.158 86.7193 218.326 88.6656C218.439 88.8093 218.538 88.9625 218.624 89.1235C218.979 89.7155 219.3 90.3271 219.586 90.9553C220.388 92.9703 220.09 93.4511 220.09 93.4511L209.713 79.7126C209.713 79.7126 209.553 79.3692 209.713 79.3005C210.043 79.3745 210.36 79.498 210.653 79.6668C210.859 79.6668 211.248 79.9874 211.889 80.2622L212.21 80.4225L213.31 80.8346C215.325 81.5445 215.669 84.6814 215.669 84.6814Z" fill="#121E51"/>
<path d="M210.561 80.3079C210.642 79.537 210.564 78.7578 210.332 78.0182C209.942 76.2093 208.499 73.1181 209.232 72.5915C209.965 72.0648 209.851 72.0648 209.874 72.4083C209.897 72.7518 209.347 73.0494 209.347 73.0494C209.347 73.0494 211.225 79.3233 210.561 80.3079Z" fill="#121E51"/>
<path d="M209.714 79.6898L220.09 93.4282C220.09 93.4282 219.38 93.4282 217.456 91.7109C216.866 91.2193 216.315 90.6835 215.807 90.1081L215.417 89.6959C213.814 87.9328 212.233 85.9179 212.233 85.9179C212.233 85.9179 208.729 83.9487 209.049 82.4833C209.112 82.1962 209.158 81.9056 209.187 81.6131C209.187 81.6131 209.187 81.43 209.187 81.3384C209.22 80.9881 209.22 80.6354 209.187 80.2851C209.187 80.1706 209.187 79.4837 209.187 79.4379C209.187 79.3921 209.714 79.6898 209.714 79.6898Z" fill="#121E51"/>
<path opacity="0.7" d="M89.7395 221.435C89.5075 223.15 88.8063 224.767 87.7132 226.107C86.62 227.448 85.1775 228.461 83.5448 229.035C81.9121 229.608 80.1527 229.719 78.4608 229.356C76.7688 228.993 75.2102 228.169 73.9568 226.977C72.657 229.252 70.6935 231.076 68.3287 232.205C65.9639 233.335 63.3105 233.716 60.7232 233.298C58.1359 232.88 55.7379 231.682 53.8498 229.865C51.9616 228.048 50.6733 225.698 50.1569 223.13C49.1006 223.852 47.9022 224.34 46.642 224.561C45.3817 224.782 44.0888 224.731 42.8497 224.412C40.9177 223.914 39.2012 222.799 37.9609 221.237C36.7206 219.675 36.0242 217.751 35.9777 215.757C35.9679 214.236 36.3429 212.738 37.0678 211.401C37.7927 210.063 38.8439 208.931 40.1238 208.109C38.9312 206.895 38.1463 205.339 37.878 203.658C37.6098 201.978 37.8715 200.255 38.6269 198.73C39.3823 197.205 40.5938 195.953 42.0934 195.147C43.5931 194.341 45.3064 194.022 46.9958 194.233H47.4539C51.3431 195.394 55.4545 195.602 59.4411 194.841C63.4278 194.08 67.1728 192.371 70.3605 189.86C78.4007 183.197 86.3951 176.671 85.456 177.312C86.4409 178.159 93.0609 178.869 98.1462 179.442C100.139 177.152 78.8359 212.116 82.1116 212.551C87.1968 213.261 89.7624 221.138 89.7395 221.435Z" fill="#D9E6F9"/>
<path d="M95.9011 189.15C91.7752 191.015 87.2433 191.803 82.7298 191.44C81.1395 187.197 80.6432 182.622 81.2867 178.136C82.3633 170.672 95.0306 166.688 95.0306 166.688C95.4888 167.031 98.8102 169.893 98.8102 169.893C98.8102 169.893 102.498 172.183 102.956 172.618C102.979 172.755 102.773 186.013 95.9011 189.15Z" fill="#FBC22C"/>
<path d="M96.3593 187.249C92.6004 188.919 88.4736 189.59 84.3791 189.196C82.8626 185.398 82.3652 181.27 82.936 177.22C84.0126 171.038 95.0307 168.496 95.0307 168.496L97.9169 171.244C97.9169 171.244 101.032 172.984 101.376 173.236C101.399 173.236 102.04 184.479 96.3593 187.249Z" fill="#FBCC4D"/>
<path d="M96.8636 185.326C93.4718 186.802 89.7475 187.348 86.0746 186.906C84.6601 183.547 84.1622 179.873 84.6315 176.259C85.7081 171.336 95.0769 170.191 95.0769 170.191L97.0468 172.481C97.0468 172.481 99.5666 173.58 99.7956 173.74C100.025 173.9 101.285 182.922 96.8636 185.326Z" fill="#FCD66F"/>
<path d="M97.3445 183.426C94.1376 185.441 87.7467 184.616 87.7467 184.616C87.7467 184.616 85.2727 178.961 86.3264 175.297C87.3801 171.633 95.0768 171.862 95.0768 171.862L96.1763 173.671C96.1763 173.671 98.1004 174.129 98.215 174.221C98.3295 174.312 100.551 181.388 97.3445 183.426Z" fill="#FCE091"/>
<path d="M97.8256 181.502C95.8327 183.174 89.4189 182.304 89.4189 182.304C89.4189 182.304 86.9679 176.717 87.9987 174.335C89.0295 171.954 95.0997 173.557 95.0997 173.557L95.283 174.885L96.6116 174.702C96.6116 174.702 99.7956 179.854 97.8256 181.502Z" fill="#FCEAB2"/>
<path d="M97.0923 156.681C97.0923 156.681 94.8017 153.338 92.763 152.995C90.632 152.487 88.4114 152.487 86.2804 152.995L79.7979 160.78C82.8281 160.217 85.8869 159.819 88.9605 159.589C89.8538 159.841 91.5489 163.024 91.5489 163.024L97.0923 156.681Z" fill="#FFF6A7"/>
<path d="M93.0838 156.017C93.0838 156.017 87.9527 152.835 86.0057 153.728C84.0586 154.621 72.2617 165.726 72.2617 165.726L73.3612 167.42C73.3612 167.42 84.2419 161.192 85.1352 161.444C86.0286 161.696 87.7237 164.879 87.7237 164.879L93.0838 156.017Z" fill="#9E4A9E"/>
<path d="M112.852 168.496C112.852 168.496 116.655 169.664 117.594 171.611C118.641 173.531 119.214 175.674 119.266 177.862L113.608 186.265C113.301 183.187 112.819 180.129 112.165 177.106C111.684 176.327 108.156 175.595 108.156 175.595L112.852 168.496Z" fill="#FFF6A7"/>
<path d="M114.685 172.16C114.685 172.16 119.266 176.19 118.854 178.32C118.442 180.449 111.18 194.851 111.18 194.851L109.187 194.371C109.187 194.371 112.096 182.166 111.615 181.388C111.134 180.609 107.607 179.877 107.607 179.877L114.685 172.16Z" fill="#9E4A9E"/>
<path d="M86.8072 169.183C86.3995 168.186 86.0925 167.151 85.8909 166.092C85.8909 165.634 85.7305 164.993 85.7076 164.512C85.6733 163.849 85.6733 163.184 85.7076 162.52C85.8192 161.241 86.1123 159.985 86.5781 158.788C86.9997 157.751 87.5541 156.774 88.2274 155.88C87.4607 157.096 87.0312 158.494 86.9829 159.93C86.9346 161.366 87.2692 162.79 87.9525 164.054C89.6939 167.738 92.2866 170.954 95.5167 173.439C98.7468 175.923 102.522 177.604 106.53 178.342C107.994 178.69 109.525 178.636 110.961 178.184C112.397 177.733 113.683 176.901 114.684 175.778C114.295 176.236 113.768 176.854 113.333 177.289C112.975 177.628 112.601 177.949 112.211 178.251C111.707 178.594 111.042 179.029 110.515 179.327C109.906 179.649 109.27 179.917 108.614 180.128C108.044 180.323 107.463 180.484 106.873 180.609C106.026 180.762 105.168 180.854 104.308 180.884C102.841 180.883 101.38 180.706 99.9555 180.357C98.6057 180.009 97.2994 179.51 96.0614 178.869C93.2821 177.435 90.8626 175.392 88.9833 172.893C88.1092 171.75 87.3784 170.504 86.8072 169.183Z" fill="#121E51"/>
<path d="M87.6091 156.796C92.7096 147.225 97.8331 137.661 102.979 128.105C102.307 129.643 101.981 131.31 102.025 132.988C102.068 134.665 102.48 136.313 103.231 137.814C105.519 142.594 108.905 146.766 113.113 149.989C117.32 153.213 122.231 155.396 127.444 156.361C129.148 156.754 130.92 156.753 132.623 156.356C134.326 155.959 135.916 155.177 137.271 154.071L113.906 176.739C112.865 177.586 111.648 178.188 110.344 178.501C109.039 178.814 107.681 178.83 106.37 178.548C102.37 177.812 98.6022 176.139 95.3735 173.668C92.1447 171.196 89.5468 167.996 87.7923 164.329C87.1957 163.168 86.8693 161.888 86.8375 160.583C86.8058 159.279 87.0696 157.984 87.6091 156.796Z" fill="#FBC429"/>
<path d="M102.979 128.105C104.102 126.09 104.537 125.335 105.27 124.396C106.003 123.457 106.873 122.106 107.561 121.007C107.95 120.458 108.5 119.771 108.912 119.244C111.098 116.496 113.529 113.952 116.173 111.642C121.388 107.051 127.406 103.465 133.926 101.063C130.719 102.231 129.505 105.528 131.246 109.764C132.733 112.877 134.937 115.593 137.676 117.69C140.415 119.787 143.612 121.207 147.006 121.831C151.702 122.472 154.679 120.389 154.931 116.908C154.931 118.053 154.657 119.587 154.519 120.709C154.519 121.351 154.267 122.198 154.175 122.839C154.175 122.839 153.809 124.785 153.259 126.846C153.099 127.464 152.87 128.311 152.687 128.93C152.32 130.074 151.793 131.586 151.381 132.708C151.221 133.166 150.488 134.997 149.686 136.738C146.663 143.187 142.486 149.031 137.362 153.979C136.008 155.086 134.418 155.867 132.714 156.264C131.011 156.661 129.239 156.663 127.535 156.269C122.315 155.327 117.392 153.164 113.168 149.957C108.944 146.749 105.539 142.588 103.231 137.814C102.48 136.313 102.068 134.665 102.024 132.988C101.981 131.31 102.307 129.643 102.979 128.105Z" fill="#9E4A9E"/>
<path d="M133.835 101.063C135.759 100.376 137.293 99.9414 138.026 99.7353C135.026 100.537 133.835 103.376 135.346 107.063C136.594 109.635 138.427 111.88 140.698 113.617C142.969 115.355 145.616 116.537 148.426 117.069C152.503 117.595 155 115.695 154.977 112.489C154.977 113.939 154.932 115.405 154.84 116.886C154.588 120.389 151.61 122.45 146.914 121.808C143.521 121.184 140.324 119.764 137.584 117.667C134.845 115.57 132.642 112.854 131.155 109.742C129.414 105.528 130.719 102.231 133.835 101.063Z" fill="#9E4A9E"/>
<path d="M148.426 117.069C145.608 116.543 142.952 115.364 140.672 113.627C138.393 111.889 136.553 109.64 135.301 107.063C133.789 103.353 134.98 100.514 138.004 99.7353C141.238 98.8272 144.566 98.2895 147.922 98.1325H147.693C148.083 98.1325 152.137 98.1325 152.481 98.1325C153.718 102.575 153.718 102.323 153.786 102.872C154.533 106.024 154.917 109.25 154.932 112.489C155.023 115.672 152.504 117.618 148.426 117.069Z" fill="#9E4A9E"/>
<path d="M106.782 145.943C109.073 143.057 113.654 142.828 117.136 145.507C120.618 148.186 121.717 152.697 119.61 155.559C117.502 158.422 112.875 158.674 109.347 156.086C105.82 153.499 104.606 148.85 106.782 145.943ZM118.693 143.653C113.768 139.92 107.4 140.195 104.4 144.179C103.662 145.224 103.174 146.423 102.971 147.685C102.769 148.947 102.858 150.238 103.231 151.461C103.997 154.075 105.608 156.362 107.813 157.964C112.738 161.604 119.06 161.307 122.015 157.368C122.682 156.456 123.149 155.414 123.386 154.309C123.623 153.204 123.624 152.062 123.389 150.957C122.798 148.012 121.122 145.397 118.693 143.63V143.653Z" fill="#202A5F"/>
<path d="M106.255 146.675C108.546 143.767 113.127 143.538 116.609 146.217C120.091 148.896 121.19 153.407 119.083 156.292C117.77 157.688 115.967 158.521 114.053 158.615C112.139 158.709 110.263 158.057 108.82 156.796C105.155 154.094 104.079 149.56 106.255 146.675ZM118.166 144.385C113.219 140.653 106.85 140.951 103.873 144.935C103.125 145.979 102.631 147.182 102.428 148.45C102.225 149.717 102.32 151.014 102.704 152.239C103.478 154.844 105.088 157.121 107.286 158.719C112.211 162.383 118.51 162.085 121.488 158.124C122.15 157.209 122.614 156.167 122.85 155.063C123.087 153.959 123.091 152.818 122.862 151.713C122.282 148.751 120.605 146.118 118.166 144.34V144.385Z" fill="white"/>
<path d="M120.136 153.705C120.265 152.275 120.016 150.837 119.413 149.535C118.81 148.233 117.874 147.112 116.7 146.286C113.081 143.538 108.431 143.767 106.255 146.675C105.68 147.491 105.313 148.434 105.185 149.424C105.058 150.413 105.173 151.419 105.522 152.354C106.131 154.105 107.257 155.63 108.752 156.727C112.348 159.406 116.929 159.154 119.106 156.292C119.658 155.528 120.012 154.639 120.136 153.705Z" fill="#FFF6A7"/>
<path d="M120.136 153.705C119.542 151.99 118.44 150.496 116.975 149.423C113.356 146.698 108.706 146.904 106.53 149.812C105.987 150.562 105.64 151.436 105.522 152.354C106.131 154.105 107.257 155.63 108.752 156.727C112.348 159.406 116.929 159.154 119.106 156.292C119.658 155.528 120.012 154.639 120.136 153.705Z" fill="#FEBB00"/>
<path d="M111.73 146.698C111.551 146.527 111.313 146.432 111.065 146.432C110.818 146.432 110.58 146.527 110.401 146.698C110.24 146.834 110.124 147.017 110.069 147.221C110.015 147.425 110.025 147.641 110.097 147.839C110.17 148.038 110.301 148.209 110.475 148.33C110.648 148.451 110.854 148.516 111.065 148.516C111.277 148.516 111.483 148.451 111.656 148.33C111.829 148.209 111.961 148.038 112.034 147.839C112.106 147.641 112.116 147.425 112.062 147.221C112.007 147.017 111.891 146.834 111.73 146.698Z" fill="#F1F0EF"/>
<path d="M69.0319 175.686L67.4055 173.282C67.0848 172.801 67.4055 172.046 67.9782 171.382L69.6045 173.763C68.8715 174.473 68.7112 175.228 69.0319 175.686Z" fill="#FFF6A7"/>
<path d="M83.4401 162.131L81.8137 159.727L92.053 156.04L93.6793 158.444L83.4401 162.131Z" fill="#FFF6A7"/>
<path d="M69.6046 173.809L67.9783 171.382L77.1638 162.612L78.7902 165.039L69.6046 173.809Z" fill="#FFF6A7"/>
<path d="M78.7899 165.039L77.1636 162.612C78.4842 161.356 80.0415 160.375 81.7449 159.727L83.3713 162.131C81.6674 162.789 80.1104 163.777 78.7899 165.039Z" fill="#FFF6A7"/>
<path d="M93.6795 158.444L86.4639 169.893H79.5919L71.9182 175.457C71.3191 175.922 70.5662 176.143 69.8108 176.075C68.7113 175.847 68.6884 174.725 69.8108 173.786L78.9734 165.016C81.7222 161.581 93.6795 158.444 93.6795 158.444Z" fill="#9E4A9E"/>
<path d="M102.384 200.713L105.155 201.583C105.705 201.766 106.37 201.354 106.805 200.507L104.033 199.614C103.598 200.484 102.911 200.873 102.384 200.713Z" fill="#FFF6A7"/>
<path d="M111.363 183.082L114.135 183.975L114.822 173.122L112.05 172.229L111.363 183.082Z" fill="#FFF6A7"/>
<path d="M104.033 199.614L106.805 200.484L112.669 189.219L109.897 188.349L104.033 199.614Z" fill="#FFF6A7"/>
<path d="M109.897 188.349L112.669 189.242C113.506 187.602 114.004 185.811 114.135 183.975L111.363 183.082C111.232 184.918 110.734 186.709 109.897 188.349Z" fill="#FFF6A7"/>
<path d="M112.05 172.229L103.048 182.349L104.949 189.035L101.788 197.965C101.633 198.327 101.553 198.717 101.553 199.11C101.553 199.504 101.633 199.893 101.788 200.255C102.315 201.24 103.392 200.942 104.079 199.706L109.943 188.44C110.78 186.801 111.278 185.01 111.409 183.174L112.05 172.229Z" fill="#9E4A9E"/>
<path opacity="0.46" d="M129.368 109.513C128.635 106.879 120.366 111.802 114.387 118.259C110.396 123.01 107.293 128.439 105.224 134.288C105.224 134.288 113.539 123.182 115.945 120.893C126.55 110.749 130.078 112.077 129.368 109.513Z" fill="#F2DBD1"/>
<path d="M182.626 18.0865L105.982 70.7598C105.576 71.0318 105.228 71.3826 104.96 71.7916C104.691 72.2006 104.508 72.6594 104.42 73.1409C104.332 73.6224 104.341 74.1168 104.447 74.5949C104.553 75.0729 104.754 75.5249 105.038 75.9242L115.96 91.2262C116.506 91.997 117.33 92.5259 118.258 92.7015C119.185 92.877 120.144 92.6855 120.932 92.1673L198.897 41.0343C199.307 40.7611 199.657 40.4079 199.926 39.996C200.196 39.5841 200.379 39.1219 200.466 38.637C200.553 38.1521 200.541 37.6546 200.431 37.1742C200.321 36.6938 200.116 36.2404 199.827 35.8411L187.576 18.9845C187.024 18.2268 186.201 17.7107 185.28 17.5435C184.358 17.3762 183.408 17.5707 182.626 18.0865Z" fill="white" stroke="#2B231E" stroke-linecap="round" stroke-linejoin="round"/>
<path d="M159.663 42.4868L140.406 55.0508L148.24 67.0307L167.919 54.4676L159.663 42.4868Z" fill="#FEBB00"/>
<path d="M184.871 25.44L165.614 38.0039L173.448 49.9838L193.127 37.4208L184.871 25.44Z" fill="#FEBB00"/>
<path d="M132.236 58.4326L115.044 71.5041L122.977 83.3858L141.447 71.7506L132.236 58.4326Z" fill="#9E4A9E"/>
<path d="M153.78 5.58179L88.1577 74.8958C87.8905 75.1797 87.6824 75.5142 87.5455 75.8798C87.4085 76.2455 87.3455 76.635 87.3601 77.0258C87.3747 77.4167 87.4666 77.801 87.6305 78.1565C87.7943 78.512 88.0269 78.8316 88.3146 79.0967L103.432 92.9838C103.992 93.4996 104.729 93.7791 105.488 93.7641C106.247 93.7491 106.97 93.4406 107.506 92.9031L174.779 24.8358C175.058 24.5541 175.277 24.2181 175.422 23.8484C175.568 23.4787 175.636 23.083 175.624 22.6852C175.612 22.2875 175.52 21.896 175.352 21.5346C175.185 21.1733 174.946 20.8496 174.65 20.5831L157.903 5.41951C157.332 4.89523 156.577 4.61804 155.805 4.64844C155.032 4.67884 154.305 5.01438 153.78 5.58179Z" fill="white" stroke="#2B231E" stroke-linecap="round" stroke-linejoin="round"/>
<path d="M155.26 12.3425L140.547 28.8258L151.896 40.3827L168.98 24.1085L155.26 12.3425Z" fill="#E4E4E6"/>
<path d="M135.378 35.1457L119.89 51.2978L130.633 62.3653L146.546 46.139L135.378 35.1457Z" fill="#FDD2C2"/>
<path d="M113.312 56.0047L98.778 72.9039L109.07 82.9602L125.166 67.2347L113.312 56.0047Z" fill="#9E4A9E"/>
</svg>
