<svg width="235" height="223" viewBox="0 0 235 223" fill="none" xmlns="http://www.w3.org/2000/svg">
<path d="M175.446 129.072C175.446 133.389 178.299 137.726 184.024 141.019C195.454 147.626 214.015 147.626 225.445 141.019C231.17 137.726 234.023 133.409 234.023 129.072V138.449C234.023 142.766 231.17 147.104 225.445 150.397C214.015 157.003 195.454 157.003 184.024 150.397C178.299 147.104 175.446 142.766 175.446 138.349V129.072Z" fill="#FCD561"/>
<path d="M175.446 129.072C175.446 124.735 178.299 120.417 184.024 117.024C195.454 110.418 214.015 110.418 225.445 117.024C231.17 120.317 234.023 124.654 234.023 129.072C234.023 133.49 231.17 137.726 225.445 141.02C214.015 147.626 195.454 147.626 184.024 141.02C178.299 137.726 175.446 133.389 175.446 129.072Z" fill="#FCD561"/>
<path d="M200.355 66.0007C200.391 66.3861 200.529 66.7551 200.755 67.0694C200.981 67.3836 201.287 67.6317 201.641 67.7878C202.6 68.273 203.66 68.5258 204.735 68.5258C205.809 68.5258 206.869 68.273 207.828 67.7878C208.183 67.6317 208.489 67.3836 208.715 67.0694C208.941 66.7551 209.079 66.3861 209.114 66.0007V129.012C209.079 129.397 208.941 129.766 208.715 130.08C208.489 130.395 208.183 130.643 207.828 130.799C206.869 131.284 205.809 131.537 204.735 131.537C203.66 131.537 202.6 131.284 201.641 130.799C201.287 130.643 200.981 130.395 200.755 130.08C200.529 129.766 200.391 129.397 200.355 129.012V66.0007Z" fill="#9E4A9E"/>
<path d="M200.355 66.0007C200.391 65.6152 200.529 65.2462 200.755 64.9319C200.981 64.6177 201.287 64.3696 201.641 64.2135C202.6 63.7283 203.66 63.4755 204.735 63.4755C205.809 63.4755 206.869 63.7283 207.828 64.2135C208.185 64.366 208.493 64.6131 208.72 64.9281C208.947 65.2431 209.083 65.6139 209.114 66.0007C209.079 66.3861 208.941 66.7551 208.715 67.0694C208.489 67.3836 208.183 67.6317 207.828 67.7878C206.869 68.273 205.809 68.5258 204.735 68.5258C203.66 68.5258 202.6 68.273 201.641 67.7878C201.287 67.6317 200.981 67.3836 200.755 67.0694C200.529 66.7551 200.391 66.3861 200.355 66.0007Z" fill="#FCD561"/>
<path d="M218.294 65.84C217.772 65.5976 217.195 65.4995 216.623 65.556C216.05 65.6125 215.503 65.8215 215.039 66.1612C213.69 67.0405 212.567 68.2266 211.764 69.6227C210.961 71.0187 210.5 72.5849 210.419 74.1932C210.354 74.7668 210.445 75.3474 210.681 75.8739C210.918 76.4004 211.293 76.8534 211.765 77.1852L187.659 63.2497C187.186 62.9219 186.81 62.4733 186.57 61.9505C186.33 61.4277 186.234 60.8501 186.294 60.2778C186.378 58.6702 186.84 57.1052 187.643 55.7097C188.446 54.3142 189.566 53.1274 190.914 52.2458C191.382 51.9063 191.932 51.6976 192.507 51.6411C193.083 51.5846 193.663 51.6824 194.188 51.9245L218.294 65.84Z" fill="#FCD561"/>
<path d="M218.294 65.84C218.768 66.1709 219.145 66.6231 219.386 67.1494C219.626 67.6756 219.721 68.2567 219.66 68.8319C219.578 70.4402 219.117 72.0065 218.314 73.4025C217.511 74.7985 216.389 75.9847 215.039 76.8639C214.598 77.2555 214.044 77.4982 213.456 77.5574C212.868 77.6167 212.277 77.4895 211.766 77.194C211.255 76.8985 210.849 76.4497 210.608 75.9111C210.366 75.3725 210.3 74.7714 210.419 74.1932C210.5 72.5849 210.961 71.0187 211.764 69.6227C212.567 68.2266 213.69 67.0405 215.039 66.1612C215.503 65.8215 216.05 65.6125 216.623 65.556C217.195 65.4995 217.772 65.5976 218.294 65.84Z" fill="#FCD561"/>
<path d="M194.53 64.5348C193.685 64.5336 192.863 64.2666 192.179 63.7718L125.889 15.8207C125.437 15.5221 125.051 15.1352 124.753 14.6835C124.454 14.2318 124.251 13.7245 124.154 13.192C124.056 12.6596 124.068 12.113 124.187 11.5851C124.307 11.0572 124.532 10.5589 124.849 10.1202C125.166 9.6814 125.568 9.31127 126.032 9.0319C126.496 8.75254 127.011 8.56971 127.548 8.49448C128.084 8.41926 128.63 8.45316 129.152 8.59412C129.675 8.73509 130.164 8.98019 130.59 9.31477L196.88 57.2658C197.569 57.7642 198.081 58.4682 198.344 59.2764C198.608 60.0846 198.607 60.9554 198.344 61.7635C198.08 62.5715 197.567 63.2752 196.878 63.7732C196.189 64.2712 195.36 64.5378 194.51 64.5348H194.53Z" fill="#9E4A9E"/>
<path d="M156.382 61.6433C156.121 66.7436 152.485 71.6833 145.535 75.1973C132.297 81.9843 111.787 81.2213 98.5491 73.8118C97.9063 73.4504 97.2835 73.0889 96.6608 72.6873C94.8527 71.5424 93.1813 70.1951 91.679 68.6713C90.4273 67.3704 89.3899 65.8794 88.6055 64.2537C87.601 62.3167 87.1296 60.1476 87.2395 57.9686C87.5007 52.8683 97.6049 29.7362 104.575 26.2021C118.456 19.1138 127.857 19.154 140.955 27.6278C142.043 28.401 142.994 29.3512 143.767 30.439C149.854 38.3706 156.603 57.2257 156.382 61.6433Z" fill="#FCD561"/>
<path d="M156.382 61.6433C156.121 66.7436 152.485 71.6833 145.535 75.1973C132.297 81.9843 111.787 81.2213 98.5491 73.8118L91.679 68.611C90.4272 67.3102 89.3898 65.8192 88.6055 64.1935C100.658 70.2175 114.72 74.5146 126.672 70.4986C142.401 65.1975 144.35 44.3946 143.807 30.5193C149.854 38.3706 156.603 57.2257 156.382 61.6433Z" fill="#9E4A9E"/>
<path d="M133.442 6.38312L132.076 32.4871C131.968 33.3779 131.619 34.2224 131.067 34.93C130.515 35.6375 129.78 36.1814 128.942 36.5031C125.968 37.8304 122.653 38.1954 119.461 37.5473C117.812 37.2591 116.236 36.6521 114.82 35.7602C114.028 35.3675 113.356 34.7687 112.875 34.0266C112.395 33.2846 112.123 32.4268 112.088 31.5434L113.454 5.43936C113.481 6.32465 113.747 7.18614 114.225 7.9322C114.702 8.67826 115.373 9.28102 116.166 9.67627C118.291 10.885 120.67 11.58 123.111 11.7055C125.553 11.831 127.99 11.3836 130.228 10.3991C131.078 10.0854 131.827 9.54566 132.394 8.83797C132.96 8.13028 133.322 7.28151 133.442 6.38312Z" fill="#9E4A9E"/>
<path d="M133.442 6.38312L132.076 32.4871C131.968 33.3779 131.619 34.2224 131.067 34.93C130.515 35.6375 129.78 36.1814 128.942 36.5031C125.968 37.8304 122.653 38.1954 119.461 37.5473C119.963 37.3264 129.505 33.1297 130.047 24.1138C130.308 20.2785 130.348 15.0979 130.308 10.359C131.138 10.0367 131.867 9.49793 132.418 8.79869C132.969 8.09944 133.323 7.26531 133.442 6.38312Z" fill="#9E4A9E"/>
<path d="M113.535 5.33901C113.643 4.44822 113.992 3.60372 114.544 2.89618C115.096 2.18863 115.83 1.64477 116.668 1.32301C118.907 0.338423 121.345 -0.10729 123.788 0.0217486C126.23 0.150788 128.608 0.850967 130.73 2.06596C131.524 2.46196 132.197 3.06434 132.677 3.80985C133.158 4.55536 133.429 5.41647 133.462 6.30282C133.329 7.1728 132.969 7.99254 132.419 8.67978C131.869 9.36702 131.148 9.89764 130.328 10.2184C128.091 11.2029 125.653 11.6503 123.212 11.5248C120.77 11.3993 118.392 10.7043 116.267 9.49553C115.488 9.10119 114.826 8.51012 114.347 7.78093C113.868 7.05175 113.588 6.20989 113.535 5.33901Z" fill="#FCD561"/>
<path d="M116.648 5.49961C116.738 4.90166 116.984 4.33795 117.361 3.86548C117.739 3.39301 118.234 3.02853 118.798 2.8089C120.342 2.11374 122.029 1.79664 123.72 1.88395C125.411 1.97126 127.057 2.46045 128.52 3.3109C129.101 3.53414 129.596 3.93502 129.936 4.45633C130.275 4.97764 130.441 5.59275 130.41 6.21388C130.379 6.83502 130.152 7.43044 129.762 7.91518C129.372 8.39992 128.839 8.74923 128.239 8.91324C126.693 9.59723 125.007 9.90817 123.318 9.82097C121.629 9.73377 119.984 9.25087 118.517 8.41124C117.974 8.13626 117.515 7.72137 117.186 7.20949C116.858 6.6976 116.672 6.10728 116.648 5.49961Z" fill="#9E4A9E"/>
<path d="M10.2222 134.473L70.8879 99.233C70.985 101.181 71.5438 103.078 72.5182 104.768C73.4927 106.457 74.8548 107.892 76.4925 108.952L15.8267 144.192C14.1891 143.132 12.8269 141.698 11.8525 140.008C10.8781 138.318 10.3193 136.421 10.2222 134.473Z" fill="#FCDC79"/>
<path d="M10.2222 127.947L70.8879 92.687V99.233L10.2222 134.473V127.947Z" fill="#FCDC79"/>
<path d="M11.8694 124.333L72.5352 89.0927C71.9738 89.4989 71.5271 90.0434 71.2385 90.6732C70.9499 91.303 70.8291 91.9967 70.888 92.687L10.2222 127.947C10.1598 127.254 10.2788 126.556 10.5676 125.922C10.8563 125.289 11.305 124.741 11.8694 124.333Z" fill="#FCDC79"/>
<path d="M72.0129 86.2212L11.3472 121.462C11.0264 121.556 10.7167 121.683 10.4231 121.843L71.1692 86.6028C71.4348 86.4435 71.7179 86.3155 72.0129 86.2212Z" fill="#FCDC79"/>
<path d="M15.8267 144.192L76.5125 108.952L118.537 133.208L57.8508 168.449L15.8267 144.192Z" fill="#FCDC79"/>
<path d="M15.887 124.735L76.5527 89.4742L116.206 112.365L55.5407 147.606L15.887 124.735Z" fill="#F0E6DE"/>
<path d="M58.373 147.124L116.026 113.55V133.028L58.373 166.601V147.124Z" fill="#DEE6E4"/>
<path d="M15.887 122.385L76.5728 87.1248L118.597 111.381L57.9312 146.642L15.887 122.385Z" fill="#FCDC79"/>
<path d="M72.0129 86.2212C72.7963 86.0655 73.6029 86.0669 74.3857 86.2255C75.1685 86.384 75.912 86.6966 76.5729 87.1449L15.887 122.385C15.2287 121.94 14.4886 121.628 13.7094 121.47C12.9303 121.311 12.1274 121.309 11.3472 121.462L70.2452 87.3256C70.814 86.9259 71.4042 86.5572 72.0129 86.2212Z" fill="#FCDC79"/>
<path d="M119.24 135.618L58.574 170.879C58.6769 170.803 58.7586 170.703 58.8114 170.587C58.8642 170.471 58.8862 170.343 58.8753 170.216C58.8546 169.862 58.7511 169.517 58.5732 169.211C58.3953 168.904 58.1479 168.643 57.8508 168.449L118.537 133.208C118.828 133.407 119.07 133.669 119.244 133.976C119.418 134.282 119.52 134.624 119.541 134.975C119.555 135.1 119.534 135.226 119.481 135.339C119.427 135.452 119.344 135.549 119.24 135.618Z" fill="#FBC429"/>
<path d="M58.3932 147.124V166.601L18.6993 143.73C17.0624 142.664 15.7012 141.226 14.727 139.534C13.7529 137.841 13.1935 135.942 13.0947 133.991V127.465C13.0947 123.891 15.6459 122.446 18.7596 124.253L58.3932 147.124Z" fill="#FCF9F9"/>
<path d="M119.38 113.811L58.7146 149.052C58.819 148.978 58.9019 148.877 58.9548 148.761C59.0077 148.645 59.0288 148.516 59.0159 148.389C58.9953 148.038 58.8917 147.696 58.7136 147.392C58.5355 147.089 58.2881 146.832 57.9915 146.642L118.677 111.381C118.972 111.577 119.216 111.838 119.391 112.145C119.565 112.452 119.665 112.796 119.682 113.149C119.693 113.276 119.671 113.403 119.618 113.519C119.565 113.635 119.483 113.736 119.38 113.811Z" fill="#FBC429"/>
<path d="M13.2153 109.313L69.7831 76.4824C69.8956 78.3324 70.4437 80.1297 71.3827 81.7279C72.3218 83.326 73.6252 84.6798 75.1868 85.679L18.619 118.51C17.0574 117.511 15.754 116.157 14.8149 114.559C13.8759 112.961 13.3278 111.163 13.2153 109.313Z" fill="#FFF6A7"/>
<path d="M13.2153 108.289L69.7831 75.4784V76.4824L13.2153 109.313V108.289Z" fill="#FFF6A7"/>
<path d="M14.782 104.876L71.3297 72.0247C70.7924 72.4056 70.366 72.9224 70.0942 73.5222C69.8224 74.122 69.7149 74.7833 69.7829 75.4383L13.2151 108.249C13.1566 107.599 13.2707 106.944 13.5458 106.352C13.8209 105.76 14.2472 105.251 14.782 104.876Z" fill="#FFF6A7"/>
<path d="M69.9637 69.7155C70.2416 69.5575 70.5387 69.436 70.8476 69.354L14.2999 102.145C13.9886 102.22 13.6906 102.341 13.416 102.506C27.7187 94.2331 55.6611 78.0487 69.9637 69.7155Z" fill="#FCD561"/>
<path d="M70.8478 69.354L14.3 102.145L70.8478 69.354Z" fill="#9E4A9E"/>
<path d="M18.5186 118.51L75.0864 85.679L114.76 108.57L58.1924 141.401L18.5186 118.51Z" fill="#FFF6A7"/>
<path d="M18.5586 105.257L75.1264 72.4263L112.55 94.0323L55.9825 126.863L18.5586 105.257Z" fill="#F5EFEB"/>
<path d="M58.353 126.863L112.309 95.719V108.972L58.353 140.096V126.863Z" fill="#DEE6E4"/>
<path d="M18.5586 103.048L75.1264 70.2175L114.8 93.1087L58.2324 125.939L18.5586 103.048Z" fill="#FCD561"/>
<path d="M90.6545 99.5343L60.1609 81.9442L66.0467 78.5507L96.5201 96.1408L90.6545 99.5343Z" fill="#FCD561"/>
<path d="M70.8879 100.779L57.0071 92.7673L59.6788 91.2211L73.5596 99.233L70.8879 100.779Z" fill="#FCD561"/>
<path d="M70.8478 69.354C72.3321 69.0723 73.8678 69.3822 75.1265 70.2174L18.5788 103.048C17.3226 102.207 15.7844 101.896 14.3 102.185L67.9752 71.0407C68.8978 70.4211 69.8571 69.8578 70.8478 69.354Z" fill="#9E4A9E"/>
<path d="M115.363 110.839L58.7948 143.67C58.8908 143.599 58.967 143.504 59.0162 143.395C59.0654 143.286 59.086 143.167 59.076 143.048C59.0546 142.717 58.9562 142.396 58.7888 142.11C58.6214 141.824 58.3896 141.582 58.1118 141.401L114.76 108.57C115.038 108.751 115.27 108.994 115.437 109.279C115.604 109.565 115.703 109.886 115.724 110.217C115.72 110.342 115.685 110.465 115.621 110.573C115.558 110.682 115.469 110.773 115.363 110.839Z" fill="#9E4A9E"/>
<path d="M58.3531 126.863V140.096L20.9492 118.51C19.4062 117.499 18.1224 116.141 17.2012 114.543C16.28 112.946 15.7473 111.154 15.646 109.313V108.289C15.646 104.916 18.0566 103.55 20.9894 105.257L58.3531 126.863Z" fill="#FCF9F9"/>
<path d="M58.2325 125.939C58.52 126.114 58.7589 126.359 58.9274 126.65C59.0959 126.941 59.1885 127.27 59.1967 127.606C59.1967 128.209 58.7547 128.45 58.2325 128.148L18.5587 105.257C15.6258 103.55 13.2353 104.916 13.2152 108.289V109.313C13.3165 111.154 13.8493 112.946 14.7705 114.543C15.6916 116.141 16.9755 117.499 18.5185 118.51L58.1923 141.401C58.4701 141.582 58.7019 141.824 58.8693 142.11C59.0367 142.396 59.135 142.717 59.1565 143.048C59.1734 143.166 59.1545 143.287 59.1024 143.395C59.0502 143.503 58.967 143.593 58.8635 143.653C58.7601 143.713 58.6409 143.741 58.5213 143.734C58.4018 143.726 58.2872 143.683 58.1923 143.61L18.5185 120.699C16.4094 119.33 14.6557 117.481 13.4019 115.303C12.1481 113.124 11.43 110.679 11.3069 108.169V107.145C11.3069 102.546 14.5612 100.699 18.5788 103.008L58.2325 125.939Z" fill="#9E4A9E"/>
<path d="M115.483 95.3978L58.9154 128.249C59.0144 128.185 59.0934 128.095 59.1432 127.988C59.193 127.881 59.2115 127.763 59.1966 127.646C59.1884 127.31 59.0959 126.981 58.9274 126.69C58.7589 126.399 58.5199 126.154 58.2324 125.98L114.8 93.1488C115.077 93.3347 115.308 93.5816 115.476 93.8705C115.643 94.1593 115.741 94.4826 115.764 94.8155C115.768 94.9279 115.744 95.0395 115.695 95.1409C115.646 95.2422 115.573 95.3303 115.483 95.3978Z" fill="#9E4A9E"/>
<path d="M57.9112 146.702C58.2078 146.892 58.4553 147.149 58.6334 147.453C58.8115 147.756 58.9151 148.098 58.9357 148.449C58.9357 149.112 58.4737 149.373 57.9112 149.051L15.7264 124.755C12.6128 122.948 10.0616 124.393 10.0616 127.967V134.514C10.1578 136.467 10.7182 138.369 11.6963 140.063C12.6745 141.756 14.0422 143.192 15.6862 144.252L57.871 168.549C58.1701 168.739 58.418 169 58.5931 169.308C58.7682 169.616 58.8652 169.962 58.8754 170.316C58.8754 170.959 58.4134 171.22 57.871 170.899L15.6862 146.602C13.459 145.149 11.6055 143.192 10.2758 140.889C8.94611 138.587 8.17768 136.004 8.03271 133.349V126.803C8.03271 121.923 11.5079 119.956 15.7666 122.405L57.9112 146.702Z" fill="#FBC22C"/>
<path d="M21.9537 132.566C21.137 132.982 20.4155 133.562 19.8347 134.271C19.2538 134.979 18.8262 135.8 18.5789 136.682C18.3684 138.099 18.2476 139.527 18.2173 140.959L21.9537 143.128C21.9537 143.128 21.7327 137.967 22.6969 136.682C23.5389 135.756 24.5562 135.005 25.69 134.473L21.9537 132.566Z" fill="#FC5552"/>
<path d="M96.2391 138.509C97.0557 138.925 97.7772 139.506 98.358 140.214C98.9389 140.923 99.3665 141.744 99.6139 142.626C99.8243 144.043 99.9451 145.471 99.9754 146.903L96.2391 149.072C96.2391 149.072 96.46 143.911 95.4958 142.626C94.6538 141.699 93.6365 140.949 92.5027 140.417L96.2391 138.509Z" fill="#FCD561"/>
<path d="M42.2828 121.843C41.4625 122.262 40.7376 122.845 40.1534 123.557C39.5692 124.269 39.1384 125.094 38.8879 125.98C38.6887 127.39 38.5747 128.812 38.5464 130.237L42.2828 132.405C42.2828 132.405 42.0618 127.245 43.026 125.98C43.8632 125.043 44.8813 124.284 46.0191 123.751L42.2828 121.843Z" fill="#FCDC79"/>
<path d="M135.451 117.566L145.093 123.128V141.321L131.654 133.57L135.451 117.566Z" fill="#202A5F"/>
<path d="M161.043 117.566L151.401 123.128V141.321L164.819 133.57L161.043 117.566Z" fill="#121E51"/>
<path d="M145.093 123.128H151.381V141.341H145.093V123.128Z" fill="#121E51"/>
<path d="M161.043 117.566L151.401 123.128H145.093L135.451 117.566L145.073 112.004H151.381L161.043 117.566Z" fill="#9E4A9E"/>
<path d="M143.667 112.486C143.7 112.89 143.843 113.278 144.08 113.607C144.317 113.936 144.64 114.194 145.013 114.353C146.013 114.868 147.122 115.136 148.247 115.136C149.372 115.136 150.481 114.868 151.481 114.353C151.846 114.191 152.162 113.934 152.395 113.609C152.628 113.285 152.77 112.904 152.807 112.506V116.803C152.769 117.203 152.627 117.587 152.394 117.914C152.162 118.242 151.847 118.503 151.481 118.67C150.478 119.175 149.37 119.438 148.247 119.438C147.124 119.438 146.016 119.175 145.013 118.67C144.643 118.506 144.324 118.246 144.088 117.918C143.851 117.59 143.706 117.205 143.667 116.803V112.486Z" fill="#121E51"/>
<path d="M143.667 112.486C143.703 112.085 143.848 111.702 144.085 111.377C144.322 111.051 144.642 110.796 145.013 110.639C146.013 110.124 147.122 109.856 148.247 109.856C149.372 109.856 150.481 110.124 151.481 110.639C151.849 110.79 152.165 111.047 152.386 111.378C152.608 111.709 152.727 112.098 152.727 112.496C152.727 112.894 152.608 113.283 152.386 113.614C152.165 113.945 151.849 114.202 151.481 114.353C150.481 114.868 149.372 115.136 148.247 115.136C147.122 115.136 146.013 114.868 145.013 114.353C144.64 114.194 144.317 113.936 144.08 113.607C143.843 113.278 143.7 112.89 143.667 112.486Z" fill="#202A5F"/>
<path d="M145.234 112.506C145.256 112.241 145.35 111.987 145.506 111.771C145.661 111.555 145.873 111.386 146.118 111.281C146.773 110.945 147.5 110.769 148.237 110.769C148.974 110.769 149.7 110.945 150.356 111.281C150.609 111.368 150.828 111.532 150.984 111.75C151.139 111.968 151.222 112.228 151.222 112.496C151.222 112.763 151.139 113.024 150.984 113.242C150.828 113.46 150.609 113.624 150.356 113.711C149.7 114.047 148.974 114.223 148.237 114.223C147.5 114.223 146.773 114.047 146.118 113.711C145.876 113.608 145.666 113.441 145.51 113.229C145.355 113.017 145.259 112.768 145.234 112.506Z" fill="#121E51"/>
<path d="M177.796 74.2937L170.424 73.5508L175.727 75.5588C172.085 77.9889 168.776 80.8849 165.884 84.1731C164.378 85.8598 161.043 93.8918 158.733 99.3937C157.126 100.719 154.715 102.325 154.253 102.667L158.03 100.779C157.506 102.453 156.66 104.008 155.539 105.357C154.535 106.181 149.513 111.582 149.513 111.582C148.605 108.858 148.038 106.032 147.825 103.169C147.882 102.015 148.162 100.883 148.649 99.8355C150.457 95.1014 152.523 90.4694 154.836 85.9602L155.197 91.7633L155.559 84.5747C159.155 77.8479 163.795 70.84 168.677 68.0288C179.223 62.0048 182.879 66.4023 182.879 66.4023C181.621 69.2892 179.905 71.954 177.796 74.2937Z" fill="#B1D0FE"/>
<path d="M148.347 114.193C149.571 109.193 151.053 104.26 152.787 99.4138C154.262 95.1581 156.021 91.0057 158.05 86.9843C159.999 82.9304 162.412 79.1165 165.241 75.619C168.027 72.1245 171.627 69.3666 175.727 67.587C171.678 69.4414 168.141 72.2532 165.422 75.7796C162.669 79.3049 160.336 83.1393 158.472 87.2051C156.533 91.2434 154.856 95.4018 153.45 99.6548C151.873 104.303 150.532 109.028 149.432 113.811L148.347 114.193Z" fill="#FEC830"/>
<path d="M215.662 177.364L172.453 222.082L69.2004 188.509L112.41 143.791L215.662 177.364Z" fill="#FCEAB2"/>
<path d="M120.044 146.24L119.823 146.18L76.6133 190.878L76.8543 190.958L120.044 146.24Z" fill="#FCD561"/>
<path d="M123.599 147.385L123.378 147.325L80.189 192.043L80.4099 192.103L123.599 147.385Z" fill="#FCD561"/>
<path d="M127.175 148.529L126.934 148.469L83.7444 193.187L83.9855 193.248L127.175 148.529Z" fill="#FCD561"/>
<path d="M130.73 149.694L130.509 149.614L87.2998 194.332L87.5409 194.392L130.73 149.694Z" fill="#FCD561"/>
<path d="M134.306 150.839L134.065 150.758L90.8755 195.476L91.0965 195.557L134.306 150.839Z" fill="#FCD561"/>
<path d="M137.861 151.983L137.64 151.903L94.4312 196.621L94.6722 196.701L137.861 151.983Z" fill="#FCD561"/>
<path d="M141.437 153.128L141.196 153.047L98.0068 197.766L98.2278 197.846L141.437 153.128Z" fill="#FCD561"/>
<path d="M144.993 154.272L144.752 154.192L101.562 198.91L101.804 198.99L144.993 154.272Z" fill="#FCD561"/>
<path d="M148.548 155.417L148.327 155.337L105.118 200.055L105.359 200.135L148.548 155.417Z" fill="#FCD561"/>
<path d="M152.124 156.561L151.883 156.481L108.694 201.199L108.915 201.28L152.124 156.561Z" fill="#FCD561"/>
<path d="M155.68 157.706L155.459 157.646L112.249 202.344L112.49 202.424L155.68 157.706Z" fill="#FCD561"/>
<path d="M159.255 158.851L159.014 158.79L115.825 203.509L116.046 203.569L159.255 158.851Z" fill="#FCD561"/>
<path d="M162.811 159.995L162.57 159.935L119.38 204.653L119.621 204.713L162.811 159.995Z" fill="#FCD561"/>
<path d="M166.366 161.16L166.145 161.079L122.956 205.798L123.177 205.878L166.366 161.16Z" fill="#FCD561"/>
<path d="M169.942 162.304L169.701 162.224L126.512 206.942L126.733 207.023L169.942 162.304Z" fill="#FCD561"/>
<path d="M173.498 163.449L173.277 163.369L130.067 208.087L130.308 208.167L173.498 163.449Z" fill="#FCD561"/>
<path d="M177.073 164.593L176.832 164.513L133.643 209.231L133.864 209.312L177.073 164.593Z" fill="#FCD561"/>
<path d="M178.459 215.958L74.8451 182.665L74.7246 182.786L178.339 216.079L178.459 215.958Z" fill="#FFDA0B"/>
<path d="M180.629 165.738L180.408 165.658L137.198 210.376L137.44 210.456L180.629 165.738Z" fill="#FCD561"/>
<path d="M184.204 166.883L183.963 166.802L140.774 211.52L140.995 211.601L184.204 166.883Z" fill="#FCD561"/>
<path d="M187.76 168.027L187.519 167.947L144.33 212.685L144.571 212.745L187.76 168.027Z" fill="#FCD561"/>
<path d="M191.316 169.172L191.095 169.111L147.885 213.83L148.127 213.89L191.316 169.172Z" fill="#FCD561"/>
<path d="M194.891 170.316L194.65 170.256L151.461 214.974L151.682 215.034L194.891 170.316Z" fill="#FCD561"/>
<path d="M198.447 171.481L198.226 171.401L155.017 216.119L155.258 216.199L198.447 171.481Z" fill="#FCD561"/>
<path d="M202.023 172.625L201.781 172.545L158.592 217.263L158.813 217.344L202.023 172.625Z" fill="#FCD561"/>
<path d="M205.578 173.77L205.357 173.69L162.148 218.408L162.389 218.488L205.578 173.77Z" fill="#FCD561"/>
<path d="M209.153 174.915L208.912 174.834L165.703 219.552L165.944 219.633L209.153 174.915Z" fill="#FCD561"/>
<path d="M212.71 176.059L212.468 175.979L169.279 220.697L169.5 220.777L212.71 176.059Z" fill="#FCD561"/>
<path d="M188.383 156.361C188.422 156.539 188.422 156.724 188.383 156.903C188.286 157.218 188.079 157.489 187.8 157.666C187.884 157.583 187.948 157.482 187.986 157.371C188.025 157.259 188.037 157.14 188.021 157.023C188.03 156.95 188.03 156.876 188.021 156.802C187.969 156.487 187.851 156.186 187.674 155.92C187.498 155.653 187.267 155.427 186.997 155.256C186.901 155.19 186.792 155.147 186.677 155.129C186.562 155.112 186.445 155.121 186.334 155.156C186.573 155.024 186.846 154.968 187.117 154.995C187.428 155.015 187.724 155.135 187.961 155.337C188.097 155.47 188.204 155.629 188.277 155.805C188.349 155.981 188.385 156.17 188.383 156.361Z" fill="#FEC830"/>
<path d="M187.961 156.963C187.976 157.08 187.964 157.199 187.926 157.31C187.888 157.422 187.824 157.523 187.74 157.606L183.501 160.075C183.607 159.998 183.691 159.895 183.744 159.775C183.797 159.655 183.817 159.523 183.803 159.393C183.831 159.247 183.831 159.097 183.803 158.951C183.659 158.399 183.315 157.92 182.838 157.606C182.727 157.547 182.603 157.517 182.477 157.517C182.351 157.517 182.227 157.547 182.115 157.606L186.273 155.196C186.383 155.133 186.508 155.099 186.635 155.099C186.762 155.099 186.887 155.133 186.997 155.196C187.267 155.367 187.498 155.593 187.674 155.86C187.851 156.126 187.969 156.427 188.021 156.742C188.01 156.818 187.99 156.892 187.961 156.963Z" fill="#FEC830"/>
<path d="M184.265 159.634C184.282 159.803 184.26 159.975 184.201 160.135C184.142 160.295 184.047 160.439 183.923 160.557C182.899 161.421 180.93 163.027 180.408 163.449L179.102 164.453C178.098 165.156 176.752 166.039 175.085 167.043C173.417 168.047 171.067 169.513 166.306 172.405L156.081 178.429C156.288 178.322 156.457 178.153 156.564 177.947C156.564 177.846 156.664 177.726 156.724 177.605C156.792 177.329 156.826 177.046 156.825 176.762C156.834 176.648 156.834 176.534 156.825 176.421C156.719 175.605 156.436 174.823 155.995 174.13C155.554 173.436 154.967 172.847 154.274 172.405C154.02 172.229 153.726 172.124 153.419 172.099C153.112 172.075 152.804 172.131 152.526 172.264C159.517 168.248 171.77 161.401 171.81 161.381C172.935 160.778 174.864 159.754 176.029 159.232C176.411 159.051 176.893 158.851 177.917 158.449L181.794 156.963C181.949 156.915 182.112 156.902 182.272 156.927C182.433 156.951 182.585 157.011 182.718 157.104C183.319 157.486 183.783 158.048 184.044 158.71C184.162 159.006 184.236 159.317 184.265 159.634Z" fill="#FCD561"/>
<path d="M156.865 176.742C156.866 177.026 156.832 177.309 156.764 177.585C156.764 177.706 156.664 177.826 156.603 177.927C156.497 178.133 156.328 178.302 156.121 178.408L154.293 179.493C154.545 179.3 154.742 179.045 154.866 178.753C154.989 178.46 155.034 178.141 154.996 177.826V177.505C154.886 176.689 154.598 175.907 154.154 175.213C153.71 174.52 153.12 173.931 152.425 173.489H152.285L152.003 173.368H151.722C151.536 173.339 151.346 173.339 151.16 173.368H150.979L150.677 173.489L152.546 172.425C152.824 172.292 153.132 172.235 153.438 172.26C153.745 172.285 154.04 172.39 154.293 172.565C154.986 173.008 155.574 173.596 156.015 174.29C156.456 174.984 156.739 175.766 156.845 176.581C156.853 176.634 156.86 176.688 156.865 176.742Z" fill="#FEB30F"/>
<path d="M132.418 188.79C132.421 188.83 132.421 188.87 132.418 188.91C132.429 188.956 132.429 189.005 132.418 189.051L130.891 189.954C130.756 190.03 130.604 190.07 130.449 190.07C130.294 190.07 130.142 190.03 130.007 189.954H129.907C129.802 189.873 129.717 189.77 129.658 189.652C129.599 189.534 129.567 189.404 129.565 189.272C129.562 189.114 129.601 188.958 129.679 188.82C129.757 188.682 129.87 188.568 130.007 188.489L131.494 187.625C131.557 187.596 131.625 187.581 131.694 187.581C131.764 187.581 131.832 187.596 131.895 187.625C132.067 187.765 132.203 187.944 132.294 188.146C132.385 188.348 132.427 188.568 132.418 188.79Z" fill="#9E4A9E"/>
<g style="mix-blend-mode:multiply">
<path d="M188.383 156.361C188.422 156.539 188.422 156.724 188.383 156.903C188.286 157.218 188.079 157.489 187.8 157.666L184.325 159.674C184.342 159.844 184.32 160.015 184.261 160.175C184.202 160.335 184.107 160.48 183.984 160.597C182.959 161.461 180.991 163.067 180.468 163.489L179.163 164.493C178.158 165.196 176.812 166.079 175.145 167.083C173.478 168.087 171.127 169.553 166.367 172.445L154.314 179.533C151.521 181.18 147.966 183.208 145.495 184.533C143.346 185.677 142.321 186.179 141.477 186.541C140.091 187.224 138.926 187.706 138.766 187.766C137.515 188.219 136.223 188.548 134.909 188.75L132.739 189.131L132.177 189.232L130.771 190.035C130.636 190.11 130.483 190.15 130.329 190.15C130.174 190.15 130.022 190.11 129.887 190.035C129.887 190.035 130.329 190.035 131.373 189.432L132.418 188.77C134.759 187.902 137.046 186.896 139.268 185.758C140.312 185.155 147.464 181.099 154.856 176.742C155.459 176.38 156.102 176.119 156.724 175.758C164.579 171.14 172.433 167.184 173.417 166.561C175.205 165.457 182.136 160.136 183.723 158.931L184.064 158.67C185.415 158.12 186.713 157.448 187.941 156.662C188.11 156.598 188.262 156.495 188.383 156.361Z" fill="#B1D0FE"/>
</g>
<path d="M165.302 170.939L166.105 171.079V173.148L165.302 173.027V170.939Z" fill="#FCD561"/>
<path d="M166.105 171.079C166.841 169.797 167.987 168.8 169.359 168.248L181.673 162.565V164.573L169.359 170.417C167.991 170.974 166.846 171.97 166.105 173.248V171.079Z" fill="#FCD561"/>
<path d="M181.673 162.565L184.224 159.353V161.441L181.673 164.634V162.565Z" fill="#FCD561"/>
<path d="M165.302 170.939C166.095 169.542 167.343 168.458 168.837 167.867L181.01 162.244L182.597 160.236L184.224 159.333L181.673 162.545L169.359 168.228C167.987 168.78 166.841 169.777 166.105 171.059L165.302 170.939Z" fill="#B1D0FE"/>
<path d="M9.13751 179.734L5.3208 191.561L7.22915 192.886L10.3227 182.665L9.13751 179.734Z" fill="#FBC22C"/>
<path d="M10.8652 180.738L7.20923 192.966L19.4428 187.264L12.191 184.071L10.8652 180.738Z" fill="#FEB30F"/>
<path d="M2.42822 162.947L41.0976 140.538L55.6012 186.661L16.9318 209.091L2.42822 162.947Z" fill="#FCDC79"/>
<path d="M18.3579 205.456L5.3208 164.091L39.6713 144.152L52.7084 185.537L18.3579 205.456Z" fill="#5D9EFB"/>
<path d="M18.3581 205.456L15.8872 197.625C19.9048 192.344 25.9312 185.758 31.5759 182.947C37.5171 180.337 43.7902 178.56 50.2176 177.665L52.7085 185.537L18.3581 205.456Z" fill="#0E173D"/>
<path d="M22.6566 200.778C22.2749 200.657 16.9717 198.007 16.9717 198.007C16.1933 194.686 16.5249 191.202 17.9158 188.087C19.2239 185.235 20.2271 182.254 20.9089 179.192C20.9089 179.192 32.2988 171.521 32.4394 171.501C32.58 171.481 38.6064 171.903 38.6064 171.903C39.5438 171.986 40.4678 172.181 41.3585 172.485C42.3224 172.742 43.2138 173.218 43.963 173.876C44.7123 174.535 45.299 175.357 45.6774 176.28C46.9831 180.296 39.651 191.963 39.651 191.963C39.651 191.963 36.678 191.36 34.0465 190.617C32.6041 190.244 31.1323 189.995 29.6472 189.874C29.6472 189.874 28.6026 191.28 27.1161 193.589C24.2234 197.946 22.8173 200.798 22.6566 200.778Z" fill="#FFFDEA"/>
<path d="M15.8869 186.179C13.4965 185.356 13.8781 181.742 14.541 180.457C15.7062 176.799 16.3223 172.99 16.3691 169.152C16.7507 163.248 20.2862 161.762 20.2862 161.762C20.2862 161.762 20.5474 159.011 27.1764 157.365C27.8179 157.278 28.4707 157.368 29.0647 157.626C31.6312 158.714 34.0811 160.06 36.3767 161.642C36.9391 161.983 36.6579 162.304 37.12 162.465C38.6655 162.64 40.2282 162.592 41.7603 162.324C42.292 162.258 42.8316 162.299 43.3472 162.445C47.2443 163.79 43.3473 172.886 41.9612 174.493C40.5751 176.099 34.5889 174.152 34.167 174.011C33.7157 176.287 33.1049 178.528 32.339 180.718C30.9529 184.734 28.5223 189.533 26.5938 188.91C24.6654 188.288 23.1387 185.055 23.1387 185.055C23.1387 185.055 18.2774 186.983 15.8869 186.179Z" fill="#0E173D"/>
<path d="M24.7056 185.336C24.1485 185.126 23.6662 184.756 23.3195 184.272C20.251 180.153 18.2997 175.311 17.6547 170.216C17.4739 166.441 18.5988 165.437 18.5988 165.437C20.3465 161.541 22.9981 160.959 25.5894 161.843C28.9213 163.214 31.6363 165.757 33.2229 168.991C35.2317 175.276 31.2141 179.433 29.9084 181.521C28.6027 183.609 26.7144 186.019 24.7056 185.336Z" fill="#FBC2C2"/>
<path d="M33.8055 173.991C31.7966 173.308 29.7878 168.389 28.0603 165.959C26.5877 164.453 24.7229 163.388 22.6767 162.887L21.7728 162.585C21.1099 162.365 20.688 162.184 20.688 162.063C20.688 161.943 22.0138 160.778 22.275 160.678C23.8405 159.897 25.5498 159.446 27.297 159.353L27.8393 159.473C29.9016 160.522 31.8706 161.744 33.7251 163.128C34.0666 163.248 38.4056 171.702 37.9436 172.384C37.516 173.029 36.9035 173.529 36.1866 173.819C35.4696 174.109 34.6816 174.176 33.926 174.011L33.8055 173.991Z" fill="#0E173D"/>
<path d="M21.5117 182.585C21.1944 182.468 20.9065 182.283 20.668 182.043C20.7065 182.132 20.7691 182.208 20.8488 182.264C21.2505 182.384 21.813 181.2 22.1746 179.995C22.2913 179.58 22.5 179.197 22.7852 178.873C23.0703 178.55 23.4246 178.295 23.8218 178.127C23.8218 178.127 24.6052 177.565 25.4087 177.103C25.6862 176.935 25.9975 176.829 26.3204 176.795C26.6433 176.76 26.9699 176.797 27.2769 176.903H27.3975C28.0805 177.123 30.1093 177.585 30.1093 177.585C29.3702 178.461 28.4786 179.196 27.4778 179.754C27.2533 179.921 26.9939 180.035 26.719 180.087C26.4441 180.139 26.1609 180.128 25.8909 180.055C25.6439 179.943 25.4223 179.782 25.2393 179.582C25.0563 179.381 24.9158 179.146 24.8262 178.89C24.4692 180.009 23.8959 181.046 23.1388 181.943C22.9856 182.223 22.739 182.441 22.4416 182.558C22.1443 182.676 21.8152 182.685 21.5117 182.585Z" fill="#0E173D"/>
<path d="M0.600098 162.184L2.42811 162.947L16.9317 209.091L15.4451 208.067L0.600098 162.184Z" fill="#FBC429"/>
<path d="M41.0975 140.538L2.36785 163.208L0.600098 162.184L39.3298 139.513L41.0975 140.538Z" fill="#FCEAB2"/>
<path d="M185.068 133.188C185.092 133.484 185.196 133.768 185.37 134.008C185.543 134.249 185.779 134.438 186.052 134.554C186.775 134.93 187.578 135.127 188.393 135.127C189.208 135.127 190.01 134.93 190.733 134.554C191.006 134.443 191.242 134.258 191.416 134.021C191.59 133.783 191.694 133.502 191.717 133.208V134.735C191.688 135.026 191.581 135.304 191.408 135.541C191.235 135.777 191.002 135.963 190.733 136.08C190.007 136.447 189.206 136.638 188.393 136.638C187.58 136.638 186.778 136.447 186.052 136.08C185.782 135.96 185.548 135.77 185.375 135.53C185.202 135.291 185.096 135.009 185.068 134.714V133.188Z" fill="#FCD561"/>
<path d="M185.068 133.188C185.102 132.898 185.21 132.621 185.382 132.386C185.555 132.15 185.786 131.963 186.052 131.843C186.778 131.476 187.58 131.285 188.393 131.285C189.206 131.285 190.007 131.476 190.733 131.843C191.003 131.963 191.237 132.152 191.41 132.392C191.583 132.632 191.689 132.914 191.717 133.208C191.694 133.502 191.59 133.783 191.416 134.021C191.242 134.258 191.006 134.443 190.733 134.554C190.01 134.93 189.208 135.127 188.393 135.127C187.578 135.127 186.775 134.93 186.052 134.554C185.779 134.438 185.543 134.249 185.37 134.008C185.196 133.768 185.092 133.484 185.068 133.188Z" fill="#B1D0FE"/>
</svg>
