<svg width="262" height="223" viewBox="0 0 262 223" fill="none" xmlns="http://www.w3.org/2000/svg">
<path d="M210.88 11.3399C210.88 14.2515 208.763 17.1832 204.439 19.3719C199.584 21.6026 194.201 22.7907 188.727 22.8395C183.254 22.8884 177.845 21.7966 172.94 19.6531C168.547 17.4844 166.339 14.5929 166.316 11.6211L167.09 77.8851C167.09 80.7967 169.366 83.6882 173.713 85.9171C178.622 88.0608 184.035 89.1526 189.513 89.1037C194.99 89.0549 200.377 87.8668 205.236 85.6359C209.56 83.3669 211.699 80.4553 211.654 77.6039L210.88 11.3399Z" fill="#9E4A9E"/>
<path d="M204.257 3.38826C199.348 1.24453 193.935 0.152736 188.458 0.201582C182.98 0.250428 177.594 1.43854 172.735 3.66938C164.086 8.18738 164.177 15.376 172.939 19.7334C177.845 21.8769 183.254 22.9687 188.727 22.9198C194.201 22.871 199.584 21.6829 204.439 19.4523C213.111 14.9142 213.019 7.72554 204.257 3.38826Z" fill="#D157D1"/>
<path d="M260.906 68.0458L233.959 82.1018L234.3 110.435L261.248 96.3787L260.906 68.0458Z" fill="#EBBE3A"/>
<path d="M233.959 82.1019L206.692 68.5479L207.011 96.8807L234.3 110.435L233.959 82.1019Z" fill="#FCD561"/>
<path d="M260.906 68.0458L233.64 54.4717L206.692 68.5478L233.959 82.1018L260.906 68.0458Z" fill="#FEC830"/>
<path d="M28.0961 166.036V181.076L22.1331 178.044V163.004L28.0961 166.036Z" fill="#FFC317"/>
<path d="M28.0962 159.711L13.3251 167.241L7.36206 164.209L22.1332 156.699L28.0962 159.711Z" fill="#FFDA0B"/>
<path d="M49.0579 149.049L34.2868 156.559L28.3237 153.526L43.1176 146.017L49.0579 149.049Z" fill="#FFDA0B"/>
<path d="M34.2868 141.519L28.0961 144.671L22.1331 141.639L28.3237 138.487L34.2868 141.519Z" fill="#FFDA0B"/>
<path d="M28.0961 144.671V159.711L22.1331 156.699V141.639L28.0961 144.671Z" fill="#FFC317"/>
<path d="M13.3251 167.241V173.546L7.36206 170.514V164.209L13.3251 167.241Z" fill="#FFC317"/>
<path d="M49.0581 149.049V155.354L34.287 162.884V177.924L28.0963 181.076V166.036L13.3252 173.546V167.241L28.0963 159.711V144.671L34.287 141.519V156.559L49.0581 149.049Z" fill="#FEBB00"/>
<path d="M106.322 62.1624L114.538 49.5923L122.162 53.4879L127.761 44.9137L120.137 41.0383L128.353 28.4682L122.754 25.6168L114.538 38.1869L106.913 34.2914L101.314 42.8455L108.939 46.741L100.723 59.3111L106.322 62.1624Z" fill="#FEBB00"/>
<path d="M118.474 23.4348L110.246 36.0076L114.524 38.1863L122.751 25.6135L118.474 23.4348Z" fill="#FFC317"/>
<path d="M104.672 44.5525L96.4438 57.1253L100.721 59.304L108.949 46.7312L104.672 44.5525Z" fill="#FFC317"/>
<path d="M102.642 32.1191L97.043 40.6749L101.32 42.8535L106.919 34.2977L102.642 32.1191Z" fill="#FFC317"/>
<path d="M173.281 67.2025C172.302 67.6845 171.619 69.09 171.619 71.7607C171.619 76.0377 173.304 78.5678 175.489 79.6722C175.845 79.9179 176.27 80.0737 176.719 80.1232C177.168 80.1727 177.624 80.114 178.038 79.9533L181.156 78.367C180.743 78.5177 180.293 78.5709 179.85 78.5217C179.407 78.4724 178.987 78.3222 178.629 78.0859C176.353 76.9614 174.76 74.4313 174.76 70.1543C174.76 67.5037 175.443 66.1383 176.422 65.5961L173.281 67.2025Z" fill="#FFDA0B"/>
<path d="M180.951 84.3308C185.708 81.9212 184.888 68.1262 175.625 63.4074C174.838 62.8869 173.906 62.5651 172.927 62.4767C171.949 62.3882 170.962 62.5365 170.072 62.9054L173.19 61.299C174.083 60.9407 175.068 60.7983 176.044 60.8865C177.02 60.9747 177.951 61.2903 178.743 61.801C181.333 63.3522 183.44 65.4518 184.871 67.9075C186.303 70.3632 187.013 73.0964 186.937 75.857C186.937 79.4112 185.89 81.7204 184.092 82.6441L180.951 84.3308Z" fill="#FFC317"/>
<path d="M171.528 71.7607C171.528 76.0377 173.213 78.5678 175.398 79.6722C177.583 80.7766 179.494 79.9734 179.494 75.3751C179.494 71.1382 177.583 68.4073 175.557 67.3431C173.531 66.2788 171.528 67.2025 171.528 71.7607ZM167.159 69.5318C167.159 55.7971 183.796 63.9897 183.796 77.5638C183.796 83.9492 180.405 86.3388 175.352 83.7484C172.725 82.192 170.594 80.0687 169.16 77.5803C167.725 75.092 167.037 72.3213 167.159 69.5318V69.5318Z" fill="#FEBB00"/>
<path d="M198.817 99.3506C197.839 99.8526 197.156 101.258 197.156 103.929C197.156 108.186 198.84 110.716 201.025 111.84C201.384 112.082 201.809 112.236 202.257 112.285C202.705 112.334 203.159 112.278 203.574 112.121L206.692 110.515C206.282 110.676 205.83 110.735 205.385 110.686C204.939 110.636 204.518 110.48 204.166 110.234C201.89 109.13 200.297 106.599 200.297 102.322C200.297 99.6518 200.98 98.3065 201.958 97.7643L198.817 99.3506Z" fill="#FFDA0B"/>
<path d="M206.578 116.499C211.335 114.089 210.516 100.274 201.23 95.5555C200.438 95.0448 199.506 94.7292 198.53 94.641C197.554 94.5528 196.569 94.6951 195.677 95.0535L198.817 93.4672C199.707 93.0982 200.695 92.95 201.673 93.0384C202.651 93.1269 203.584 93.4486 204.371 93.9692C206.977 95.5297 209.094 97.6453 210.526 100.12C211.959 102.595 212.66 105.348 212.564 108.126C212.564 111.68 211.517 113.989 209.719 114.913L206.578 116.499Z" fill="#FFC317"/>
<path d="M197.156 103.929C197.156 108.186 198.84 110.716 201.025 111.84C203.21 112.965 205.122 112.142 205.122 107.523C205.122 103.306 203.21 100.555 201.184 99.4912C199.159 98.427 197.156 99.3707 197.156 103.929ZM192.786 101.7C192.786 87.9452 209.423 96.1378 209.423 109.732C209.423 116.117 206.032 118.507 200.98 115.917C198.354 114.359 196.224 112.235 194.79 109.747C193.356 107.259 192.666 104.489 192.786 101.7V101.7Z" fill="#FEBB00"/>
<path d="M178.994 104.893L202.004 77.0618L205.145 75.4755L182.135 103.286L178.994 104.893Z" fill="#FFDA0B"/>
<path d="M202.004 77.0618L196.337 74.1703L199.478 72.5839L205.145 75.4754L202.004 77.0618Z" fill="#FFC317"/>
<path d="M178.994 104.893L173.326 102.001L196.337 74.1703L202.004 77.0618L178.994 104.893Z" fill="#FEBB00"/>
<path d="M85.2689 60.9577L83.1295 60.7769L78.4182 58.3874L80.5349 58.5481L85.2689 60.9577Z" fill="#FFFDEA"/>
<path d="M83.1295 60.7769V72.6844L78.4182 70.2748V58.3874L83.1295 60.7769Z" fill="#FEBB00"/>
<path d="M83.1295 72.6844L93.5762 140.836L88.865 138.426L78.4182 70.2748L83.1295 72.6844Z" fill="#FCD561"/>
<path d="M85.2688 60.9577L95.1238 131.177L93.5761 140.836L83.1294 72.6844V60.7769L85.2688 60.9577Z" fill="#FCD561"/>
<path d="M83.6075 57.3231L78.1451 60.0941L73.0469 57.4837L78.4865 54.7127L83.6075 57.3231Z" fill="#FFF6A7"/>
<path d="M78.1451 60.0941V74.1501C78.111 74.447 78.1667 74.7465 78.3067 75.0181C78.4466 75.2898 78.6657 75.5238 78.9416 75.6963L73.8434 73.106C73.5657 72.9303 73.3456 72.6928 73.2057 72.4177C73.0657 72.1425 73.0109 71.8396 73.0468 71.5397V57.4837L78.1451 60.0941Z" fill="#FCD561"/>
<path d="M80.6486 45.6165C80.6486 58.287 80.7624 57.3834 80.3755 57.6645C79.7889 58.0733 79.0632 58.2956 78.3157 58.2956C77.5682 58.2956 76.8425 58.0733 76.2559 57.6645C75.8918 57.283 76.0056 58.1062 76.0056 45.6165C76.0056 46.2992 77.007 46.6807 77.7581 46.7811C78.9416 46.9418 80.6486 46.5803 80.6486 45.6165Z" fill="#FCD561"/>
<path d="M76.438 57.9054L76.2559 57.7448V46.1586C76.529 46.4598 76.438 45.0342 76.438 57.9054Z" fill="#FCD561"/>
<path d="M77.0981 46.5803V58.1464C77.038 58.1572 76.9761 58.1572 76.916 58.1464V46.5803H77.0981Z" fill="#FCD561"/>
<path d="M77.6899 46.7811V58.3472H77.4851V46.7811H77.6899Z" fill="#FCD561"/>
<path d="M78.4182 46.8012V58.3874H78.2134V46.8213L78.4182 46.8012Z" fill="#FCD561"/>
<path d="M79.0781 46.741V58.307H78.8733V46.7811L79.0781 46.741Z" fill="#FCD561"/>
<path d="M79.7383 46.5803V58.1665H79.5334V46.5803H79.7383Z" fill="#FCD561"/>
<path d="M80.3756 46.1787V57.7448C80.327 57.808 80.2652 57.8626 80.1935 57.9054C80.1935 45.0542 80.1025 46.4598 80.3756 46.1787Z" fill="#FCD561"/>
<path d="M76.0059 45.6165C76.0059 44.9739 77.0301 44.4318 78.2818 44.4318C79.5336 44.4318 80.5578 44.9739 80.5578 45.6165C80.5578 46.2591 79.5109 46.8012 78.2818 46.8012C77.0528 46.8012 76.0059 46.2791 76.0059 45.6165Z" fill="#FFFDEA"/>
<path d="M78.0085 63.1464L75.778 65.5961L70.8391 63.0861L73.0696 60.6364L78.0085 63.1464Z" fill="#FFFDEA"/>
<path d="M75.7782 65.5961L65.4452 149.711L60.5063 147.181L70.8392 63.0861L75.7782 65.5961Z" fill="#FEBB00"/>
<path d="M78.0083 63.1463V75.616L67.0608 158.165L65.4448 149.711L75.7778 65.5961L78.0083 63.1463Z" fill="#FCD561"/>
<path d="M65.4448 149.711L75.7778 65.5961L65.4448 149.711Z" fill="#FCD561"/>
<path d="M65.4448 149.711L75.7778 65.5961L65.4448 149.711Z" fill="#FFFDEA"/>
<path d="M78.3039 74.0297C75.4817 74.4514 75.0493 71.1382 76.9384 68.2668C77.3172 67.6839 77.7758 67.1444 78.3039 66.6604V66.319C74.6396 69.3912 74.5713 74.8128 78.3039 74.351V74.0297Z" fill="#FCD561"/>
<path d="M83.6074 57.3231V71.3791C83.5535 72.2124 83.2782 73.0228 82.8037 73.7448C82.3293 74.4669 81.669 75.0803 80.8762 75.5357C79.3968 76.2987 78.145 75.6963 78.145 74.1501V60.0941L83.6074 57.3231Z" fill="#9E4A9E"/>
<path d="M80.7167 62.9456C80.3981 62.7849 80.7167 62.1625 81.0354 61.9617C81.354 61.7609 81.5133 61.9616 81.5133 62.2026C81.5133 62.4436 81.0126 63.0861 80.7167 62.9456Z" fill="#FCD561"/>
<path d="M80.9217 71.3591C80.8079 71.3591 80.9216 71.0579 81.0354 70.9776C81.1492 70.8972 81.2175 70.9776 81.2175 70.9776C81.2175 70.9776 81.0355 71.4193 80.9217 71.3591Z" fill="#FCD561"/>
<path d="M67.0611 158.165L63.192 156.217L60.5063 147.181L65.4452 149.711L67.0611 158.165Z" fill="#FCD561"/>
<path d="M64.9444 155.334C64.9444 155.334 64.0568 154.992 63.7837 155.675C63.5105 156.358 64.0795 166.9 64.0795 166.9L65.4451 157.342C65.4451 157.342 66.0596 155.896 64.9444 155.334Z" fill="#FCD561"/>
<path d="M91.7554 138.125C91.7554 138.125 90.8678 137.804 90.5947 138.487C90.3216 139.169 90.8905 149.711 90.8905 149.711L92.2561 140.153C92.2561 140.153 92.8706 138.707 91.7554 138.125Z" fill="#FCD561"/>
<path d="M22.1786 101.499L40.1589 130.736L30.9185 126.037L12.9609 96.8004L22.1786 101.499Z" fill="#9E4A9E"/>
<path d="M63.8974 45.1547L46.0537 54.2509L36.8132 49.5522L54.6569 40.456L63.8974 45.1547Z" fill="#FCEAB2"/>
<path d="M46.0537 54.2509L36.8132 104.049L27.5728 99.3506L36.8132 49.5522L46.0537 54.2509Z" fill="#9E4A9E"/>
<path d="M27.8458 89.4913L9.31933 98.9289L0.0788574 94.2101L18.6054 84.7725L27.8458 89.4913Z" fill="#FCEAB2"/>
<path d="M9.31933 98.9289V108.065L0.0788574 103.367V94.2101L9.31933 98.9289Z" fill="#FCD96E"/>
<path d="M63.8974 45.1547V54.2911L53.3368 59.6725L40.1589 130.736L22.1786 101.499L9.31934 108.065V98.9289L27.8459 89.4913L36.8132 104.049L46.0537 54.2509L63.8974 45.1547Z" fill="#FEB30F"/>
<path d="M157.963 89.1499L156.279 89.9932L151.409 87.5234L153.093 86.66L157.963 89.1499Z" fill="#EAAC88"/>
<path d="M156.279 89.9932C156.143 90.676 156.029 91.2984 155.87 92.0012C155.335 94.1529 153.997 96.0837 152.069 97.4831C150.111 98.8485 148.268 99.23 147.016 98.5875L142.146 96.1176C143.397 96.7602 145.241 96.3586 147.198 94.9932C149.126 93.5937 150.465 91.663 150.999 89.5113C151.181 88.8688 151.272 88.2463 151.409 87.5033L156.279 89.9932Z" fill="#FEB30F"/>
<path d="M141.417 72.1221C141.417 76.9814 136.478 104.792 143.056 108.125L138.185 105.656C137.415 105.234 136.804 104.618 136.433 103.889C132.586 96.8004 136.546 72.8248 136.546 69.7526L141.417 72.1221Z" fill="#FCD96E"/>
<path d="M124.848 80.5557C124.848 81.9412 123.778 94.7924 123.232 99.9931C122.73 104.529 121.271 108.942 118.931 113.005C117.61 115.374 115.084 120.635 117.679 121.961L112.808 119.471C110.828 118.467 111.921 115.274 112.672 113.447C113.787 110.515 117.497 105.816 118.362 97.5634C118.908 92.3828 119.886 79.4914 119.977 78.1461L124.848 80.5557Z" fill="#FCD96E"/>
<path d="M157.918 56.6203C118.339 76.7003 129.696 70.9775 124.211 73.9092C116.973 77.7846 113.536 86.5395 111.829 93.9892L107.004 91.5796C108.666 84.0697 112.103 75.2947 119.34 71.4996C124.825 68.5679 113.491 74.371 153.047 54.2107L157.918 56.6203Z" fill="#FCEAB2"/>
<path d="M157.918 56.6203V63.7688L146.811 69.4313C146.561 71.3189 145.286 86.8608 145.013 92.7442C144.943 94.1917 145.158 95.639 145.65 97.0212C146.629 99.6919 149.542 99.2903 152.069 97.5232C153.997 96.1238 155.335 94.1931 155.87 92.0414C156.029 91.3989 156.143 90.7764 156.279 90.0334L157.963 89.1901C157.652 93.2051 156.543 97.1405 154.686 100.816C153.476 103.219 151.653 105.342 149.36 107.021C146.948 108.648 144.695 109.029 143.056 108.166C136.478 104.832 141.417 76.4995 141.417 72.1622L130.219 77.8649C129.195 91.1981 128.717 102.624 125.94 113.607C125.098 116.88 122.709 122.081 118.908 122.242C116.973 122.242 116.359 120.776 116.632 119.049C117.023 116.947 117.792 114.914 118.908 113.025C121.251 108.956 122.71 104.536 123.209 99.9931C123.755 94.7924 124.734 81.9211 124.825 80.5557C120.046 82.8448 117.406 84.7323 114.196 91.7201C113.582 93.0253 112.945 93.7282 111.92 93.9691C113.605 86.4793 117.041 77.6842 124.279 73.8891C129.696 70.8771 118.339 76.7003 157.918 56.6203Z" fill="#FEB30F"/>
<path d="M241.856 141.498C241.856 137.482 238.92 133.647 233.071 130.675C221.441 124.752 202.596 124.651 190.874 130.535V132.703C202.596 126.88 221.441 126.94 233.071 132.844C238.92 135.836 241.856 139.752 241.856 143.667V141.498Z" fill="#FEB30F"/>
<path d="M242.903 157.02C251.211 152.703 255.376 147.101 255.376 141.478V143.667C255.376 149.269 251.211 154.892 242.903 159.209V157.02Z" fill="#FEB30F"/>
<path d="M162.629 125.896L242.448 166.538V168.727L162.629 128.065V125.896Z" fill="#FEB30F"/>
<path d="M242.448 166.538L252.007 161.659V163.847L242.448 168.727V166.538Z" fill="#EAAC88"/>
<path d="M242.903 157.02C259.609 148.346 259.518 134.37 242.63 125.776C225.742 117.182 198.317 117.121 181.179 125.635L172.075 120.997L162.516 125.876L242.334 166.518L251.893 161.659L242.903 157.02ZM190.874 130.515C202.596 124.692 221.441 124.732 233.071 130.655C244.701 136.579 244.77 146.177 233.344 152.141L190.874 130.515Z" fill="#9E4A9E"/>
<path d="M190.556 180.695L126.031 147.643L144.444 130.354L208.991 163.406L190.556 180.695Z" fill="#FFF6A7"/>
<path d="M133.975 143.828L142.806 135.535C143.423 134.955 144.245 134.576 145.137 134.46C146.029 134.343 146.94 134.495 147.722 134.892L200.069 161.759C200.588 162.027 201.032 162.393 201.369 162.833C201.705 163.272 201.925 163.773 202.013 164.297C202.1 164.822 202.053 165.357 201.874 165.863C201.695 166.369 201.389 166.833 200.98 167.221L192.149 175.514C191.528 176.091 190.705 176.466 189.813 176.579C188.921 176.692 188.012 176.536 187.233 176.137L134.885 149.29C134.366 149.022 133.922 148.655 133.586 148.216C133.249 147.777 133.029 147.276 132.942 146.752C132.854 146.227 132.902 145.692 133.081 145.186C133.259 144.68 133.565 144.216 133.975 143.828Z" fill="#202A5F"/>
<path d="M189.213 176.618C188.006 176.618 191.989 178.466 135.272 149.39C134.872 149.188 134.53 148.909 134.27 148.573C134.011 148.237 133.84 147.854 133.773 147.452C133.705 147.051 133.741 146.64 133.878 146.253C134.016 145.865 134.251 145.509 134.566 145.213L143.397 136.94C143.688 136.665 144.04 136.446 144.432 136.297C144.824 136.149 145.247 136.074 145.673 136.077C146.879 136.077 142.897 134.23 199.614 163.305C200.013 163.508 200.356 163.787 200.616 164.122C200.875 164.458 201.045 164.841 201.113 165.243C201.181 165.645 201.145 166.055 201.008 166.443C200.87 166.831 200.635 167.186 200.319 167.482L191.489 175.775C191.192 176.042 190.838 176.254 190.447 176.399C190.056 176.544 189.637 176.618 189.213 176.618Z" fill="#FCD561"/>
<path d="M124.416 214.389L59.8916 181.337L126.032 147.643L190.556 180.695L124.416 214.389Z" fill="#FFF6A7"/>
<path d="M124.416 222.521L59.8916 189.45V181.337L124.416 214.389V222.521Z" fill="#FCD561"/>
<path d="M208.991 163.406V179.43L124.416 222.521V214.389L190.556 180.695L208.991 163.406Z" fill="#9E4A9E"/>
<path d="M134.407 155.575V158.265C134.38 158.581 134.255 158.885 134.046 159.143C133.838 159.401 133.553 159.605 133.224 159.731L128.149 162.362C127.251 162.757 126.261 162.964 125.258 162.964C124.255 162.964 123.265 162.757 122.368 162.362L117.247 159.731C116.914 159.6 116.627 159.394 116.415 159.133C116.203 158.871 116.074 158.565 116.04 158.245V155.534C116.074 155.854 116.203 156.161 116.415 156.422C116.627 156.683 116.914 156.89 117.247 157.02L122.368 159.631C123.262 160.036 124.253 160.247 125.258 160.247C126.263 160.247 127.254 160.036 128.149 159.631L133.224 157.02C133.55 156.895 133.832 156.695 134.041 156.441C134.249 156.186 134.376 155.887 134.407 155.575V155.575Z" fill="#FFDA0B"/>
<path d="M120.092 162.864V165.554C120.064 165.87 119.939 166.174 119.73 166.432C119.522 166.69 119.237 166.894 118.908 167.02L113.833 169.651C112.935 170.047 111.945 170.253 110.942 170.253C109.939 170.253 108.949 170.047 108.052 169.651L102.953 167.06C102.615 166.934 102.322 166.729 102.106 166.468C101.889 166.206 101.757 165.897 101.724 165.574V162.864C101.757 163.186 101.889 163.495 102.106 163.757C102.322 164.019 102.615 164.223 102.953 164.35L108.074 166.96C108.965 167.365 109.952 167.576 110.953 167.576C111.955 167.576 112.942 167.365 113.833 166.96L118.931 164.35C119.258 164.217 119.538 164.009 119.742 163.747C119.947 163.486 120.067 163.18 120.092 162.864V162.864Z" fill="#FFDA0B"/>
<path d="M105.889 170.092V172.803C105.855 173.12 105.724 173.423 105.512 173.681C105.3 173.939 105.014 174.142 104.683 174.269L99.6077 176.879C98.7134 177.285 97.7225 177.496 96.7171 177.496C95.7118 177.496 94.721 177.285 93.8267 176.879L88.7285 174.269C88.393 174.142 88.1033 173.936 87.8907 173.674C87.6781 173.413 87.5507 173.104 87.5222 172.783V170.072C87.5554 170.392 87.6847 170.699 87.8967 170.96C88.1088 171.221 88.3959 171.428 88.7285 171.558L93.8494 174.169C94.7397 174.574 95.7268 174.785 96.7285 174.785C97.7302 174.785 98.7174 174.574 99.6077 174.169L104.706 171.558C105.032 171.428 105.314 171.224 105.522 170.966C105.73 170.709 105.857 170.407 105.889 170.092V170.092Z" fill="#FFDA0B"/>
<path d="M91.801 177.261V179.972C91.7683 180.287 91.6416 180.588 91.4337 180.846C91.2257 181.103 90.9441 181.308 90.6175 181.438L85.5193 184.048C84.629 184.453 83.6418 184.664 82.6401 184.664C81.6385 184.664 80.6513 184.453 79.7611 184.048L74.6401 181.438C74.3075 181.307 74.0204 181.1 73.8084 180.839C73.5963 180.578 73.4671 180.272 73.4338 179.952V177.241C73.4671 177.561 73.5963 177.867 73.8084 178.128C74.0204 178.39 74.3075 178.596 74.6401 178.727L79.7611 181.337C80.6554 181.742 81.6462 181.954 82.6515 181.954C83.6569 181.954 84.6478 181.742 85.5421 181.337L90.6175 178.727C90.9469 178.6 91.2311 178.397 91.4396 178.139C91.6481 177.88 91.7731 177.577 91.801 177.261V177.261Z" fill="#FFDA0B"/>
<path d="M133.224 157.02L128.148 159.631C127.254 160.036 126.263 160.247 125.258 160.247C124.253 160.247 123.262 160.036 122.367 159.631L117.247 157.02C116.898 156.917 116.596 156.72 116.381 156.457C116.167 156.194 116.052 155.878 116.052 155.555C116.052 155.231 116.167 154.915 116.381 154.652C116.596 154.389 116.898 154.192 117.247 154.089L122.322 151.478C123.214 151.078 124.2 150.869 125.201 150.869C126.202 150.869 127.188 151.078 128.08 151.478L133.201 154.089C134.772 154.872 134.863 156.197 133.224 157.02Z" fill="#9E4A9E"/>
<path d="M118.931 164.309L113.833 166.92C112.942 167.325 111.955 167.536 110.953 167.536C109.952 167.536 108.965 167.325 108.074 166.92L102.953 164.309C101.383 163.526 101.292 162.301 102.953 161.378L108.029 158.767C108.925 158.367 109.915 158.158 110.919 158.158C111.924 158.158 112.914 158.367 113.81 158.767L118.931 161.378C119.279 161.481 119.582 161.678 119.796 161.941C120.01 162.204 120.126 162.52 120.126 162.844C120.126 163.168 120.01 163.483 119.796 163.746C119.582 164.009 119.279 164.206 118.931 164.309Z" fill="#9E4A9E"/>
<path d="M104.706 171.558L99.6075 174.169C98.7173 174.574 97.7301 174.785 96.7284 174.785C95.7267 174.785 94.7396 174.574 93.8493 174.169L88.7283 171.558C88.3828 171.45 88.0838 171.25 87.8724 170.986C87.6609 170.721 87.5474 170.406 87.5474 170.082C87.5474 169.759 87.6609 169.443 87.8724 169.179C88.0838 168.915 88.3828 168.715 88.7283 168.607L93.8037 165.996C94.6997 165.596 95.6899 165.387 96.6943 165.387C97.6986 165.387 98.6888 165.596 99.5847 165.996L104.706 168.607C105.062 168.705 105.374 168.901 105.595 169.166C105.817 169.432 105.936 169.753 105.936 170.082C105.936 170.412 105.817 170.733 105.595 170.998C105.374 171.264 105.062 171.46 104.706 171.558V171.558Z" fill="#9E4A9E"/>
<path d="M90.6176 178.727L85.5422 181.337C84.6479 181.742 83.657 181.954 82.6516 181.954C81.6463 181.954 80.6555 181.742 79.7612 181.337L74.6402 178.727C74.2947 178.619 73.9957 178.419 73.7842 178.154C73.5728 177.89 73.4592 177.574 73.4592 177.251C73.4592 176.927 73.5728 176.612 73.7842 176.348C73.9957 176.083 74.2947 175.883 74.6402 175.775L79.7384 173.185C80.6287 172.78 81.6159 172.568 82.6175 172.568C83.6192 172.568 84.6063 172.78 85.4966 173.185L90.6176 175.795C90.9657 175.898 91.2684 176.095 91.4828 176.358C91.6972 176.621 91.8126 176.937 91.8126 177.261C91.8126 177.585 91.6972 177.901 91.4828 178.164C91.2684 178.427 90.9657 178.624 90.6176 178.727V178.727Z" fill="#9E4A9E"/>
<path d="M149.565 163.285V165.996C149.528 166.312 149.397 166.615 149.185 166.872C148.974 167.129 148.689 167.333 148.359 167.462L143.284 170.072C142.39 170.468 141.404 170.674 140.405 170.674C139.405 170.674 138.419 170.468 137.525 170.072L132.313 167.462C131.981 167.331 131.694 167.125 131.482 166.863C131.27 166.602 131.14 166.296 131.107 165.976V163.265C131.143 163.585 131.273 163.89 131.485 164.151C131.696 164.412 131.982 164.619 132.313 164.751L137.434 167.362C138.329 167.767 139.32 167.978 140.325 167.978C141.33 167.978 142.321 167.767 143.215 167.362L148.291 164.751C148.633 164.631 148.932 164.431 149.156 164.173C149.381 163.915 149.522 163.608 149.565 163.285V163.285Z" fill="#FFDA0B"/>
<path d="M135.25 170.574V173.285C135.212 173.599 135.084 173.899 134.876 174.156C134.669 174.412 134.39 174.618 134.066 174.751L128.968 177.361C128.074 177.757 127.088 177.963 126.089 177.963C125.089 177.963 124.103 177.757 123.21 177.361L118.089 174.751C117.76 174.615 117.477 174.407 117.265 174.147C117.054 173.887 116.922 173.583 116.882 173.265V170.554C116.918 170.874 117.048 171.179 117.26 171.44C117.472 171.701 117.757 171.908 118.089 172.04L123.21 174.651C124.104 175.056 125.095 175.267 126.1 175.267C127.105 175.267 128.096 175.056 128.991 174.651L134.066 172.04C134.391 171.908 134.672 171.704 134.879 171.446C135.087 171.189 135.215 170.889 135.25 170.574V170.574Z" fill="#FFDA0B"/>
<path d="M120.933 177.823V180.514C120.905 180.83 120.781 181.133 120.572 181.392C120.364 181.65 120.079 181.853 119.75 181.98L114.674 184.61C113.777 185.006 112.787 185.212 111.784 185.212C110.781 185.212 109.791 185.006 108.893 184.61L103.772 181.98C103.44 181.849 103.153 181.642 102.941 181.381C102.729 181.12 102.599 180.814 102.566 180.494V177.783C102.599 178.103 102.729 178.409 102.941 178.67C103.153 178.932 103.44 179.138 103.772 179.269L108.893 181.879C109.788 182.285 110.779 182.496 111.784 182.496C112.789 182.496 113.78 182.285 114.674 181.879L119.75 179.269C120.076 179.144 120.358 178.944 120.566 178.689C120.775 178.435 120.901 178.136 120.933 177.823Z" fill="#FFDA0B"/>
<path d="M106.959 184.992V187.703C106.925 188.017 106.795 188.318 106.582 188.573C106.37 188.827 106.083 189.026 105.753 189.148L100.677 191.779C99.7798 192.175 98.7901 192.381 97.7867 192.381C96.7833 192.381 95.7937 192.175 94.8962 191.779L89.7981 189.148C89.4626 189.021 89.1729 188.816 88.9603 188.554C88.7477 188.292 88.6202 187.984 88.5918 187.662V184.972C88.6317 185.29 88.7636 185.594 88.9748 185.854C89.186 186.114 89.4695 186.322 89.7981 186.458L94.919 189.048C95.8093 189.453 96.7964 189.664 97.7981 189.664C98.7998 189.664 99.787 189.453 100.677 189.048L105.775 186.458C106.098 186.323 106.376 186.117 106.583 185.86C106.79 185.604 106.92 185.305 106.959 184.992V184.992Z" fill="#FCDD7C"/>
<path d="M148.382 164.751L143.306 167.362C142.412 167.767 141.421 167.978 140.416 167.978C139.41 167.978 138.42 167.767 137.525 167.362L132.404 164.751C130.834 163.948 130.743 162.743 132.404 161.799L137.503 159.189C138.394 158.789 139.381 158.58 140.382 158.58C141.382 158.58 142.369 158.789 143.261 159.189L148.382 161.799C149.907 162.603 149.998 163.908 148.382 164.751Z" fill="#9E4A9E"/>
<path d="M134.066 172.04L128.99 174.651C128.096 175.056 127.105 175.267 126.1 175.267C125.095 175.267 124.104 175.056 123.209 174.651L118.088 172.04C117.743 171.932 117.444 171.732 117.232 171.468C117.021 171.203 116.907 170.888 116.907 170.564C116.907 170.241 117.021 169.925 117.232 169.661C117.444 169.397 117.743 169.197 118.088 169.088L123.187 166.478C124.079 166.078 125.065 165.869 126.066 165.869C127.066 165.869 128.053 166.078 128.945 166.478L134.066 169.088C134.411 169.197 134.71 169.397 134.922 169.661C135.133 169.925 135.247 170.241 135.247 170.564C135.247 170.888 135.133 171.203 134.922 171.468C134.71 171.732 134.411 171.932 134.066 172.04Z" fill="#9E4A9E"/>
<path d="M119.841 179.269L114.766 181.879C113.871 182.285 112.88 182.496 111.875 182.496C110.87 182.496 109.879 182.285 108.985 181.879L103.864 179.269C103.516 179.166 103.213 178.969 102.998 178.706C102.784 178.443 102.669 178.127 102.669 177.803C102.669 177.479 102.784 177.163 102.998 176.9C103.213 176.637 103.516 176.44 103.864 176.337L108.939 173.727C109.835 173.326 110.825 173.118 111.83 173.118C112.834 173.118 113.824 173.326 114.72 173.727L119.841 176.337C120.189 176.44 120.492 176.637 120.706 176.9C120.921 177.163 121.036 177.479 121.036 177.803C121.036 178.127 120.921 178.443 120.706 178.706C120.492 178.969 120.189 179.166 119.841 179.269Z" fill="#9E4A9E"/>
<path d="M105.775 186.458L100.677 189.148C99.787 189.553 98.7999 189.765 97.7982 189.765C96.7965 189.765 95.8094 189.553 94.9191 189.148L89.7981 186.558C88.2277 185.755 88.1367 184.45 89.7981 183.606L94.8735 180.996C95.7694 180.595 96.7597 180.387 97.7641 180.387C98.7684 180.387 99.7586 180.595 100.655 180.996L105.775 183.606C107.278 184.309 107.391 185.614 105.775 186.458Z" fill="#FCECB8"/>
<path d="M164.951 171.076V173.767C164.923 174.083 164.798 174.387 164.59 174.645C164.381 174.903 164.097 175.106 163.767 175.233L158.692 177.843C157.798 178.248 156.807 178.46 155.802 178.46C154.796 178.46 153.805 178.248 152.911 177.843L147.813 175.233C147.474 175.107 147.181 174.902 146.965 174.64C146.748 174.378 146.617 174.07 146.584 173.747V171.076C146.617 171.399 146.748 171.708 146.965 171.969C147.181 172.231 147.474 172.436 147.813 172.562L152.934 175.173C153.824 175.578 154.811 175.789 155.813 175.789C156.815 175.789 157.802 175.578 158.692 175.173L163.767 172.562C164.1 172.434 164.386 172.228 164.595 171.966C164.804 171.704 164.927 171.396 164.951 171.076V171.076Z" fill="#FFDA0B"/>
<path d="M150.658 178.426V181.116C150.623 181.433 150.493 181.736 150.281 181.994C150.069 182.252 149.782 182.455 149.451 182.582L144.376 185.132C143.482 185.537 142.491 185.749 141.485 185.749C140.48 185.749 139.489 185.537 138.595 185.132L133.497 182.522C133.178 182.399 132.901 182.204 132.694 181.958C132.486 181.711 132.355 181.421 132.313 181.116V178.405C132.346 178.725 132.476 179.032 132.688 179.293C132.9 179.554 133.187 179.761 133.519 179.891L138.64 182.502C139.531 182.907 140.518 183.118 141.52 183.118C142.521 183.118 143.508 182.907 144.399 182.502L149.497 179.891C149.819 179.759 150.096 179.553 150.3 179.296C150.504 179.038 150.627 178.738 150.658 178.426V178.426Z" fill="#FFDA0B"/>
<path d="M136.433 185.654V188.365C136.398 188.682 136.268 188.985 136.056 189.243C135.844 189.501 135.557 189.704 135.227 189.831L130.151 192.441C129.261 192.847 128.274 193.058 127.272 193.058C126.27 193.058 125.283 192.847 124.393 192.441L119.272 189.831C118.936 189.704 118.647 189.498 118.434 189.236C118.222 188.974 118.094 188.666 118.066 188.345V185.634C118.099 185.954 118.228 186.261 118.44 186.522C118.652 186.783 118.939 186.989 119.272 187.12L124.393 189.731C125.287 190.136 126.278 190.347 127.283 190.347C128.289 190.347 129.28 190.136 130.174 189.731L135.249 187.12C135.579 186.994 135.863 186.79 136.072 186.532C136.28 186.274 136.405 185.97 136.433 185.654Z" fill="#FFDA0B"/>
<path d="M122.344 192.823V195.534C122.317 195.85 122.192 196.153 121.983 196.412C121.775 196.67 121.49 196.873 121.161 197L116.086 199.61C115.191 200.015 114.2 200.227 113.195 200.227C112.19 200.227 111.199 200.015 110.305 199.61L105.184 197C104.851 196.869 104.564 196.662 104.352 196.401C104.14 196.14 104.011 195.834 103.977 195.514V192.803C104.011 193.123 104.14 193.429 104.352 193.69C104.564 193.951 104.851 194.158 105.184 194.289L110.305 196.899C111.199 197.304 112.19 197.516 113.195 197.516C114.2 197.516 115.191 197.304 116.086 196.899L121.161 194.289C121.49 194.162 121.775 193.959 121.983 193.701C122.192 193.442 122.317 193.139 122.344 192.823V192.823Z" fill="#9E4A9E"/>
<path d="M163.767 172.582L158.692 175.193C157.802 175.598 156.815 175.809 155.813 175.809C154.811 175.809 153.824 175.598 152.934 175.193L147.813 172.582C147.467 172.474 147.168 172.274 146.957 172.01C146.745 171.745 146.632 171.43 146.632 171.106C146.632 170.783 146.745 170.467 146.957 170.203C147.168 169.939 147.467 169.739 147.813 169.631L152.797 167.06C153.693 166.66 154.683 166.451 155.688 166.451C156.692 166.451 157.682 166.66 158.578 167.06L163.699 169.671C164.042 169.772 164.341 169.964 164.555 170.221C164.77 170.477 164.889 170.786 164.896 171.105C164.904 171.424 164.799 171.737 164.597 172.002C164.395 172.266 164.105 172.469 163.767 172.582V172.582Z" fill="#9E4A9E"/>
<path d="M149.474 179.871L144.376 182.482C143.486 182.887 142.499 183.098 141.497 183.098C140.495 183.098 139.508 182.887 138.618 182.482L133.497 179.871C131.926 179.088 131.835 177.863 133.497 176.94L138.572 174.329C139.468 173.929 140.458 173.72 141.463 173.72C142.467 173.72 143.457 173.929 144.353 174.329L149.474 176.94C149.822 177.043 150.125 177.24 150.34 177.503C150.554 177.766 150.669 178.082 150.669 178.405C150.669 178.729 150.554 179.045 150.34 179.308C150.125 179.571 149.822 179.768 149.474 179.871Z" fill="#9E4A9E"/>
<path d="M135.249 187.14L130.174 189.751C129.28 190.156 128.289 190.367 127.284 190.367C126.278 190.367 125.287 190.156 124.393 189.751L119.272 187.14C117.702 186.337 117.611 185.032 119.272 184.189L124.37 181.578C125.262 181.178 126.249 180.969 127.249 180.969C128.25 180.969 129.237 181.178 130.128 181.578L135.249 184.189C135.606 184.287 135.918 184.483 136.139 184.748C136.36 185.014 136.48 185.335 136.48 185.664C136.48 185.994 136.36 186.315 136.139 186.58C135.918 186.846 135.606 187.042 135.249 187.14V187.14Z" fill="#9E4A9E"/>
<path d="M121.161 194.289L116.086 196.899C115.191 197.304 114.2 197.516 113.195 197.516C112.19 197.516 111.199 197.304 110.305 196.899L105.184 194.289C103.636 193.486 103.545 192.18 105.184 191.337L110.259 188.727C111.151 188.326 112.138 188.118 113.138 188.118C114.139 188.118 115.125 188.326 116.017 188.727L121.138 191.337C121.496 191.433 121.809 191.627 122.032 191.892C122.256 192.156 122.377 192.476 122.38 192.806C122.382 193.135 122.266 193.457 122.046 193.724C121.827 193.99 121.517 194.188 121.161 194.289V194.289Z" fill="#D157D1"/>
<path d="M180.109 178.847V181.558C180.075 181.87 179.947 182.168 179.739 182.422C179.531 182.676 179.25 182.877 178.925 183.004L173.827 185.634C172.934 186.03 171.948 186.236 170.948 186.236C169.948 186.236 168.962 186.03 168.069 185.634L162.948 183.004C162.615 182.873 162.328 182.667 162.116 182.405C161.904 182.144 161.775 181.838 161.742 181.518V178.827C161.782 179.145 161.913 179.449 162.125 179.709C162.336 179.969 162.619 180.177 162.948 180.313L168.069 182.903C168.963 183.309 169.954 183.52 170.959 183.52C171.965 183.52 172.956 183.309 173.85 182.903L178.925 180.313C179.251 180.181 179.531 179.977 179.739 179.719C179.946 179.462 180.074 179.162 180.109 178.847V178.847Z" fill="#9E4A9E"/>
<path d="M165.793 186.136V188.847C165.763 189.16 165.638 189.46 165.429 189.715C165.221 189.97 164.937 190.17 164.609 190.293L159.625 192.923C158.728 193.319 157.738 193.525 156.735 193.525C155.731 193.525 154.742 193.319 153.844 192.923L148.723 190.293C148.39 190.162 148.103 189.956 147.891 189.694C147.679 189.433 147.55 189.127 147.517 188.807V186.116C147.557 186.434 147.689 186.738 147.9 186.998C148.111 187.258 148.395 187.466 148.723 187.602L153.844 190.192C154.738 190.598 155.729 190.809 156.735 190.809C157.74 190.809 158.731 190.598 159.625 190.192L164.701 187.602C165.009 187.46 165.271 187.251 165.462 186.994C165.653 186.738 165.767 186.442 165.793 186.136V186.136Z" fill="#9E4A9E"/>
<path d="M151.568 193.385V196.076C151.54 196.392 151.415 196.695 151.207 196.954C150.998 197.212 150.714 197.415 150.385 197.542L145.309 200.152C144.415 200.557 143.424 200.769 142.419 200.769C141.413 200.769 140.422 200.557 139.528 200.152L134.43 197.542C134.092 197.416 133.799 197.211 133.582 196.949C133.366 196.687 133.234 196.379 133.201 196.056V193.345C133.234 193.668 133.366 193.977 133.582 194.238C133.799 194.5 134.092 194.705 134.43 194.831L139.551 197.441C140.441 197.846 141.428 198.058 142.43 198.058C143.432 198.058 144.419 197.846 145.309 197.441L150.407 194.831C150.728 194.701 151.004 194.5 151.208 194.246C151.412 193.992 151.536 193.695 151.568 193.385V193.385Z" fill="#9E4A9E"/>
<path d="M137.502 200.554V203.204C137.466 203.516 137.337 203.813 137.13 204.067C136.922 204.321 136.642 204.522 136.319 204.65L131.221 207.281C130.327 207.676 129.341 207.882 128.342 207.882C127.342 207.882 126.356 207.676 125.462 207.281L120.342 204.65C120.006 204.523 119.716 204.317 119.504 204.055C119.291 203.794 119.164 203.485 119.135 203.164V200.453C119.168 200.773 119.298 201.08 119.51 201.341C119.722 201.602 120.009 201.809 120.342 201.939L125.462 204.55C126.357 204.955 127.348 205.166 128.353 205.166C129.358 205.166 130.349 204.955 131.243 204.55L136.319 201.939C136.636 201.819 136.912 201.628 137.119 201.385C137.327 201.142 137.459 200.856 137.502 200.554V200.554Z" fill="#9E4A9E"/>
<path d="M178.925 180.313L173.85 182.903C172.955 183.309 171.965 183.52 170.959 183.52C169.954 183.52 168.963 183.309 168.069 182.903L162.948 180.313C162.602 180.205 162.303 180.005 162.092 179.741C161.88 179.476 161.767 179.161 161.767 178.837C161.767 178.514 161.88 178.198 162.092 177.934C162.303 177.67 162.602 177.47 162.948 177.361L168.046 174.751C168.938 174.351 169.924 174.142 170.925 174.142C171.926 174.142 172.912 174.351 173.804 174.751L178.925 177.361C179.271 177.47 179.57 177.67 179.781 177.934C179.993 178.198 180.106 178.514 180.106 178.837C180.106 179.161 179.993 179.476 179.781 179.741C179.57 180.005 179.271 180.205 178.925 180.313V180.313Z" fill="#9E4A9E"/>
<path d="M164.609 187.602L159.625 190.192C158.731 190.598 157.74 190.809 156.734 190.809C155.729 190.809 154.738 190.598 153.844 190.192L148.723 187.602C148.377 187.494 148.078 187.294 147.867 187.03C147.656 186.765 147.542 186.45 147.542 186.126C147.542 185.803 147.656 185.487 147.867 185.223C148.078 184.959 148.377 184.759 148.723 184.65L153.798 182.04C154.69 181.64 155.677 181.431 156.678 181.431C157.678 181.431 158.665 181.64 159.557 182.04L164.678 184.65C166.157 185.454 166.248 186.759 164.609 187.602Z" fill="#9E4A9E"/>
<path d="M150.521 194.831L145.423 197.441C144.533 197.846 143.545 198.058 142.544 198.058C141.542 198.058 140.555 197.846 139.665 197.441L134.544 194.831C132.973 194.048 132.882 192.723 134.544 191.899L139.619 189.289C140.515 188.888 141.505 188.68 142.51 188.68C143.514 188.68 144.504 188.888 145.4 189.289L150.521 191.899C150.869 192.002 151.172 192.199 151.386 192.462C151.601 192.725 151.716 193.041 151.716 193.365C151.716 193.689 151.601 194.005 151.386 194.268C151.172 194.531 150.869 194.728 150.521 194.831V194.831Z" fill="#9E4A9E"/>
<path d="M136.319 202L131.243 204.61C130.349 205.015 129.358 205.226 128.353 205.226C127.348 205.226 126.357 205.015 125.462 204.61L120.341 202C119.993 201.896 119.691 201.7 119.476 201.436C119.262 201.173 119.146 200.858 119.146 200.534C119.146 200.21 119.262 199.894 119.476 199.631C119.691 199.368 119.993 199.171 120.341 199.068L125.44 196.457C126.332 196.057 127.318 195.848 128.319 195.848C129.32 195.848 130.306 196.057 131.198 196.457L136.319 199.068C136.667 199.171 136.97 199.368 137.184 199.631C137.399 199.894 137.514 200.21 137.514 200.534C137.514 200.858 137.399 201.173 137.184 201.436C136.97 201.7 136.667 201.896 136.319 202Z" fill="#9E4A9E"/>
</svg>
