<svg width="185" height="161" viewBox="0 0 185 161" fill="none" xmlns="http://www.w3.org/2000/svg">
<g clip-path="url(#clip0_6_2)">
<path d="M148.973 1.29121L181.815 18.754L159.211 31.3449L126.338 13.9114L148.973 1.29121Z" fill="white"/>
<path d="M156.72 63.2181L156.355 77.6579V136.562L123.482 119.128L123.391 69.0586L154.077 60.2244L156.72 63.2181Z" fill="white"/>
<path d="M156.355 137.854L122.328 119.804V68.2076L154.593 58.9333L158.026 62.8074L157.662 77.6875V137.208L156.355 137.854ZM124.667 118.366L155.049 134.566V77.6581L155.383 63.6291L153.53 61.516L124.546 69.8806L124.667 118.366Z" fill="#9E4A9E"/>
<path d="M94.4678 60.6943L127.31 78.1278L159.211 31.345L126.338 13.9115L94.4678 60.6943Z" fill="white"/>
<path d="M148.973 8.62852L181.815 26.0913L159.211 38.6822L126.338 21.2487L148.973 8.62852Z" fill="#F6CA52"/>
<path d="M148.942 0L125.518 13.0604L92.9487 60.8411L93.7994 61.6335L106.924 72.2873L139.676 89.6621L140.8 90.1317L151.889 73.7254C153.165 71.759 154.32 69.8513 155.383 68.0316C155.383 72.346 155.17 76.8364 155.17 81.7084V137.237L156.355 137.854L183 123.003V18.0792L148.942 0ZM126.946 76.631L96.1388 60.2834L126.733 15.4084L129.468 16.8758L157.54 31.7559L126.946 76.631ZM166.807 25.798L159.181 30.0537L132.809 16.0541L128.799 13.8822L149.033 2.61208L179.415 18.7542L166.807 25.798Z" fill="#9E4A9E"/>
<path d="M151.525 29.7013C151.712 29.75 151.877 29.8569 151.995 30.0055C152.113 30.154 152.176 30.3359 152.176 30.5231C152.176 30.7102 152.113 30.8921 151.995 31.0407C151.877 31.1892 151.712 31.2961 151.525 31.3449C151.063 31.6025 150.539 31.7381 150.006 31.7381C149.472 31.7381 148.948 31.6025 148.487 31.3449C148.3 31.2961 148.134 31.1892 148.017 31.0407C147.899 30.8921 147.835 30.7102 147.835 30.5231C147.835 30.3359 147.899 30.154 148.017 30.0055C148.134 29.8569 148.3 29.75 148.487 29.7013C148.948 29.4437 149.472 29.3081 150.006 29.3081C150.539 29.3081 151.063 29.4437 151.525 29.7013Z" fill="#9E4A9E"/>
<path d="M157.783 27.3826C158.941 27.3826 159.88 26.857 159.88 26.2087C159.88 25.5603 158.941 25.0347 157.783 25.0347C156.626 25.0347 155.687 25.5603 155.687 26.2087C155.687 26.857 156.626 27.3826 157.783 27.3826Z" fill="#9E4A9E"/>
<path d="M165.5 23.0683C166.658 23.0683 167.597 22.5427 167.597 21.8944C167.597 21.246 166.658 20.7204 165.5 20.7204C164.343 20.7204 163.404 21.246 163.404 21.8944C163.404 22.5427 164.343 23.0683 165.5 23.0683Z" fill="#9E4A9E"/>
<path d="M143.778 25.3871C144.598 25.8567 144.598 26.5904 143.778 27.0307C143.316 27.2882 142.792 27.4239 142.258 27.4239C141.725 27.4239 141.201 27.2882 140.739 27.0307C139.919 26.5904 139.919 25.8567 140.739 25.3871C141.21 25.1552 141.73 25.0343 142.258 25.0343C142.787 25.0343 143.307 25.1552 143.778 25.3871Z" fill="#9E4A9E"/>
<path d="M150.036 23.0683C151.194 23.0683 152.133 22.5427 152.133 21.8944C152.133 21.246 151.194 20.7204 150.036 20.7204C148.878 20.7204 147.94 21.246 147.94 21.8944C147.94 22.5427 148.878 23.0683 150.036 23.0683Z" fill="#9E4A9E"/>
<path d="M159.181 16.7582C159.431 16.7582 159.67 16.854 159.847 17.0246C160.024 17.1953 160.123 17.4267 160.123 17.668C160.123 17.9093 160.024 18.1407 159.847 18.3113C159.67 18.482 159.431 18.5778 159.181 18.5778C158.711 18.8097 158.19 18.9306 157.662 18.9306C157.134 18.9306 156.613 18.8097 156.143 18.5778C155.96 18.5199 155.802 18.4079 155.689 18.2577C155.577 18.1075 155.516 17.9268 155.516 17.7414C155.516 17.5559 155.577 17.3752 155.689 17.225C155.802 17.0748 155.96 16.9628 156.143 16.9049C156.601 16.65 157.115 16.5038 157.644 16.4783C158.172 16.4527 158.699 16.5487 159.181 16.7582Z" fill="#9E4A9E"/>
<path d="M134.572 23.0683C135.729 23.0683 136.668 22.5427 136.668 21.8944C136.668 21.246 135.729 20.7204 134.572 20.7204C133.414 20.7204 132.475 21.246 132.475 21.8944C132.475 22.5427 133.414 23.0683 134.572 23.0683Z" fill="#9E4A9E"/>
<path d="M142.319 18.7541C143.477 18.7541 144.416 18.2285 144.416 17.5801C144.416 16.9318 143.477 16.4061 142.319 16.4061C141.161 16.4061 140.223 16.9318 140.223 17.5801C140.223 18.2285 141.161 18.7541 142.319 18.7541Z" fill="#9E4A9E"/>
<path d="M151.525 12.4733C152.345 12.9135 152.345 13.6473 151.525 14.1169C151.054 14.3487 150.534 14.4696 150.006 14.4696C149.478 14.4696 148.957 14.3487 148.487 14.1169C147.666 13.6473 147.666 12.9135 148.487 12.4733C148.948 12.2157 149.472 12.0801 150.006 12.0801C150.539 12.0801 151.063 12.2157 151.525 12.4733Z" fill="#9E4A9E"/>
<path d="M94.0238 28.4376L126.866 45.9004L104.262 58.4913L71.3895 41.0578L94.0238 28.4376Z" fill="white"/>
<path d="M101.771 90.3644L101.407 104.804V163.708L68.5336 146.275L68.4425 96.2049L99.128 87.3708L101.771 90.3644Z" fill="white"/>
<path d="M101.407 165L67.3792 146.95V95.354L99.6446 86.0797L103.078 89.9538L102.713 104.834V164.354L101.407 165ZM69.7186 145.512L100.1 161.713V104.804L100.434 90.7755L98.5812 88.6624L69.5971 97.0269L69.7186 145.512Z" fill="#9E4A9E"/>
<path d="M39.5191 87.8407L72.3617 105.274L104.262 58.4914L71.3894 41.0579L39.5191 87.8407Z" fill="white"/>
<path d="M94.0238 35.7749L126.866 53.2377L104.262 65.8286L71.3895 48.3951L94.0238 35.7749Z" fill="#F6CA52"/>
<path d="M93.9935 27.1464L70.5692 40.2068L38 87.9875L38.8507 88.7799L51.9756 99.4337L84.7271 116.808L85.8512 117.278L96.9405 100.872C98.2165 98.9054 99.371 96.9977 100.434 95.178C100.434 99.4924 100.222 103.983 100.222 108.855V164.384L101.407 165L128.051 150.149V45.2256L93.9935 27.1464ZM71.9971 103.777L41.1901 87.4298L71.7845 42.5548L74.5188 44.0222L102.591 58.9023L71.9971 103.777ZM111.858 52.9444L104.232 57.2001L77.8608 43.2005L73.8504 41.0286L94.0846 29.7585L124.466 45.9006L111.858 52.9444Z" fill="#9E4A9E"/>
<path d="M96.576 56.8477C96.7631 56.8964 96.9283 57.0033 97.0461 57.1519C97.1639 57.3004 97.2277 57.4823 97.2277 57.6695C97.2277 57.8566 97.1639 58.0385 97.0461 58.1871C96.9283 58.3356 96.7631 58.4425 96.576 58.4913C96.1142 58.7488 95.5903 58.8845 95.0569 58.8845C94.5236 58.8845 93.9997 58.7488 93.5379 58.4913C93.3508 58.4425 93.1856 58.3356 93.0678 58.1871C92.95 58.0385 92.8862 57.8566 92.8862 57.6695C92.8862 57.4823 92.95 57.3004 93.0678 57.1519C93.1856 57.0033 93.3508 56.8964 93.5379 56.8477C93.9997 56.5901 94.5236 56.4545 95.0569 56.4545C95.5903 56.4545 96.1142 56.5901 96.576 56.8477Z" fill="#9E4A9E"/>
<path d="M102.835 54.529C103.992 54.529 104.931 54.0034 104.931 53.3551C104.931 52.7067 103.992 52.1811 102.835 52.1811C101.677 52.1811 100.738 52.7067 100.738 53.3551C100.738 54.0034 101.677 54.529 102.835 54.529Z" fill="#9E4A9E"/>
<path d="M110.552 50.2147C111.709 50.2147 112.648 49.6891 112.648 49.0408C112.648 48.3924 111.709 47.8668 110.552 47.8668C109.394 47.8668 108.455 48.3924 108.455 49.0408C108.455 49.6891 109.394 50.2147 110.552 50.2147Z" fill="#9E4A9E"/>
<path d="M88.8288 52.5335C89.6491 53.0031 89.6491 53.7368 88.8288 54.177C88.367 54.4346 87.8431 54.5703 87.3098 54.5703C86.7764 54.5703 86.2525 54.4346 85.7907 54.177C84.9704 53.7368 84.9704 53.0031 85.7907 52.5335C86.2611 52.3016 86.7817 52.1807 87.3098 52.1807C87.8379 52.1807 88.3584 52.3016 88.8288 52.5335Z" fill="#9E4A9E"/>
<path d="M95.0875 50.2147C96.2453 50.2147 97.1839 49.6891 97.1839 49.0408C97.1839 48.3924 96.2453 47.8668 95.0875 47.8668C93.9297 47.8668 92.9912 48.3924 92.9912 49.0408C92.9912 49.6891 93.9297 50.2147 95.0875 50.2147Z" fill="#9E4A9E"/>
<path d="M104.232 43.9046C104.482 43.9046 104.722 44.0004 104.898 44.171C105.075 44.3417 105.174 44.5731 105.174 44.8144C105.174 45.0557 105.075 45.2871 104.898 45.4577C104.722 45.6284 104.482 45.7242 104.232 45.7242C103.762 45.9561 103.241 46.077 102.713 46.077C102.185 46.077 101.665 45.9561 101.194 45.7242C101.012 45.6663 100.853 45.5543 100.74 45.4041C100.628 45.2539 100.567 45.0732 100.567 44.8878C100.567 44.7023 100.628 44.5217 100.74 44.3715C100.853 44.2213 101.012 44.1092 101.194 44.0513C101.652 43.7964 102.167 43.6502 102.695 43.6247C103.223 43.5992 103.75 43.6951 104.232 43.9046Z" fill="#9E4A9E"/>
<path d="M79.623 50.2147C80.7807 50.2147 81.7193 49.6891 81.7193 49.0408C81.7193 48.3924 80.7807 47.8668 79.623 47.8668C78.4652 47.8668 77.5266 48.3924 77.5266 49.0408C77.5266 49.6891 78.4652 50.2147 79.623 50.2147Z" fill="#9E4A9E"/>
<path d="M87.3704 45.9005C88.5282 45.9005 89.4668 45.3749 89.4668 44.7265C89.4668 44.0782 88.5282 43.5526 87.3704 43.5526C86.2126 43.5526 85.2741 44.0782 85.2741 44.7265C85.2741 45.3749 86.2126 45.9005 87.3704 45.9005Z" fill="#9E4A9E"/>
<path d="M96.5759 39.6197C97.3962 40.0599 97.3962 40.7937 96.5759 41.2632C96.1055 41.4951 95.585 41.616 95.0569 41.616C94.5288 41.616 94.0082 41.4951 93.5378 41.2632C92.7175 40.7937 92.7175 40.0599 93.5378 39.6197C93.9996 39.3621 94.5235 39.2265 95.0569 39.2265C95.5902 39.2265 96.1141 39.3621 96.5759 39.6197Z" fill="#9E4A9E"/>
</g>
<defs>
<clipPath id="clip0_6_2">
<rect width="185" height="161" fill="white"/>
</clipPath>
</defs>
</svg>
