<svg width="185" height="161" viewBox="0 0 185 161" fill="none" xmlns="http://www.w3.org/2000/svg">
<path d="M156.621 64.8657L136.432 77.5833L126.194 83.9421L111.855 87.3122L75.7689 80.7627C66.2307 76.6613 57.3919 73.2911 57.3919 73.2911V104.64C57.7098 110.395 62.0656 115.736 70.5228 120.537C81.1881 126.8 93.5742 129.496 105.878 128.231C118.595 127.023 132.839 121.862 148.609 112.747C163.87 103.909 172.656 95.6953 174.966 88.1071C175.209 87.2432 175.379 86.3605 175.475 85.4682C175.475 85.1185 175.475 84.7369 175.475 84.3872V54.1193L156.621 64.8657Z" fill="white"/>
<path d="M100.059 130.012C89.4919 130.026 79.1111 127.227 69.9824 121.904C61.557 117.008 56.9468 111.539 56.3109 105.594V104.894V71.8286L57.9324 72.4326C57.9324 72.4326 66.9302 75.8664 76.3412 79.936L111.919 86.2948L125.813 83.1154L156.144 64.039L176.906 52.5614V84.8323V86.0405V86.7399C176.788 87.5033 176.618 88.2575 176.397 88.9973C174.012 96.9458 165.205 105.244 149.499 114.433C133.793 123.621 119.104 128.867 106.323 130.075C104.119 130.033 102.031 130.012 100.059 130.012ZM58.5683 104.386V104.799C58.8862 110.14 63.1148 115.164 71.0951 119.806C81.5751 125.907 93.7178 128.534 105.782 127.309C118.214 126.133 132.426 120.95 148.005 111.984C162.948 103.368 171.628 95.2925 173.821 88.0435C174.058 87.2567 174.207 86.4465 174.267 85.6272V84.5461V56.3449L157.066 65.8831L126.449 85.3092L111.887 88.7112L75.5463 82.1298C68.3609 78.9504 61.5887 76.3751 58.6001 75.2305L58.5683 104.386Z" fill="#9E4A9E"/>
<path d="M143.172 48.142C141.288 47.2659 139.244 46.7831 137.167 46.723C135.09 46.6628 133.022 47.0267 131.09 47.7923C123.067 50.6549 115.372 54.3639 108.135 58.8566C98.0247 64.6749 91.7295 69.0625 89.0588 71.9875C86.3881 74.9126 86.7695 77.2018 89.7263 78.9187C91.6422 79.8055 93.7193 80.2912 95.8298 80.3459C97.9403 80.4006 100.04 80.023 101.999 79.2366C109.875 76.4171 117.431 72.7723 124.541 68.363C131.392 64.8427 137.752 60.4388 143.458 55.2639C146.288 52.2435 146.161 49.8589 143.172 48.142Z" fill="white"/>
<path d="M95.5764 81.4939C93.3585 81.5634 91.1625 81.0364 89.2176 79.9678C88.4785 79.6244 87.8276 79.1163 87.3151 78.4826C86.8026 77.8488 86.442 77.1062 86.2608 76.3115C86.1865 75.3653 86.3249 74.4144 86.666 73.5286C87.0071 72.6429 87.5422 71.8447 88.232 71.1927C90.8709 68.0133 97.1661 63.7529 107.499 57.8074C114.807 53.276 122.577 49.5351 130.677 46.6477C132.768 45.8353 135.002 45.4586 137.244 45.5406C139.485 45.6226 141.687 46.1617 143.713 47.1247C144.442 47.4646 145.082 47.9687 145.584 48.5975C146.086 49.2263 146.436 49.9628 146.606 50.7492C146.665 51.7425 146.499 52.7363 146.119 53.656C145.739 54.5756 145.155 55.3972 144.412 56.0588C138.659 61.318 132.246 65.8068 125.336 69.4122C118.142 73.8562 110.501 77.5326 102.539 80.3811C100.282 81.0785 97.9382 81.4531 95.5764 81.4939ZM137.481 47.9513C135.42 47.9869 133.375 48.3188 131.408 48.9369C123.487 51.7715 115.888 55.4376 108.739 59.874C98.7877 65.6287 92.5241 69.9527 90.1078 72.7506C89.6661 73.1558 89.3116 73.6467 89.0657 74.1933C88.8197 74.7398 88.6876 75.3307 88.6772 75.93C88.6772 76.6295 89.3766 77.2971 90.4576 77.933C92.2346 78.7241 94.1527 79.1487 96.0975 79.1815C98.0422 79.2143 99.9737 78.8545 101.776 78.1238C109.548 75.3246 117.007 71.7231 124.032 67.3774C130.765 63.9599 137.028 59.6852 142.663 54.6598C143.153 54.2412 143.549 53.7255 143.828 53.1453C144.108 52.5651 144.263 51.9331 144.285 51.2897C144.147 50.8698 143.923 50.4833 143.627 50.1549C143.332 49.8264 142.971 49.5632 142.568 49.382C141.031 48.4583 139.274 47.9642 137.481 47.9513Z" fill="#9E4A9E"/>
<path d="M148.704 82.1298C132.871 91.2653 118.627 96.4265 105.973 97.6135C93.6697 98.8782 81.2836 96.1827 70.6184 89.9193C60.0204 83.7513 55.7811 76.8838 57.9007 69.3169C60.0203 61.7499 68.7424 53.5894 84.0671 44.8355C99.9641 35.6788 114.271 30.4752 126.989 29.2247C139.362 27.9488 151.818 30.6674 162.535 36.9824C173.133 43.108 177.308 49.9861 175.062 57.6167C172.772 65.2154 163.965 73.4183 148.704 82.1298ZM108.135 58.7295C98.0247 64.5478 91.7295 68.9353 89.0588 71.8604C86.3881 74.7854 86.7695 77.0746 89.7264 78.7915C91.6423 79.6783 93.7193 80.1641 95.8298 80.2187C97.9403 80.2734 100.04 79.8959 101.999 79.1094C109.875 76.2899 117.431 72.6451 124.541 68.2359C131.392 64.7156 137.752 60.3116 143.458 55.1367C146.161 51.9573 146.034 49.7318 143.045 48.0149C141.161 47.1388 139.117 46.6559 137.04 46.5958C134.963 46.5357 132.895 46.8995 130.963 47.6652C122.979 50.5765 115.327 54.328 108.135 58.8566V58.7295Z" fill="white"/>
<path d="M162.535 47.1564C151.842 40.8761 139.414 38.2009 127.084 39.5259C114.367 40.7341 100.059 45.9376 84.1624 55.1367C70.0141 63.276 61.557 71.0337 58.7273 78.0284V88.4886C61.4622 93.4559 65.6576 97.4627 70.7454 99.9663C81.4135 106.221 93.8 108.905 106.1 107.629C118.818 106.442 133.062 101.28 148.831 92.1449C164.093 83.3274 172.878 75.1139 175.189 67.5046C177.499 59.8952 173.281 53.1125 162.535 47.1564ZM143.458 65.4062C137.748 70.5837 131.388 74.9976 124.541 78.5371C117.432 82.9393 109.876 86.5737 101.999 89.3788C100.043 90.1759 97.9442 90.5617 95.8329 90.5125C93.7215 90.4633 91.6428 89.98 89.7263 89.0927C86.7801 87.3758 86.5577 85.0549 89.0588 82.1298C91.6023 79.2048 97.8975 74.849 108.135 68.9989C115.354 64.5016 123.04 60.8023 131.059 57.9664C132.996 57.1999 135.069 56.8357 137.151 56.8958C139.234 56.9559 141.282 57.4392 143.172 58.3161C146.129 59.874 146.256 62.2268 143.458 65.2472V65.4062Z" fill="#F6CA52"/>
<path d="M106.895 97.6453V128.835L134.588 121.618L160.436 105.18L174.426 91.1593L176.206 76.4387L176.842 56.7582L167.304 69.4758L156.049 77.774L135.383 89.1563L106.895 97.6453Z" fill="#9E4A9E"/>
<path d="M125.177 49.9861V68.3312L106.895 77.4879L98.4381 79.9043L91.4115 79.6499L87.9777 77.2336V73.768L92.556 68.9035L111.474 56.949L125.177 49.9861Z" fill="#9E4A9E"/>
<path d="M100.091 99.2032C89.5217 99.2326 79.137 96.4333 70.0142 91.0957C58.8227 84.737 54.4033 77.2336 56.8196 69.1261C59.236 61.0186 67.9476 52.943 83.5267 43.9453C99.1057 34.9476 114.112 29.4154 126.925 28.0483C139.507 26.7315 152.181 29.4601 163.107 35.8378C174.235 42.1966 178.654 49.6682 176.174 57.8392C173.694 66.0103 164.983 74.0859 149.277 83.2744C133.38 92.4629 118.85 97.7089 106.1 98.917C104.066 99.1078 102.062 99.2032 100.091 99.2032ZM133.125 30.2738C131.154 30.2738 129.151 30.2738 127.148 30.56C114.685 31.7681 100.377 36.9188 84.703 46.0119C69.887 54.5644 61.2708 62.5765 59.2677 69.7937C57.2647 77.011 61.1436 83.1154 71.3495 88.8701C81.8351 94.957 93.9729 97.5826 106.037 96.3735C118.436 95.2289 132.648 90.0147 148.259 81.0488C163.202 72.4327 171.882 64.357 174.076 57.108C176.27 49.8589 172.264 43.7545 162.089 37.8726C153.28 32.8139 143.283 30.1912 133.125 30.2738ZM95.5765 81.494C93.3585 81.5634 91.1626 81.0364 89.2177 79.9679C88.4786 79.6244 87.8277 79.1163 87.3152 78.4826C86.8027 77.8488 86.4421 77.1062 86.2609 76.3115C86.1866 75.3653 86.325 74.4144 86.6661 73.5286C87.0072 72.6429 87.5423 71.8447 88.2321 71.1927C90.871 68.0133 97.1662 63.7529 107.499 57.8074C114.808 53.2761 122.577 49.5351 130.677 46.6477C132.768 45.8353 135.002 45.4586 137.244 45.5406C139.486 45.6226 141.687 46.1617 143.713 47.1247C144.442 47.4646 145.082 47.9687 145.584 48.5975C146.086 49.2263 146.436 49.9628 146.606 50.7492C146.665 51.7425 146.499 52.7363 146.119 53.656C145.739 54.5756 145.155 55.3972 144.412 56.0588C138.659 61.318 132.246 65.8068 125.336 69.4122C118.142 73.8562 110.501 77.5327 102.539 80.3811C100.283 81.0785 97.9383 81.4531 95.5765 81.494ZM108.739 59.874C98.7878 65.6287 92.5242 69.9527 90.1078 72.7506C89.6662 73.1558 89.3117 73.6467 89.0658 74.1933C88.8198 74.7398 88.6877 75.3307 88.6773 75.93C88.6773 76.6295 89.3767 77.2971 90.4577 77.933C92.2346 78.7241 94.1528 79.1487 96.0976 79.1815C98.0423 79.2143 99.9738 78.8546 101.776 78.1238C109.548 75.3247 117.007 71.7231 124.032 67.3774C130.765 63.9599 137.028 59.6852 142.663 54.6598C143.153 54.2412 143.549 53.7255 143.829 53.1453C144.108 52.5651 144.263 51.9332 144.285 51.2897C144.147 50.8698 143.923 50.4833 143.627 50.1549C143.332 49.8264 142.971 49.5632 142.568 49.382C140.816 48.586 138.922 48.153 136.998 48.1093C135.075 48.0656 133.162 48.412 131.377 49.1277C123.455 51.9622 115.856 55.6284 108.707 60.0648L108.739 59.874Z" fill="#9E4A9E"/>
<path d="M137.354 97.2956C136.495 96.8187 136.495 95.992 137.354 95.4833C137.848 95.237 138.392 95.1088 138.944 95.1088C139.495 95.1088 140.039 95.237 140.533 95.4833C141.328 95.992 138.212 97.8043 137.354 97.2956Z" fill="#9E4A9E"/>
<path d="M145.493 92.5901C145.302 92.5273 145.136 92.406 145.018 92.2433C144.9 92.0806 144.837 91.8848 144.837 91.684C144.837 91.4831 144.9 91.2873 145.018 91.1246C145.136 90.9619 145.302 90.8406 145.493 90.7778C145.989 90.5385 146.532 90.4142 147.083 90.4142C147.633 90.4142 148.177 90.5385 148.673 90.7778C149.499 91.2865 146.383 93.0988 145.493 92.5901Z" fill="#9E4A9E"/>
<path d="M153.664 87.8845C153.474 87.8218 153.307 87.7005 153.19 87.5377C153.072 87.375 153.008 87.1793 153.008 86.9784C153.008 86.7775 153.072 86.5818 153.19 86.4191C153.307 86.2564 153.474 86.135 153.664 86.0723C154.153 85.8107 154.699 85.6738 155.254 85.6738C155.809 85.6738 156.355 85.8107 156.844 86.0723C157.67 86.581 154.523 88.4886 153.664 87.8845Z" fill="#9E4A9E"/>
<path d="M107.818 104.926C108.008 104.989 108.175 105.11 108.292 105.273C108.41 105.436 108.474 105.631 108.474 105.832C108.474 106.033 108.41 106.229 108.292 106.392C108.175 106.554 108.008 106.676 107.818 106.738C107.322 106.978 106.778 107.102 106.228 107.102C105.677 107.102 105.134 106.978 104.638 106.738C104.447 106.676 104.281 106.554 104.163 106.392C104.046 106.229 103.982 106.033 103.982 105.832C103.982 105.631 104.046 105.436 104.163 105.273C104.281 105.11 104.447 104.989 104.638 104.926C105.129 104.67 105.674 104.536 106.228 104.536C106.781 104.536 107.327 104.67 107.818 104.926Z" fill="#9E4A9E"/>
<path d="M115.957 100.221C116.847 100.698 116.847 101.524 115.957 102.001C115.468 102.263 114.922 102.4 114.367 102.4C113.812 102.4 113.266 102.263 112.777 102.001C112.581 101.949 112.409 101.833 112.285 101.672C112.162 101.511 112.095 101.314 112.095 101.111C112.095 100.908 112.162 100.711 112.285 100.55C112.409 100.389 112.581 100.274 112.777 100.221C113.266 99.9592 113.812 99.8224 114.367 99.8224C114.922 99.8224 115.468 99.9592 115.957 100.221Z" fill="#9E4A9E"/>
<path d="M124.128 95.4833C124.986 95.992 124.986 96.8187 124.128 97.2956C123.639 97.5572 123.093 97.6941 122.538 97.6941C121.983 97.6941 121.437 97.5572 120.948 97.2956C120.09 96.8187 120.09 95.992 120.948 95.4833C121.442 95.237 121.986 95.1088 122.538 95.1088C123.09 95.1088 123.634 95.237 124.128 95.4833Z" fill="#9E4A9E"/>
<path d="M130.741 92.9717C131.953 92.9717 132.935 92.4023 132.935 91.6999C132.935 90.9975 131.953 90.4281 130.741 90.4281C129.529 90.4281 128.547 90.9975 128.547 91.6999C128.547 92.4023 129.529 92.9717 130.741 92.9717Z" fill="#9E4A9E"/>
<path d="M140.47 86.0723C140.661 86.135 140.827 86.2564 140.945 86.4191C141.063 86.5818 141.126 86.7775 141.126 86.9784C141.126 87.1793 141.063 87.375 140.945 87.5377C140.827 87.7005 140.661 87.8218 140.47 87.8845C139.976 88.1308 139.432 88.259 138.88 88.259C138.329 88.259 137.784 88.1308 137.291 87.8845C137.1 87.8218 136.934 87.7005 136.816 87.5377C136.698 87.375 136.635 87.1793 136.635 86.9784C136.635 86.7775 136.698 86.5818 136.816 86.4191C136.934 86.2564 137.1 86.135 137.291 86.0723C137.78 85.8107 138.326 85.6738 138.88 85.6738C139.435 85.6738 139.981 85.8107 140.47 86.0723Z" fill="#9E4A9E"/>
<path d="M148.641 81.367C149.499 81.8439 149.499 82.6706 148.641 83.1793C148.145 83.4187 147.602 83.543 147.051 83.543C146.501 83.543 145.957 83.4187 145.461 83.1793C144.603 82.6706 144.603 81.8439 145.461 81.367C145.952 81.1107 146.498 80.9769 147.051 80.9769C147.605 80.9769 148.15 81.1107 148.641 81.367Z" fill="#9E4A9E"/>
<path d="M156.78 76.6614C157.671 77.1383 157.671 77.9649 156.78 78.4419C156.291 78.7035 155.745 78.8403 155.191 78.8403C154.636 78.8403 154.09 78.7035 153.601 78.4419C153.405 78.3891 153.232 78.2733 153.109 78.1124C152.986 77.9514 152.919 77.7543 152.919 77.5516C152.919 77.3489 152.986 77.1518 153.109 76.9909C153.232 76.83 153.405 76.7142 153.601 76.6614C154.09 76.3998 154.636 76.2629 155.191 76.2629C155.745 76.2629 156.291 76.3998 156.78 76.6614Z" fill="#9E4A9E"/>
<path d="M164.951 71.9242C165.142 71.9869 165.308 72.1083 165.426 72.271C165.544 72.4337 165.607 72.6295 165.607 72.8303C165.607 73.0312 165.544 73.227 165.426 73.3897C165.308 73.5524 165.142 73.6738 164.951 73.7365C164.462 73.9981 163.916 74.135 163.362 74.135C162.807 74.135 162.261 73.9981 161.772 73.7365C161.581 73.6738 161.415 73.5524 161.297 73.3897C161.179 73.227 161.116 73.0312 161.116 72.8303C161.116 72.6295 161.179 72.4337 161.297 72.271C161.415 72.1083 161.581 71.9869 161.772 71.9242C162.266 71.6779 162.81 71.5497 163.362 71.5497C163.913 71.5497 164.458 71.6779 164.951 71.9242Z" fill="#9E4A9E"/>
<path d="M173.122 69.0307C172.633 69.2923 172.087 69.4292 171.533 69.4292C170.978 69.4292 170.432 69.2923 169.943 69.0307C169.752 68.9679 169.586 68.8465 169.468 68.6838C169.35 68.5211 169.287 68.3254 169.287 68.1245C169.287 67.9237 169.35 67.7279 169.468 67.5652C169.586 67.4025 169.752 67.2811 169.943 67.2184C170.437 66.9721 170.981 66.8439 171.533 66.8439C172.084 66.8439 172.629 66.9721 173.122 67.2184C173.313 67.2811 173.479 67.4025 173.597 67.5652C173.715 67.7279 173.778 67.9237 173.778 68.1245C173.778 68.3254 173.715 68.5211 173.597 68.6838C173.479 68.8465 173.313 68.9679 173.122 69.0307Z" fill="#9E4A9E"/>
<path d="M91.4752 104.926C91.666 104.989 91.832 105.11 91.9498 105.273C92.0676 105.436 92.1311 105.632 92.1311 105.832C92.1311 106.033 92.0676 106.229 91.9498 106.392C91.832 106.554 91.666 106.676 91.4752 106.739C90.9814 106.985 90.4372 107.113 89.8855 107.113C89.3337 107.113 88.7895 106.985 88.2958 106.739C88.1049 106.676 87.9387 106.554 87.8209 106.392C87.7031 106.229 87.6397 106.033 87.6397 105.832C87.6397 105.632 87.7031 105.436 87.8209 105.273C87.9387 105.11 88.1049 104.989 88.2958 104.926C88.7848 104.665 89.3308 104.528 89.8855 104.528C90.4401 104.528 90.9861 104.665 91.4752 104.926Z" fill="#9E4A9E"/>
<path d="M99.6462 100.221C99.842 100.274 100.015 100.389 100.138 100.55C100.261 100.711 100.328 100.908 100.328 101.111C100.328 101.314 100.261 101.511 100.138 101.672C100.015 101.833 99.842 101.949 99.6462 102.001C99.1572 102.263 98.6112 102.4 98.0565 102.4C97.5019 102.4 96.9559 102.263 96.4668 102.001C96.2711 101.949 96.0984 101.833 95.9751 101.672C95.8518 101.511 95.7849 101.314 95.7849 101.111C95.7849 100.908 95.8518 100.711 95.9751 100.55C96.0984 100.389 96.2711 100.274 96.4668 100.221C96.9559 99.9592 97.5019 99.8224 98.0565 99.8224C98.6112 99.8224 99.1572 99.9592 99.6462 100.221Z" fill="#9E4A9E"/>
<path d="M107.817 95.4833C108.675 95.992 108.675 96.8187 107.817 97.2956C107.326 97.5519 106.781 97.6857 106.227 97.6857C105.674 97.6857 105.128 97.5519 104.638 97.2956C103.779 96.8187 103.779 95.992 104.638 95.4833C105.133 95.2439 105.677 95.1196 106.227 95.1196C106.778 95.1196 107.321 95.2439 107.817 95.4833Z" fill="#9E4A9E"/>
<path d="M115.957 90.7778C116.847 91.2866 116.847 92.0814 115.957 92.5901C115.468 92.8517 114.921 92.9886 114.367 92.9886C113.812 92.9886 113.266 92.8517 112.777 92.5901C112.586 92.5274 112.42 92.406 112.303 92.2433C112.185 92.0806 112.121 91.8849 112.121 91.684C112.121 91.4831 112.185 91.2873 112.303 91.1246C112.42 90.9619 112.586 90.8406 112.777 90.7778C113.271 90.5315 113.815 90.4033 114.367 90.4033C114.919 90.4033 115.463 90.5315 115.957 90.7778Z" fill="#9E4A9E"/>
<path d="M124.127 86.0723C124.318 86.135 124.485 86.2564 124.602 86.4191C124.72 86.5818 124.784 86.7775 124.784 86.9784C124.784 87.1793 124.72 87.375 124.602 87.5377C124.485 87.7005 124.318 87.8218 124.127 87.8845C123.634 88.1308 123.09 88.259 122.538 88.259C121.986 88.259 121.442 88.1308 120.948 87.8845C120.757 87.8218 120.591 87.7005 120.473 87.5377C120.356 87.375 120.292 87.1793 120.292 86.9784C120.292 86.7775 120.356 86.5818 120.473 86.4191C120.591 86.2564 120.757 86.135 120.948 86.0723C121.437 85.8107 121.983 85.6738 122.538 85.6738C123.092 85.6738 123.638 85.8107 124.127 86.0723Z" fill="#9E4A9E"/>
<path d="M132.299 81.3668C133.157 81.8438 133.157 82.6704 132.299 83.1791C131.805 83.4254 131.261 83.5537 130.709 83.5537C130.157 83.5537 129.613 83.4254 129.119 83.1791C128.261 82.6704 128.261 81.8438 129.119 81.3668C129.608 81.1052 130.154 80.9684 130.709 80.9684C131.264 80.9684 131.81 81.1052 132.299 81.3668Z" fill="#9E4A9E"/>
<path d="M140.47 76.6614C140.665 76.7142 140.838 76.83 140.962 76.9909C141.085 77.1518 141.152 77.3489 141.152 77.5516C141.152 77.7543 141.085 77.9514 140.962 78.1124C140.838 78.2733 140.665 78.3891 140.47 78.4419C139.981 78.7035 139.435 78.8403 138.88 78.8403C138.325 78.8403 137.779 78.7035 137.29 78.4419C137.095 78.3891 136.922 78.2733 136.798 78.1124C136.675 77.9514 136.608 77.7543 136.608 77.5516C136.608 77.3489 136.675 77.1518 136.798 76.9909C136.922 76.83 137.095 76.7142 137.29 76.6614C137.779 76.3998 138.325 76.2629 138.88 76.2629C139.435 76.2629 139.981 76.3998 140.47 76.6614Z" fill="#9E4A9E"/>
<path d="M148.641 71.9242C148.832 71.9869 148.998 72.1083 149.116 72.271C149.233 72.4338 149.297 72.6295 149.297 72.8304C149.297 73.0312 149.233 73.227 149.116 73.3897C148.998 73.5524 148.832 73.6738 148.641 73.7365C148.15 73.9928 147.605 74.1266 147.051 74.1266C146.497 74.1266 145.952 73.9928 145.461 73.7365C145.27 73.6738 145.104 73.5524 144.986 73.3897C144.869 73.227 144.805 73.0312 144.805 72.8304C144.805 72.6295 144.869 72.4338 144.986 72.271C145.104 72.1083 145.27 71.9869 145.461 71.9242C145.957 71.6849 146.5 71.5606 147.051 71.5606C147.601 71.5606 148.145 71.6849 148.641 71.9242Z" fill="#9E4A9E"/>
<path d="M156.78 67.2184C157.67 67.7271 157.67 68.522 156.78 69.0307C156.291 69.2923 155.745 69.4292 155.19 69.4292C154.636 69.4292 154.09 69.2923 153.601 69.0307C153.41 68.9679 153.243 68.8465 153.126 68.6838C153.008 68.5211 152.945 68.3254 152.945 68.1245C152.945 67.9237 153.008 67.7279 153.126 67.5652C153.243 67.4025 153.41 67.2811 153.601 67.2184C154.094 66.9721 154.638 66.8439 155.19 66.8439C155.742 66.8439 156.286 66.9721 156.78 67.2184Z" fill="#9E4A9E"/>
<path d="M164.951 62.5132C165.142 62.5759 165.308 62.6973 165.426 62.86C165.544 63.0227 165.607 63.2185 165.607 63.4194C165.607 63.6202 165.544 63.816 165.426 63.9787C165.308 64.1414 165.142 64.2627 164.951 64.3255C164.458 64.5718 163.913 64.7 163.362 64.7C162.81 64.7 162.266 64.5718 161.772 64.3255C161.581 64.2627 161.415 64.1414 161.297 63.9787C161.179 63.816 161.116 63.6202 161.116 63.4194C161.116 63.2185 161.179 63.0227 161.297 62.86C161.415 62.6973 161.581 62.5759 161.772 62.5132C162.261 62.2516 162.807 62.1147 163.362 62.1147C163.916 62.1147 164.462 62.2516 164.951 62.5132Z" fill="#9E4A9E"/>
<path d="M173.122 57.8074C173.318 57.8602 173.491 57.976 173.614 58.1369C173.738 58.2978 173.804 58.4949 173.804 58.6976C173.804 58.9003 173.738 59.0974 173.614 59.2583C173.491 59.4193 173.318 59.5351 173.122 59.5879C172.633 59.8495 172.087 59.9863 171.533 59.9863C170.978 59.9863 170.432 59.8495 169.943 59.5879C169.747 59.5351 169.574 59.4193 169.451 59.2583C169.328 59.0974 169.261 58.9003 169.261 58.6976C169.261 58.4949 169.328 58.2978 169.451 58.1369C169.574 57.976 169.747 57.8602 169.943 57.8074C170.432 57.5458 170.978 57.4089 171.533 57.4089C172.087 57.4089 172.633 57.5458 173.122 57.8074Z" fill="#9E4A9E"/>
<path d="M81.7464 102.383C82.958 102.383 83.9402 101.814 83.9402 101.111C83.9402 100.409 82.958 99.8394 81.7464 99.8394C80.5348 99.8394 79.5526 100.409 79.5526 101.111C79.5526 101.814 80.5348 102.383 81.7464 102.383Z" fill="#9E4A9E"/>
<path d="M91.4753 95.4833C92.3337 95.992 92.3337 96.8187 91.4753 97.2956C90.9863 97.5572 90.4402 97.6941 89.8856 97.6941C89.331 97.6941 88.785 97.5572 88.2959 97.2956C87.4375 96.8187 87.4375 95.992 88.2959 95.4833C88.7896 95.237 89.3339 95.1088 89.8856 95.1088C90.4374 95.1088 90.9816 95.237 91.4753 95.4833Z" fill="#9E4A9E"/>
<path d="M99.6462 90.7778C99.8371 90.8406 100.003 90.9619 100.121 91.1246C100.239 91.2873 100.302 91.4831 100.302 91.684C100.302 91.8849 100.239 92.0806 100.121 92.2433C100.003 92.406 99.8371 92.5274 99.6462 92.5901C99.1572 92.8517 98.6111 92.9886 98.0565 92.9886C97.5019 92.9886 96.9559 92.8517 96.4668 92.5901C96.276 92.5274 96.11 92.406 95.9922 92.2433C95.8744 92.0806 95.8109 91.8849 95.8109 91.684C95.8109 91.4831 95.8744 91.2873 95.9922 91.1246C96.11 90.9619 96.276 90.8406 96.4668 90.7778C96.9606 90.5315 97.5048 90.4033 98.0565 90.4033C98.6083 90.4033 99.1525 90.5315 99.6462 90.7778Z" fill="#9E4A9E"/>
<path d="M148.641 62.513C148.832 62.5757 148.998 62.6971 149.116 62.8598C149.233 63.0225 149.297 63.2183 149.297 63.4192C149.297 63.62 149.233 63.8158 149.116 63.9785C148.998 64.1412 148.832 64.2625 148.641 64.3253C148.145 64.5646 147.601 64.689 147.051 64.689C146.5 64.689 145.957 64.5646 145.461 64.3253C145.27 64.2625 145.104 64.1412 144.986 63.9785C144.869 63.8158 144.805 63.62 144.805 63.4192C144.805 63.2183 144.869 63.0225 144.986 62.8598C145.104 62.6971 145.27 62.5757 145.461 62.513C145.952 62.2567 146.497 62.1229 147.051 62.1229C147.605 62.1229 148.15 62.2567 148.641 62.513Z" fill="#9E4A9E"/>
<path d="M156.78 57.8074C157.671 58.2843 157.671 59.1109 156.78 59.5879C156.291 59.8495 155.745 59.9863 155.191 59.9863C154.636 59.9863 154.09 59.8495 153.601 59.5879C153.405 59.5351 153.232 59.4193 153.109 59.2583C152.986 59.0974 152.919 58.9003 152.919 58.6976C152.919 58.4949 152.986 58.2978 153.109 58.1369C153.232 57.976 153.405 57.8602 153.601 57.8074C154.09 57.5458 154.636 57.4089 155.191 57.4089C155.745 57.4089 156.291 57.5458 156.78 57.8074Z" fill="#9E4A9E"/>
<path d="M164.951 53.102C165.147 53.1547 165.32 53.2705 165.443 53.4315C165.566 53.5924 165.633 53.7895 165.633 53.9922C165.633 54.1949 165.566 54.392 165.443 54.5529C165.32 54.7138 165.147 54.8296 164.951 54.8824C164.462 55.144 163.916 55.2809 163.361 55.2809C162.807 55.2809 162.261 55.144 161.772 54.8824C161.576 54.8296 161.403 54.7138 161.28 54.5529C161.156 54.392 161.09 54.1949 161.09 53.9922C161.09 53.7895 161.156 53.5924 161.28 53.4315C161.403 53.2705 161.576 53.1547 161.772 53.102C162.261 52.8403 162.807 52.7035 163.361 52.7035C163.916 52.7035 164.462 52.8403 164.951 53.102Z" fill="#9E4A9E"/>
<path d="M75.0695 95.4517C75.2604 95.5145 75.4266 95.6358 75.5444 95.7985C75.6622 95.9612 75.7256 96.157 75.7256 96.3579C75.7256 96.5588 75.6622 96.7545 75.5444 96.9172C75.4266 97.0799 75.2604 97.2013 75.0695 97.264C74.5758 97.5103 74.0316 97.6386 73.4798 97.6386C72.9281 97.6386 72.3839 97.5103 71.8901 97.264C71.6993 97.2013 71.5333 97.0799 71.4155 96.9172C71.2977 96.7545 71.2342 96.5588 71.2342 96.3579C71.2342 96.157 71.2977 95.9612 71.4155 95.7985C71.5333 95.6358 71.6993 95.5145 71.8901 95.4517C72.3792 95.1901 72.9252 95.0533 73.4798 95.0533C74.0345 95.0533 74.5805 95.1901 75.0695 95.4517Z" fill="#9E4A9E"/>
<path d="M83.2404 90.7463C83.4362 90.7991 83.6091 90.9149 83.7324 91.0758C83.8557 91.2367 83.9224 91.4338 83.9224 91.6365C83.9224 91.8392 83.8557 92.0363 83.7324 92.1973C83.6091 92.3582 83.4362 92.474 83.2404 92.5268C82.7514 92.7884 82.2054 92.9252 81.6507 92.9252C81.0961 92.9252 80.5501 92.7884 80.061 92.5268C79.8653 92.474 79.6924 92.3582 79.5691 92.1973C79.4458 92.0363 79.3791 91.8392 79.3791 91.6365C79.3791 91.4338 79.4458 91.2367 79.5691 91.0758C79.6924 90.9149 79.8653 90.7991 80.061 90.7463C80.5501 90.4847 81.0961 90.3478 81.6507 90.3478C82.2054 90.3478 82.7514 90.4847 83.2404 90.7463Z" fill="#9E4A9E"/>
<path d="M107.722 76.5977C108.612 77.1064 108.612 77.9013 107.722 78.41C107.229 78.6563 106.684 78.7845 106.133 78.7845C105.581 78.7845 105.037 78.6563 104.543 78.41C104.352 78.3473 104.186 78.2259 104.068 78.0632C103.95 77.9005 103.887 77.7048 103.887 77.5039C103.887 77.303 103.95 77.1073 104.068 76.9446C104.186 76.7819 104.352 76.6605 104.543 76.5977C105.032 76.3361 105.578 76.1992 106.133 76.1992C106.687 76.1992 107.233 76.3361 107.722 76.5977Z" fill="#9E4A9E"/>
<path d="M115.893 71.8923C116.084 71.955 116.25 72.0764 116.368 72.2391C116.486 72.4018 116.549 72.5976 116.549 72.7984C116.549 72.9993 116.486 73.195 116.368 73.3578C116.25 73.5205 116.084 73.6419 115.893 73.7046C115.399 73.9509 114.855 74.0791 114.303 74.0791C113.752 74.0791 113.207 73.9509 112.714 73.7046C112.523 73.6419 112.357 73.5205 112.239 73.3578C112.121 73.195 112.058 72.9993 112.058 72.7984C112.058 72.5976 112.121 72.4018 112.239 72.2391C112.357 72.0764 112.523 71.955 112.714 71.8923C113.203 71.6307 113.749 71.4938 114.303 71.4938C114.858 71.4938 115.404 71.6307 115.893 71.8923Z" fill="#9E4A9E"/>
<path d="M124.064 67.1869C124.26 67.2396 124.433 67.3554 124.556 67.5164C124.679 67.6773 124.746 67.8744 124.746 68.0771C124.746 68.2798 124.679 68.4769 124.556 68.6378C124.433 68.7987 124.26 68.9145 124.064 68.9673C123.575 69.2289 123.029 69.3658 122.475 69.3658C121.92 69.3658 121.374 69.2289 120.885 68.9673C120.689 68.9145 120.516 68.7987 120.393 68.6378C120.27 68.4769 120.203 68.2798 120.203 68.0771C120.203 67.8744 120.27 67.6773 120.393 67.5164C120.516 67.3554 120.689 67.2396 120.885 67.1869C121.374 66.9252 121.92 66.7884 122.475 66.7884C123.029 66.7884 123.575 66.9252 124.064 67.1869Z" fill="#9E4A9E"/>
<path d="M148.545 53.0383C149.436 53.547 149.436 54.3418 148.545 54.8505C148.052 55.0968 147.507 55.2251 146.956 55.2251C146.404 55.2251 145.86 55.0968 145.366 54.8505C145.175 54.7878 145.009 54.6665 144.891 54.5037C144.774 54.341 144.71 54.1453 144.71 53.9444C144.71 53.7435 144.774 53.5478 144.891 53.3851C145.009 53.2224 145.175 53.101 145.366 53.0383C145.855 52.7767 146.401 52.6398 146.956 52.6398C147.51 52.6398 148.056 52.7767 148.545 53.0383Z" fill="#9E4A9E"/>
<path d="M156.717 48.3328C156.912 48.3856 157.085 48.5014 157.209 48.6624C157.332 48.8233 157.399 49.0204 157.399 49.2231C157.399 49.4258 157.332 49.6229 157.209 49.7838C157.085 49.9447 156.912 50.0605 156.717 50.1133C156.228 50.3749 155.682 50.5118 155.127 50.5118C154.572 50.5118 154.026 50.3749 153.537 50.1133C153.342 50.0605 153.169 49.9447 153.045 49.7838C152.922 49.6229 152.855 49.4258 152.855 49.2231C152.855 49.0204 152.922 48.8233 153.045 48.6624C153.169 48.5014 153.342 48.3856 153.537 48.3328C154.026 48.0712 154.572 47.9344 155.127 47.9344C155.682 47.9344 156.228 48.0712 156.717 48.3328Z" fill="#9E4A9E"/>
<path d="M66.8987 90.7463C67.7889 91.2232 67.7889 92.0498 66.8987 92.5268C66.4096 92.7884 65.8636 92.9252 65.309 92.9252C64.7543 92.9252 64.2084 92.7884 63.7194 92.5268C63.5236 92.474 63.3507 92.3582 63.2274 92.1973C63.1041 92.0363 63.0374 91.8392 63.0374 91.6365C63.0374 91.4338 63.1041 91.2367 63.2274 91.0758C63.3507 90.9149 63.5236 90.7991 63.7194 90.7463C64.2084 90.4847 64.7543 90.3478 65.309 90.3478C65.8636 90.3478 66.4096 90.4847 66.8987 90.7463Z" fill="#9E4A9E"/>
<path d="M75.0695 86.0087C75.9279 86.5174 75.9279 87.3441 75.0695 87.821C74.5805 88.0826 74.0344 88.2195 73.4798 88.2195C72.9252 88.2195 72.3791 88.0826 71.8901 87.821C71.0317 87.3441 71.0317 86.5174 71.8901 86.0087C72.3838 85.7624 72.928 85.6342 73.4798 85.6342C74.0316 85.6342 74.5758 85.7624 75.0695 86.0087Z" fill="#9E4A9E"/>
<path d="M83.2408 81.3033C83.4317 81.3661 83.5979 81.4874 83.7157 81.6501C83.8335 81.8128 83.8967 82.0086 83.8967 82.2094C83.8967 82.4103 83.8335 82.6061 83.7157 82.7688C83.5979 82.9315 83.4317 83.0528 83.2408 83.1156C82.7518 83.3772 82.2058 83.5141 81.6511 83.5141C81.0965 83.5141 80.5505 83.3772 80.0614 83.1156C79.8706 83.0528 79.7044 82.9315 79.5866 82.7688C79.4688 82.6061 79.4055 82.4103 79.4055 82.2094C79.4055 82.0086 79.4688 81.8128 79.5866 81.6501C79.7044 81.4874 79.8706 81.3661 80.0614 81.3033C80.5552 81.057 81.0994 80.9288 81.6511 80.9288C82.2029 80.9288 82.7471 81.057 83.2408 81.3033Z" fill="#9E4A9E"/>
<path d="M91.4115 76.5977C91.6023 76.6605 91.7686 76.7819 91.8864 76.9446C92.0041 77.1073 92.0674 77.303 92.0674 77.5039C92.0674 77.7048 92.0041 77.9005 91.8864 78.0632C91.7686 78.2259 91.6023 78.3473 91.4115 78.41C90.9178 78.6563 90.3736 78.7845 89.8218 78.7845C89.27 78.7845 88.7258 78.6563 88.2321 78.41C88.0413 78.3473 87.875 78.2259 87.7573 78.0632C87.6395 77.9005 87.576 77.7048 87.576 77.5039C87.576 77.303 87.6395 77.1073 87.7573 76.9446C87.875 76.7819 88.0413 76.6605 88.2321 76.5977C88.7211 76.3361 89.2672 76.1992 89.8218 76.1992C90.3764 76.1992 90.9225 76.3361 91.4115 76.5977Z" fill="#9E4A9E"/>
<path d="M98.0249 74.0544C99.2365 74.0544 100.219 73.485 100.219 72.7826C100.219 72.0802 99.2365 71.5109 98.0249 71.5109C96.8133 71.5109 95.8311 72.0802 95.8311 72.7826C95.8311 73.485 96.8133 74.0544 98.0249 74.0544Z" fill="#9E4A9E"/>
<path d="M106.164 69.3486C107.376 69.3486 108.358 68.7792 108.358 68.0768C108.358 67.3745 107.376 66.8051 106.164 66.8051C104.953 66.8051 103.971 67.3745 103.971 68.0768C103.971 68.7792 104.953 69.3486 106.164 69.3486Z" fill="#9E4A9E"/>
<path d="M115.893 62.4493C116.084 62.512 116.25 62.6334 116.368 62.7961C116.486 62.9588 116.549 63.1545 116.549 63.3554C116.549 63.5563 116.486 63.752 116.368 63.9147C116.25 64.0774 116.084 64.1988 115.893 64.2616C115.404 64.5232 114.858 64.6601 114.303 64.6601C113.749 64.6601 113.203 64.5232 112.714 64.2616C112.523 64.1988 112.357 64.0774 112.239 63.9147C112.121 63.752 112.058 63.5563 112.058 63.3554C112.058 63.1545 112.121 62.9588 112.239 62.7961C112.357 62.6334 112.523 62.512 112.714 62.4493C113.207 62.203 113.752 62.0748 114.303 62.0748C114.855 62.0748 115.399 62.203 115.893 62.4493Z" fill="#9E4A9E"/>
<path d="M124.064 57.7438C124.255 57.8066 124.421 57.9279 124.539 58.0906C124.656 58.2533 124.72 58.4491 124.72 58.65C124.72 58.8508 124.656 59.0466 124.539 59.2093C124.421 59.372 124.255 59.4933 124.064 59.5561C123.575 59.8177 123.029 59.9546 122.474 59.9546C121.92 59.9546 121.374 59.8177 120.885 59.5561C120.694 59.4933 120.528 59.372 120.41 59.2093C120.292 59.0466 120.229 58.8508 120.229 58.65C120.229 58.4491 120.292 58.2533 120.41 58.0906C120.528 57.9279 120.694 57.8066 120.885 57.7438C121.378 57.4975 121.923 57.3693 122.474 57.3693C123.026 57.3693 123.57 57.4975 124.064 57.7438Z" fill="#9E4A9E"/>
<path d="M132.235 53.0383C132.426 53.101 132.592 53.2224 132.71 53.3851C132.828 53.5478 132.891 53.7435 132.891 53.9444C132.891 54.1453 132.828 54.341 132.71 54.5037C132.592 54.6665 132.426 54.7878 132.235 54.8505C131.741 55.0968 131.197 55.2251 130.645 55.2251C130.094 55.2251 129.549 55.0968 129.056 54.8505C128.865 54.7878 128.699 54.6665 128.581 54.5037C128.463 54.341 128.4 54.1453 128.4 53.9444C128.4 53.7435 128.463 53.5478 128.581 53.3851C128.699 53.2224 128.865 53.101 129.056 53.0383C129.545 52.7767 130.091 52.6398 130.645 52.6398C131.2 52.6398 131.746 52.7767 132.235 53.0383Z" fill="#9E4A9E"/>
<path d="M140.279 48.333C140.475 48.3858 140.648 48.5016 140.771 48.6625C140.894 48.8235 140.961 49.0205 140.961 49.2233C140.961 49.426 140.894 49.6231 140.771 49.784C140.648 49.9449 140.475 50.0607 140.279 50.1135C139.788 50.3698 139.243 50.5037 138.689 50.5037C138.136 50.5037 137.59 50.3698 137.1 50.1135C136.904 50.0607 136.731 49.9449 136.608 49.784C136.484 49.6231 136.418 49.426 136.418 49.2233C136.418 49.0205 136.484 48.8235 136.608 48.6625C136.731 48.5016 136.904 48.3858 137.1 48.333C137.59 48.0767 138.136 47.9429 138.689 47.9429C139.243 47.9429 139.788 48.0767 140.279 48.333Z" fill="#9E4A9E"/>
<path d="M148.545 43.6274C149.436 44.1043 149.436 44.9309 148.545 45.4079C148.056 45.6695 147.51 45.8064 146.956 45.8064C146.401 45.8064 145.855 45.6695 145.366 45.4079C145.17 45.3551 144.998 45.2393 144.874 45.0784C144.751 44.9174 144.684 44.7204 144.684 44.5176C144.684 44.3149 144.751 44.1178 144.874 43.9569C144.998 43.796 145.17 43.6802 145.366 43.6274C145.855 43.3658 146.401 43.2289 146.956 43.2289C147.51 43.2289 148.056 43.3658 148.545 43.6274Z" fill="#9E4A9E"/>
<path d="M65.3406 83.4971C66.5522 83.4971 67.5344 82.9277 67.5344 82.2253C67.5344 81.523 66.5522 80.9536 65.3406 80.9536C64.129 80.9536 63.1468 81.523 63.1468 82.2253C63.1468 82.9277 64.129 83.4971 65.3406 83.4971Z" fill="#9E4A9E"/>
<path d="M75.0695 76.5977C75.2604 76.6605 75.4266 76.7819 75.5444 76.9446C75.6622 77.1073 75.7256 77.303 75.7256 77.5039C75.7256 77.7048 75.6622 77.9005 75.5444 78.0632C75.4266 78.2259 75.2604 78.3473 75.0695 78.41C74.5758 78.6563 74.0316 78.7845 73.4798 78.7845C72.9281 78.7845 72.3839 78.6563 71.8901 78.41C71.6993 78.3473 71.5333 78.2259 71.4155 78.0632C71.2977 77.9005 71.2342 77.7048 71.2342 77.5039C71.2342 77.303 71.2977 77.1073 71.4155 76.9446C71.5333 76.7819 71.6993 76.6605 71.8901 76.5977C72.3792 76.3361 72.9252 76.1992 73.4798 76.1992C74.0345 76.1992 74.5805 76.3361 75.0695 76.5977Z" fill="#9E4A9E"/>
<path d="M83.2408 71.8923C83.4317 71.955 83.5979 72.0764 83.7157 72.2391C83.8335 72.4018 83.8967 72.5976 83.8967 72.7984C83.8967 72.9993 83.8335 73.195 83.7157 73.3578C83.5979 73.5205 83.4317 73.6419 83.2408 73.7046C82.7471 73.9509 82.2029 74.0791 81.6511 74.0791C81.0994 74.0791 80.5552 73.9509 80.0614 73.7046C79.8706 73.6419 79.7044 73.5205 79.5866 73.3578C79.4688 73.195 79.4055 72.9993 79.4055 72.7984C79.4055 72.5976 79.4688 72.4018 79.5866 72.2391C79.7044 72.0764 79.8706 71.955 80.0614 71.8923C80.5505 71.6307 81.0965 71.4938 81.6511 71.4938C82.2058 71.4938 82.7518 71.6307 83.2408 71.8923Z" fill="#9E4A9E"/>
<path d="M91.4117 67.1869C91.6074 67.2396 91.7804 67.3554 91.9036 67.5164C92.0269 67.6773 92.0936 67.8744 92.0936 68.0771C92.0936 68.2798 92.0269 68.4769 91.9036 68.6378C91.7804 68.7987 91.6074 68.9145 91.4117 68.9673C90.9227 69.2289 90.3766 69.3658 89.822 69.3658C89.2674 69.3658 88.7213 69.2289 88.2323 68.9673C88.0366 68.9145 87.8637 68.7987 87.7404 68.6378C87.6171 68.4769 87.5504 68.2798 87.5504 68.0771C87.5504 67.8744 87.6171 67.6773 87.7404 67.5164C87.8637 67.3554 88.0366 67.2396 88.2323 67.1869C88.7213 66.9252 89.2674 66.7884 89.822 66.7884C90.3766 66.7884 90.9227 66.9252 91.4117 67.1869Z" fill="#9E4A9E"/>
<path d="M99.5828 62.4493C99.7736 62.512 99.9396 62.6334 100.057 62.7961C100.175 62.9588 100.239 63.1545 100.239 63.3554C100.239 63.5563 100.175 63.752 100.057 63.9147C99.9396 64.0774 99.7736 64.1988 99.5828 64.2616C99.0921 64.5179 98.5467 64.6517 97.9931 64.6517C97.4395 64.6517 96.8941 64.5179 96.4034 64.2616C96.2126 64.1988 96.0463 64.0774 95.9285 63.9147C95.8107 63.752 95.7473 63.5563 95.7473 63.3554C95.7473 63.1545 95.8107 62.9588 95.9285 62.7961C96.0463 62.6334 96.2126 62.512 96.4034 62.4493C96.8991 62.2099 97.4426 62.0856 97.9931 62.0856C98.5436 62.0856 99.087 62.2099 99.5828 62.4493Z" fill="#9E4A9E"/>
<path d="M107.722 57.7438C108.612 58.2525 108.612 59.0474 107.722 59.5561C107.233 59.8177 106.687 59.9546 106.133 59.9546C105.578 59.9546 105.032 59.8177 104.543 59.5561C104.352 59.4933 104.186 59.372 104.068 59.2093C103.95 59.0466 103.887 58.8508 103.887 58.65C103.887 58.4491 103.95 58.2533 104.068 58.0906C104.186 57.9279 104.352 57.8066 104.543 57.7438C105.037 57.4975 105.581 57.3693 106.133 57.3693C106.684 57.3693 107.229 57.4975 107.722 57.7438Z" fill="#9E4A9E"/>
<path d="M115.893 53.0383C116.084 53.101 116.25 53.2224 116.368 53.3851C116.486 53.5478 116.549 53.7435 116.549 53.9444C116.549 54.1453 116.486 54.341 116.368 54.5037C116.25 54.6665 116.084 54.7878 115.893 54.8505C115.399 55.0968 114.855 55.2251 114.303 55.2251C113.752 55.2251 113.207 55.0968 112.714 54.8505C112.523 54.7878 112.357 54.6665 112.239 54.5037C112.121 54.341 112.058 54.1453 112.058 53.9444C112.058 53.7435 112.121 53.5478 112.239 53.3851C112.357 53.2224 112.523 53.101 112.714 53.0383C113.203 52.7767 113.749 52.6398 114.303 52.6398C114.858 52.6398 115.404 52.7767 115.893 53.0383Z" fill="#9E4A9E"/>
<path d="M124.064 48.3328C124.26 48.3856 124.433 48.5014 124.556 48.6624C124.679 48.8233 124.746 49.0204 124.746 49.2231C124.746 49.4258 124.679 49.6229 124.556 49.7838C124.433 49.9447 124.26 50.0605 124.064 50.1133C123.575 50.3749 123.029 50.5118 122.475 50.5118C121.92 50.5118 121.374 50.3749 120.885 50.1133C120.689 50.0605 120.516 49.9447 120.393 49.7838C120.27 49.6229 120.203 49.4258 120.203 49.2231C120.203 49.0204 120.27 48.8233 120.393 48.6624C120.516 48.5014 120.689 48.3856 120.885 48.3328C121.374 48.0712 121.92 47.9344 122.475 47.9344C123.029 47.9344 123.575 48.0712 124.064 48.3328Z" fill="#9E4A9E"/>
<path d="M132.235 43.6274C132.431 43.6802 132.604 43.796 132.727 43.9569C132.85 44.1178 132.917 44.3149 132.917 44.5176C132.917 44.7204 132.85 44.9174 132.727 45.0784C132.604 45.2393 132.431 45.3551 132.235 45.4079C131.746 45.6695 131.2 45.8064 130.645 45.8064C130.091 45.8064 129.545 45.6695 129.056 45.4079C128.86 45.3551 128.687 45.2393 128.564 45.0784C128.441 44.9174 128.374 44.7204 128.374 44.5176C128.374 44.3149 128.441 44.1178 128.564 43.9569C128.687 43.796 128.86 43.6802 129.056 43.6274C129.545 43.3658 130.091 43.2289 130.645 43.2289C131.2 43.2289 131.746 43.3658 132.235 43.6274Z" fill="#9E4A9E"/>
<path d="M66.8983 71.8923C67.7885 72.401 67.7885 73.1959 66.8983 73.7046C66.4046 73.9509 65.8603 74.0791 65.3086 74.0791C64.7568 74.0791 64.2127 73.9509 63.719 73.7046C63.5281 73.6419 63.3619 73.5205 63.2441 73.3578C63.1263 73.195 63.063 72.9993 63.063 72.7984C63.063 72.5976 63.1263 72.4018 63.2441 72.2391C63.3619 72.0764 63.5281 71.955 63.719 71.8923C64.208 71.6307 64.754 71.4938 65.3086 71.4938C65.8632 71.4938 66.4092 71.6307 66.8983 71.8923Z" fill="#9E4A9E"/>
<path d="M75.0695 67.1869C75.2653 67.2396 75.4382 67.3554 75.5615 67.5164C75.6848 67.6773 75.7516 67.8744 75.7516 68.0771C75.7516 68.2798 75.6848 68.4769 75.5615 68.6378C75.4382 68.7987 75.2653 68.9145 75.0695 68.9673C74.5805 69.2289 74.0345 69.3658 73.4798 69.3658C72.9252 69.3658 72.3792 69.2289 71.8901 68.9673C71.6944 68.9145 71.5215 68.7987 71.3982 68.6378C71.2749 68.4769 71.2082 68.2798 71.2082 68.0771C71.2082 67.8744 71.2749 67.6773 71.3982 67.5164C71.5215 67.3554 71.6944 67.2396 71.8901 67.1869C72.3792 66.9252 72.9252 66.7884 73.4798 66.7884C74.0345 66.7884 74.5805 66.9252 75.0695 67.1869Z" fill="#9E4A9E"/>
<path d="M83.2408 62.4493C83.4317 62.512 83.5979 62.6334 83.7157 62.7961C83.8335 62.9588 83.8967 63.1545 83.8967 63.3554C83.8967 63.5563 83.8335 63.752 83.7157 63.9147C83.5979 64.0774 83.4317 64.1988 83.2408 64.2616C82.7518 64.5232 82.2058 64.6601 81.6511 64.6601C81.0965 64.6601 80.5505 64.5232 80.0614 64.2616C79.8706 64.1988 79.7044 64.0774 79.5866 63.9147C79.4688 63.752 79.4055 63.5563 79.4055 63.3554C79.4055 63.1545 79.4688 62.9588 79.5866 62.7961C79.7044 62.6334 79.8706 62.512 80.0614 62.4493C80.5552 62.203 81.0994 62.0748 81.6511 62.0748C82.2029 62.0748 82.7471 62.203 83.2408 62.4493Z" fill="#9E4A9E"/>
<path d="M91.4115 57.7438C91.6023 57.8066 91.7686 57.9279 91.8864 58.0906C92.0041 58.2533 92.0674 58.4491 92.0674 58.65C92.0674 58.8508 92.0041 59.0466 91.8864 59.2093C91.7686 59.372 91.6023 59.4933 91.4115 59.5561C90.9225 59.8177 90.3764 59.9546 89.8218 59.9546C89.2672 59.9546 88.7211 59.8177 88.2321 59.5561C88.0413 59.4933 87.875 59.372 87.7573 59.2093C87.6395 59.0466 87.576 58.8508 87.576 58.65C87.576 58.4491 87.6395 58.2533 87.7573 58.0906C87.875 57.9279 88.0413 57.8066 88.2321 57.7438C88.7258 57.4975 89.27 57.3693 89.8218 57.3693C90.3736 57.3693 90.9178 57.4975 91.4115 57.7438Z" fill="#9E4A9E"/>
<path d="M99.5828 53.0385C99.7736 53.1012 99.9396 53.2226 100.057 53.3853C100.175 53.548 100.239 53.7437 100.239 53.9446C100.239 54.1455 100.175 54.3412 100.057 54.5039C99.9396 54.6667 99.7736 54.788 99.5828 54.8507C99.087 55.0901 98.5436 55.2144 97.9931 55.2144C97.4426 55.2144 96.8991 55.0901 96.4034 54.8507C96.2126 54.788 96.0463 54.6667 95.9285 54.5039C95.8107 54.3412 95.7473 54.1455 95.7473 53.9446C95.7473 53.7437 95.8107 53.548 95.9285 53.3853C96.0463 53.2226 96.2126 53.1012 96.4034 53.0385C96.8941 52.7822 97.4395 52.6483 97.9931 52.6483C98.5467 52.6483 99.0921 52.7822 99.5828 53.0385Z" fill="#9E4A9E"/>
<path d="M107.722 48.3328C108.612 48.8098 108.612 49.6364 107.722 50.1133C107.233 50.3749 106.687 50.5118 106.132 50.5118C105.578 50.5118 105.031 50.3749 104.542 50.1133C104.347 50.0605 104.174 49.9447 104.051 49.7838C103.927 49.6229 103.86 49.4258 103.86 49.2231C103.86 49.0204 103.927 48.8233 104.051 48.6624C104.174 48.5014 104.347 48.3856 104.542 48.3328C105.031 48.0712 105.578 47.9344 106.132 47.9344C106.687 47.9344 107.233 48.0712 107.722 48.3328Z" fill="#9E4A9E"/>
<path d="M114.335 45.7895C115.547 45.7895 116.529 45.2201 116.529 44.5177C116.529 43.8154 115.547 43.246 114.335 43.246C113.124 43.246 112.141 43.8154 112.141 44.5177C112.141 45.2201 113.124 45.7895 114.335 45.7895Z" fill="#9E4A9E"/>
<path d="M60.1145 13.2919L93.0103 30.7645L70.3697 43.3623L37.4435 25.9192L60.1145 13.2919Z" fill="white"/>
<path d="M67.8745 75.2533L67.5093 89.7012V148.638L34.5831 131.195L34.4918 81.0971L65.227 72.258L67.8745 75.2533Z" fill="white"/>
<path d="M67.5094 149.93L33.4268 131.87V80.2457L65.7444 70.9661L69.1831 74.8424L68.8179 89.7308V149.284L67.5094 149.93ZM35.77 130.432L66.2009 146.641V89.7014L66.5356 75.6646L64.6793 73.5503L35.6482 81.9195L35.77 130.432Z" fill="#9E4A9E"/>
<path d="M5.52151 72.7281L38.4173 90.1713L70.3698 43.3625L37.4435 25.9193L5.52151 72.7281Z" fill="white"/>
<path d="M60.1145 20.6333L93.0103 38.1059L70.3697 50.7037L37.4435 33.2606L60.1145 20.6333Z" fill="#F6CA52"/>
<path d="M60.0841 12L36.6219 25.0677L4 72.875L4.85206 73.6679L17.9982 84.3276L50.8027 101.712L51.9287 102.182L63.0359 85.7665C64.314 83.799 65.4704 81.8903 66.5355 80.0696C66.5355 84.3863 66.3225 88.8793 66.3225 93.754V149.314L67.5093 149.93L94.1972 135.071V30.0893L60.0841 12ZM38.0522 88.6737L7.19524 72.3171L37.8392 27.417L40.5779 28.8853L68.6961 43.7736L38.0522 88.6737ZM77.9775 37.8124L70.3393 42.0704L43.9253 28.063L39.9085 25.89L60.1754 14.6135L90.6063 30.7647L77.9775 37.8124Z" fill="#9E4A9E"/>
<path d="M62.6709 41.7179C62.8582 41.7666 63.0237 41.8736 63.1417 42.0222C63.2597 42.1708 63.3236 42.3528 63.3236 42.5401C63.3236 42.7273 63.2597 42.9093 63.1417 43.058C63.0237 43.2066 62.8582 43.3136 62.6709 43.3623C62.2083 43.6201 61.6835 43.7558 61.1494 43.7558C60.6152 43.7558 60.0904 43.6201 59.6278 43.3623C59.4405 43.3136 59.275 43.2066 59.157 43.058C59.039 42.9093 58.9751 42.7273 58.9751 42.5401C58.9751 42.3528 59.039 42.1708 59.157 42.0222C59.275 41.8736 59.4405 41.7666 59.6278 41.7179C60.0904 41.4601 60.6152 41.3244 61.1494 41.3244C61.6835 41.3244 62.2083 41.4601 62.6709 41.7179Z" fill="#9E4A9E"/>
<path d="M68.9396 39.3979C70.0992 39.3979 71.0393 38.872 71.0393 38.2233C71.0393 37.5745 70.0992 37.0486 68.9396 37.0486C67.7799 37.0486 66.8398 37.5745 66.8398 38.2233C66.8398 38.872 67.7799 39.3979 68.9396 39.3979Z" fill="#9E4A9E"/>
<path d="M76.6692 35.0812C77.8288 35.0812 78.7689 34.5553 78.7689 33.9066C78.7689 33.2578 77.8288 32.732 76.6692 32.732C75.5095 32.732 74.5694 33.2578 74.5694 33.9066C74.5694 34.5553 75.5095 35.0812 76.6692 35.0812Z" fill="#9E4A9E"/>
<path d="M54.9111 37.4012C55.7328 37.8711 55.7328 38.6052 54.9111 39.0457C54.4485 39.3034 53.9238 39.4392 53.3896 39.4392C52.8554 39.4392 52.3306 39.3034 51.868 39.0457C51.0464 38.6052 51.0464 37.8711 51.868 37.4012C52.3392 37.1692 52.8606 37.0483 53.3896 37.0483C53.9185 37.0483 54.44 37.1692 54.9111 37.4012Z" fill="#9E4A9E"/>
<path d="M61.1799 35.0812C62.3396 35.0812 63.2797 34.5553 63.2797 33.9066C63.2797 33.2578 62.3396 32.732 61.1799 32.732C60.0203 32.732 59.0802 33.2578 59.0802 33.9066C59.0802 34.5553 60.0203 35.0812 61.1799 35.0812Z" fill="#9E4A9E"/>
<path d="M70.3396 28.7675C70.5898 28.7675 70.8297 28.8634 71.0066 29.0341C71.1835 29.2049 71.2829 29.4364 71.2829 29.6779C71.2829 29.9193 71.1835 30.1508 71.0066 30.3216C70.8297 30.4923 70.5898 30.5882 70.3396 30.5882C69.8684 30.8202 69.347 30.9412 68.818 30.9412C68.2891 30.9412 67.7676 30.8202 67.2965 30.5882C67.1138 30.5303 66.9548 30.4182 66.8421 30.2679C66.7293 30.1176 66.6686 29.9368 66.6686 29.7513C66.6686 29.5657 66.7293 29.3849 66.8421 29.2347C66.9548 29.0844 67.1138 28.9723 67.2965 28.9144C67.7555 28.6593 68.2707 28.513 68.7997 28.4875C69.3287 28.4619 69.8565 28.5579 70.3396 28.7675Z" fill="#9E4A9E"/>
<path d="M45.6903 35.0812C46.85 35.0812 47.7901 34.5553 47.7901 33.9066C47.7901 33.2578 46.85 32.732 45.6903 32.732C44.5307 32.732 43.5906 33.2578 43.5906 33.9066C43.5906 34.5553 44.5307 35.0812 45.6903 35.0812Z" fill="#9E4A9E"/>
<path d="M53.4504 30.7645C54.61 30.7645 55.5501 30.2387 55.5501 29.5899C55.5501 28.9412 54.61 28.4153 53.4504 28.4153C52.2907 28.4153 51.3506 28.9412 51.3506 29.5899C51.3506 30.2387 52.2907 30.7645 53.4504 30.7645Z" fill="#9E4A9E"/>
<path d="M62.6708 24.4802C63.4924 24.9207 63.4924 25.6549 62.6708 26.1247C62.1996 26.3567 61.6782 26.4777 61.1492 26.4777C60.6203 26.4777 60.0989 26.3567 59.6277 26.1247C58.8061 25.6549 58.8061 24.9207 59.6277 24.4802C60.0903 24.2225 60.6151 24.0868 61.1492 24.0868C61.6834 24.0868 62.2082 24.2225 62.6708 24.4802Z" fill="#9E4A9E"/>
</svg>
