<svg width="146" height="109" viewBox="0 0 146 109" fill="none" xmlns="http://www.w3.org/2000/svg">
<path d="M1.039 93.7495L1.16128 56.3529L25.8257 70.5095L25.7034 107.906L1.039 93.7495Z" fill="white"/>
<path d="M61.5847 12.607V52.3428L99.7581 34.5103L61.5847 12.607Z" fill="white"/>
<path d="M60.3927 54.1657V11.9389L61.5846 11.2705L102.295 34.632L60.3927 54.1657ZM62.746 14.673V50.5202L97.2212 34.4497L62.746 14.673Z" fill="#9E4A9E"/>
<path d="M1.16144 56.353L99.758 34.5105L61.5847 12.7287L81.2979 1.42773L144.93 37.8826L130.871 45.9634L25.8259 70.4489L1.16144 56.353Z" fill="white"/>
<path d="M81.2979 8.56673L62.7461 19.1994V20.5665L99.758 41.8014L1.16144 63.6136L25.8259 77.7702L130.871 53.1328L144.93 45.0823L81.2979 8.56673Z" fill="#F6CA52"/>
<path d="M144.93 36.4548L81.2979 0L60.3927 11.9997V13.3364L96.5488 33.9942L0 55.2595V94.2965L25.6425 109L131.33 84.2107L146 75.7957V37.0321L144.93 36.4548ZM24.5422 105.901L2.23114 93.0814V58.3885L24.5422 71.1781V105.901ZM26.0092 69.2642L4.3705 56.8392L102.967 34.9967L63.938 12.7288L81.2979 2.7645L142.577 37.913L130.352 44.9002L26.0092 69.2642Z" fill="#9E4A9E"/>
<path d="M132.033 81.7802L129.588 82.6612V47.3608L132.033 46.5709V81.7802Z" fill="white"/>
<path d="M14.3341 60.1503C14.5175 60.2103 14.6772 60.3262 14.7904 60.4817C14.9037 60.6372 14.9647 60.8242 14.9647 61.0161C14.9647 61.2081 14.9037 61.3951 14.7904 61.5506C14.6772 61.706 14.5175 61.822 14.3341 61.8819C13.8609 62.122 13.3372 62.2471 12.8059 62.2471C12.2747 62.2471 11.751 62.122 11.2778 61.8819C11.0943 61.822 10.9346 61.706 10.8214 61.5506C10.7082 61.3951 10.6472 61.2081 10.6472 61.0161C10.6472 60.8242 10.7082 60.6372 10.8214 60.4817C10.9346 60.3262 11.0943 60.2103 11.2778 60.1503C11.733 59.8574 12.2637 59.7016 12.8059 59.7016C13.3482 59.7016 13.8789 59.8574 14.3341 60.1503Z" fill="#9E4A9E"/>
<path d="M61.4319 59.4514C61.62 59.5018 61.7862 59.6125 61.9047 59.7663C62.0232 59.92 62.0875 60.1083 62.0875 60.302C62.0875 60.4957 62.0232 60.684 61.9047 60.8378C61.7862 60.9916 61.62 61.1022 61.4319 61.1527C60.9672 61.4193 60.4402 61.5596 59.9037 61.5596C59.3672 61.5596 58.8402 61.4193 58.3755 61.1527C58.1874 61.1022 58.0212 60.9916 57.9027 60.8378C57.7841 60.684 57.7199 60.4957 57.7199 60.302C57.7199 60.1083 57.7841 59.92 57.9027 59.7663C58.0212 59.6125 58.1874 59.5018 58.3755 59.4514C58.8402 59.1848 59.3672 59.0444 59.9037 59.0444C60.4402 59.0444 60.9672 59.1848 61.4319 59.4514Z" fill="#9E4A9E"/>
<path d="M67.6054 57.0518C68.7701 57.0518 69.7142 56.5077 69.7142 55.8366C69.7142 55.1655 68.7701 54.6214 67.6054 54.6214C66.4407 54.6214 65.4965 55.1655 65.4965 55.8366C65.4965 56.5077 66.4407 57.0518 67.6054 57.0518Z" fill="#9E4A9E"/>
<path d="M30.1963 68.3831C31.0215 68.8387 31.0215 69.5982 30.1963 70.0843C29.7231 70.3243 29.1994 70.4495 28.6682 70.4495C28.1369 70.4495 27.6132 70.3243 27.14 70.0843C26.3148 69.5982 26.3148 68.8387 27.14 68.3831C27.6046 68.1164 28.1317 67.9761 28.6682 67.9761C29.2047 67.9761 29.7317 68.1164 30.1963 68.3831Z" fill="#9E4A9E"/>
<path d="M37.9897 63.9171C38.1627 63.9833 38.3115 64.1 38.4164 64.2518C38.5214 64.4037 38.5775 64.5835 38.5775 64.7678C38.5775 64.952 38.5214 65.1319 38.4164 65.2837C38.3115 65.4356 38.1627 65.5523 37.9897 65.6184C37.5151 65.8538 36.992 65.9763 36.4616 65.9763C35.9312 65.9763 35.408 65.8538 34.9334 65.6184C34.1082 65.1323 34.1082 64.3728 34.9334 63.9171C35.4035 63.6672 35.9284 63.5364 36.4616 63.5364C36.9947 63.5364 37.5196 63.6672 37.9897 63.9171Z" fill="#9E4A9E"/>
<path d="M45.753 59.4514C45.9411 59.5018 46.1074 59.6125 46.2259 59.7663C46.3444 59.92 46.4086 60.1083 46.4086 60.302C46.4086 60.4957 46.3444 60.684 46.2259 60.8378C46.1074 60.9916 45.9411 61.1022 45.753 61.1527C45.2884 61.4193 44.7613 61.5596 44.2248 61.5596C43.6883 61.5596 43.1613 61.4193 42.6967 61.1527C42.5085 61.1022 42.3424 60.9916 42.2239 60.8378C42.1054 60.684 42.0411 60.4957 42.0411 60.302C42.0411 60.1083 42.1054 59.92 42.2239 59.7663C42.3424 59.6125 42.5085 59.5018 42.6967 59.4514C43.1613 59.1848 43.6883 59.0444 44.2248 59.0444C44.7613 59.0444 45.2884 59.1848 45.753 59.4514Z" fill="#9E4A9E"/>
<path d="M52.0489 57.0518C53.2136 57.0518 54.1577 56.5077 54.1577 55.8366C54.1577 55.1655 53.2136 54.6214 52.0489 54.6214C50.8842 54.6214 49.94 55.1655 49.94 55.8366C49.94 56.5077 50.8842 57.0518 52.0489 57.0518Z" fill="#9E4A9E"/>
<path d="M61.4317 50.5203C62.2569 51.0063 62.2569 51.7658 61.4317 52.2215C60.9671 52.4881 60.4401 52.6285 59.9036 52.6285C59.3671 52.6285 58.84 52.4881 58.3754 52.2215C57.5502 51.7658 57.5502 51.0063 58.3754 50.5203C58.8486 50.2802 59.3723 50.1551 59.9036 50.1551C60.4348 50.1551 60.9585 50.2802 61.4317 50.5203Z" fill="#9E4A9E"/>
<path d="M21.6997 63.9174C22.5249 64.3731 22.5249 65.1326 21.6997 65.6187C21.2265 65.8587 20.7028 65.9838 20.1715 65.9838C19.6403 65.9838 19.1166 65.8587 18.6434 65.6187C17.8182 65.1326 17.8182 64.3731 18.6434 63.9174C19.108 63.6508 19.635 63.5104 20.1715 63.5104C20.708 63.5104 21.2351 63.6508 21.6997 63.9174Z" fill="#9E4A9E"/>
<path d="M5.80662 65.0413C6.63182 65.497 6.63182 66.2565 5.80662 66.7426C5.33342 66.9826 4.80972 67.1077 4.27847 67.1077C3.74721 67.1077 3.22351 66.9826 2.75031 66.7426C1.92511 66.2565 1.92511 65.497 2.75031 65.0413C3.2055 64.7484 3.7362 64.5925 4.27847 64.5925C4.82073 64.5925 5.35143 64.7484 5.80662 65.0413Z" fill="#9E4A9E"/>
<path d="M21.6997 73.2436C22.5249 73.7297 22.5249 74.4892 21.6997 74.9448C21.2351 75.2115 20.708 75.3518 20.1715 75.3518C19.635 75.3518 19.108 75.2115 18.6434 74.9448C17.8182 74.4892 17.8182 73.7297 18.6434 73.2436C19.108 72.977 19.635 72.8366 20.1715 72.8366C20.708 72.8366 21.2351 72.977 21.6997 73.2436Z" fill="#9E4A9E"/>
<path d="M13.2948 68.7778C14.12 69.2639 14.12 70.0234 13.2948 70.4791C12.8247 70.729 12.2998 70.8598 11.7666 70.8598C11.2335 70.8598 10.7086 70.729 10.2385 70.4791C9.41327 70.0234 9.41327 69.2639 10.2385 68.7778C10.7131 68.5425 11.2362 68.42 11.7666 68.42C12.297 68.42 12.8202 68.5425 13.2948 68.7778Z" fill="#9E4A9E"/>
<path d="M30.196 59.4514C30.3842 59.5018 30.5504 59.6125 30.6689 59.7663C30.7874 59.92 30.8516 60.1083 30.8516 60.302C30.8516 60.4957 30.7874 60.684 30.6689 60.8378C30.5504 60.9916 30.3842 61.1022 30.196 61.1527C29.7314 61.4193 29.2044 61.5596 28.6679 61.5596C28.1314 61.5596 27.6044 61.4193 27.1397 61.1527C26.9516 61.1022 26.7854 60.9916 26.6668 60.8378C26.5483 60.684 26.4841 60.4957 26.4841 60.302C26.4841 60.1083 26.5483 59.92 26.6668 59.7663C26.7854 59.6125 26.9516 59.5018 27.1397 59.4514C27.6044 59.1848 28.1314 59.0444 28.6679 59.0444C29.2044 59.0444 29.7314 59.1848 30.196 59.4514Z" fill="#9E4A9E"/>
<path d="M37.9897 54.986C38.1627 55.0521 38.3115 55.1688 38.4164 55.3207C38.5214 55.4725 38.5775 55.6524 38.5775 55.8366C38.5775 56.0208 38.5214 56.2007 38.4164 56.3526C38.3115 56.5044 38.1627 56.6211 37.9897 56.6872C37.5196 56.9372 36.9947 57.068 36.4616 57.068C35.9284 57.068 35.4035 56.9372 34.9334 56.6872C34.1082 56.2315 34.1082 55.4721 34.9334 54.986C35.408 54.7507 35.9312 54.6281 36.4616 54.6281C36.992 54.6281 37.5151 54.7507 37.9897 54.986Z" fill="#9E4A9E"/>
<path d="M76.7134 24.5157C76.8968 24.5757 77.0565 24.6916 77.1698 24.8471C77.283 25.0026 77.344 25.1896 77.344 25.3815C77.344 25.5735 77.283 25.7605 77.1698 25.916C77.0565 26.0714 76.8968 26.1874 76.7134 26.2473C76.2388 26.4827 75.7157 26.6052 75.1853 26.6052C74.6549 26.6052 74.1317 26.4827 73.6571 26.2473C73.4737 26.1874 73.314 26.0714 73.2007 25.916C73.0875 25.7605 73.0265 25.5735 73.0265 25.3815C73.0265 25.1896 73.0875 25.0026 73.2007 24.8471C73.314 24.6916 73.4737 24.5757 73.6571 24.5157C74.1317 24.2804 74.6549 24.1579 75.1853 24.1579C75.7157 24.1579 76.2388 24.2804 76.7134 24.5157Z" fill="#9E4A9E"/>
<path d="M84.354 20.0803C85.1792 20.536 85.1792 21.2955 84.354 21.7815C83.8808 22.0216 83.3571 22.1467 82.8259 22.1467C82.2946 22.1467 81.7709 22.0216 81.2977 21.7815C80.4725 21.2955 80.4725 20.536 81.2977 20.0803C81.7624 19.8137 82.2894 19.6733 82.8259 19.6733C83.3624 19.6733 83.8894 19.8137 84.354 20.0803Z" fill="#9E4A9E"/>
<path d="M92.1474 15.7665C92.3204 15.8326 92.4692 15.9493 92.5742 16.1011C92.6791 16.253 92.7352 16.4329 92.7352 16.6171C92.7352 16.8013 92.6791 16.9812 92.5742 17.133C92.4692 17.2849 92.3204 17.4015 92.1474 17.4677C91.6728 17.703 91.1497 17.8256 90.6193 17.8256C90.0889 17.8256 89.5657 17.703 89.0911 17.4677C88.2659 16.9816 88.2659 16.2221 89.0911 15.7665C89.5612 15.5165 90.0861 15.3857 90.6193 15.3857C91.1524 15.3857 91.6773 15.5165 92.1474 15.7665Z" fill="#9E4A9E"/>
<path d="M68.7975 20.0803C69.6227 20.536 69.6227 21.2955 68.7975 21.7815C68.3243 22.0216 67.8006 22.1467 67.2694 22.1467C66.7381 22.1467 66.2144 22.0216 65.7412 21.7815C64.916 21.2955 64.916 20.536 65.7412 20.0803C66.2058 19.8137 66.7329 19.6733 67.2694 19.6733C67.8059 19.6733 68.3329 19.8137 68.7975 20.0803Z" fill="#9E4A9E"/>
<path d="M76.7133 15.7665C77.5385 16.2221 77.5385 16.9816 76.7133 17.4677C76.2387 17.703 75.7155 17.8256 75.1851 17.8256C74.6547 17.8256 74.1316 17.703 73.657 17.4677C72.8318 16.9816 72.8318 16.2221 73.657 15.7665C74.1271 15.5165 74.652 15.3857 75.1851 15.3857C75.7183 15.3857 76.2432 15.5165 76.7133 15.7665Z" fill="#9E4A9E"/>
<path d="M84.3542 11.1491C84.5423 11.1995 84.7085 11.3101 84.827 11.4639C84.9455 11.6177 85.0098 11.806 85.0098 11.9997C85.0098 12.1934 84.9455 12.3817 84.827 12.5354C84.7085 12.6892 84.5423 12.7999 84.3542 12.8503C83.8895 13.1169 83.3625 13.2573 82.826 13.2573C82.2895 13.2573 81.7625 13.1169 81.2978 12.8503C81.1097 12.7999 80.9435 12.6892 80.825 12.5354C80.7065 12.3817 80.6422 12.1934 80.6422 11.9997C80.6422 11.806 80.7065 11.6177 80.825 11.4639C80.9435 11.3101 81.1097 11.1995 81.2978 11.1491C81.7625 10.8824 82.2895 10.7421 82.826 10.7421C83.3625 10.7421 83.8895 10.8824 84.3542 11.1491Z" fill="#9E4A9E"/>
<path d="M115.834 46.1454C116.659 46.6011 116.659 47.3606 115.834 47.8466C115.361 48.0866 114.837 48.2118 114.306 48.2118C113.774 48.2118 113.251 48.0866 112.778 47.8466C111.952 47.3606 111.952 46.6011 112.778 46.1454C113.242 45.8788 113.769 45.7384 114.306 45.7384C114.842 45.7384 115.369 45.8788 115.834 46.1454Z" fill="#9E4A9E"/>
<path d="M123.628 41.7103C123.801 41.7764 123.949 41.8931 124.054 42.0449C124.159 42.1968 124.215 42.3767 124.215 42.5609C124.215 42.7451 124.159 42.925 124.054 43.0768C123.949 43.2287 123.801 43.3453 123.628 43.4115C123.158 43.6614 122.633 43.7922 122.1 43.7922C121.566 43.7922 121.041 43.6614 120.571 43.4115C120.383 43.361 120.217 43.2504 120.098 43.0966C119.98 42.9429 119.916 42.7546 119.916 42.5609C119.916 42.3672 119.98 42.1789 120.098 42.0251C120.217 41.8713 120.383 41.7607 120.571 41.7103C121.041 41.4603 121.566 41.3295 122.1 41.3295C122.633 41.3295 123.158 41.4603 123.628 41.7103Z" fill="#9E4A9E"/>
<path d="M131.391 37.2446C132.216 37.7307 132.216 38.4901 131.391 38.9458C130.926 39.2125 130.399 39.3529 129.863 39.3529C129.326 39.3529 128.799 39.2125 128.334 38.9458C127.509 38.4901 127.509 37.7307 128.334 37.2446C128.808 37.0046 129.331 36.8795 129.863 36.8795C130.394 36.8795 130.917 37.0046 131.391 37.2446Z" fill="#9E4A9E"/>
<path d="M92.4227 50.5811C93.2479 51.0671 93.2479 51.8266 92.4227 52.2823C91.9581 52.5489 91.4311 52.6893 90.8946 52.6893C90.3581 52.6893 89.831 52.5489 89.3664 52.2823C88.5412 51.8266 88.5412 51.0671 89.3664 50.5811C89.8396 50.341 90.3633 50.2159 90.8946 50.2159C91.4258 50.2159 91.9495 50.341 92.4227 50.5811Z" fill="#9E4A9E"/>
<path d="M100.217 46.1455C101.042 46.6315 101.042 47.391 100.217 47.8467C99.7519 48.1133 99.2249 48.2537 98.6884 48.2537C98.1519 48.2537 97.6248 48.1133 97.1602 47.8467C96.335 47.391 96.335 46.6315 97.1602 46.1455C97.6334 45.9054 98.1571 45.7803 98.6884 45.7803C99.2196 45.7803 99.7433 45.9054 100.217 46.1455Z" fill="#9E4A9E"/>
<path d="M106.513 43.7153C107.677 43.7153 108.621 43.1713 108.621 42.5002C108.621 41.8291 107.677 41.285 106.513 41.285C105.348 41.285 104.404 41.8291 104.404 42.5002C104.404 43.1713 105.348 43.7153 106.513 43.7153Z" fill="#9E4A9E"/>
<path d="M115.773 37.2141C116.598 37.6698 116.598 38.4293 115.773 38.9154C115.3 39.1554 114.776 39.2805 114.245 39.2805C113.714 39.2805 113.19 39.1554 112.717 38.9154C111.891 38.4293 111.891 37.6698 112.717 37.2141C113.181 36.9475 113.708 36.8071 114.245 36.8071C114.781 36.8071 115.308 36.9475 115.773 37.2141Z" fill="#9E4A9E"/>
<path d="M122.069 34.8141C123.234 34.8141 124.178 34.2701 124.178 33.599C124.178 32.9278 123.234 32.3838 122.069 32.3838C120.904 32.3838 119.96 32.9278 119.96 33.599C119.96 34.2701 120.904 34.8141 122.069 34.8141Z" fill="#9E4A9E"/>
<path d="M73.9013 50.5811C74.3745 50.341 74.8982 50.2159 75.4295 50.2159C75.9608 50.2159 76.4844 50.341 76.9577 50.5811C77.7829 51.0671 77.7829 51.8266 76.9577 52.2823C76.493 52.5489 75.966 52.6893 75.4295 52.6893C74.893 52.6893 74.366 52.5489 73.9013 52.2823C73.0761 51.8266 73.0761 51.0671 73.9013 50.5811Z" fill="#9E4A9E"/>
<path d="M84.6596 46.1455C85.4848 46.6315 85.4848 47.391 84.6596 47.8467C84.195 48.1133 83.6679 48.2537 83.1314 48.2537C82.5949 48.2537 82.0679 48.1133 81.6033 47.8467C80.7781 47.391 80.7781 46.6315 81.6033 46.1455C82.0765 45.9054 82.6002 45.7803 83.1314 45.7803C83.6627 45.7803 84.1864 45.9054 84.6596 46.1455Z" fill="#9E4A9E"/>
<path d="M100.217 37.2141C101.042 37.6698 101.042 38.4293 100.217 38.9154C99.7433 39.1554 99.2196 39.2805 98.6884 39.2805C98.1571 39.2805 97.6334 39.1554 97.1602 38.9154C96.335 38.4293 96.335 37.6698 97.1602 37.2141C97.6248 36.9475 98.1519 36.8071 98.6884 36.8071C99.2249 36.8071 99.7519 36.9475 100.217 37.2141Z" fill="#9E4A9E"/>
<path d="M107.979 32.7485C108.804 33.2042 108.804 33.9637 107.979 34.4497C107.506 34.6898 106.982 34.8149 106.451 34.8149C105.92 34.8149 105.396 34.6898 104.923 34.4497C104.098 33.9637 104.098 33.2042 104.923 32.7485C105.388 32.4819 105.915 32.3415 106.451 32.3415C106.988 32.3415 107.515 32.4819 107.979 32.7485Z" fill="#9E4A9E"/>
<path d="M115.773 28.2829C116.598 28.7386 116.598 29.4981 115.773 29.9841C115.3 30.2241 114.776 30.3493 114.245 30.3493C113.714 30.3493 113.19 30.2241 112.717 29.9841C111.891 29.4981 111.891 28.7386 112.717 28.2829C113.181 28.0163 113.708 27.8759 114.245 27.8759C114.781 27.8759 115.308 28.0163 115.773 28.2829Z" fill="#9E4A9E"/>
<path d="M92.4227 32.7485C93.2479 33.2042 93.2479 33.9637 92.4227 34.4497C91.9495 34.6898 91.4258 34.8149 90.8946 34.8149C90.3633 34.8149 89.8396 34.6898 89.3664 34.4497C88.5412 33.9637 88.5412 33.2042 89.3664 32.7485C89.831 32.4819 90.3581 32.3415 90.8946 32.3415C91.4311 32.3415 91.9581 32.4819 92.4227 32.7485Z" fill="#9E4A9E"/>
<path d="M100.217 28.2829C101.042 28.7386 101.042 29.4981 100.217 29.9841C99.7433 30.2241 99.2196 30.3493 98.6884 30.3493C98.1571 30.3493 97.6334 30.2241 97.1602 29.9841C96.335 29.4981 96.335 28.7386 97.1602 28.2829C97.6248 28.0163 98.1519 27.8759 98.6884 27.8759C99.2249 27.8759 99.7519 28.0163 100.217 28.2829Z" fill="#9E4A9E"/>
<path d="M107.979 23.8169C108.168 23.8673 108.334 23.978 108.452 24.1317C108.571 24.2855 108.635 24.4738 108.635 24.6675C108.635 24.8612 108.571 25.0495 108.452 25.2033C108.334 25.357 108.168 25.4677 107.979 25.5181C107.515 25.7847 106.988 25.9251 106.451 25.9251C105.915 25.9251 105.388 25.7847 104.923 25.5181C104.735 25.4677 104.569 25.357 104.45 25.2033C104.332 25.0495 104.267 24.8612 104.267 24.6675C104.267 24.4738 104.332 24.2855 104.45 24.1317C104.569 23.978 104.735 23.8673 104.923 23.8169C105.388 23.5503 105.915 23.4099 106.451 23.4099C106.988 23.4099 107.515 23.5503 107.979 23.8169Z" fill="#9E4A9E"/>
<path d="M83.1622 30.3485C84.3269 30.3485 85.271 29.8044 85.271 29.1333C85.271 28.4622 84.3269 27.9182 83.1622 27.9182C81.9975 27.9182 81.0534 28.4622 81.0534 29.1333C81.0534 29.8044 81.9975 30.3485 83.1622 30.3485Z" fill="#9E4A9E"/>
<path d="M92.4229 23.8169C92.611 23.8673 92.7772 23.978 92.8957 24.1317C93.0142 24.2855 93.0784 24.4738 93.0784 24.6675C93.0784 24.8612 93.0142 25.0495 92.8957 25.2033C92.7772 25.357 92.611 25.4677 92.4229 25.5181C91.9583 25.7847 91.4312 25.9251 90.8947 25.9251C90.3582 25.9251 89.8312 25.7847 89.3666 25.5181C89.1784 25.4677 89.0122 25.357 88.8937 25.2033C88.7752 25.0495 88.711 24.8612 88.711 24.6675C88.711 24.4738 88.7752 24.2855 88.8937 24.1317C89.0122 23.978 89.1784 23.8673 89.3666 23.8169C89.8312 23.5503 90.3582 23.4099 90.8947 23.4099C91.4312 23.4099 91.9583 23.5503 92.4229 23.8169Z" fill="#9E4A9E"/>
<path d="M100.217 19.3513C101.042 19.8374 101.042 20.5969 100.217 21.0525C99.7519 21.3192 99.2249 21.4596 98.6884 21.4596C98.1519 21.4596 97.6248 21.3192 97.1602 21.0525C96.335 20.5969 96.335 19.8374 97.1602 19.3513C97.6334 19.1113 98.1571 18.9862 98.6884 18.9862C99.2196 18.9862 99.7433 19.1113 100.217 19.3513Z" fill="#9E4A9E"/>
</svg>
