<svg width="185" height="161" viewBox="0 0 185 161" fill="none" xmlns="http://www.w3.org/2000/svg">
<path d="M2.73377 65.2923V92.6147L28.8519 105.19V77.868L2.73377 65.2923Z" fill="white"/>
<path d="M28.8519 77.868L2.80152 65.3205L53.2086 41.0997C59.3401 38.28 65.0651 35.4604 70.4175 33.2047C67.0299 33.3738 62.8293 33.402 58.29 33.2047L38.5743 32.3024L41.6231 18.0067L100.973 20.8264L124.178 32.105L28.8519 77.868Z" fill="white"/>
<path d="M29.5633 85.0581L3.41129 72.5106L53.8522 48.2616C59.9837 45.4419 65.7087 42.6223 71.0611 40.3666C67.5041 40.5357 63.439 40.5639 58.9336 40.3666L39.184 39.4643L42.2667 25.1686L101.617 27.9883L124.822 39.2669L29.5633 85.0581Z" fill="#F6CA52"/>
<path d="M124.11 30.8643L101.549 20.0086L40.573 16.907L37.1854 31.5974V33.3456L58.1545 34.3043H64.9296C60.9662 36.0807 56.7995 37.998 52.5311 39.9436L2.80159 64.0798L1.51431 64.7002V93.235L27.6325 105.783L28.9198 106.403L30.1732 105.783L125.432 60.0195V31.4846L124.11 30.8643ZM27.5647 103.358L3.85174 92.079V67.1815L4.15663 67.3506L27.4292 78.6293L27.5647 103.358ZM5.5794 65.4615L5.27452 65.2923L53.7845 41.9738C59.8483 39.1541 65.6071 36.3344 70.9256 34.1069L76.1764 31.8512L70.282 32.1332C66.8944 32.3023 62.6938 32.3023 58.29 32.1332L40.0649 31.4846L42.6733 19.2755L100.601 22.0952L121.638 32.1896L116.014 35.0092L28.852 76.5991L5.5794 65.4615Z" fill="#9E4A9E"/>
<path d="M53.1071 33.0072L37.2194 31.5974V48.7409L64.7603 36.3063L68.9948 33.4866L53.1071 33.0072Z" fill="#9E4A9E"/>
<path d="M21.8737 75.1612C22.077 75.2169 22.2541 75.3245 22.3796 75.4688C22.5051 75.6131 22.5726 75.7867 22.5726 75.9648C22.5726 76.1429 22.5051 76.3166 22.3796 76.4609C22.2541 76.6052 22.077 76.7128 21.8737 76.7684C21.3526 77.0004 20.7708 77.1218 20.1799 77.1218C19.589 77.1218 19.0072 77.0004 18.4861 76.7684C17.5376 76.3173 17.5376 75.6124 18.4861 75.1612C19.0122 74.9428 19.592 74.829 20.1799 74.829C20.7678 74.829 21.3476 74.9428 21.8737 75.1612Z" fill="#9E4A9E"/>
<path d="M28.8859 72.9055C30.1768 72.9055 31.2233 72.4006 31.2233 71.7777C31.2233 71.1548 30.1768 70.6498 28.8859 70.6498C27.595 70.6498 26.5485 71.1548 26.5485 71.7777C26.5485 72.4006 27.595 72.9055 28.8859 72.9055Z" fill="#9E4A9E"/>
<path d="M37.5918 68.7325C38.8827 68.7325 39.9292 68.2276 39.9292 67.6047C39.9292 66.9818 38.8827 66.4768 37.5918 66.4768C36.3009 66.4768 35.2544 66.9818 35.2544 67.6047C35.2544 68.2276 36.3009 68.7325 37.5918 68.7325Z" fill="#9E4A9E"/>
<path d="M46.2982 64.5592C47.5891 64.5592 48.6356 64.0542 48.6356 63.4313C48.6356 62.8084 47.5891 62.3034 46.2982 62.3034C45.0073 62.3034 43.9608 62.8084 43.9608 63.4313C43.9608 64.0542 45.0073 64.5592 46.2982 64.5592Z" fill="#9E4A9E"/>
<path d="M56.6641 58.4405C56.8674 58.4961 57.0444 58.6038 57.1699 58.7481C57.2954 58.8924 57.363 59.066 57.363 59.2441C57.363 59.4222 57.2954 59.5958 57.1699 59.7401C57.0444 59.8844 56.8674 59.9921 56.6641 60.0477C56.143 60.2797 55.5612 60.4011 54.9703 60.4011C54.3794 60.4011 53.7976 60.2797 53.2765 60.0477C53.0732 59.9921 52.8961 59.8844 52.7706 59.7401C52.6451 59.5958 52.5776 59.4222 52.5776 59.2441C52.5776 59.066 52.6451 58.8924 52.7706 58.7481C52.8961 58.6038 53.0732 58.4961 53.2765 58.4405C53.8026 58.222 54.3824 58.1083 54.9703 58.1083C55.5582 58.1083 56.138 58.222 56.6641 58.4405Z" fill="#9E4A9E"/>
<path d="M65.37 54.2675C65.5733 54.3231 65.7504 54.4307 65.8759 54.575C66.0014 54.7193 66.0689 54.8929 66.0689 55.0711C66.0689 55.2492 66.0014 55.4228 65.8759 55.5671C65.7504 55.7114 65.5733 55.819 65.37 55.8746C64.8472 56.1019 64.2661 56.2206 63.6762 56.2206C63.0864 56.2206 62.5053 56.1019 61.9824 55.8746C61.7791 55.819 61.6021 55.7114 61.4766 55.5671C61.3511 55.4228 61.2835 55.2492 61.2835 55.0711C61.2835 54.8929 61.3511 54.7193 61.4766 54.575C61.6021 54.4307 61.7791 54.3231 61.9824 54.2675C62.5107 54.0552 63.0897 53.9449 63.6762 53.9449C64.2628 53.9449 64.8418 54.0552 65.37 54.2675Z" fill="#9E4A9E"/>
<path d="M73.9406 50.0945C74.1439 50.1501 74.321 50.2578 74.4465 50.4021C74.572 50.5464 74.6395 50.7199 74.6395 50.8981C74.6395 51.0762 74.572 51.2499 74.4465 51.3942C74.321 51.5385 74.1439 51.6461 73.9406 51.7017C73.4124 51.914 72.8334 52.0242 72.2468 52.0242C71.6603 52.0242 71.0813 51.914 70.553 51.7017C70.3497 51.6461 70.1727 51.5385 70.0472 51.3942C69.9217 51.2499 69.8541 51.0762 69.8541 50.8981C69.8541 50.7199 69.9217 50.5464 70.0472 50.4021C70.1727 50.2578 70.3497 50.1501 70.553 50.0945C71.0759 49.8672 71.657 49.7485 72.2468 49.7485C72.8367 49.7485 73.4178 49.8672 73.9406 50.0945Z" fill="#9E4A9E"/>
<path d="M82.7483 45.9213C82.9568 45.9681 83.1411 46.0708 83.2724 46.2135C83.4038 46.3562 83.4749 46.531 83.4749 46.7108C83.4749 46.8906 83.4038 47.0654 83.2724 47.2081C83.1411 47.3508 82.9568 47.4535 82.7483 47.5003C82.2272 47.7323 81.6454 47.8537 81.0545 47.8537C80.4636 47.8537 79.8818 47.7323 79.3607 47.5003C79.1522 47.4535 78.968 47.3508 78.8366 47.2081C78.7053 47.0654 78.6341 46.8906 78.6341 46.7108C78.6341 46.531 78.7053 46.3562 78.8366 46.2135C78.968 46.0708 79.1522 45.9681 79.3607 45.9213C79.8818 45.6893 80.4636 45.5679 81.0545 45.5679C81.6454 45.5679 82.2272 45.6893 82.7483 45.9213Z" fill="#9E4A9E"/>
<path d="M91.4542 41.7483C91.6628 41.7951 91.847 41.8978 91.9783 42.0405C92.1097 42.1832 92.1809 42.358 92.1809 42.5378C92.1809 42.7176 92.1097 42.8923 91.9783 43.035C91.847 43.1778 91.6628 43.2805 91.4542 43.3273C90.9332 43.5593 90.3514 43.6807 89.7604 43.6807C89.1695 43.6807 88.5877 43.5593 88.0667 43.3273C87.8581 43.2805 87.6739 43.1778 87.5426 43.035C87.4112 42.8923 87.34 42.7176 87.34 42.5378C87.34 42.358 87.4112 42.1832 87.5426 42.0405C87.6739 41.8978 87.8581 41.7951 88.0667 41.7483C88.5877 41.5163 89.1695 41.3949 89.7604 41.3949C90.3514 41.3949 90.9332 41.5163 91.4542 41.7483Z" fill="#9E4A9E"/>
<path d="M100.16 37.5471C100.364 37.6027 100.541 37.7104 100.666 37.8547C100.792 37.999 100.859 38.1726 100.859 38.3507C100.859 38.5289 100.792 38.7025 100.666 38.8468C100.541 38.9911 100.364 39.0987 100.16 39.1543C99.6392 39.3863 99.0574 39.5077 98.4665 39.5077C97.8756 39.5077 97.2938 39.3863 96.7727 39.1543C96.5694 39.0987 96.3924 38.9911 96.2669 38.8468C96.1413 38.7025 96.0738 38.5289 96.0738 38.3507C96.0738 38.1726 96.1413 37.999 96.2669 37.8547C96.3924 37.7104 96.5694 37.6027 96.7727 37.5471C97.2988 37.3287 97.8786 37.215 98.4665 37.215C99.0544 37.215 99.6342 37.3287 100.16 37.5471Z" fill="#9E4A9E"/>
<path d="M108.866 33.3738C109.07 33.4294 109.247 33.5371 109.372 33.6814C109.498 33.8257 109.565 33.9993 109.565 34.1774C109.565 34.3556 109.498 34.5291 109.372 34.6734C109.247 34.8177 109.07 34.9254 108.866 34.981C108.338 35.1933 107.759 35.3035 107.172 35.3035C106.586 35.3035 106.007 35.1933 105.479 34.981C105.275 34.9254 105.098 34.8177 104.973 34.6734C104.847 34.5291 104.78 34.3556 104.78 34.1774C104.78 33.9993 104.847 33.8257 104.973 33.6814C105.098 33.5371 105.275 33.4294 105.479 33.3738C106.002 33.1465 106.583 33.0278 107.172 33.0278C107.762 33.0278 108.343 33.1465 108.866 33.3738Z" fill="#9E4A9E"/>
<path d="M13.1674 70.9598C13.3707 71.0155 13.5477 71.1231 13.6732 71.2674C13.7987 71.4117 13.8663 71.5853 13.8663 71.7634C13.8663 71.9416 13.7987 72.1152 13.6732 72.2595C13.5477 72.4038 13.3707 72.5114 13.1674 72.5671C12.6413 72.7855 12.0615 72.8992 11.4736 72.8992C10.8857 72.8992 10.3059 72.7855 9.7798 72.5671C9.57647 72.5114 9.39944 72.4038 9.27393 72.2595C9.14843 72.1152 9.08086 71.9416 9.08086 71.7634C9.08086 71.5853 9.14843 71.4117 9.27393 71.2674C9.39944 71.1231 9.57647 71.0155 9.7798 70.9598C10.3009 70.7278 10.8827 70.6064 11.4736 70.6064C12.0645 70.6064 12.6463 70.7278 13.1674 70.9598Z" fill="#9E4A9E"/>
<path d="M21.8737 66.8151C22.077 66.8707 22.2541 66.9783 22.3796 67.1226C22.5051 67.2669 22.5726 67.4405 22.5726 67.6187C22.5726 67.7968 22.5051 67.9704 22.3796 68.1147C22.2541 68.259 22.077 68.3667 21.8737 68.4223C21.3476 68.6407 20.7678 68.7544 20.1799 68.7544C19.592 68.7544 19.0122 68.6407 18.4861 68.4223C17.5376 67.9711 17.5376 67.2662 18.4861 66.8151C19.0072 66.583 19.589 66.4617 20.1799 66.4617C20.7708 66.4617 21.3526 66.583 21.8737 66.8151Z" fill="#9E4A9E"/>
<path d="M30.5796 62.6419C30.7881 62.6887 30.9723 62.7914 31.1037 62.9341C31.235 63.0768 31.3062 63.2516 31.3062 63.4314C31.3062 63.6111 31.235 63.7859 31.1037 63.9286C30.9723 64.0714 30.7881 64.1741 30.5796 64.2209C30.0567 64.4482 29.4756 64.5669 28.8858 64.5669C28.2959 64.5669 27.7148 64.4482 27.192 64.2209C26.9834 64.1741 26.7992 64.0714 26.6679 63.9286C26.5365 63.7859 26.4653 63.6111 26.4653 63.4314C26.4653 63.2516 26.5365 63.0768 26.6679 62.9341C26.7992 62.7914 26.9834 62.6887 27.192 62.6419C27.7148 62.4146 28.2959 62.2959 28.8858 62.2959C29.4756 62.2959 30.0567 62.4146 30.5796 62.6419Z" fill="#9E4A9E"/>
<path d="M39.252 58.4405C39.4553 58.4961 39.6323 58.6038 39.7578 58.7481C39.8834 58.8924 39.9509 59.066 39.9509 59.2441C39.9509 59.4222 39.8834 59.5958 39.7578 59.7401C39.6323 59.8844 39.4553 59.9921 39.252 60.0477C38.7309 60.2797 38.1491 60.4011 37.5582 60.4011C36.9673 60.4011 36.3855 60.2797 35.8644 60.0477C35.6611 59.9921 35.4841 59.8844 35.3586 59.7401C35.2331 59.5958 35.1655 59.4222 35.1655 59.2441C35.1655 59.066 35.2331 58.8924 35.3586 58.7481C35.4841 58.6038 35.6611 58.4961 35.8644 58.4405C36.3905 58.222 36.9703 58.1083 37.5582 58.1083C38.1461 58.1083 38.7259 58.222 39.252 58.4405Z" fill="#9E4A9E"/>
<path d="M46.2982 56.2131C47.5891 56.2131 48.6356 55.7081 48.6356 55.0852C48.6356 54.4623 47.5891 53.9574 46.2982 53.9574C45.0073 53.9574 43.9608 54.4623 43.9608 55.0852C43.9608 55.7081 45.0073 56.2131 46.2982 56.2131Z" fill="#9E4A9E"/>
<path d="M56.6641 50.0944C56.8674 50.15 57.0444 50.2576 57.1699 50.4019C57.2954 50.5462 57.363 50.7198 57.363 50.8979C57.363 51.0761 57.2954 51.2497 57.1699 51.394C57.0444 51.5383 56.8674 51.6459 56.6641 51.7016C56.138 51.92 55.5582 52.0337 54.9703 52.0337C54.3824 52.0337 53.8026 51.92 53.2765 51.7016C53.0732 51.6459 52.8961 51.5383 52.7706 51.394C52.6451 51.2497 52.5776 51.0761 52.5776 50.8979C52.5776 50.7198 52.6451 50.5462 52.7706 50.4019C52.8961 50.2576 53.0732 50.15 53.2765 50.0944C53.7976 49.8624 54.3794 49.741 54.9703 49.741C55.5612 49.741 56.143 49.8624 56.6641 50.0944Z" fill="#9E4A9E"/>
<path d="M65.3698 45.9215C65.5784 45.9683 65.7626 46.071 65.8939 46.2137C66.0253 46.3564 66.0965 46.5312 66.0965 46.711C66.0965 46.8908 66.0253 47.0656 65.8939 47.2083C65.7626 47.351 65.5784 47.4537 65.3698 47.5005C64.847 47.7278 64.2659 47.8465 63.676 47.8465C63.0862 47.8465 62.5051 47.7278 61.9823 47.5005C61.7737 47.4537 61.5895 47.351 61.4581 47.2083C61.3268 47.0656 61.2556 46.8908 61.2556 46.711C61.2556 46.5312 61.3268 46.3564 61.4581 46.2137C61.5895 46.071 61.7737 45.9683 61.9823 45.9215C62.5051 45.6942 63.0862 45.5755 63.676 45.5755C64.2659 45.5755 64.847 45.6942 65.3698 45.9215Z" fill="#9E4A9E"/>
<path d="M73.9407 41.7485C74.1492 41.7953 74.3334 41.898 74.4648 42.0407C74.5962 42.1834 74.6673 42.3582 74.6673 42.538C74.6673 42.7178 74.5962 42.8925 74.4648 43.0352C74.3334 43.178 74.1492 43.2807 73.9407 43.3275C73.4179 43.5548 72.8367 43.6735 72.2469 43.6735C71.657 43.6735 71.0759 43.5548 70.5531 43.3275C70.3446 43.2807 70.1604 43.178 70.029 43.0352C69.8976 42.8925 69.8265 42.7178 69.8265 42.538C69.8265 42.3582 69.8976 42.1834 70.029 42.0407C70.1604 41.898 70.3446 41.7953 70.5531 41.7485C71.0759 41.5212 71.657 41.4025 72.2469 41.4025C72.8367 41.4025 73.4179 41.5212 73.9407 41.7485Z" fill="#9E4A9E"/>
<path d="M82.7482 37.5471C82.9515 37.6027 83.1285 37.7104 83.254 37.8547C83.3796 37.999 83.4471 38.1726 83.4471 38.3507C83.4471 38.5289 83.3796 38.7025 83.254 38.8468C83.1285 38.9911 82.9515 39.0987 82.7482 39.1543C82.2271 39.3863 81.6453 39.5077 81.0544 39.5077C80.4635 39.5077 79.8817 39.3863 79.3606 39.1543C79.1573 39.0987 78.9803 38.9911 78.8547 38.8468C78.7292 38.7025 78.6617 38.5289 78.6617 38.3507C78.6617 38.1726 78.7292 37.999 78.8547 37.8547C78.9803 37.7104 79.1573 37.6027 79.3606 37.5471C79.8867 37.3287 80.4665 37.215 81.0544 37.215C81.6423 37.215 82.2221 37.3287 82.7482 37.5471Z" fill="#9E4A9E"/>
<path d="M91.4541 33.374C91.6575 33.4296 91.8345 33.5373 91.96 33.6816C92.0855 33.8259 92.1531 33.9995 92.1531 34.1776C92.1531 34.3557 92.0855 34.5293 91.96 34.6736C91.8345 34.8179 91.6575 34.9256 91.4541 34.9812C90.9281 35.1997 90.3482 35.3134 89.7604 35.3134C89.1725 35.3134 88.5926 35.1997 88.0666 34.9812C87.8633 34.9256 87.6862 34.8179 87.5607 34.6736C87.4352 34.5293 87.3676 34.3557 87.3676 34.1776C87.3676 33.9995 87.4352 33.8259 87.5607 33.6816C87.6862 33.5373 87.8633 33.4296 88.0666 33.374C88.5876 33.142 89.1694 33.0206 89.7604 33.0206C90.3513 33.0206 90.9331 33.142 91.4541 33.374Z" fill="#9E4A9E"/>
<path d="M98.5006 31.1184C99.7915 31.1184 100.838 30.6134 100.838 29.9905C100.838 29.3676 99.7915 28.8627 98.5006 28.8627C97.2097 28.8627 96.1632 29.3676 96.1632 29.9905C96.1632 30.6134 97.2097 31.1184 98.5006 31.1184Z" fill="#9E4A9E"/>
<path d="M65.2682 37.5188C66.2167 37.9417 66.2167 38.6748 65.2682 39.0978C64.7471 39.3298 64.1653 39.4512 63.5744 39.4512C62.9834 39.4512 62.4016 39.3298 61.8806 39.0978C61.672 39.051 61.4878 38.9483 61.3565 38.8056C61.2251 38.6628 61.1539 38.4881 61.1539 38.3083C61.1539 38.1285 61.2251 37.9537 61.3565 37.811C61.4878 37.6683 61.672 37.5656 61.8806 37.5188C62.4016 37.2868 62.9834 37.1654 63.5744 37.1654C64.1653 37.1654 64.7471 37.2868 65.2682 37.5188Z" fill="#9E4A9E"/>
<path d="M73.9407 33.3457C74.1492 33.3925 74.3334 33.4952 74.4648 33.638C74.5962 33.7807 74.6673 33.9555 74.6673 34.1352C74.6673 34.315 74.5962 34.4898 74.4648 34.6325C74.3334 34.7752 74.1492 34.8779 73.9407 34.9247C73.4196 35.1568 72.8378 35.2781 72.2469 35.2781C71.656 35.2781 71.0742 35.1568 70.5531 34.9247C70.3446 34.8779 70.1604 34.7752 70.029 34.6325C69.8976 34.4898 69.8265 34.315 69.8265 34.1352C69.8265 33.9555 69.8976 33.7807 70.029 33.638C70.1604 33.4952 70.3446 33.3925 70.5531 33.3457C71.0742 33.1137 71.656 32.9923 72.2469 32.9923C72.8378 32.9923 73.4196 33.1137 73.9407 33.3457Z" fill="#9E4A9E"/>
<path d="M82.6804 29.1446C82.8838 29.2002 83.0608 29.3079 83.1863 29.4522C83.3118 29.5965 83.3794 29.7701 83.3794 29.9482C83.3794 30.1263 83.3118 30.2999 83.1863 30.4442C83.0608 30.5885 82.8838 30.6962 82.6804 30.7518C82.1594 30.9838 81.5776 31.1052 80.9866 31.1052C80.3957 31.1052 79.8139 30.9838 79.2929 30.7518C79.0895 30.6962 78.9125 30.5885 78.787 30.4442C78.6615 30.2999 78.5939 30.1263 78.5939 29.9482C78.5939 29.7701 78.6615 29.5965 78.787 29.4522C78.9125 29.3079 79.0895 29.2002 79.2929 29.1446C79.8189 28.9261 80.3988 28.8124 80.9866 28.8124C81.5745 28.8124 82.1544 28.9261 82.6804 29.1446Z" fill="#9E4A9E"/>
<path d="M56.5963 33.3459C56.8048 33.3927 56.989 33.4954 57.1204 33.6382C57.2517 33.7809 57.3229 33.9557 57.3229 34.1354C57.3229 34.3152 57.2517 34.49 57.1204 34.6327C56.989 34.7754 56.8048 34.8781 56.5963 34.9249C56.0735 35.1522 55.4924 35.2709 54.9025 35.2709C54.3127 35.2709 53.7315 35.1522 53.2087 34.9249C53.0002 34.8781 52.816 34.7754 52.6846 34.6327C52.5533 34.49 52.4821 34.3152 52.4821 34.1354C52.4821 33.9557 52.5533 33.7809 52.6846 33.6382C52.816 33.4954 53.0002 33.3927 53.2087 33.3459C53.7315 33.1186 54.3127 32.9999 54.9025 32.9999C55.4924 32.9999 56.0735 33.1186 56.5963 33.3459Z" fill="#9E4A9E"/>
<path d="M65.2684 29.1446C66.2169 29.5957 66.2169 30.3007 65.2684 30.7518C64.7473 30.9838 64.1655 31.1052 63.5746 31.1052C62.9836 31.1052 62.4019 30.9838 61.8808 30.7518C61.6775 30.6962 61.5004 30.5885 61.3749 30.4442C61.2494 30.2999 61.1818 30.1263 61.1818 29.9482C61.1818 29.7701 61.2494 29.5965 61.3749 29.4522C61.5004 29.3079 61.6775 29.2002 61.8808 29.1446C62.4068 28.9261 62.9867 28.8124 63.5746 28.8124C64.1625 28.8124 64.7423 28.9261 65.2684 29.1446Z" fill="#9E4A9E"/>
<path d="M46.2302 31.0902C47.5211 31.0902 48.5676 30.5853 48.5676 29.9624C48.5676 29.3395 47.5211 28.8345 46.2302 28.8345C44.9393 28.8345 43.8928 29.3395 43.8928 29.9624C43.8928 30.5853 44.9393 31.0902 46.2302 31.0902Z" fill="#9E4A9E"/>
<path d="M46.7385 129.925L46.8546 94.2005L70.274 107.724L70.1579 143.448L46.7385 129.925Z" fill="white"/>
<path d="M104.228 52.4111V90.3697L140.474 73.3348L104.228 52.4111Z" fill="white"/>
<path d="M103.096 92.1111V51.7729L104.228 51.1344L142.883 73.451L103.096 92.1111ZM105.331 54.3847V88.6287L138.066 73.2769L105.331 54.3847Z" fill="#9E4A9E"/>
<path d="M46.8547 94.2007L140.474 73.335L104.228 52.5275L122.946 41.7319L183.366 76.5563L170.017 84.2757L70.2741 107.666L46.8547 94.2007Z" fill="white"/>
<path d="M122.946 48.5516L105.331 58.7087V60.0146L140.474 80.2998L46.8547 101.136L70.2741 114.66L170.017 91.1244L183.366 83.434L122.946 48.5516Z" fill="#F6CA52"/>
<path d="M183.366 75.1924L122.946 40.368L103.096 51.8311V53.1079L137.427 72.8418L45.7519 93.156V130.447L70.1 144.493L170.452 120.812L184.382 112.774V75.7438L183.366 75.1924ZM69.0552 141.533L47.8704 129.286V96.1451L69.0552 108.363V141.533ZM70.4482 106.534L49.9018 94.665L143.521 73.7994L106.462 52.5275L122.946 43.0089L181.132 76.5854L169.524 83.2601L70.4482 106.534Z" fill="#9E4A9E"/>
<path d="M171.12 118.491L168.798 119.332V85.6106L171.12 84.856V118.491Z" fill="white"/>
<path d="M59.3623 97.8281C59.5365 97.8853 59.6881 97.9961 59.7957 98.1446C59.9032 98.2932 59.9611 98.4718 59.9611 98.6552C59.9611 98.8385 59.9032 99.0172 59.7957 99.1657C59.6881 99.3142 59.5365 99.425 59.3623 99.4823C58.913 99.7115 58.4157 99.8311 57.9113 99.8311C57.4069 99.8311 56.9096 99.7115 56.4603 99.4823C56.2861 99.425 56.1345 99.3142 56.0269 99.1657C55.9194 99.0172 55.8615 98.8385 55.8615 98.6552C55.8615 98.4718 55.9194 98.2932 56.0269 98.1446C56.1345 97.9961 56.2861 97.8853 56.4603 97.8281C56.8925 97.5483 57.3964 97.3994 57.9113 97.3994C58.4262 97.3994 58.9301 97.5483 59.3623 97.8281Z" fill="#9E4A9E"/>
<path d="M104.083 97.1605C104.261 97.2086 104.419 97.3144 104.532 97.4612C104.644 97.6081 104.705 97.788 104.705 97.973C104.705 98.1581 104.644 98.3379 104.532 98.4848C104.419 98.6317 104.261 98.7374 104.083 98.7856C103.642 99.0403 103.141 99.1744 102.632 99.1744C102.122 99.1744 101.622 99.0403 101.181 98.7856C101.002 98.7374 100.844 98.6317 100.732 98.4848C100.619 98.3379 100.558 98.1581 100.558 97.973C100.558 97.788 100.619 97.6081 100.732 97.4612C100.844 97.3144 101.002 97.2086 101.181 97.1605C101.622 96.9058 102.122 96.7717 102.632 96.7717C103.141 96.7717 103.642 96.9058 104.083 97.1605Z" fill="#9E4A9E"/>
<path d="M109.945 94.8681C111.051 94.8681 111.947 94.3484 111.947 93.7073C111.947 93.0662 111.051 92.5465 109.945 92.5465C108.839 92.5465 107.942 93.0662 107.942 93.7073C107.942 94.3484 108.839 94.8681 109.945 94.8681Z" fill="#9E4A9E"/>
<path d="M74.4239 105.693C75.2075 106.128 75.2075 106.853 74.4239 107.318C73.9746 107.547 73.4773 107.667 72.9729 107.667C72.4685 107.667 71.9712 107.547 71.5219 107.318C70.7383 106.853 70.7383 106.128 71.5219 105.693C71.963 105.438 72.4635 105.304 72.9729 105.304C73.4823 105.304 73.9827 105.438 74.4239 105.693Z" fill="#9E4A9E"/>
<path d="M81.8239 101.426C81.9881 101.49 82.1294 101.601 82.2291 101.746C82.3287 101.891 82.382 102.063 82.382 102.239C82.382 102.415 82.3287 102.587 82.2291 102.732C82.1294 102.877 81.9881 102.988 81.8239 103.052C81.3732 103.276 80.8765 103.393 80.3729 103.393C79.8693 103.393 79.3725 103.276 78.9219 103.052C78.1383 102.587 78.1383 101.862 78.9219 101.426C79.3682 101.188 79.8666 101.063 80.3729 101.063C80.8791 101.063 81.3775 101.188 81.8239 101.426Z" fill="#9E4A9E"/>
<path d="M89.1953 97.1605C89.374 97.2086 89.5318 97.3144 89.6443 97.4612C89.7569 97.6081 89.8178 97.788 89.8178 97.973C89.8178 98.1581 89.7569 98.3379 89.6443 98.4848C89.5318 98.6317 89.374 98.7374 89.1953 98.7856C88.7542 99.0403 88.2537 99.1744 87.7443 99.1744C87.2349 99.1744 86.7345 99.0403 86.2933 98.7856C86.1146 98.7374 85.9569 98.6317 85.8444 98.4848C85.7318 98.3379 85.6708 98.1581 85.6708 97.973C85.6708 97.788 85.7318 97.6081 85.8444 97.4612C85.9569 97.3144 86.1146 97.2086 86.2933 97.1605C86.7345 96.9058 87.2349 96.7717 87.7443 96.7717C88.2537 96.7717 88.7542 96.9058 89.1953 97.1605Z" fill="#9E4A9E"/>
<path d="M95.1734 94.8681C96.2793 94.8681 97.1758 94.3484 97.1758 93.7073C97.1758 93.0662 96.2793 92.5465 95.1734 92.5465C94.0675 92.5465 93.171 93.0662 93.171 93.7073C93.171 94.3484 94.0675 94.8681 95.1734 94.8681Z" fill="#9E4A9E"/>
<path d="M104.083 88.6288C104.866 89.0931 104.866 89.8186 104.083 90.2539C103.641 90.5086 103.141 90.6427 102.632 90.6427C102.122 90.6427 101.622 90.5086 101.181 90.2539C100.397 89.8186 100.397 89.0931 101.181 88.6288C101.63 88.3995 102.127 88.2799 102.632 88.2799C103.136 88.2799 103.633 88.3995 104.083 88.6288Z" fill="#9E4A9E"/>
<path d="M66.3562 101.427C67.1397 101.862 67.1397 102.588 66.3562 103.052C65.9069 103.281 65.4096 103.401 64.9052 103.401C64.4007 103.401 63.9035 103.281 63.4541 103.052C62.6706 102.588 62.6706 101.862 63.4541 101.427C63.8953 101.172 64.3958 101.038 64.9052 101.038C65.4146 101.038 65.915 101.172 66.3562 101.427Z" fill="#9E4A9E"/>
<path d="M51.2654 102.5C52.049 102.936 52.049 103.661 51.2654 104.125C50.8161 104.355 50.3188 104.474 49.8144 104.474C49.31 104.474 48.8127 104.355 48.3634 104.125C47.5798 103.661 47.5798 102.936 48.3634 102.5C48.7956 102.221 49.2995 102.072 49.8144 102.072C50.3293 102.072 50.8332 102.221 51.2654 102.5Z" fill="#9E4A9E"/>
<path d="M66.3562 110.336C67.1397 110.8 67.1397 111.526 66.3562 111.961C65.915 112.216 65.4146 112.35 64.9052 112.35C64.3958 112.35 63.8953 112.216 63.4541 111.961C62.6706 111.526 62.6706 110.8 63.4541 110.336C63.8953 110.081 64.3958 109.947 64.9052 109.947C65.4146 109.947 65.915 110.081 66.3562 110.336Z" fill="#9E4A9E"/>
<path d="M58.3756 106.07C59.1592 106.534 59.1592 107.26 58.3756 107.695C57.9292 107.934 57.4308 108.059 56.9246 108.059C56.4184 108.059 55.9199 107.934 55.4736 107.695C54.69 107.26 54.69 106.534 55.4736 106.07C55.9242 105.845 56.421 105.728 56.9246 105.728C57.4282 105.728 57.925 105.845 58.3756 106.07Z" fill="#9E4A9E"/>
<path d="M74.4237 97.1605C74.6024 97.2086 74.7602 97.3144 74.8727 97.4612C74.9853 97.6081 75.0462 97.788 75.0462 97.973C75.0462 98.1581 74.9853 98.3379 74.8727 98.4848C74.7602 98.6317 74.6024 98.7374 74.4237 98.7856C73.9825 99.0403 73.4821 99.1744 72.9727 99.1744C72.4633 99.1744 71.9628 99.0403 71.5217 98.7856C71.343 98.7374 71.1852 98.6317 71.0727 98.4848C70.9601 98.3379 70.8992 98.1581 70.8992 97.973C70.8992 97.788 70.9601 97.6081 71.0727 97.4612C71.1852 97.3144 71.343 97.2086 71.5217 97.1605C71.9628 96.9058 72.4633 96.7717 72.9727 96.7717C73.4821 96.7717 73.9825 96.9058 74.4237 97.1605Z" fill="#9E4A9E"/>
<path d="M81.8239 92.8948C81.9881 92.9579 82.1294 93.0694 82.2291 93.2145C82.3287 93.3595 82.382 93.5314 82.382 93.7073C82.382 93.8833 82.3287 94.0551 82.2291 94.2002C82.1294 94.3453 81.9881 94.4567 81.8239 94.5199C81.3775 94.7587 80.8791 94.8836 80.3729 94.8836C79.8666 94.8836 79.3682 94.7587 78.9219 94.5199C78.1383 94.0846 78.1383 93.3591 78.9219 92.8948C79.3725 92.6699 79.8693 92.5529 80.3729 92.5529C80.8765 92.5529 81.3732 92.6699 81.8239 92.8948Z" fill="#9E4A9E"/>
<path d="M118.593 63.7873C118.767 63.8445 118.919 63.9553 119.026 64.1038C119.134 64.2523 119.192 64.431 119.192 64.6143C119.192 64.7977 119.134 64.9764 119.026 65.1249C118.919 65.2734 118.767 65.3842 118.593 65.4414C118.142 65.6662 117.646 65.7833 117.142 65.7833C116.638 65.7833 116.142 65.6662 115.691 65.4414C115.517 65.3842 115.365 65.2734 115.258 65.1249C115.15 64.9764 115.092 64.7977 115.092 64.6143C115.092 64.431 115.15 64.2523 115.258 64.1038C115.365 63.9553 115.517 63.8445 115.691 63.7873C116.142 63.5624 116.638 63.4454 117.142 63.4454C117.646 63.4454 118.142 63.5624 118.593 63.7873Z" fill="#9E4A9E"/>
<path d="M125.848 59.5502C126.631 59.9855 126.631 60.7111 125.848 61.1754C125.399 61.4047 124.901 61.5242 124.397 61.5242C123.892 61.5242 123.395 61.4047 122.946 61.1754C122.162 60.7111 122.162 59.9855 122.946 59.5502C123.387 59.2955 123.887 59.1614 124.397 59.1614C124.906 59.1614 125.407 59.2955 125.848 59.5502Z" fill="#9E4A9E"/>
<path d="M133.248 55.4293C133.412 55.4925 133.553 55.6039 133.653 55.749C133.753 55.894 133.806 56.0659 133.806 56.2419C133.806 56.4178 133.753 56.5897 133.653 56.7347C133.553 56.8798 133.412 56.9913 133.248 57.0544C132.797 57.2793 132.3 57.3963 131.797 57.3963C131.293 57.3963 130.796 57.2793 130.346 57.0544C129.562 56.5901 129.562 55.8646 130.346 55.4293C130.792 55.1905 131.291 55.0656 131.797 55.0656C132.303 55.0656 132.801 55.1905 133.248 55.4293Z" fill="#9E4A9E"/>
<path d="M111.077 59.5502C111.86 59.9855 111.86 60.7111 111.077 61.1754C110.627 61.4047 110.13 61.5242 109.626 61.5242C109.121 61.5242 108.624 61.4047 108.175 61.1754C107.391 60.7111 107.391 59.9855 108.175 59.5502C108.616 59.2955 109.116 59.1614 109.626 59.1614C110.135 59.1614 110.635 59.2955 111.077 59.5502Z" fill="#9E4A9E"/>
<path d="M118.593 55.4293C119.376 55.8646 119.376 56.5901 118.593 57.0544C118.142 57.2793 117.645 57.3963 117.142 57.3963C116.638 57.3963 116.141 57.2793 115.691 57.0544C114.907 56.5901 114.907 55.8646 115.691 55.4293C116.137 55.1905 116.636 55.0656 117.142 55.0656C117.648 55.0656 118.146 55.1905 118.593 55.4293Z" fill="#9E4A9E"/>
<path d="M125.848 51.0184C126.027 51.0666 126.184 51.1723 126.297 51.3192C126.41 51.4661 126.47 51.646 126.47 51.831C126.47 52.016 126.41 52.1959 126.297 52.3428C126.184 52.4897 126.027 52.5954 125.848 52.6436C125.407 52.8983 124.906 53.0323 124.397 53.0323C123.888 53.0323 123.387 52.8983 122.946 52.6436C122.767 52.5954 122.609 52.4897 122.497 52.3428C122.384 52.1959 122.323 52.016 122.323 51.831C122.323 51.646 122.384 51.4661 122.497 51.3192C122.609 51.1723 122.767 51.0666 122.946 51.0184C123.387 50.7637 123.888 50.6296 124.397 50.6296C124.906 50.6296 125.407 50.7637 125.848 51.0184Z" fill="#9E4A9E"/>
<path d="M155.739 84.4496C156.522 84.8849 156.522 85.6104 155.739 86.0747C155.289 86.304 154.792 86.4235 154.288 86.4235C153.783 86.4235 153.286 86.304 152.837 86.0747C152.053 85.6104 152.053 84.8849 152.837 84.4496C153.278 84.1948 153.778 84.0608 154.288 84.0608C154.797 84.0608 155.297 84.1948 155.739 84.4496Z" fill="#9E4A9E"/>
<path d="M163.139 80.2128C163.303 80.2759 163.445 80.3874 163.544 80.5325C163.644 80.6775 163.697 80.8494 163.697 81.0253C163.697 81.2013 163.644 81.3732 163.544 81.5182C163.445 81.6633 163.303 81.7747 163.139 81.8379C162.693 82.0767 162.194 82.2016 161.688 82.2016C161.182 82.2016 160.683 82.0767 160.237 81.8379C160.058 81.7897 159.901 81.684 159.788 81.5371C159.676 81.3903 159.615 81.2104 159.615 81.0253C159.615 80.8403 159.676 80.6604 159.788 80.5135C159.901 80.3666 160.058 80.2609 160.237 80.2128C160.683 79.974 161.182 79.849 161.688 79.849C162.194 79.849 162.693 79.974 163.139 80.2128Z" fill="#9E4A9E"/>
<path d="M170.51 75.9469C171.294 76.4112 171.294 77.1367 170.51 77.572C170.069 77.8267 169.569 77.9608 169.059 77.9608C168.55 77.9608 168.049 77.8267 167.608 77.572C166.825 77.1367 166.825 76.4112 167.608 75.9469C168.057 75.7176 168.555 75.598 169.059 75.598C169.564 75.598 170.061 75.7176 170.51 75.9469Z" fill="#9E4A9E"/>
<path d="M133.509 88.6868C134.293 89.1512 134.293 89.8767 133.509 90.312C133.068 90.5667 132.568 90.7008 132.058 90.7008C131.549 90.7008 131.048 90.5667 130.607 90.312C129.824 89.8767 129.824 89.1512 130.607 88.6868C131.057 88.4575 131.554 88.338 132.058 88.338C132.563 88.338 133.06 88.4575 133.509 88.6868Z" fill="#9E4A9E"/>
<path d="M140.91 84.4496C141.693 84.9139 141.693 85.6394 140.91 86.0747C140.468 86.3294 139.968 86.4635 139.459 86.4635C138.949 86.4635 138.449 86.3294 138.008 86.0747C137.224 85.6394 137.224 84.9139 138.008 84.4496C138.457 84.2203 138.954 84.1008 139.459 84.1008C139.963 84.1008 140.46 84.2203 140.91 84.4496Z" fill="#9E4A9E"/>
<path d="M146.888 82.1281C147.994 82.1281 148.89 81.6084 148.89 80.9673C148.89 80.3262 147.994 79.8065 146.888 79.8065C145.782 79.8065 144.885 80.3262 144.885 80.9673C144.885 81.6084 145.782 82.1281 146.888 82.1281Z" fill="#9E4A9E"/>
<path d="M155.681 75.9177C156.464 76.353 156.464 77.0786 155.681 77.5429C155.232 77.7722 154.734 77.8917 154.23 77.8917C153.725 77.8917 153.228 77.7722 152.779 77.5429C151.995 77.0786 151.995 76.353 152.779 75.9177C153.22 75.663 153.72 75.5289 154.23 75.5289C154.739 75.5289 155.24 75.663 155.681 75.9177Z" fill="#9E4A9E"/>
<path d="M161.659 73.625C162.765 73.625 163.661 73.1053 163.661 72.4642C163.661 71.8231 162.765 71.3034 161.659 71.3034C160.553 71.3034 159.657 71.8231 159.657 72.4642C159.657 73.1053 160.553 73.625 161.659 73.625Z" fill="#9E4A9E"/>
<path d="M115.923 88.6868C116.372 88.4575 116.869 88.338 117.374 88.338C117.878 88.338 118.375 88.4575 118.825 88.6868C119.608 89.1512 119.608 89.8767 118.825 90.312C118.384 90.5667 117.883 90.7008 117.374 90.7008C116.864 90.7008 116.364 90.5667 115.923 90.312C115.139 89.8767 115.139 89.1512 115.923 88.6868Z" fill="#9E4A9E"/>
<path d="M126.138 84.4496C126.922 84.9139 126.922 85.6394 126.138 86.0747C125.697 86.3294 125.196 86.4635 124.687 86.4635C124.178 86.4635 123.677 86.3294 123.236 86.0747C122.452 85.6394 122.452 84.9139 123.236 84.4496C123.685 84.2203 124.183 84.1008 124.687 84.1008C125.191 84.1008 125.689 84.2203 126.138 84.4496Z" fill="#9E4A9E"/>
<path d="M140.91 75.9177C141.693 76.353 141.693 77.0786 140.91 77.5429C140.46 77.7722 139.963 77.8917 139.459 77.8917C138.954 77.8917 138.457 77.7722 138.008 77.5429C137.224 77.0786 137.224 76.353 138.008 75.9177C138.449 75.663 138.949 75.5289 139.459 75.5289C139.968 75.5289 140.468 75.663 140.91 75.9177Z" fill="#9E4A9E"/>
<path d="M148.281 71.6519C149.064 72.0872 149.064 72.8127 148.281 73.277C147.831 73.5063 147.334 73.6258 146.83 73.6258C146.325 73.6258 145.828 73.5063 145.378 73.277C144.595 72.8127 144.595 72.0872 145.378 71.6519C145.82 71.3971 146.32 71.2631 146.83 71.2631C147.339 71.2631 147.839 71.3971 148.281 71.6519Z" fill="#9E4A9E"/>
<path d="M155.681 67.3859C156.464 67.8213 156.464 68.5468 155.681 69.0111C155.232 69.2404 154.734 69.3599 154.23 69.3599C153.725 69.3599 153.228 69.2404 152.779 69.0111C151.995 68.5468 151.995 67.8213 152.779 67.3859C153.22 67.1312 153.72 66.9971 154.23 66.9971C154.739 66.9971 155.24 67.1312 155.681 67.3859Z" fill="#9E4A9E"/>
<path d="M133.509 71.6519C134.293 72.0872 134.293 72.8127 133.509 73.277C133.06 73.5063 132.563 73.6258 132.058 73.6258C131.554 73.6258 131.057 73.5063 130.607 73.277C129.824 72.8127 129.824 72.0872 130.607 71.6519C131.048 71.3971 131.549 71.2631 132.058 71.2631C132.568 71.2631 133.068 71.3971 133.509 71.6519Z" fill="#9E4A9E"/>
<path d="M140.91 67.3859C141.693 67.8213 141.693 68.5468 140.91 69.0111C140.46 69.2404 139.963 69.3599 139.459 69.3599C138.954 69.3599 138.457 69.2404 138.008 69.0111C137.224 68.5468 137.224 67.8213 138.008 67.3859C138.449 67.1312 138.949 66.9971 139.459 66.9971C139.968 66.9971 140.468 67.1312 140.91 67.3859Z" fill="#9E4A9E"/>
<path d="M148.281 63.1197C148.459 63.1679 148.617 63.2736 148.73 63.4205C148.842 63.5673 148.903 63.7472 148.903 63.9323C148.903 64.1173 148.842 64.2972 148.73 64.4441C148.617 64.591 148.459 64.6967 148.281 64.7448C147.839 64.9995 147.339 65.1336 146.83 65.1336C146.32 65.1336 145.82 64.9995 145.379 64.7448C145.2 64.6967 145.042 64.591 144.93 64.4441C144.817 64.2972 144.756 64.1173 144.756 63.9323C144.756 63.7472 144.817 63.5673 144.93 63.4205C145.042 63.2736 145.2 63.1679 145.379 63.1197C145.82 62.865 146.32 62.7309 146.83 62.7309C147.339 62.7309 147.839 62.865 148.281 63.1197Z" fill="#9E4A9E"/>
<path d="M124.716 69.3592C125.822 69.3592 126.719 68.8395 126.719 68.1984C126.719 67.5573 125.822 67.0375 124.716 67.0375C123.61 67.0375 122.714 67.5573 122.714 68.1984C122.714 68.8395 123.61 69.3592 124.716 69.3592Z" fill="#9E4A9E"/>
<path d="M133.509 63.1197C133.688 63.1679 133.846 63.2736 133.958 63.4205C134.071 63.5673 134.132 63.7472 134.132 63.9323C134.132 64.1173 134.071 64.2972 133.958 64.4441C133.846 64.591 133.688 64.6967 133.509 64.7448C133.068 64.9995 132.568 65.1336 132.058 65.1336C131.549 65.1336 131.049 64.9995 130.607 64.7448C130.429 64.6967 130.271 64.591 130.158 64.4441C130.046 64.2972 129.985 64.1173 129.985 63.9323C129.985 63.7472 130.046 63.5673 130.158 63.4205C130.271 63.2736 130.429 63.1679 130.607 63.1197C131.049 62.865 131.549 62.7309 132.058 62.7309C132.568 62.7309 133.068 62.865 133.509 63.1197Z" fill="#9E4A9E"/>
<path d="M140.91 58.8538C141.693 59.3182 141.693 60.0437 140.91 60.479C140.468 60.7337 139.968 60.8678 139.459 60.8678C138.949 60.8678 138.449 60.7337 138.008 60.479C137.224 60.0437 137.224 59.3182 138.008 58.8538C138.457 58.6245 138.954 58.505 139.459 58.505C139.963 58.505 140.46 58.6245 140.91 58.8538Z" fill="#9E4A9E"/>
</svg>
