<svg width="112" height="159" viewBox="0 0 112 159" fill="none" xmlns="http://www.w3.org/2000/svg">
<path d="M89.335 75.5262L55.0883 95.5417L41.1938 98.7858C42.3192 101.008 43.5869 103.154 44.9888 105.213C47.9298 109.43 51.3157 113.319 55.0883 116.812L67.6057 156.17L101.73 136.124C102.45 135.793 103.137 135.393 103.78 134.93L104.087 134.746C107.943 131.686 109.901 126.208 109.901 118.159C109.707 111.694 108.121 105.347 105.25 99.5509C100.927 90.9338 95.5835 82.8677 89.335 75.5262Z" fill="white"/>
<path d="M68.1566 157.241L54.1091 117.455C50.3369 113.959 46.9604 110.059 44.0402 105.825C42.6019 103.74 41.3034 101.563 40.1533 99.3061L39.4495 97.9595L54.7518 94.4093L89.6412 73.9654L90.2532 74.7611C96.5794 82.1667 101.994 90.3044 106.382 99C109.314 104.952 110.932 111.465 111.126 118.097C111.126 126.055 109.228 131.778 105.494 135.114L104.423 135.909C103.759 136.407 103.04 136.828 102.281 137.164L68.1566 157.241ZM42.8466 99.5815C43.7953 101.326 44.8053 102.948 45.907 104.539C48.8071 108.697 52.1527 112.525 55.8842 115.955L56.1902 116.475L68.2791 154.395L101.118 135.114C101.812 134.812 102.469 134.432 103.077 133.981L103.352 133.798C106.902 131.013 108.708 125.749 108.708 118.128C108.51 111.844 106.965 105.676 104.178 100.041C100.008 91.7987 94.8715 84.083 88.8761 77.0564L55.2109 96.674L42.8466 99.5815Z" fill="#9E4A9E"/>
<path d="M40.3676 60.0096L61.2094 85.5339C61.5709 84.3688 62.224 83.3153 63.1069 82.4734L64.1474 88.9616L66.8713 92.2975L100.23 72.986C101.122 72.4225 101.935 71.7432 102.648 70.9661C105.819 67.0779 107.413 62.1409 107.116 57.1327C106.943 47.5669 103.728 38.3049 97.935 30.6903C91.2718 21.6155 82.7069 14.1055 72.8391 8.68547C62.1071 2.56453 53.6807 0.207976 47.5597 1.61579C47.0592 1.75703 46.5685 1.93082 46.0907 2.13607H45.8764C44.9492 2.49088 44.0821 2.98637 43.3056 3.6051L10.7116 22.58L48.6003 56.2452C45.5429 56.6538 42.6767 57.9644 40.3676 60.0096Z" fill="white"/>
<path d="M66.6569 93.9501L63.0762 89.6043L62.4641 85.6869V85.9011L61.7602 87.8598L38.8373 59.8871L39.633 59.122C41.5086 57.4428 43.7517 56.2268 46.1824 55.5718L8.72226 22.4881L42.8465 2.6869C43.6668 2.04314 44.5734 1.51773 45.5397 1.12606L46.3966 0.820019C46.734 0.680269 47.0819 0.567692 47.4372 0.483365C53.8948 -1.10808 62.4335 1.21788 73.5736 7.64487C83.5776 13.1745 92.2727 20.7945 99.0673 29.9863C104.903 37.8464 108.115 47.3442 108.249 57.1327C108.631 62.4521 107.016 67.7229 103.719 71.9147C102.92 72.8269 102.004 73.6296 100.995 74.3019L66.6569 93.9501ZM65.3103 88.6249L67.2078 90.9203L99.6795 72.129C100.476 71.6199 101.206 71.0133 101.852 70.3233C104.749 66.5646 106.145 61.8633 105.77 57.1327C105.618 47.8672 102.556 38.8841 97.0169 31.4553C90.4301 22.5365 81.9949 15.1453 72.2882 9.78719C61.852 3.66625 53.6499 1.43211 47.8044 2.87053C47.4066 2.87053 47.0393 3.11536 46.6721 3.23778L46.0294 3.48262C45.3011 3.8104 44.613 4.22118 43.9788 4.70681L12.6703 23.0696L51.1403 57.1633L48.7532 57.5917C46.288 57.941 43.9454 58.8865 41.9284 60.3462L61.0257 83.4833C61.3965 82.8732 61.8497 82.3171 62.3723 81.8307L63.9944 80.331L65.3103 88.6249Z" fill="#9E4A9E"/>
<path d="M57.1388 45.6254H23.5042V79.5966H57.1388V45.6254Z" fill="white"/>
<path d="M54.7826 93.889H18.5466V134.195H54.7826V93.889Z" fill="white"/>
<path d="M38.715 28.3949C48.5848 33.8242 57.1578 41.3322 63.8415 50.3997C69.5522 58.0551 72.6914 67.3227 72.8087 76.8727C73.2026 81.8899 71.6949 86.8717 68.5852 90.8285C66.8097 92.4994 64.6987 93.7731 62.3927 94.5646C60.0866 95.3562 57.6384 95.6475 55.211 95.4192C61.4604 102.755 66.8131 110.81 71.156 119.413C74.0271 125.209 75.6138 131.556 75.8079 138.021C75.8079 148.518 72.5332 154.731 65.9532 156.72C59.3732 158.71 50.2224 156.261 38.409 149.437C27.5058 143.447 18.0915 135.079 10.8647 124.953C4.66731 116.257 1.32045 105.853 1.28552 95.1744C1.28552 88.3597 2.70349 83.361 5.53953 80.1781C8.37556 76.9952 13.1499 75.3833 19.8625 75.3425C15.0769 69.0818 11.0977 62.2441 8.0185 54.9904C5.64358 49.2831 4.37644 43.1759 4.28472 36.9948C4.28472 27.9562 7.34519 22.6922 13.4661 21.2028C19.5871 19.7134 28.0034 22.1107 38.715 28.3949ZM26.4731 108.64C26.5178 112.133 27.5815 115.537 29.5336 118.434C31.6806 121.739 34.601 124.47 38.0417 126.391C46.203 131.104 50.2836 130.003 50.2836 123.086C50.0762 119.864 49.1563 116.728 47.5904 113.904C44.8484 108.894 41.6303 104.159 37.9805 99.7651C34.8205 99.5935 31.6915 100.464 29.0746 102.244C28.1952 103.074 27.5133 104.09 27.0789 105.218C26.6446 106.346 26.4689 107.558 26.5649 108.763L26.4731 108.64ZM38.5008 51.3178C37.6352 50.6734 36.6319 50.2385 35.5698 50.0473C34.5078 49.8561 33.4158 49.9139 32.3798 50.216C30.7578 50.8587 29.9621 52.4502 29.9621 54.9904C29.9621 59.6117 32.6859 65.243 38.1335 71.9454C40.5574 71.9615 42.9246 71.2117 44.8972 69.8031C45.5431 69.1214 46.0378 68.311 46.3489 67.425C46.6601 66.539 46.7807 65.5973 46.7029 64.6615C46.6742 61.9325 45.8206 59.276 44.2545 57.0409C42.8269 54.7603 40.8885 52.843 38.5926 51.4402L38.5008 51.3178Z" fill="white"/>
<path d="M95.9457 37.2091C89.262 28.1415 80.689 20.6336 70.8192 15.2043C60.0872 9.08334 51.6606 6.73697 45.5397 8.16519C45.0398 8.29611 44.5491 8.4597 44.0706 8.65488H43.8564C42.9468 9.03962 42.0925 9.54394 41.3162 10.1545L9.48737 28.6703C10.0588 28.4116 10.653 28.2067 11.2624 28.0583C17.3833 26.5688 25.8099 28.9254 36.5419 35.1279C46.4083 40.5367 54.9735 48.0364 61.6378 57.1021C63.6788 59.9783 65.422 63.0546 66.8406 66.2835L101.271 46.7577C99.8308 43.3992 98.0462 40.1992 95.9457 37.2091Z" fill="#F6CA52"/>
<path d="M72.5024 74.853L106.963 55.2966V63.3762L100.261 73.1391L67.9729 91.5938L72.8085 82.2287L72.5024 74.853Z" fill="#9E4A9E"/>
<path d="M66.8711 124.494L101.271 105.305C100.479 102.372 99.4557 99.5063 98.2103 96.7354C97.1538 94.4816 95.979 92.2852 94.6907 90.1554L60.2605 109.804C61.6251 112.053 62.8714 114.372 63.9942 116.751C65.1422 119.258 66.1037 121.846 66.8711 124.494Z" fill="#F6CA52"/>
<path d="M74.6142 127.218L109.044 108.365L110.483 119.352L106.963 132.206L93.4667 141.081L70.6662 154.395L76.328 144.111L76.5117 132.482L74.6142 127.218Z" fill="#9E4A9E"/>
<path d="M33.2978 64.6921L45.203 57.8978L37.7354 50.5527H31.3085L30.1455 55.0822L33.2978 64.6921Z" fill="#9E4A9E"/>
<path d="M32.1656 121.311L47.2537 112.895L38.1641 99.7346L28.3094 103.224L26.9016 112.038L32.1656 121.311Z" fill="#9E4A9E"/>
<path d="M42.571 70.8436H42.9382C43.558 70.6162 44.1291 70.2735 44.6214 69.8337C45.2752 69.15 45.7768 68.3356 46.0933 67.4442C46.4098 66.5527 46.534 65.6044 46.4577 64.6615C46.4371 63.2537 46.189 61.8585 45.7232 60.5298L38.0721 64.6003C39.4269 66.782 40.9301 68.868 42.571 70.8436Z" fill="#F6CA52"/>
<path d="M48.3858 115.159L38.0721 120.76C39.6653 122.352 41.467 123.722 43.4279 124.83C45.3203 126.011 47.3855 126.888 49.5488 127.432C50.2509 126.106 50.5789 124.614 50.4976 123.116C50.3465 120.347 49.6277 117.639 48.3858 115.159Z" fill="#F6CA52"/>
<path d="M61.2094 158.679C55.0884 158.679 47.3455 156.016 37.9804 150.599C26.9266 144.549 17.3684 136.099 10.0077 125.871C3.61508 117.005 0.119631 106.379 -3.05176e-05 95.4497C-3.05176e-05 88.3494 1.53017 83.2078 4.56004 79.6576C8.03256 76.31 12.6828 74.4631 17.5059 74.516C13.2036 68.704 9.61745 62.3948 6.82485 55.7247C4.40145 49.9003 3.10337 43.6695 2.99926 37.3619C2.99926 27.752 6.36578 22.0596 13.0376 20.4069C19.7094 18.7542 28.0644 21.172 39.174 27.599C49.1941 33.1055 57.8939 40.7295 64.6677 49.9404C70.5085 57.7976 73.7215 67.2973 73.8491 77.0868C74.2241 82.3959 72.6094 87.6545 69.3196 91.8383C66.168 94.9629 61.9135 96.7219 57.4756 96.735C63.1908 103.62 68.0991 111.136 72.1047 119.138C75.0368 125.09 76.6545 131.603 76.8483 138.235C76.8483 149.253 73.2676 155.925 66.1673 158.036C64.5535 158.485 62.8842 158.701 61.2094 158.679ZM17.2611 22.2738C16.0659 22.2612 14.8736 22.3948 13.7109 22.6716C8.17146 24.0489 5.47824 28.7926 5.47824 37.3313C5.59614 43.3481 6.85265 49.2881 9.18138 54.8372C12.2167 61.9954 16.1448 68.7411 20.8724 74.9139L22.2496 76.7808H19.9542C13.619 76.7808 9.08955 78.311 6.48815 81.2185C3.50429 85.3218 2.10231 90.3645 2.54012 95.419C2.59718 105.853 5.86724 116.015 11.9052 124.524C19.0634 134.447 28.3486 142.645 39.0821 148.518C50.5283 155.129 59.4955 157.516 65.6776 155.68C71.8598 153.843 74.7061 148.12 74.7061 138.113C74.4659 131.883 72.8898 125.777 70.0847 120.209C65.7829 111.684 60.4815 103.701 54.2927 96.429L52.7319 94.5009H55.3332C57.5528 94.6869 59.7869 94.4104 61.8941 93.6887C64.0013 92.9669 65.9357 91.8158 67.5751 90.3081C70.4753 86.5628 71.8723 81.8696 71.4925 77.148C71.3646 67.8409 68.3014 58.8118 62.7396 51.3483C56.1661 42.4253 47.7276 35.0416 38.0111 29.7107C29.6866 24.661 22.6781 22.2738 17.2611 22.2738ZM46.1213 130.614C43.0639 130.324 40.1281 129.272 37.5825 127.554C33.9732 125.544 30.9063 122.687 28.6459 119.229C26.5838 116.135 25.4575 112.512 25.4018 108.793C25.3142 107.403 25.5443 106.01 26.0746 104.722C26.6048 103.433 27.4213 102.282 28.4623 101.356C31.2753 99.3816 34.6712 98.4114 38.1029 98.6019H38.6844L39.0516 99.061C42.82 103.476 46.1415 108.253 48.9675 113.323C50.6402 116.363 51.6029 119.743 51.7832 123.208C51.959 124.468 51.7933 125.751 51.3034 126.925C50.8135 128.099 50.0173 129.119 48.9981 129.88C48.1244 130.378 47.1251 130.612 46.1213 130.553V130.614ZM37.6132 100.989C34.9192 100.91 32.2669 101.669 30.0232 103.162C29.2418 103.873 28.6319 104.752 28.2396 105.732C27.8472 106.713 27.6828 107.77 27.7585 108.824C27.7947 112.101 28.7953 115.294 30.6353 118.005C32.6908 121.141 35.473 123.734 38.7455 125.565C44.132 128.625 46.5803 128.625 47.6821 127.952C48.7838 127.279 49.2736 125.748 49.2736 123.3C49.0981 120.205 48.2189 117.19 46.7028 114.486C44.1278 109.678 41.0831 105.136 37.6132 100.928V100.989ZM37.7968 73.4449L37.3989 72.9552C31.7064 66.0079 28.952 60.193 28.952 55.2657C28.7658 54.0876 28.9627 52.8809 29.5136 51.8231C30.0645 50.7653 30.9405 49.9123 32.0125 49.3896C33.1976 49.0408 34.4462 48.9642 35.6651 49.1656C36.8839 49.367 38.0416 49.8411 39.0516 50.5525C41.599 52.066 43.7496 54.1642 45.3255 56.6735C46.9992 59.1078 47.915 61.9829 47.9576 64.9368C48.0542 66.0556 47.9072 67.1821 47.5268 68.2388C47.1464 69.2955 46.5417 70.2572 45.754 71.0577C43.6016 72.6723 40.9771 73.5328 38.2865 73.5061L37.7968 73.4449ZM34.2466 51.3483C33.8266 51.3498 33.4108 51.433 33.0225 51.5931C32.594 51.5931 31.3086 52.2664 31.3086 55.2657C31.3086 59.4585 33.8488 64.7531 38.8067 70.9965C40.7707 70.9748 42.6815 70.3556 44.285 69.2214C44.8061 68.6443 45.2027 67.966 45.4502 67.2288C45.6977 66.4917 45.7907 65.7114 45.7234 64.9368C45.6731 62.4384 44.8852 60.0106 43.4587 57.9589C42.0869 55.7719 40.221 53.9375 38.0111 52.6031C36.8987 51.817 35.6019 51.332 34.2466 51.1952V51.3483Z" fill="#9E4A9E"/>
<path d="M74.6755 58.0816C75.5018 58.5713 75.5018 59.3364 74.6755 59.7955C74.2103 60.0641 73.6825 60.2055 73.1453 60.2055C72.6081 60.2055 72.0803 60.0641 71.615 59.7955C70.7887 59.3364 70.7887 58.5713 71.615 58.0816C72.0889 57.8398 72.6133 57.7137 73.1453 57.7137C73.6773 57.7137 74.2017 57.8398 74.6755 58.0816Z" fill="#9E4A9E"/>
<path d="M82.6328 53.5825C82.8036 53.6556 82.9491 53.7772 83.0514 53.9323C83.1537 54.0873 83.2083 54.269 83.2083 54.4548C83.2083 54.6405 83.1537 54.8222 83.0514 54.9773C82.9491 55.1323 82.8036 55.2539 82.6328 55.327C82.1575 55.5641 81.6337 55.6875 81.1026 55.6875C80.5714 55.6875 80.0476 55.5641 79.5723 55.327C79.3886 55.2666 79.2287 55.1498 79.1153 54.9932C79.0019 54.8366 78.9409 54.6481 78.9409 54.4548C78.9409 54.2614 79.0019 54.073 79.1153 53.9164C79.2287 53.7597 79.3886 53.6429 79.5723 53.5825C80.0476 53.3454 80.5714 53.222 81.1026 53.222C81.6337 53.222 82.1575 53.3454 82.6328 53.5825Z" fill="#9E4A9E"/>
<path d="M90.2533 49.0836C90.437 49.144 90.597 49.2608 90.7104 49.4175C90.8238 49.5741 90.8848 49.7625 90.8848 49.9558C90.8848 50.1492 90.8238 50.3376 90.7104 50.4943C90.597 50.6509 90.437 50.7677 90.2533 50.8281C89.7795 51.0699 89.2551 51.196 88.7231 51.196C88.1911 51.196 87.6667 51.0699 87.1929 50.8281C87.0092 50.7677 86.8492 50.6509 86.7359 50.4943C86.6225 50.3376 86.5614 50.1492 86.5614 49.9558C86.5614 49.7625 86.6225 49.5741 86.7359 49.4175C86.8492 49.2608 87.0092 49.144 87.1929 49.0836C87.6667 48.8418 88.1911 48.7157 88.7231 48.7157C89.2551 48.7157 89.7795 48.8418 90.2533 49.0836Z" fill="#9E4A9E"/>
<path d="M97.935 44.6154C98.7613 45.0745 98.7613 45.8396 97.935 46.3293C97.4612 46.5711 96.9368 46.6971 96.4048 46.6971C95.8728 46.6971 95.3484 46.5711 94.8745 46.3293C94.0482 45.8396 94.0482 45.0745 94.8745 44.6154C95.3398 44.3468 95.8675 44.2054 96.4048 44.2054C96.942 44.2054 97.4698 44.3468 97.935 44.6154Z" fill="#9E4A9E"/>
<path d="M66.8099 53.5521C67.6362 54.0111 67.6362 54.7763 66.8099 55.2659C66.336 55.5077 65.8116 55.6338 65.2796 55.6338C64.7477 55.6338 64.2232 55.5077 63.7494 55.2659C62.9231 54.7763 62.9231 54.0111 63.7494 53.5521C64.2146 53.2835 64.7424 53.1421 65.2796 53.1421C65.8169 53.1421 66.3446 53.2835 66.8099 53.5521Z" fill="#9E4A9E"/>
<path d="M73.1145 51.1342C74.2808 51.1342 75.2261 50.5861 75.2261 49.91C75.2261 49.2339 74.2808 48.6859 73.1145 48.6859C71.9482 48.6859 71.0027 49.2339 71.0027 49.91C71.0027 50.5861 71.9482 51.1342 73.1145 51.1342Z" fill="#9E4A9E"/>
<path d="M82.3879 44.5542C83.2143 45.0438 83.2143 45.809 82.3879 46.268C81.9227 46.5366 81.3949 46.6781 80.8577 46.6781C80.3205 46.6781 79.7927 46.5366 79.3275 46.268C78.5011 45.809 78.5011 45.0438 79.3275 44.5542C79.8013 44.3124 80.3257 44.1863 80.8577 44.1863C81.3897 44.1863 81.9141 44.3124 82.3879 44.5542Z" fill="#9E4A9E"/>
<path d="M90.1919 40.0554C91.0182 40.545 91.0182 41.3102 90.1919 41.7693C89.7267 42.0379 89.1989 42.1793 88.6617 42.1793C88.1245 42.1793 87.5967 42.0379 87.1314 41.7693C86.3051 41.3102 86.3051 40.545 87.1314 40.0554C87.6053 39.8136 88.1297 39.6875 88.6617 39.6875C89.1937 39.6875 89.7181 39.8136 90.1919 40.0554Z" fill="#9E4A9E"/>
<path d="M59.0363 49.0529C59.2247 49.1037 59.3911 49.2152 59.5097 49.3701C59.6284 49.525 59.6928 49.7147 59.6928 49.9098C59.6928 50.105 59.6284 50.2947 59.5097 50.4496C59.3911 50.6045 59.2247 50.7159 59.0363 50.7667C58.5711 51.0354 58.0433 51.1768 57.5061 51.1768C56.9688 51.1768 56.4411 51.0354 55.9758 50.7667C55.7874 50.7159 55.621 50.6045 55.5023 50.4496C55.3836 50.2947 55.3193 50.105 55.3193 49.9098C55.3193 49.7147 55.3836 49.525 55.5023 49.3701C55.621 49.2152 55.7874 49.1037 55.9758 49.0529C56.4411 48.7843 56.9688 48.6429 57.5061 48.6429C58.0433 48.6429 58.5711 48.7843 59.0363 49.0529Z" fill="#9E4A9E"/>
<path d="M66.8099 44.5542C67.6362 45.0438 67.6362 45.809 66.8099 46.268C66.3446 46.5366 65.8169 46.6781 65.2796 46.6781C64.7424 46.6781 64.2146 46.5366 63.7494 46.268C62.9231 45.809 62.9231 45.0438 63.7494 44.5542C64.2232 44.3124 64.7477 44.1863 65.2796 44.1863C65.8116 44.1863 66.336 44.3124 66.8099 44.5542Z" fill="#9E4A9E"/>
<path d="M74.6142 40.0554C75.4406 40.545 75.4406 41.3102 74.6142 41.7693C74.149 42.0379 73.6212 42.1793 73.084 42.1793C72.5468 42.1793 72.019 42.0379 71.5538 41.7693C70.7274 41.3102 70.7274 40.545 71.5538 40.0554C72.0276 39.8136 72.552 39.6875 73.084 39.6875C73.616 39.6875 74.1404 39.8136 74.6142 40.0554Z" fill="#9E4A9E"/>
<path d="M82.3877 35.5566C82.5714 35.617 82.7313 35.7338 82.8447 35.8904C82.9581 36.047 83.0191 36.2355 83.0191 36.4288C83.0191 36.6222 82.9581 36.8106 82.8447 36.9672C82.7313 37.1239 82.5714 37.2407 82.3877 37.3011C81.9139 37.5429 81.3895 37.6689 80.8575 37.6689C80.3255 37.6689 79.8011 37.5429 79.3272 37.3011C79.1435 37.2407 78.9835 37.1239 78.8701 36.9672C78.7568 36.8106 78.6958 36.6222 78.6958 36.4288C78.6958 36.2355 78.7568 36.047 78.8701 35.8904C78.9835 35.7338 79.1435 35.617 79.3272 35.5566C79.8011 35.3148 80.3255 35.1887 80.8575 35.1887C81.3895 35.1887 81.9139 35.3148 82.3877 35.5566Z" fill="#9E4A9E"/>
<path d="M90.192 31.0574C90.3757 31.1178 90.5357 31.2346 90.649 31.3912C90.7624 31.5479 90.8235 31.7363 90.8235 31.9296C90.8235 32.123 90.7624 32.3114 90.649 32.468C90.5357 32.6247 90.3757 32.7415 90.192 32.8019C89.7182 33.0437 89.1938 33.1697 88.6618 33.1697C88.1298 33.1697 87.6054 33.0437 87.1316 32.8019C86.9479 32.7415 86.788 32.6247 86.6746 32.468C86.5612 32.3114 86.5001 32.123 86.5001 31.9296C86.5001 31.7363 86.5612 31.5479 86.6746 31.3912C86.788 31.2346 86.9479 31.1178 87.1316 31.0574C87.6054 30.8156 88.1298 30.6895 88.6618 30.6895C89.1938 30.6895 89.7182 30.8156 90.192 31.0574Z" fill="#9E4A9E"/>
<path d="M59.0365 40.0554C59.8629 40.545 59.8629 41.3102 59.0365 41.7693C58.5713 42.0379 58.0435 42.1793 57.5063 42.1793C56.9691 42.1793 56.4413 42.0379 55.9761 41.7693C55.1497 41.3102 55.1497 40.545 55.9761 40.0554C56.4499 39.8136 56.9743 39.6875 57.5063 39.6875C58.0383 39.6875 58.5627 39.8136 59.0365 40.0554Z" fill="#9E4A9E"/>
<path d="M66.8099 35.5566C66.9936 35.617 67.1536 35.7338 67.267 35.8904C67.3804 36.047 67.4414 36.2355 67.4414 36.4288C67.4414 36.6222 67.3804 36.8106 67.267 36.9672C67.1536 37.1239 66.9936 37.2407 66.8099 37.3011C66.3361 37.5429 65.8117 37.6689 65.2797 37.6689C64.7477 37.6689 64.2233 37.5429 63.7495 37.3011C63.5658 37.2407 63.4058 37.1239 63.2925 36.9672C63.1791 36.8106 63.1181 36.6222 63.1181 36.4288C63.1181 36.2355 63.1791 36.047 63.2925 35.8904C63.4058 35.7338 63.5658 35.617 63.7495 35.5566C64.2233 35.3148 64.7477 35.1887 65.2797 35.1887C65.8117 35.1887 66.3361 35.3148 66.8099 35.5566Z" fill="#9E4A9E"/>
<path d="M74.6144 31.0574C74.7981 31.1178 74.958 31.2346 75.0714 31.3912C75.1848 31.5479 75.2458 31.7363 75.2458 31.9296C75.2458 32.123 75.1848 32.3114 75.0714 32.468C74.958 32.6247 74.7981 32.7415 74.6144 32.8019C74.1405 33.0437 73.6161 33.1697 73.0841 33.1697C72.5522 33.1697 72.0278 33.0437 71.5539 32.8019C71.3702 32.7415 71.2103 32.6247 71.0969 32.468C70.9835 32.3114 70.9224 32.123 70.9224 31.9296C70.9224 31.7363 70.9835 31.5479 71.0969 31.3912C71.2103 31.2346 71.3702 31.1178 71.5539 31.0574C72.0278 30.8156 72.5522 30.6895 73.0841 30.6895C73.6161 30.6895 74.1405 30.8156 74.6144 31.0574Z" fill="#9E4A9E"/>
<path d="M82.3879 26.5892C83.2143 27.0482 83.2143 27.8133 82.3879 28.303C81.9141 28.5448 81.3897 28.6709 80.8577 28.6709C80.3257 28.6709 79.8013 28.5448 79.3275 28.303C78.5011 27.8133 78.5011 27.0482 79.3275 26.5892C79.7927 26.3206 80.3205 26.1791 80.8577 26.1791C81.3949 26.1791 81.9227 26.3206 82.3879 26.5892Z" fill="#9E4A9E"/>
<path d="M51.263 35.5563C51.4337 35.6294 51.5793 35.751 51.6816 35.9061C51.7839 36.0611 51.8385 36.2428 51.8385 36.4285C51.8385 36.6143 51.7839 36.796 51.6816 36.951C51.5793 37.1061 51.4337 37.2277 51.263 37.3008C50.7877 37.5379 50.2639 37.6613 49.7327 37.6613C49.2016 37.6613 48.6778 37.5379 48.2025 37.3008C48.0188 37.2404 47.8589 37.1236 47.7455 36.967C47.6321 36.8103 47.571 36.6219 47.571 36.4285C47.571 36.2352 47.6321 36.0468 47.7455 35.8901C47.8589 35.7335 48.0188 35.6167 48.2025 35.5563C48.6778 35.3192 49.2016 35.1958 49.7327 35.1958C50.2639 35.1958 50.7877 35.3192 51.263 35.5563Z" fill="#9E4A9E"/>
<path d="M57.5368 33.1692C58.7031 33.1692 59.6485 32.6212 59.6485 31.9451C59.6485 31.269 58.7031 30.7209 57.5368 30.7209C56.3705 30.7209 55.4251 31.269 55.4251 31.9451C55.4251 32.6212 56.3705 33.1692 57.5368 33.1692Z" fill="#9E4A9E"/>
<path d="M66.8099 26.5892C67.6362 27.0482 67.6362 27.8133 66.8099 28.303C66.336 28.5448 65.8116 28.6709 65.2796 28.6709C64.7477 28.6709 64.2232 28.5448 63.7494 28.303C62.9231 27.8133 62.9231 27.0482 63.7494 26.5892C64.2146 26.3206 64.7424 26.1791 65.2796 26.1791C65.8169 26.1791 66.3446 26.3206 66.8099 26.5892Z" fill="#9E4A9E"/>
<path d="M74.6142 22.0904C75.4406 22.5495 75.4406 23.3146 74.6142 23.8042C74.1404 24.0461 73.616 24.1721 73.084 24.1721C72.552 24.1721 72.0276 24.0461 71.5538 23.8042C70.7274 23.3146 70.7274 22.5495 71.5538 22.0904C72.019 21.8218 72.5468 21.6803 73.084 21.6803C73.6212 21.6803 74.149 21.8218 74.6142 22.0904Z" fill="#9E4A9E"/>
<path d="M43.4589 31.088C44.2852 31.547 44.2852 32.3122 43.4589 32.8018C42.985 33.0436 42.4606 33.1697 41.9286 33.1697C41.3966 33.1697 40.8722 33.0436 40.3984 32.8018C39.5721 32.3122 39.5721 31.547 40.3984 31.088C40.8636 30.8193 41.3914 30.6779 41.9286 30.6779C42.4658 30.6779 42.9936 30.8193 43.4589 31.088Z" fill="#9E4A9E"/>
<path d="M51.2628 26.5892C51.436 26.6559 51.585 26.7734 51.69 26.9264C51.7951 27.0794 51.8513 27.2606 51.8513 27.4462C51.8513 27.6318 51.7951 27.813 51.69 27.966C51.585 28.1189 51.436 28.2365 51.2628 28.3031C50.7876 28.5402 50.2637 28.6636 49.7326 28.6636C49.2015 28.6636 48.6776 28.5402 48.2024 28.3031C47.376 27.8134 47.376 27.0483 48.2024 26.5892C48.6731 26.3374 49.1987 26.2057 49.7326 26.2057C50.2665 26.2057 50.7921 26.3374 51.2628 26.5892Z" fill="#9E4A9E"/>
<path d="M59.0365 22.0904C59.8629 22.5495 59.8629 23.3146 59.0365 23.8042C58.5627 24.0461 58.0383 24.1721 57.5063 24.1721C56.9743 24.1721 56.4499 24.0461 55.9761 23.8042C55.1497 23.3146 55.1497 22.5495 55.9761 22.0904C56.4413 21.8218 56.9691 21.6803 57.5063 21.6803C58.0435 21.6803 58.5713 21.8218 59.0365 22.0904Z" fill="#9E4A9E"/>
<path d="M66.8099 17.5915C66.9983 17.6423 67.1648 17.7538 67.2834 17.9087C67.4021 18.0636 67.4664 18.2533 67.4664 18.4485C67.4664 18.6436 67.4021 18.8333 67.2834 18.9882C67.1648 19.1431 66.9983 19.2546 66.8099 19.3054C66.3447 19.574 65.8169 19.7154 65.2797 19.7154C64.7425 19.7154 64.2147 19.574 63.7495 19.3054C63.561 19.2546 63.3947 19.1431 63.276 18.9882C63.1573 18.8333 63.093 18.6436 63.093 18.4485C63.093 18.2533 63.1573 18.0636 63.276 17.9087C63.3947 17.7538 63.561 17.6423 63.7495 17.5915C64.2147 17.3229 64.7425 17.1815 65.2797 17.1815C65.8169 17.1815 66.3447 17.3229 66.8099 17.5915Z" fill="#9E4A9E"/>
<path d="M35.6851 26.5892C36.5115 27.0483 36.5115 27.8134 35.6851 28.3031C35.2099 28.5402 34.686 28.6636 34.1549 28.6636C33.6238 28.6636 33.0999 28.5402 32.6247 28.3031C31.7983 27.8134 31.7983 27.0483 32.6247 26.5892C33.0954 26.3374 33.621 26.2057 34.1549 26.2057C34.6888 26.2057 35.2144 26.3374 35.6851 26.5892Z" fill="#9E4A9E"/>
<path d="M41.9591 24.1713C43.1254 24.1713 44.0708 23.6232 44.0708 22.9471C44.0708 22.271 43.1254 21.7229 41.9591 21.7229C40.7928 21.7229 39.8474 22.271 39.8474 22.9471C39.8474 23.6232 40.7928 24.1713 41.9591 24.1713Z" fill="#9E4A9E"/>
<path d="M51.263 17.5916C51.4362 17.6582 51.5851 17.7758 51.6902 17.9288C51.7952 18.0817 51.8515 18.263 51.8515 18.4486C51.8515 18.6341 51.7952 18.8154 51.6902 18.9683C51.5851 19.1213 51.4362 19.2389 51.263 19.3055C50.7922 19.5573 50.2666 19.6891 49.7327 19.6891C49.1989 19.6891 48.6732 19.5573 48.2025 19.3055C48.0141 19.2547 47.8476 19.1432 47.729 18.9883C47.6103 18.8334 47.546 18.6437 47.546 18.4486C47.546 18.2534 47.6103 18.0637 47.729 17.9088C47.8476 17.7539 48.0141 17.6424 48.2025 17.5916C48.6732 17.3398 49.1989 17.208 49.7327 17.208C50.2666 17.208 50.7922 17.3398 51.263 17.5916Z" fill="#9E4A9E"/>
<path d="M59.0365 13.0924C59.8629 13.5821 59.8629 14.3472 59.0365 14.8063C58.5713 15.0749 58.0435 15.2163 57.5063 15.2163C56.9691 15.2163 56.4413 15.0749 55.9761 14.8063C55.1497 14.3472 55.1497 13.5821 55.9761 13.0924C56.4499 12.8506 56.9743 12.7246 57.5063 12.7246C58.0383 12.7246 58.5627 12.8506 59.0365 13.0924Z" fill="#9E4A9E"/>
<path d="M20.1072 26.5892C20.9336 27.0483 20.9336 27.8134 20.1072 28.3031C19.632 28.5402 19.1081 28.6636 18.577 28.6636C18.0459 28.6636 17.522 28.5402 17.0468 28.3031C16.8735 28.2365 16.7246 28.1189 16.6196 27.966C16.5145 27.813 16.4583 27.6318 16.4583 27.4462C16.4583 27.2606 16.5145 27.0794 16.6196 26.9264C16.7246 26.7734 16.8735 26.6559 17.0468 26.5892C17.5175 26.3374 18.0431 26.2057 18.577 26.2057C19.1109 26.2057 19.6365 26.3374 20.1072 26.5892Z" fill="#9E4A9E"/>
<path d="M27.8808 22.0904C28.7071 22.5495 28.7071 23.3146 27.8808 23.8042C27.407 24.0461 26.8826 24.1721 26.3506 24.1721C25.8186 24.1721 25.2942 24.0461 24.8203 23.8042C23.994 23.3146 23.994 22.5495 24.8203 22.0904C25.2856 21.8218 25.8133 21.6803 26.3506 21.6803C26.8878 21.6803 27.4156 21.8218 27.8808 22.0904Z" fill="#9E4A9E"/>
<path d="M35.6853 17.5916C35.8737 17.6424 36.0401 17.7539 36.1588 17.9088C36.2775 18.0637 36.3418 18.2534 36.3418 18.4486C36.3418 18.6437 36.2775 18.8334 36.1588 18.9883C36.0401 19.1432 35.8737 19.2547 35.6853 19.3055C35.2145 19.5573 34.6889 19.6891 34.155 19.6891C33.6212 19.6891 33.0955 19.5573 32.6248 19.3055C32.4364 19.2547 32.2699 19.1432 32.1513 18.9883C32.0326 18.8334 31.9683 18.6437 31.9683 18.4486C31.9683 18.2534 32.0326 18.0637 32.1513 17.9088C32.2699 17.7539 32.4364 17.6424 32.6248 17.5916C33.0955 17.3398 33.6212 17.208 34.155 17.208C34.6889 17.208 35.2145 17.3398 35.6853 17.5916Z" fill="#9E4A9E"/>
<path d="M43.4589 13.0924C44.2852 13.5821 44.2852 14.3472 43.4589 14.8063C42.9936 15.0749 42.4658 15.2163 41.9286 15.2163C41.3914 15.2163 40.8636 15.0749 40.3984 14.8063C39.5721 14.3472 39.5721 13.5821 40.3984 13.0924C40.8722 12.8506 41.3966 12.7246 41.9286 12.7246C42.4606 12.7246 42.985 12.8506 43.4589 13.0924Z" fill="#9E4A9E"/>
<path d="M51.2628 8.59376C51.436 8.66039 51.585 8.77793 51.69 8.93091C51.7951 9.08388 51.8513 9.26511 51.8513 9.45069C51.8513 9.63627 51.7951 9.8175 51.69 9.97047C51.585 10.1235 51.436 10.241 51.2628 10.3076C50.7921 10.5594 50.2665 10.6912 49.7326 10.6912C49.1987 10.6912 48.6731 10.5594 48.2024 10.3076C47.376 9.84855 47.376 9.08344 48.2024 8.59376C48.6776 8.35665 49.2015 8.23325 49.7326 8.23325C50.2637 8.23325 50.7876 8.35665 51.2628 8.59376Z" fill="#9E4A9E"/>
</svg>
