<svg width="185" height="161" viewBox="0 0 185 161" fill="none" xmlns="http://www.w3.org/2000/svg">
<path d="M126.589 48.3855H106.573V83.3054H126.589V48.3855Z" fill="white"/>
<path d="M134.515 78.3477L117.254 95.2109L115.081 101.577V116.451C112.551 118.492 109.859 120.324 107.032 121.929C103.158 124.137 99.1279 126.06 94.9741 127.683L115.02 139.282C119.713 137.127 124.29 134.726 128.731 132.09C146.115 122.051 154.653 112.39 154.347 103.107V66.6261L134.515 78.3477Z" fill="white"/>
<path d="M114.898 140.598L93.7498 128.356L94.4843 126.581C98.5756 124.962 102.544 123.05 106.359 120.857C108.994 119.396 111.502 117.717 113.857 115.838V101.179L116.336 94.3538L133.811 77.307L155.51 64.5448V103.076C155.816 112.9 147.247 122.724 129.282 133.069C124.81 135.744 120.192 138.166 115.449 140.322L114.898 140.598ZM97.5754 127.866L115.051 137.935C118.325 136.466 122.733 134.171 128.088 131.079C144.982 121.317 153.398 111.921 153.123 103.137V68.7071L135.097 79.2963L118.142 95.8535L116.122 101.791V117.093L115.693 117.46C113.103 119.534 110.35 121.397 107.461 123.03C104.268 124.845 100.967 126.46 97.5754 127.866Z" fill="#9E4A9E"/>
<path d="M110.858 103.811C112.29 102.38 113.269 100.56 113.674 98.5773C114.111 97.016 114.111 95.3643 113.674 93.803V61.7904L104.247 63.2595C97.8431 61.2875 91.2267 60.0854 84.538 59.6787C77.1751 59.2522 69.7909 59.9855 62.6556 61.8517L31.2246 51.2012V85.8764C31.1943 86.4472 31.1943 87.0193 31.2246 87.5902C31.2246 88.2023 31.2246 88.8144 31.2246 89.4265V89.7019C32.1733 95.8229 37.3455 101.454 46.5269 106.81C55.4217 112.127 65.4701 115.214 75.8156 115.808C85.2868 116.412 94.7267 114.22 102.962 109.503C105.864 108.012 108.526 106.093 110.858 103.811Z" fill="white"/>
<path d="M78.7843 117.062C77.8458 117.062 76.897 117.062 75.9381 117.062C65.4112 116.426 55.1899 113.278 46.1291 107.881C36.9477 102.586 31.7142 96.8634 30.3676 90.773L30.184 89.7325C30.0863 89.0322 30.025 88.3274 30.0004 87.6207C30.0196 87.0775 30.0707 86.5359 30.1535 85.9987V49.5791L62.8393 60.7498C69.9868 58.9574 77.3643 58.2557 84.7216 58.6687C91.4176 59.0781 98.0427 60.2696 104.462 62.2188L114.99 60.5662V93.5887C115.392 95.0197 115.392 96.5341 114.99 97.9651C114.99 98.2406 114.99 98.516 114.99 98.7303C114.571 100.948 113.506 102.992 111.929 104.606C109.59 106.974 106.907 108.975 103.972 110.544C96.3101 114.93 87.6121 117.181 78.7843 117.062ZM32.4794 89.151V89.5182C33.3669 95.1801 38.3249 100.658 47.2309 105.8C55.9719 111.009 65.8405 114.033 75.9993 114.614C85.2426 115.214 94.4586 113.085 102.503 108.493C105.227 107.041 107.723 105.195 109.909 103.015C111.19 101.756 112.073 100.149 112.449 98.3936C112.449 98.1182 112.45 97.8121 112.603 97.5061C112.923 96.4381 112.923 95.2994 112.603 94.2314V93.8029V63.1982L104.247 64.4836H104.003C97.6988 62.4601 91.1735 61.2064 84.5686 60.7498C77.3612 60.3378 70.1336 61.0503 63.1453 62.8615H62.8086L32.6018 52.6396V86.0599C32.5716 86.5083 32.5716 86.9581 32.6018 87.4065C32.6088 87.92 32.6599 88.432 32.7548 88.9367L32.4794 89.151Z" fill="#9E4A9E"/>
<path d="M105.778 43.9786C105.257 43.5196 93.199 32.7467 91.3933 31.3695C89.5876 29.9923 78.9066 32.2264 58.6157 37.2456L57.8506 37.4292L55.8918 51.5686L69.7252 68.6154L100.33 67.7891L106.451 44.4683L105.778 43.9786Z" fill="white"/>
<path d="M126.467 35.593C144.829 46.1822 154.143 56.1185 154.409 65.402C154.674 74.6854 146.135 84.3565 128.792 94.4152C124.356 97.0497 119.779 99.4404 115.082 101.577L95.0354 90.0081C99.1803 88.3759 103.2 86.4426 107.063 84.2239C116.122 79.0211 121.223 73.9203 122.365 68.9215C123.528 63.9329 120.284 59.0056 112.633 54.0782L111.868 54.5373C113.102 56.5375 113.709 58.861 113.613 61.2091C113.215 63.2036 112.235 65.0355 110.797 66.4731C108.521 68.7407 105.922 70.659 103.085 72.1656C94.8492 76.8823 85.4093 79.0746 75.9381 78.4702C65.5948 77.864 55.5491 74.7779 46.6494 69.4724C36.2846 63.4739 31.1124 57.0673 31.1328 50.2526C31.1328 43.4278 36.305 37.062 46.4352 31.1247C57.9536 24.4908 71.1851 21.4333 84.4462 22.3411C99.3076 23.3537 113.713 27.8967 126.467 35.593ZM67.6137 42.3872C64.8286 44.0093 63.5738 45.8762 63.8493 48.0491C64.1247 50.222 66.4813 52.548 70.9496 55.1188C74.1744 57.0633 77.7916 58.2655 81.5388 58.6383C84.998 59.0051 88.4838 58.2543 91.4853 56.496C92.6619 55.9791 93.6777 55.1551 94.4262 54.1104C95.1747 53.0658 95.6283 51.839 95.7394 50.5587C95.67 49.2789 95.2432 48.0442 94.5075 46.9947C93.7718 45.9452 92.7565 45.123 91.5771 44.6214C87.6896 42.3928 83.3687 41.0255 78.9068 40.6122C75.0494 39.9872 71.0933 40.609 67.6137 42.3872Z" fill="white"/>
<path d="M94.9128 127.683L95.0353 90.0081L115.081 101.577L114.959 139.282L94.9128 127.683Z" fill="white"/>
<path d="M127.415 42.387C114.723 34.698 100.381 30.1448 85.5784 29.1046C72.3302 28.1899 59.1094 31.2367 47.5979 37.8575C38.845 42.9175 33.8156 48.2937 32.5098 53.9862V60.1071C33.8258 65.769 38.845 71.1554 47.6592 76.2664C56.5521 81.5576 66.5868 84.6331 76.9173 85.2336C86.3802 85.898 95.8298 83.7696 104.094 79.1126C106.923 77.6069 109.512 75.6884 111.776 73.4202C113.22 71.987 114.201 70.1532 114.592 68.1562C114.715 65.7997 114.118 63.4615 112.878 61.4537L113.643 61.0253C121.294 65.922 124.508 70.88 123.345 75.8686C122.182 80.8571 117.224 85.9681 108.042 91.1709C104.207 93.3378 100.218 95.22 96.1064 96.8022L116.152 108.401C120.815 106.243 125.361 103.843 129.772 101.209C147.155 91.1709 155.704 81.51 155.418 72.2266C155.133 62.9432 145.798 52.9966 127.415 42.387ZM92.4338 63.2594C89.4342 65.0243 85.9496 65.7856 82.4873 65.4323C78.7344 65.0414 75.111 63.8405 71.8674 61.9128C67.4297 59.342 65.0732 56.9854 64.7977 54.8125C64.5223 52.6396 65.7771 50.7727 68.5315 49.1812C72.0166 47.386 75.9847 46.7533 79.8553 47.3756C84.3026 47.8134 88.6085 49.1792 92.4951 51.3848C93.7018 51.8998 94.7355 52.7502 95.4732 53.8352C96.211 54.9202 96.622 56.1941 96.6573 57.5057C96.5301 58.7542 96.0714 59.9459 95.3288 60.9576C94.5863 61.9692 93.5867 62.7639 92.4338 63.2594Z" fill="#F6CA52"/>
<path d="M92.1583 43.55C88.1249 41.2405 83.6524 39.8018 79.0289 39.3266C74.9135 38.6989 70.7048 39.3843 67.0012 41.2853C65.6577 41.8276 64.5185 42.7781 63.7443 44.0027C62.97 45.2272 62.5998 46.6639 62.6859 48.1101C63.0226 50.6503 65.5321 53.2517 70.3371 56.0367C73.7228 58.049 77.5008 59.3118 81.4161 59.7399H83.1911C86.3188 59.7469 89.3922 58.9231 92.0971 57.3527C93.4465 56.7392 94.6052 55.7727 95.4509 54.5553C96.2966 53.3379 96.798 51.9148 96.902 50.4361C96.8248 48.9621 96.3406 47.5383 95.5032 46.3228C94.6658 45.1072 93.508 44.1475 92.1583 43.55ZM90.9035 55.4247C88.4697 56.8317 85.6955 57.5412 82.885 57.4752V42.387C85.7103 43.0172 88.431 44.0478 90.9647 45.4475C93.4131 46.8553 94.576 48.508 94.5454 50.3749C94.4688 51.4722 94.0872 52.5264 93.4438 53.4186C92.8003 54.3108 91.9205 55.0056 90.9035 55.4247Z" fill="#9E4A9E"/>
<path d="M155.082 69.9312C155.456 68.4413 155.621 66.9065 155.571 65.3711C155.265 55.547 145.931 45.478 127.078 34.5828C114.216 26.8282 99.702 22.2245 84.7214 21.1473C71.2307 20.2606 57.7798 23.3917 46.0676 30.1451C35.4172 36.266 30.0307 43.0603 30.0001 50.3136C29.9695 57.5669 35.4172 64.3611 46.1289 70.5433C48.5795 71.9702 51.114 73.2477 53.7188 74.3689V110.085L67.2766 114.798V78.5311C69.9233 79.0501 72.6025 79.3875 75.2952 79.5411V115.838L86.1904 115.318L93.7803 113.359V128.356L114.928 140.597L116.183 140.047V138.731L122.947 135.67L145.319 121.01L152.511 110.544L155.388 101.117L155.632 69.3497L155.082 69.9312ZM114.071 56.4039C119.794 60.5356 122.212 64.6366 121.263 68.6458C120.119 72.1375 117.915 75.1861 114.959 77.3681V60.1377V59.2808C114.771 58.2917 114.473 57.3268 114.071 56.4039ZM113.796 137.262L96.1063 127.009V92.0278L113.796 102.25V137.262ZM101.768 92.5787L97.6977 90.2221C101.115 88.7695 104.437 87.1033 107.644 85.2336C117.101 79.7859 122.273 74.5219 123.559 69.1355C124.844 63.749 121.416 58.2096 113.337 53.0374L112.725 52.6395L110.368 54.0168L110.888 54.9961C112.025 56.8301 112.589 58.9609 112.51 61.1171C112.367 61.8521 112.119 62.5631 111.776 63.2288L109.083 66.5953C107.09 68.3757 104.904 69.9259 102.564 71.2166C94.5143 75.7954 85.3025 77.9228 76.0603 77.3375C65.9068 76.7265 56.0449 73.705 47.2918 68.5234C37.3758 62.7697 32.3261 56.6488 32.3568 50.1606C32.3874 43.6724 37.3759 37.7351 47.2306 32.0426C58.5526 25.5477 71.5459 22.555 84.5684 23.4426C99.183 24.4781 113.343 28.9674 125.885 36.5415C143.758 46.8552 152.939 56.557 153.215 65.3711C153.49 74.1853 145.074 83.7339 128.18 93.3132C122.824 96.3737 118.448 98.7302 115.142 100.199L101.768 92.5787Z" fill="#9E4A9E"/>
<path d="M113.857 101.76C114.683 102.219 114.683 102.984 113.857 103.474C113.382 103.711 112.858 103.835 112.327 103.835C111.796 103.835 111.272 103.711 110.796 103.474C109.97 102.984 109.97 102.219 110.796 101.76C111.267 101.508 111.793 101.377 112.327 101.377C112.861 101.377 113.386 101.508 113.857 101.76Z" fill="#9E4A9E"/>
<path d="M121.631 97.2613C121.819 97.3121 121.986 97.4235 122.104 97.5785C122.223 97.7334 122.287 97.9231 122.287 98.1182C122.287 98.3133 122.223 98.503 122.104 98.658C121.986 98.8129 121.819 98.9243 121.631 98.9751C121.166 99.2437 120.638 99.3852 120.101 99.3852C119.563 99.3852 119.036 99.2437 118.57 98.9751C118.382 98.9243 118.215 98.8129 118.097 98.658C117.978 98.503 117.914 98.3133 117.914 98.1182C117.914 97.9231 117.978 97.7334 118.097 97.5785C118.215 97.4235 118.382 97.3121 118.57 97.2613C119.036 96.9927 119.563 96.8513 120.101 96.8513C120.638 96.8513 121.166 96.9927 121.631 97.2613Z" fill="#9E4A9E"/>
<path d="M129.435 92.7623C129.608 92.8289 129.757 92.9464 129.862 93.0994C129.967 93.2524 130.024 93.4336 130.024 93.6192C130.024 93.8048 129.967 93.986 129.862 94.139C129.757 94.292 129.608 94.4095 129.435 94.4761C128.964 94.7279 128.439 94.8597 127.905 94.8597C127.371 94.8597 126.845 94.7279 126.375 94.4761C125.548 94.0171 125.548 93.2519 126.375 92.7623C126.85 92.5252 127.374 92.4017 127.905 92.4017C128.436 92.4017 128.96 92.5252 129.435 92.7623Z" fill="#9E4A9E"/>
<path d="M137.209 88.294C138.035 88.7837 138.035 89.5488 137.209 90.0078C136.743 90.2765 136.216 90.4179 135.678 90.4179C135.141 90.4179 134.613 90.2765 134.148 90.0078C133.322 89.5488 133.322 88.7837 134.148 88.294C134.622 88.0522 135.147 87.9261 135.678 87.9261C136.21 87.9261 136.735 88.0522 137.209 88.294Z" fill="#9E4A9E"/>
<path d="M105.992 97.2001C106.176 97.2605 106.335 97.3773 106.449 97.5339C106.562 97.6905 106.623 97.879 106.623 98.0723C106.623 98.2657 106.562 98.4541 106.449 98.6107C106.335 98.7674 106.176 98.8842 105.992 98.9446C105.518 99.1864 104.994 99.3124 104.462 99.3124C103.93 99.3124 103.405 99.1864 102.931 98.9446C102.748 98.8842 102.588 98.7674 102.474 98.6107C102.361 98.4541 102.3 98.2657 102.3 98.0723C102.3 97.879 102.361 97.6905 102.474 97.5339C102.588 97.3773 102.748 97.2605 102.931 97.2001C103.405 96.9583 103.93 96.8322 104.462 96.8322C104.994 96.8322 105.518 96.9583 105.992 97.2001Z" fill="#9E4A9E"/>
<path d="M113.765 92.7318C114.592 93.1909 114.592 93.956 113.765 94.4457C113.292 94.6875 112.767 94.8136 112.235 94.8136C111.703 94.8136 111.179 94.6875 110.705 94.4457C109.879 93.956 109.879 93.1909 110.705 92.7318C111.17 92.4632 111.698 92.3218 112.235 92.3218C112.772 92.3218 113.3 92.4632 113.765 92.7318Z" fill="#9E4A9E"/>
<path d="M121.569 88.2939C122.396 88.753 122.396 89.5181 121.569 90.0078C121.096 90.2496 120.571 90.3757 120.039 90.3757C119.507 90.3757 118.983 90.2496 118.509 90.0078C117.683 89.5181 117.683 88.753 118.509 88.2939C118.974 88.0253 119.502 87.8839 120.039 87.8839C120.576 87.8839 121.104 88.0253 121.569 88.2939Z" fill="#9E4A9E"/>
<path d="M129.343 83.7339C130.169 84.1929 130.169 84.9581 129.343 85.4477C128.869 85.6895 128.345 85.8156 127.813 85.8156C127.281 85.8156 126.756 85.6895 126.283 85.4477C125.456 84.9581 125.456 84.1929 126.283 83.7339C126.748 83.4653 127.276 83.3238 127.813 83.3238C128.35 83.3238 128.878 83.4653 129.343 83.7339Z" fill="#9E4A9E"/>
<path d="M82.6403 74.7361C83.4666 75.2257 83.4666 75.9909 82.6403 76.4499C82.1695 76.7018 81.6439 76.8335 81.11 76.8335C80.5762 76.8335 80.0506 76.7018 79.5798 76.4499C78.7535 75.9909 78.7535 75.2257 79.5798 74.7361C80.0551 74.499 80.5789 74.3755 81.11 74.3755C81.6412 74.3755 82.165 74.499 82.6403 74.7361Z" fill="#9E4A9E"/>
<path d="M90.414 70.2371C91.2403 70.7268 91.2403 71.4919 90.414 71.951C89.9488 72.2196 89.421 72.361 88.8838 72.361C88.3466 72.361 87.8188 72.2196 87.3535 71.951C86.5272 71.4919 86.5272 70.7268 87.3535 70.2371C87.8274 69.9953 88.3518 69.8693 88.8838 69.8693C89.4158 69.8693 89.9402 69.9953 90.414 70.2371Z" fill="#9E4A9E"/>
<path d="M98.2181 65.7384C98.3889 65.8115 98.5344 65.9331 98.6367 66.0882C98.739 66.2433 98.7936 66.4249 98.7936 66.6107C98.7936 66.7965 98.739 66.9781 98.6367 67.1332C98.5344 67.2882 98.3889 67.4098 98.2181 67.4829C97.7429 67.72 97.219 67.8435 96.6879 67.8435C96.1568 67.8435 95.6329 67.72 95.1576 67.4829C94.974 67.4225 94.814 67.3057 94.7007 67.1491C94.5873 66.9925 94.5262 66.8041 94.5262 66.6107C94.5262 66.4173 94.5873 66.2289 94.7007 66.0723C94.814 65.9157 94.974 65.7988 95.1576 65.7384C95.6329 65.5013 96.1568 65.3779 96.6879 65.3779C97.219 65.3779 97.7429 65.5013 98.2181 65.7384Z" fill="#9E4A9E"/>
<path d="M67.0627 74.7361C67.8891 75.2257 67.8891 75.9909 67.0627 76.4499C66.592 76.7018 66.0664 76.8335 65.5325 76.8335C64.9986 76.8335 64.473 76.7018 64.0023 76.4499C63.8291 76.3833 63.68 76.2658 63.575 76.1128C63.4699 75.9598 63.4138 75.7786 63.4138 75.593C63.4138 75.4074 63.4699 75.2262 63.575 75.0732C63.68 74.9202 63.8291 74.8027 64.0023 74.7361C64.4775 74.499 65.0014 74.3755 65.5325 74.3755C66.0636 74.3755 66.5875 74.499 67.0627 74.7361Z" fill="#9E4A9E"/>
<path d="M74.8359 70.2371C75.6623 70.7268 75.6623 71.4919 74.8359 71.951C74.3707 72.2196 73.8429 72.361 73.3057 72.361C72.7685 72.361 72.2407 72.2196 71.7755 71.951C70.9491 71.4919 70.9491 70.7268 71.7755 70.2371C72.2493 69.9953 72.7737 69.8693 73.3057 69.8693C73.8377 69.8693 74.3621 69.9953 74.8359 70.2371Z" fill="#9E4A9E"/>
<path d="M82.6404 65.7384C82.8241 65.7988 82.984 65.9157 83.0974 66.0723C83.2108 66.2289 83.2719 66.4173 83.2719 66.6107C83.2719 66.8041 83.2108 66.9925 83.0974 67.1491C82.984 67.3057 82.8241 67.4225 82.6404 67.4829C82.1652 67.72 81.6413 67.8435 81.1102 67.8435C80.5791 67.8435 80.0552 67.72 79.58 67.4829C79.3963 67.4225 79.2363 67.3057 79.123 67.1491C79.0096 66.9925 78.9485 66.8041 78.9485 66.6107C78.9485 66.4173 79.0096 66.2289 79.123 66.0723C79.2363 65.9157 79.3963 65.7988 79.58 65.7384C80.0552 65.5013 80.5791 65.3779 81.1102 65.3779C81.6413 65.3779 82.1652 65.5013 82.6404 65.7384Z" fill="#9E4A9E"/>
<path d="M90.4141 61.2396C90.5978 61.2999 90.7577 61.4168 90.8711 61.5734C90.9845 61.73 91.0455 61.9184 91.0455 62.1118C91.0455 62.3051 90.9845 62.4936 90.8711 62.6502C90.7577 62.8068 90.5978 62.9237 90.4141 62.984C89.9403 63.2258 89.4159 63.3519 88.8839 63.3519C88.3519 63.3519 87.8275 63.2258 87.3537 62.984C87.17 62.9237 87.01 62.8068 86.8966 62.6502C86.7832 62.4936 86.7222 62.3051 86.7222 62.1118C86.7222 61.9184 86.7832 61.73 86.8966 61.5734C87.01 61.4168 87.17 61.2999 87.3537 61.2396C87.8275 60.9978 88.3519 60.8717 88.8839 60.8717C89.4159 60.8717 89.9403 60.9978 90.4141 61.2396Z" fill="#9E4A9E"/>
<path d="M59.3808 70.2371C60.2071 70.7268 60.2071 71.4919 59.3808 71.951C58.9155 72.2196 58.3878 72.361 57.8505 72.361C57.3133 72.361 56.7856 72.2196 56.3203 71.951C55.494 71.4919 55.494 70.7268 56.3203 70.2371C56.7942 69.9953 57.3186 69.8693 57.8505 69.8693C58.3825 69.8693 58.9069 69.9953 59.3808 70.2371Z" fill="#9E4A9E"/>
<path d="M67.0628 65.7384C67.2465 65.7988 67.4064 65.9157 67.5198 66.0723C67.6332 66.2289 67.6943 66.4173 67.6943 66.6107C67.6943 66.8041 67.6332 66.9925 67.5198 67.1491C67.4064 67.3057 67.2465 67.4225 67.0628 67.4829C66.5876 67.72 66.0637 67.8435 65.5326 67.8435C65.0015 67.8435 64.4776 67.72 64.0024 67.4829C63.8316 67.4098 63.686 67.2882 63.5836 67.1332C63.4813 66.9781 63.4268 66.7965 63.4268 66.6107C63.4268 66.4249 63.4813 66.2433 63.5836 66.0882C63.686 65.9331 63.8316 65.8115 64.0024 65.7384C64.4776 65.5013 65.0015 65.3779 65.5326 65.3779C66.0637 65.3779 66.5876 65.5013 67.0628 65.7384Z" fill="#9E4A9E"/>
<path d="M74.8364 61.2396C75.02 61.2999 75.1801 61.4168 75.2934 61.5734C75.4068 61.73 75.4678 61.9184 75.4678 62.1118C75.4678 62.3051 75.4068 62.4936 75.2934 62.6502C75.1801 62.8068 75.02 62.9237 74.8364 62.984C74.3625 63.2258 73.8381 63.3519 73.3061 63.3519C72.7741 63.3519 72.2497 63.2258 71.7759 62.984C71.5922 62.9237 71.4323 62.8068 71.3189 62.6502C71.2055 62.4936 71.1445 62.3051 71.1445 62.1118C71.1445 61.9184 71.2055 61.73 71.3189 61.5734C71.4323 61.4168 71.5922 61.2999 71.7759 61.2396C72.2497 60.9978 72.7741 60.8717 73.3061 60.8717C73.8381 60.8717 74.3625 60.9978 74.8364 61.2396Z" fill="#9E4A9E"/>
<path d="M82.6403 56.7714C83.4666 57.2305 83.4666 57.9956 82.6403 58.4853C82.165 58.7224 81.6412 58.8458 81.11 58.8458C80.5789 58.8458 80.0551 58.7224 79.5798 58.4853C78.7535 57.9956 78.7535 57.2305 79.5798 56.7714C80.0506 56.5196 80.5762 56.3878 81.11 56.3878C81.6439 56.3878 82.1695 56.5196 82.6403 56.7714Z" fill="#9E4A9E"/>
<path d="M51.4847 65.7383C51.6684 65.7987 51.8283 65.9155 51.9417 66.0722C52.0551 66.2288 52.116 66.4172 52.116 66.6106C52.116 66.8039 52.0551 66.9924 51.9417 67.149C51.8283 67.3056 51.6684 67.4224 51.4847 67.4828C51.0108 67.7246 50.4864 67.8507 49.9544 67.8507C49.4225 67.8507 48.898 67.7246 48.4242 67.4828C48.2405 67.4224 48.0805 67.3056 47.9671 67.149C47.8537 66.9924 47.7927 66.8039 47.7927 66.6106C47.7927 66.4172 47.8537 66.2288 47.9671 66.0722C48.0805 65.9155 48.2405 65.7987 48.4242 65.7383C48.898 65.4965 49.4225 65.3705 49.9544 65.3705C50.4864 65.3705 51.0108 65.4965 51.4847 65.7383Z" fill="#9E4A9E"/>
<path d="M59.3809 61.2396C59.5646 61.2999 59.7245 61.4168 59.8379 61.5734C59.9513 61.73 60.0124 61.9184 60.0124 62.1118C60.0124 62.3051 59.9513 62.4936 59.8379 62.6502C59.7245 62.8068 59.5646 62.9237 59.3809 62.984C58.9071 63.2258 58.3827 63.3519 57.8507 63.3519C57.3187 63.3519 56.7943 63.2258 56.3205 62.984C56.1368 62.9237 55.9768 62.8068 55.8635 62.6502C55.7501 62.4936 55.689 62.3051 55.689 62.1118C55.689 61.9184 55.7501 61.73 55.8635 61.5734C55.9768 61.4168 56.1368 61.2999 56.3205 61.2396C56.7943 60.9978 57.3187 60.8717 57.8507 60.8717C58.3827 60.8717 58.9071 60.9978 59.3809 61.2396Z" fill="#9E4A9E"/>
<path d="M67.0627 56.7714C67.8891 57.2305 67.8891 57.9956 67.0627 58.4853C66.5875 58.7224 66.0636 58.8458 65.5325 58.8458C65.0014 58.8458 64.4775 58.7224 64.0023 58.4853C63.8291 58.4186 63.68 58.3011 63.575 58.1481C63.4699 57.9951 63.4138 57.8139 63.4138 57.6283C63.4138 57.4428 63.4699 57.2615 63.575 57.1085C63.68 56.9556 63.8291 56.838 64.0023 56.7714C64.473 56.5196 64.9986 56.3878 65.5325 56.3878C66.0664 56.3878 66.592 56.5196 67.0627 56.7714Z" fill="#9E4A9E"/>
<path d="M74.8359 52.2725C75.6623 52.7316 75.6623 53.4967 74.8359 53.9864C74.3621 54.2282 73.8377 54.3543 73.3057 54.3543C72.7737 54.3543 72.2493 54.2282 71.7755 53.9864C70.9491 53.4967 70.9491 52.7316 71.7755 52.2725C72.2407 52.0039 72.7685 51.8625 73.3057 51.8625C73.8429 51.8625 74.3707 52.0039 74.8359 52.2725Z" fill="#9E4A9E"/>
<path d="M43.6194 61.2089C43.8078 61.2597 43.9742 61.3711 44.0929 61.526C44.2115 61.6809 44.2759 61.8706 44.2759 62.0658C44.2759 62.2609 44.2115 62.4506 44.0929 62.6055C43.9742 62.7604 43.8078 62.8719 43.6194 62.9227C43.1542 63.1913 42.6264 63.3327 42.0892 63.3327C41.552 63.3327 41.0242 63.1913 40.5589 62.9227C40.3705 62.8719 40.2041 62.7604 40.0854 62.6055C39.9668 62.4506 39.9025 62.2609 39.9025 62.0658C39.9025 61.8706 39.9668 61.6809 40.0854 61.526C40.2041 61.3711 40.3705 61.2597 40.5589 61.2089C41.0242 60.9402 41.552 60.7988 42.0892 60.7988C42.6264 60.7988 43.1542 60.9402 43.6194 61.2089Z" fill="#9E4A9E"/>
<path d="M51.4236 56.7102C52.25 57.1999 52.25 57.965 51.4236 58.4241C50.9529 58.6759 50.4273 58.8077 49.8934 58.8077C49.3595 58.8077 48.8339 58.6759 48.3632 58.4241C47.5368 57.965 47.5368 57.1999 48.3632 56.7102C48.8384 56.4731 49.3623 56.3497 49.8934 56.3497C50.4245 56.3497 50.9484 56.4731 51.4236 56.7102Z" fill="#9E4A9E"/>
<path d="M59.1974 52.2113C60.0237 52.701 60.0237 53.4661 59.1974 53.9251C58.7321 54.1938 58.2043 54.3352 57.6671 54.3352C57.1299 54.3352 56.6021 54.1938 56.1369 53.9251C55.3106 53.4661 55.3106 52.701 56.1369 52.2113C56.6107 51.9695 57.1351 51.8434 57.6671 51.8434C58.1991 51.8434 58.7235 51.9695 59.1974 52.2113Z" fill="#9E4A9E"/>
<path d="M67.0015 47.7122C67.1722 47.7853 67.3179 47.9069 67.4202 48.062C67.5225 48.217 67.577 48.3987 67.577 48.5845C67.577 48.7702 67.5225 48.9519 67.4202 49.107C67.3179 49.262 67.1722 49.3836 67.0015 49.4567C66.5262 49.6938 66.0024 49.8172 65.4712 49.8172C64.9401 49.8172 64.4163 49.6938 63.941 49.4567C63.7573 49.3963 63.5974 49.2795 63.484 49.1229C63.3706 48.9662 63.3095 48.7778 63.3095 48.5845C63.3095 48.3911 63.3706 48.2027 63.484 48.0461C63.5974 47.8894 63.7573 47.7726 63.941 47.7122C64.4163 47.4751 64.9401 47.3517 65.4712 47.3517C66.0024 47.3517 66.5262 47.4751 67.0015 47.7122Z" fill="#9E4A9E"/>
<path d="M34.3462 58.7914C35.5125 58.7914 36.4579 58.2433 36.4579 57.5672C36.4579 56.8911 35.5125 56.343 34.3462 56.343C33.1799 56.343 32.2345 56.8911 32.2345 57.5672C32.2345 58.2433 33.1799 58.7914 34.3462 58.7914Z" fill="#9E4A9E"/>
<path d="M43.6193 52.2113C44.4456 52.701 44.4456 53.4661 43.6193 53.9251C43.154 54.1938 42.6263 54.3352 42.0891 54.3352C41.5518 54.3352 41.0241 54.1938 40.5588 53.9251C39.7325 53.4661 39.7325 52.701 40.5588 52.2113C41.0327 51.9695 41.5571 51.8434 42.0891 51.8434C42.621 51.8434 43.1454 51.9695 43.6193 52.2113Z" fill="#9E4A9E"/>
<path d="M51.4234 47.7122C51.6071 47.7726 51.767 47.8894 51.8804 48.0461C51.9938 48.2027 52.0549 48.3911 52.0549 48.5845C52.0549 48.7778 51.9938 48.9662 51.8804 49.1229C51.767 49.2795 51.6071 49.3963 51.4234 49.4567C50.9481 49.6938 50.4243 49.8172 49.8932 49.8172C49.362 49.8172 48.8382 49.6938 48.3629 49.4567C48.1792 49.3963 48.0193 49.2795 47.9059 49.1229C47.7925 48.9662 47.7315 48.7778 47.7315 48.5845C47.7315 48.3911 47.7925 48.2027 47.9059 48.0461C48.0193 47.8894 48.1792 47.7726 48.3629 47.7122C48.8382 47.4751 49.362 47.3517 49.8932 47.3517C50.4243 47.3517 50.9481 47.4751 51.4234 47.7122Z" fill="#9E4A9E"/>
<path d="M59.1974 43.2439C60.0237 43.703 60.0237 44.4681 59.1974 44.9577C58.7235 45.1995 58.1991 45.3256 57.6671 45.3256C57.1351 45.3256 56.6107 45.1995 56.1369 44.9577C55.3106 44.4681 55.3106 43.703 56.1369 43.2439C56.6021 42.9753 57.1299 42.8339 57.6671 42.8339C58.2043 42.8339 58.7321 42.9753 59.1974 43.2439Z" fill="#9E4A9E"/>
<path d="M43.6193 43.2439C44.4456 43.703 44.4456 44.4681 43.6193 44.9577C43.1454 45.1995 42.621 45.3256 42.0891 45.3256C41.5571 45.3256 41.0327 45.1995 40.5588 44.9577C39.7325 44.4681 39.7325 43.703 40.5588 43.2439C41.0241 42.9753 41.5518 42.8339 42.0891 42.8339C42.6263 42.8339 43.154 42.9753 43.6193 43.2439Z" fill="#9E4A9E"/>
<path d="M51.4236 38.7452C52.25 39.2042 52.25 39.9694 51.4236 40.459C50.9484 40.6961 50.4245 40.8195 49.8934 40.8195C49.3623 40.8195 48.8384 40.6961 48.3632 40.459C47.5368 39.9694 47.5368 39.2042 48.3632 38.7452C48.8339 38.4933 49.3595 38.3616 49.8934 38.3616C50.4273 38.3616 50.9529 38.4933 51.4236 38.7452Z" fill="#9E4A9E"/>
<path d="M142.014 85.5703C141.83 85.5099 141.67 85.3931 141.557 85.2365C141.443 85.0799 141.382 84.8914 141.382 84.6981C141.382 84.5047 141.443 84.3163 141.557 84.1597C141.67 84.003 141.83 83.8862 142.014 83.8258C142.487 83.584 143.012 83.4579 143.544 83.4579C144.076 83.4579 144.6 83.584 145.074 83.8258C145.839 84.3155 142.871 86.0294 142.014 85.5703Z" fill="#9E4A9E"/>
<path d="M134.179 79.2963C134.644 79.0277 135.172 78.8863 135.709 78.8863C136.246 78.8863 136.774 79.0277 137.239 79.2963C137.428 79.3471 137.594 79.4586 137.713 79.6135C137.832 79.7684 137.896 79.9581 137.896 80.1532C137.896 80.3484 137.832 80.5381 137.713 80.693C137.594 80.8479 137.428 80.9594 137.239 81.0102C136.774 81.2788 136.246 81.4202 135.709 81.4202C135.172 81.4202 134.644 81.2788 134.179 81.0102C133.353 80.5511 133.353 79.786 134.179 79.2963Z" fill="#9E4A9E"/>
<path d="M145.074 74.7975C145.263 74.8483 145.429 74.9598 145.548 75.1147C145.666 75.2696 145.731 75.4593 145.731 75.6545C145.731 75.8496 145.666 76.0393 145.548 76.1942C145.429 76.3491 145.263 76.4606 145.074 76.5114C144.609 76.78 144.081 76.9214 143.544 76.9214C143.007 76.9214 142.479 76.78 142.014 76.5114C141.825 76.4606 141.659 76.3491 141.54 76.1942C141.421 76.0393 141.357 75.8496 141.357 75.6545C141.357 75.4593 141.421 75.2696 141.54 75.1147C141.659 74.9598 141.825 74.8483 142.014 74.7975C142.479 74.5289 143.007 74.3875 143.544 74.3875C144.081 74.3875 144.609 74.5289 145.074 74.7975Z" fill="#9E4A9E"/>
<path d="M152.756 70.2985C152.929 70.3652 153.078 70.4827 153.183 70.6357C153.288 70.7887 153.344 70.9699 153.344 71.1555C153.344 71.3411 153.288 71.5223 153.183 71.6753C153.078 71.8282 152.929 71.9458 152.756 72.0124C152.285 72.2642 151.759 72.396 151.226 72.396C150.692 72.396 150.166 72.2642 149.695 72.0124C148.869 71.5533 148.869 70.7882 149.695 70.2985C150.171 70.0614 150.694 69.938 151.226 69.938C151.757 69.938 152.281 70.0614 152.756 70.2985Z" fill="#9E4A9E"/>
<path d="M126.405 74.7976C126.879 74.5558 127.403 74.4297 127.935 74.4297C128.467 74.4297 128.992 74.5558 129.466 74.7976C130.292 75.2873 130.292 76.0524 129.466 76.5115C129 76.7801 128.473 76.9215 127.935 76.9215C127.398 76.9215 126.87 76.7801 126.405 76.5115C125.579 76.0524 125.579 75.2873 126.405 74.7976Z" fill="#9E4A9E"/>
<path d="M137.178 70.2985C137.351 70.3652 137.5 70.4827 137.605 70.6357C137.71 70.7887 137.767 70.9699 137.767 71.1555C137.767 71.3411 137.71 71.5223 137.605 71.6753C137.5 71.8282 137.351 71.9458 137.178 72.0124C136.707 72.2642 136.182 72.396 135.648 72.396C135.114 72.396 134.588 72.2642 134.118 72.0124C133.291 71.5533 133.291 70.7882 134.118 70.2985C134.593 70.0614 135.117 69.938 135.648 69.938C136.179 69.938 136.703 70.0614 137.178 70.2985Z" fill="#9E4A9E"/>
<path d="M145.074 65.7996C145.9 66.2893 145.9 67.0544 145.074 67.5135C144.609 67.7821 144.081 67.9235 143.544 67.9235C143.007 67.9235 142.479 67.7821 142.013 67.5135C141.187 67.0544 141.187 66.2893 142.013 65.7996C142.487 65.5578 143.012 65.4317 143.544 65.4317C144.076 65.4317 144.6 65.5578 145.074 65.7996Z" fill="#9E4A9E"/>
<path d="M129.374 65.7996C130.2 66.2893 130.2 67.0544 129.374 67.5135C128.908 67.7821 128.381 67.9235 127.844 67.9235C127.306 67.9235 126.779 67.7821 126.313 67.5135C125.487 67.0544 125.487 66.2893 126.313 65.7996C126.787 65.5578 127.312 65.4317 127.844 65.4317C128.375 65.4317 128.9 65.5578 129.374 65.7996Z" fill="#9E4A9E"/>
<path d="M137.178 61.3009C137.349 61.374 137.494 61.4956 137.596 61.6507C137.699 61.8057 137.753 61.9874 137.753 62.1732C137.753 62.3589 137.699 62.5406 137.596 62.6957C137.494 62.8507 137.349 62.9723 137.178 63.0454C136.703 63.2825 136.179 63.4059 135.648 63.4059C135.116 63.4059 134.593 63.2825 134.117 63.0454C133.934 62.985 133.774 62.8682 133.66 62.7116C133.547 62.555 133.486 62.3665 133.486 62.1732C133.486 61.9798 133.547 61.7914 133.66 61.6348C133.774 61.4781 133.934 61.3613 134.117 61.3009C134.593 61.0638 135.116 60.9404 135.648 60.9404C136.179 60.9404 136.703 61.0638 137.178 61.3009Z" fill="#9E4A9E"/>
<path d="M145.074 56.8326C145.9 57.2916 145.9 58.0567 145.074 58.5464C144.6 58.7882 144.076 58.9143 143.544 58.9143C143.012 58.9143 142.487 58.7882 142.013 58.5464C141.187 58.0567 141.187 57.2916 142.013 56.8326C142.479 56.564 143.007 56.4225 143.544 56.4225C144.081 56.4225 144.609 56.564 145.074 56.8326Z" fill="#9E4A9E"/>
<path d="M121.6 61.3009C121.784 61.3613 121.944 61.4781 122.057 61.6348C122.171 61.7914 122.232 61.9798 122.232 62.1732C122.232 62.3665 122.171 62.555 122.057 62.7116C121.944 62.8682 121.784 62.985 121.6 63.0454C121.125 63.2825 120.601 63.4059 120.07 63.4059C119.539 63.4059 119.015 63.2825 118.54 63.0454C118.369 62.9723 118.223 62.8507 118.121 62.6957C118.019 62.5406 117.964 62.3589 117.964 62.1732C117.964 61.9874 118.019 61.8057 118.121 61.6507C118.223 61.4956 118.369 61.374 118.54 61.3009C119.015 61.0638 119.539 60.9404 120.07 60.9404C120.601 60.9404 121.125 61.0638 121.6 61.3009Z" fill="#9E4A9E"/>
<path d="M129.374 56.8326C130.2 57.2916 130.2 58.0567 129.374 58.5464C128.9 58.7882 128.375 58.9143 127.844 58.9143C127.312 58.9143 126.787 58.7882 126.313 58.5464C125.487 58.0567 125.487 57.2916 126.313 56.8326C126.779 56.564 127.306 56.4225 127.844 56.4225C128.381 56.4225 128.908 56.564 129.374 56.8326Z" fill="#9E4A9E"/>
<path d="M137.178 52.3335C137.351 52.4001 137.5 52.5177 137.605 52.6706C137.71 52.8236 137.767 53.0048 137.767 53.1904C137.767 53.376 137.71 53.5572 137.605 53.7102C137.5 53.8632 137.351 53.9807 137.178 54.0473C136.703 54.2845 136.179 54.4079 135.648 54.4079C135.117 54.4079 134.593 54.2845 134.118 54.0473C133.291 53.5577 133.291 52.7926 134.118 52.3335C134.588 52.0817 135.114 51.9499 135.648 51.9499C136.182 51.9499 136.707 52.0817 137.178 52.3335Z" fill="#9E4A9E"/>
<path d="M103.023 61.3315C103.495 61.0823 104.02 60.952 104.553 60.952C105.087 60.952 105.612 61.0823 106.083 61.3315C106.267 61.3919 106.427 61.5087 106.54 61.6653C106.654 61.822 106.715 62.0104 106.715 62.2037C106.715 62.3971 106.654 62.5855 106.54 62.7421C106.427 62.8988 106.267 63.0156 106.083 63.076C105.608 63.3131 105.084 63.4365 104.553 63.4365C104.022 63.4365 103.498 63.3131 103.023 63.076C102.227 62.5557 102.227 61.7906 103.023 61.3315Z" fill="#9E4A9E"/>
<path d="M113.796 56.8326C114.622 57.2916 114.622 58.0567 113.796 58.5464C113.322 58.7882 112.798 58.9143 112.266 58.9143C111.734 58.9143 111.209 58.7882 110.736 58.5464C109.909 58.0567 109.909 57.2916 110.736 56.8326C111.201 56.564 111.729 56.4225 112.266 56.4225C112.803 56.4225 113.331 56.564 113.796 56.8326Z" fill="#9E4A9E"/>
<path d="M121.6 52.3335C122.426 52.7926 122.426 53.5577 121.6 54.0473C121.125 54.2845 120.601 54.4079 120.07 54.4079C119.539 54.4079 119.015 54.2845 118.54 54.0473C118.366 53.9807 118.218 53.8632 118.112 53.7102C118.007 53.5572 117.951 53.376 117.951 53.1904C117.951 53.0048 118.007 52.8236 118.112 52.6706C118.218 52.5177 118.366 52.4001 118.54 52.3335C119.01 52.0817 119.536 51.9499 120.07 51.9499C120.604 51.9499 121.129 52.0817 121.6 52.3335Z" fill="#9E4A9E"/>
<path d="M129.374 47.8346C130.2 48.2937 130.2 49.0588 129.374 49.5484C128.9 49.7903 128.375 49.9163 127.844 49.9163C127.312 49.9163 126.787 49.7903 126.313 49.5484C125.487 49.0588 125.487 48.2937 126.313 47.8346C126.779 47.566 127.306 47.4246 127.844 47.4246C128.381 47.4246 128.908 47.566 129.374 47.8346Z" fill="#9E4A9E"/>
<path d="M95.2494 56.8326C95.7147 56.564 96.2424 56.4225 96.7796 56.4225C97.3169 56.4225 97.8446 56.564 98.3099 56.8326C99.1362 57.2916 99.1362 58.0567 98.3099 58.5464C97.836 58.7882 97.3116 58.9143 96.7796 58.9143C96.2477 58.9143 95.7233 58.7882 95.2494 58.5464C94.4231 58.0567 94.4231 57.2916 95.2494 56.8326Z" fill="#9E4A9E"/>
<path d="M106.022 52.3335C106.849 52.7926 106.849 53.5577 106.022 54.0473C105.547 54.2845 105.023 54.4079 104.492 54.4079C103.961 54.4079 103.437 54.2845 102.962 54.0473C102.789 53.9807 102.64 53.8632 102.535 53.7102C102.43 53.5572 102.373 53.376 102.373 53.1904C102.373 53.0048 102.43 52.8236 102.535 52.6706C102.64 52.5177 102.789 52.4001 102.962 52.3335C103.433 52.0817 103.958 51.9499 104.492 51.9499C105.026 51.9499 105.552 52.0817 106.022 52.3335Z" fill="#9E4A9E"/>
<path d="M113.796 47.8346C114.622 48.2937 114.622 49.0588 113.796 49.5484C113.322 49.7903 112.798 49.9163 112.266 49.9163C111.734 49.9163 111.209 49.7903 110.736 49.5484C109.909 49.0588 109.909 48.2937 110.736 47.8346C111.201 47.566 111.729 47.4246 112.266 47.4246C112.803 47.4246 113.331 47.566 113.796 47.8346Z" fill="#9E4A9E"/>
<path d="M121.6 43.3359C121.789 43.3867 121.955 43.4982 122.074 43.6531C122.192 43.808 122.257 43.9977 122.257 44.1928C122.257 44.3879 122.192 44.5776 122.074 44.7325C121.955 44.8874 121.789 44.9989 121.6 45.0497C121.129 45.3016 120.604 45.4333 120.07 45.4333C119.536 45.4333 119.01 45.3016 118.54 45.0497C118.366 44.9831 118.218 44.8656 118.112 44.7126C118.007 44.5596 117.951 44.3784 117.951 44.1928C117.951 44.0072 118.007 43.826 118.112 43.673C118.218 43.5201 118.366 43.4025 118.54 43.3359C119.01 43.084 119.536 42.9523 120.07 42.9523C120.604 42.9523 121.129 43.084 121.6 43.3359Z" fill="#9E4A9E"/>
<path d="M87.4453 52.3335C87.916 52.0817 88.4417 51.9499 88.9755 51.9499C89.5094 51.9499 90.035 52.0817 90.5058 52.3335C91.3321 52.7926 91.3321 53.5577 90.5058 54.0473C90.0327 54.2916 89.508 54.419 88.9755 54.419C88.4431 54.419 87.9184 54.2916 87.4453 54.0473C87.2721 53.9807 87.1231 53.8632 87.018 53.7102C86.9129 53.5572 86.8567 53.376 86.8567 53.1904C86.8567 53.0048 86.9129 52.8236 87.018 52.6706C87.1231 52.5177 87.2721 52.4001 87.4453 52.3335Z" fill="#9E4A9E"/>
<path d="M98.2184 47.8346C99.0447 48.2937 99.0447 49.0588 98.2184 49.5484C97.7445 49.7903 97.2201 49.9163 96.6881 49.9163C96.1561 49.9163 95.6317 49.7903 95.1579 49.5484C94.3316 49.0588 94.3316 48.2937 95.1579 47.8346C95.6231 47.566 96.1509 47.4246 96.6881 47.4246C97.2253 47.4246 97.7531 47.566 98.2184 47.8346Z" fill="#9E4A9E"/>
<path d="M106.022 43.3359C106.211 43.3867 106.377 43.4982 106.496 43.6531C106.615 43.808 106.679 43.9977 106.679 44.1928C106.679 44.3879 106.615 44.5776 106.496 44.7325C106.377 44.8874 106.211 44.9989 106.022 45.0497C105.552 45.3016 105.026 45.4333 104.492 45.4333C103.958 45.4333 103.433 45.3016 102.962 45.0497C102.789 44.9831 102.64 44.8656 102.535 44.7126C102.43 44.5596 102.373 44.3784 102.373 44.1928C102.373 44.0072 102.43 43.826 102.535 43.673C102.64 43.5201 102.789 43.4025 102.962 43.3359C103.433 43.084 103.958 42.9523 104.492 42.9523C105.026 42.9523 105.552 43.084 106.022 43.3359Z" fill="#9E4A9E"/>
<path d="M113.796 38.837C114.622 39.3267 114.622 40.0919 113.796 40.5509C113.331 40.8195 112.803 40.9609 112.266 40.9609C111.729 40.9609 111.201 40.8195 110.736 40.5509C109.909 40.0919 109.909 39.3267 110.736 38.837C111.209 38.5952 111.734 38.4692 112.266 38.4692C112.798 38.4692 113.322 38.5952 113.796 38.837Z" fill="#9E4A9E"/>
<path d="M79.6717 47.8346C80.137 47.566 80.6647 47.4246 81.202 47.4246C81.7392 47.4246 82.2669 47.566 82.7322 47.8346C82.9206 47.8854 83.087 47.9969 83.2056 48.1518C83.3243 48.3067 83.3887 48.4964 83.3887 48.6915C83.3887 48.8867 83.3243 49.0764 83.2056 49.2313C83.087 49.3862 82.9206 49.4976 82.7322 49.5484C82.2669 49.8171 81.7392 49.9585 81.202 49.9585C80.6647 49.9585 80.137 49.8171 79.6717 49.5484C78.8454 49.0894 78.8454 48.3243 79.6717 47.8346Z" fill="#9E4A9E"/>
<path d="M90.4448 43.3358C90.6332 43.3866 90.7996 43.4981 90.9183 43.653C91.037 43.8079 91.1013 43.9976 91.1013 44.1927C91.1013 44.3879 91.037 44.5776 90.9183 44.7325C90.7996 44.8874 90.6332 44.9989 90.4448 45.0497C89.9795 45.3183 89.4518 45.4597 88.9145 45.4597C88.3773 45.4597 87.8496 45.3183 87.3843 45.0497C87.1959 44.9989 87.0295 44.8874 86.9109 44.7325C86.7922 44.5776 86.7278 44.3879 86.7278 44.1927C86.7278 43.9976 86.7922 43.8079 86.9109 43.653C87.0295 43.4981 87.1959 43.3866 87.3843 43.3358C87.8496 43.0672 88.3773 42.9258 88.9145 42.9258C89.4518 42.9258 89.9795 43.0672 90.4448 43.3358Z" fill="#9E4A9E"/>
<path d="M98.2184 38.837C99.0447 39.3267 99.0447 40.0919 98.2184 40.5509C97.7531 40.8195 97.2253 40.9609 96.6881 40.9609C96.1509 40.9609 95.6231 40.8195 95.1579 40.5509C94.3316 40.0919 94.3316 39.3267 95.1579 38.837C95.6317 38.5952 96.1561 38.4692 96.6881 38.4692C97.2201 38.4692 97.7445 38.5952 98.2184 38.837Z" fill="#9E4A9E"/>
<path d="M104.523 36.4192C105.689 36.4192 106.635 35.8711 106.635 35.195C106.635 34.5189 105.689 33.9708 104.523 33.9708C103.357 33.9708 102.411 34.5189 102.411 35.195C102.411 35.8711 103.357 36.4192 104.523 36.4192Z" fill="#9E4A9E"/>
<path d="M71.8061 43.3053C72.2777 43.0561 72.803 42.9258 73.3363 42.9258C73.8697 42.9258 74.395 43.0561 74.8666 43.3053C75.0503 43.3657 75.2102 43.4825 75.3236 43.6391C75.437 43.7958 75.498 43.9842 75.498 44.1775C75.498 44.3709 75.437 44.5593 75.3236 44.7159C75.2102 44.8726 75.0503 44.9894 74.8666 45.0498C74.3913 45.2869 73.8675 45.4103 73.3363 45.4103C72.8052 45.4103 72.2814 45.2869 71.8061 45.0498C70.9798 44.5295 70.9798 43.7644 71.8061 43.3053Z" fill="#9E4A9E"/>
<path d="M82.579 38.8064C83.4053 39.2654 83.4053 40.0306 82.579 40.5202C82.1052 40.762 81.5808 40.8881 81.0488 40.8881C80.5168 40.8881 79.9924 40.762 79.5185 40.5202C78.6922 40.0306 78.6922 39.2654 79.5185 38.8064C79.9838 38.5378 80.5116 38.3963 81.0488 38.3963C81.586 38.3963 82.1138 38.5378 82.579 38.8064Z" fill="#9E4A9E"/>
<path d="M90.3835 34.3073C91.2098 34.7663 91.2098 35.5314 90.3835 36.0211C89.9082 36.2582 89.3844 36.3817 88.8533 36.3817C88.3221 36.3817 87.7983 36.2582 87.323 36.0211C87.1498 35.9545 87.0009 35.837 86.8958 35.684C86.7908 35.531 86.7345 35.3498 86.7345 35.1642C86.7345 34.9786 86.7908 34.7974 86.8958 34.6444C87.0009 34.4914 87.1498 34.3739 87.323 34.3073C87.7938 34.0554 88.3194 33.9237 88.8533 33.9237C89.3871 33.9237 89.9128 34.0554 90.3835 34.3073Z" fill="#9E4A9E"/>
<path d="M98.1571 29.8084C98.9834 30.2674 98.9834 31.0326 98.1571 31.5222C97.6918 31.7908 97.1641 31.9323 96.6268 31.9323C96.0896 31.9323 95.5619 31.7908 95.0966 31.5222C94.2703 31.0326 94.2703 30.2674 95.0966 29.8084C95.5619 29.5398 96.0896 29.3984 96.6268 29.3984C97.1641 29.3984 97.6918 29.5398 98.1571 29.8084Z" fill="#9E4A9E"/>
<path d="M64.0328 38.8064C64.498 38.5378 65.0258 38.3963 65.563 38.3963C66.1002 38.3963 66.628 38.5378 67.0932 38.8064C67.9196 39.2654 67.9196 40.0306 67.0932 40.5202C66.6194 40.762 66.095 40.8881 65.563 40.8881C65.031 40.8881 64.5066 40.762 64.0328 40.5202C63.2064 40.0306 63.2064 39.3267 64.0328 38.8064Z" fill="#9E4A9E"/>
<path d="M74.6833 34.3073C75.5096 34.7663 75.5096 35.5314 74.6833 36.0211C74.208 36.2582 73.6842 36.3817 73.153 36.3817C72.6219 36.3817 72.0981 36.2582 71.6228 36.0211C71.4496 35.9545 71.3007 35.837 71.1956 35.684C71.0905 35.531 71.0343 35.3498 71.0343 35.1642C71.0343 34.9786 71.0905 34.7974 71.1956 34.6444C71.3007 34.4914 71.4496 34.3739 71.6228 34.3073C72.0935 34.0554 72.6192 33.9237 73.153 33.9237C73.6869 33.9237 74.2125 34.0554 74.6833 34.3073Z" fill="#9E4A9E"/>
<path d="M82.579 29.8084C83.4053 30.2674 83.4053 31.0326 82.579 31.5222C82.1138 31.7908 81.586 31.9323 81.0488 31.9323C80.5116 31.9323 79.9838 31.7908 79.5185 31.5222C78.6922 31.0326 78.6922 30.2674 79.5185 29.8084C79.9838 29.5398 80.5116 29.3984 81.0488 29.3984C81.586 29.3984 82.1138 29.5398 82.579 29.8084Z" fill="#9E4A9E"/>
<path d="M56.3205 34.3073C56.7912 34.0554 57.3168 33.9237 57.8507 33.9237C58.3846 33.9237 58.9102 34.0554 59.3809 34.3073C59.5541 34.3739 59.7031 34.4914 59.8081 34.6444C59.9132 34.7974 59.9694 34.9786 59.9694 35.1642C59.9694 35.3498 59.9132 35.531 59.8081 35.684C59.7031 35.837 59.5541 35.9545 59.3809 36.0211C58.9078 36.2654 58.3831 36.3928 57.8507 36.3928C57.3183 36.3928 56.7936 36.2654 56.3205 36.0211C56.1473 35.9545 55.9983 35.837 55.8933 35.684C55.7882 35.531 55.732 35.3498 55.732 35.1642C55.732 34.9786 55.7882 34.7974 55.8933 34.6444C55.9983 34.4914 56.1473 34.3739 56.3205 34.3073Z" fill="#9E4A9E"/>
<path d="M67.0013 29.8084C67.8277 30.2674 67.8277 31.0326 67.0013 31.5222C66.5361 31.7908 66.0083 31.9323 65.4711 31.9323C64.9339 31.9323 64.4061 31.7908 63.9409 31.5222C63.1145 31.0326 63.1145 30.2674 63.9409 29.8084C64.4061 29.5398 64.9339 29.3984 65.4711 29.3984C66.0083 29.3984 66.5361 29.5398 67.0013 29.8084Z" fill="#9E4A9E"/>
</svg>
