<svg width="185" height="161" viewBox="0 0 185 161" fill="none" xmlns="http://www.w3.org/2000/svg">
<path d="M5.84409 68.705V98.568L31.9591 112.313V82.45L5.84409 68.705Z" fill="white"/>
<path d="M31.9591 82.45L5.91187 68.7358L56.3128 42.2628C62.4436 39.1809 68.1679 36.0991 73.5196 33.6336C70.1324 33.8185 65.9324 33.8493 61.3936 33.6336L41.6803 32.6474L44.7287 17.0225L104.072 20.1043L127.274 32.4317L31.9591 82.45Z" fill="white"/>
<path d="M32.6704 90.3087L6.52155 76.5945L56.9564 50.0907C63.0871 47.0088 68.8114 43.927 74.1632 41.4615C70.6066 41.6464 66.542 41.6772 62.0371 41.4615L42.29 40.4753L45.3723 24.8504L104.715 27.9322L127.917 40.2596L32.6704 90.3087Z" fill="#F6CA52"/>
<path d="M127.206 31.0757L104.648 19.2106L43.6787 15.8206L40.2916 31.8769V33.7877L61.2581 34.8355H68.0324C64.0694 36.7771 59.9032 38.8727 55.6354 40.9992L5.91188 67.3798L4.62476 68.0578V99.246L30.7398 112.96L32.0269 113.638L33.2801 112.96L128.527 62.9419V31.7537L127.206 31.0757ZM30.672 110.31L6.96191 97.9825V70.7698L7.26675 70.9547L30.5365 83.2821L30.672 110.31ZM8.68935 68.8899L8.38451 68.705L56.8886 43.2181C62.9517 40.1363 68.7098 37.0544 74.0277 34.6198L79.2778 32.1543L73.3841 32.4625C69.997 32.6474 65.7969 32.6474 61.3936 32.4625L43.1707 31.7537L45.7788 18.4093L103.699 21.4912L124.733 32.5242L119.111 35.606L31.9591 81.0631L8.68935 68.8899Z" fill="#9E4A9E"/>
<path d="M56.2112 33.4179L40.3255 31.877V50.6146L67.8631 37.0237L72.097 33.9418L56.2112 33.4179Z" fill="#9E4A9E"/>
<path d="M24.9818 79.4916C25.1851 79.5524 25.3621 79.67 25.4876 79.8277C25.6131 79.9854 25.6806 80.1752 25.6806 80.3699C25.6806 80.5646 25.6131 80.7543 25.4876 80.9121C25.3621 81.0698 25.1851 81.1874 24.9818 81.2482C24.4608 81.5018 23.879 81.6345 23.2882 81.6345C22.6973 81.6345 22.1156 81.5018 21.5946 81.2482C20.6462 80.7551 20.6462 79.9847 21.5946 79.4916C22.1206 79.2528 22.7004 79.1285 23.2882 79.1285C23.876 79.1285 24.4558 79.2528 24.9818 79.4916Z" fill="#9E4A9E"/>
<path d="M31.9931 77.0261C33.2838 77.0261 34.3302 76.4742 34.3302 75.7934C34.3302 75.1125 33.2838 74.5606 31.9931 74.5606C30.7023 74.5606 29.6559 75.1125 29.6559 75.7934C29.6559 76.4742 30.7023 77.0261 31.9931 77.0261Z" fill="#9E4A9E"/>
<path d="M40.6979 72.4651C41.9886 72.4651 43.035 71.9131 43.035 71.2323C43.035 70.5515 41.9886 69.9996 40.6979 69.9996C39.4071 69.9996 38.3607 70.5515 38.3607 71.2323C38.3607 71.9131 39.4071 72.4651 40.6979 72.4651Z" fill="#9E4A9E"/>
<path d="M49.4031 67.9036C50.6939 67.9036 51.7402 67.3517 51.7402 66.6709C51.7402 65.9901 50.6939 65.4382 49.4031 65.4382C48.1123 65.4382 47.066 65.9901 47.066 66.6709C47.066 67.3517 48.1123 67.9036 49.4031 67.9036Z" fill="#9E4A9E"/>
<path d="M59.7679 61.216C59.9712 61.2768 60.1482 61.3945 60.2737 61.5522C60.3992 61.7099 60.4668 61.8997 60.4668 62.0944C60.4668 62.2891 60.3992 62.4788 60.2737 62.6365C60.1482 62.7942 59.9712 62.9119 59.7679 62.9727C59.2469 63.2263 58.6652 63.359 58.0743 63.359C57.4835 63.359 56.9018 63.2263 56.3808 62.9727C56.1775 62.9119 56.0004 62.7942 55.875 62.6365C55.7495 62.4788 55.6819 62.2891 55.6819 62.0944C55.6819 61.8997 55.7495 61.7099 55.875 61.5522C56.0004 61.3945 56.1775 61.2768 56.3808 61.216C56.9067 60.9773 57.4865 60.853 58.0743 60.853C58.6622 60.853 59.2419 60.9773 59.7679 61.216Z" fill="#9E4A9E"/>
<path d="M68.4728 56.655C68.676 56.7158 68.8531 56.8334 68.9786 56.9911C69.104 57.1488 69.1716 57.3386 69.1716 57.5333C69.1716 57.728 69.104 57.9177 68.9786 58.0755C68.8531 58.2332 68.676 58.3508 68.4728 58.4116C67.95 58.66 67.3689 58.7898 66.7792 58.7898C66.1894 58.7898 65.6084 58.66 65.0856 58.4116C64.8823 58.3508 64.7053 58.2332 64.5798 58.0755C64.4543 57.9177 64.3867 57.728 64.3867 57.5333C64.3867 57.3386 64.4543 57.1488 64.5798 56.9911C64.7053 56.8334 64.8823 56.7158 65.0856 56.655C65.6137 56.423 66.1927 56.3025 66.7792 56.3025C67.3657 56.3025 67.9446 56.423 68.4728 56.655Z" fill="#9E4A9E"/>
<path d="M77.0424 52.094C77.2456 52.1548 77.4227 52.2724 77.5482 52.4301C77.6736 52.5878 77.7412 52.7776 77.7412 52.9723C77.7412 53.167 77.6736 53.3568 77.5482 53.5145C77.4227 53.6722 77.2456 53.7898 77.0424 53.8506C76.5142 54.0826 75.9353 54.2031 75.3488 54.2031C74.7623 54.2031 74.1833 54.0826 73.6552 53.8506C73.4519 53.7898 73.2749 53.6722 73.1494 53.5145C73.0239 53.3568 72.9563 53.167 72.9563 52.9723C72.9563 52.7776 73.0239 52.5878 73.1494 52.4301C73.2749 52.2724 73.4519 52.1548 73.6552 52.094C74.178 51.8456 74.759 51.7158 75.3488 51.7158C75.9385 51.7158 76.5196 51.8456 77.0424 52.094Z" fill="#9E4A9E"/>
<path d="M85.8489 47.5328C86.0574 47.5839 86.2416 47.6962 86.3729 47.8521C86.5043 48.0081 86.5754 48.1992 86.5754 48.3957C86.5754 48.5922 86.5043 48.7832 86.3729 48.9392C86.2416 49.0952 86.0574 49.2074 85.8489 49.2586C85.3279 49.5122 84.7462 49.6448 84.1553 49.6448C83.5645 49.6448 82.9827 49.5122 82.4617 49.2586C82.2532 49.2074 82.069 49.0952 81.9377 48.9392C81.8064 48.7832 81.7352 48.5922 81.7352 48.3957C81.7352 48.1992 81.8064 48.0081 81.9377 47.8521C82.069 47.6962 82.2532 47.5839 82.4617 47.5328C82.9827 47.2792 83.5645 47.1465 84.1553 47.1465C84.7462 47.1465 85.3279 47.2792 85.8489 47.5328Z" fill="#9E4A9E"/>
<path d="M94.5537 42.9717C94.7622 43.0229 94.9464 43.1351 95.0777 43.2911C95.2091 43.4471 95.2802 43.6381 95.2802 43.8346C95.2802 44.0311 95.2091 44.2221 95.0777 44.3781C94.9464 44.5341 94.7622 44.6464 94.5537 44.6975C94.0327 44.9511 93.451 45.0838 92.8601 45.0838C92.2693 45.0838 91.6875 44.9511 91.1665 44.6975C90.958 44.6464 90.7738 44.5341 90.6425 44.3781C90.5112 44.2221 90.44 44.0311 90.44 43.8346C90.44 43.6381 90.5112 43.4471 90.6425 43.2911C90.7738 43.1351 90.958 43.0229 91.1665 42.9717C91.6875 42.7181 92.2693 42.5854 92.8601 42.5854C93.451 42.5854 94.0327 42.7181 94.5537 42.9717Z" fill="#9E4A9E"/>
<path d="M103.259 38.3799C103.462 38.4407 103.639 38.5583 103.765 38.7161C103.89 38.8738 103.958 39.0635 103.958 39.2582C103.958 39.4529 103.89 39.6426 103.765 39.8004C103.639 39.9581 103.462 40.0758 103.259 40.1365C102.738 40.3901 102.156 40.5228 101.565 40.5228C100.974 40.5228 100.393 40.3901 99.8718 40.1365C99.6685 40.0758 99.4914 39.9581 99.366 39.8004C99.2405 39.6426 99.1729 39.4529 99.1729 39.2582C99.1729 39.0635 99.2405 38.8738 99.366 38.7161C99.4914 38.5583 99.6685 38.4407 99.8718 38.3799C100.398 38.1411 100.978 38.0168 101.565 38.0168C102.153 38.0168 102.733 38.1411 103.259 38.3799Z" fill="#9E4A9E"/>
<path d="M111.964 33.8185C112.167 33.8793 112.344 33.997 112.47 34.1547C112.595 34.3124 112.663 34.5021 112.663 34.6969C112.663 34.8916 112.595 35.0813 112.47 35.239C112.344 35.3967 112.167 35.5144 111.964 35.5752C111.436 35.8072 110.857 35.9277 110.27 35.9277C109.684 35.9277 109.105 35.8072 108.577 35.5752C108.373 35.5144 108.196 35.3967 108.071 35.239C107.945 35.0813 107.878 34.8916 107.878 34.6969C107.878 34.5021 107.945 34.3124 108.071 34.1547C108.196 33.997 108.373 33.8793 108.577 33.8185C109.099 33.5701 109.68 33.4403 110.27 33.4403C110.86 33.4403 111.441 33.5701 111.964 33.8185Z" fill="#9E4A9E"/>
<path d="M16.2765 74.8995C16.4798 74.9603 16.6568 75.0779 16.7823 75.2356C16.9078 75.3934 16.9753 75.5831 16.9753 75.7778C16.9753 75.9726 16.9078 76.1623 16.7823 76.32C16.6568 76.4777 16.4798 76.5954 16.2765 76.6562C15.7505 76.8949 15.1707 77.0192 14.5829 77.0192C13.9951 77.0192 13.4153 76.8949 12.8893 76.6562C12.686 76.5954 12.509 76.4777 12.3835 76.32C12.258 76.1623 12.1904 75.9726 12.1904 75.7778C12.1904 75.5831 12.258 75.3934 12.3835 75.2356C12.509 75.0779 12.686 74.9603 12.8893 74.8995C13.4103 74.6459 13.992 74.5132 14.5829 74.5132C15.1737 74.5132 15.7555 74.6459 16.2765 74.8995Z" fill="#9E4A9E"/>
<path d="M24.9818 70.3693C25.1851 70.4301 25.3621 70.5478 25.4876 70.7055C25.6131 70.8632 25.6806 71.0529 25.6806 71.2476C25.6806 71.4423 25.6131 71.6321 25.4876 71.7898C25.3621 71.9475 25.1851 72.0652 24.9818 72.126C24.4558 72.3647 23.876 72.489 23.2882 72.489C22.7004 72.489 22.1206 72.3647 21.5946 72.126C20.6462 71.6329 20.6462 70.8624 21.5946 70.3693C22.1156 70.1157 22.6973 69.983 23.2882 69.983C23.879 69.983 24.4608 70.1157 24.9818 70.3693Z" fill="#9E4A9E"/>
<path d="M33.6865 65.8081C33.8951 65.8592 34.0792 65.9715 34.2106 66.1274C34.3419 66.2834 34.4131 66.4745 34.4131 66.671C34.4131 66.8675 34.3419 67.0585 34.2106 67.2145C34.0792 67.3705 33.8951 67.4827 33.6865 67.5339C33.1638 67.7823 32.5827 67.9121 31.993 67.9121C31.4032 67.9121 30.8221 67.7823 30.2994 67.5339C30.0909 67.4827 29.9067 67.3705 29.7753 67.2145C29.644 67.0585 29.5728 66.8675 29.5728 66.671C29.5728 66.4745 29.644 66.2834 29.7753 66.1274C29.9067 65.9715 30.0909 65.8592 30.2994 65.8081C30.8221 65.5596 31.4032 65.4299 31.993 65.4299C32.5827 65.4299 33.1638 65.5596 33.6865 65.8081Z" fill="#9E4A9E"/>
<path d="M42.3578 61.216C42.5611 61.2768 42.7382 61.3945 42.8636 61.5522C42.9891 61.7099 43.0567 61.8997 43.0567 62.0944C43.0567 62.2891 42.9891 62.4788 42.8636 62.6365C42.7382 62.7942 42.5611 62.9119 42.3578 62.9727C41.8368 63.2263 41.2551 63.359 40.6643 63.359C40.0734 63.359 39.4917 63.2263 38.9707 62.9727C38.7674 62.9119 38.5904 62.7942 38.4649 62.6365C38.3394 62.4788 38.2718 62.2891 38.2718 62.0944C38.2718 61.8997 38.3394 61.7099 38.4649 61.5522C38.5904 61.3945 38.7674 61.2768 38.9707 61.216C39.4967 60.9773 40.0764 60.853 40.6643 60.853C41.2521 60.853 41.8319 60.9773 42.3578 61.216Z" fill="#9E4A9E"/>
<path d="M49.4031 58.7815C50.6939 58.7815 51.7402 58.2296 51.7402 57.5487C51.7402 56.8679 50.6939 56.316 49.4031 56.316C48.1123 56.316 47.066 56.8679 47.066 57.5487C47.066 58.2296 48.1123 58.7815 49.4031 58.7815Z" fill="#9E4A9E"/>
<path d="M59.7679 52.0938C59.9712 52.1546 60.1482 52.2722 60.2737 52.43C60.3992 52.5877 60.4668 52.7774 60.4668 52.9721C60.4668 53.1668 60.3992 53.3566 60.2737 53.5143C60.1482 53.672 59.9712 53.7896 59.7679 53.8504C59.2419 54.0892 58.6622 54.2135 58.0743 54.2135C57.4865 54.2135 56.9067 54.0892 56.3808 53.8504C56.1775 53.7896 56.0004 53.672 55.875 53.5143C55.7495 53.3566 55.6819 53.1668 55.6819 52.9721C55.6819 52.7774 55.7495 52.5877 55.875 52.43C56.0004 52.2722 56.1775 52.1546 56.3808 52.0938C56.9018 51.8402 57.4835 51.7076 58.0743 51.7076C58.6652 51.7076 59.2469 51.8402 59.7679 52.0938Z" fill="#9E4A9E"/>
<path d="M68.4727 47.5329C68.6813 47.5841 68.8654 47.6963 68.9968 47.8523C69.1281 48.0083 69.1993 48.1994 69.1993 48.3959C69.1993 48.5924 69.1281 48.7834 68.9968 48.9394C68.8654 49.0954 68.6813 49.2076 68.4727 49.2588C67.95 49.5072 67.3689 49.637 66.7792 49.637C66.1894 49.637 65.6083 49.5072 65.0856 49.2588C64.8771 49.2076 64.6929 49.0954 64.5615 48.9394C64.4302 48.7834 64.359 48.5924 64.359 48.3959C64.359 48.1994 64.4302 48.0083 64.5615 47.8523C64.6929 47.6963 64.8771 47.5841 65.0856 47.5329C65.6083 47.2845 66.1894 47.1548 66.7792 47.1548C67.3689 47.1548 67.95 47.2845 68.4727 47.5329Z" fill="#9E4A9E"/>
<path d="M77.0423 42.9719C77.2508 43.023 77.435 43.1353 77.5664 43.2913C77.6977 43.4473 77.7689 43.6383 77.7689 43.8348C77.7689 44.0313 77.6977 44.2223 77.5664 44.3783C77.435 44.5343 77.2508 44.6466 77.0423 44.6977C76.5196 44.9461 75.9385 45.0759 75.3487 45.0759C74.759 45.0759 74.1779 44.9461 73.6552 44.6977C73.4466 44.6466 73.2625 44.5343 73.1311 44.3783C72.9998 44.2223 72.9286 44.0313 72.9286 43.8348C72.9286 43.6383 72.9998 43.4473 73.1311 43.2913C73.2625 43.1353 73.4466 43.023 73.6552 42.9719C74.1779 42.7235 74.759 42.5937 75.3487 42.5937C75.9385 42.5937 76.5196 42.7235 77.0423 42.9719Z" fill="#9E4A9E"/>
<path d="M85.8489 38.3799C86.0522 38.4407 86.2292 38.5583 86.3547 38.7161C86.4802 38.8738 86.5477 39.0635 86.5477 39.2582C86.5477 39.4529 86.4802 39.6426 86.3547 39.8004C86.2292 39.9581 86.0522 40.0758 85.8489 40.1365C85.3279 40.3901 84.7461 40.5228 84.1553 40.5228C83.5644 40.5228 82.9827 40.3901 82.4617 40.1365C82.2584 40.0758 82.0814 39.9581 81.9559 39.8004C81.8304 39.6426 81.7629 39.4529 81.7629 39.2582C81.7629 39.0635 81.8304 38.8738 81.9559 38.7161C82.0814 38.5583 82.2584 38.4407 82.4617 38.3799C82.9877 38.1411 83.5675 38.0168 84.1553 38.0168C84.7431 38.0168 85.3229 38.1411 85.8489 38.3799Z" fill="#9E4A9E"/>
<path d="M94.5537 33.8187C94.757 33.8795 94.934 33.9972 95.0595 34.1549C95.185 34.3126 95.2526 34.5023 95.2526 34.6971C95.2526 34.8918 95.185 35.0815 95.0595 35.2392C94.934 35.3969 94.757 35.5146 94.5537 35.5754C94.0277 35.8142 93.4479 35.9384 92.8601 35.9384C92.2723 35.9384 91.6925 35.8142 91.1665 35.5754C90.9632 35.5146 90.7862 35.3969 90.6607 35.2392C90.5352 35.0815 90.4677 34.8918 90.4677 34.6971C90.4677 34.5023 90.5352 34.3126 90.6607 34.1549C90.7862 33.9972 90.9632 33.8795 91.1665 33.8187C91.6875 33.5651 92.2693 33.4325 92.8601 33.4325C93.451 33.4325 94.0327 33.5651 94.5537 33.8187Z" fill="#9E4A9E"/>
<path d="M101.599 31.3534C102.89 31.3534 103.937 30.8015 103.937 30.1206C103.937 29.4398 102.89 28.8879 101.599 28.8879C100.309 28.8879 99.2622 29.4398 99.2622 30.1206C99.2622 30.8015 100.309 31.3534 101.599 31.3534Z" fill="#9E4A9E"/>
<path d="M68.371 38.3489C69.3194 38.8112 69.3194 39.6125 68.371 40.0748C67.85 40.3283 67.2683 40.461 66.6774 40.461C66.0866 40.461 65.5048 40.3283 64.9838 40.0748C64.7753 40.0236 64.5911 39.9113 64.4598 39.7554C64.3285 39.5994 64.2573 39.4083 64.2573 39.2118C64.2573 39.0153 64.3285 38.8243 64.4598 38.6683C64.5911 38.5123 64.7753 38.4001 64.9838 38.3489C65.5048 38.0953 66.0866 37.9627 66.6774 37.9627C67.2683 37.9627 67.85 38.0953 68.371 38.3489Z" fill="#9E4A9E"/>
<path d="M77.0423 33.7879C77.2508 33.839 77.435 33.9513 77.5664 34.1073C77.6977 34.2632 77.7689 34.4543 77.7689 34.6508C77.7689 34.8473 77.6977 35.0383 77.5664 35.1943C77.435 35.3503 77.2508 35.4625 77.0423 35.5137C76.5213 35.7673 75.9396 35.8999 75.3487 35.8999C74.7579 35.8999 74.1762 35.7673 73.6552 35.5137C73.4466 35.4625 73.2625 35.3503 73.1311 35.1943C72.9998 35.0383 72.9286 34.8473 72.9286 34.6508C72.9286 34.4543 72.9998 34.2632 73.1311 34.1073C73.2625 33.9513 73.4466 33.839 73.6552 33.7879C74.1762 33.5343 74.7579 33.4016 75.3487 33.4016C75.9396 33.4016 76.5213 33.5343 77.0423 33.7879Z" fill="#9E4A9E"/>
<path d="M85.7811 29.196C85.9844 29.2568 86.1614 29.3745 86.2869 29.5322C86.4124 29.6899 86.4799 29.8797 86.4799 30.0744C86.4799 30.2691 86.4124 30.4588 86.2869 30.6165C86.1614 30.7742 85.9844 30.8919 85.7811 30.9527C85.2601 31.2063 84.6784 31.339 84.0875 31.339C83.4967 31.339 82.9149 31.2063 82.3939 30.9527C82.1906 30.8919 82.0136 30.7742 81.8881 30.6165C81.7626 30.4588 81.6951 30.2691 81.6951 30.0744C81.6951 29.8797 81.7626 29.6899 81.8881 29.5322C82.0136 29.3745 82.1906 29.2568 82.3939 29.196C82.9199 28.9573 83.4997 28.833 84.0875 28.833C84.6753 28.833 85.2551 28.9573 85.7811 29.196Z" fill="#9E4A9E"/>
<path d="M59.7001 33.788C59.9086 33.8392 60.0928 33.9515 60.2241 34.1074C60.3555 34.2634 60.4266 34.4545 60.4266 34.651C60.4266 34.8475 60.3555 35.0385 60.2241 35.1945C60.0928 35.3505 59.9086 35.4627 59.7001 35.5139C59.1773 35.7623 58.5963 35.892 58.0065 35.892C57.4167 35.892 56.8357 35.7623 56.3129 35.5139C56.1044 35.4627 55.9202 35.3505 55.7889 35.1945C55.6576 35.0385 55.5864 34.8475 55.5864 34.651C55.5864 34.4545 55.6576 34.2634 55.7889 34.1074C55.9202 33.9515 56.1044 33.8392 56.3129 33.788C56.8357 33.5396 57.4167 33.4099 58.0065 33.4099C58.5963 33.4099 59.1773 33.5396 59.7001 33.788Z" fill="#9E4A9E"/>
<path d="M68.3711 29.196C69.3195 29.6891 69.3195 30.4596 68.3711 30.9527C67.8501 31.2063 67.2683 31.339 66.6775 31.339C66.0866 31.339 65.5049 31.2063 64.9839 30.9527C64.7806 30.8919 64.6036 30.7742 64.4781 30.6165C64.3526 30.4588 64.285 30.2691 64.285 30.0744C64.285 29.8797 64.3526 29.6899 64.4781 29.5322C64.6036 29.3745 64.7806 29.2568 64.9839 29.196C65.5099 28.9573 66.0897 28.833 66.6775 28.833C67.2653 28.833 67.8451 28.9573 68.3711 29.196Z" fill="#9E4A9E"/>
<path d="M49.3353 31.3226C50.6261 31.3226 51.6725 30.7707 51.6725 30.0899C51.6725 29.409 50.6261 28.8571 49.3353 28.8571C48.0446 28.8571 46.9982 29.409 46.9982 30.0899C46.9982 30.7707 48.0446 31.3226 49.3353 31.3226Z" fill="#9E4A9E"/>
<path d="M64.3395 106.13L64.4446 73.8039L95.5886 91.7918L95.5097 124.117L64.3395 106.13Z" fill="white"/>
<path d="M96.5075 125.877L63.2365 106.734V73.2526L64.2606 72.6486L96.4287 91.2405L96.5075 125.877ZM65.3635 105.552L94.5118 122.384V92.3697L65.3635 75.5372V105.552Z" fill="#9E4A9E"/>
<path d="M101.313 112.563L101.234 144.889L80.3841 132.862L80.4629 100.536L101.313 112.563Z" fill="white"/>
<path d="M133.218 95.3106V125.299L178.438 99.197V69.1822L133.218 95.3106ZM131.091 128.818V94.1289L179.357 66.2674L180.355 66.8714V100.352L131.091 128.818Z" fill="#9E4A9E"/>
<path d="M179.462 67.4493L179.357 99.7749L132.116 127.059L132.221 94.7068L179.462 67.4493Z" fill="#9E4A9E"/>
<path d="M116.439 103.819L125.052 108.782L124.947 141.134L116.36 136.171L116.439 103.819Z" fill="white"/>
<path d="M146.637 63.7992C126.312 66.2413 95.4045 69.7601 93.7238 69.7339H92.6472V76.6402L103.781 88.6671H126.548L149.316 63.5366L146.637 63.7992Z" fill="white"/>
<path d="M125.052 108.782L116.438 103.819L101.313 112.563L80.4627 100.51L95.5883 91.7919L64.4443 73.804L79.9375 64.8495L159.951 56.1838L179.462 67.3441L132.194 94.6017L140.781 99.591L125.052 108.782ZM111.37 82.6798L120.456 77.4278C122.163 76.4562 124.526 75.1433 127.573 73.5414C130.619 71.9396 132.221 71.1255 132.431 71.073L131.827 70.7316C127.888 71.6245 123.949 72.3072 120.036 72.8061L98.4768 75.2483L111.37 82.6798Z" fill="white"/>
<path d="M136.974 97.464L132.221 94.8381L174.709 70.3115L159.951 61.8034L79.9378 70.4691L65.3636 78.8984V79.9488L95.5886 97.4115L80.463 106.156L101.313 118.183L116.439 109.36L125.052 114.349L140.808 105.237L132.221 100.274L136.974 97.464ZM120.456 82.9424L111.371 88.1944L98.4771 80.7366L120.036 78.2945C123.949 77.8218 127.914 77.1128 131.827 76.2462L132.431 76.5876C132.221 76.5876 130.593 77.4541 127.573 79.056C124.553 80.6578 122.163 81.9446 120.456 82.9424Z" fill="#F6CA52"/>
<path d="M121.008 78.3207C122.715 77.3228 125.078 76.0361 128.098 74.4343C131.853 72.4385 132.614 72.0972 132.667 72.0709L135.293 71.572L131.984 69.6813H131.59C127.678 70.5478 123.712 71.2569 119.878 71.7295L95.2994 74.5131L111.344 83.7827L121.008 78.3207ZM120.194 73.804C122.426 73.5414 124.658 73.2001 126.916 72.7799C123.975 74.3292 121.664 75.5897 120.01 76.5613L111.423 81.5244L101.707 75.9048L120.194 73.804Z" fill="#9E4A9E"/>
<path d="M180.46 66.8714L160.161 55.1333L79.8328 63.8515L63.4205 73.2262V74.3817L93.5666 91.7918L79.4651 99.9323V133.44L101.339 146.071L116.465 137.326L125.052 142.289L141.832 132.599V99.1183L134.138 94.7066L180.355 68.0268L180.46 66.8714ZM100.21 143.156L81.3821 132.284V102.269L96.0087 110.725L100.21 113.141V143.156ZM123.844 139.374L117.358 135.619V105.604L123.187 108.939L123.949 109.386L123.844 139.374ZM130.094 94.7329L138.681 99.7223L133.98 102.348L124.947 107.6L124.684 107.443L116.334 102.637L101.208 111.355L99.2387 110.226L82.3799 100.484L97.5055 91.7656L66.3615 73.7777L80.1479 65.8998L159.636 57.2866L177.335 67.5279L130.094 94.7329Z" fill="#9E4A9E"/>
<path d="M141.832 121.439L139.81 122.489V100.484L141.832 99.4071V121.439Z" fill="white"/>
<path d="M67.3594 78.8721C68.0684 79.2922 68.0684 79.9487 67.3594 80.3426C66.9602 80.5731 66.5073 80.6944 66.0464 80.6944C65.5854 80.6944 65.1326 80.5731 64.7334 80.3426C64.0244 79.9487 64.0244 79.2922 64.7334 78.8721C65.14 78.6646 65.5899 78.5564 66.0464 78.5564C66.5028 78.5564 66.9528 78.6646 67.3594 78.8721Z" fill="#9E4A9E"/>
<path d="M72.7686 76.7977C73.7693 76.7977 74.5805 76.3275 74.5805 75.7473C74.5805 75.1672 73.7693 74.697 72.7686 74.697C71.7679 74.697 70.9567 75.1672 70.9567 75.7473C70.9567 76.3275 71.7679 76.7977 72.7686 76.7977Z" fill="#9E4A9E"/>
<path d="M80.7255 71.1519C81.4345 71.572 81.4345 72.2285 80.7255 72.6224C80.3263 72.8529 79.8734 72.9742 79.4125 72.9742C78.9515 72.9742 78.4987 72.8529 78.0995 72.6224C77.3905 72.2285 77.3905 71.572 78.0995 71.1519C78.5061 70.9444 78.956 70.8362 79.4125 70.8362C79.8689 70.8362 80.3189 70.9444 80.7255 71.1519Z" fill="#9E4A9E"/>
<path d="M127.625 105.736C128.334 106.13 128.334 106.786 127.625 107.206C127.219 107.414 126.769 107.522 126.312 107.522C125.856 107.522 125.406 107.414 124.999 107.206C124.29 106.786 124.29 106.13 124.999 105.736C125.398 105.505 125.851 105.384 126.312 105.384C126.773 105.384 127.226 105.505 127.625 105.736Z" fill="#9E4A9E"/>
<path d="M134.322 101.876C135.031 102.269 135.031 102.926 134.322 103.346C133.915 103.554 133.465 103.662 133.009 103.662C132.552 103.662 132.102 103.554 131.696 103.346C130.987 102.926 130.987 102.269 131.696 101.876C132.095 101.645 132.548 101.524 133.009 101.524C133.47 101.524 133.922 101.645 134.322 101.876Z" fill="#9E4A9E"/>
<path d="M121.008 101.876C121.717 102.269 121.717 102.926 121.008 103.346C120.601 103.554 120.151 103.662 119.695 103.662C119.238 103.662 118.788 103.554 118.382 103.346C117.673 102.926 117.673 102.269 118.382 101.876C118.781 101.645 119.234 101.524 119.695 101.524C120.156 101.524 120.609 101.645 121.008 101.876Z" fill="#9E4A9E"/>
<path d="M127.625 98.0154C127.787 98.059 127.93 98.1546 128.032 98.2876C128.133 98.4205 128.189 98.5832 128.189 98.7507C128.189 98.9181 128.133 99.0809 128.032 99.2138C127.93 99.3467 127.787 99.4423 127.625 99.4859C127.226 99.7164 126.773 99.8378 126.312 99.8378C125.851 99.8378 125.399 99.7164 124.999 99.4859C124.838 99.4423 124.695 99.3467 124.593 99.2138C124.491 99.0809 124.436 98.9181 124.436 98.7507C124.436 98.5832 124.491 98.4205 124.593 98.2876C124.695 98.1546 124.838 98.059 124.999 98.0154C125.399 97.7849 125.851 97.6636 126.312 97.6636C126.773 97.6636 127.226 97.7849 127.625 98.0154Z" fill="#9E4A9E"/>
<path d="M94.2228 109.57C94.3804 109.622 94.5176 109.722 94.6149 109.856C94.7122 109.991 94.7646 110.152 94.7646 110.318C94.7646 110.484 94.7122 110.646 94.6149 110.78C94.5176 110.915 94.3804 111.015 94.2228 111.067C93.8162 111.274 93.3662 111.382 92.9098 111.382C92.4533 111.382 92.0034 111.274 91.5968 111.067C91.4392 111.015 91.3019 110.915 91.2047 110.78C91.1074 110.646 91.055 110.484 91.055 110.318C91.055 110.152 91.1074 109.991 91.2047 109.856C91.3019 109.722 91.4392 109.622 91.5968 109.57C92.0034 109.362 92.4533 109.254 92.9098 109.254C93.3662 109.254 93.8162 109.362 94.2228 109.57Z" fill="#9E4A9E"/>
<path d="M99.6325 107.521C100.633 107.521 101.444 107.051 101.444 106.471C101.444 105.891 100.633 105.421 99.6325 105.421C98.6318 105.421 97.8206 105.891 97.8206 106.471C97.8206 107.051 98.6318 107.521 99.6325 107.521Z" fill="#9E4A9E"/>
<path d="M107.589 101.876C108.298 102.269 108.298 102.926 107.589 103.346C107.183 103.554 106.733 103.662 106.276 103.662C105.82 103.662 105.37 103.554 104.963 103.346C104.254 102.926 104.254 102.269 104.963 101.876C105.362 101.645 105.815 101.524 106.276 101.524C106.737 101.524 107.19 101.645 107.589 101.876Z" fill="#9E4A9E"/>
<path d="M114.259 98.0154C114.421 98.059 114.563 98.1546 114.665 98.2876C114.767 98.4205 114.822 98.5832 114.822 98.7507C114.822 98.9181 114.767 99.0809 114.665 99.2138C114.563 99.3467 114.421 99.4423 114.259 99.4859C113.86 99.7164 113.407 99.8378 112.946 99.8378C112.485 99.8378 112.032 99.7164 111.633 99.4859C111.471 99.4423 111.328 99.3467 111.227 99.2138C111.125 99.0809 111.07 98.9181 111.07 98.7507C111.07 98.5832 111.125 98.4205 111.227 98.2876C111.328 98.1546 111.471 98.059 111.633 98.0154C112.032 97.7849 112.485 97.6636 112.946 97.6636C113.407 97.6636 113.86 97.7849 114.259 98.0154Z" fill="#9E4A9E"/>
<path d="M119.669 95.9408C120.669 95.9408 121.481 95.4705 121.481 94.8904C121.481 94.3103 120.669 93.84 119.669 93.84C118.668 93.84 117.857 94.3103 117.857 94.8904C117.857 95.4705 118.668 95.9408 119.669 95.9408Z" fill="#9E4A9E"/>
<path d="M87.5529 105.736C88.2619 106.13 88.2619 106.786 87.5529 107.206C87.1451 107.41 86.6957 107.516 86.2399 107.516C85.7842 107.516 85.3347 107.41 84.927 107.206C84.2179 106.786 84.2179 106.13 84.927 105.736C85.3309 105.52 85.7819 105.407 86.2399 105.407C86.698 105.407 87.149 105.52 87.5529 105.736Z" fill="#9E4A9E"/>
<path d="M94.223 101.876C94.932 102.269 94.932 102.926 94.223 103.346C93.8164 103.554 93.3664 103.662 92.91 103.662C92.4535 103.662 92.0036 103.554 91.597 103.346C90.888 102.926 90.888 102.269 91.597 101.876C91.9962 101.645 92.449 101.524 92.91 101.524C93.3709 101.524 93.8238 101.645 94.223 101.876Z" fill="#9E4A9E"/>
<path d="M100.919 98.0155C101.068 98.0727 101.196 98.1735 101.286 98.3048C101.376 98.436 101.424 98.5915 101.424 98.7508C101.424 98.91 101.376 99.0655 101.286 99.1968C101.196 99.328 101.068 99.4289 100.919 99.486C100.515 99.7021 100.064 99.8152 99.6061 99.8152C99.1481 99.8152 98.6971 99.7021 98.2931 99.486C98.1315 99.4424 97.9887 99.3468 97.8868 99.2139C97.785 99.081 97.7299 98.9182 97.7299 98.7508C97.7299 98.5833 97.785 98.4206 97.8868 98.2876C97.9887 98.1547 98.1315 98.0591 98.2931 98.0155C98.6971 97.7994 99.1481 97.6864 99.6061 97.6864C100.064 97.6864 100.515 97.7994 100.919 98.0155Z" fill="#9E4A9E"/>
<path d="M107.589 94.1553C108.298 94.5755 108.298 95.2319 107.589 95.6258C107.19 95.8563 106.737 95.9777 106.276 95.9777C105.815 95.9777 105.362 95.8563 104.963 95.6258C104.254 95.2319 104.254 94.5755 104.963 94.1553C105.362 93.9248 105.815 93.8035 106.276 93.8035C106.737 93.8035 107.19 93.9248 107.589 94.1553Z" fill="#9E4A9E"/>
<path d="M114.259 90.295C114.968 90.7151 114.968 91.3716 114.259 91.7655C113.86 91.996 113.407 92.1173 112.946 92.1173C112.485 92.1173 112.032 91.996 111.633 91.7655C110.924 91.3716 110.924 90.7151 111.633 90.295C112.04 90.0875 112.49 89.9793 112.946 89.9793C113.403 89.9793 113.853 90.0875 114.259 90.295Z" fill="#9E4A9E"/>
<path d="M94.1705 94.1028C94.3281 94.1546 94.4654 94.2549 94.5627 94.3893C94.66 94.5236 94.7123 94.6853 94.7123 94.8512C94.7123 95.0171 94.66 95.1788 94.5627 95.3132C94.4654 95.4476 94.3281 95.5478 94.1705 95.5996C93.7639 95.8071 93.314 95.9153 92.8575 95.9153C92.4011 95.9153 91.9511 95.8071 91.5445 95.5996C91.3869 95.5478 91.2497 95.4476 91.1524 95.3132C91.0551 95.1788 91.0027 95.0171 91.0027 94.8512C91.0027 94.6853 91.0551 94.5236 91.1524 94.3893C91.2497 94.2549 91.3869 94.1546 91.5445 94.1028C91.9511 93.8953 92.4011 93.7872 92.8575 93.7872C93.314 93.7872 93.7639 93.8953 94.1705 94.1028Z" fill="#9E4A9E"/>
<path d="M100.84 90.269C101.549 90.6628 101.549 91.3193 100.84 91.7395C100.434 91.947 99.984 92.0551 99.5275 92.0551C99.071 92.0551 98.6211 91.947 98.2145 91.7395C97.5055 91.3193 97.5055 90.6628 98.2145 90.269C98.6137 90.0385 99.0665 89.9171 99.5275 89.9171C99.9885 89.9171 100.441 90.0385 100.84 90.269Z" fill="#9E4A9E"/>
<path d="M107.536 86.4085C108.246 86.8024 108.246 87.4589 107.536 87.8791C107.13 88.0866 106.68 88.1947 106.224 88.1947C105.767 88.1947 105.317 88.0866 104.911 87.8791C104.202 87.4589 104.202 86.8024 104.911 86.4085C105.31 86.1781 105.763 86.0567 106.224 86.0567C106.684 86.0567 107.137 86.1781 107.536 86.4085Z" fill="#9E4A9E"/>
<path d="M87.474 90.269C88.1831 90.6628 88.1831 91.3193 87.474 91.7395C87.0675 91.947 86.6175 92.0551 86.1611 92.0551C85.7046 92.0551 85.2546 91.947 84.8481 91.7395C84.1391 91.3193 84.1391 90.6628 84.8481 90.269C85.2473 90.0385 85.7001 89.9171 86.1611 89.9171C86.622 89.9171 87.0748 90.0385 87.474 90.269Z" fill="#9E4A9E"/>
<path d="M94.1704 86.4085C94.8794 86.8024 94.8794 87.4589 94.1704 87.8791C93.7638 88.0866 93.3139 88.1947 92.8574 88.1947C92.401 88.1947 91.951 88.0866 91.5444 87.8791C90.8354 87.4589 90.8354 86.8024 91.5444 86.4085C91.9436 86.1781 92.3965 86.0567 92.8574 86.0567C93.3184 86.0567 93.7712 86.1781 94.1704 86.4085Z" fill="#9E4A9E"/>
<path d="M100.84 82.5484C101.002 82.592 101.145 82.6877 101.247 82.8206C101.348 82.9535 101.404 83.1163 101.404 83.2837C101.404 83.4511 101.348 83.6139 101.247 83.7468C101.145 83.8797 101.002 83.9754 100.84 84.019C100.441 84.2494 99.9882 84.3708 99.5273 84.3708C99.0663 84.3708 98.6135 84.2494 98.2143 84.019C98.0526 83.9754 97.9098 83.8797 97.808 83.7468C97.7062 83.6139 97.651 83.4511 97.651 83.2837C97.651 83.1163 97.7062 82.9535 97.808 82.8206C97.9098 82.6877 98.0526 82.592 98.2143 82.5484C98.6135 82.3179 99.0663 82.1966 99.5273 82.1966C99.9882 82.1966 100.441 82.3179 100.84 82.5484Z" fill="#9E4A9E"/>
<path d="M79.5175 88.1944C80.5182 88.1944 81.3294 87.7241 81.3294 87.144C81.3294 86.5639 80.5182 86.0936 79.5175 86.0936C78.5168 86.0936 77.7056 86.5639 77.7056 87.144C77.7056 87.7241 78.5168 88.1944 79.5175 88.1944Z" fill="#9E4A9E"/>
<path d="M87.4741 82.5484C87.6358 82.592 87.7786 82.6877 87.8804 82.8206C87.9823 82.9535 88.0374 83.1163 88.0374 83.2837C88.0374 83.4511 87.9823 83.6139 87.8804 83.7468C87.7786 83.8797 87.6358 83.9754 87.4741 84.019C87.0749 84.2494 86.6221 84.3708 86.1612 84.3708C85.7002 84.3708 85.2474 84.2494 84.8482 84.019C84.6865 83.9754 84.5437 83.8797 84.4419 83.7468C84.3401 83.6139 84.2849 83.4511 84.2849 83.2837C84.2849 83.1163 84.3401 82.9535 84.4419 82.8206C84.5437 82.6877 84.6865 82.592 84.8482 82.5484C85.2474 82.3179 85.7002 82.1966 86.1612 82.1966C86.6221 82.1966 87.0749 82.3179 87.4741 82.5484Z" fill="#9E4A9E"/>
<path d="M92.8835 80.4738C93.8842 80.4738 94.6954 80.0036 94.6954 79.4234C94.6954 78.8433 93.8842 78.3731 92.8835 78.3731C91.8828 78.3731 91.0716 78.8433 91.0716 79.4234C91.0716 80.0036 91.8828 80.4738 92.8835 80.4738Z" fill="#9E4A9E"/>
<path d="M74.1343 82.5485C74.283 82.6057 74.4108 82.7065 74.5009 82.8378C74.5911 82.969 74.6393 83.1245 74.6393 83.2838C74.6393 83.443 74.5911 83.5985 74.5009 83.7298C74.4108 83.861 74.283 83.9619 74.1343 84.019C73.7304 84.2351 73.2794 84.3482 72.8213 84.3482C72.3633 84.3482 71.9123 84.2351 71.5084 84.019C71.3467 83.9755 71.2039 83.8798 71.1021 83.7469C71.0003 83.614 70.9451 83.4512 70.9451 83.2838C70.9451 83.1163 71.0003 82.9536 71.1021 82.8207C71.2039 82.6877 71.3467 82.5921 71.5084 82.5485C71.9123 82.3324 72.3633 82.2194 72.8213 82.2194C73.2794 82.2194 73.7304 82.3324 74.1343 82.5485Z" fill="#9E4A9E"/>
<path d="M80.8043 78.6884C81.5133 79.1085 81.5133 79.765 80.8043 80.1589C80.4051 80.3894 79.9523 80.5107 79.4913 80.5107C79.0304 80.5107 78.5775 80.3894 78.1783 80.1589C77.4693 79.765 77.4693 79.1085 78.1783 78.6884C78.5849 78.4809 79.0349 78.3727 79.4913 78.3727C79.9478 78.3727 80.3977 78.4809 80.8043 78.6884Z" fill="#9E4A9E"/>
<path d="M87.474 74.828C88.1831 75.2481 88.1831 75.9046 87.474 76.2985C87.0748 76.529 86.622 76.6503 86.1611 76.6503C85.7001 76.6503 85.2473 76.529 84.8481 76.2985C84.1391 75.9046 84.1391 75.2481 84.8481 74.828C85.2546 74.6205 85.7046 74.5123 86.1611 74.5123C86.6175 74.5123 87.0675 74.6205 87.474 74.828Z" fill="#9E4A9E"/>
<path d="M125.104 90.3476C125.511 90.1401 125.961 90.0319 126.417 90.0319C126.874 90.0319 127.324 90.1401 127.73 90.3476C128.439 90.7677 128.439 91.4242 127.73 91.8181C127.331 92.0486 126.878 92.1699 126.417 92.1699C125.956 92.1699 125.504 92.0486 125.104 91.8181C124.395 91.4242 124.395 90.7677 125.104 90.3476Z" fill="#9E4A9E"/>
<path d="M133.061 88.2732C134.062 88.2732 134.873 87.8029 134.873 87.2228C134.873 86.6427 134.062 86.1724 133.061 86.1724C132.06 86.1724 131.249 86.6427 131.249 87.2228C131.249 87.8029 132.06 88.2732 133.061 88.2732Z" fill="#9E4A9E"/>
<path d="M141.018 82.6273C141.727 83.0475 141.727 83.704 141.018 84.0979C140.618 84.3283 140.166 84.4497 139.705 84.4497C139.244 84.4497 138.791 84.3283 138.392 84.0979C137.683 83.704 137.683 83.0475 138.392 82.6273C138.798 82.4199 139.248 82.3117 139.705 82.3117C140.161 82.3117 140.611 82.4199 141.018 82.6273Z" fill="#9E4A9E"/>
<path d="M147.714 78.767C147.86 78.8297 147.985 78.9341 148.073 79.0671C148.161 79.2002 148.208 79.3561 148.208 79.5154C148.208 79.6748 148.161 79.8307 148.073 79.9637C147.985 80.0968 147.86 80.2011 147.714 80.2638C147.306 80.4673 146.856 80.5732 146.401 80.5732C145.945 80.5732 145.496 80.4673 145.088 80.2638C144.93 80.212 144.793 80.1118 144.696 79.9774C144.598 79.843 144.546 79.6813 144.546 79.5154C144.546 79.3495 144.598 79.1879 144.696 79.0535C144.793 78.9191 144.93 78.8188 145.088 78.767C145.496 78.5636 145.945 78.4577 146.401 78.4577C146.856 78.4577 147.306 78.5636 147.714 78.767Z" fill="#9E4A9E"/>
<path d="M153.097 76.7189C154.098 76.7189 154.909 76.2486 154.909 75.6685C154.909 75.0884 154.098 74.6181 153.097 74.6181C152.096 74.6181 151.285 75.0884 151.285 75.6685C151.285 76.2486 152.096 76.7189 153.097 76.7189Z" fill="#9E4A9E"/>
<path d="M161.054 71.073C161.763 71.4669 161.763 72.1234 161.054 72.5435C160.647 72.751 160.197 72.8592 159.741 72.8592C159.284 72.8592 158.834 72.751 158.428 72.5435C157.719 72.1234 157.719 71.4669 158.428 71.073C158.827 70.8425 159.28 70.7212 159.741 70.7212C160.202 70.7212 160.655 70.8425 161.054 71.073Z" fill="#9E4A9E"/>
<path d="M167.75 67.344C167.912 67.3876 168.054 67.4832 168.156 67.6161C168.258 67.749 168.313 67.9118 168.313 68.0792C168.313 68.2467 168.258 68.4094 168.156 68.5424C168.054 68.6753 167.912 68.7709 167.75 68.8145C167.351 69.045 166.898 69.1663 166.437 69.1663C165.976 69.1663 165.523 69.045 165.124 68.8145C164.962 68.7709 164.819 68.6753 164.718 68.5424C164.616 68.4094 164.561 68.2467 164.561 68.0792C164.561 67.9118 164.616 67.749 164.718 67.6161C164.819 67.4832 164.962 67.3876 165.124 67.344C165.523 67.1135 165.976 66.9922 166.437 66.9922C166.898 66.9922 167.351 67.1135 167.75 67.344Z" fill="#9E4A9E"/>
<path d="M118.382 86.4875C118.788 86.28 119.238 86.1718 119.695 86.1718C120.151 86.1718 120.601 86.28 121.008 86.4875C121.717 86.9076 121.717 87.5641 121.008 87.958C120.602 88.1675 120.152 88.2769 119.695 88.2769C119.238 88.2769 118.788 88.1675 118.382 87.958C118.233 87.9008 118.105 87.8 118.015 87.6687C117.925 87.5375 117.877 87.382 117.877 87.2227C117.877 87.0635 117.925 86.908 118.015 86.7767C118.105 86.6455 118.233 86.5446 118.382 86.4875Z" fill="#9E4A9E"/>
<path d="M127.652 82.6273C128.361 83.0475 128.361 83.704 127.652 84.0979C127.252 84.3283 126.799 84.4497 126.339 84.4497C125.878 84.4497 125.425 84.3283 125.026 84.0979C124.317 83.704 124.317 83.0475 125.026 82.6273C125.432 82.4199 125.882 82.3117 126.339 82.3117C126.795 82.3117 127.245 82.4199 127.652 82.6273Z" fill="#9E4A9E"/>
<path d="M134.348 78.767C134.505 78.8188 134.642 78.9191 134.74 79.0535C134.837 79.1879 134.889 79.3495 134.889 79.5154C134.889 79.6813 134.837 79.843 134.74 79.9774C134.642 80.1118 134.505 80.212 134.348 80.2638C133.94 80.4673 133.49 80.5732 133.035 80.5732C132.579 80.5732 132.129 80.4673 131.722 80.2638C131.564 80.212 131.427 80.1118 131.33 79.9774C131.232 79.843 131.18 79.6813 131.18 79.5154C131.18 79.3495 131.232 79.1879 131.33 79.0535C131.427 78.9191 131.564 78.8188 131.722 78.767C132.129 78.5636 132.579 78.4577 133.035 78.4577C133.49 78.4577 133.94 78.5636 134.348 78.767Z" fill="#9E4A9E"/>
<path d="M139.731 76.7189C140.731 76.7189 141.543 76.2486 141.543 75.6685C141.543 75.0884 140.731 74.6181 139.731 74.6181C138.73 74.6181 137.919 75.0884 137.919 75.6685C137.919 76.2486 138.73 76.7189 139.731 76.7189Z" fill="#9E4A9E"/>
<path d="M147.714 71.073C147.863 71.1302 147.99 71.2311 148.08 71.3623C148.171 71.4936 148.219 71.6491 148.219 71.8083C148.219 71.9675 148.171 72.123 148.08 72.2543C147.99 72.3855 147.863 72.4864 147.714 72.5436C147.306 72.747 146.857 72.8529 146.401 72.8529C145.945 72.8529 145.496 72.747 145.088 72.5436C144.379 72.1234 144.379 71.4669 145.088 71.073C145.492 70.857 145.943 70.7439 146.401 70.7439C146.859 70.7439 147.31 70.857 147.714 71.073Z" fill="#9E4A9E"/>
<path d="M153.097 68.9984C154.098 68.9984 154.909 68.5281 154.909 67.948C154.909 67.3679 154.098 66.8976 153.097 66.8976C152.096 66.8976 151.285 67.3679 151.285 67.948C151.285 68.5281 152.096 68.9984 153.097 68.9984Z" fill="#9E4A9E"/>
<path d="M158.507 63.3525C158.913 63.1451 159.363 63.0369 159.82 63.0369C160.276 63.0369 160.726 63.1451 161.133 63.3525C161.842 63.7727 161.842 64.4292 161.133 64.8231C160.733 65.0535 160.281 65.1749 159.82 65.1749C159.359 65.1749 158.906 65.0535 158.507 64.8231C157.798 64.4292 157.798 63.7727 158.507 63.3525Z" fill="#9E4A9E"/>
<path d="M111.659 82.601C112.063 82.385 112.514 82.2719 112.972 82.2719C113.43 82.2719 113.881 82.385 114.285 82.601C114.994 82.9949 114.994 83.6515 114.285 84.0716C113.886 84.3021 113.433 84.4234 112.972 84.4234C112.511 84.4234 112.058 84.3021 111.659 84.0716C111.511 84.0144 111.383 83.9136 111.293 83.7823C111.203 83.651 111.154 83.4955 111.154 83.3363C111.154 83.1771 111.203 83.0216 111.293 82.8903C111.383 82.7591 111.511 82.6582 111.659 82.601Z" fill="#9E4A9E"/>
<path d="M119.642 80.5264C120.643 80.5264 121.454 80.0561 121.454 79.476C121.454 78.8959 120.643 78.4256 119.642 78.4256C118.642 78.4256 117.83 78.8959 117.83 79.476C117.83 80.0561 118.642 80.5264 119.642 80.5264Z" fill="#9E4A9E"/>
<path d="M127.599 74.8806C128.308 75.3007 128.308 75.9572 127.599 76.3511C127.2 76.5816 126.747 76.7029 126.286 76.7029C125.825 76.7029 125.372 76.5816 124.973 76.3511C124.264 75.9572 124.264 75.3007 124.973 74.8806C125.38 74.6731 125.829 74.5649 126.286 74.5649C126.742 74.5649 127.192 74.6731 127.599 74.8806Z" fill="#9E4A9E"/>
<path d="M134.269 71.0205C134.978 71.4406 134.978 72.0971 134.269 72.491C133.87 72.7215 133.417 72.8428 132.956 72.8428C132.495 72.8428 132.042 72.7215 131.643 72.491C130.934 72.0971 130.934 71.4406 131.643 71.0205C132.05 70.813 132.5 70.7048 132.956 70.7048C133.412 70.7048 133.862 70.813 134.269 71.0205Z" fill="#9E4A9E"/>
<path d="M140.965 67.1603C141.123 67.2122 141.26 67.3124 141.357 67.4468C141.455 67.5812 141.507 67.7428 141.507 67.9087C141.507 68.0746 141.455 68.2363 141.357 68.3707C141.26 68.5051 141.123 68.6053 140.965 68.6571C140.559 68.8646 140.109 68.9728 139.652 68.9728C139.196 68.9728 138.746 68.8646 138.339 68.6571C138.182 68.6053 138.044 68.5051 137.947 68.3707C137.85 68.2363 137.797 68.0746 137.797 67.9087C137.797 67.7428 137.85 67.5812 137.947 67.4468C138.044 67.3124 138.182 67.2122 138.339 67.1603C138.746 66.9529 139.196 66.8447 139.652 66.8447C140.109 66.8447 140.559 66.9529 140.965 67.1603Z" fill="#9E4A9E"/>
<path d="M146.375 65.112C147.375 65.112 148.186 64.6417 148.186 64.0616C148.186 63.4815 147.375 63.0112 146.375 63.0112C145.374 63.0112 144.563 63.4815 144.563 64.0616C144.563 64.6417 145.374 65.112 146.375 65.112Z" fill="#9E4A9E"/>
<path d="M104.989 78.741C105.396 78.5335 105.846 78.4253 106.302 78.4253C106.759 78.4253 107.209 78.5335 107.615 78.741C107.777 78.7845 107.92 78.8802 108.022 79.0131C108.123 79.146 108.179 79.3088 108.179 79.4762C108.179 79.6437 108.123 79.8064 108.022 79.9393C107.92 80.0723 107.777 80.1679 107.615 80.2115C107.216 80.442 106.763 80.5633 106.302 80.5633C105.841 80.5633 105.389 80.442 104.989 80.2115C104.28 79.8176 104.28 79.1611 104.989 78.741Z" fill="#9E4A9E"/>
<path d="M114.233 74.8806C114.942 75.3007 114.942 75.9572 114.233 76.3511C113.834 76.5816 113.381 76.7029 112.92 76.7029C112.459 76.7029 112.006 76.5816 111.607 76.3511C110.898 75.9572 110.898 75.3007 111.607 74.8806C112.013 74.6731 112.463 74.5649 112.92 74.5649C113.376 74.5649 113.826 74.6731 114.233 74.8806Z" fill="#9E4A9E"/>
<path d="M119.642 72.8062C120.643 72.8062 121.454 72.336 121.454 71.7558C121.454 71.1757 120.643 70.7054 119.642 70.7054C118.642 70.7054 117.83 71.1757 117.83 71.7558C117.83 72.336 118.642 72.8062 119.642 72.8062Z" fill="#9E4A9E"/>
<path d="M127.599 67.1603C127.757 67.2122 127.894 67.3124 127.991 67.4468C128.088 67.5812 128.141 67.7428 128.141 67.9087C128.141 68.0746 128.088 68.2363 127.991 68.3707C127.894 68.5051 127.757 68.6053 127.599 68.6571C127.192 68.8646 126.742 68.9728 126.286 68.9728C125.83 68.9728 125.38 68.8646 124.973 68.6571C124.815 68.6053 124.678 68.5051 124.581 68.3707C124.484 68.2363 124.431 68.0746 124.431 67.9087C124.431 67.7428 124.484 67.5812 124.581 67.4468C124.678 67.3124 124.815 67.2122 124.973 67.1603C125.38 66.9529 125.83 66.8447 126.286 66.8447C126.742 66.8447 127.192 66.9529 127.599 67.1603Z" fill="#9E4A9E"/>
<path d="M98.3193 74.8806C98.7259 74.6731 99.1759 74.5649 99.6323 74.5649C100.089 74.5649 100.539 74.6731 100.945 74.8806C101.654 75.3007 101.654 75.9572 100.945 76.3511C100.546 76.5816 100.093 76.7029 99.6323 76.7029C99.1714 76.7029 98.7185 76.5816 98.3193 76.3511C97.6103 75.9572 97.6103 75.2219 98.3193 74.8806Z" fill="#9E4A9E"/>
<path d="M107.563 71.0206C108.272 71.4407 108.272 72.0972 107.563 72.4911C107.159 72.7072 106.708 72.8202 106.25 72.8202C105.792 72.8202 105.341 72.7072 104.937 72.4911C104.228 72.0972 104.228 71.4407 104.937 71.0206C105.345 70.8171 105.794 70.7112 106.25 70.7112C106.706 70.7112 107.155 70.8171 107.563 71.0206Z" fill="#9E4A9E"/>
<path d="M114.233 67.1603C114.39 67.2122 114.527 67.3124 114.625 67.4468C114.722 67.5812 114.774 67.7428 114.774 67.9087C114.774 68.0746 114.722 68.2363 114.625 68.3707C114.527 68.5051 114.39 68.6053 114.233 68.6571C113.826 68.8646 113.376 68.9728 112.92 68.9728C112.463 68.9728 112.013 68.8646 111.607 68.6571C111.449 68.6053 111.312 68.5051 111.215 68.3707C111.117 68.2363 111.065 68.0746 111.065 67.9087C111.065 67.7428 111.117 67.5812 111.215 67.4468C111.312 67.3124 111.449 67.2122 111.607 67.1603C112.013 66.9529 112.463 66.8447 112.92 66.8447C113.376 66.8447 113.826 66.9529 114.233 67.1603Z" fill="#9E4A9E"/>
<path d="M91.6231 71.0205C92.0297 70.813 92.4796 70.7048 92.9361 70.7048C93.3925 70.7048 93.8425 70.813 94.2491 71.0205C94.9581 71.4406 94.9581 72.0971 94.2491 72.491C93.8431 72.7006 93.3929 72.8099 92.9361 72.8099C92.4792 72.8099 92.029 72.7006 91.6231 72.491C91.4745 72.4338 91.3467 72.333 91.2565 72.2017C91.1664 72.0705 91.1181 71.915 91.1181 71.7557C91.1181 71.5965 91.1664 71.441 91.2565 71.3097C91.3467 71.1785 91.4745 71.0776 91.6231 71.0205Z" fill="#9E4A9E"/>
</svg>
