<svg width="185" height="161" viewBox="0 0 185 161" fill="none" xmlns="http://www.w3.org/2000/svg">
<path d="M4.5629 67.8445V97.7075L30.6779 111.452V81.5894L4.5629 67.8445Z" fill="white"/>
<path d="M30.6779 81.5894L4.63068 67.8753L55.0316 41.4023C61.1624 38.3204 66.8867 35.2386 72.2384 32.7731C68.8512 32.958 64.6512 32.9888 60.1124 32.7731L40.3991 31.7869L43.4475 16.162L102.791 19.2438L125.993 31.5712L30.6779 81.5894Z" fill="white"/>
<path d="M31.3893 89.4481L5.24039 75.734L55.6752 49.2301C61.806 46.1483 67.5303 43.0664 72.882 40.601C69.3255 40.7859 65.2609 40.8167 60.756 40.601L41.0088 39.6148L44.0911 23.9898L103.434 27.0717L126.636 39.399L31.3893 89.4481Z" fill="#F6CA52"/>
<path d="M125.925 30.2152L103.366 18.35L42.3975 14.96L39.0104 31.0164V32.9272L59.9769 33.975H66.7512C62.7882 35.9166 58.622 38.0122 54.3542 40.1387L4.63069 66.5192L3.34357 67.1972V98.3855L29.4586 112.1L30.7457 112.778L31.999 112.1L127.246 62.0814V30.8932L125.925 30.2152ZM29.3908 109.449L5.68072 97.1219V69.9093L5.98556 70.0942L29.2554 82.4215L29.3908 109.449ZM7.40816 68.0294L7.10332 67.8444L55.6075 42.3576C61.6705 39.2758 67.4287 36.1939 72.7465 33.7592L77.9966 31.2938L72.1029 31.602C68.7158 31.7869 64.5157 31.7869 60.1124 31.602L41.8895 30.8932L44.4976 17.5488L102.418 20.6306L123.452 31.6636L117.83 34.7455L30.678 80.2026L7.40816 68.0294Z" fill="#9E4A9E"/>
<path d="M54.9301 32.5573L39.0443 31.0164V49.754L66.5819 36.1631L70.8159 33.0813L54.9301 32.5573Z" fill="#9E4A9E"/>
<path d="M23.7006 78.631C23.9039 78.6918 24.0809 78.8094 24.2064 78.9672C24.3319 79.1249 24.3994 79.3146 24.3994 79.5093C24.3994 79.704 24.3319 79.8938 24.2064 80.0515C24.0809 80.2092 23.9039 80.3269 23.7006 80.3877C23.1796 80.6412 22.5979 80.7739 22.007 80.7739C21.4161 80.7739 20.8344 80.6412 20.3134 80.3877C19.365 79.8946 19.365 79.1241 20.3134 78.631C20.8394 78.3923 21.4192 78.2679 22.007 78.2679C22.5948 78.2679 23.1746 78.3923 23.7006 78.631Z" fill="#9E4A9E"/>
<path d="M30.7119 76.1656C32.0026 76.1656 33.049 75.6136 33.049 74.9328C33.049 74.252 32.0026 73.7001 30.7119 73.7001C29.4211 73.7001 28.3747 74.252 28.3747 74.9328C28.3747 75.6136 29.4211 76.1656 30.7119 76.1656Z" fill="#9E4A9E"/>
<path d="M39.4167 71.6045C40.7074 71.6045 41.7538 71.0526 41.7538 70.3718C41.7538 69.6909 40.7074 69.1391 39.4167 69.1391C38.1259 69.1391 37.0795 69.6909 37.0795 70.3718C37.0795 71.0526 38.1259 71.6045 39.4167 71.6045Z" fill="#9E4A9E"/>
<path d="M48.1219 67.0431C49.4127 67.0431 50.459 66.4912 50.459 65.8104C50.459 65.1296 49.4127 64.5776 48.1219 64.5776C46.8311 64.5776 45.7848 65.1296 45.7848 65.8104C45.7848 66.4912 46.8311 67.0431 48.1219 67.0431Z" fill="#9E4A9E"/>
<path d="M58.4867 60.3555C58.69 60.4163 58.867 60.534 58.9925 60.6917C59.118 60.8494 59.1856 61.0391 59.1856 61.2338C59.1856 61.4285 59.118 61.6183 58.9925 61.776C58.867 61.9337 58.69 62.0514 58.4867 62.1122C57.9657 62.3658 57.384 62.4984 56.7932 62.4984C56.2023 62.4984 55.6206 62.3658 55.0996 62.1122C54.8963 62.0514 54.7193 61.9337 54.5938 61.776C54.4683 61.6183 54.4007 61.4285 54.4007 61.2338C54.4007 61.0391 54.4683 60.8494 54.5938 60.6917C54.7193 60.534 54.8963 60.4163 55.0996 60.3555C55.6256 60.1167 56.2053 59.9925 56.7932 59.9925C57.381 59.9925 57.9608 60.1167 58.4867 60.3555Z" fill="#9E4A9E"/>
<path d="M67.1916 55.7944C67.3949 55.8552 67.5719 55.9729 67.6974 56.1306C67.8229 56.2883 67.8904 56.4781 67.8904 56.6728C67.8904 56.8675 67.8229 57.0572 67.6974 57.2149C67.5719 57.3726 67.3949 57.4903 67.1916 57.5511C66.6688 57.7995 66.0878 57.9292 65.498 57.9292C64.9082 57.9292 64.3272 57.7995 63.8044 57.5511C63.6011 57.4903 63.4241 57.3726 63.2986 57.2149C63.1731 57.0572 63.1055 56.8675 63.1055 56.6728C63.1055 56.4781 63.1731 56.2883 63.2986 56.1306C63.4241 55.9729 63.6011 55.8552 63.8044 55.7944C64.3326 55.5624 64.9115 55.4419 65.498 55.4419C66.0845 55.4419 66.6634 55.5624 67.1916 55.7944Z" fill="#9E4A9E"/>
<path d="M75.7612 51.2335C75.9645 51.2943 76.1415 51.4119 76.267 51.5696C76.3925 51.7273 76.46 51.917 76.46 52.1118C76.46 52.3065 76.3925 52.4962 76.267 52.654C76.1415 52.8117 75.9645 52.9293 75.7612 52.9901C75.233 53.2221 74.6541 53.3426 74.0676 53.3426C73.4811 53.3426 72.9022 53.2221 72.374 52.9901C72.1707 52.9293 71.9937 52.8117 71.8682 52.654C71.7427 52.4962 71.6752 52.3065 71.6752 52.1118C71.6752 51.917 71.7427 51.7273 71.8682 51.5696C71.9937 51.4119 72.1707 51.2943 72.374 51.2335C72.8968 50.985 73.4778 50.8553 74.0676 50.8553C74.6574 50.8553 75.2384 50.985 75.7612 51.2335Z" fill="#9E4A9E"/>
<path d="M84.5677 46.6722C84.7762 46.7234 84.9604 46.8356 85.0917 46.9916C85.2231 47.1476 85.2942 47.3386 85.2942 47.5351C85.2942 47.7316 85.2231 47.9227 85.0917 48.0786C84.9604 48.2346 84.7762 48.3469 84.5677 48.398C84.0467 48.6516 83.465 48.7843 82.8741 48.7843C82.2832 48.7843 81.7015 48.6516 81.1805 48.398C80.972 48.3469 80.7878 48.2346 80.6565 48.0786C80.5252 47.9227 80.454 47.7316 80.454 47.5351C80.454 47.3386 80.5252 47.1476 80.6565 46.9916C80.7878 46.8356 80.972 46.7234 81.1805 46.6722C81.7015 46.4186 82.2832 46.2859 82.8741 46.2859C83.465 46.2859 84.0467 46.4186 84.5677 46.6722Z" fill="#9E4A9E"/>
<path d="M93.2725 42.1112C93.481 42.1623 93.6652 42.2746 93.7966 42.4306C93.9279 42.5865 93.9991 42.7776 93.9991 42.9741C93.9991 43.1706 93.9279 43.3616 93.7966 43.5176C93.6652 43.6736 93.481 43.7858 93.2725 43.837C92.7515 44.0906 92.1698 44.2232 91.5789 44.2232C90.9881 44.2232 90.4064 44.0906 89.8854 43.837C89.6768 43.7858 89.4927 43.6736 89.3613 43.5176C89.23 43.3616 89.1588 43.1706 89.1588 42.9741C89.1588 42.7776 89.23 42.5865 89.3613 42.4306C89.4927 42.2746 89.6768 42.1623 89.8854 42.1112C90.4064 41.8576 90.9881 41.7249 91.5789 41.7249C92.1698 41.7249 92.7515 41.8576 93.2725 42.1112Z" fill="#9E4A9E"/>
<path d="M101.978 37.5193C102.181 37.5801 102.358 37.6978 102.484 37.8555C102.609 38.0132 102.677 38.203 102.677 38.3977C102.677 38.5924 102.609 38.7821 102.484 38.9398C102.358 39.0975 102.181 39.2152 101.978 39.276C101.457 39.5296 100.875 39.6623 100.284 39.6623C99.6933 39.6623 99.1116 39.5296 98.5906 39.276C98.3873 39.2152 98.2103 39.0975 98.0848 38.9398C97.9593 38.7821 97.8917 38.5924 97.8917 38.3977C97.8917 38.203 97.9593 38.0132 98.0848 37.8555C98.2103 37.6978 98.3873 37.5801 98.5906 37.5193C99.1166 37.2806 99.6963 37.1563 100.284 37.1563C100.872 37.1563 101.452 37.2806 101.978 37.5193Z" fill="#9E4A9E"/>
<path d="M110.683 32.958C110.886 33.0188 111.063 33.1364 111.188 33.2942C111.314 33.4519 111.381 33.6416 111.381 33.8363C111.381 34.031 111.314 34.2208 111.188 34.3785C111.063 34.5362 110.886 34.6539 110.683 34.7147C110.154 34.9467 109.575 35.0672 108.989 35.0672C108.402 35.0672 107.824 34.9467 107.295 34.7147C107.092 34.6539 106.915 34.5362 106.79 34.3785C106.664 34.2208 106.597 34.031 106.597 33.8363C106.597 33.6416 106.664 33.4519 106.79 33.2942C106.915 33.1364 107.092 33.0188 107.295 32.958C107.818 32.7095 108.399 32.5798 108.989 32.5798C109.579 32.5798 110.16 32.7095 110.683 32.958Z" fill="#9E4A9E"/>
<path d="M14.9953 74.039C15.1986 74.0998 15.3756 74.2174 15.5011 74.3751C15.6266 74.5328 15.6941 74.7226 15.6941 74.9173C15.6941 75.112 15.6266 75.3017 15.5011 75.4595C15.3756 75.6172 15.1986 75.7348 14.9953 75.7956C14.4693 76.0344 13.8895 76.1587 13.3017 76.1587C12.7139 76.1587 12.1341 76.0344 11.6081 75.7956C11.4048 75.7348 11.2278 75.6172 11.1023 75.4595C10.9768 75.3017 10.9093 75.112 10.9093 74.9173C10.9093 74.7226 10.9768 74.5328 11.1023 74.3751C11.2278 74.2174 11.4048 74.0998 11.6081 74.039C12.1291 73.7854 12.7109 73.6527 13.3017 73.6527C13.8926 73.6527 14.4743 73.7854 14.9953 74.039Z" fill="#9E4A9E"/>
<path d="M23.7006 69.5088C23.9039 69.5696 24.0809 69.6872 24.2064 69.8449C24.3319 70.0027 24.3994 70.1924 24.3994 70.3871C24.3994 70.5818 24.3319 70.7715 24.2064 70.9293C24.0809 71.087 23.9039 71.2046 23.7006 71.2654C23.1746 71.5042 22.5948 71.6285 22.007 71.6285C21.4192 71.6285 20.8394 71.5042 20.3134 71.2654C19.365 70.7723 19.365 70.0019 20.3134 69.5088C20.8344 69.2552 21.4161 69.1225 22.007 69.1225C22.5979 69.1225 23.1796 69.2552 23.7006 69.5088Z" fill="#9E4A9E"/>
<path d="M32.4053 64.9475C32.6139 64.9987 32.798 65.1109 32.9294 65.2669C33.0607 65.4229 33.1319 65.6139 33.1319 65.8104C33.1319 66.0069 33.0607 66.198 32.9294 66.3539C32.798 66.5099 32.6139 66.6222 32.4053 66.6733C31.8826 66.9218 31.3015 67.0515 30.7118 67.0515C30.122 67.0515 29.541 66.9218 29.0182 66.6733C28.8097 66.6222 28.6255 66.5099 28.4941 66.3539C28.3628 66.198 28.2916 66.0069 28.2916 65.8104C28.2916 65.6139 28.3628 65.4229 28.4941 65.2669C28.6255 65.1109 28.8097 64.9987 29.0182 64.9475C29.541 64.6991 30.122 64.5693 30.7118 64.5693C31.3015 64.5693 31.8826 64.6991 32.4053 64.9475Z" fill="#9E4A9E"/>
<path d="M41.0767 60.3555C41.28 60.4163 41.457 60.534 41.5825 60.6917C41.708 60.8494 41.7755 61.0391 41.7755 61.2338C41.7755 61.4285 41.708 61.6183 41.5825 61.776C41.457 61.9337 41.28 62.0514 41.0767 62.1122C40.5557 62.3658 39.9739 62.4984 39.3831 62.4984C38.7922 62.4984 38.2105 62.3658 37.6895 62.1122C37.4862 62.0514 37.3092 61.9337 37.1837 61.776C37.0582 61.6183 36.9907 61.4285 36.9907 61.2338C36.9907 61.0391 37.0582 60.8494 37.1837 60.6917C37.3092 60.534 37.4862 60.4163 37.6895 60.3555C38.2155 60.1167 38.7953 59.9925 39.3831 59.9925C39.9709 59.9925 40.5507 60.1167 41.0767 60.3555Z" fill="#9E4A9E"/>
<path d="M48.1219 57.921C49.4127 57.921 50.459 57.369 50.459 56.6882C50.459 56.0074 49.4127 55.4555 48.1219 55.4555C46.8311 55.4555 45.7848 56.0074 45.7848 56.6882C45.7848 57.369 46.8311 57.921 48.1219 57.921Z" fill="#9E4A9E"/>
<path d="M58.4867 51.2333C58.69 51.2941 58.867 51.4117 58.9925 51.5694C59.118 51.7271 59.1856 51.9169 59.1856 52.1116C59.1856 52.3063 59.118 52.4961 58.9925 52.6538C58.867 52.8115 58.69 52.9291 58.4867 52.9899C57.9608 53.2287 57.381 53.3529 56.7932 53.3529C56.2053 53.3529 55.6256 53.2287 55.0996 52.9899C54.8963 52.9291 54.7193 52.8115 54.5938 52.6538C54.4683 52.4961 54.4007 52.3063 54.4007 52.1116C54.4007 51.9169 54.4683 51.7271 54.5938 51.5694C54.7193 51.4117 54.8963 51.2941 55.0996 51.2333C55.6206 50.9797 56.2023 50.847 56.7932 50.847C57.384 50.847 57.9657 50.9797 58.4867 51.2333Z" fill="#9E4A9E"/>
<path d="M67.1916 46.6724C67.4001 46.7236 67.5842 46.8358 67.7156 46.9918C67.8469 47.1478 67.9181 47.3388 67.9181 47.5353C67.9181 47.7318 67.8469 47.9229 67.7156 48.0788C67.5842 48.2348 67.4001 48.3471 67.1916 48.3982C66.6688 48.6467 66.0878 48.7765 65.498 48.7765C64.9082 48.7765 64.3272 48.6467 63.8044 48.3982C63.5959 48.3471 63.4117 48.2348 63.2803 48.0788C63.149 47.9229 63.0779 47.7318 63.0779 47.5353C63.0779 47.3388 63.149 47.1478 63.2803 46.9918C63.4117 46.8358 63.5959 46.7236 63.8044 46.6724C64.3272 46.424 64.9082 46.2942 65.498 46.2942C66.0878 46.2942 66.6688 46.424 67.1916 46.6724Z" fill="#9E4A9E"/>
<path d="M75.7612 42.1113C75.9697 42.1625 76.1539 42.2748 76.2852 42.4307C76.4166 42.5867 76.4877 42.7778 76.4877 42.9743C76.4877 43.1708 76.4166 43.3618 76.2852 43.5178C76.1539 43.6738 75.9697 43.786 75.7612 43.8372C75.2384 44.0856 74.6574 44.2153 74.0676 44.2153C73.4778 44.2153 72.8968 44.0856 72.374 43.8372C72.1655 43.786 71.9813 43.6738 71.85 43.5178C71.7186 43.3618 71.6475 43.1708 71.6475 42.9743C71.6475 42.7778 71.7186 42.5867 71.85 42.4307C71.9813 42.2748 72.1655 42.1625 72.374 42.1113C72.8968 41.8629 73.4778 41.7332 74.0676 41.7332C74.6574 41.7332 75.2384 41.8629 75.7612 42.1113Z" fill="#9E4A9E"/>
<path d="M84.5677 37.5193C84.771 37.5801 84.948 37.6978 85.0735 37.8555C85.199 38.0132 85.2666 38.203 85.2666 38.3977C85.2666 38.5924 85.199 38.7821 85.0735 38.9398C84.948 39.0975 84.771 39.2152 84.5677 39.276C84.0467 39.5296 83.465 39.6623 82.8741 39.6623C82.2833 39.6623 81.7015 39.5296 81.1805 39.276C80.9772 39.2152 80.8002 39.0975 80.6747 38.9398C80.5492 38.7821 80.4817 38.5924 80.4817 38.3977C80.4817 38.203 80.5492 38.0132 80.6747 37.8555C80.8002 37.6978 80.9772 37.5801 81.1805 37.5193C81.7065 37.2806 82.2863 37.1563 82.8741 37.1563C83.4619 37.1563 84.0417 37.2806 84.5677 37.5193Z" fill="#9E4A9E"/>
<path d="M93.2725 32.9582C93.4758 33.019 93.6528 33.1366 93.7783 33.2944C93.9038 33.4521 93.9714 33.6418 93.9714 33.8365C93.9714 34.0312 93.9038 34.221 93.7783 34.3787C93.6528 34.5364 93.4758 34.6541 93.2725 34.7149C92.7465 34.9536 92.1668 35.0779 91.5789 35.0779C90.9911 35.0779 90.4114 34.9536 89.8854 34.7149C89.6821 34.6541 89.5051 34.5364 89.3796 34.3787C89.2541 34.221 89.1865 34.0312 89.1865 33.8365C89.1865 33.6418 89.2541 33.4521 89.3796 33.2944C89.5051 33.1366 89.6821 33.019 89.8854 32.9582C90.4064 32.7046 90.9881 32.5719 91.5789 32.5719C92.1698 32.5719 92.7515 32.7046 93.2725 32.9582Z" fill="#9E4A9E"/>
<path d="M100.318 30.4928C101.609 30.4928 102.655 29.9409 102.655 29.2601C102.655 28.5793 101.609 28.0274 100.318 28.0274C99.0274 28.0274 97.981 28.5793 97.981 29.2601C97.981 29.9409 99.0274 30.4928 100.318 30.4928Z" fill="#9E4A9E"/>
<path d="M67.0898 37.4884C68.0382 37.9507 68.0382 38.7519 67.0898 39.2142C66.5688 39.4678 65.9871 39.6005 65.3963 39.6005C64.8054 39.6005 64.2237 39.4678 63.7027 39.2142C63.4942 39.1631 63.31 39.0508 63.1786 38.8948C63.0473 38.7388 62.9761 38.5478 62.9761 38.3513C62.9761 38.1548 63.0473 37.9638 63.1786 37.8078C63.31 37.6518 63.4942 37.5395 63.7027 37.4884C64.2237 37.2348 64.8054 37.1021 65.3963 37.1021C65.9871 37.1021 66.5688 37.2348 67.0898 37.4884Z" fill="#9E4A9E"/>
<path d="M75.7612 32.9273C75.9697 32.9785 76.1539 33.0907 76.2852 33.2467C76.4166 33.4027 76.4877 33.5937 76.4877 33.7902C76.4877 33.9867 76.4166 34.1778 76.2852 34.3337C76.1539 34.4897 75.9697 34.602 75.7612 34.6531C75.2402 34.9067 74.6584 35.0394 74.0676 35.0394C73.4767 35.0394 72.895 34.9067 72.374 34.6531C72.1655 34.602 71.9813 34.4897 71.85 34.3337C71.7186 34.1778 71.6475 33.9867 71.6475 33.7902C71.6475 33.5937 71.7186 33.4027 71.85 33.2467C71.9813 33.0907 72.1655 32.9785 72.374 32.9273C72.895 32.6737 73.4767 32.5411 74.0676 32.5411C74.6584 32.5411 75.2402 32.6737 75.7612 32.9273Z" fill="#9E4A9E"/>
<path d="M84.4999 28.3355C84.7032 28.3963 84.8802 28.514 85.0057 28.6717C85.1312 28.8294 85.1988 29.0191 85.1988 29.2138C85.1988 29.4085 85.1312 29.5983 85.0057 29.756C84.8802 29.9137 84.7032 30.0314 84.4999 30.0922C83.9789 30.3458 83.3972 30.4784 82.8063 30.4784C82.2155 30.4784 81.6337 30.3458 81.1128 30.0922C80.9095 30.0314 80.7324 29.9137 80.6069 29.756C80.4815 29.5983 80.4139 29.4085 80.4139 29.2138C80.4139 29.0191 80.4815 28.8294 80.6069 28.6717C80.7324 28.514 80.9095 28.3963 81.1128 28.3355C81.6387 28.0967 82.2185 27.9725 82.8063 27.9725C83.3941 27.9725 83.9739 28.0967 84.4999 28.3355Z" fill="#9E4A9E"/>
<path d="M58.4189 32.9275C58.6274 32.9787 58.8116 33.0909 58.9429 33.2469C59.0743 33.4029 59.1454 33.5939 59.1454 33.7904C59.1454 33.9869 59.0743 34.178 58.9429 34.3339C58.8116 34.4899 58.6274 34.6022 58.4189 34.6533C57.8961 34.9018 57.3151 35.0315 56.7253 35.0315C56.1355 35.0315 55.5545 34.9018 55.0317 34.6533C54.8232 34.6022 54.639 34.4899 54.5077 34.3339C54.3764 34.178 54.3052 33.9869 54.3052 33.7904C54.3052 33.5939 54.3764 33.4029 54.5077 33.2469C54.639 33.0909 54.8232 32.9787 55.0317 32.9275C55.5545 32.6791 56.1355 32.5493 56.7253 32.5493C57.3151 32.5493 57.8961 32.6791 58.4189 32.9275Z" fill="#9E4A9E"/>
<path d="M67.0899 28.3355C68.0383 28.8286 68.0383 29.5991 67.0899 30.0922C66.5689 30.3458 65.9872 30.4784 65.3963 30.4784C64.8054 30.4784 64.2237 30.3458 63.7027 30.0922C63.4994 30.0314 63.3224 29.9137 63.1969 29.756C63.0714 29.5983 63.0038 29.4085 63.0038 29.2138C63.0038 29.0191 63.0714 28.8294 63.1969 28.6717C63.3224 28.514 63.4994 28.3963 63.7027 28.3355C64.2287 28.0967 64.8085 27.9725 65.3963 27.9725C65.9841 27.9725 66.5639 28.0967 67.0899 28.3355Z" fill="#9E4A9E"/>
<path d="M48.0541 30.462C49.3449 30.462 50.3913 29.9101 50.3913 29.2293C50.3913 28.5485 49.3449 27.9966 48.0541 27.9966C46.7633 27.9966 45.717 28.5485 45.717 29.2293C45.717 29.9101 46.7633 30.462 48.0541 30.462Z" fill="#9E4A9E"/>
<path d="M131.898 64.4762V94.2596L161.041 111.1V81.3169L131.898 64.4762Z" fill="white"/>
<path d="M161.041 112.44L130.74 94.9296V62.4967L162.199 80.7687V111.801L161.041 112.44ZM133.024 93.6201L159.915 109.121V81.9869L133.024 66.4556V93.6201Z" fill="#9E4A9E"/>
<path d="M87.3137 73.5817V100.959L110.946 98.919L115.118 87.2554L104.215 74.9521L87.3137 73.5817Z" fill="white"/>
<path d="M86.1869 102.208V72.2113L104.764 73.734L116.427 86.8899L111.768 99.8935L86.1869 102.208ZM88.4709 74.7999V99.6194L110.123 97.7618L113.839 87.4381L103.667 75.9571L88.4709 74.7999Z" fill="#9E4A9E"/>
<path d="M83.0502 66.2425V96.6959L87.3137 100.959V73.5817L83.0502 66.2425Z" fill="white"/>
<path d="M88.4709 103.7L81.893 97.1527V65.542L83.4765 64.7503L88.4709 73.2772V103.7ZM84.177 96.2087L86.1869 98.2186V73.8558L84.177 70.445V96.2087Z" fill="#9E4A9E"/>
<path d="M76.1677 100.838L44.618 86.7376V116.521C47.846 121.942 54.4646 127.545 64.4736 133.331C74.6999 139.62 86.323 143.282 98.3074 143.99C109.068 144.367 119.71 141.651 128.974 136.164C133.562 133.833 137.419 130.281 140.12 125.901C141.063 124.22 141.605 122.344 141.704 120.419V90.6052L86.5219 101.934L76.1677 100.838Z" fill="white"/>
<path d="M100.317 145.3H98.2464C86.0801 144.558 74.2829 140.835 63.895 134.458C53.7844 128.611 46.9629 122.825 43.6434 117.252L43.4607 116.978V86.2199L44.557 85.6108L76.4722 99.6194L86.4915 100.777L142.861 89.2044V120.389C142.753 122.524 142.159 124.607 141.125 126.479C138.313 131.049 134.299 134.757 129.522 137.199C120.685 142.458 110.601 145.255 100.317 145.3ZM45.7447 116.338C48.9423 121.485 55.4289 126.906 65.0522 132.448C75.11 138.649 86.544 142.268 98.3378 142.985C108.876 143.382 119.307 140.75 128.395 135.402C132.786 133.157 136.489 129.77 139.115 125.596C139.954 124.044 140.453 122.331 140.577 120.571V92.2193L86.5828 103.304H86.4001L75.7109 102.025L45.7447 88.6562V116.338Z" fill="#9E4A9E"/>
<path d="M130.649 75.5917C134.859 77.7341 138.313 81.1134 140.546 85.2759C141.377 86.9934 141.773 88.889 141.699 90.7955C141.624 92.7021 141.082 94.5611 140.12 96.2087C137.419 100.589 133.562 104.14 128.974 106.471C119.701 111.927 109.059 114.611 98.3074 114.207C86.323 113.498 74.6999 109.837 64.4736 103.548C54.4849 97.7618 47.8663 92.1584 44.618 86.7377L63.5904 75.7744C65.7616 79.0334 68.3293 82.0102 71.2343 84.6364C74.1189 87.4236 77.3177 89.8661 80.7662 91.9147C84.6025 94.2288 88.9127 95.6447 93.3739 96.0564C97.3944 96.3562 101.411 95.4212 104.885 93.3765C108.174 91.4884 109.545 89.3566 109.057 86.9204C108.57 84.4841 106.012 81.926 101.14 79.1852C96.7653 76.7844 92.1251 74.9038 87.3137 73.5817L83.0502 66.2424L131.471 41.8797L180.197 70.0796L161.041 81.3474L131.898 64.5066L119.533 70.4146C123.157 71.8459 125.624 72.9118 126.995 73.4599L130.649 75.5917Z" fill="white"/>
<path d="M131.136 82.931C135.353 85.0637 138.81 88.4455 141.034 92.6151C141.859 94.3341 142.252 96.2289 142.178 98.1345C142.104 100.04 141.564 101.898 140.607 103.548C137.893 107.929 134.027 111.479 129.431 113.811C120.153 119.255 109.514 121.938 98.7643 121.546C86.7894 120.838 75.1761 117.176 64.9609 110.887C55.5813 105.466 49.2165 100.229 45.7752 95.1123C45.8813 94.6411 45.8813 94.1522 45.7752 93.681L64.0474 83.1137C66.2186 86.3727 68.7861 89.3495 71.6911 91.9756C74.5643 94.7545 77.7532 97.187 81.1926 99.2235C85.0322 101.559 89.3551 102.987 93.8308 103.396C97.8513 103.696 101.868 102.761 105.342 100.716C108.601 98.8277 110.002 96.6959 109.484 94.2597C108.966 91.8234 106.439 89.2653 101.596 86.5245C97.4488 84.1873 93.0306 82.3669 88.4405 81.1037V74.7999L87.4356 71.7546L131.928 49.4931L180.654 77.693L161.377 88.8085L132.202 71.9677L119.838 77.8757C123.492 79.307 125.929 80.3729 127.33 81.0733L131.136 82.931Z" fill="#F6CA52"/>
<path d="M180.319 68.8614L131.593 40.692L81.9538 65.542V66.547L86.6133 74.5258L87.0701 74.6781C91.7844 75.9879 96.3317 77.8375 100.622 80.1901C106.164 83.2355 107.687 85.7327 107.992 87.164C108.144 87.8644 108.57 89.9657 104.368 92.402C101.09 94.3133 97.3095 95.1841 93.5262 94.8992C89.2157 94.5103 85.0502 93.1461 81.3448 90.9098C78.044 88.8933 74.9795 86.5132 72.2088 83.8141C69.3136 81.2919 66.7456 78.4171 64.5649 75.2567L63.9559 74.3431L43.4607 86.159V87.1335L43.6434 87.4076C46.9629 92.9806 53.7844 98.7667 63.895 104.614C74.279 110.995 86.0797 114.709 98.2464 115.425H100.317C110.582 115.423 120.662 112.69 129.522 107.507C134.299 105.065 138.313 101.356 141.125 96.7873C142.17 94.9803 142.757 92.9455 142.837 90.8598C142.916 88.7741 142.486 86.7005 141.582 84.8191C139.257 80.4459 135.641 76.8946 131.228 74.6476C130.131 74.0081 128.883 73.3381 127.543 72.6073C126.203 71.8764 124.771 71.2978 122.366 70.3232L131.837 65.8161L159.915 82.0174V111.801L161.041 112.471L181.476 100.685V69.5314L180.319 68.8614ZM161.041 80.0074L131.928 63.0753L116.701 70.3841L119.138 71.3282C121.644 72.2186 124.104 73.235 126.507 74.3736C127.817 75.074 129.035 75.7135 130.101 76.353C134.107 78.3619 137.402 81.5504 139.541 85.489C140.302 87.0473 140.664 88.7701 140.595 90.5029C140.526 92.2356 140.028 93.9241 139.146 95.4169C136.519 99.5903 132.816 102.978 128.426 105.223C119.329 110.547 108.902 113.167 98.3683 112.775C86.6006 112.195 75.1575 108.723 65.0522 102.665C55.9162 97.3659 49.5514 92.1888 46.232 87.2554L63.225 77.4189C65.344 80.3894 67.7625 83.1345 70.4424 85.6108C73.4044 88.4335 76.6732 90.9158 80.1876 93.0111C84.1671 95.4242 88.6468 96.8931 93.2825 97.305C97.5333 97.6303 101.782 96.653 105.464 94.5033C109.21 92.3411 110.793 89.7525 110.154 86.829C109.514 83.9055 106.804 81.256 101.718 78.3325C97.3951 75.9586 92.8186 74.079 88.075 72.729L84.6642 66.6993L131.471 43.2806L178.065 70.2014H177.913L161.041 80.0074Z" fill="#9E4A9E"/>
<path d="M102.845 114.176V143.96L122.366 139.666L133.999 132.448L141.704 123.495L142.861 93.011L136.801 102.208L124.802 109.943L102.845 114.176Z" fill="#9E4A9E"/>
<path d="M93.1608 113.78V142.894L78.7563 140.062V109.943L93.1608 113.78Z" fill="#9E4A9E"/>
<path d="M117.584 70.0491L133.024 77.2971V64.0194L117.584 70.0491Z" fill="#9E4A9E"/>
<path d="M102.023 116.491C102.21 116.541 102.376 116.652 102.494 116.806C102.612 116.96 102.676 117.149 102.676 117.343C102.676 117.537 102.612 117.726 102.494 117.88C102.376 118.034 102.21 118.145 102.023 118.196C101.554 118.447 101.031 118.578 100.5 118.578C99.9688 118.578 99.4458 118.447 98.9774 118.196C98.7899 118.145 98.6243 118.034 98.5062 117.88C98.3881 117.726 98.3242 117.537 98.3242 117.343C98.3242 117.149 98.3881 116.96 98.5062 116.806C98.6243 116.652 98.7899 116.541 98.9774 116.491C99.4458 116.24 99.9688 116.109 100.5 116.109C101.031 116.109 101.554 116.24 102.023 116.491Z" fill="#9E4A9E"/>
<path d="M109.849 111.953C110.032 112.013 110.191 112.129 110.304 112.285C110.417 112.441 110.478 112.629 110.478 112.821C110.478 113.013 110.417 113.201 110.304 113.357C110.191 113.513 110.032 113.629 109.849 113.689C109.381 113.94 108.858 114.071 108.327 114.071C107.796 114.071 107.272 113.94 106.804 113.689C106.621 113.629 106.462 113.513 106.349 113.357C106.236 113.201 106.176 113.013 106.176 112.821C106.176 112.629 106.236 112.441 106.349 112.285C106.462 112.129 106.621 112.013 106.804 111.953C107.277 111.717 107.798 111.594 108.327 111.594C108.855 111.594 109.376 111.717 109.849 111.953Z" fill="#9E4A9E"/>
<path d="M117.676 107.446C117.859 107.506 118.018 107.622 118.131 107.778C118.243 107.934 118.304 108.121 118.304 108.314C118.304 108.506 118.243 108.694 118.131 108.85C118.018 109.006 117.859 109.122 117.676 109.182C117.203 109.418 116.682 109.541 116.153 109.541C115.625 109.541 115.103 109.418 114.631 109.182C113.778 108.695 113.778 107.933 114.631 107.446C115.099 107.195 115.622 107.064 116.153 107.064C116.684 107.064 117.207 107.195 117.676 107.446Z" fill="#9E4A9E"/>
<path d="M125.502 102.939C125.685 102.999 125.844 103.115 125.957 103.271C126.07 103.427 126.131 103.614 126.131 103.807C126.131 103.999 126.07 104.187 125.957 104.342C125.844 104.498 125.685 104.615 125.502 104.675C125.027 104.904 124.507 105.023 123.98 105.023C123.452 105.023 122.932 104.904 122.457 104.675C122.274 104.615 122.115 104.498 122.002 104.342C121.889 104.187 121.829 103.999 121.829 103.807C121.829 103.614 121.889 103.427 122.002 103.271C122.115 103.115 122.274 102.999 122.457 102.939C122.927 102.693 123.449 102.565 123.98 102.565C124.51 102.565 125.032 102.693 125.502 102.939Z" fill="#9E4A9E"/>
<path d="M133.39 98.4315C134.243 98.8883 134.243 99.6801 133.39 100.137C132.922 100.387 132.399 100.519 131.867 100.519C131.336 100.519 130.813 100.387 130.345 100.137C130.157 100.086 129.991 99.9754 129.873 99.8213C129.755 99.6671 129.691 99.4784 129.691 99.2842C129.691 99.09 129.755 98.9013 129.873 98.7471C129.991 98.593 130.157 98.4821 130.345 98.4315C130.813 98.1809 131.336 98.0498 131.867 98.0498C132.399 98.0498 132.922 98.1809 133.39 98.4315Z" fill="#9E4A9E"/>
<path d="M141.125 93.8941C141.308 93.9542 141.467 94.0704 141.58 94.2263C141.693 94.3821 141.754 94.5696 141.754 94.762C141.754 94.9544 141.693 95.1419 141.58 95.2977C141.467 95.4536 141.308 95.5699 141.125 95.6299C140.657 95.8805 140.134 96.0116 139.603 96.0116C139.071 96.0116 138.548 95.8805 138.08 95.6299C137.897 95.5699 137.738 95.4536 137.625 95.2977C137.512 95.1419 137.452 94.9544 137.452 94.762C137.452 94.5696 137.512 94.3821 137.625 94.2263C137.738 94.0704 137.897 93.9542 138.08 93.8941C138.553 93.6581 139.074 93.5353 139.603 93.5353C140.131 93.5353 140.652 93.6581 141.125 93.8941Z" fill="#9E4A9E"/>
<path d="M83.3852 118.196C83.1977 118.145 83.0321 118.034 82.9141 117.88C82.796 117.726 82.732 117.537 82.732 117.343C82.732 117.149 82.796 116.96 82.9141 116.806C83.0321 116.652 83.1977 116.541 83.3852 116.49C83.8552 116.245 84.3776 116.117 84.9078 116.117C85.4381 116.117 85.9605 116.245 86.4305 116.49C86.618 116.541 86.7836 116.652 86.9017 116.806C87.0198 116.96 87.0837 117.149 87.0837 117.343C87.0837 117.537 87.0198 117.726 86.9017 117.88C86.7836 118.034 86.618 118.145 86.4305 118.196C85.9605 118.441 85.4381 118.57 84.9078 118.57C84.3776 118.57 83.8552 118.441 83.3852 118.196Z" fill="#9E4A9E"/>
<path d="M94.1964 111.953C95.0491 112.44 95.0491 113.202 94.1964 113.689C93.7279 113.94 93.2049 114.071 92.6737 114.071C92.1425 114.071 91.6194 113.94 91.151 113.689C90.9682 113.629 90.8091 113.513 90.6963 113.357C90.5835 113.201 90.5227 113.013 90.5227 112.821C90.5227 112.629 90.5835 112.441 90.6963 112.285C90.8091 112.129 90.9682 112.013 91.151 111.953C91.6239 111.717 92.1452 111.594 92.6737 111.594C93.2022 111.594 93.7235 111.717 94.1964 111.953Z" fill="#9E4A9E"/>
<path d="M102.023 107.446C102.206 107.506 102.365 107.622 102.477 107.778C102.59 107.934 102.651 108.121 102.651 108.314C102.651 108.506 102.59 108.694 102.477 108.85C102.365 109.006 102.206 109.122 102.023 109.182C101.55 109.418 101.029 109.541 100.5 109.541C99.9716 109.541 99.4503 109.418 98.9774 109.182C98.7946 109.122 98.6354 109.006 98.5226 108.85C98.4097 108.694 98.3491 108.506 98.3491 108.314C98.3491 108.121 98.4097 107.934 98.5226 107.778C98.6354 107.622 98.7946 107.506 98.9774 107.446C99.4458 107.195 99.9688 107.064 100.5 107.064C101.031 107.064 101.554 107.195 102.023 107.446Z" fill="#9E4A9E"/>
<path d="M109.849 102.939C110.032 102.999 110.191 103.115 110.304 103.271C110.417 103.427 110.478 103.614 110.478 103.807C110.478 103.999 110.417 104.186 110.304 104.342C110.191 104.498 110.032 104.614 109.849 104.674C109.376 104.91 108.855 105.033 108.327 105.033C107.798 105.033 107.277 104.91 106.804 104.674C106.621 104.614 106.462 104.498 106.349 104.342C106.236 104.186 106.176 103.999 106.176 103.807C106.176 103.614 106.236 103.427 106.349 103.271C106.462 103.115 106.621 102.999 106.804 102.939C107.272 102.688 107.796 102.557 108.327 102.557C108.858 102.557 109.381 102.688 109.849 102.939Z" fill="#9E4A9E"/>
<path d="M117.676 98.4315C117.863 98.4821 118.029 98.593 118.147 98.7471C118.265 98.9013 118.329 99.09 118.329 99.2842C118.329 99.4784 118.265 99.6671 118.147 99.8213C118.029 99.9754 117.863 100.086 117.676 100.137C117.207 100.387 116.684 100.519 116.153 100.519C115.622 100.519 115.099 100.387 114.631 100.137C113.778 99.6801 113.778 98.8883 114.631 98.4315C115.099 98.1809 115.622 98.0498 116.153 98.0498C116.684 98.0498 117.207 98.1809 117.676 98.4315Z" fill="#9E4A9E"/>
<path d="M125.502 93.8941C125.685 93.9542 125.844 94.0704 125.957 94.2263C126.07 94.3821 126.131 94.5696 126.131 94.762C126.131 94.9544 126.07 95.1419 125.957 95.2978C125.844 95.4536 125.685 95.5699 125.502 95.63C125.032 95.8755 124.51 96.0037 123.98 96.0037C123.449 96.0037 122.927 95.8755 122.457 95.63C122.274 95.5699 122.115 95.4536 122.002 95.2978C121.889 95.1419 121.829 94.9544 121.829 94.762C121.829 94.5696 121.889 94.3821 122.002 94.2263C122.115 94.0704 122.274 93.9542 122.457 93.8941C122.932 93.6648 123.452 93.5458 123.98 93.5458C124.507 93.5458 125.027 93.6648 125.502 93.8941Z" fill="#9E4A9E"/>
<path d="M133.39 89.387C134.243 89.8743 134.243 90.6357 133.39 91.1229C132.922 91.3735 132.398 91.5046 131.867 91.5046C131.336 91.5046 130.813 91.3735 130.345 91.1229C130.162 91.0628 130.003 90.9466 129.89 90.7907C129.777 90.6349 129.716 90.4474 129.716 90.255C129.716 90.0626 129.777 89.8751 129.89 89.7192C130.003 89.5634 130.162 89.4471 130.345 89.387C130.818 89.1511 131.339 89.0283 131.867 89.0283C132.396 89.0283 132.917 89.1511 133.39 89.387Z" fill="#9E4A9E"/>
<path d="M156.778 75.8658C156.965 75.9163 157.131 76.0273 157.249 76.1814C157.367 76.3356 157.431 76.5243 157.431 76.7185C157.431 76.9127 157.367 77.1014 157.249 77.2556C157.131 77.4097 156.965 77.5206 156.778 77.5712C156.31 77.8218 155.787 77.9529 155.255 77.9529C154.724 77.9529 154.201 77.8218 153.733 77.5712C152.88 77.1144 152.88 76.3226 153.733 75.8658C154.201 75.6152 154.724 75.4841 155.255 75.4841C155.787 75.4841 156.31 75.6152 156.778 75.8658Z" fill="#9E4A9E"/>
<path d="M164.605 71.328C164.788 71.3881 164.947 71.5043 165.059 71.6602C165.172 71.816 165.233 72.0035 165.233 72.1959C165.233 72.3883 165.172 72.5758 165.059 72.7317C164.947 72.8875 164.788 73.0038 164.605 73.0639C164.135 73.3093 163.612 73.4375 163.082 73.4375C162.552 73.4375 162.029 73.3093 161.559 73.0639C161.377 73.0038 161.217 72.8875 161.105 72.7317C160.992 72.5758 160.931 72.3883 160.931 72.1959C160.931 72.0035 160.992 71.816 161.105 71.6602C161.217 71.5043 161.377 71.3881 161.559 71.328C162.034 71.0988 162.555 70.9797 163.082 70.9797C163.609 70.9797 164.13 71.0988 164.605 71.328Z" fill="#9E4A9E"/>
<path d="M78.5738 111.953C78.7566 112.013 78.9157 112.129 79.0285 112.285C79.1413 112.441 79.2021 112.629 79.2021 112.821C79.2021 113.013 79.1413 113.201 79.0285 113.357C78.9157 113.513 78.7566 113.629 78.5738 113.689C78.1054 113.94 77.5823 114.071 77.0511 114.071C76.5199 114.071 75.9969 113.94 75.5284 113.689C74.6757 113.202 74.6757 112.44 75.5284 111.953C76.0013 111.717 76.5226 111.594 77.0511 111.594C77.5796 111.594 78.1009 111.717 78.5738 111.953Z" fill="#9E4A9E"/>
<path d="M86.4001 107.446C86.5829 107.506 86.742 107.622 86.8549 107.778C86.9677 107.934 87.0285 108.121 87.0285 108.314C87.0285 108.506 86.9677 108.694 86.8549 108.85C86.742 109.005 86.5829 109.122 86.4001 109.182C85.9253 109.411 85.4048 109.53 84.8775 109.53C84.3501 109.53 83.8296 109.411 83.3548 109.182C83.172 109.122 83.0129 109.005 82.9 108.85C82.7872 108.694 82.7264 108.506 82.7264 108.314C82.7264 108.121 82.7872 107.934 82.9 107.778C83.0129 107.622 83.172 107.506 83.3548 107.446C83.8248 107.2 84.3472 107.072 84.8775 107.072C85.4077 107.072 85.9301 107.2 86.4001 107.446Z" fill="#9E4A9E"/>
<path d="M94.1964 102.939C95.0491 103.426 95.0491 104.187 94.1964 104.674C93.7235 104.91 93.2022 105.033 92.6737 105.033C92.1452 105.033 91.6239 104.91 91.151 104.674C90.9682 104.614 90.8091 104.498 90.6963 104.342C90.5835 104.186 90.5227 103.999 90.5227 103.807C90.5227 103.614 90.5835 103.427 90.6963 103.271C90.8091 103.115 90.9682 102.999 91.151 102.939C91.6194 102.688 92.1425 102.557 92.6737 102.557C93.2049 102.557 93.7279 102.688 94.1964 102.939Z" fill="#9E4A9E"/>
<path d="M117.676 89.387C117.859 89.4471 118.018 89.5634 118.131 89.7192C118.243 89.8751 118.304 90.0626 118.304 90.255C118.304 90.4474 118.243 90.6349 118.131 90.7907C118.018 90.9466 117.859 91.0628 117.676 91.1229C117.207 91.3735 116.684 91.5046 116.153 91.5046C115.622 91.5046 115.099 91.3735 114.631 91.1229C113.778 90.6357 113.778 89.8743 114.631 89.387C115.103 89.1511 115.625 89.0283 116.153 89.0283C116.682 89.0283 117.203 89.1511 117.676 89.387Z" fill="#9E4A9E"/>
<path d="M125.502 84.8801C125.685 84.9402 125.844 85.0564 125.957 85.2122C126.07 85.3681 126.131 85.5556 126.131 85.748C126.131 85.9404 126.07 86.1279 125.957 86.2837C125.844 86.4396 125.685 86.5558 125.502 86.6159C125.027 86.8452 124.507 86.9643 123.98 86.9643C123.452 86.9643 122.932 86.8452 122.457 86.6159C122.274 86.5558 122.115 86.4396 122.002 86.2837C121.889 86.1279 121.829 85.9404 121.829 85.748C121.829 85.5556 121.889 85.3681 122.002 85.2122C122.115 85.0564 122.274 84.9402 122.457 84.8801C122.927 84.6346 123.449 84.5064 123.98 84.5064C124.51 84.5064 125.032 84.6346 125.502 84.8801Z" fill="#9E4A9E"/>
<path d="M147.459 73.4293C148.62 73.4293 149.56 72.8839 149.56 72.2112C149.56 71.5384 148.62 70.993 147.459 70.993C146.299 70.993 145.358 71.5384 145.358 72.2112C145.358 72.8839 146.299 73.4293 147.459 73.4293Z" fill="#9E4A9E"/>
<path d="M155.286 68.9223C156.446 68.9223 157.387 68.3769 157.387 67.7042C157.387 67.0314 156.446 66.486 155.286 66.486C154.125 66.486 153.185 67.0314 153.185 67.7042C153.185 68.3769 154.125 68.9223 155.286 68.9223Z" fill="#9E4A9E"/>
<path d="M69.2549 109.517C70.4154 109.517 71.3562 108.971 71.3562 108.298C71.3562 107.626 70.4154 107.08 69.2549 107.08C68.0944 107.08 67.1536 107.626 67.1536 108.298C67.1536 108.971 68.0944 109.517 69.2549 109.517Z" fill="#9E4A9E"/>
<path d="M78.5738 102.939C78.7566 102.999 78.9157 103.115 79.0285 103.271C79.1413 103.427 79.2021 103.614 79.2021 103.807C79.2021 103.999 79.1413 104.186 79.0285 104.342C78.9157 104.498 78.7566 104.614 78.5738 104.674C78.1009 104.91 77.5796 105.033 77.0511 105.033C76.5226 105.033 76.0013 104.91 75.5284 104.674C74.6757 104.187 74.6757 103.426 75.5284 102.939C75.9969 102.688 76.5199 102.557 77.0511 102.557C77.5823 102.557 78.1054 102.688 78.5738 102.939Z" fill="#9E4A9E"/>
<path d="M109.849 84.8799C110.032 84.94 110.191 85.0562 110.304 85.2121C110.417 85.3679 110.478 85.5554 110.478 85.7478C110.478 85.9402 110.417 86.1277 110.304 86.2836C110.191 86.4394 110.032 86.5556 109.849 86.6157C109.376 86.8517 108.855 86.9745 108.327 86.9745C107.798 86.9745 107.277 86.8517 106.804 86.6157C106.621 86.5556 106.462 86.4394 106.349 86.2836C106.236 86.1277 106.176 85.9402 106.176 85.7478C106.176 85.5554 106.236 85.3679 106.349 85.2121C106.462 85.0562 106.621 84.94 106.804 84.8799C107.272 84.6293 107.796 84.4982 108.327 84.4982C108.858 84.4982 109.381 84.6293 109.849 84.8799Z" fill="#9E4A9E"/>
<path d="M117.676 80.3728C117.863 80.4233 118.029 80.5343 118.147 80.6884C118.265 80.8426 118.329 81.0314 118.329 81.2255C118.329 81.4197 118.265 81.6084 118.147 81.7626C118.029 81.9167 117.863 82.0277 117.676 82.0782C117.207 82.3288 116.684 82.4599 116.153 82.4599C115.622 82.4599 115.099 82.3288 114.631 82.0782C113.778 81.6214 113.778 80.8296 114.631 80.3728C115.099 80.1222 115.622 79.9911 116.153 79.9911C116.684 79.9911 117.207 80.1222 117.676 80.3728Z" fill="#9E4A9E"/>
<path d="M141.125 66.8209C141.308 66.881 141.467 66.9973 141.58 67.1531C141.693 67.309 141.754 67.4965 141.754 67.6889C141.754 67.8813 141.693 68.0687 141.58 68.2246C141.467 68.3804 141.308 68.4967 141.125 68.5568C140.657 68.8074 140.134 68.9385 139.603 68.9385C139.071 68.9385 138.548 68.8074 138.08 68.5568C137.897 68.4967 137.738 68.3804 137.625 68.2246C137.512 68.0687 137.452 67.8813 137.452 67.6889C137.452 67.4965 137.512 67.309 137.625 67.1531C137.738 66.9973 137.897 66.881 138.08 66.8209C138.553 66.585 139.074 66.4622 139.603 66.4622C140.131 66.4622 140.652 66.585 141.125 66.8209Z" fill="#9E4A9E"/>
<path d="M147.459 64.3847C148.62 64.3847 149.56 63.8393 149.56 63.1666C149.56 62.4938 148.62 61.9485 147.459 61.9485C146.299 61.9485 145.358 62.4938 145.358 63.1666C145.358 63.8393 146.299 64.3847 147.459 64.3847Z" fill="#9E4A9E"/>
<path d="M61.4281 105.01C62.5886 105.01 63.5294 104.464 63.5294 103.791C63.5294 103.119 62.5886 102.573 61.4281 102.573C60.2676 102.573 59.3268 103.119 59.3268 103.791C59.3268 104.464 60.2676 105.01 61.4281 105.01Z" fill="#9E4A9E"/>
<path d="M69.2549 100.502C70.4154 100.502 71.3562 99.9571 71.3562 99.2843C71.3562 98.6116 70.4154 98.0662 69.2549 98.0662C68.0944 98.0662 67.1536 98.6116 67.1536 99.2843C67.1536 99.9571 68.0944 100.502 69.2549 100.502Z" fill="#9E4A9E"/>
<path d="M102.023 80.3728C102.845 80.8296 102.845 81.6214 102.023 82.1087C101.55 82.3446 101.029 82.4674 100.5 82.4674C99.9718 82.4674 99.4505 82.3446 98.9776 82.1087C98.1554 81.6214 98.1554 80.8296 98.9776 80.3728C99.446 80.1222 99.9691 79.9911 100.5 79.9911C101.032 79.9911 101.555 80.1222 102.023 80.3728Z" fill="#9E4A9E"/>
<path d="M109.849 75.8658C110.037 75.9163 110.202 76.0273 110.321 76.1814C110.439 76.3356 110.503 76.5243 110.503 76.7185C110.503 76.9127 110.439 77.1014 110.321 77.2556C110.202 77.4097 110.037 77.5206 109.849 77.5712C109.381 77.8218 108.858 77.9529 108.327 77.9529C107.795 77.9529 107.272 77.8218 106.804 77.5712C106.617 77.5206 106.451 77.4097 106.333 77.2556C106.215 77.1014 106.151 76.9127 106.151 76.7185C106.151 76.5243 106.215 76.3356 106.333 76.1814C106.451 76.0273 106.617 75.9163 106.804 75.8658C107.272 75.6152 107.795 75.4841 108.327 75.4841C108.858 75.4841 109.381 75.6152 109.849 75.8658Z" fill="#9E4A9E"/>
<path d="M117.676 71.328C117.859 71.3881 118.018 71.5043 118.131 71.6602C118.243 71.816 118.304 72.0035 118.304 72.1959C118.304 72.3883 118.243 72.5758 118.131 72.7317C118.018 72.8875 117.859 73.0038 117.676 73.0638C117.207 73.3144 116.684 73.4455 116.153 73.4455C115.622 73.4455 115.099 73.3144 114.631 73.0638C113.778 72.5766 113.778 71.8153 114.631 71.328C115.103 71.0921 115.625 70.9692 116.153 70.9692C116.682 70.9692 117.203 71.0921 117.676 71.328Z" fill="#9E4A9E"/>
<path d="M125.502 66.8209C125.685 66.881 125.844 66.9973 125.957 67.1531C126.07 67.309 126.131 67.4965 126.131 67.6889C126.131 67.8813 126.07 68.0687 125.957 68.2246C125.844 68.3804 125.685 68.4967 125.502 68.5568C125.032 68.8023 124.51 68.9305 123.98 68.9305C123.449 68.9305 122.927 68.8023 122.457 68.5568C122.274 68.4967 122.115 68.3804 122.002 68.2246C121.889 68.0687 121.829 67.8813 121.829 67.6889C121.829 67.4965 121.889 67.309 122.002 67.1531C122.115 66.9973 122.274 66.881 122.457 66.8209C122.932 66.5917 123.452 66.4726 123.98 66.4726C124.507 66.4726 125.027 66.5917 125.502 66.8209Z" fill="#9E4A9E"/>
<path d="M133.39 62.3138C134.243 62.801 134.243 63.5624 133.39 64.0496C132.917 64.2856 132.396 64.4084 131.867 64.4084C131.339 64.4084 130.818 64.2856 130.345 64.0496C130.162 63.9896 130.003 63.8733 129.89 63.7174C129.777 63.5616 129.716 63.3741 129.716 63.1817C129.716 62.9893 129.777 62.8018 129.89 62.6459C130.003 62.4901 130.162 62.3739 130.345 62.3138C130.813 62.0632 131.336 61.9321 131.867 61.9321C132.398 61.9321 132.922 62.0632 133.39 62.3138Z" fill="#9E4A9E"/>
<path d="M141.125 57.8067C141.312 57.8573 141.478 57.9682 141.596 58.1223C141.714 58.2765 141.778 58.4653 141.778 58.6594C141.778 58.8536 141.714 59.0424 141.596 59.1965C141.478 59.3507 141.312 59.4616 141.125 59.5121C140.656 59.7627 140.133 59.8938 139.602 59.8938C139.071 59.8938 138.548 59.7627 138.079 59.5121C137.892 59.4616 137.726 59.3507 137.608 59.1965C137.49 59.0424 137.426 58.8536 137.426 58.6594C137.426 58.4653 137.49 58.2765 137.608 58.1223C137.726 57.9682 137.892 57.8573 138.079 57.8067C138.548 57.5562 139.071 57.425 139.602 57.425C140.133 57.425 140.656 57.5562 141.125 57.8067Z" fill="#9E4A9E"/>
<path d="M53.5408 100.442C54.7013 100.442 55.6421 99.8961 55.6421 99.2234C55.6421 98.5506 54.7013 98.0052 53.5408 98.0052C52.3803 98.0052 51.4395 98.5506 51.4395 99.2234C51.4395 99.8961 52.3803 100.442 53.5408 100.442Z" fill="#9E4A9E"/>
<path d="M61.3676 95.9344C62.5281 95.9344 63.4689 95.3891 63.4689 94.7163C63.4689 94.0435 62.5281 93.4982 61.3676 93.4982C60.2071 93.4982 59.2663 94.0435 59.2663 94.7163C59.2663 95.3891 60.2071 95.9344 61.3676 95.9344Z" fill="#9E4A9E"/>
<path d="M94.1353 75.8048C94.3181 75.8649 94.4773 75.9811 94.5902 76.137C94.703 76.2928 94.7637 76.4803 94.7637 76.6727C94.7637 76.8651 94.703 77.0526 94.5902 77.2085C94.4773 77.3643 94.3181 77.4806 94.1353 77.5406C93.6624 77.7766 93.1412 77.8994 92.6127 77.8994C92.0842 77.8994 91.5629 77.7766 91.09 77.5406C90.9072 77.4806 90.7481 77.3643 90.6352 77.2085C90.5224 77.0526 90.4617 76.8651 90.4617 76.6727C90.4617 76.4803 90.5224 76.2928 90.6352 76.137C90.7481 75.9811 90.9072 75.8649 91.09 75.8048C91.5584 75.5542 92.0814 75.4231 92.6127 75.4231C93.1439 75.4231 93.6669 75.5542 94.1353 75.8048Z" fill="#9E4A9E"/>
<path d="M101.962 71.2978C102.784 71.7546 102.784 72.5464 101.962 73.0336C101.489 73.2696 100.968 73.3924 100.439 73.3924C99.9108 73.3924 99.3896 73.2696 98.9167 73.0336C98.0944 72.5464 98.0944 71.7546 98.9167 71.2978C99.3851 71.0472 99.9081 70.9161 100.439 70.9161C100.971 70.9161 101.494 71.0472 101.962 71.2978Z" fill="#9E4A9E"/>
<path d="M109.789 66.7907C109.976 66.8413 110.142 66.9522 110.26 67.1063C110.378 67.2605 110.442 67.4493 110.442 67.6434C110.442 67.8376 110.378 68.0264 110.26 68.1805C110.142 68.3346 109.976 68.4456 109.789 68.4961C109.32 68.7467 108.797 68.8778 108.266 68.8778C107.735 68.8778 107.212 68.7467 106.743 68.4961C105.89 68.0393 105.89 67.2475 106.743 66.7907C107.212 66.5401 107.735 66.409 108.266 66.409C108.797 66.409 109.32 66.5401 109.789 66.7907Z" fill="#9E4A9E"/>
<path d="M117.615 62.2529C117.798 62.313 117.957 62.4293 118.07 62.5851C118.182 62.741 118.243 62.9284 118.243 63.1208C118.243 63.3133 118.182 63.5007 118.07 63.6566C117.957 63.8124 117.798 63.9287 117.615 63.9888C117.145 64.2343 116.622 64.3625 116.092 64.3625C115.562 64.3625 115.04 64.2343 114.57 63.9888C114.387 63.9287 114.228 63.8124 114.115 63.6566C114.002 63.5007 113.941 63.3133 113.941 63.1208C113.941 62.9284 114.002 62.741 114.115 62.5851C114.228 62.4293 114.387 62.313 114.57 62.2529C115.044 62.0236 115.565 61.9046 116.092 61.9046C116.619 61.9046 117.14 62.0236 117.615 62.2529Z" fill="#9E4A9E"/>
<path d="M123.919 59.8472C125.079 59.8472 126.02 59.3018 126.02 58.629C126.02 57.9563 125.079 57.4109 123.919 57.4109C122.758 57.4109 121.817 57.9563 121.817 58.629C121.817 59.3018 122.758 59.8472 123.919 59.8472Z" fill="#9E4A9E"/>
<path d="M133.39 53.2387C133.573 53.2988 133.732 53.415 133.845 53.5709C133.958 53.7267 134.018 53.9142 134.018 54.1066C134.018 54.299 133.958 54.4865 133.845 54.6424C133.732 54.7982 133.573 54.9145 133.39 54.9745C132.917 55.2105 132.396 55.3333 131.867 55.3333C131.339 55.3333 130.818 55.2105 130.345 54.9745C130.162 54.9145 130.003 54.7982 129.89 54.6424C129.777 54.4865 129.716 54.299 129.716 54.1066C129.716 53.9142 129.777 53.7267 129.89 53.5709C130.003 53.415 130.162 53.2988 130.345 53.2387C130.813 52.9881 131.336 52.857 131.867 52.857C132.398 52.857 132.922 52.9881 133.39 53.2387Z" fill="#9E4A9E"/>
<path d="M55.0333 89.3565C55.2208 89.407 55.3863 89.5179 55.5044 89.6721C55.6225 89.8262 55.6865 90.015 55.6865 90.2092C55.6865 90.4033 55.6225 90.5921 55.5044 90.7462C55.3863 90.9004 55.2208 91.0113 55.0333 91.0618C54.5649 91.3124 54.0418 91.4435 53.5106 91.4435C52.9794 91.4435 52.4564 91.3124 51.9879 91.0618C51.8005 91.0113 51.6348 90.9004 51.5167 90.7462C51.3987 90.5921 51.3347 90.4033 51.3347 90.2092C51.3347 90.015 51.3987 89.8262 51.5167 89.6721C51.6348 89.5179 51.8005 89.407 51.9879 89.3565C52.4564 89.1059 52.9794 88.9748 53.5106 88.9748C54.0418 88.9748 54.5649 89.1059 55.0333 89.3565Z" fill="#9E4A9E"/>
<path d="M62.8597 84.819C63.0424 84.8791 63.2016 84.9954 63.3144 85.1512C63.4272 85.3071 63.488 85.4946 63.488 85.687C63.488 85.8794 63.4272 86.0668 63.3144 86.2227C63.2016 86.3785 63.0424 86.4948 62.8597 86.5549C62.3912 86.8055 61.8682 86.9365 61.337 86.9365C60.8058 86.9365 60.2827 86.8055 59.8143 86.5549C59.6315 86.4948 59.4724 86.3785 59.3596 86.2227C59.2468 86.0668 59.186 85.8794 59.186 85.687C59.186 85.4946 59.2468 85.3071 59.3596 85.1512C59.4724 84.9954 59.6315 84.8791 59.8143 84.819C60.2872 84.5831 60.8085 84.4603 61.337 84.4603C61.8655 84.4603 62.3868 84.5831 62.8597 84.819Z" fill="#9E4A9E"/>
</svg>
