<svg width="185" height="161" viewBox="0 0 185 161" fill="none" xmlns="http://www.w3.org/2000/svg">
<path d="M141.608 63.2151L143.205 71.973L150.792 98.3796L163.303 91.5383C165.965 90.1807 168.095 89.0361 169.426 88.2109C172.098 86.5836 174.49 84.534 176.506 82.1416C178.304 79.9055 179.643 77.3364 180.446 74.5817C181.359 71.2895 181.79 67.8821 181.724 64.4663C181.636 58.8435 180.395 53.2986 178.077 48.1751C175.557 42.4228 172.093 37.1324 167.828 32.5228C163.493 27.727 158.426 23.6481 152.815 20.4375C149.037 18.1782 144.996 16.3903 140.783 15.1136C137.568 14.1403 134.207 13.7437 130.854 13.9423C126.938 14.4323 123.132 15.5751 119.594 17.323L94.2786 31.9371L126.222 42.026L141.608 63.2151Z" fill="white"/>
<path d="M149.381 100.11L142.247 72.2392L140.677 63.6145L125.636 42.798L92.921 31.4048L119.115 16.3914C122.765 14.5463 126.712 13.357 130.774 12.8775C134.243 12.6728 137.721 13.0783 141.049 14.0755C145.345 15.4031 149.466 17.2443 153.321 19.5591C159.005 22.8417 164.15 26.9808 168.574 31.8307C172.905 36.5408 176.422 41.9384 178.982 47.8024C181.352 53.0527 182.62 58.7332 182.709 64.4929C182.779 68.0071 182.339 71.5129 181.404 74.9011C180.585 77.8155 179.181 80.5326 177.278 82.887C175.202 85.3714 172.729 87.4943 169.958 89.1692C168.6 90.0211 166.524 91.1657 163.729 92.5765L149.381 100.11ZM96.7542 31.5911L126.781 41.0943L142.593 63.0288L144.19 71.7867L151.404 96.8889L162.824 90.6866C165.486 89.2757 167.589 88.1843 168.893 87.3591C171.48 85.7962 173.791 83.8176 175.735 81.5028C177.444 79.3759 178.719 76.9339 179.488 74.3155C180.367 71.1083 180.78 67.7911 180.712 64.4663C180.634 58.9567 179.429 53.5214 177.172 48.4945C174.689 42.8398 171.279 37.6395 167.083 33.1084C162.782 28.4258 157.78 24.4387 152.256 21.2893C148.537 19.0429 144.559 17.2552 140.41 15.9654C137.314 15.0394 134.081 14.6522 130.854 14.8208C127.058 15.3071 123.369 16.4227 119.94 18.1216L96.7542 31.5911Z" fill="#9E4A9E"/>
<path d="M158.059 154.094L95.2369 117.918V100.136L116.373 87.6519C120.475 85.2255 124.431 82.5589 128.219 79.666C129.806 78.3928 131.127 76.8188 132.105 75.0342C132.863 73.3637 133.236 71.5443 133.196 69.7103C133.216 66.9829 132.439 64.3091 130.96 62.0173C129.422 59.5951 127.298 57.5994 124.785 56.2142C122.306 54.7051 119.43 53.9813 116.533 54.1378C113.268 54.4553 110.076 55.3004 107.083 56.6401L94.2253 31.8573C97.7635 30.1093 101.57 28.9666 105.485 28.4766C108.84 28.2877 112.201 28.6933 115.414 29.6745C119.628 30.9489 123.669 32.737 127.447 34.9984C133.051 38.2185 138.117 42.2963 142.46 47.0837C146.725 51.6933 150.189 56.9837 152.708 62.736C155.027 67.8595 156.268 73.4044 156.355 79.0272C156.419 82.4517 155.989 85.8675 155.078 89.1692C154.274 91.9156 152.935 94.4758 151.138 96.7025C149.121 99.0949 146.73 101.144 144.057 102.772C137.966 106.231 131.692 109.358 125.264 112.142V112.834L158.006 131.734L158.059 154.094Z" fill="white"/>
<path d="M150.153 57.5984L175.788 43.5167L181.724 57.5984V69.6837L178.45 79.2934L170.73 87.3325L150.792 98.3796L155.637 90.8729L157.314 79.9589L156.515 71.1478L150.153 57.5984Z" fill="#9E4A9E"/>
<path d="M144.989 54.271L145.202 54.5372L170.118 39.4705C165.804 34.7712 160.805 30.7507 155.291 27.5449C151.496 25.2985 147.448 23.5113 143.232 22.221C140.018 21.2449 136.656 20.8483 133.303 21.0498C129.392 21.524 125.592 22.6676 122.069 24.4305L96.7542 39.0446C100.282 37.2938 104.08 36.1509 107.988 35.6639C111.34 35.4758 114.7 35.8721 117.917 36.8351C122.132 38.128 126.18 39.9151 129.975 42.159C135.572 45.4011 140.636 49.4864 144.989 54.271Z" fill="#F6CA52"/>
<path d="M125.317 112.195L150.632 98.2731L183.374 117.173L158.059 131.787L125.317 112.887V112.195Z" fill="white"/>
<path d="M126.355 118.291L151.67 104.369L184.412 123.269L159.097 137.883L126.355 118.983V118.291Z" fill="#F6CA52"/>
<path d="M183.374 116.028L158.059 130.643L126.834 112.594C132.931 109.933 138.876 106.938 144.643 103.624C147.413 101.949 149.887 99.8258 151.963 97.3414C153.866 94.987 155.27 92.2699 156.089 89.3556C157.024 85.9673 157.463 82.4615 157.394 78.9473C157.305 73.1876 156.037 67.5071 153.667 62.2568C151.107 56.3927 147.589 50.9952 143.259 46.2851C138.835 41.4352 133.69 37.2961 128.006 34.0135C124.151 31.6987 120.03 29.8575 115.734 28.5299C112.405 27.5327 108.928 27.1273 105.459 27.332C101.433 27.8315 97.5191 29.0012 93.8793 30.7925L92.921 31.2451L106.683 57.8646L107.535 57.492C110.416 56.1848 113.491 55.3575 116.639 55.043C119.34 54.9052 122.02 55.5822 124.332 56.9862C126.7 58.3018 128.704 60.1863 130.162 62.4698C131.476 64.5296 132.178 66.9208 132.185 69.3643C132.239 71.0596 131.902 72.7447 131.2 74.2889C130.287 75.9646 129.047 77.44 127.553 78.6279C123.812 81.5091 119.911 84.1754 115.867 86.6138L94.2254 99.3911V118.318L157.074 154.574L158.059 155.159L159.071 154.574L184.386 139.959V116.587L183.374 116.028ZM157.074 152.364L96.3549 117.226V100.616L117.038 88.3973C121.195 85.925 125.187 83.1863 128.991 80.1984C130.694 78.8521 132.1 77.166 133.117 75.2472C133.956 73.4304 134.366 71.4448 134.314 69.4441C134.313 66.6129 133.5 63.8414 131.972 61.4582C130.349 58.9025 128.117 56.7896 125.477 55.3091C122.817 53.7099 119.737 52.9492 116.639 53.1263C113.578 53.4118 110.58 54.1659 107.748 55.3624L95.7959 32.3098C98.9356 30.8203 102.299 29.858 105.752 29.4616C108.98 29.2663 112.217 29.6541 115.308 30.6062C119.454 31.9053 123.43 33.6925 127.154 35.9301C132.649 39.1194 137.622 43.1323 141.901 47.829C146.097 52.3601 149.507 57.5604 151.99 63.2151C154.247 68.242 155.451 73.6773 155.53 79.1869C155.597 82.5117 155.185 85.8289 154.306 89.0361C153.537 91.6545 152.262 94.0965 150.552 96.2234C148.609 98.5382 146.298 100.517 143.711 102.08C137.667 105.508 131.447 108.618 125.077 111.397L124.492 111.663V113.579L157.26 132.479L157.074 152.364Z" fill="#9E4A9E"/>
<path d="M151.803 97.7407H151.644L149.647 98.8055L181.378 117.173L158.059 130.642L126.834 112.594L124.172 113.446L157.58 132.666L158.086 132.932L184.412 117.759V116.587L151.803 97.7407Z" fill="#9E4A9E"/>
<path d="M145.495 47.8025C145.655 47.855 145.794 47.9566 145.892 48.0929C145.991 48.2291 146.044 48.393 146.044 48.5612C146.044 48.7294 145.991 48.8932 145.892 49.0295C145.794 49.1657 145.655 49.2673 145.495 49.3198C145.085 49.5388 144.628 49.6534 144.164 49.6534C143.699 49.6534 143.242 49.5388 142.833 49.3198C142.087 48.8939 142.087 48.2284 142.833 47.8025C143.246 47.5963 143.702 47.4889 144.164 47.4889C144.626 47.4889 145.081 47.5963 145.495 47.8025Z" fill="#9E4A9E"/>
<path d="M152.256 43.8626C152.416 43.9151 152.555 44.0167 152.654 44.153C152.752 44.2892 152.805 44.4531 152.805 44.6213C152.805 44.7894 152.752 44.9534 152.654 45.0896C152.555 45.2258 152.416 45.3274 152.256 45.3799C151.841 45.5803 151.386 45.6844 150.925 45.6844C150.464 45.6844 150.009 45.5803 149.594 45.3799C149.434 45.3274 149.295 45.2258 149.197 45.0896C149.098 44.9534 149.045 44.7894 149.045 44.6213C149.045 44.4531 149.098 44.2892 149.197 44.153C149.295 44.0167 149.434 43.9151 149.594 43.8626C150.005 43.648 150.462 43.5359 150.925 43.5359C151.389 43.5359 151.845 43.648 152.256 43.8626Z" fill="#9E4A9E"/>
<path d="M157.846 41.733C158.861 41.733 159.683 41.2563 159.683 40.6682C159.683 40.0801 158.861 39.6034 157.846 39.6034C156.832 39.6034 156.01 40.0801 156.01 40.6682C156.01 41.2563 156.832 41.733 157.846 41.733Z" fill="#9E4A9E"/>
<path d="M164.687 37.7933C165.702 37.7933 166.524 37.3166 166.524 36.7286C166.524 36.1405 165.702 35.6638 164.687 35.6638C163.673 35.6638 162.851 36.1405 162.851 36.7286C162.851 37.3166 163.673 37.7933 164.687 37.7933Z" fill="#9E4A9E"/>
<path d="M138.654 43.8627C138.813 43.9152 138.953 44.0169 139.051 44.1531C139.15 44.2893 139.203 44.4532 139.203 44.6214C139.203 44.7896 139.15 44.9535 139.051 45.0897C138.953 45.2259 138.813 45.3275 138.654 45.38C138.24 45.5863 137.785 45.6936 137.323 45.6936C136.861 45.6936 136.405 45.5863 135.992 45.38C135.832 45.3275 135.693 45.2259 135.594 45.0897C135.496 44.9535 135.442 44.7896 135.442 44.6214C135.442 44.4532 135.496 44.2893 135.594 44.1531C135.693 44.0169 135.832 43.9152 135.992 43.8627C136.401 43.6437 136.858 43.5291 137.323 43.5291C137.787 43.5291 138.244 43.6437 138.654 43.8627Z" fill="#9E4A9E"/>
<path d="M145.495 39.9231C145.655 39.9756 145.794 40.0773 145.892 40.2135C145.991 40.3497 146.044 40.5136 146.044 40.6818C146.044 40.85 145.991 41.0138 145.892 41.1501C145.794 41.2863 145.655 41.3879 145.495 41.4404C145.081 41.6467 144.626 41.754 144.164 41.754C143.702 41.754 143.246 41.6467 142.833 41.4404C142.087 41.0145 142.087 40.349 142.833 39.9231C143.242 39.7041 143.699 39.5895 144.164 39.5895C144.628 39.5895 145.085 39.7041 145.495 39.9231Z" fill="#9E4A9E"/>
<path d="M152.256 35.9833C152.42 36.0275 152.565 36.1244 152.668 36.2592C152.771 36.3939 152.827 36.5589 152.827 36.7286C152.827 36.8984 152.771 37.0634 152.668 37.1981C152.565 37.3328 152.42 37.4298 152.256 37.474C151.845 37.6886 151.389 37.8006 150.925 37.8006C150.462 37.8006 150.005 37.6886 149.594 37.474C149.43 37.4298 149.286 37.3328 149.182 37.1981C149.079 37.0634 149.023 36.8984 149.023 36.7286C149.023 36.5589 149.079 36.3939 149.182 36.2592C149.286 36.1244 149.43 36.0275 149.594 35.9833C150.005 35.7687 150.462 35.6567 150.925 35.6567C151.389 35.6567 151.845 35.7687 152.256 35.9833Z" fill="#9E4A9E"/>
<path d="M159.151 32.0169C159.896 32.4428 159.896 33.1083 159.151 33.5343C158.741 33.7533 158.284 33.8679 157.82 33.8679C157.355 33.8679 156.898 33.7533 156.489 33.5343C156.329 33.4817 156.19 33.3801 156.091 33.2439C155.992 33.1077 155.939 32.9438 155.939 32.7756C155.939 32.6074 155.992 32.4435 156.091 32.3073C156.19 32.1711 156.329 32.0694 156.489 32.0169C156.902 31.8107 157.358 31.7034 157.82 31.7034C158.282 31.7034 158.737 31.8107 159.151 32.0169Z" fill="#9E4A9E"/>
<path d="M131.812 39.9231C131.972 39.9756 132.111 40.0773 132.21 40.2135C132.308 40.3497 132.361 40.5136 132.361 40.6818C132.361 40.85 132.308 41.0138 132.21 41.1501C132.111 41.2863 131.972 41.3879 131.812 41.4404C131.399 41.6467 130.943 41.754 130.481 41.754C130.019 41.754 129.564 41.6467 129.15 41.4404C128.99 41.3879 128.851 41.2863 128.753 41.1501C128.654 41.0138 128.601 40.85 128.601 40.6818C128.601 40.5136 128.654 40.3497 128.753 40.2135C128.851 40.0773 128.99 39.9756 129.15 39.9231C129.56 39.7041 130.017 39.5895 130.481 39.5895C130.946 39.5895 131.403 39.7041 131.812 39.9231Z" fill="#9E4A9E"/>
<path d="M138.654 35.9835C138.817 36.0276 138.962 36.1246 139.065 36.2593C139.169 36.3941 139.225 36.5591 139.225 36.7288C139.225 36.8985 139.169 37.0635 139.065 37.1983C138.962 37.333 138.817 37.43 138.654 37.4741C138.244 37.6932 137.787 37.8078 137.323 37.8078C136.858 37.8078 136.401 37.6932 135.992 37.4741C135.828 37.43 135.683 37.333 135.58 37.1983C135.477 37.0635 135.421 36.8985 135.421 36.7288C135.421 36.5591 135.477 36.3941 135.58 36.2593C135.683 36.1246 135.828 36.0276 135.992 35.9835C136.401 35.7644 136.858 35.6498 137.323 35.6498C137.787 35.6498 138.244 35.7644 138.654 35.9835Z" fill="#9E4A9E"/>
<path d="M145.495 32.0169C145.655 32.0694 145.794 32.1711 145.892 32.3073C145.991 32.4435 146.044 32.6074 146.044 32.7756C146.044 32.9438 145.991 33.1077 145.892 33.2439C145.794 33.3801 145.655 33.4817 145.495 33.5343C145.085 33.7533 144.628 33.8679 144.164 33.8679C143.699 33.8679 143.242 33.7533 142.833 33.5343C142.087 33.1083 142.087 32.4428 142.833 32.0169C143.246 31.8107 143.702 31.7034 144.164 31.7034C144.626 31.7034 145.081 31.8107 145.495 32.0169Z" fill="#9E4A9E"/>
<path d="M152.256 28.0773C152.416 28.1298 152.555 28.2314 152.654 28.3676C152.752 28.5039 152.805 28.6678 152.805 28.836C152.805 29.0041 152.752 29.168 152.654 29.3042C152.555 29.4405 152.416 29.5421 152.256 29.5946C151.845 29.8092 151.389 29.9213 150.925 29.9213C150.462 29.9213 150.005 29.8092 149.594 29.5946C149.434 29.5421 149.295 29.4405 149.197 29.3042C149.098 29.168 149.045 29.0041 149.045 28.836C149.045 28.6678 149.098 28.5039 149.197 28.3676C149.295 28.2314 149.434 28.1298 149.594 28.0773C150.009 27.8769 150.464 27.7728 150.925 27.7728C151.386 27.7728 151.841 27.8769 152.256 28.0773Z" fill="#9E4A9E"/>
<path d="M124.971 35.9835C125.716 36.3828 125.716 37.0749 124.971 37.4741C124.562 37.6932 124.104 37.8078 123.64 37.8078C123.176 37.8078 122.719 37.6932 122.309 37.4741C122.145 37.43 122.001 37.333 121.897 37.1983C121.794 37.0635 121.738 36.8985 121.738 36.7288C121.738 36.5591 121.794 36.3941 121.897 36.2593C122.001 36.1246 122.145 36.0276 122.309 35.9835C122.719 35.7644 123.176 35.6498 123.64 35.6498C124.104 35.6498 124.562 35.7644 124.971 35.9835Z" fill="#9E4A9E"/>
<path d="M131.812 32.0169C131.972 32.0694 132.111 32.1711 132.21 32.3073C132.308 32.4435 132.361 32.6074 132.361 32.7756C132.361 32.9438 132.308 33.1077 132.21 33.2439C132.111 33.3801 131.972 33.4817 131.812 33.5343C131.403 33.7533 130.946 33.8679 130.481 33.8679C130.017 33.8679 129.56 33.7533 129.15 33.5343C128.99 33.4817 128.851 33.3801 128.753 33.2439C128.654 33.1077 128.601 32.9438 128.601 32.7756C128.601 32.6074 128.654 32.4435 128.753 32.3073C128.851 32.1711 128.99 32.0694 129.15 32.0169C129.564 31.8107 130.019 31.7034 130.481 31.7034C130.943 31.7034 131.399 31.8107 131.812 32.0169Z" fill="#9E4A9E"/>
<path d="M138.654 28.0773C138.813 28.1298 138.953 28.2314 139.051 28.3676C139.15 28.5039 139.203 28.6678 139.203 28.836C139.203 29.0041 139.15 29.168 139.051 29.3042C138.953 29.4405 138.813 29.5421 138.654 29.5946C138.244 29.8137 137.787 29.9282 137.323 29.9282C136.858 29.9282 136.401 29.8137 135.992 29.5946C135.832 29.5421 135.693 29.4405 135.594 29.3042C135.496 29.168 135.442 29.0041 135.442 28.836C135.442 28.6678 135.496 28.5039 135.594 28.3676C135.693 28.2314 135.832 28.1298 135.992 28.0773C136.405 27.871 136.861 27.7637 137.323 27.7637C137.785 27.7637 138.24 27.871 138.654 28.0773Z" fill="#9E4A9E"/>
<path d="M144.19 25.9478C145.205 25.9478 146.027 25.4711 146.027 24.883C146.027 24.295 145.205 23.8182 144.19 23.8182C143.176 23.8182 142.354 24.295 142.354 24.883C142.354 25.4711 143.176 25.9478 144.19 25.9478Z" fill="#9E4A9E"/>
<path d="M116.772 33.8004C117.787 33.8004 118.609 33.3237 118.609 32.7356C118.609 32.1476 117.787 31.6709 116.772 31.6709C115.758 31.6709 114.935 32.1476 114.935 32.7356C114.935 33.3237 115.758 33.8004 116.772 33.8004Z" fill="#9E4A9E"/>
<path d="M124.918 28.0506C125.082 28.0947 125.226 28.1917 125.33 28.3264C125.433 28.4612 125.489 28.6262 125.489 28.7959C125.489 28.9656 125.433 29.1306 125.33 29.2654C125.226 29.4001 125.082 29.4971 124.918 29.5412C124.508 29.7603 124.051 29.8749 123.587 29.8749C123.123 29.8749 122.665 29.7603 122.256 29.5412C122.092 29.4971 121.947 29.4001 121.844 29.2654C121.741 29.1306 121.685 28.9656 121.685 28.7959C121.685 28.6262 121.741 28.4612 121.844 28.3264C121.947 28.1917 122.092 28.0947 122.256 28.0506C122.665 27.8315 123.123 27.7169 123.587 27.7169C124.051 27.7169 124.508 27.8315 124.918 28.0506Z" fill="#9E4A9E"/>
<path d="M131.759 24.0844C131.919 24.1369 132.058 24.2385 132.156 24.3747C132.255 24.5109 132.308 24.6748 132.308 24.843C132.308 25.0112 132.255 25.1751 132.156 25.3113C132.058 25.4475 131.919 25.5492 131.759 25.6017C131.349 25.8207 130.892 25.9353 130.428 25.9353C129.964 25.9353 129.506 25.8207 129.097 25.6017C128.937 25.5492 128.798 25.4475 128.699 25.3113C128.601 25.1751 128.548 25.0112 128.548 24.843C128.548 24.6748 128.601 24.5109 128.699 24.3747C128.798 24.2385 128.937 24.1369 129.097 24.0844C129.51 23.8781 129.966 23.7708 130.428 23.7708C130.89 23.7708 131.346 23.8781 131.759 24.0844Z" fill="#9E4A9E"/>
<path d="M154.279 130.536C154.439 130.589 154.578 130.69 154.677 130.826C154.775 130.963 154.829 131.126 154.829 131.295C154.829 131.463 154.775 131.627 154.677 131.763C154.578 131.899 154.439 132.001 154.279 132.053C153.87 132.272 153.413 132.387 152.948 132.387C152.484 132.387 152.027 132.272 151.617 132.053C151.458 132.001 151.318 131.899 151.22 131.763C151.121 131.627 151.068 131.463 151.068 131.295C151.068 131.126 151.121 130.963 151.22 130.826C151.318 130.69 151.458 130.589 151.617 130.536C152.031 130.33 152.486 130.222 152.948 130.222C153.41 130.222 153.866 130.33 154.279 130.536Z" fill="#9E4A9E"/>
<path d="M161.12 126.596C161.28 126.649 161.419 126.75 161.518 126.887C161.617 127.023 161.67 127.187 161.67 127.355C161.67 127.523 161.617 127.687 161.518 127.823C161.419 127.959 161.28 128.061 161.12 128.114C160.711 128.333 160.254 128.447 159.789 128.447C159.325 128.447 158.868 128.333 158.458 128.114C157.713 127.688 157.713 127.022 158.458 126.596C158.872 126.39 159.327 126.283 159.789 126.283C160.251 126.283 160.707 126.39 161.12 126.596Z" fill="#9E4A9E"/>
<path d="M167.962 122.656C168.122 122.709 168.261 122.811 168.359 122.947C168.458 123.083 168.511 123.247 168.511 123.415C168.511 123.583 168.458 123.747 168.359 123.883C168.261 124.02 168.122 124.121 167.962 124.174C167.547 124.374 167.092 124.478 166.631 124.478C166.17 124.478 165.715 124.374 165.3 124.174C165.14 124.121 165.001 124.02 164.902 123.883C164.804 123.747 164.751 123.583 164.751 123.415C164.751 123.247 164.804 123.083 164.902 122.947C165.001 122.811 165.14 122.709 165.3 122.656C165.711 122.442 166.167 122.33 166.631 122.33C167.094 122.33 167.551 122.442 167.962 122.656Z" fill="#9E4A9E"/>
<path d="M174.776 118.717C175.522 119.116 175.522 119.808 174.776 120.234C174.363 120.44 173.907 120.548 173.445 120.548C172.983 120.548 172.528 120.44 172.114 120.234C171.395 119.808 171.395 119.116 172.114 118.717C172.524 118.498 172.981 118.383 173.445 118.383C173.91 118.383 174.367 118.498 174.776 118.717Z" fill="#9E4A9E"/>
<path d="M147.438 126.596C147.598 126.649 147.737 126.75 147.835 126.887C147.934 127.023 147.987 127.187 147.987 127.355C147.987 127.523 147.934 127.687 147.835 127.823C147.737 127.959 147.598 128.061 147.438 128.114C147.028 128.333 146.571 128.447 146.107 128.447C145.643 128.447 145.185 128.333 144.776 128.114C144.616 128.061 144.477 127.959 144.378 127.823C144.28 127.687 144.227 127.523 144.227 127.355C144.227 127.187 144.28 127.023 144.378 126.887C144.477 126.75 144.616 126.649 144.776 126.596C145.189 126.39 145.645 126.283 146.107 126.283C146.569 126.283 147.025 126.39 147.438 126.596Z" fill="#9E4A9E"/>
<path d="M152.975 124.467C153.989 124.467 154.811 123.99 154.811 123.402C154.811 122.814 153.989 122.337 152.975 122.337C151.96 122.337 151.138 122.814 151.138 123.402C151.138 123.99 151.96 124.467 152.975 124.467Z" fill="#9E4A9E"/>
<path d="M159.816 120.527C160.831 120.527 161.653 120.05 161.653 119.462C161.653 118.874 160.831 118.397 159.816 118.397C158.802 118.397 157.979 118.874 157.979 119.462C157.979 120.05 158.802 120.527 159.816 120.527Z" fill="#9E4A9E"/>
<path d="M167.962 114.777C168.126 114.821 168.27 114.918 168.374 115.053C168.477 115.188 168.533 115.353 168.533 115.523C168.533 115.692 168.477 115.857 168.374 115.992C168.27 116.127 168.126 116.224 167.962 116.268C167.551 116.482 167.094 116.595 166.631 116.595C166.167 116.595 165.711 116.482 165.3 116.268C165.136 116.224 164.991 116.127 164.888 115.992C164.785 115.857 164.729 115.692 164.729 115.523C164.729 115.353 164.785 115.188 164.888 115.053C164.991 114.918 165.136 114.821 165.3 114.777C165.711 114.563 166.167 114.45 166.631 114.45C167.094 114.45 167.551 114.563 167.962 114.777Z" fill="#9E4A9E"/>
<path d="M140.597 122.657C141.342 123.083 141.342 123.748 140.597 124.174C140.183 124.38 139.728 124.488 139.266 124.488C138.804 124.488 138.348 124.38 137.935 124.174C137.775 124.121 137.636 124.02 137.537 123.884C137.439 123.747 137.386 123.583 137.386 123.415C137.386 123.247 137.439 123.083 137.537 122.947C137.636 122.811 137.775 122.709 137.935 122.657C138.344 122.438 138.801 122.323 139.266 122.323C139.73 122.323 140.187 122.438 140.597 122.657Z" fill="#9E4A9E"/>
<path d="M146.134 120.527C147.148 120.527 147.97 120.05 147.97 119.462C147.97 118.874 147.148 118.397 146.134 118.397C145.119 118.397 144.297 118.874 144.297 119.462C144.297 120.05 145.119 120.527 146.134 120.527Z" fill="#9E4A9E"/>
<path d="M154.279 114.777C154.443 114.821 154.588 114.918 154.691 115.053C154.794 115.188 154.85 115.353 154.85 115.523C154.85 115.692 154.794 115.857 154.691 115.992C154.588 116.127 154.443 116.224 154.279 116.268C153.87 116.487 153.413 116.602 152.948 116.602C152.484 116.602 152.027 116.487 151.617 116.268C151.453 116.224 151.309 116.127 151.205 115.992C151.102 115.857 151.046 115.692 151.046 115.523C151.046 115.353 151.102 115.188 151.205 115.053C151.309 114.918 151.453 114.821 151.617 114.777C152.027 114.558 152.484 114.444 152.948 114.444C153.413 114.444 153.87 114.558 154.279 114.777Z" fill="#9E4A9E"/>
<path d="M161.12 110.811C161.28 110.863 161.419 110.965 161.518 111.101C161.617 111.237 161.67 111.401 161.67 111.569C161.67 111.738 161.617 111.902 161.518 112.038C161.419 112.174 161.28 112.276 161.12 112.328C160.711 112.547 160.254 112.662 159.789 112.662C159.325 112.662 158.868 112.547 158.458 112.328C157.713 111.902 157.713 111.237 158.458 110.811C158.872 110.605 159.327 110.497 159.789 110.497C160.251 110.497 160.707 110.605 161.12 110.811Z" fill="#9E4A9E"/>
<path d="M132.478 120.527C133.492 120.527 134.315 120.05 134.315 119.462C134.315 118.874 133.492 118.397 132.478 118.397C131.463 118.397 130.641 118.874 130.641 119.462C130.641 120.05 131.463 120.527 132.478 120.527Z" fill="#9E4A9E"/>
<path d="M139.292 116.587C140.307 116.587 141.129 116.111 141.129 115.522C141.129 114.934 140.307 114.458 139.292 114.458C138.278 114.458 137.456 114.934 137.456 115.522C137.456 116.111 138.278 116.587 139.292 116.587Z" fill="#9E4A9E"/>
<path d="M147.438 110.811C147.598 110.863 147.737 110.965 147.835 111.101C147.934 111.237 147.987 111.401 147.987 111.569C147.987 111.738 147.934 111.902 147.835 112.038C147.737 112.174 147.598 112.276 147.438 112.328C147.028 112.547 146.571 112.662 146.107 112.662C145.643 112.662 145.185 112.547 144.776 112.328C144.616 112.276 144.477 112.174 144.378 112.038C144.28 111.902 144.227 111.738 144.227 111.569C144.227 111.401 144.28 111.237 144.378 111.101C144.477 110.965 144.616 110.863 144.776 110.811C145.189 110.605 145.645 110.497 146.107 110.497C146.569 110.497 147.025 110.605 147.438 110.811Z" fill="#9E4A9E"/>
<path d="M152.975 108.708C153.989 108.708 154.811 108.231 154.811 107.643C154.811 107.055 153.989 106.578 152.975 106.578C151.96 106.578 151.138 107.055 151.138 107.643C151.138 108.231 151.96 108.708 152.975 108.708Z" fill="#9E4A9E"/>
<path d="M56.1146 7.68486L89.0104 25.1574L66.3698 37.7553L33.4435 20.3121L56.1146 7.68486Z" fill="white"/>
<path d="M63.8745 69.6463L63.5093 84.0942V143.031L30.5831 125.588L30.4918 75.49L61.227 66.651L63.8745 69.6463Z" fill="white"/>
<path d="M63.5094 144.323L29.4268 126.263V74.6386L61.7444 65.3591L65.1831 69.2353L64.818 84.1237V143.677L63.5094 144.323ZM31.77 124.825L62.2009 141.034V84.0943L62.5356 70.0576L60.6794 67.9432L31.6483 76.3125L31.77 124.825Z" fill="#9E4A9E"/>
<path d="M1.52155 67.1211L34.4173 84.5643L66.3698 37.7554L33.4436 20.3122L1.52155 67.1211Z" fill="white"/>
<path d="M56.1146 15.0263L89.0104 32.4988L66.3698 45.0967L33.4435 27.6535L56.1146 15.0263Z" fill="#F6CA52"/>
<path d="M56.0841 6.39294L32.6219 19.4607L0 67.268L0.852061 68.0608L13.9982 78.7206L46.8027 96.105L47.9287 96.5749L59.0359 80.1595C60.314 78.192 61.4704 76.2832 62.5355 74.4625C62.5355 78.7793 62.3225 83.2722 62.3225 88.1469V143.707L63.5093 144.323L90.1972 129.464V24.4822L56.0841 6.39294ZM34.0522 83.0667L3.19524 66.71L33.8392 21.8099L36.5779 23.2782L64.6961 38.1666L34.0522 83.0667ZM73.9775 32.2054L66.3393 36.4634L39.9253 22.456L35.9085 20.2829L56.1754 9.00649L86.6063 25.1576L73.9775 32.2054Z" fill="#9E4A9E"/>
<path d="M58.6709 36.1108C58.8583 36.1595 59.0237 36.2665 59.1417 36.4151C59.2597 36.5638 59.3237 36.7458 59.3237 36.933C59.3237 37.1203 59.2597 37.3023 59.1417 37.4509C59.0237 37.5996 58.8583 37.7065 58.6709 37.7553C58.2083 38.013 57.6836 38.1487 57.1494 38.1487C56.6152 38.1487 56.0904 38.013 55.6278 37.7553C55.4405 37.7065 55.275 37.5996 55.157 37.4509C55.039 37.3023 54.9751 37.1203 54.9751 36.933C54.9751 36.7458 55.039 36.5638 55.157 36.4151C55.275 36.2665 55.4405 36.1595 55.6278 36.1108C56.0904 35.8531 56.6152 35.7174 57.1494 35.7174C57.6836 35.7174 58.2083 35.8531 58.6709 36.1108Z" fill="#9E4A9E"/>
<path d="M64.9396 33.7908C66.0993 33.7908 67.0393 33.2649 67.0393 32.6162C67.0393 31.9675 66.0993 31.4416 64.9396 31.4416C63.78 31.4416 62.8399 31.9675 62.8399 32.6162C62.8399 33.2649 63.78 33.7908 64.9396 33.7908Z" fill="#9E4A9E"/>
<path d="M72.6692 29.4741C73.8288 29.4741 74.7689 28.9482 74.7689 28.2995C74.7689 27.6508 73.8288 27.1249 72.6692 27.1249C71.5095 27.1249 70.5695 27.6508 70.5695 28.2995C70.5695 28.9482 71.5095 29.4741 72.6692 29.4741Z" fill="#9E4A9E"/>
<path d="M50.9111 31.7942C51.7328 32.264 51.7328 32.9982 50.9111 33.4387C50.4485 33.6964 49.9238 33.8321 49.3896 33.8321C48.8554 33.8321 48.3307 33.6964 47.8681 33.4387C47.0464 32.9982 47.0464 32.264 47.8681 31.7942C48.3392 31.5622 48.8606 31.4412 49.3896 31.4412C49.9186 31.4412 50.44 31.5622 50.9111 31.7942Z" fill="#9E4A9E"/>
<path d="M57.18 29.4741C58.3396 29.4741 59.2797 28.9482 59.2797 28.2995C59.2797 27.6508 58.3396 27.1249 57.18 27.1249C56.0203 27.1249 55.0802 27.6508 55.0802 28.2995C55.0802 28.9482 56.0203 29.4741 57.18 29.4741Z" fill="#9E4A9E"/>
<path d="M66.3396 23.1604C66.5898 23.1604 66.8297 23.2563 67.0067 23.4271C67.1836 23.5978 67.283 23.8294 67.283 24.0708C67.283 24.3122 67.1836 24.5438 67.0067 24.7145C66.8297 24.8852 66.5898 24.9811 66.3396 24.9811C65.8684 25.2131 65.347 25.3341 64.8181 25.3341C64.2891 25.3341 63.7677 25.2131 63.2965 24.9811C63.1139 24.9232 62.9548 24.8111 62.8421 24.6608C62.7293 24.5105 62.6686 24.3297 62.6686 24.1442C62.6686 23.9587 62.7293 23.7779 62.8421 23.6276C62.9548 23.4773 63.1139 23.3652 63.2965 23.3073C63.7555 23.0522 64.2707 22.9059 64.7997 22.8804C65.3288 22.8549 65.8565 22.9508 66.3396 23.1604Z" fill="#9E4A9E"/>
<path d="M41.6904 29.4741C42.85 29.4741 43.7901 28.9482 43.7901 28.2995C43.7901 27.6508 42.85 27.1249 41.6904 27.1249C40.5307 27.1249 39.5906 27.6508 39.5906 28.2995C39.5906 28.9482 40.5307 29.4741 41.6904 29.4741Z" fill="#9E4A9E"/>
<path d="M49.4504 25.1575C50.61 25.1575 51.5501 24.6316 51.5501 23.9829C51.5501 23.3341 50.61 22.8082 49.4504 22.8082C48.2907 22.8082 47.3506 23.3341 47.3506 23.9829C47.3506 24.6316 48.2907 25.1575 49.4504 25.1575Z" fill="#9E4A9E"/>
<path d="M58.6708 18.8732C59.4925 19.3137 59.4925 20.0478 58.6708 20.5177C58.1997 20.7497 57.6782 20.8706 57.1493 20.8706C56.6203 20.8706 56.0989 20.7497 55.6277 20.5177C54.8061 20.0478 54.8061 19.3137 55.6277 18.8732C56.0903 18.6154 56.6151 18.4797 57.1493 18.4797C57.6834 18.4797 58.2082 18.6154 58.6708 18.8732Z" fill="#9E4A9E"/>
</svg>
