<svg width="185" height="161" viewBox="0 0 185 161" fill="none" xmlns="http://www.w3.org/2000/svg">
<path d="M49.8627 58.9921V88.7303L76.6823 92.3554V62.6173L49.8627 58.9921Z" fill="white"/>
<path d="M77.4811 93.6457L75.6378 93.3999V62.5251L79.5702 41.4503L110.937 37.5794L114.746 55.3056L109.523 81.2343L107.987 79.2067C107.41 78.5222 106.713 77.9495 105.929 77.517C103.664 76.2388 101.033 75.7626 98.4637 76.1653C95.3517 76.6013 92.3558 77.6452 89.6467 79.2375C84.2968 82.1912 80.1299 86.9006 77.8497 92.5704L77.4811 93.6457ZM81.5363 43.5394L78.0648 62.7401V87.3171C80.6891 83.1351 84.3233 79.6804 88.6329 77.2712C91.5987 75.4943 94.8882 74.3247 98.3101 73.8305C101.368 73.3646 104.495 73.9379 107.189 75.4587L108.294 76.1653L112.503 55.2441L109.247 40.0679L81.5363 43.5394Z" fill="#9E4A9E"/>
<path d="M89.063 78.3465C92.1351 76.534 91.4286 77.1177 91.4286 77.1177C94.5007 76.7183 88.848 69.5603 91.4286 70.9734C92.4731 71.5879 91.0292 65.9659 91.4286 66.7032L103.225 60.5589L110.783 51.8955L107.004 47.3488L99.6925 44.2767L91.4286 47.3488L83.3182 52.9708L76.8052 62.4329V92.1404C79.1758 86.2649 83.5069 81.3911 89.063 78.3465Z" fill="#9E4A9E"/>
<path d="M124.515 29.6227C130.188 32.9201 133.332 36.7397 133.947 41.0817C134.561 45.4236 132.513 50.0216 127.802 54.8755L128.202 55.1213C145.406 47.3795 160.275 47.1338 172.809 54.384C181.35 59.2994 184.667 65.1364 182.824 71.8337C180.981 78.5309 174.038 85.3817 162.026 92.3247C157.274 95.0703 152.348 97.5025 147.28 99.6056C141.581 101.887 135.73 103.765 129.769 105.228L109.185 93.3692C114.896 92.3314 120.515 90.8418 125.99 88.9146C130.474 87.3655 134.813 85.4225 138.954 83.1083C144.392 80.0362 147.587 77.2713 148.57 74.9365C149.553 72.6017 148.386 70.5126 145.099 68.7922C142.756 67.3891 140.087 66.6264 137.357 66.5803C134.203 66.669 131.086 67.2923 128.14 68.4236C123.877 70.0193 119.764 71.9933 115.852 74.3221L110.23 77.5785L91.4286 66.7339L97.1734 63.3853C109.769 56.1351 112.841 50.6462 106.39 46.9187C103.913 45.5117 101.034 44.9813 98.2179 45.4134C94.9569 45.9002 91.8246 47.0278 89.0016 48.7313C83.4291 51.8075 79.0888 56.7121 76.7131 62.6173L49.8934 59.0229C51.4353 54.2324 54.0881 49.8743 57.6352 46.3043C69.569 35.0395 84.6829 27.7239 100.921 25.3524C109.04 24.2102 117.312 25.7072 124.515 29.6227Z" fill="white"/>
<path d="M124.73 38.4704C130.404 41.7473 133.547 45.567 134.162 49.9294C134.776 54.2918 132.728 58.8898 128.017 63.7232L128.386 63.969C145.59 56.2273 160.469 55.9815 173.024 63.2317C181.534 68.1471 184.883 73.9841 183.009 80.6813C181.135 87.3785 174.222 94.2294 162.241 101.172C157.476 103.912 152.54 106.344 147.464 108.453C141.766 110.734 135.914 112.613 129.953 114.075L109.4 102.217C115.11 101.175 120.729 99.6858 126.205 97.7623C130.689 96.2132 135.028 94.2702 139.169 91.956C144.607 88.8839 147.802 86.0883 148.754 83.7842C149.707 81.4801 148.57 79.3603 145.314 77.4863C142.968 76.0911 140.3 75.329 137.572 75.2744C134.416 75.3453 131.296 75.9692 128.355 77.1177C124.092 78.7133 119.979 80.6874 116.067 83.0162L110.414 86.2726L91.7972 75.5509L97.5728 72.2023C110.148 64.9521 113.22 59.4632 106.789 55.7357C104.311 54.3332 101.433 53.8031 98.6173 54.2303C95.3563 54.7171 92.2239 55.8448 89.4009 57.5482C83.8285 60.6244 79.4882 65.5291 77.1125 71.4342L50.2621 67.8399C51.8039 63.0493 54.4567 58.6912 58.0038 55.1213C69.9377 43.8565 85.0516 36.5408 101.29 34.1694C109.362 33.0766 117.572 34.5831 124.73 38.4704Z" fill="#F6CA52"/>
<path d="M91.4286 66.7032V96.4413L110.046 107.194V77.4249L91.4286 66.7032Z" fill="white"/>
<path d="M111.182 109.191L90.3533 97.1172V66.0273L91.5207 65.3514L111.274 76.7797L111.182 109.191ZM92.5652 95.7962L108.878 105.197V78.1007L92.5652 68.7V95.7962Z" fill="#9E4A9E"/>
<path d="M129.707 105.228V134.996L109.155 123.138V93.3692L129.707 105.228Z" fill="white"/>
<path d="M173.301 53.3701C161.381 46.5193 147.28 46.2121 131.305 52.5099C132.664 50.9238 133.692 49.0824 134.331 47.0936C134.969 45.1049 135.204 43.0088 135.022 40.9281C134.377 36.2277 131.028 32.0803 125.038 28.6396C117.616 24.5803 109.085 23.0183 100.706 24.185C90.6511 25.4014 80.9668 28.7307 72.2892 33.9543C66.6075 37.0715 61.3691 40.9358 56.7136 45.4441C53.2864 48.9242 50.6737 53.1211 49.064 57.7326L48.6339 58.8078V89.7441L77.4196 93.6456L77.7883 92.6626V62.863C80.0785 57.2749 84.2078 52.6362 89.4931 49.7143C92.2029 48.1235 95.1984 47.0798 98.3101 46.6422C100.883 46.2363 103.518 46.7242 105.775 48.0247C107.588 49.0692 108.448 50.1751 108.448 51.404C108.448 53.3087 106.39 56.8109 96.559 62.4943L90.3533 66.0273V67.3483L110.138 78.7766L116.282 75.1822C120.146 72.8803 124.207 70.927 128.417 69.3452C131.278 68.2607 134.299 67.6586 137.357 67.5634C139.893 67.6256 142.371 68.3454 144.546 69.6524C148.539 71.9565 147.771 73.7997 147.618 74.5063C147.034 75.9195 144.976 78.4079 138.401 82.1252C134.309 84.3968 130.021 86.2989 125.591 87.8086C120.317 89.6772 114.903 91.1257 109.4 92.1403L108.049 92.4168V123.783L129.554 136.225L130.875 135.887V106.119C136.588 104.673 142.202 102.856 147.679 100.681C152.805 98.5591 157.783 96.0959 162.579 93.3077C174.867 86.1497 181.933 79.2374 183.899 72.1408C185.866 65.0442 182.517 58.5927 173.301 53.3701ZM75.4842 91.0344L50.9073 87.7472V60.2824L75.4842 63.6003V91.0344ZM128.509 133L110.261 122.462V95.3661L126.481 104.582L128.509 105.781V133ZM181.626 71.5571C179.844 77.9471 173.024 84.6136 161.381 91.3416C156.67 94.0853 151.773 96.4976 146.727 98.5611C141.223 100.76 135.578 102.587 129.83 104.029L119.6 98.131L112.319 93.9222C117.061 92.9388 121.731 91.6353 126.297 90.0206C130.844 88.4562 135.245 86.4926 139.446 84.1528C145.16 80.8656 148.447 78.0086 149.522 75.3973C150.352 73.4004 150.352 70.4204 145.59 67.6862C143.078 66.1852 140.221 65.3597 137.295 65.29C133.968 65.3999 130.68 66.043 127.557 67.1947C123.208 68.8529 119.023 70.9098 115.053 73.3389L109.984 76.411L93.7326 66.7339L97.7571 64.3991C106.543 59.2994 110.814 55.1827 110.814 51.3118C110.731 50.1489 110.328 49.0315 109.651 48.0828C108.973 47.1342 108.047 46.3911 106.973 45.9356C104.277 44.3904 101.136 43.8056 98.0643 44.2767C94.6459 44.7849 91.3591 45.9535 88.3871 47.7174C82.9105 50.7992 78.5943 55.5903 76.0986 61.3577L63.0728 59.6065L51.5217 58.0705C53.0674 53.9596 55.4648 50.222 58.5568 47.103C70.3218 36.0591 85.1763 28.8677 101.136 26.489C109.026 25.4011 117.056 26.8652 124.054 30.6671C129.4 33.7393 132.38 37.303 132.933 41.266C133.486 45.229 131.52 49.5607 127.065 54.1074L126.051 55.1827L128.202 56.4422L128.755 56.1965C145.529 48.6698 160.183 48.3933 172.317 55.3977C180.305 60.0366 183.408 65.3207 181.687 71.5264L181.626 71.5571Z" fill="#9E4A9E"/>
<path d="M128.57 104.644V135.672L129.554 136.225H130.014C136.025 134.733 141.926 132.835 147.679 130.542C152.81 128.444 157.789 125.99 162.579 123.2C174.867 116.041 181.933 109.129 183.899 102.033C184.184 100.97 184.339 99.8762 184.36 98.7761V67.0411L175.42 84.3064L159.875 94.8438L144.515 101.633L128.57 104.644Z" fill="#9E4A9E"/>
<path d="M145.406 67.932C142.9 66.4179 140.038 65.5913 137.111 65.5358C133.772 65.6271 130.471 66.2707 127.342 67.4405C122.999 69.1109 118.814 71.1672 114.838 73.5847L108.694 77.1791V94.9667L110.046 94.6902C115.514 93.6736 120.896 92.2356 126.143 90.3892C130.698 88.8185 135.108 86.8552 139.323 84.5215C145.037 81.2036 148.324 78.3772 149.399 75.7659C150.168 73.6462 150.168 70.6662 145.406 67.932Z" fill="#9E4A9E"/>
<path d="M131.765 50.298L130.444 51.4654C129.755 52.3095 129.129 53.2027 128.57 54.1382C128.57 55.1213 129.799 54.3225 132.257 53.4009L135.329 53.1551V41.1431L131.765 50.298Z" fill="#9E4A9E"/>
<path d="M138.678 101.725C139.15 101.473 139.678 101.34 140.214 101.34C140.75 101.34 141.277 101.473 141.75 101.725C141.934 101.786 142.095 101.903 142.209 102.06C142.322 102.218 142.384 102.407 142.384 102.601C142.384 102.795 142.322 102.984 142.209 103.141C142.095 103.299 141.934 103.416 141.75 103.476C140.859 103.937 137.848 102.217 138.678 101.725Z" fill="#9E4A9E"/>
<path d="M148.078 99.2678C149.249 99.2678 150.198 98.7176 150.198 98.039C150.198 97.3603 149.249 96.8101 148.078 96.8101C146.908 96.8101 145.958 97.3603 145.958 98.039C145.958 98.7176 146.908 99.2678 148.078 99.2678Z" fill="#9E4A9E"/>
<path d="M157.479 92.6318C157.668 92.6828 157.835 92.7947 157.954 92.9502C158.073 93.1057 158.138 93.2961 158.138 93.492C158.138 93.6879 158.073 93.8783 157.954 94.0338C157.835 94.1893 157.668 94.3012 157.479 94.3522C157.005 94.5999 156.478 94.7292 155.943 94.7292C155.408 94.7292 154.881 94.5999 154.407 94.3522C154.218 94.3012 154.051 94.1893 153.932 94.0338C153.812 93.8783 153.748 93.6879 153.748 93.492C153.748 93.2961 153.812 93.1057 153.932 92.9502C154.051 92.7947 154.218 92.6828 154.407 92.6318C154.881 92.3841 155.408 92.2548 155.943 92.2548C156.478 92.2548 157.005 92.3841 157.479 92.6318Z" fill="#9E4A9E"/>
<path d="M133.793 97.1786C134.622 97.6395 134.622 98.4382 133.793 98.9297C133.316 99.1677 132.79 99.2917 132.257 99.2917C131.724 99.2917 131.198 99.1677 130.721 98.9297C129.891 98.4382 129.891 97.6395 130.721 97.1786C131.193 96.9259 131.721 96.7936 132.257 96.7936C132.793 96.7936 133.32 96.9259 133.793 97.1786Z" fill="#9E4A9E"/>
<path d="M141.688 92.6319C141.877 92.6829 142.044 92.7949 142.164 92.9503C142.283 93.1058 142.347 93.2963 142.347 93.4922C142.347 93.688 142.283 93.8784 142.164 94.0339C142.044 94.1894 141.877 94.3013 141.688 94.3523C141.216 94.6051 140.688 94.7374 140.152 94.7374C139.616 94.7374 139.089 94.6051 138.616 94.3523C138.427 94.3013 138.26 94.1894 138.141 94.0339C138.022 93.8784 137.957 93.688 137.957 93.4922C137.957 93.2963 138.022 93.1058 138.141 92.9503C138.26 92.7949 138.427 92.6829 138.616 92.6319C139.089 92.3791 139.616 92.2469 140.152 92.2469C140.688 92.2469 141.216 92.3791 141.688 92.6319Z" fill="#9E4A9E"/>
<path d="M149.584 88.0546C149.768 88.1152 149.928 88.2325 150.042 88.3897C150.156 88.5469 150.217 88.7361 150.217 88.9302C150.217 89.1243 150.156 89.3134 150.042 89.4706C149.928 89.6278 149.768 89.7451 149.584 89.8057C149.111 90.0585 148.583 90.1907 148.047 90.1907C147.512 90.1907 146.984 90.0585 146.511 89.8057C145.651 89.3142 145.651 88.5462 146.511 88.0546C146.988 87.8166 147.514 87.6927 148.047 87.6927C148.581 87.6927 149.106 87.8166 149.584 88.0546Z" fill="#9E4A9E"/>
<path d="M114.93 80.7121C114.746 80.6515 114.585 80.5342 114.471 80.377C114.358 80.2198 114.296 80.0306 114.296 79.8365C114.296 79.6424 114.358 79.4533 114.471 79.2961C114.585 79.1389 114.746 79.0216 114.93 78.961C115.404 78.7133 115.931 78.584 116.466 78.584C117.001 78.584 117.528 78.7133 118.002 78.961C118.863 79.4525 115.821 81.1729 114.93 80.7121Z" fill="#9E4A9E"/>
<path d="M122.887 76.1345C122.698 76.0835 122.531 75.9716 122.412 75.8161C122.292 75.6606 122.228 75.4702 122.228 75.2743C122.228 75.0784 122.292 74.888 122.412 74.7325C122.531 74.577 122.698 74.4651 122.887 74.4141C123.359 74.1613 123.887 74.0291 124.423 74.0291C124.959 74.0291 125.486 74.1613 125.959 74.4141C126.819 74.8749 126.819 75.6737 125.959 76.1345C125.486 76.3873 124.959 76.5195 124.423 76.5195C123.887 76.5195 123.359 76.3873 122.887 76.1345Z" fill="#9E4A9E"/>
<path d="M108.632 76.5032C109.803 76.5032 110.752 75.9531 110.752 75.2744C110.752 74.5957 109.803 74.0456 108.632 74.0456C107.462 74.0456 106.513 74.5957 106.513 75.2744C106.513 75.9531 107.462 76.5032 108.632 76.5032Z" fill="#9E4A9E"/>
<path d="M116.497 71.9566C117.668 71.9566 118.617 71.4064 118.617 70.7278C118.617 70.0491 117.668 69.4989 116.497 69.4989C115.326 69.4989 114.377 70.0491 114.377 70.7278C114.377 71.4064 115.326 71.9566 116.497 71.9566Z" fill="#9E4A9E"/>
<path d="M102.242 69.8059C102.431 69.8569 102.599 69.9688 102.718 70.1243C102.837 70.2798 102.901 70.4702 102.901 70.6661C102.901 70.862 102.837 71.0524 102.718 71.2079C102.599 71.3634 102.431 71.4753 102.242 71.5263C101.77 71.7791 101.242 71.9113 100.706 71.9113C100.17 71.9113 99.6427 71.7791 99.1702 71.5263C98.9811 71.4753 98.814 71.3634 98.6949 71.2079C98.5758 71.0524 98.5112 70.862 98.5112 70.6661C98.5112 70.4702 98.5758 70.2798 98.6949 70.1243C98.814 69.9688 98.9811 69.8569 99.1702 69.8059C99.6427 69.5531 100.17 69.4209 100.706 69.4209C101.242 69.4209 101.77 69.5531 102.242 69.8059Z" fill="#9E4A9E"/>
<path d="M110.138 65.2901C110.322 65.3507 110.482 65.468 110.596 65.6252C110.71 65.7824 110.771 65.9716 110.771 66.1657C110.771 66.3597 110.71 66.5489 110.596 66.7061C110.482 66.8633 110.322 66.9806 110.138 67.0412C109.665 67.294 109.137 67.4263 108.601 67.4263C108.066 67.4263 107.538 67.294 107.065 67.0412C106.205 66.5497 106.205 65.7816 107.065 65.2901C107.543 65.0521 108.068 64.9282 108.601 64.9282C109.135 64.9282 109.66 65.0521 110.138 65.2901Z" fill="#9E4A9E"/>
<path d="M83.441 71.5878C83.2519 71.5368 83.0848 71.4249 82.9657 71.2694C82.8466 71.1139 82.782 70.9235 82.782 70.7276C82.782 70.5317 82.8466 70.3413 82.9657 70.1858C83.0848 70.0303 83.2519 69.9184 83.441 69.8674C83.9135 69.6146 84.4411 69.4824 84.977 69.4824C85.5129 69.4824 86.0406 69.6146 86.5131 69.8674C87.2811 70.3282 84.209 72.0793 83.441 71.5878Z" fill="#9E4A9E"/>
<path d="M91.3362 67.0412C91.1518 66.9806 90.9912 66.8633 90.8774 66.7061C90.7636 66.5489 90.7023 66.3597 90.7023 66.1657C90.7023 65.9716 90.7636 65.7824 90.8774 65.6252C90.9912 65.468 91.1518 65.3507 91.3362 65.2901C91.8132 65.0521 92.3391 64.9282 92.8722 64.9282C93.4054 64.9282 93.9312 65.0521 94.4083 65.2901C95.1763 65.7816 92.1656 67.5328 91.3362 67.0412Z" fill="#9E4A9E"/>
<path d="M78.4949 65.2592C79.3551 65.7201 79.3551 66.5188 78.4949 66.9796C78.0224 67.2324 77.4947 67.3647 76.9588 67.3647C76.4229 67.3647 75.8953 67.2324 75.4228 66.9796C75.2336 66.9286 75.0666 66.8167 74.9475 66.6612C74.8284 66.5057 74.7638 66.3153 74.7638 66.1194C74.7638 65.9235 74.8284 65.7331 74.9475 65.5776C75.0666 65.4221 75.2336 65.3102 75.4228 65.2592C75.8953 65.0064 76.4229 64.8742 76.9588 64.8742C77.4947 64.8742 78.0224 65.0064 78.4949 65.2592Z" fill="#9E4A9E"/>
<path d="M84.8849 62.8017C86.0556 62.8017 87.0046 62.2516 87.0046 61.5729C87.0046 60.8942 86.0556 60.344 84.8849 60.344C83.7141 60.344 82.7651 60.8942 82.7651 61.5729C82.7651 62.2516 83.7141 62.8017 84.8849 62.8017Z" fill="#9E4A9E"/>
<path d="M94.2857 56.1352C94.47 56.1958 94.6306 56.3131 94.7444 56.4703C94.8583 56.6275 94.9195 56.8167 94.9195 57.0108C94.9195 57.2049 94.8583 57.394 94.7444 57.5512C94.6306 57.7084 94.47 57.8257 94.2857 57.8863C93.8131 58.1391 93.2855 58.2714 92.7496 58.2714C92.2137 58.2714 91.6861 58.1391 91.2135 57.8863C91.0291 57.8257 90.8686 57.7084 90.7548 57.5512C90.641 57.394 90.5797 57.2049 90.5797 57.0108C90.5797 56.8167 90.641 56.6275 90.7548 56.4703C90.8686 56.3131 91.0291 56.1958 91.2135 56.1352C91.6906 55.8972 92.2165 55.7733 92.7496 55.7733C93.2827 55.7733 93.8086 55.8972 94.2857 56.1352Z" fill="#9E4A9E"/>
<path d="M62.7042 65.2592C62.8933 65.3102 63.0603 65.4221 63.1794 65.5776C63.2986 65.7331 63.3632 65.9235 63.3632 66.1194C63.3632 66.3153 63.2986 66.5057 63.1794 66.6612C63.0603 66.8167 62.8933 66.9286 62.7042 66.9796C62.2316 67.2324 61.704 67.3647 61.1681 67.3647C60.6322 67.3647 60.1046 67.2324 59.632 66.9796C58.7718 66.5188 58.7718 65.7201 59.632 65.2592C60.1046 65.0064 60.6322 64.8742 61.1681 64.8742C61.704 64.8742 62.2316 65.0064 62.7042 65.2592Z" fill="#9E4A9E"/>
<path d="M69.0941 62.8017C70.2648 62.8017 71.2139 62.2516 71.2139 61.5729C71.2139 60.8942 70.2648 60.344 69.0941 60.344C67.9234 60.344 66.9743 60.8942 66.9743 61.5729C66.9743 62.2516 67.9234 62.8017 69.0941 62.8017Z" fill="#9E4A9E"/>
<path d="M78.4949 56.1352C79.3551 56.6268 79.3551 57.3948 78.4949 57.8863C78.0223 58.1391 77.4947 58.2714 76.9588 58.2714C76.4229 58.2714 75.8953 58.1391 75.4228 57.8863C75.2384 57.8257 75.0778 57.7084 74.964 57.5512C74.8502 57.394 74.7889 57.2049 74.7889 57.0108C74.7889 56.8167 74.8502 56.6275 74.964 56.4703C75.0778 56.3131 75.2384 56.1958 75.4228 56.1352C75.8998 55.8972 76.4257 55.7733 76.9588 55.7733C77.492 55.7733 78.0178 55.8972 78.4949 56.1352Z" fill="#9E4A9E"/>
<path d="M86.3901 51.5884C86.5745 51.6491 86.735 51.7663 86.8488 51.9235C86.9626 52.0807 87.0239 52.2699 87.0239 52.464C87.0239 52.6581 86.9626 52.8472 86.8488 53.0045C86.735 53.1617 86.5745 53.2789 86.3901 53.3395C85.913 53.5775 85.3872 53.7014 84.854 53.7014C84.3209 53.7014 83.795 53.5775 83.318 53.3395C83.1336 53.2789 82.973 53.1617 82.8592 53.0045C82.7453 52.8472 82.6841 52.6581 82.6841 52.464C82.6841 52.2699 82.7453 52.0807 82.8592 51.9235C82.973 51.7663 83.1336 51.6491 83.318 51.5884C83.7905 51.3357 84.3181 51.2034 84.854 51.2034C85.3899 51.2034 85.9175 51.3357 86.3901 51.5884Z" fill="#9E4A9E"/>
<path d="M61.2293 58.2547C62.4 58.2547 63.3491 57.7045 63.3491 57.0258C63.3491 56.3471 62.4 55.797 61.2293 55.797C60.0586 55.797 59.1095 56.3471 59.1095 57.0258C59.1095 57.7045 60.0586 58.2547 61.2293 58.2547Z" fill="#9E4A9E"/>
<path d="M69.0941 53.6772C70.2648 53.6772 71.2139 53.1271 71.2139 52.4484C71.2139 51.7697 70.2648 51.2195 69.0941 51.2195C67.9234 51.2195 66.9743 51.7697 66.9743 52.4484C66.9743 53.1271 67.9234 53.6772 69.0941 53.6772Z" fill="#9E4A9E"/>
<path d="M78.4949 47.0414C79.3551 47.5329 79.3551 48.301 78.4949 48.7925C78.0178 49.0305 77.492 49.1544 76.9588 49.1544C76.4257 49.1544 75.8998 49.0305 75.4228 48.7925C75.2384 48.7319 75.0778 48.6146 74.964 48.4574C74.8502 48.3002 74.7889 48.1111 74.7889 47.917C74.7889 47.7229 74.8502 47.5337 74.964 47.3765C75.0778 47.2193 75.2384 47.102 75.4228 47.0414C75.8953 46.7886 76.4229 46.6563 76.9588 46.6563C77.4947 46.6563 78.0223 46.7886 78.4949 47.0414Z" fill="#9E4A9E"/>
<path d="M162.364 88.2387C162.839 87.9935 163.365 87.8656 163.9 87.8656C164.434 87.8656 164.961 87.9935 165.436 88.2387C165.62 88.2993 165.781 88.4166 165.895 88.5738C166.008 88.731 166.07 88.9202 166.07 89.1143C166.07 89.3084 166.008 89.4975 165.895 89.6547C165.781 89.8119 165.62 89.9292 165.436 89.9898C164.963 90.2426 164.436 90.3748 163.9 90.3748C163.364 90.3748 162.836 90.2426 162.364 89.9898C162.16 89.9514 161.975 89.8429 161.843 89.683C161.71 89.5231 161.637 89.322 161.637 89.1143C161.637 88.9066 161.71 88.7054 161.843 88.5455C161.975 88.3856 162.16 88.2771 162.364 88.2387Z" fill="#9E4A9E"/>
<path d="M173.301 83.569C173.485 83.6296 173.645 83.7469 173.759 83.9041C173.873 84.0613 173.934 84.2504 173.934 84.4445C173.934 84.6386 173.873 84.8278 173.759 84.985C173.645 85.1422 173.485 85.2595 173.301 85.3201C172.823 85.5581 172.298 85.682 171.764 85.682C171.231 85.682 170.705 85.5581 170.228 85.3201C170.044 85.2595 169.884 85.1422 169.77 84.985C169.656 84.8278 169.595 84.6386 169.595 84.4445C169.595 84.2504 169.656 84.0613 169.77 83.9041C169.884 83.7469 170.044 83.6296 170.228 83.569C170.701 83.3162 171.229 83.1839 171.764 83.1839C172.3 83.1839 172.828 83.3162 173.301 83.569Z" fill="#9E4A9E"/>
<path d="M178.154 80.7734C177.294 80.2819 177.294 79.5138 178.154 79.0223C178.627 78.7695 179.155 78.6372 179.69 78.6372C180.226 78.6372 180.754 78.7695 181.226 79.0223C181.995 79.5138 178.984 81.2342 178.154 80.7734Z" fill="#9E4A9E"/>
<path d="M154.468 83.5691C154.945 83.3311 155.471 83.2072 156.004 83.2072C156.538 83.2072 157.063 83.3311 157.54 83.5691C157.725 83.6297 157.885 83.747 157.999 83.9042C158.113 84.0614 158.174 84.2505 158.174 84.4446C158.174 84.6387 158.113 84.8279 157.999 84.9851C157.885 85.1423 157.725 85.2596 157.54 85.3202C157.068 85.573 156.54 85.7053 156.004 85.7053C155.469 85.7053 154.941 85.573 154.468 85.3202C154.284 85.2596 154.123 85.1423 154.01 84.9851C153.896 84.8279 153.835 84.6387 153.835 84.4446C153.835 84.2505 153.896 84.0614 154.01 83.9042C154.123 83.747 154.284 83.6297 154.468 83.5691Z" fill="#9E4A9E"/>
<path d="M165.374 79.0223C165.559 79.0829 165.719 79.2001 165.833 79.3574C165.947 79.5146 166.008 79.7038 166.008 79.8978C166.008 80.0919 165.947 80.2811 165.833 80.4383C165.719 80.5955 165.559 80.7128 165.374 80.7734C164.897 81.0114 164.371 81.1353 163.838 81.1353C163.305 81.1353 162.779 81.0114 162.302 80.7734C162.118 80.7128 161.957 80.5955 161.843 80.4383C161.73 80.2811 161.668 80.0919 161.668 79.8978C161.668 79.7038 161.73 79.5146 161.843 79.3574C161.957 79.2001 162.118 79.0829 162.302 79.0223C162.775 78.7695 163.302 78.6372 163.838 78.6372C164.374 78.6372 164.902 78.7695 165.374 79.0223Z" fill="#9E4A9E"/>
<path d="M173.301 74.4756C173.49 74.5266 173.657 74.6385 173.776 74.794C173.895 74.9495 173.96 75.1399 173.96 75.3358C173.96 75.5317 173.895 75.7221 173.776 75.8776C173.657 76.0331 173.49 76.145 173.301 76.196C172.828 76.4488 172.3 76.581 171.764 76.581C171.229 76.581 170.701 76.4488 170.228 76.196C170.039 76.145 169.872 76.0331 169.753 75.8776C169.634 75.7221 169.569 75.5317 169.569 75.3358C169.569 75.1399 169.634 74.9495 169.753 74.794C169.872 74.6385 170.039 74.5266 170.228 74.4756C170.701 74.2228 171.229 74.0906 171.764 74.0906C172.3 74.0906 172.828 74.2228 173.301 74.4756Z" fill="#9E4A9E"/>
<path d="M179.66 72.0181C180.83 72.0181 181.779 71.4679 181.779 70.7893C181.779 70.1106 180.83 69.5604 179.66 69.5604C178.489 69.5604 177.54 70.1106 177.54 70.7893C177.54 71.4679 178.489 72.0181 179.66 72.0181Z" fill="#9E4A9E"/>
<path d="M146.573 79.0223C147.045 78.7695 147.573 78.6372 148.109 78.6372C148.645 78.6372 149.172 78.7695 149.645 79.0223C149.829 79.0829 149.99 79.2001 150.104 79.3574C150.218 79.5146 150.279 79.7038 150.279 79.8978C150.279 80.0919 150.218 80.2811 150.104 80.4383C149.99 80.5955 149.829 80.7128 149.645 80.7734C149.168 81.0114 148.642 81.1353 148.109 81.1353C147.576 81.1353 147.05 81.0114 146.573 80.7734C146.388 80.7128 146.228 80.5955 146.114 80.4383C146 80.2811 145.939 80.0919 145.939 79.8978C145.939 79.7038 146 79.5146 146.114 79.3574C146.228 79.2001 146.388 79.0829 146.573 79.0223Z" fill="#9E4A9E"/>
<path d="M157.479 74.4756C157.668 74.5266 157.835 74.6385 157.954 74.794C158.073 74.9495 158.138 75.1399 158.138 75.3358C158.138 75.5317 158.073 75.7221 157.954 75.8776C157.835 76.0331 157.668 76.145 157.479 76.196C157.006 76.4488 156.479 76.581 155.943 76.581C155.407 76.581 154.879 76.4488 154.407 76.196C154.218 76.145 154.051 76.0331 153.932 75.8776C153.812 75.7221 153.748 75.5317 153.748 75.3358C153.748 75.1399 153.812 74.9495 153.932 74.794C154.051 74.6385 154.218 74.5266 154.407 74.4756C154.879 74.2228 155.407 74.0906 155.943 74.0906C156.479 74.0906 157.006 74.2228 157.479 74.4756Z" fill="#9E4A9E"/>
<path d="M165.374 69.806C166.204 70.2976 166.204 71.0963 165.374 71.5571C164.902 71.8099 164.374 71.9421 163.838 71.9421C163.302 71.9421 162.775 71.8099 162.302 71.5571C161.473 71.0963 161.473 70.2976 162.302 69.806C162.779 69.568 163.305 69.4441 163.838 69.4441C164.372 69.4441 164.897 69.568 165.374 69.806Z" fill="#9E4A9E"/>
<path d="M171.765 67.471C172.935 67.471 173.884 66.9208 173.884 66.2422C173.884 65.5635 172.935 65.0133 171.765 65.0133C170.594 65.0133 169.645 65.5635 169.645 66.2422C169.645 66.9208 170.594 67.471 171.765 67.471Z" fill="#9E4A9E"/>
<path d="M148.078 72.0181C149.249 72.0181 150.198 71.4679 150.198 70.7893C150.198 70.1106 149.249 69.5604 148.078 69.5604C146.908 69.5604 145.958 70.1106 145.958 70.7893C145.958 71.4679 146.908 72.0181 148.078 72.0181Z" fill="#9E4A9E"/>
<path d="M155.974 67.471C157.145 67.471 158.094 66.9208 158.094 66.2422C158.094 65.5635 157.145 65.0133 155.974 65.0133C154.803 65.0133 153.854 65.5635 153.854 66.2422C153.854 66.9208 154.803 67.471 155.974 67.471Z" fill="#9E4A9E"/>
<path d="M165.374 60.8048C165.559 60.8654 165.719 60.9827 165.833 61.1399C165.947 61.2971 166.008 61.4862 166.008 61.6803C166.008 61.8744 165.947 62.0636 165.833 62.2208C165.719 62.378 165.559 62.4953 165.374 62.5559C164.897 62.7939 164.371 62.9178 163.838 62.9178C163.305 62.9178 162.779 62.7939 162.302 62.5559C162.118 62.4953 161.957 62.378 161.843 62.2208C161.73 62.0636 161.668 61.8744 161.668 61.6803C161.668 61.4862 161.73 61.2971 161.843 61.1399C161.957 60.9827 162.118 60.8654 162.302 60.8048C162.775 60.552 163.302 60.4198 163.838 60.4198C164.374 60.4198 164.902 60.552 165.374 60.8048Z" fill="#9E4A9E"/>
<path d="M130.782 69.8061C131.256 69.5585 131.783 69.4291 132.318 69.4291C132.853 69.4291 133.38 69.5585 133.854 69.8061C134.044 69.8571 134.211 69.969 134.33 70.1245C134.449 70.28 134.513 70.4704 134.513 70.6663C134.513 70.8622 134.449 71.0526 134.33 71.2081C134.211 71.3636 134.044 71.4755 133.854 71.5265C133.382 71.7793 132.854 71.9115 132.318 71.9115C131.783 71.9115 131.255 71.7793 130.782 71.5265C129.953 71.1886 129.953 70.3898 130.782 69.8061Z" fill="#9E4A9E"/>
<path d="M140.214 67.471C141.385 67.471 142.334 66.9208 142.334 66.2422C142.334 65.5635 141.385 65.0133 140.214 65.0133C139.043 65.0133 138.094 65.5635 138.094 66.2422C138.094 66.9208 139.043 67.471 140.214 67.471Z" fill="#9E4A9E"/>
<path d="M149.615 60.8047C149.799 60.8653 149.96 60.9825 150.073 61.1397C150.187 61.297 150.248 61.4861 150.248 61.6802C150.248 61.8743 150.187 62.0635 150.073 62.2207C149.96 62.3779 149.799 62.4951 149.615 62.5558C149.136 62.787 148.61 62.9071 148.079 62.9071C147.547 62.9071 147.021 62.787 146.542 62.5558C146.358 62.4951 146.198 62.3779 146.084 62.2207C145.97 62.0635 145.909 61.8743 145.909 61.6802C145.909 61.4861 145.97 61.297 146.084 61.1397C146.198 60.9825 146.358 60.8653 146.542 60.8047C147.017 60.557 147.544 60.4276 148.079 60.4276C148.613 60.4276 149.14 60.557 149.615 60.8047Z" fill="#9E4A9E"/>
<path d="M122.918 65.3516C123.395 65.1136 123.92 64.9897 124.454 64.9897C124.987 64.9897 125.513 65.1136 125.99 65.3516C126.174 65.4122 126.335 65.5294 126.448 65.6867C126.562 65.8439 126.623 66.0331 126.623 66.2272C126.623 66.4213 126.562 66.6104 126.448 66.7676C126.335 66.9248 126.174 67.0421 125.99 67.1027C125.517 67.3555 124.989 67.4877 124.454 67.4877C123.918 67.4877 123.39 67.3555 122.918 67.1027C122.088 66.734 122.088 65.8431 122.918 65.3516Z" fill="#9E4A9E"/>
<path d="M114.93 60.8046C115.407 60.5666 115.933 60.4426 116.466 60.4426C116.999 60.4426 117.525 60.5666 118.002 60.8046C118.187 60.8652 118.347 60.9824 118.461 61.1397C118.575 61.2969 118.636 61.486 118.636 61.6801C118.636 61.8742 118.575 62.0634 118.461 62.2206C118.347 62.3778 118.187 62.4951 118.002 62.5557C117.53 62.8084 117.002 62.9407 116.466 62.9407C115.93 62.9407 115.403 62.8084 114.93 62.5557C114.746 62.4951 114.585 62.3778 114.471 62.2206C114.358 62.0634 114.296 61.8742 114.296 61.6801C114.296 61.486 114.358 61.2969 114.471 61.1397C114.585 60.9824 114.746 60.8652 114.93 60.8046Z" fill="#9E4A9E"/>
<path d="M125.928 56.2578C126.758 56.7186 126.758 57.5173 125.928 58.0089C125.451 58.2469 124.925 58.3708 124.392 58.3708C123.859 58.3708 123.333 58.2469 122.856 58.0089C122.027 57.5173 122.027 56.7186 122.856 56.2578C123.329 56.005 123.856 55.8727 124.392 55.8727C124.928 55.8727 125.456 56.005 125.928 56.2578Z" fill="#9E4A9E"/>
<path d="M107.127 56.2578C107.599 56.005 108.127 55.8727 108.663 55.8727C109.199 55.8727 109.726 56.005 110.199 56.2578C111.029 56.7493 111.059 57.5173 110.199 58.0089C109.722 58.2469 109.196 58.3708 108.663 58.3708C108.13 58.3708 107.604 58.2469 107.127 58.0089C106.943 57.9483 106.782 57.831 106.668 57.6738C106.554 57.5165 106.493 57.3274 106.493 57.1333C106.493 56.9392 106.554 56.7501 106.668 56.5929C106.782 56.4357 106.943 56.3184 107.127 56.2578Z" fill="#9E4A9E"/>
<path d="M118.002 51.7111C118.863 52.1719 118.863 52.9706 118.002 53.4315C117.53 53.6842 117.002 53.8165 116.466 53.8165C115.93 53.8165 115.403 53.6842 114.93 53.4315C114.741 53.3805 114.574 53.2686 114.455 53.1131C114.336 52.9576 114.271 52.7672 114.271 52.5713C114.271 52.3754 114.336 52.185 114.455 52.0295C114.574 51.874 114.741 51.7621 114.93 51.7111C115.403 51.4583 115.93 51.326 116.466 51.326C117.002 51.326 117.53 51.4583 118.002 51.7111Z" fill="#9E4A9E"/>
<path d="M125.928 47.1337C126.113 47.1943 126.273 47.3116 126.387 47.4689C126.501 47.6261 126.562 47.8152 126.562 48.0093C126.562 48.2034 126.501 48.3925 126.387 48.5497C126.273 48.707 126.113 48.8243 125.928 48.8849C125.456 49.1377 124.928 49.2699 124.392 49.2699C123.856 49.2699 123.329 49.1377 122.856 48.8849C122.672 48.8243 122.511 48.707 122.397 48.5497C122.284 48.3925 122.222 48.2034 122.222 48.0093C122.222 47.8152 122.284 47.6261 122.397 47.4689C122.511 47.3116 122.672 47.1943 122.856 47.1337C123.333 46.8957 123.859 46.7718 124.392 46.7718C124.925 46.7718 125.451 46.8957 125.928 47.1337Z" fill="#9E4A9E"/>
<path d="M99.1702 51.6497C99.6472 51.4117 100.173 51.2878 100.706 51.2878C101.239 51.2878 101.765 51.4117 102.242 51.6497C102.427 51.7103 102.587 51.8276 102.701 51.9848C102.815 52.142 102.876 52.3311 102.876 52.5252C102.876 52.7193 102.815 52.9085 102.701 53.0657C102.587 53.2229 102.427 53.3402 102.242 53.4008C101.77 53.6536 101.242 53.7859 100.706 53.7859C100.17 53.7859 99.6427 53.6536 99.1702 53.4008C98.9858 53.3402 98.8253 53.2229 98.7114 53.0657C98.5976 52.9085 98.5363 52.7193 98.5363 52.5252C98.5363 52.3311 98.5976 52.142 98.7114 51.9848C98.8253 51.8276 98.9858 51.7103 99.1702 51.6497Z" fill="#9E4A9E"/>
<path d="M110.076 47.1029C110.26 47.1635 110.421 47.2807 110.535 47.438C110.649 47.5952 110.71 47.7844 110.71 47.9785C110.71 48.1725 110.649 48.3617 110.535 48.5189C110.421 48.6761 110.26 48.7934 110.076 48.854C109.599 49.092 109.073 49.2159 108.54 49.2159C108.007 49.2159 107.481 49.092 107.004 48.854C106.82 48.7934 106.659 48.6761 106.545 48.5189C106.431 48.3617 106.37 48.1725 106.37 47.9785C106.37 47.7844 106.431 47.5952 106.545 47.438C106.659 47.2807 106.82 47.1635 107.004 47.1029C107.476 46.8501 108.004 46.7178 108.54 46.7178C109.076 46.7178 109.603 46.8501 110.076 47.1029Z" fill="#9E4A9E"/>
<path d="M118.002 42.5562C118.191 42.6072 118.359 42.7191 118.478 42.8746C118.597 43.0301 118.661 43.2205 118.661 43.4164C118.661 43.6123 118.597 43.8027 118.478 43.9582C118.359 44.1137 118.191 44.2256 118.002 44.2766C117.53 44.5294 117.002 44.6616 116.466 44.6616C115.93 44.6616 115.403 44.5294 114.93 44.2766C114.741 44.2256 114.574 44.1137 114.455 43.9582C114.336 43.8027 114.271 43.6123 114.271 43.4164C114.271 43.2205 114.336 43.0301 114.455 42.8746C114.574 42.7191 114.741 42.6072 114.93 42.5562C115.403 42.3034 115.93 42.1712 116.466 42.1712C117.002 42.1712 117.53 42.3034 118.002 42.5562Z" fill="#9E4A9E"/>
<path d="M91.2746 47.1029C91.7472 46.8501 92.2748 46.7178 92.8107 46.7178C93.3466 46.7178 93.8742 46.8501 94.3468 47.1029C95.207 47.5944 95.207 48.3624 94.3468 48.854C93.8677 49.0853 93.3427 49.2054 92.8107 49.2054C92.2788 49.2054 91.7537 49.0853 91.2746 48.854C91.0903 48.7934 90.9297 48.6761 90.8159 48.5189C90.702 48.3617 90.6408 48.1725 90.6408 47.9785C90.6408 47.7844 90.702 47.5952 90.8159 47.438C90.9297 47.2807 91.0903 47.1635 91.2746 47.1029Z" fill="#9E4A9E"/>
<path d="M102.212 42.5564C102.401 42.6074 102.568 42.7193 102.687 42.8748C102.806 43.0303 102.871 43.2207 102.871 43.4166C102.871 43.6125 102.806 43.8029 102.687 43.9584C102.568 44.1139 102.401 44.2258 102.212 44.2768C101.737 44.5244 101.21 44.6538 100.676 44.6538C100.141 44.6538 99.6136 44.5244 99.1395 44.2768C98.9503 44.2258 98.7833 44.1139 98.6642 43.9584C98.5451 43.8029 98.4805 43.6125 98.4805 43.4166C98.4805 43.2207 98.5451 43.0303 98.6642 42.8748C98.7833 42.7193 98.9503 42.6074 99.1395 42.5564C99.6136 42.3087 100.141 42.1794 100.676 42.1794C101.21 42.1794 101.737 42.3087 102.212 42.5564Z" fill="#9E4A9E"/>
<path d="M110.076 37.9789C110.26 38.0395 110.421 38.1568 110.535 38.314C110.649 38.4712 110.71 38.6603 110.71 38.8544C110.71 39.0485 110.649 39.2377 110.535 39.3949C110.421 39.5521 110.26 39.6694 110.076 39.73C109.603 39.9828 109.076 40.115 108.54 40.115C108.004 40.115 107.476 39.9828 107.004 39.73C106.82 39.6694 106.659 39.5521 106.545 39.3949C106.431 39.2377 106.37 39.0485 106.37 38.8544C106.37 38.6603 106.431 38.4712 106.545 38.314C106.659 38.1568 106.82 38.0395 107.004 37.9789C107.481 37.7409 108.007 37.617 108.54 37.617C109.073 37.617 109.599 37.7409 110.076 37.9789Z" fill="#9E4A9E"/>
<path d="M83.3793 42.5564C83.8535 42.3087 84.3805 42.1794 84.9154 42.1794C85.4503 42.1794 85.9773 42.3087 86.4514 42.5564C86.6406 42.6074 86.8077 42.7193 86.9268 42.8748C87.0459 43.0303 87.1104 43.2207 87.1104 43.4166C87.1104 43.6125 87.0459 43.8029 86.9268 43.9584C86.8077 44.1139 86.6406 44.2258 86.4514 44.2768C85.9765 44.5219 85.4498 44.6499 84.9154 44.6499C84.3809 44.6499 83.8542 44.5219 83.3793 44.2768C82.5498 43.816 82.5498 43.0479 83.3793 42.5564Z" fill="#9E4A9E"/>
<path d="M94.3161 37.9789C94.5004 38.0395 94.661 38.1568 94.7748 38.314C94.8887 38.4712 94.9499 38.6603 94.9499 38.8544C94.9499 39.0485 94.8887 39.2377 94.7748 39.3949C94.661 39.5521 94.5004 39.6694 94.3161 39.73C93.8435 39.9828 93.3159 40.115 92.78 40.115C92.2441 40.115 91.7165 39.9828 91.2439 39.73C90.3837 39.2385 90.3837 38.4704 91.2439 37.9789C91.721 37.7409 92.2468 37.617 92.78 37.617C93.3131 37.617 93.839 37.7409 94.3161 37.9789Z" fill="#9E4A9E"/>
<path d="M57.415 12.9493L90.3108 30.4218L67.6702 43.0197L34.744 25.5765L57.415 12.9493Z" fill="white"/>
<path d="M65.175 74.9107L64.8098 89.3586V148.295L31.8836 130.852L31.7923 80.7544L62.5275 71.9154L65.175 74.9107Z" fill="white"/>
<path d="M64.8099 149.588L30.7273 131.528V79.903L63.0449 70.6235L66.4836 74.4998L66.1184 89.3881V148.942L64.8099 149.588ZM33.0705 130.089L63.5014 146.299V89.3588L63.8361 75.322L61.9798 73.2077L32.9487 81.5769L33.0705 130.089Z" fill="#9E4A9E"/>
<path d="M2.82204 72.3855L35.7178 89.8287L67.6703 43.0198L34.744 25.5767L2.82204 72.3855Z" fill="white"/>
<path d="M57.415 20.2907L90.3108 37.7632L67.6702 50.3611L34.744 32.9179L57.415 20.2907Z" fill="#F6CA52"/>
<path d="M57.3847 11.6574L33.9224 24.7251L1.30051 72.5324L2.15257 73.3252L15.2987 83.985L48.1032 101.369L49.2292 101.839L60.3364 85.4239C61.6145 83.4564 62.7709 81.5476 63.836 79.727C63.836 84.0437 63.623 88.5367 63.623 93.4114V148.971L64.8098 149.588L91.4977 134.729V29.7466L57.3847 11.6574ZM35.3527 88.3311L4.49575 71.9744L35.1397 27.0743L37.8784 28.5426L65.9966 43.431L35.3527 88.3311ZM75.278 37.4698L67.6399 41.7278L41.2258 27.7204L37.209 25.5473L57.4759 14.2709L87.9068 30.422L75.278 37.4698Z" fill="#9E4A9E"/>
<path d="M59.9714 41.3752C60.1588 41.424 60.3242 41.5309 60.4422 41.6796C60.5602 41.8282 60.6242 42.0102 60.6242 42.1975C60.6242 42.3847 60.5602 42.5667 60.4422 42.7154C60.3242 42.864 60.1588 42.9709 59.9714 43.0197C59.5088 43.2774 58.9841 43.4131 58.4499 43.4131C57.9157 43.4131 57.3909 43.2774 56.9283 43.0197C56.741 42.9709 56.5755 42.864 56.4575 42.7154C56.3395 42.5667 56.2756 42.3847 56.2756 42.1975C56.2756 42.0102 56.3395 41.8282 56.4575 41.6796C56.5755 41.5309 56.741 41.424 56.9283 41.3752C57.3909 41.1175 57.9157 40.9818 58.4499 40.9818C58.9841 40.9818 59.5088 41.1175 59.9714 41.3752Z" fill="#9E4A9E"/>
<path d="M66.2401 39.0553C67.3998 39.0553 68.3398 38.5294 68.3398 37.8806C68.3398 37.2319 67.3998 36.706 66.2401 36.706C65.0805 36.706 64.1404 37.2319 64.1404 37.8806C64.1404 38.5294 65.0805 39.0553 66.2401 39.0553Z" fill="#9E4A9E"/>
<path d="M73.9697 34.7386C75.1293 34.7386 76.0694 34.2127 76.0694 33.5639C76.0694 32.9152 75.1293 32.3893 73.9697 32.3893C72.81 32.3893 71.8699 32.9152 71.8699 33.5639C71.8699 34.2127 72.81 34.7386 73.9697 34.7386Z" fill="#9E4A9E"/>
<path d="M52.2117 37.0586C53.0333 37.5285 53.0333 38.2626 52.2117 38.7031C51.749 38.9608 51.2243 39.0965 50.6901 39.0965C50.1559 39.0965 49.6312 38.9608 49.1686 38.7031C48.3469 38.2626 48.3469 37.5285 49.1686 37.0586C49.6397 36.8266 50.1611 36.7056 50.6901 36.7056C51.2191 36.7056 51.7405 36.8266 52.2117 37.0586Z" fill="#9E4A9E"/>
<path d="M58.4805 34.7386C59.6401 34.7386 60.5802 34.2127 60.5802 33.5639C60.5802 32.9152 59.6401 32.3893 58.4805 32.3893C57.3208 32.3893 56.3807 32.9152 56.3807 33.5639C56.3807 34.2127 57.3208 34.7386 58.4805 34.7386Z" fill="#9E4A9E"/>
<path d="M67.6401 28.4249C67.8903 28.4249 68.1302 28.5208 68.3071 28.6915C68.484 28.8622 68.5834 29.0938 68.5834 29.3352C68.5834 29.5766 68.484 29.8082 68.3071 29.9789C68.1302 30.1496 67.8903 30.2455 67.6401 30.2455C67.1689 30.4776 66.6475 30.5985 66.1185 30.5985C65.5896 30.5985 65.0681 30.4776 64.597 30.2455C64.4143 30.1876 64.2553 30.0755 64.1426 29.9252C64.0298 29.7749 63.9691 29.5941 63.9691 29.4086C63.9691 29.2231 64.0298 29.0423 64.1426 28.892C64.2553 28.7417 64.4143 28.6296 64.597 28.5717C65.056 28.3166 65.5712 28.1703 66.1002 28.1448C66.6292 28.1193 67.157 28.2153 67.6401 28.4249Z" fill="#9E4A9E"/>
<path d="M42.9909 34.7386C44.1505 34.7386 45.0906 34.2127 45.0906 33.5639C45.0906 32.9152 44.1505 32.3893 42.9909 32.3893C41.8312 32.3893 40.8911 32.9152 40.8911 33.5639C40.8911 34.2127 41.8312 34.7386 42.9909 34.7386Z" fill="#9E4A9E"/>
<path d="M50.7509 30.4219C51.9105 30.4219 52.8506 29.896 52.8506 29.2473C52.8506 28.5986 51.9105 28.0727 50.7509 28.0727C49.5912 28.0727 48.6512 28.5986 48.6512 29.2473C48.6512 29.896 49.5912 30.4219 50.7509 30.4219Z" fill="#9E4A9E"/>
<path d="M59.9713 24.1376C60.7929 24.5781 60.7929 25.3122 59.9713 25.7821C59.5002 26.0141 58.9787 26.1351 58.4498 26.1351C57.9208 26.1351 57.3994 26.0141 56.9282 25.7821C56.1066 25.3122 56.1066 24.5781 56.9282 24.1376C57.3908 23.8799 57.9156 23.7442 58.4498 23.7442C58.9839 23.7442 59.5087 23.8799 59.9713 24.1376Z" fill="#9E4A9E"/>
</svg>
