<svg width="185" height="161" viewBox="0 0 185 161" fill="none" xmlns="http://www.w3.org/2000/svg">
<path d="M141.719 76.3227L112.121 69.7686L88.1785 62.1071L67.2292 45.6768V73.4796C67.3955 77.1834 68.587 80.7682 70.6708 83.8346C74.8208 90.3389 83.1208 97.1923 95.5707 104.395C107.03 111.245 120.003 115.162 133.339 115.797C145.562 116.44 157.71 113.541 168.325 107.448C178.301 101.701 183.199 95.5962 183.019 89.1318V60.9698L165.063 69.2598L141.719 76.3227Z" fill="white"/>
<path d="M136.123 116.995H133.13C119.669 116.288 106.582 112.312 95.0021 105.413C82.4624 98.17 74.0526 91.137 69.7131 84.4631C67.658 81.3937 66.4218 77.8497 66.1219 74.168V43.4023L88.6873 61.1794L112.629 68.781L141.839 75.2454L164.734 68.2423L184.157 59.264V89.1917C184.336 96.0452 179.189 102.539 168.924 108.465C158.953 114.199 147.623 117.145 136.123 116.995ZM68.3065 73.0008V73.4797C68.5016 76.9651 69.6281 80.3343 71.5686 83.2361C75.6089 89.5508 83.8689 96.3444 96.1094 103.407C107.374 110.14 120.114 114.014 133.22 114.69C145.225 115.305 157.153 112.448 167.577 106.46C177.094 100.983 181.852 95.1473 181.703 89.1618V62.7057L165.362 70.3373L141.749 77.5499L111.821 70.9358L87.3406 63.0649L68.2467 48.101L68.3065 73.0008Z" fill="#9E4A9E"/>
<path d="M94.6728 42.3549C94.2539 46.6944 97.9051 51.3332 105.537 56.1216L106.285 55.7026C103.033 49.5575 105.457 44.1605 113.557 39.5117C116.178 38.0104 118.933 36.7579 121.787 35.7708V21.9143C116.823 23.8788 112.011 26.2095 107.392 28.8874C99.3116 33.5561 95.0918 38.0453 94.6728 42.3549Z" fill="white"/>
<path d="M95.5707 75.395C83.1208 68.1724 74.8208 61.319 70.6708 54.8347C68.6626 52.1336 67.4711 48.9132 67.2377 45.5554C67.0043 42.1977 67.7388 38.8434 69.354 35.8904C72.6061 29.7453 79.3299 23.7597 89.5252 17.9338C93.9729 15.4308 98.5593 13.1826 103.262 11.2001L122.146 22.0938C117.177 24.07 112.357 26.4004 107.721 29.0669C99.6708 33.7356 95.4211 38.2248 95.032 42.5344C94.643 46.844 98.2342 51.5127 105.896 56.3011L106.644 55.8821C103.382 49.8966 105.806 44.3599 113.886 39.6912C121.812 35.1094 130.904 32.9455 140.043 33.4663C149.896 33.9986 159.47 36.9264 167.936 41.9957C177.752 47.662 182.74 53.7273 182.9 60.1917C183.059 66.6561 178.161 72.7613 168.205 78.5074C157.63 84.5847 145.519 87.4643 133.339 86.7974C120.003 86.162 107.03 82.2455 95.5707 75.395ZM151.895 62.4363C151.565 60.4012 149.261 58.1566 145.041 55.7026C137.799 51.5127 131.364 51.0638 125.738 54.296C122.984 55.912 152.194 64.5013 151.895 62.4363Z" fill="white"/>
<path d="M167.936 50.8842C159.47 45.8149 149.896 42.8872 140.043 42.3548C130.904 41.8341 121.812 43.9979 113.886 48.5798C105.806 53.2485 103.382 58.6654 106.644 64.7706L105.896 65.1896C98.2342 60.3414 94.613 55.7624 95.032 51.4528C95.4211 47.1133 99.6708 42.6242 107.721 37.9854C112.35 35.2975 117.172 32.9567 122.147 30.9823L103.412 20.0886C98.7089 22.0711 94.1226 24.3193 89.675 26.8224C79.4995 32.8079 72.7758 38.7934 69.5037 44.779C69.0906 45.5207 68.7305 46.2907 68.4263 47.0834V59.0544C69.0548 60.7204 69.8573 62.3154 70.8204 63.813C74.9704 70.2973 83.2704 77.1507 95.7203 84.3733C107.139 91.1898 120.057 95.0952 133.339 95.7458C145.565 96.4181 157.721 93.5167 168.325 87.396C178.301 81.6698 183.199 75.5646 183.019 69.0802C182.84 62.5959 177.812 56.5306 167.936 50.8842ZM148.513 76.6819C145.333 78.3446 141.697 78.9226 138.158 78.3279C133.88 77.8044 129.754 76.409 126.037 74.2278C124.932 73.7487 123.966 72.9982 123.228 72.046C122.49 71.0938 122.005 69.9707 121.817 68.7809C121.817 66.686 122.984 64.8605 125.738 63.2444C131.364 60.0122 137.709 60.4611 145.041 64.651C149.261 67.105 151.565 69.3496 151.895 71.3847C152.224 73.4198 151.087 75.2154 148.513 76.6819Z" fill="#F6CA52"/>
<path d="M145.61 54.7449C138.008 50.3754 131.155 49.8966 125.169 53.3383C122.176 55.1639 120.5 57.3486 120.68 59.8924C120.883 61.2705 121.431 62.5748 122.274 63.6841C123.116 64.7934 124.225 65.6716 125.498 66.2371C129.341 68.503 133.61 69.9499 138.038 70.4869C139.031 70.6069 140.031 70.6668 141.031 70.6664C143.863 70.7469 146.664 70.0647 149.141 68.6912C150.405 68.1905 151.472 67.2916 152.179 66.1306C152.887 64.9695 153.196 63.6096 153.062 62.2568C152.613 59.8326 150.189 57.3785 145.61 54.7449ZM147.944 66.716C144.979 68.2466 141.6 68.7818 138.307 68.2423C134.176 67.7306 130.193 66.3759 126.606 64.2619C125.663 63.8679 124.834 63.246 124.191 62.452C123.549 61.658 123.113 60.7167 122.925 59.7129C122.925 58.0669 123.912 56.7201 126.306 55.2537C128.503 53.937 131.018 53.2437 133.579 53.2485C137.447 53.4059 141.205 54.5829 144.473 56.6602C149.351 59.4734 150.458 61.4187 150.787 62.6458C150.847 63.1845 151.296 64.9203 147.944 66.7459V66.716Z" fill="#9E4A9E"/>
<path d="M168.505 40.9482C159.864 35.8103 150.111 32.8331 140.073 32.2692C134.273 31.9859 128.468 32.7254 122.925 34.4539V21.1959L121.967 20.6572L103.412 9.88327L102.873 10.1227C98.1333 12.1315 93.5075 14.3994 89.0166 16.9163C78.7215 22.9018 71.7783 29.0669 68.4264 35.3517C66.7205 38.4813 65.9412 42.032 66.1797 45.5883C66.4182 49.1446 67.6646 52.5595 69.7732 55.4332C74.0229 62.0772 82.5223 69.1102 95.062 76.3826C106.651 83.2872 119.748 87.2626 133.22 87.9646H136.213C147.654 88.0612 158.914 85.1067 168.834 79.4053C179.099 73.4198 184.247 66.9554 184.067 60.072C183.887 53.1887 178.62 46.814 168.505 40.9482ZM167.607 77.4899C157.209 83.4584 145.313 86.3054 133.34 85.6901C120.235 85.0087 107.495 81.1355 96.2292 74.4074C83.9888 67.3444 75.7287 60.5508 71.6885 54.2361C69.7616 51.6867 68.6169 48.6323 68.3938 45.4444C68.1706 42.2565 68.8786 39.0725 70.4316 36.2795C73.574 30.2939 80.2179 24.488 90.1838 18.7418C94.4296 16.345 98.8059 14.1869 103.292 12.2775L119.423 21.6149C115.118 23.3953 110.939 25.465 106.913 27.8099C98.4439 32.6881 94.1043 37.3868 93.6554 42.1453C93.2065 46.9038 96.9176 51.812 105.028 56.9296L105.597 57.3186L105.866 57.4982L108.14 56.1814L107.632 55.2237C104.639 49.717 106.913 44.8987 114.455 40.5592C122.205 36.1328 131.074 34.0533 139.984 34.5736C149.654 35.1159 159.049 37.991 167.367 42.9534C176.765 48.3703 181.613 54.2062 181.733 60.2216C181.852 66.2371 177.124 71.9832 167.607 77.4899Z" fill="#9E4A9E"/>
<path d="M124.84 85.9894L125.02 115.019L146.328 115.109L159.915 111.368L173.682 103.856L182.571 93.9801L182.87 80.782L183.708 63.0648L173.682 76.233L161.112 83.1762L148.543 86.8574L124.84 85.9894Z" fill="#9E4A9E"/>
<path d="M115.592 83.4755V112.954L101.436 108.645L101.407 78.5074L115.592 83.4755Z" fill="#9E4A9E"/>
<path d="M135.315 52.2609V68.4218L125.02 64.621L121.787 59.8326L125.02 54.5055L135.315 52.2609Z" fill="#9E4A9E"/>
<path d="M149.832 90.2398C149.649 90.1797 149.49 90.0633 149.377 89.9073C149.264 89.7513 149.203 89.5636 149.203 89.371C149.203 89.1784 149.264 88.9908 149.377 88.8348C149.49 88.6788 149.649 88.5624 149.832 88.5022C150.302 88.2565 150.825 88.1281 151.356 88.1281C151.887 88.1281 152.41 88.2565 152.88 88.5022C153.063 88.5624 153.223 88.6788 153.335 88.8348C153.448 88.9908 153.509 89.1784 153.509 89.371C153.509 89.5636 153.448 89.7513 153.335 89.9073C153.223 90.0633 153.063 90.1797 152.88 90.2398C152.405 90.4693 151.884 90.5885 151.356 90.5885C150.828 90.5885 150.307 90.4693 149.832 90.2398C149.07 89.7521 150.746 90.6971 149.832 90.2398Z" fill="#9E4A9E"/>
<path d="M159.221 86.0634C160.383 86.0634 161.324 85.5175 161.324 84.844C161.324 84.1706 160.383 83.6247 159.221 83.6247C158.059 83.6247 157.118 84.1706 157.118 84.844C157.118 85.5175 158.059 86.0634 159.221 86.0634Z" fill="#9E4A9E"/>
<path d="M168.549 79.4788C168.737 79.5294 168.903 79.6404 169.021 79.7947C169.139 79.949 169.203 80.138 169.203 80.3323C169.203 80.5267 169.139 80.7157 169.021 80.87C168.903 81.0243 168.737 81.1353 168.549 81.1859C168.08 81.4367 167.557 81.568 167.025 81.568C166.493 81.568 165.97 81.4367 165.501 81.1859C165.313 81.1353 165.147 81.0243 165.029 80.87C164.911 80.7157 164.847 80.5267 164.847 80.3323C164.847 80.138 164.911 79.949 165.029 79.7947C165.147 79.6404 165.313 79.5294 165.501 79.4788C165.97 79.228 166.493 79.0967 167.025 79.0967C167.557 79.0967 168.08 79.228 168.549 79.4788Z" fill="#9E4A9E"/>
<path d="M174.89 77.0402C176.052 77.0402 176.993 76.4943 176.993 75.8208C176.993 75.1474 176.052 74.6015 174.89 74.6015C173.728 74.6015 172.787 75.1474 172.787 75.8208C172.787 76.4943 173.728 77.0402 174.89 77.0402Z" fill="#9E4A9E"/>
<path d="M129.407 93.0138C129.59 93.0739 129.75 93.1903 129.863 93.3463C129.976 93.5023 130.036 93.6899 130.036 93.8825C130.036 94.0751 129.976 94.2629 129.863 94.4189C129.75 94.5749 129.59 94.6912 129.407 94.7514C128.938 95.0022 128.415 95.1334 127.883 95.1334C127.351 95.1334 126.828 95.0022 126.359 94.7514C126.176 94.6912 126.017 94.5749 125.904 94.4189C125.791 94.2629 125.73 94.0751 125.73 93.8825C125.73 93.6899 125.791 93.5023 125.904 93.3463C126.017 93.1903 126.176 93.0739 126.359 93.0138C126.832 92.7776 127.354 92.6546 127.883 92.6546C128.412 92.6546 128.934 92.7776 129.407 93.0138Z" fill="#9E4A9E"/>
<path d="M137.242 88.502C137.425 88.5622 137.584 88.6786 137.697 88.8346C137.81 88.9906 137.871 89.1783 137.871 89.3709C137.871 89.5635 137.81 89.7511 137.697 89.9071C137.584 90.0631 137.425 90.1795 137.242 90.2397C136.768 90.4758 136.247 90.5988 135.718 90.5988C135.189 90.5988 134.667 90.4758 134.193 90.2397C134.01 90.1795 133.851 90.0631 133.738 89.9071C133.625 89.7511 133.564 89.5635 133.564 89.3709C133.564 89.1783 133.625 88.9906 133.738 88.8346C133.851 88.6786 134.01 88.5622 134.193 88.502C134.662 88.2512 135.186 88.12 135.718 88.12C136.249 88.12 136.773 88.2512 137.242 88.502Z" fill="#9E4A9E"/>
<path d="M145.076 83.9904C145.259 84.0506 145.418 84.1669 145.531 84.3229C145.644 84.4789 145.705 84.6666 145.705 84.8592C145.705 85.0518 145.644 85.2395 145.531 85.3955C145.418 85.5515 145.259 85.6679 145.076 85.728C144.603 85.9642 144.081 86.0871 143.552 86.0871C143.023 86.0871 142.501 85.9642 142.028 85.728C141.845 85.6679 141.685 85.5515 141.572 85.3955C141.46 85.2395 141.399 85.0518 141.399 84.8592C141.399 84.6666 141.46 84.4789 141.572 84.3229C141.685 84.1669 141.845 84.0506 142.028 83.9904C142.497 83.7396 143.02 83.6083 143.552 83.6083C144.084 83.6083 144.607 83.7396 145.076 83.9904Z" fill="#9E4A9E"/>
<path d="M151.417 81.5518C152.578 81.5518 153.52 81.0059 153.52 80.3325C153.52 79.659 152.578 79.1131 151.417 79.1131C150.255 79.1131 149.313 79.659 149.313 80.3325C149.313 81.0059 150.255 81.5518 151.417 81.5518Z" fill="#9E4A9E"/>
<path d="M160.714 74.9367C161.568 75.4245 161.568 76.2171 160.714 76.6744C160.246 76.9252 159.722 77.0564 159.19 77.0564C158.658 77.0564 158.135 76.9252 157.666 76.6744C156.843 76.2171 156.843 75.4245 157.666 74.9367C158.139 74.7006 158.661 74.5776 159.19 74.5776C159.719 74.5776 160.241 74.7006 160.714 74.9367Z" fill="#9E4A9E"/>
<path d="M168.549 70.4252C168.732 70.4853 168.891 70.6016 169.004 70.7576C169.117 70.9137 169.178 71.1014 169.178 71.294C169.178 71.4866 169.117 71.6742 169.004 71.8302C168.891 71.9863 168.732 72.1026 168.549 72.1627C168.08 72.4136 167.557 72.5448 167.025 72.5448C166.493 72.5448 165.97 72.4136 165.501 72.1627C165.318 72.1026 165.158 71.9863 165.046 71.8302C164.933 71.6742 164.872 71.4866 164.872 71.294C164.872 71.1014 164.933 70.9137 165.046 70.7576C165.158 70.6016 165.318 70.4853 165.501 70.4252C165.974 70.189 166.496 70.066 167.025 70.066C167.554 70.066 168.076 70.189 168.549 70.4252Z" fill="#9E4A9E"/>
<path d="M176.384 65.9134C176.567 65.9735 176.726 66.0899 176.839 66.2459C176.952 66.4019 177.013 66.5896 177.013 66.7822C177.013 66.9748 176.952 67.1625 176.839 67.3185C176.726 67.4745 176.567 67.5909 176.384 67.651C175.91 67.8872 175.388 68.0101 174.859 68.0101C174.33 68.0101 173.809 67.8872 173.335 67.651C173.152 67.5909 172.993 67.4745 172.88 67.3185C172.767 67.1625 172.706 66.9748 172.706 66.7822C172.706 66.5896 172.767 66.4019 172.88 66.2459C172.993 66.0899 173.152 65.9735 173.335 65.9134C173.804 65.6625 174.328 65.5313 174.859 65.5313C175.391 65.5313 175.915 65.6625 176.384 65.9134Z" fill="#9E4A9E"/>
<path d="M110.751 93.0138C111.226 92.7843 111.747 92.6651 112.275 92.6651C112.803 92.6651 113.324 92.7843 113.799 93.0138C113.982 93.0739 114.141 93.1903 114.254 93.3463C114.367 93.5023 114.428 93.69 114.428 93.8826C114.428 94.0752 114.367 94.2629 114.254 94.4189C114.141 94.5749 113.982 94.6912 113.799 94.7514C112.946 95.2391 109.928 93.5015 110.751 93.0138Z" fill="#9E4A9E"/>
<path d="M121.573 88.502C122.426 88.9898 122.426 89.7519 121.573 90.2397C121.099 90.4758 120.578 90.5988 120.049 90.5988C119.52 90.5988 118.998 90.4758 118.524 90.2397C118.341 90.1795 118.182 90.0631 118.069 89.9071C117.956 89.7511 117.895 89.5635 117.895 89.3709C117.895 89.1783 117.956 88.9906 118.069 88.8346C118.182 88.6786 118.341 88.5622 118.524 88.502C118.993 88.2512 119.517 88.12 120.049 88.12C120.58 88.12 121.104 88.2512 121.573 88.502Z" fill="#9E4A9E"/>
<path d="M129.407 83.9904C129.59 84.0506 129.75 84.1669 129.863 84.3229C129.976 84.4789 130.036 84.6666 130.036 84.8592C130.036 85.0518 129.976 85.2395 129.863 85.3955C129.75 85.5515 129.59 85.6679 129.407 85.728C128.934 85.9642 128.412 86.0871 127.883 86.0871C127.354 86.0871 126.832 85.9642 126.359 85.728C126.176 85.6679 126.017 85.5515 125.904 85.3955C125.791 85.2395 125.73 85.0518 125.73 84.8592C125.73 84.6666 125.791 84.4789 125.904 84.3229C126.017 84.1669 126.176 84.0506 126.359 83.9904C126.828 83.7396 127.351 83.6083 127.883 83.6083C128.415 83.6083 128.938 83.7396 129.407 83.9904Z" fill="#9E4A9E"/>
<path d="M137.242 79.4788C137.429 79.5294 137.595 79.6404 137.713 79.7947C137.832 79.949 137.896 80.138 137.896 80.3323C137.896 80.5267 137.832 80.7157 137.713 80.87C137.595 81.0243 137.429 81.1353 137.242 81.1859C136.773 81.4367 136.249 81.568 135.718 81.568C135.186 81.568 134.662 81.4367 134.193 81.1859C134.006 81.1353 133.84 81.0243 133.722 80.87C133.604 80.7157 133.539 80.5267 133.539 80.3323C133.539 80.138 133.604 79.949 133.722 79.7947C133.84 79.6404 134.006 79.5294 134.193 79.4788C134.662 79.228 135.186 79.0967 135.718 79.0967C136.249 79.0967 136.773 79.228 137.242 79.4788Z" fill="#9E4A9E"/>
<path d="M159.221 67.9865C160.383 67.9865 161.324 67.4405 161.324 66.7671C161.324 66.0937 160.383 65.5477 159.221 65.5477C158.059 65.5477 157.118 66.0937 157.118 66.7671C157.118 67.4405 158.059 67.9865 159.221 67.9865Z" fill="#9E4A9E"/>
<path d="M167.055 63.4745C168.217 63.4745 169.159 62.9285 169.159 62.2551C169.159 61.5816 168.217 61.0357 167.055 61.0357C165.894 61.0357 164.952 61.5816 164.952 62.2551C164.952 62.9285 165.894 63.4745 167.055 63.4745Z" fill="#9E4A9E"/>
<path d="M176.384 56.8902C176.571 56.9408 176.737 57.0518 176.855 57.2061C176.973 57.3604 177.037 57.5494 177.037 57.7437C177.037 57.9381 176.973 58.1271 176.855 58.2814C176.737 58.4357 176.571 58.5467 176.384 58.5973C175.915 58.8481 175.391 58.9794 174.859 58.9794C174.328 58.9794 173.804 58.8481 173.335 58.5973C173.147 58.5467 172.982 58.4357 172.864 58.2814C172.745 58.1271 172.681 57.9381 172.681 57.7437C172.681 57.5494 172.745 57.3604 172.864 57.2061C172.982 57.0518 173.147 56.9408 173.335 56.8902C173.804 56.6393 174.328 56.5081 174.859 56.5081C175.391 56.5081 175.915 56.6393 176.384 56.8902Z" fill="#9E4A9E"/>
<path d="M102.947 90.2397C102.764 90.1795 102.605 90.0631 102.492 89.9071C102.379 89.7511 102.318 89.5635 102.318 89.3709C102.318 89.1783 102.379 88.9906 102.492 88.8346C102.605 88.6786 102.764 88.5622 102.947 88.502C103.416 88.2512 103.939 88.12 104.471 88.12C105.003 88.12 105.526 88.2512 105.995 88.502C106.178 88.5622 106.338 88.6786 106.451 88.8346C106.563 88.9906 106.624 89.1783 106.624 89.3709C106.624 89.5635 106.563 89.7511 106.451 89.9071C106.338 90.0631 106.178 90.1795 105.995 90.2397C105.522 90.4758 105 90.5988 104.471 90.5988C103.942 90.5988 103.42 90.4758 102.947 90.2397Z" fill="#9E4A9E"/>
<path d="M113.769 83.9906C113.952 84.0507 114.111 84.1671 114.224 84.3231C114.337 84.4791 114.397 84.6668 114.397 84.8594C114.397 85.052 114.337 85.2397 114.224 85.3957C114.111 85.5517 113.952 85.6681 113.769 85.7282C113.293 85.9577 112.772 86.0769 112.244 86.0769C111.717 86.0769 111.196 85.9577 110.72 85.7282C110.537 85.6681 110.378 85.5517 110.265 85.3957C110.152 85.2397 110.091 85.052 110.091 84.8594C110.091 84.6668 110.152 84.4791 110.265 84.3231C110.378 84.1671 110.537 84.0507 110.72 83.9906C111.191 83.7449 111.714 83.6165 112.244 83.6165C112.775 83.6165 113.298 83.7449 113.769 83.9906Z" fill="#9E4A9E"/>
<path d="M121.573 79.4788C122.426 79.9361 122.426 80.7286 121.573 81.1859C121.104 81.4367 120.58 81.568 120.049 81.568C119.517 81.568 118.993 81.4367 118.524 81.1859C118.337 81.1353 118.171 81.0243 118.053 80.87C117.934 80.7157 117.87 80.5267 117.87 80.3323C117.87 80.138 117.934 79.949 118.053 79.7947C118.171 79.6404 118.337 79.5294 118.524 79.4788C118.993 79.228 119.517 79.0967 120.049 79.0967C120.58 79.0967 121.104 79.228 121.573 79.4788Z" fill="#9E4A9E"/>
<path d="M129.407 74.9367C130.23 75.4245 130.23 76.2171 129.407 76.6744C128.938 76.9252 128.415 77.0564 127.883 77.0564C127.351 77.0564 126.827 76.9252 126.359 76.6744C125.535 76.2171 125.535 75.4245 126.359 74.9367C126.832 74.7006 127.354 74.5776 127.883 74.5776C128.412 74.5776 128.934 74.7006 129.407 74.9367Z" fill="#9E4A9E"/>
<path d="M152.88 61.4016C153.703 61.8589 153.703 62.6515 152.88 63.1392C152.405 63.3687 151.884 63.4879 151.356 63.4879C150.828 63.4879 150.307 63.3687 149.832 63.1392C149.009 62.6515 149.009 61.8589 149.832 61.4016C150.302 61.1559 150.825 61.0275 151.356 61.0275C151.887 61.0275 152.41 61.1559 152.88 61.4016Z" fill="#9E4A9E"/>
<path d="M160.715 56.8902C161.568 57.3474 161.568 58.14 160.715 58.5973C160.246 58.8481 159.722 58.9794 159.19 58.9794C158.659 58.9794 158.135 58.8481 157.666 58.5973C157.478 58.5467 157.313 58.4357 157.194 58.2814C157.076 58.1271 157.012 57.9381 157.012 57.7437C157.012 57.5494 157.076 57.3604 157.194 57.2061C157.313 57.0518 157.478 56.9408 157.666 56.8902C158.135 56.6393 158.659 56.5081 159.19 56.5081C159.722 56.5081 160.246 56.6393 160.715 56.8902Z" fill="#9E4A9E"/>
<path d="M168.549 52.3477C168.732 52.4079 168.891 52.5243 169.004 52.6803C169.117 52.8363 169.178 53.024 169.178 53.2166C169.178 53.4092 169.117 53.5968 169.004 53.7528C168.891 53.9088 168.732 54.0252 168.549 54.0854C168.08 54.3362 167.557 54.4675 167.025 54.4675C166.493 54.4675 165.97 54.3362 165.501 54.0854C165.318 54.0252 165.158 53.9088 165.046 53.7528C164.933 53.5968 164.872 53.4092 164.872 53.2166C164.872 53.024 164.933 52.8363 165.046 52.6803C165.158 52.5243 165.318 52.4079 165.501 52.3477C165.974 52.1116 166.496 51.9886 167.025 51.9886C167.554 51.9886 168.076 52.1116 168.549 52.3477Z" fill="#9E4A9E"/>
<path d="M98.0084 83.9904C98.1914 84.0506 98.3507 84.1669 98.4636 84.3229C98.5766 84.4789 98.6374 84.6666 98.6374 84.8592C98.6374 85.0518 98.5766 85.2395 98.4636 85.3955C98.3507 85.5515 98.1914 85.6679 98.0084 85.728C97.5351 85.9642 97.0133 86.0871 96.4842 86.0871C95.9552 86.0871 95.4334 85.9642 94.96 85.728C94.777 85.6679 94.6177 85.5515 94.5048 85.3955C94.3919 85.2395 94.331 85.0518 94.331 84.8592C94.331 84.6666 94.3919 84.4789 94.5048 84.3229C94.6177 84.1669 94.777 84.0506 94.96 83.9904C95.4289 83.7396 95.9525 83.6083 96.4842 83.6083C97.016 83.6083 97.5395 83.7396 98.0084 83.9904Z" fill="#9E4A9E"/>
<path d="M105.934 79.4788C106.122 79.5294 106.288 79.6404 106.406 79.7947C106.524 79.949 106.588 80.138 106.588 80.3323C106.588 80.5267 106.524 80.7157 106.406 80.87C106.288 81.0243 106.122 81.1353 105.934 81.1859C105.465 81.4367 104.942 81.568 104.41 81.568C103.878 81.568 103.355 81.4367 102.886 81.1859C102.698 81.1353 102.532 81.0243 102.414 80.87C102.296 80.7157 102.232 80.5267 102.232 80.3323C102.232 80.138 102.296 79.949 102.414 79.7947C102.532 79.6404 102.698 79.5294 102.886 79.4788C103.355 79.228 103.878 79.0967 104.41 79.0967C104.942 79.0967 105.465 79.228 105.934 79.4788Z" fill="#9E4A9E"/>
<path d="M113.769 74.9368C114.592 75.4245 114.592 76.2171 113.769 76.6744C113.298 76.9201 112.775 77.0485 112.245 77.0485C111.714 77.0485 111.191 76.9201 110.72 76.6744C109.897 76.2171 109.897 75.4245 110.72 74.9368C111.196 74.7073 111.717 74.5881 112.245 74.5881C112.772 74.5881 113.294 74.7073 113.769 74.9368Z" fill="#9E4A9E"/>
<path d="M121.603 70.4252C121.786 70.4853 121.946 70.6017 122.059 70.7577C122.172 70.9137 122.232 71.1014 122.232 71.294C122.232 71.4866 122.172 71.6743 122.059 71.8303C121.946 71.9863 121.786 72.1026 121.603 72.1628C121.133 72.4085 120.61 72.5368 120.079 72.5368C119.548 72.5368 119.025 72.4085 118.555 72.1628C118.372 72.1026 118.213 71.9863 118.1 71.8303C117.987 71.6743 117.926 71.4866 117.926 71.294C117.926 71.1014 117.987 70.9137 118.1 70.7577C118.213 70.6017 118.372 70.4853 118.555 70.4252C119.03 70.1957 119.551 70.0764 120.079 70.0764C120.607 70.0764 121.128 70.1957 121.603 70.4252Z" fill="#9E4A9E"/>
<path d="M145.076 56.8902C145.264 56.9408 145.43 57.0518 145.548 57.2061C145.666 57.3604 145.73 57.5494 145.73 57.7437C145.73 57.9381 145.666 58.1271 145.548 58.2814C145.43 58.4357 145.264 58.5467 145.076 58.5973C144.607 58.8481 144.084 58.9794 143.552 58.9794C143.02 58.9794 142.497 58.8481 142.028 58.5973C141.84 58.5467 141.674 58.4357 141.556 58.2814C141.438 58.1271 141.374 57.9381 141.374 57.7437C141.374 57.5494 141.438 57.3604 141.556 57.2061C141.674 57.0518 141.84 56.9408 142.028 56.8902C142.497 56.6393 143.02 56.5081 143.552 56.5081C144.084 56.5081 144.607 56.6393 145.076 56.8902Z" fill="#9E4A9E"/>
<path d="M152.88 52.3478C153.063 52.4079 153.223 52.5243 153.335 52.6803C153.448 52.8363 153.509 53.024 153.509 53.2166C153.509 53.4092 153.448 53.5968 153.335 53.7529C153.223 53.9089 153.063 54.0253 152.88 54.0854C152.41 54.3311 151.887 54.4595 151.356 54.4595C150.825 54.4595 150.302 54.3311 149.832 54.0854C149.649 54.0253 149.49 53.9089 149.377 53.7529C149.264 53.5968 149.203 53.4092 149.203 53.2166C149.203 53.024 149.264 52.8363 149.377 52.6803C149.49 52.5243 149.649 52.4079 149.832 52.3478C150.307 52.1183 150.828 51.9991 151.356 51.9991C151.884 51.9991 152.405 52.1183 152.88 52.3478Z" fill="#9E4A9E"/>
<path d="M160.715 47.8361C161.568 48.3239 161.568 49.086 160.715 49.5738C160.246 49.8246 159.722 49.9558 159.19 49.9558C158.659 49.9558 158.135 49.8246 157.666 49.5738C157.483 49.5136 157.324 49.3972 157.211 49.2412C157.098 49.0852 157.037 48.8975 157.037 48.7049C157.037 48.5124 157.098 48.3246 157.211 48.1686C157.324 48.0126 157.483 47.8963 157.666 47.8361C158.14 47.6 158.661 47.477 159.19 47.477C159.719 47.477 160.241 47.6 160.715 47.8361Z" fill="#9E4A9E"/>
<path d="M90.2653 79.4788C90.453 79.5294 90.6188 79.6404 90.737 79.7947C90.8552 79.949 90.9192 80.138 90.9192 80.3323C90.9192 80.5267 90.8552 80.7157 90.737 80.87C90.6188 81.0243 90.453 81.1353 90.2653 81.1859C89.7964 81.4367 89.2729 81.568 88.7411 81.568C88.2093 81.568 87.6858 81.4367 87.2169 81.1859C87.0292 81.1353 86.8635 81.0243 86.7453 80.87C86.6271 80.7157 86.563 80.5267 86.563 80.3323C86.563 80.138 86.6271 79.949 86.7453 79.7947C86.8635 79.6404 87.0292 79.5294 87.2169 79.4788C87.6858 79.228 88.2093 79.0967 88.7411 79.0967C89.2729 79.0967 89.7964 79.228 90.2653 79.4788Z" fill="#9E4A9E"/>
<path d="M98.0083 74.9367C98.8314 75.4245 98.8314 76.2171 98.0083 76.6744C97.5394 76.9252 97.0159 77.0564 96.4841 77.0564C95.9523 77.0564 95.4288 76.9252 94.9599 76.6744C94.1368 76.2171 94.1368 75.4245 94.9599 74.9367C95.4333 74.7006 95.9551 74.5776 96.4841 74.5776C97.0131 74.5776 97.5349 74.7006 98.0083 74.9367Z" fill="#9E4A9E"/>
<path d="M105.934 70.4252C106.117 70.4853 106.277 70.6016 106.389 70.7576C106.502 70.9137 106.563 71.1014 106.563 71.294C106.563 71.4866 106.502 71.6742 106.389 71.8302C106.277 71.9863 106.117 72.1026 105.934 72.1627C105.465 72.4136 104.942 72.5448 104.41 72.5448C103.878 72.5448 103.355 72.4136 102.886 72.1627C102.703 72.1026 102.544 71.9863 102.431 71.8302C102.318 71.6742 102.257 71.4866 102.257 71.294C102.257 71.1014 102.318 70.9137 102.431 70.7576C102.544 70.6016 102.703 70.4853 102.886 70.4252C103.359 70.189 103.881 70.066 104.41 70.066C104.939 70.066 105.461 70.189 105.934 70.4252Z" fill="#9E4A9E"/>
<path d="M113.769 65.9132C113.952 65.9734 114.111 66.0897 114.224 66.2458C114.337 66.4018 114.397 66.5894 114.397 66.782C114.397 66.9746 114.337 67.1623 114.224 67.3184C114.111 67.4744 113.952 67.5907 113.769 67.6508C113.293 67.8803 112.772 67.9995 112.244 67.9995C111.717 67.9995 111.196 67.8803 110.72 67.6508C110.537 67.5907 110.378 67.4744 110.265 67.3184C110.152 67.1623 110.091 66.9746 110.091 66.782C110.091 66.5894 110.152 66.4018 110.265 66.2458C110.378 66.0897 110.537 65.9734 110.72 65.9132C111.191 65.6675 111.714 65.5391 112.244 65.5391C112.775 65.5391 113.298 65.6675 113.769 65.9132Z" fill="#9E4A9E"/>
<path d="M121.603 61.4016C122.426 61.8589 122.426 62.6515 121.603 63.1392C121.128 63.3687 120.607 63.4879 120.079 63.4879C119.551 63.4879 119.03 63.3687 118.555 63.1392C117.732 62.6515 117.732 61.8589 118.555 61.4016C119.025 61.1559 119.548 61.0275 120.079 61.0275C120.61 61.0275 121.133 61.1559 121.603 61.4016Z" fill="#9E4A9E"/>
<path d="M129.407 56.8902C129.595 56.9408 129.76 57.0518 129.879 57.2061C129.997 57.3604 130.061 57.5494 130.061 57.7437C130.061 57.9381 129.997 58.1271 129.879 58.2814C129.76 58.4357 129.595 58.5467 129.407 58.5973C128.938 58.8481 128.415 58.9794 127.883 58.9794C127.351 58.9794 126.827 58.8481 126.359 58.5973C126.171 58.5467 126.005 58.4357 125.887 58.2814C125.769 58.1271 125.705 57.9381 125.705 57.7437C125.705 57.5494 125.769 57.3604 125.887 57.2061C126.005 57.0518 126.171 56.9408 126.359 56.8902C126.827 56.6393 127.351 56.5081 127.883 56.5081C128.415 56.5081 128.938 56.6393 129.407 56.8902Z" fill="#9E4A9E"/>
<path d="M137.242 52.3477C137.425 52.4079 137.584 52.5243 137.697 52.6803C137.81 52.8363 137.871 53.024 137.871 53.2166C137.871 53.4092 137.81 53.5968 137.697 53.7528C137.584 53.9088 137.425 54.0252 137.242 54.0854C136.773 54.3362 136.249 54.4675 135.718 54.4675C135.186 54.4675 134.662 54.3362 134.193 54.0854C134.01 54.0252 133.851 53.9088 133.738 53.7528C133.625 53.5968 133.564 53.4092 133.564 53.2166C133.564 53.024 133.625 52.8363 133.738 52.6803C133.851 52.5243 134.01 52.4079 134.193 52.3477C134.667 52.1116 135.189 51.9886 135.718 51.9886C136.247 51.9886 136.768 52.1116 137.242 52.3477Z" fill="#9E4A9E"/>
<path d="M143.582 49.9396C144.744 49.9396 145.686 49.3937 145.686 48.7202C145.686 48.0468 144.744 47.5009 143.582 47.5009C142.421 47.5009 141.479 48.0468 141.479 48.7202C141.479 49.3937 142.421 49.9396 143.582 49.9396Z" fill="#9E4A9E"/>
<path d="M82.4614 74.9368C83.2844 75.4245 83.2844 76.2171 82.4614 76.6744C81.9909 76.9201 81.4679 77.0485 80.9371 77.0485C80.4063 77.0485 79.8834 76.9201 79.4129 76.6744C78.5899 76.2171 78.5899 75.4245 79.4129 74.9368C79.8883 74.7073 80.4093 74.5881 80.9371 74.5881C81.465 74.5881 81.986 74.7073 82.4614 74.9368Z" fill="#9E4A9E"/>
<path d="M90.2653 70.4252C90.4483 70.4853 90.6077 70.6016 90.7206 70.7576C90.8335 70.9137 90.8943 71.1014 90.8943 71.294C90.8943 71.4866 90.8335 71.6742 90.7206 71.8302C90.6077 71.9863 90.4483 72.1026 90.2653 72.1627C89.7964 72.4136 89.2729 72.5448 88.7411 72.5448C88.2093 72.5448 87.6858 72.4136 87.2169 72.1627C87.0339 72.1026 86.8746 71.9863 86.7617 71.8302C86.6487 71.6742 86.5879 71.4866 86.5879 71.294C86.5879 71.1014 86.6487 70.9137 86.7617 70.7576C86.8746 70.6016 87.0339 70.4853 87.2169 70.4252C87.6903 70.189 88.2121 70.066 88.7411 70.066C89.2701 70.066 89.7919 70.189 90.2653 70.4252Z" fill="#9E4A9E"/>
<path d="M98.0084 65.9134C98.1914 65.9735 98.3507 66.0899 98.4636 66.2459C98.5766 66.4019 98.6374 66.5896 98.6374 66.7822C98.6374 66.9748 98.5766 67.1625 98.4636 67.3185C98.3507 67.4745 98.1914 67.5909 98.0084 67.651C97.5351 67.8872 97.0133 68.0101 96.4842 68.0101C95.9552 68.0101 95.4334 67.8872 94.96 67.651C94.777 67.5909 94.6177 67.4745 94.5048 67.3185C94.3919 67.1625 94.331 66.9748 94.331 66.7822C94.331 66.5896 94.3919 66.4019 94.5048 66.2459C94.6177 66.0899 94.777 65.9735 94.96 65.9134C95.4289 65.6625 95.9525 65.5313 96.4842 65.5313C97.016 65.5313 97.5395 65.6625 98.0084 65.9134Z" fill="#9E4A9E"/>
<path d="M113.769 56.89C113.957 56.9406 114.122 57.0516 114.241 57.2059C114.359 57.3602 114.423 57.5492 114.423 57.7435C114.423 57.9379 114.359 58.1269 114.241 58.2812C114.122 58.4355 113.957 58.5465 113.769 58.5971C113.298 58.8428 112.776 58.9712 112.245 58.9712C111.714 58.9712 111.191 58.8428 110.721 58.5971C110.533 58.5465 110.367 58.4355 110.249 58.2812C110.131 58.1269 110.067 57.9379 110.067 57.7435C110.067 57.5492 110.131 57.3602 110.249 57.2059C110.367 57.0516 110.533 56.9406 110.721 56.89C111.191 56.6442 111.714 56.5159 112.245 56.5159C112.776 56.5159 113.298 56.6442 113.769 56.89Z" fill="#9E4A9E"/>
<path d="M121.603 52.3478C121.786 52.4079 121.946 52.5243 122.059 52.6803C122.172 52.8363 122.232 53.024 122.232 53.2166C122.232 53.4092 122.172 53.5968 122.059 53.7529C121.946 53.9089 121.786 54.0253 121.603 54.0854C121.133 54.3311 120.61 54.4595 120.079 54.4595C119.548 54.4595 119.025 54.3311 118.555 54.0854C118.372 54.0253 118.213 53.9089 118.1 53.7529C117.987 53.5968 117.926 53.4092 117.926 53.2166C117.926 53.024 117.987 52.8363 118.1 52.6803C118.213 52.5243 118.372 52.4079 118.555 52.3478C119.03 52.1183 119.551 51.9991 120.079 51.9991C120.607 51.9991 121.128 52.1183 121.603 52.3478Z" fill="#9E4A9E"/>
<path d="M129.407 47.8361C129.59 47.8963 129.75 48.0126 129.863 48.1686C129.976 48.3246 130.036 48.5124 130.036 48.7049C130.036 48.8975 129.976 49.0852 129.863 49.2412C129.75 49.3972 129.59 49.5136 129.407 49.5738C128.938 49.8246 128.415 49.9558 127.883 49.9558C127.351 49.9558 126.828 49.8246 126.359 49.5738C126.176 49.5136 126.017 49.3972 125.904 49.2412C125.791 49.0852 125.73 48.8975 125.73 48.7049C125.73 48.5124 125.791 48.3246 125.904 48.1686C126.017 48.0126 126.176 47.8963 126.359 47.8361C126.832 47.6 127.354 47.477 127.883 47.477C128.412 47.477 128.934 47.6 129.407 47.8361Z" fill="#9E4A9E"/>
<path d="M82.3698 65.8525C83.1929 66.3403 83.1929 67.1328 82.3698 67.5901C81.9009 67.8409 81.3774 67.9722 80.8456 67.9722C80.3138 67.9722 79.7903 67.8409 79.3214 67.5901C78.4983 67.1328 78.4983 66.3403 79.3214 65.8525C79.7948 65.6163 80.3166 65.4934 80.8456 65.4934C81.3746 65.4934 81.8964 65.6163 82.3698 65.8525Z" fill="#9E4A9E"/>
<path d="M90.2043 61.3408C90.3872 61.401 90.5465 61.5174 90.6595 61.6734C90.7724 61.8294 90.8333 62.0171 90.8333 62.2097C90.8333 62.4023 90.7724 62.59 90.6595 62.746C90.5465 62.902 90.3872 63.0183 90.2043 63.0785C89.7354 63.3293 89.2118 63.4606 88.6801 63.4606C88.1483 63.4606 87.6247 63.3293 87.1558 63.0785C86.9729 63.0183 86.8136 62.902 86.7006 62.746C86.5877 62.59 86.5269 62.4023 86.5269 62.2097C86.5269 62.0171 86.5877 61.8294 86.7006 61.6734C86.8136 61.5174 86.9729 61.401 87.1558 61.3408C87.6292 61.1047 88.151 60.9818 88.6801 60.9818C89.2091 60.9818 89.7309 61.1047 90.2043 61.3408Z" fill="#9E4A9E"/>
<path d="M73.0417 63.4443C74.2034 63.4443 75.1451 62.8984 75.1451 62.2249C75.1451 61.5515 74.2034 61.0056 73.0417 61.0056C71.88 61.0056 70.9382 61.5515 70.9382 62.2249C70.9382 62.8984 71.88 63.4443 73.0417 63.4443Z" fill="#9E4A9E"/>
<path d="M82.37 56.8291C82.5529 56.8893 82.7122 57.0057 82.8252 57.1617C82.9381 57.3177 82.9989 57.5054 82.9989 57.698C82.9989 57.8906 82.9381 58.0782 82.8252 58.2342C82.7122 58.3902 82.5529 58.5066 82.37 58.5668C81.8966 58.8029 81.3748 58.9259 80.8457 58.9259C80.3167 58.9259 79.7949 58.8029 79.3215 58.5668C79.1386 58.5066 78.9793 58.3902 78.8663 58.2342C78.7534 58.0782 78.6926 57.8906 78.6926 57.698C78.6926 57.5054 78.7534 57.3177 78.8663 57.1617C78.9793 57.0057 79.1386 56.8893 79.3215 56.8291C79.7904 56.5783 80.314 56.4471 80.8457 56.4471C81.3775 56.4471 81.9011 56.5783 82.37 56.8291Z" fill="#9E4A9E"/>
<path d="M90.2045 52.3175C91.0276 52.7748 91.0276 53.5674 90.2045 54.0551C89.7311 54.2913 89.2093 54.4143 88.6803 54.4143C88.1513 54.4143 87.6295 54.2913 87.1561 54.0551C86.333 53.5674 86.333 52.7748 87.1561 52.3175C87.625 52.0667 88.1485 51.9355 88.6803 51.9355C89.2121 51.9355 89.7356 52.0667 90.2045 52.3175Z" fill="#9E4A9E"/>
<path d="M98.0084 47.8055C98.1961 47.8561 98.3619 47.9671 98.4801 48.1214C98.5983 48.2757 98.6624 48.4647 98.6624 48.6591C98.6624 48.8534 98.5983 49.0424 98.4801 49.1967C98.3619 49.351 98.1961 49.462 98.0084 49.5126C97.5395 49.7635 97.016 49.8947 96.4842 49.8947C95.9525 49.8947 95.4289 49.7635 94.96 49.5126C94.7723 49.462 94.6065 49.351 94.4883 49.1967C94.3701 49.0424 94.3061 48.8534 94.3061 48.6591C94.3061 48.4647 94.3701 48.2757 94.4883 48.1214C94.6065 47.9671 94.7723 47.8561 94.96 47.8055C95.4289 47.5547 95.9525 47.4234 96.4842 47.4234C97.016 47.4234 97.5395 47.5547 98.0084 47.8055Z" fill="#9E4A9E"/>
<path d="M74.5658 52.3173C75.3889 52.7746 75.3889 53.5671 74.5658 54.0549C74.0905 54.2844 73.5694 54.4036 73.0416 54.4036C72.5137 54.4036 71.9927 54.2844 71.5174 54.0549C71.3344 53.9948 71.1751 53.8784 71.0622 53.7224C70.9492 53.5664 70.8884 53.3787 70.8884 53.1861C70.8884 52.9935 70.9492 52.8058 71.0622 52.6498C71.1751 52.4938 71.3344 52.3775 71.5174 52.3173C71.9879 52.0716 72.5108 51.9432 73.0416 51.9432C73.5724 51.9432 74.0953 52.0716 74.5658 52.3173Z" fill="#9E4A9E"/>
<path d="M82.37 47.8055C82.5576 47.8561 82.7234 47.9671 82.8416 48.1214C82.9598 48.2757 83.0239 48.4647 83.0239 48.6591C83.0239 48.8534 82.9598 49.0424 82.8416 49.1967C82.7234 49.351 82.5576 49.462 82.37 49.5126C81.9011 49.7635 81.3775 49.8947 80.8457 49.8947C80.314 49.8947 79.7904 49.7635 79.3215 49.5126C79.1339 49.462 78.9682 49.351 78.85 49.1967C78.7318 49.0424 78.6676 48.8534 78.6676 48.6591C78.6676 48.4647 78.7318 48.2757 78.85 48.1214C78.9682 47.9671 79.1339 47.8561 79.3215 47.8055C79.7904 47.5547 80.314 47.4234 80.8457 47.4234C81.3775 47.4234 81.9011 47.5547 82.37 47.8055Z" fill="#9E4A9E"/>
<path d="M90.2043 43.2635C90.3872 43.3236 90.5465 43.44 90.6595 43.596C90.7724 43.752 90.8333 43.9397 90.8333 44.1323C90.8333 44.3249 90.7724 44.5126 90.6595 44.6686C90.5465 44.8246 90.3872 44.941 90.2043 45.0011C89.7354 45.252 89.2118 45.3831 88.6801 45.3831C88.1483 45.3831 87.6247 45.252 87.1558 45.0011C86.9729 44.941 86.8136 44.8246 86.7006 44.6686C86.5877 44.5126 86.5269 44.3249 86.5269 44.1323C86.5269 43.9397 86.5877 43.752 86.7006 43.596C86.8136 43.44 86.9729 43.3236 87.1558 43.2635C87.6292 43.0273 88.151 42.9044 88.6801 42.9044C89.2091 42.9044 89.7309 43.0273 90.2043 43.2635Z" fill="#9E4A9E"/>
<path d="M98.0084 38.7519C98.1914 38.812 98.3507 38.9284 98.4636 39.0844C98.5766 39.2404 98.6374 39.4281 98.6374 39.6207C98.6374 39.8133 98.5766 40.001 98.4636 40.157C98.3507 40.313 98.1914 40.4294 98.0084 40.4895C97.5395 40.7403 97.016 40.8716 96.4842 40.8716C95.9525 40.8716 95.4289 40.7403 94.96 40.4895C94.777 40.4294 94.6177 40.313 94.5048 40.157C94.3919 40.001 94.331 39.8133 94.331 39.6207C94.331 39.4281 94.3919 39.2404 94.5048 39.0844C94.6177 38.9284 94.777 38.812 94.96 38.7519C95.4334 38.5157 95.9552 38.3928 96.4842 38.3928C97.0133 38.3928 97.5351 38.5157 98.0084 38.7519Z" fill="#9E4A9E"/>
<path d="M74.5658 43.2635C74.7488 43.3236 74.9081 43.44 75.021 43.596C75.1339 43.752 75.1948 43.9397 75.1948 44.1323C75.1948 44.3249 75.1339 44.5126 75.021 44.6686C74.9081 44.8246 74.7488 44.941 74.5658 45.0011C74.0953 45.2469 73.5724 45.3752 73.0416 45.3752C72.5108 45.3752 71.9879 45.2469 71.5174 45.0011C71.3344 44.941 71.1751 44.8246 71.0622 44.6686C70.9492 44.5126 70.8884 44.3249 70.8884 44.1323C70.8884 43.9397 70.9492 43.752 71.0622 43.596C71.1751 43.44 71.3344 43.3236 71.5174 43.2635C71.9927 43.034 72.5137 42.9148 73.0416 42.9148C73.5694 42.9148 74.0905 43.034 74.5658 43.2635Z" fill="#9E4A9E"/>
<path d="M82.37 38.7519C82.5529 38.812 82.7122 38.9284 82.8252 39.0844C82.9381 39.2404 82.9989 39.4281 82.9989 39.6207C82.9989 39.8133 82.9381 40.001 82.8252 40.157C82.7122 40.313 82.5529 40.4294 82.37 40.4895C81.9011 40.7403 81.3775 40.8716 80.8457 40.8716C80.314 40.8716 79.7904 40.7403 79.3215 40.4895C79.1386 40.4294 78.9793 40.313 78.8663 40.157C78.7534 40.001 78.6926 39.8133 78.6926 39.6207C78.6926 39.4281 78.7534 39.2404 78.8663 39.0844C78.9793 38.9284 79.1386 38.812 79.3215 38.7519C79.7949 38.5157 80.3167 38.3928 80.8457 38.3928C81.3748 38.3928 81.8966 38.5157 82.37 38.7519Z" fill="#9E4A9E"/>
<path d="M90.2043 34.2401C90.3872 34.3002 90.5465 34.4166 90.6595 34.5726C90.7724 34.7286 90.8333 34.9163 90.8333 35.1089C90.8333 35.3015 90.7724 35.4892 90.6595 35.6452C90.5465 35.8012 90.3872 35.9176 90.2043 35.9777C89.7309 36.2139 89.2091 36.3368 88.6801 36.3368C88.151 36.3368 87.6292 36.2139 87.1558 35.9777C86.9729 35.9176 86.8136 35.8012 86.7006 35.6452C86.5877 35.4892 86.5269 35.3015 86.5269 35.1089C86.5269 34.9163 86.5877 34.7286 86.7006 34.5726C86.8136 34.4166 86.9729 34.3002 87.1558 34.2401C87.6247 33.9893 88.1483 33.8581 88.6801 33.8581C89.2118 33.8581 89.7354 33.9893 90.2043 34.2401Z" fill="#9E4A9E"/>
<path d="M98.0084 29.7285C98.1961 29.7791 98.3619 29.8901 98.4801 30.0444C98.5983 30.1987 98.6624 30.3877 98.6624 30.5821C98.6624 30.7764 98.5983 30.9654 98.4801 31.1197C98.3619 31.274 98.1961 31.385 98.0084 31.4356C97.5395 31.6865 97.016 31.8177 96.4842 31.8177C95.9525 31.8177 95.4289 31.6865 94.96 31.4356C94.7723 31.385 94.6065 31.274 94.4883 31.1197C94.3701 30.9654 94.3061 30.7764 94.3061 30.5821C94.3061 30.3877 94.3701 30.1987 94.4883 30.0444C94.6065 29.8901 94.7723 29.7791 94.96 29.7285C95.4289 29.4777 95.9525 29.3464 96.4842 29.3464C97.016 29.3464 97.5395 29.4777 98.0084 29.7285Z" fill="#9E4A9E"/>
<path d="M105.873 25.2167C106.061 25.2673 106.227 25.3783 106.345 25.5326C106.463 25.6869 106.527 25.8759 106.527 26.0703C106.527 26.2646 106.463 26.4536 106.345 26.6079C106.227 26.7622 106.061 26.8732 105.873 26.9238C105.403 27.1696 104.88 27.2979 104.349 27.2979C103.818 27.2979 103.295 27.1696 102.825 26.9238C102.637 26.8732 102.471 26.7622 102.353 26.6079C102.235 26.4536 102.171 26.2646 102.171 26.0703C102.171 25.8759 102.235 25.6869 102.353 25.5326C102.471 25.3783 102.637 25.2673 102.825 25.2167C103.295 24.971 103.818 24.8426 104.349 24.8426C104.88 24.8426 105.403 24.971 105.873 25.2167Z" fill="#9E4A9E"/>
<path d="M55.0561 6.98282L87.3314 25.9473L65.1178 39.6208L32.8127 20.6882L55.0561 6.98282Z" fill="white"/>
<path d="M62.6696 74.2348L62.3114 89.9163V153.885L30.0062 134.953L29.9166 80.5775L60.0721 70.9837L62.6696 74.2348Z" fill="white"/>
<path d="M62.3115 155.288L28.8717 135.686V79.6534L60.5798 69.5815L63.9536 73.7887L63.5953 89.9483V154.587L62.3115 155.288ZM31.1707 134.124L61.0276 151.718V89.9165L61.3561 74.6812L59.5348 72.3863L31.0513 81.4701L31.1707 134.124Z" fill="#9E4A9E"/>
<path d="M1.49283 71.4939L33.7681 90.4265L65.1179 39.6209L32.8127 20.6884L1.49283 71.4939Z" fill="white"/>
<path d="M55.0561 14.9511L87.3314 33.9155L65.1178 47.589L32.8127 28.6565L55.0561 14.9511Z" fill="#F6CA52"/>
<path d="M55.0263 5.5806L32.0066 19.7641L0 71.6534L0.835989 72.5139L13.7342 84.0839L45.9199 102.953L47.0246 103.463L57.9224 85.6456C59.1764 83.5101 60.3109 81.4384 61.3559 79.4623C61.3559 84.1476 61.1469 89.0242 61.1469 94.3151V154.619L62.3113 155.288L88.4958 139.16V25.2144L55.0263 5.5806ZM33.4099 88.8011L3.13497 71.0478L33.2009 22.3139L35.888 23.9076L63.4758 40.0672L33.4099 88.8011ZM72.5821 33.597L65.088 38.2186L39.1722 23.0151L35.2311 20.6565L55.1158 8.41729L84.9727 25.9475L72.5821 33.597Z" fill="#9E4A9E"/>
<path d="M57.5642 37.8359C57.748 37.8888 57.9104 38.0049 58.0262 38.1662C58.1419 38.3275 58.2047 38.5251 58.2047 38.7283C58.2047 38.9315 58.1419 39.1291 58.0262 39.2904C57.9104 39.4518 57.748 39.5679 57.5642 39.6208C57.1103 39.9005 56.5955 40.0478 56.0714 40.0478C55.5473 40.0478 55.0324 39.9005 54.5785 39.6208C54.3947 39.5679 54.2324 39.4518 54.1166 39.2904C54.0008 39.1291 53.9381 38.9315 53.9381 38.7283C53.9381 38.5251 54.0008 38.3275 54.1166 38.1662C54.2324 38.0049 54.3947 37.8888 54.5785 37.8359C55.0324 37.5561 55.5473 37.4089 56.0714 37.4089C56.5955 37.4089 57.1103 37.5561 57.5642 37.8359Z" fill="#9E4A9E"/>
<path d="M63.7147 35.3178C64.8525 35.3178 65.7748 34.747 65.7748 34.0429C65.7748 33.3388 64.8525 32.768 63.7147 32.768C62.5769 32.768 61.6545 33.3388 61.6545 34.0429C61.6545 34.747 62.5769 35.3178 63.7147 35.3178Z" fill="#9E4A9E"/>
<path d="M71.2984 30.6326C72.4362 30.6326 73.3586 30.0618 73.3586 29.3577C73.3586 28.6535 72.4362 28.0828 71.2984 28.0828C70.1607 28.0828 69.2383 28.6535 69.2383 29.3577C69.2383 30.0618 70.1607 30.6326 71.2984 30.6326Z" fill="#9E4A9E"/>
<path d="M49.9508 33.1507C50.757 33.6607 50.757 34.4575 49.9508 34.9356C49.4969 35.2153 48.9821 35.3626 48.458 35.3626C47.9339 35.3626 47.419 35.2153 46.9651 34.9356C46.159 34.4575 46.159 33.6607 46.9651 33.1507C47.4274 32.8989 47.939 32.7676 48.458 32.7676C48.977 32.7676 49.4886 32.8989 49.9508 33.1507Z" fill="#9E4A9E"/>
<path d="M56.1014 30.6326C57.2392 30.6326 58.1615 30.0618 58.1615 29.3577C58.1615 28.6535 57.2392 28.0828 56.1014 28.0828C54.9636 28.0828 54.0413 28.6535 54.0413 29.3577C54.0413 30.0618 54.9636 30.6326 56.1014 30.6326Z" fill="#9E4A9E"/>
<path d="M65.0882 23.7798C65.3337 23.7798 65.5691 23.8839 65.7427 24.0692C65.9163 24.2545 66.0138 24.5058 66.0138 24.7678C66.0138 25.0299 65.9163 25.2812 65.7427 25.4665C65.5691 25.6518 65.3337 25.7559 65.0882 25.7559C64.626 26.0077 64.1144 26.139 63.5954 26.139C63.0764 26.139 62.5648 26.0077 62.1026 25.7559C61.9233 25.693 61.7673 25.5713 61.6567 25.4082C61.5461 25.2451 61.4865 25.0489 61.4865 24.8475C61.4865 24.6461 61.5461 24.4499 61.6567 24.2868C61.7673 24.1237 61.9233 24.002 62.1026 23.9391C62.5529 23.6623 63.0584 23.5035 63.5774 23.4758C64.0965 23.4481 64.6143 23.5523 65.0882 23.7798Z" fill="#9E4A9E"/>
<path d="M40.904 30.6326C42.0418 30.6326 42.9641 30.0618 42.9641 29.3577C42.9641 28.6535 42.0418 28.0828 40.904 28.0828C39.7662 28.0828 38.8438 28.6535 38.8438 29.3577C38.8438 30.0618 39.7662 30.6326 40.904 30.6326Z" fill="#9E4A9E"/>
<path d="M48.5176 25.9473C49.6554 25.9473 50.5777 25.3765 50.5777 24.6724C50.5777 23.9683 49.6554 23.3975 48.5176 23.3975C47.3798 23.3975 46.4575 23.9683 46.4575 24.6724C46.4575 25.3765 47.3798 25.9473 48.5176 25.9473Z" fill="#9E4A9E"/>
<path d="M57.5641 19.1264C58.3703 19.6045 58.3703 20.4014 57.5641 20.9113C57.1019 21.1632 56.5903 21.2944 56.0713 21.2944C55.5523 21.2944 55.0407 21.1632 54.5784 20.9113C53.7723 20.4014 53.7723 19.6045 54.5784 19.1264C55.0323 18.8467 55.5472 18.6994 56.0713 18.6994C56.5954 18.6994 57.1103 18.8467 57.5641 19.1264Z" fill="#9E4A9E"/>
</svg>
